<?xml version="1.0" encoding="utf-8"?>
<!-- Generator: Adobe Illustrator 16.0.0, SVG Export Plug-In . SVG Version: 6.00 Build 0)  -->
<!DOCTYPE svg PUBLIC "-//W3C//DTD SVG 1.1//EN" "http://www.w3.org/Graphics/SVG/1.1/DTD/svg11.dtd">
<svg version="1.1" id="Layer_1" xmlns="http://www.w3.org/2000/svg" xmlns:xlink="http://www.w3.org/1999/xlink" x="0px" y="0px"
	 width="500px" height="1500px" viewBox="0 0 500 1500" enable-background="new 0 0 500 1500" xml:space="preserve">
<g>
	<path fill="#640000" d="M212.056,948.388c0,0-5.623,19.239-32.323,10.707c-19.596-6.263-28.591-37.217-31.313-64.646
		c-2.626-26.465-4.946-53.246-26.262-55.96c-40.34-5.138-53.692,61.319-54.546,98.586c-1.818,79.393,38.045,125.658,35.638,192.952
		c-1.698,47.45-11.597,58.966-30.789,98.36c-16.704,34.286-35.953,82.322-31.033,125.401c5.174,45.305,22.13,72.543,53.068,99.024
		c22.207,19.008,58.152,36.967,154.828,35.015c82.327-1.663,157.879-0.454,195.86-72.218c24.245-45.81,10.794-107.109,7.275-122.172
		c-11.697-50.07-57.576-119.192-55.42-145.356c3.707-44.981,33.447-55.038,33.197-129.997
		c-0.202-60.809-38.683-69.228-50.158-63.128c-26.407,14.037-2.784,58.092-48.226,77.472c-13.737,5.858-30.078,4.575-33.291,0.216
		c-1.94-2.633-3.679-5.671-5.093-10.721c-1.039-3.712-4.755-5.146-4.755-5.146L212.056,948.388z"/>
	<path fill="#A6A8AA" d="M211.923,1002.173c0,0-22.165-27.926-35.024-14.564c-16.199,16.836,14.166,34.694,3.075,112.227
		c-11.459,80.104-32.123,86.083-31.86,138.108c0.26,51.54,34.482,58.496,37.889,58.496c3.407,0,103.154,0.193,143.298,0.193
		c23.028,0,45.051,18.545,47.838,55.511c2.563,33.994-12.058,72.226-28.468,86.726c-3.559,3.145-5.236,10.854-1.123,16.895
		c4.112,6.039,11.117,8.104,22.817,3.362c12.937-5.241,72.021-29.015,68.703-107.285c-1.94-45.765-13.744-76.252-26.682-102.982
		c-17.886-36.953-37.032-69.996-35.485-97.541c0.774-13.801,1.363-23.885,10.132-42.755c11.564-24.884,24.056-52.851,23.616-81.636
		c-0.659-43.244-13.366-51.81-19.278-49.464c-5.096,2.022-1.925,11.771-7.116,32.663c-4.342,17.472-26.595,39.944-46.785,45.755
		c-35.862,10.317-48.712-1.212-48.712-1.212L211.923,1002.173z"/>
	<path fill="#F3F3F3" d="M214.016,1001.792c0,0-22.25-27.862-35.16-14.529c-16.262,16.795,14.221,34.613,3.086,111.965
		c-11.503,79.919-32.247,85.884-31.983,137.788c0.261,51.421,34.036,57.646,37.456,57.646s100.563,0,140.861,0
		c26.841,0,48.789,21.18,50.641,57.414c1.736,33.969-11.597,73.016-28.07,87.481c-3.573,3.137-4.945,9.91-0.816,15.937
		c4.128,6.025,11.294,6.922,23.039,2.192c12.986-5.229,72.298-28.947,68.968-107.036c-1.947-45.659-13.798-76.075-26.785-102.744
		c-17.954-36.867-37.175-69.834-35.622-97.314c0.777-13.769,1.369-23.829,10.172-42.654c11.608-24.828,24.147-52.729,23.707-81.446
		c-0.662-43.146-17.074-52.493-23.01-50.153c-5.115,2.018-3.155,12.538-8.366,33.381c-4.358,17.431-21.818,39.861-42.087,45.657
		c-36,10.295-48.899-1.209-48.899-1.209L214.016,1001.792z"/>
	<g>
		<path fill="#6D6E70" d="M189.314,1199.484v10.94c-3.403,1.158-5.859,4.426-5.859,8.285s2.456,7.129,5.859,8.286v11.082h93.255
			v-11.081c3.402-1.158,5.858-4.428,5.858-8.287s-2.456-7.128-5.858-8.285v-10.94H189.314z"/>
		<path fill="#272727" d="M190.703,1199.484v10.005c-3.403,1.136-5.859,4.341-5.859,8.127c0,3.785,2.456,6.99,5.859,8.126v10.868
			h93.255v-10.868c3.402-1.136,5.858-4.341,5.858-8.126c0-3.786-2.456-6.991-5.858-8.127v-10.005H190.703z"/>
		<circle fill="#5C5C5C" cx="209.236" cy="1219.152" r="3.061"/>
		<circle fill="#5C5C5C" cx="220.474" cy="1219.152" r="3.061"/>
		<circle fill="#5C5C5C" cx="231.711" cy="1219.152" r="3.061"/>
		<circle fill="#5C5C5C" cx="242.949" cy="1219.152" r="3.061"/>
		<circle fill="#5C5C5C" cx="254.187" cy="1219.152" r="3.061"/>
		<circle fill="#5C5C5C" cx="265.424" cy="1219.152" r="3.061"/>
		<circle fill="#C7C7C7" cx="188.544" cy="1217.651" r="2.99"/>
		<circle fill="#C7C7C7" cx="285.825" cy="1217.651" r="2.99"/>
	</g>
	<g>
		<path fill="#6D6E70" d="M235.849,1236.619v10.94c-3.403,1.158-5.859,4.427-5.859,8.286c0,3.858,2.456,7.128,5.859,8.286v11.081
			h74.907l-0.016-13.079c3.403-1.158,4.48-2.43,4.48-6.288c0-3.859-2.456-7.128-5.859-8.286v-10.94H235.849z"/>
		<path fill="#272727" d="M237.237,1236.619v10.005c-3.403,1.136-5.859,4.342-5.859,8.127s2.456,6.99,5.859,8.126v10.869h73.513
			v-10.868c3.403-1.136,5.859-4.342,5.859-8.127s-2.456-6.991-5.859-8.127v-10.005H237.237z"/>
		<circle fill="#5C5C5C" cx="255.345" cy="1256.288" r="3.061"/>
		<circle fill="#5C5C5C" cx="267.805" cy="1256.288" r="3.061"/>
		<circle fill="#5C5C5C" cx="280.267" cy="1256.288" r="3.061"/>
		<circle fill="#5C5C5C" cx="292.727" cy="1256.288" r="3.061"/>
		<circle fill="#C7C7C7" cx="235.078" cy="1254.787" r="2.991"/>
		<circle fill="#C7C7C7" cx="312.829" cy="1254.787" r="2.991"/>
	</g>
	<rect x="237.741" y="1233.122" fill="#272727" width="46.214" height="8.2"/>
	<circle fill="#C1C1C1" cx="186.139" cy="994.867" r="3.347"/>
	<circle fill="#C1C1C1" cx="188.895" cy="1133.47" r="3.347"/>
	<circle fill="#C1C1C1" cx="165.269" cy="1264.788" r="3.347"/>
	<circle fill="#C1C1C1" cx="249.336" cy="1285.264" r="3.347"/>
	<circle fill="#C1C1C1" cx="339.114" cy="1286.249" r="3.347"/>
	<circle fill="#C1C1C1" cx="379.276" cy="1199.031" r="3.347"/>
	<circle fill="#C1C1C1" cx="300.313" cy="1070.622" r="3.347"/>
	<path fill="#2D1912" d="M220.033,281.037c0,0-18.296,778.534-17.763,785.697c0.519,6.971,8.079,11.367,13.793,13.124
		c2.834,0.873,21.433,3.99,32.646,3.99c13.508,0,34.745-3.471,38.453-5.325c3.748-1.874,8.369-5.391,9.171-9.412
		c1.387-6.964-7.691-353.19-7.691-353.19L220.033,281.037z"/>
	<path fill="#412D26" d="M219.087,279.748c0,0,1.518,3.049,1.403,8.962c-1.683,86.959-16.334,770.169-15.825,776.827
		c0.645,8.435,13.554,12.185,17.137,12.749c2.551,0.4,18.52,2.842,28.257,2.826s30.056-2.313,33.396-3.854
		s12.513-5.558,13.026-12.236s-17.838-785.594-17.838-785.594L219.087,279.748z"/>
	<path fill="#3A2924" d="M222.309,279.73l-3.194,0.018v0.061c0.199,0.433,1.481,3.445,1.375,8.901
		c-0.233,12.069-0.717,35.626-1.375,67.261v721.699c1.109,0.312,2.048,0.516,2.687,0.616c0.131,0.021,0.307,0.048,0.507,0.078
		V279.73z"/>
	<path fill="#3A2924" d="M247.447,1081.063V279.596l-3.193,0.018v801.29C245.349,1080.974,246.418,1081.028,247.447,1081.063z"/>
	<path fill="#53372E" d="M234.599,1080.015v-800.35l-1.808,0.01v800.127C233.384,1079.873,233.987,1079.943,234.599,1080.015z"/>
	<path fill="#53372E" d="M277.683,1078.595V279.433l-1.808,0.01v799.436C276.504,1078.784,277.106,1078.689,277.683,1078.595z"/>
	<path fill="#46322D" d="M264.706,1080.227V279.503l-2.048,0.011v800.903C263.34,1080.356,264.022,1080.293,264.706,1080.227z"/>
	<circle fill="#E8E8E8" cx="232.113" cy="838.475" r="4.198"/>
	<circle fill="#E8E8E8" cx="268.739" cy="838.475" r="4.198"/>
	<circle fill="#E8E8E8" cx="250.427" cy="729.203" r="4.198"/>
	<circle fill="#E8E8E8" cx="250.427" cy="930.471" r="4.198"/>
	<circle fill="#E8E8E8" cx="250.427" cy="983.035" r="4.198"/>
	<circle fill="#E8E8E8" cx="250.427" cy="1030.324" r="4.198"/>
	<path opacity="0.7" fill="#FFFFFF" d="M354.217,1033.056c0,0,10.082-5.572,15.734-20.188c7.349-19.001,5.962-24.413,7.423-31.024
		c1.559-7.051,3.06-9.771,2.745-11.652c-0.37-2.227-5.641,4.453-6.16,9.797c-0.519,5.344-1.632,12.469-5.417,25.31
		C364.876,1017.729,354.217,1033.056,354.217,1033.056z"/>
	<path opacity="0.7" fill="#FFFFFF" d="M129.252,852.239c-0.628,2.695,4.672,17.697,6.199,26.411
		c1.209,6.896,1.914,24.38,2.785,31.891c1.167,10.062,2.964,15.183,7.276,26.501c7.11,18.663,17.607,23.896,17.607,23.896
		s-9.321-11.987-14.733-27.399c-4.132-11.769-5.309-16.269-6.108-24.165c-0.719-7.098-1.838-16.729-3.234-31.981
		C137.876,864.636,129.881,849.543,129.252,852.239z"/>
	<path opacity="0.7" fill="#FFFFFF" d="M50.158,1329.442c0,0,4.776-28.938,19.667-66.866c19.638-50.021,43.829-72.767,44.11-137.105
		c0.17-39.053-10.676-53.943-26.972-117.72c-25.27-98.899,12.362-152.558,12.362-152.558s-21.13,13.567-25.286,70.8
		c-6.181,85.13,36.592,132.028,36.243,199.196c-0.281,53.943-19.667,77.263-41.019,127.553
		C46.641,1306.021,50.158,1329.442,50.158,1329.442z"/>
	<g>
		<path fill="#E6E6E7" d="M133.597,830.859c1.023-0.801,1.737-1.179,0.922-2.827c-0.77-1.561-5.643-3.263-6.888-3.678l0.003-0.012
			c0,0-0.062-0.016-0.15-0.035c-0.084-0.027-0.146-0.048-0.146-0.048l-0.003,0.013c-1.278-0.287-6.333-1.348-7.797-0.411
			c-1.55,0.992-1.133,1.685-0.671,2.898c0.566,1.491,2.41,4.234,2.41,4.234l3.887,1.082l0.295,0.083l3.886,1.081
			C129.345,833.24,132.344,831.844,133.597,830.859z"/>
		
			<rect x="124.389" y="828.627" transform="matrix(-0.268 0.9634 -0.9634 -0.268 960.998 935.4953)" fill="#BBBCBF" width="1.456" height="8.383"/>
		<path fill="#D0D1D3" d="M120.128,832.574c-1.367,0.491-2.835,4.537-3.216,5.651c1.696-0.048,3.442,0.033,5.245,0.263
			c2.77,0.353,5.212,1.119,7.383,2.231c0.313-1.702,0.712-4.626-0.026-5.534c-1.088-1.335-4.096-2.077-4.455-2.163
			C124.709,832.913,121.752,831.994,120.128,832.574z"/>
	</g>
	<g>
		<path fill="#BBBCBF" d="M207.464,914.973c-0.019,0.944-0.038,1.888-0.057,2.825h86.019c-0.021-0.938-0.043-1.881-0.063-2.825
			H207.464z"/>
		<path fill="#BBBCBF" d="M206.897,943.062c-0.019,0.945-0.038,1.888-0.057,2.825h87.212c-0.021-0.938-0.042-1.88-0.063-2.825
			H206.897z"/>
		<path fill="#BBBCBF" d="M208.069,885.316c-0.02,0.944-0.039,1.885-0.058,2.825h84.747c-0.021-0.938-0.042-1.882-0.063-2.825
			H208.069z"/>
		<path fill="#BBBCBF" d="M208.709,854.094c-0.019,0.943-0.039,1.886-0.058,2.825h83.4c-0.021-0.939-0.043-1.882-0.064-2.825
			H208.709z"/>
		<path fill="#BBBCBF" d="M206.369,969.462c-0.019,0.947-0.038,1.89-0.056,2.826h88.324c-0.021-0.937-0.041-1.879-0.062-2.826
			H206.369z"/>
		<path fill="#BBBCBF" d="M296.491,1064.148c-0.001-0.626-0.011-1.577-0.027-2.825h-91.787c-0.014,1.185-0.022,2.13-0.024,2.825
			H296.491z"/>
		<path fill="#BBBCBF" d="M205.01,1040.468c-0.018,0.969-0.034,1.909-0.05,2.826h91.183c-0.018-0.917-0.035-1.856-0.056-2.826
			H205.01z"/>
		<path fill="#BBBCBF" d="M205.421,1018.165c-0.018,0.955-0.036,1.896-0.054,2.826h90.32c-0.02-0.93-0.039-1.871-0.06-2.826H205.421
			z"/>
		<path fill="#BBBCBF" d="M205.88,994.296c-0.019,0.95-0.037,1.892-0.055,2.825h89.353c-0.02-0.934-0.04-1.876-0.061-2.825H205.88z"
			/>
		<path fill="#BBBCBF" d="M209.393,820.941c-0.02,0.943-0.039,1.885-0.059,2.825h81.962c-0.021-0.94-0.043-1.882-0.064-2.825
			H209.393z"/>
		<path fill="#BBBCBF" d="M210.907,747.95c-0.02,0.942-0.039,1.884-0.059,2.825h78.775c-0.021-0.941-0.043-1.883-0.064-2.825
			H210.907z"/>
		<path fill="#BBBCBF" d="M215.576,524.907c-0.02,0.94-0.04,1.882-0.059,2.825h68.94c-0.022-0.943-0.045-1.884-0.066-2.825H215.576z
			"/>
		<path fill="#BBBCBF" d="M216.687,471.975c-0.02,0.94-0.04,1.882-0.059,2.825h66.595c-0.023-0.943-0.045-1.886-0.066-2.825H216.687
			z"/>
		<path fill="#BBBCBF" d="M217.863,415.937c-0.02,0.938-0.04,1.879-0.06,2.825h64.109c-0.022-0.946-0.045-1.886-0.066-2.825H217.863
			z"/>
		<path fill="#BBBCBF" d="M210.128,785.379c-0.019,0.943-0.039,1.885-0.059,2.825h80.414c-0.022-0.94-0.044-1.882-0.065-2.825
			H210.128z"/>
		<path fill="#BBBCBF" d="M219.102,356.603c-0.02,0.935-0.04,1.876-0.059,2.825h61.479c-0.021-0.949-0.044-1.891-0.066-2.825
			H219.102z"/>
		<path fill="#BBBCBF" d="M212.609,666.382c-0.02,0.941-0.039,1.883-0.059,2.825h75.192c-0.021-0.941-0.044-1.884-0.065-2.825
			H212.609z"/>
		<path fill="#BBBCBF" d="M211.73,708.429c-0.02,0.942-0.04,1.884-0.059,2.825h77.042c-0.022-0.941-0.044-1.883-0.065-2.825H211.73z
			"/>
		<path fill="#BBBCBF" d="M213.535,622.163c-0.02,0.942-0.04,1.883-0.06,2.826h73.242c-0.021-0.942-0.044-1.884-0.065-2.826H213.535
			z"/>
		<path fill="#BBBCBF" d="M214.53,574.718c-0.02,0.941-0.04,1.883-0.059,2.826h71.146c-0.022-0.942-0.044-1.885-0.065-2.826H214.53z
			"/>
	</g>
	<g>
		<path fill="#EDEDED" d="M206.381,968.873c-0.019,0.947-0.038,1.89-0.056,2.825h88.299c-0.021-0.937-0.041-1.877-0.062-2.825
			H206.381z"/>
		<path fill="#EDEDED" d="M206.909,942.473c-0.019,0.945-0.038,1.888-0.057,2.825h87.188c-0.021-0.938-0.042-1.879-0.063-2.825
			H206.909z"/>
		<path fill="#EDEDED" d="M209.405,820.353c-0.02,0.942-0.039,1.885-0.059,2.825h81.936c-0.021-0.94-0.043-1.883-0.064-2.825
			H209.405z"/>
		<path fill="#EDEDED" d="M208.721,853.505c-0.02,0.942-0.039,1.885-0.058,2.825h83.375c-0.021-0.939-0.044-1.883-0.064-2.825
			H208.721z"/>
		<path fill="#EDEDED" d="M208.081,884.728c-0.02,0.944-0.039,1.885-0.058,2.825h84.722c-0.021-0.938-0.043-1.882-0.064-2.825
			H208.081z"/>
		<path fill="#EDEDED" d="M207.477,914.384c-0.02,0.945-0.039,1.887-0.058,2.825h85.993c-0.021-0.939-0.042-1.879-0.063-2.825
			H207.477z"/>
		<path fill="#EDEDED" d="M296.487,1063.56c-0.004-0.703-0.016-1.645-0.031-2.825h-91.771c-0.014,1.137-0.023,2.083-0.029,2.825
			H296.487z"/>
		<path fill="#EDEDED" d="M205.02,1039.879c-0.017,0.966-0.034,1.909-0.05,2.825h91.162c-0.019-0.915-0.037-1.859-0.056-2.825
			H205.02z"/>
		<path fill="#EDEDED" d="M205.432,1017.576c-0.018,0.955-0.036,1.896-0.053,2.825h90.297c-0.021-0.928-0.04-1.871-0.06-2.825
			H205.432z"/>
		<path fill="#EDEDED" d="M205.892,993.707c-0.019,0.95-0.037,1.891-0.055,2.825h89.329c-0.02-0.934-0.04-1.876-0.061-2.825H205.892
			z"/>
		<path fill="#EDEDED" d="M219.114,356.013c-0.02,0.936-0.039,1.877-0.059,2.826h61.453c-0.022-0.949-0.044-1.891-0.065-2.826
			H219.114z"/>
		<path fill="#EDEDED" d="M216.7,471.386c-0.02,0.938-0.04,1.882-0.06,2.825h66.568c-0.021-0.944-0.044-1.886-0.065-2.825H216.7z"/>
		<path fill="#EDEDED" d="M214.542,574.129c-0.02,0.941-0.04,1.883-0.06,2.826h71.12c-0.021-0.942-0.044-1.885-0.065-2.826H214.542z
			"/>
		<path fill="#EDEDED" d="M215.588,524.318c-0.02,0.94-0.04,1.882-0.059,2.825h68.914c-0.021-0.944-0.043-1.885-0.065-2.825H215.588
			z"/>
		<path fill="#EDEDED" d="M210.141,784.79c-0.02,0.942-0.04,1.885-0.059,2.825h80.387c-0.022-0.94-0.043-1.883-0.065-2.825H210.141z
			"/>
		<path fill="#EDEDED" d="M217.875,415.348c-0.02,0.939-0.04,1.88-0.06,2.826h64.082c-0.021-0.945-0.043-1.888-0.065-2.826H217.875z
			"/>
		<path fill="#EDEDED" d="M211.743,707.839c-0.02,0.942-0.039,1.884-0.059,2.826H288.7c-0.022-0.942-0.044-1.883-0.065-2.826
			H211.743z"/>
		<path fill="#EDEDED" d="M213.547,621.574c-0.02,0.941-0.04,1.884-0.059,2.825h73.216c-0.022-0.942-0.043-1.884-0.065-2.825
			H213.547z"/>
		<path fill="#EDEDED" d="M210.919,747.361c-0.02,0.942-0.04,1.885-0.059,2.826h78.75c-0.021-0.941-0.044-1.883-0.065-2.826H210.919
			z"/>
		<path fill="#EDEDED" d="M212.622,665.792c-0.02,0.941-0.04,1.883-0.059,2.826h75.166c-0.021-0.942-0.044-1.884-0.065-2.826
			H212.622z"/>
	</g>
	<path fill="#BBBCBF" d="M278.994,294.379c-0.023-0.988-0.046-1.93-0.066-2.825h-58.493c-0.018,0.896-0.036,1.835-0.056,2.825
		H278.994z"/>
	<path fill="#FFFFFF" d="M278.98,293.79c-0.037-1.557-0.07-2.997-0.102-4.312h-58.404c-0.026,1.313-0.054,2.752-0.085,4.312H278.98z
		"/>
	<circle fill="#C1C1C1" cx="388.728" cy="1347.929" r="3.347"/>
	<circle fill="#C1C1C1" cx="358.802" cy="1449.716" r="3.347"/>
	<circle fill="#C1C1C1" cx="422" cy="1402.464" r="3.347"/>
	<circle fill="#C1C1C1" cx="423.575" cy="1299.693" r="3.347"/>
	<circle fill="#C1C1C1" cx="396.604" cy="1063.634" r="3.347"/>
	<circle fill="#C1C1C1" cx="397.194" cy="993.546" r="3.347"/>
	<g>
		<path fill="#B8B8B8" d="M401.671,1297.094c8.397-0.161,13.08,10.254,13.322,18.327c0.194,6.463-11.706,6.54-11.706,6.54
			s-6.48,2.855-8.559,0.969c-2.358-2.142-4.764-10.692-4.764-14.129C389.965,1302.335,395.207,1297.218,401.671,1297.094z"/>
		<circle fill="#EBEBEB" cx="403.853" cy="1316.208" r="11.377"/>
		<path fill="#D7D7D7" d="M393.081,1319.871L393.081,1319.871c2.021,5.948,8.484,9.132,14.434,7.109
			c5.948-2.022,9.131-8.484,7.108-14.433v-0.001L393.081,1319.871z"/>
		<circle fill="#C9C9C9" cx="403.853" cy="1316.209" r="10.103"/>
	</g>
	<g>
		<path fill="#B8B8B8" d="M410.314,1365.051c8.397-0.161,13.08,10.254,13.322,18.327c0.194,6.463-11.706,6.54-11.706,6.54
			s-6.48,2.855-8.559,0.969c-2.358-2.142-4.764-10.692-4.764-14.129C398.608,1370.292,403.852,1365.176,410.314,1365.051z"/>
		<circle fill="#EBEBEB" cx="412.497" cy="1384.166" r="11.377"/>
		<path fill="#D7D7D7" d="M401.725,1387.827L401.725,1387.827c2.022,5.949,8.484,9.133,14.434,7.11
			c5.948-2.021,9.131-8.483,7.108-14.433l0,0L401.725,1387.827z"/>
		<circle fill="#C9C9C9" cx="412.496" cy="1384.166" r="10.103"/>
	</g>
	<g>
		<circle fill="#808183" cx="377.016" cy="1436.223" r="10.466"/>
		<circle fill="#BBBCBF" cx="377.367" cy="1435.841" r="10.342"/>
		<polygon fill="#A6A8AA" points="386.043,1436.074 381.612,1443.636 372.697,1443.581 368.343,1435.956 372.843,1428.22 
			381.805,1428.254 		"/>
		<polygon fill="#D0D1D3" points="386.146,1435.882 381.72,1443.466 372.94,1443.423 368.586,1435.799 373.012,1428.217 
			381.792,1428.258 		"/>
		<circle fill="#272525" cx="377.366" cy="1435.841" r="4.028"/>
	</g>
	<path opacity="0.7" fill="#FFFFFF" d="M401.913,966.787c-1.968,1.406,16.355,5.088,18.262,55.91
		c2.528,67.43-33.139,90.191-32.31,129.521c0.562,26.69,11.801,39.052,41.862,108.447s18.543,124.462,18.543,124.462
		s9.271-22.476,1.685-70.519c-10.712-67.844-56.752-124.182-58.156-162.672c-1.507-41.296,31.747-54.505,32.31-129.239
		C424.44,978.588,403.88,965.383,401.913,966.787z"/>
	<g>
		<path fill="#E6E6E7" d="M242.843,1495.319c-0.771,1.047-1.358,1.603-0.13,2.973c1.16,1.296,6.312,1.629,7.622,1.694V1500
			c0,0,0.063-0.003,0.153-0.007c0.088,0.004,0.153,0.007,0.153,0.007v-0.014c1.309-0.065,6.462-0.398,7.622-1.694
			c1.228-1.37,0.641-1.926-0.13-2.973c-0.945-1.283-3.457-3.433-3.457-3.433h-4.035h-0.306h-4.034
			C246.301,1491.887,243.786,1494.036,242.843,1495.319z"/>
		<rect x="246.296" y="1490.432" fill="#BBBCBF" width="8.384" height="1.455"/>
		<path fill="#D0D1D3" d="M249.323,1487.883c-1.778,0.037-3.528,0.063-5.265,0.087c0.106,0.605,0.473,2.077,1.56,2.386
			c1.406,0.399,4.503,0.363,4.87,0.357c0.368,0.006,3.462,0.042,4.871-0.357c1.284-0.364,1.563-2.356,1.596-2.62
			C254.418,1487.783,251.874,1487.832,249.323,1487.883z"/>
	</g>
	<circle fill="#E8E8E8" cx="250.427" cy="645.405" r="4.198"/>
	<circle fill="#E8E8E8" cx="250.424" cy="550.892" r="4.198"/>
	<circle fill="#E8E8E8" cx="250.424" cy="444.806" r="4.198"/>
	<g>
		<path fill="#A6A8AA" d="M336.431,210.141c11.06-2.174,10.155-15.092,10.155-15.092s8.359-4.739,7.006-13.586
			c-1.352-8.845-10.743-10.874-10.743-10.874s-2.997-12.597-14.2-11.368c-12.485,1.369-10.635,11.473-12.987,17.218
			c-1.91,4.66-7.736,6.087-7.736,6.087l1.788,11.565c0,0,5.965-0.381,9.182,3.5C322.854,202.367,324.106,212.563,336.431,210.141z"
			/>
		<path fill="#C1C1C1" d="M336.979,210.505c11.061-2.175,10.157-15.093,10.157-15.093s8.357-4.74,7.006-13.585
			c-1.352-8.847-10.744-10.874-10.744-10.874s-2.996-12.598-14.201-11.368c-12.484,1.37-10.634,11.473-12.986,17.215
			c-1.909,4.664-8.211,6.179-8.211,6.179l1.763,11.531c0,0,6.467-0.437,9.682,3.442
			C323.404,202.732,324.656,212.927,336.979,210.505z"/>
		<path fill="#59595B" d="M319.739,190.708c0.294-0.045,1.244-1.438,0.874-3.858c-0.371-2.424-1.665-3.547-1.999-3.497
			c-0.333,0.053-10.312,1.615-10.312,1.615l1.124,7.351C309.427,192.319,319.443,190.753,319.739,190.708z"/>
		<path fill="#E6E6E7" d="M320.314,185.566l-11.647,1.78l0.396,2.594l11.644-1.779c0-0.4-0.021-0.83-0.094-1.311
			C320.538,186.365,320.433,185.948,320.314,185.566z"/>
	</g>
	<path fill="#CCA871" d="M184.962,246.18c-1.384,7.294,2.426,24.875,14.18,27.059c13.849,2.573,21.383,5.008,21.383,5.008
		l56.014-12.478c0,0,10.292-19.939,19.698-26.092c9.405-6.152,16.412-6.734,16.412-6.734l-0.236-7.109l-25.042-90.85
		c0,0-0.274-32.655-0.187-37.097c0.153-7.736,2.695-7.538,14.751-18.627s11.188-28.495,11.188-28.495L281.04,92.769
		C281.04,92.769,185.806,241.733,184.962,246.18z"/>
	<path fill="#E8BE80" d="M219.087,279.748c0.254,0.333-7.163-9.692-17.628-11.29c-12.647-1.929-18.65-10.719-16.078-25.296
		s37.86-179.358,44.375-211.586c5.389-26.66,33.266-34.7,53.324-30.543c12.317,2.552,28.536,18.363,30.496,35.046
		c2.349,19.997-5.308,31.869-13.077,38.373c-8.312,6.958-12.648,8.85-12.648,28.083c0.001,16.026,3.552,24.681,12.648,48.663
		c10.755,28.354,12.005,77.174,12.005,77.174s-2.571-0.514-11.781,3.924c-9.209,4.438-21.21,18.763-22.019,34.953
		c-0.223,4.438-0.045,12.357-0.045,12.357L219.087,279.748z"/>
	<path fill="#E3B77A" d="M203.524,156.114c-1.294,6.117-2.568,12.144-3.804,17.997v94.024c0.566,0.122,1.143,0.232,1.738,0.324
		c0.708,0.108,1.394,0.242,2.065,0.394V156.114z"/>
	<path fill="#D9AC6D" d="M246.062,279.724V7.468c-1.195,0.774-2.35,1.612-3.458,2.516v269.753L246.062,279.724z"/>
	<path fill="#D6AC6B" d="M264.736,279.651V0.603c-0.692,0.104-1.384,0.222-2.074,0.354v278.703L264.736,279.651z"/>
	<path fill="#DAAC6B" d="M282.187,253.156c0.725-1.631,1.538-3.204,2.421-4.711V1.418c-0.515-0.148-1.025-0.281-1.527-0.386
		c-0.294-0.061-0.596-0.11-0.894-0.166V253.156z"/>
	<circle fill="#E6E6E7" cx="217.224" cy="231.295" r="14.113"/>
	<circle fill="#E6E6E7" cx="229.834" cy="174.471" r="14.113"/>
	<circle fill="#E6E6E7" cx="243.24" cy="114.93" r="14.113"/>
	<circle fill="#E6E6E7" cx="256.145" cy="54.779" r="14.113"/>
	<circle fill="#6D6E70" cx="216.968" cy="230.398" r="11.433"/>
	<circle fill="#6D6E70" cx="229.579" cy="173.574" r="11.433"/>
	<circle fill="#6D6E70" cx="242.985" cy="114.032" r="11.433"/>
	<circle fill="#6D6E70" cx="255.889" cy="53.882" r="11.433"/>
	<g>
		<path fill="#A6A8AA" d="M173.184,183.522c-11.123-1.823-14.785,10.598-14.785,10.598s-9.487,1.523-11.308,10.286
			c-1.821,8.762,6.273,13.939,6.273,13.939s-1.59,12.852,9.339,15.611c12.177,3.075,13.969-7.04,18.179-11.602
			c3.417-3.702,9.375-3.004,9.375-3.004l2.36-11.463c0,0-5.723-1.724-7.381-6.483C183.192,195.545,185.578,185.554,173.184,183.522z
			"/>
		<path fill="#C1C1C1" d="M172.797,182.989c-11.124-1.823-14.786,10.599-14.786,10.599s-9.487,1.524-11.307,10.286
			c-1.822,8.762,6.272,13.939,6.272,13.939s-1.589,12.851,9.339,15.61c12.177,3.075,13.969-7.039,18.179-11.6
			c3.417-3.703,9.851-2.924,9.851-2.924l2.373-11.42c0,0-6.211-1.848-7.871-6.606C182.805,195.012,185.191,185.021,172.797,182.989z
			"/>
		<path fill="#59595B" d="M182.043,207.56c-0.292-0.06-1.668,0.914-2.167,3.311c-0.498,2.399,0.323,3.904,0.653,3.973
			c0.331,0.067,10.226,2.087,10.226,2.087l1.513-7.281C192.269,209.649,182.335,207.62,182.043,207.56z"/>
		<path fill="#E6E6E7" d="M179.708,212.176l11.537,2.397l0.534-2.568l-11.533-2.397c-0.14,0.375-0.271,0.784-0.37,1.262
			C179.778,211.351,179.732,211.778,179.708,212.176z"/>
	</g>
	<g>
		<path fill="#A6A8AA" d="M185.67,124.123c-11.123-1.823-14.785,10.598-14.785,10.598s-9.487,1.523-11.307,10.286
			c-1.821,8.762,6.272,13.939,6.272,13.939s-1.589,12.852,9.34,15.61c12.177,3.075,13.969-7.04,18.179-11.602
			c3.417-3.701,9.375-3.004,9.375-3.004l2.36-11.463c0,0-5.723-1.724-7.382-6.483C195.678,136.145,198.064,126.154,185.67,124.123z"
			/>
		<path fill="#C1C1C1" d="M185.283,123.588c-11.124-1.822-14.786,10.599-14.786,10.599s-9.486,1.524-11.307,10.286
			c-1.822,8.762,6.272,13.939,6.272,13.939s-1.589,12.851,9.339,15.61c12.177,3.075,13.969-7.039,18.179-11.6
			c3.417-3.704,9.851-2.924,9.851-2.924l2.373-11.42c0,0-6.211-1.848-7.871-6.606C195.291,135.612,197.677,125.621,185.283,123.588z
			"/>
		<path fill="#59595B" d="M194.529,148.159c-0.291-0.06-1.668,0.914-2.167,3.311c-0.498,2.399,0.323,3.904,0.653,3.973
			c0.331,0.067,10.226,2.086,10.226,2.086l1.513-7.281C204.754,150.249,194.821,148.22,194.529,148.159z"/>
		<path fill="#E6E6E7" d="M192.194,152.776l11.537,2.397l0.534-2.568l-11.532-2.396c-0.14,0.375-0.271,0.784-0.37,1.262
			C192.264,151.95,192.218,152.378,192.194,152.776z"/>
	</g>
	<g>
		<path fill="#A6A8AA" d="M198.173,65.376c-11.118-1.855-14.815,10.556-14.815,10.556s-9.491,1.496-11.337,10.253
			c-1.846,8.757,6.233,13.958,6.233,13.958s-1.626,12.847,9.294,15.637c12.169,3.109,13.989-7,18.212-11.55
			c3.427-3.691,9.383-2.978,9.383-2.978l2.393-11.456c0,0-5.718-1.741-7.363-6.504C208.146,77.427,210.561,67.443,198.173,65.376z"
			/>
		<path fill="#C1C1C1" d="M197.788,64.841c-11.119-1.854-14.816,10.556-14.816,10.556s-9.491,1.498-11.335,10.254
			c-1.847,8.757,6.232,13.957,6.232,13.957s-1.626,12.846,9.294,15.636c12.168,3.11,13.989-6.999,18.212-11.548
			c3.427-3.693,9.859-2.896,9.859-2.896l2.406-11.414c0,0-6.206-1.866-7.852-6.628C207.761,76.894,210.176,66.909,197.788,64.841z"
			/>
		<path fill="#59595B" d="M206.963,89.439c-0.291-0.062-1.67,0.909-2.176,3.304c-0.505,2.398,0.312,3.905,0.642,3.975
			c0.331,0.068,10.22,2.116,10.22,2.116l1.534-7.276C217.183,91.557,207.255,89.5,206.963,89.439z"/>
		<path fill="#E6E6E7" d="M204.615,94.048l11.53,2.43l0.541-2.566l-11.525-2.43c-0.141,0.374-0.273,0.783-0.374,1.261
			C204.688,93.223,204.64,93.651,204.615,94.048z"/>
	</g>
	<g>
		<path fill="#A6A8AA" d="M210.648,5.756c-11.123-1.823-14.785,10.599-14.785,10.599s-9.487,1.523-11.308,10.286
			c-1.821,8.762,6.273,13.939,6.273,13.939s-1.589,12.852,9.339,15.611c12.177,3.075,13.969-7.04,18.179-11.602
			c3.417-3.702,9.375-3.004,9.375-3.004l2.36-11.463c0,0-5.723-1.724-7.382-6.483C220.656,17.778,223.042,7.788,210.648,5.756z"/>
		<path fill="#C1C1C1" d="M210.262,5.222c-11.124-1.823-14.786,10.599-14.786,10.599s-9.487,1.524-11.307,10.286
			c-1.822,8.762,6.272,13.939,6.272,13.939s-1.589,12.851,9.339,15.61c12.177,3.075,13.969-7.039,18.179-11.6
			c3.417-3.704,9.851-2.925,9.851-2.925l2.373-11.42c0,0-6.211-1.848-7.871-6.606C220.269,17.246,222.655,7.254,210.262,5.222z"/>
		<path fill="#59595B" d="M219.507,29.793c-0.292-0.06-1.668,0.914-2.167,3.311c-0.498,2.399,0.323,3.904,0.653,3.973
			c0.331,0.067,10.226,2.087,10.226,2.087l1.513-7.281C229.733,31.882,219.799,29.854,219.507,29.793z"/>
		<path fill="#E6E6E7" d="M217.172,34.41l11.537,2.397l0.534-2.568l-11.532-2.397c-0.14,0.375-0.271,0.784-0.37,1.262
			C217.242,33.584,217.196,34.012,217.172,34.41z"/>
	</g>
	<circle fill="#E6E6E7" cx="283.769" cy="203.809" r="14.113"/>
	<circle fill="#6D6E70" cx="283.514" cy="202.912" r="11.433"/>
	<g>
		<path fill="#59595B" d="M199.375,1453.046c3.222,0,104.403,0,107.628,0c7.383,0,6.754-4.084,6.754-6.439H192.622
			C192.622,1448.962,191.993,1453.046,199.375,1453.046z"/>
		<rect x="192.622" y="1445.192" fill="#898988" width="121.136" height="1.414"/>
		<path fill="#E0E0E0" d="M192.622,1400.435v44.758h121.136v-44.758c0-3.979-3.255-7.233-7.233-7.233H199.855
			C195.877,1393.201,192.622,1396.456,192.622,1400.435z"/>
		<g>
			<path fill="#6D6E70" d="M210.145,1403.81l-1.036,52.435c-0.023,1.193,0.934,2.17,2.127,2.17h1.447c1.193,0,2.15-0.977,2.127-2.17
				l-1.036-52.435H210.145z"/>
			<path fill="#A6A8AA" d="M211.236,1458.414h0.723v-54.604h-1.814l-1.036,52.435
				C209.085,1457.438,210.042,1458.414,211.236,1458.414z"/>
		</g>
		<g>
			<path fill="#6D6E70" d="M231.673,1403.81l-1.036,52.435c-0.023,1.193,0.934,2.17,2.128,2.17h1.446c1.194,0,2.15-0.977,2.127-2.17
				l-1.037-52.435H231.673z"/>
			<path fill="#A6A8AA" d="M232.766,1458.414h0.723v-54.604h-1.815l-1.036,52.435
				C230.615,1457.438,231.572,1458.414,232.766,1458.414z"/>
		</g>
		<g>
			<path fill="#6D6E70" d="M255.867,1403.81l-1.036,52.435c-0.022,1.193,0.934,2.17,2.127,2.17h1.447
				c1.193,0,2.149-0.977,2.127-2.17l-1.036-52.435H255.867z"/>
			<path fill="#A6A8AA" d="M256.958,1458.414h0.724v-54.604h-1.814l-1.036,52.435
				C254.809,1457.438,255.765,1458.414,256.958,1458.414z"/>
		</g>
		<g>
			<path fill="#6D6E70" d="M279.342,1403.81l-1.036,52.435c-0.023,1.193,0.934,2.17,2.127,2.17h1.447
				c1.193,0,2.149-0.977,2.127-2.17l-1.036-52.435H279.342z"/>
			<path fill="#A6A8AA" d="M280.433,1458.414h0.724v-54.604h-1.814l-1.036,52.435
				C278.282,1457.438,279.239,1458.414,280.433,1458.414z"/>
		</g>
		<g>
			<path fill="#6D6E70" d="M302.487,1403.81l-1.036,52.435c-0.022,1.193,0.934,2.17,2.128,2.17h1.446c1.194,0,2.15-0.977,2.128-2.17
				l-1.036-52.435H302.487z"/>
			<path fill="#A6A8AA" d="M303.579,1458.414h0.723v-54.604h-1.814l-1.036,52.435
				C301.429,1457.438,302.385,1458.414,303.579,1458.414z"/>
		</g>
		<g>
			<rect x="196.416" y="1429.061" fill="#F1F1F2" width="21.823" height="9.214"/>
			<rect x="196.416" y="1433.668" fill="#BBBCBF" width="21.823" height="4.606"/>
			<circle fill="#A6A8AA" cx="199.425" cy="1433.667" r="1.761"/>
			<circle fill="#A6A8AA" cx="215.23" cy="1433.667" r="1.761"/>
			<rect x="201.664" y="1433.261" fill="#434244" width="11.329" height="0.813"/>
		</g>
		<g>
			<rect x="219.347" y="1423.998" fill="#F1F1F2" width="21.823" height="9.213"/>
			<rect x="219.347" y="1428.604" fill="#BBBCBF" width="21.823" height="4.606"/>
			<circle fill="#A6A8AA" cx="222.356" cy="1428.604" r="1.761"/>
			<circle fill="#A6A8AA" cx="238.161" cy="1428.604" r="1.761"/>
			<rect x="224.594" y="1428.198" fill="#434244" width="11.329" height="0.813"/>
		</g>
		<g>
			<rect x="242.278" y="1419.658" fill="#F1F1F2" width="21.824" height="9.213"/>
			<rect x="242.278" y="1424.265" fill="#BBBCBF" width="21.824" height="4.606"/>
			<circle fill="#A6A8AA" cx="245.287" cy="1424.264" r="1.761"/>
			<circle fill="#A6A8AA" cx="261.093" cy="1424.264" r="1.761"/>
			<rect x="247.525" y="1423.857" fill="#434244" width="11.329" height="0.813"/>
		</g>
		<g>
			<rect x="265.209" y="1415.318" fill="#F1F1F2" width="21.823" height="9.213"/>
			<rect x="265.209" y="1419.925" fill="#BBBCBF" width="21.823" height="4.606"/>
			<circle fill="#A6A8AA" cx="268.219" cy="1419.924" r="1.761"/>
			<circle fill="#A6A8AA" cx="284.024" cy="1419.924" r="1.761"/>
			<rect x="270.456" y="1419.518" fill="#434244" width="11.329" height="0.813"/>
		</g>
		<g>
			<rect x="288.141" y="1411.701" fill="#F1F1F2" width="21.823" height="9.213"/>
			<rect x="288.141" y="1416.309" fill="#BBBCBF" width="21.823" height="4.605"/>
			<circle fill="#A6A8AA" cx="291.149" cy="1416.308" r="1.761"/>
			<circle fill="#A6A8AA" cx="306.955" cy="1416.308" r="1.761"/>
			<rect x="293.388" y="1415.901" fill="#434244" width="11.328" height="0.813"/>
		</g>
		<path fill="#D7D7D7" d="M199.375,1453.046c-5.427,0-6.523-2.207-6.724-4.313h-0.029c0,2.356-0.629,6.441,6.753,6.441
			c3.286,0,104.342,0,107.628,0c7.383,0,6.754-4.085,6.754-6.441h-0.029c-0.201,2.105-1.298,4.313-6.725,4.313
			C303.718,1453.046,202.662,1453.046,199.375,1453.046z"/>
	</g>
	<polygon fill="#BBBCBF" points="295.64,1453.05 297.238,1453.03 274.998,200.761 273.4,200.783 	"/>
	<polygon fill="#BBBCBF" points="271.748,1453.05 274.392,1453.04 265.788,50.227 263.145,50.237 	"/>
	<polygon fill="#BBBCBF" points="249.698,1453.038 252.833,1453.027 253.509,108.276 250.373,108.288 	"/>
	<polygon fill="#BBBCBF" points="226.089,1453.027 229.284,1453.044 240.411,169.839 237.215,169.822 	"/>
	<polygon fill="#BBBCBF" points="205.073,1453.044 209.356,1453.044 227.972,226.695 223.669,226.63 	"/>
	<circle fill="#929496" cx="242.906" cy="112.745" r="11.433"/>
	<circle fill="#BBBCBF" cx="242.906" cy="110.575" r="10.428"/>
	<circle fill="#E6E6E7" cx="242.906" cy="110.575" r="9.171"/>
	<path fill="#929496" d="M239.833,119.174c1.274,0.454,2.639,0.633,3.993,0.499l2.041-17.8c-1.282-0.434-2.648-0.587-4.002-0.432
		L239.833,119.174z"/>
	<circle fill="#929496" cx="255.81" cy="52.594" r="11.433"/>
	<circle fill="#BBBCBF" cx="255.81" cy="50.424" r="10.428"/>
	<circle fill="#E6E6E7" cx="255.81" cy="50.424" r="9.171"/>
	<path fill="#929496" d="M247.494,54.29c0.57,1.226,1.4,2.324,2.447,3.195l14.112-11.037c-0.589-1.218-1.439-2.298-2.499-3.154
		L247.494,54.29z"/>
	<circle fill="#D0D1D3" cx="247.505" cy="210.123" r="11.839"/>
	<circle fill="#929496" cx="247.505" cy="210.123" r="8.112"/>
	<circle fill="#D0D1D3" cx="247.505" cy="210.123" r="7.382"/>
	<circle fill="#808183" cx="247.505" cy="210.123" r="4.459"/>
	
		<rect x="244.946" y="209.465" transform="matrix(0.4696 -0.8829 0.8829 0.4696 -54.2301 329.9822)" fill="#D0D1D3" width="5.117" height="1.315"/>
	
		<rect x="244.946" y="209.465" transform="matrix(-0.883 -0.4694 0.4694 -0.883 367.4151 511.8376)" fill="#D0D1D3" width="5.117" height="1.315"/>
	<circle fill="#D0D1D3" cx="270.651" cy="247.735" r="11.839"/>
	<circle fill="#929496" cx="270.651" cy="247.735" r="8.112"/>
	<circle fill="#D0D1D3" cx="270.651" cy="247.735" r="7.382"/>
	<circle fill="#808183" cx="270.651" cy="247.735" r="4.459"/>
	
		<rect x="268.093" y="247.078" transform="matrix(0.4696 -0.8829 0.8829 0.4696 -75.1705 370.3405)" fill="#D0D1D3" width="5.118" height="1.315"/>
	
		<rect x="268.093" y="247.078" transform="matrix(-0.883 -0.4694 0.4694 -0.883 393.3287 593.5314)" fill="#D0D1D3" width="5.116" height="1.315"/>
	<circle fill="#929496" cx="216.889" cy="229.11" r="11.433"/>
	<circle fill="#BBBCBF" cx="216.889" cy="226.94" r="10.427"/>
	<circle fill="#E6E6E7" cx="216.889" cy="226.94" r="9.171"/>
	<path fill="#929496" d="M207.727,227.597c0.096,1.35,0.479,2.671,1.146,3.858l17.122-5.275c-0.116-1.348-0.524-2.661-1.209-3.838
		L207.727,227.597z"/>
	<circle fill="#929496" cx="229.5" cy="172.286" r="11.433"/>
	<circle fill="#BBBCBF" cx="229.5" cy="170.116" r="10.428"/>
	<circle fill="#E6E6E7" cx="229.5" cy="170.116" r="9.171"/>
	<path fill="#929496" d="M221.136,173.881c0.556,1.233,1.372,2.34,2.408,3.225l14.245-10.865c-0.574-1.225-1.411-2.316-2.461-3.184
		L221.136,173.881z"/>
	<circle fill="#929496" cx="283.435" cy="201.624" r="11.433"/>
	<circle fill="#BBBCBF" cx="283.435" cy="199.454" r="10.428"/>
	<circle fill="#E6E6E7" cx="283.435" cy="199.454" r="9.171"/>
	<path fill="#929496" d="M278.823,207.347c1.17,0.681,2.477,1.108,3.833,1.227l5.284-17.119c-1.178-0.664-2.493-1.065-3.853-1.163
		L278.823,207.347z"/>
</g>
</svg>
