<?xml version="1.0" encoding="utf-8"?>
<!-- Generator: Adobe Illustrator 13.0.0, SVG Export Plug-In . SVG Version: 6.00 Build 14948)  -->
<!DOCTYPE svg PUBLIC "-//W3C//DTD SVG 1.1//EN" "http://www.w3.org/Graphics/SVG/1.1/DTD/svg11.dtd">
<svg version="1.1"
	 id="guitar3" inkscape:version="0.48.5 r10040" sodipodi:docname="les-paul-fretboard.svg" xmlns:dc="http://purl.org/dc/elements/1.1/" xmlns:cc="http://creativecommons.org/ns#" xmlns:rdf="http://www.w3.org/1999/02/22-rdf-syntax-ns#" xmlns:svg="http://www.w3.org/2000/svg" xmlns:sodipodi="http://sodipodi.sourceforge.net/DTD/sodipodi-0.dtd" xmlns:inkscape="http://www.inkscape.org/namespaces/inkscape"
	 xmlns="http://www.w3.org/2000/svg" xmlns:xlink="http://www.w3.org/1999/xlink" x="0px" y="0px" width="1000px" height="115px"
	 viewBox="0 0 1000 115" enable-background="new 0 0 1000 115" xml:space="preserve">
<sodipodi:namedview  id="namedview571" inkscape:current-layer="guitar3" inkscape:window-y="-8" inkscape:window-x="1912" inkscape:window-height="1018" inkscape:window-width="1920" inkscape:pageshadow="2" inkscape:pageopacity="0" bordercolor="#666666" guidetolerance="10" inkscape:cy="18.488301" inkscape:cx="497.79421" gridtolerance="10" objecttolerance="10" inkscape:zoom="1.3037281" borderopacity="1" showgrid="false" pagecolor="#ffffff" inkscape:window-maximized="1">
	</sodipodi:namedview>
<g>
	<path id="path3" inkscape:connector-curvature="0" fill="#EDC897" d="M890.917,204.061c0,0-1.456,1.998-4.219,2.724
		c-2.77,0.724-3.761,0.431-4.392-0.312c-0.633-0.742-3.05-9.861-8.439-9.049c-7.579,1.143-5.438,16.768-4.632,19.629
		c0.804,2.857,7.13,17.387,14.194,14.412c5.023-2.111,2.342-11.154,2.494-12.117c0.148-0.961,0.846-1.729,3.585-2.551
		c2.735-0.822,5.022,0.125,5.022,0.125L890.917,204.061z"/>
	<path id="path5" inkscape:connector-curvature="0" fill="#EDC897" d="M1870.143,66.967c0,0,1.941-1.541,4.799-1.496
		c2.861,0.041,3.737,0.59,4.144,1.475c0.409,0.882,0.302,10.314,5.715,10.973c7.604,0.926,9.718-14.705,9.709-17.674
		c-0.009-2.97-2.226-18.658-9.83-17.684c-5.409,0.692-5.237,10.126-5.643,11.007c-0.4,0.885-1.271,1.442-4.136,1.505
		c-2.859,0.063-4.807-1.469-4.807-1.469L1870.143,66.967L1870.143,66.967z"/>
	<path id="path7" inkscape:connector-curvature="0" fill="#EBDEC9" d="M1208.774,275.143c0,0,26.507-6.108,55.618,8.078
		c49.092,23.922,88.546,85.131,163.729,122.414c39.674,19.673,96.627,28.896,96.627,28.896l-174.597-210.965L1208.774,275.143
		L1208.774,275.143z"/>
	<path id="path9" inkscape:connector-curvature="0" fill="#EBDEC9" d="M1036.446-209.688c0,0-50.188,4.106-53.382,25.554
		c-2.654,17.809,12.775,24.184,19.619,29.198c6.843,5.018,38.779,19.619,36.497,71.176C1035.346,3.015,936.525-3.459,936.525-3.459
		l135.507-6.388L1036.446-209.688L1036.446-209.688z"/>
	<path id="path11" inkscape:connector-curvature="0" fill="#EBDEC9" d="M879.492,114.248c0,0-7.685,89.371,41.975,155.579
		c58.857,78.478,149.653,62.506,149.653,62.506L879.492,114.248z"/>
	<path id="path13" inkscape:connector-curvature="0" fill="#EDE2D2" d="M890.818,119.352c0,0-5.746,45.959,25.026,119
		c30.778,73.041,108.679,94.973,140.336,94.791c72.226-0.41,146.122-84.069,207.642-56.625
		c53.351,23.797,52.102,44.318,111.608,87.813c59.511,43.493,132.231,85.651,228.545,70.179
		c102.202-16.42,275.188-63.242,270.021-378.279c-4.906-299.209-167.404-345.991-216.235-362.407
		c-77.124-25.922-198.607-6.563-276.579,57.86c-66.998,55.358-76.725,71.006-119.403,91.919
		c-41.035,20.109-104.811-18.959-119.409-26.677c-43.498-22.976-60.74-28.317-103.82-26.673
		c-43.084,1.64-51.499,30.006-30.772,45.551c21.34,16.003,43.889,30.19,45.96,76.734c2.466,55.394-53.759,75.503-85.767,85.351
		C941.297,6.097,890.818,119.352,890.818,119.352L890.818,119.352z"/>
	<g id="g15" transform="translate(0,-397)">
		<path id="path17" inkscape:connector-curvature="0" fill="#272525" d="M1179.451,352.568c5.705,0,10.373,4.667,10.373,10.373
			v188.088c0,5.705-4.668,10.373-10.373,10.373h-80.777c-5.706,0-10.373-4.668-10.373-10.373V362.941
			c0-5.706,4.667-10.373,10.373-10.373H1179.451L1179.451,352.568z"/>
		
			<circle id="circle19" sodipodi:cx="235.713" sodipodi:cy="343.84698" sodipodi:rx="1.2690001" sodipodi:ry="1.2690001" fill="#F7D68F" cx="1139.063" cy="548.375" r="5.701">
		</circle>
		
			<circle id="circle21" sodipodi:cx="276.39801" sodipodi:cy="343.84698" sodipodi:rx="1.2690001" sodipodi:ry="1.2690001" fill="#F7D68F" cx="1139.063" cy="365.592" r="5.701">
		</circle>
		
			<circle id="circle23" sodipodi:cx="235.16701" sodipodi:cy="334.53201" sodipodi:rx="1.2690001" sodipodi:ry="1.2690001" fill="#434244" cx="1097.214" cy="550.828" r="5.701">
		</circle>
		
			<circle id="circle25" sodipodi:cx="235.16701" sodipodi:cy="353.16101" sodipodi:rx="1.2690001" sodipodi:ry="1.2690001" fill="#434244" cx="1180.907" cy="550.828" r="5.701">
		</circle>
		
			<circle id="circle27" sodipodi:cx="276.944" sodipodi:cy="334.53201" sodipodi:rx="1.2690001" sodipodi:ry="1.2690001" fill="#434244" cx="1097.214" cy="363.139" r="5.701">
		</circle>
		
			<circle id="circle29" sodipodi:cx="276.944" sodipodi:cy="353.16101" sodipodi:rx="1.2690001" sodipodi:ry="1.2690001" fill="#434244" cx="1180.907" cy="363.139" r="5.701">
		</circle>
		<path id="path31" inkscape:connector-curvature="0" fill="#434244" d="M1175.008,376.46c4.533,0,8.239,3.711,8.239,8.244v144.483
			c0,4.533-3.706,8.237-8.239,8.237h-71.141c-4.533,0-8.244-3.711-8.244-8.237V384.704c0-4.533,3.711-8.244,8.244-8.244H1175.008
			L1175.008,376.46z"/>
		<path id="path33" inkscape:connector-curvature="0" fill="#9C7D5D" d="M1174.258,376.545c4.533,0,8.244,3.707,8.244,8.239v144.483
			c0,4.531-3.711,8.238-8.244,8.238h-71.141c-4.533,0-8.244-3.711-8.244-8.238V384.785c0-4.533,3.711-8.239,8.244-8.239
			L1174.258,376.545L1174.258,376.545z"/>
		<path id="path35" inkscape:connector-curvature="0" opacity="0.5" fill="#FFFFFF" enable-background="new    " d="
			M1094.873,384.699v3.747c0-4.533,3.711-8.244,8.244-8.244h71.141c4.533,0,8.244,3.711,8.244,8.244v-3.747
			c0-4.533-3.711-8.244-8.244-8.244h-71.141C1098.584,376.46,1094.873,380.171,1094.873,384.699z"/>
		<path id="path37" inkscape:connector-curvature="0" opacity="0.3" fill="#272525" enable-background="new    " d="
			M1099.424,533.54V381.092c-2.691,1.366-4.556,4.151-4.556,7.359v137.738C1094.873,529.395,1096.737,532.18,1099.424,533.54z"/>
		<path id="path39" inkscape:connector-curvature="0" opacity="0.2" fill="#FFFFFF" enable-background="new    " d="
			M1174.258,534.43h-71.141c-4.533,0-8.244-3.711-8.244-8.24v2.998c0,4.533,3.711,8.238,8.244,8.238h71.141
			c4.533,0,8.244-3.711,8.244-8.238v-2.998C1182.502,530.719,1178.786,534.43,1174.258,534.43z"/>
		<g id="g41">
			
				<circle id="circle43" sodipodi:cx="243.345" sodipodi:cy="339.26199" sodipodi:rx="1.587" sodipodi:ry="1.587" fill="#F4CFA6" cx="1118.464" cy="514.087" r="7.13">
			</circle>
			
				<circle id="circle45" sodipodi:cx="248.42599" sodipodi:cy="339.26199" sodipodi:rx="1.587" sodipodi:ry="1.587" fill="#F4CFA6" cx="1118.464" cy="491.26" r="7.13">
			</circle>
			
				<circle id="circle47" sodipodi:cx="253.506" sodipodi:cy="339.26199" sodipodi:rx="1.5880001" sodipodi:ry="1.5880001" fill="#F4CFA6" cx="1118.463" cy="468.438" r="7.134">
			</circle>
			
				<circle id="circle49" sodipodi:cx="258.586" sodipodi:cy="339.26199" sodipodi:rx="1.587" sodipodi:ry="1.587" fill="#F4CFA6" cx="1118.464" cy="445.615" r="7.13">
			</circle>
			
				<circle id="circle51" sodipodi:cx="263.66699" sodipodi:cy="339.26199" sodipodi:rx="1.587" sodipodi:ry="1.587" fill="#F4CFA6" cx="1118.464" cy="422.788" r="7.13">
			</circle>
			
				<circle id="circle53" sodipodi:cx="268.74799" sodipodi:cy="339.26199" sodipodi:rx="1.587" sodipodi:ry="1.587" fill="#F4CFA6" cx="1118.464" cy="399.961" r="7.13">
			</circle>
		</g>
		<path id="path55" inkscape:connector-curvature="0" opacity="0.1" fill="#272525" enable-background="new    " d="
			M1138.689,537.507h35.566c4.533,0,8.244-3.711,8.244-8.239V384.785c0-4.533-3.711-8.24-8.244-8.24h-35.566V537.507
			L1138.689,537.507z"/>
	</g>
	<path id="path57" inkscape:connector-curvature="0" fill="#593226" d="M-228.964-20.262
		c-40.483-1.096-154.268-15.396-154.268-15.396s2.188,19.255-2.552,34.935c-5.117,16.924-17.341,32.859-17.71,43.075
		c-0.31,8.689,2.332,13.617,3.19,14.916c-0.858,1.298-5.697,6.236-5.387,14.919c0.364,10.213,12.027,27.576,17.139,44.496
		c4.745,15.685,0.732,38.295,0.732,38.295s118.169-12.765,158.653-13.859c40.487-1.092,137.137,7.296,137.137,7.296
		s16.775-24.804,41.215-34.283c24.436-9.483,43.399-8.752,43.399-8.752l1095.645,19.332V-10.252L8.74,8.936
		c0,0-7.938,1.712-9.412,1.676c-5.732-0.126-34.732,9.453-54.163,1.914c-24.44-9.479-38.848-39.643-38.848-39.643
		S-188.477-19.17-228.964-20.262z"/>
	<path id="path59" inkscape:connector-curvature="0" fill="#724335" d="M-229.162-25.167c-40.488-1.096-158.653-13.86-158.653-13.86
		s4.012,22.611-0.732,38.291c-5.117,16.923-16.775,34.288-17.14,44.495c-0.31,8.689,2.539,13.667,3.396,14.964
		c-0.858,1.299-3.707,6.272-3.396,14.961c0.364,10.213,12.027,27.576,17.14,44.496c4.744,15.685,0.732,38.295,0.732,38.295
		s118.17-12.769,158.653-13.858c40.487-1.099,137.137,7.296,137.137,7.296s16.775-24.805,41.215-34.283
		c24.436-9.479,43.399-8.752,43.399-8.752l1095.646,19.332V-8.756L-7.411,10.576c0,0-18.963,0.728-43.399-8.751
		C-75.25-7.66-92.025-32.463-92.025-32.463S-188.675-24.076-229.162-25.167z"/>
	
		<rect id="rect61" x="4.818" y="100.842" opacity="0.7" fill="#5C3A31" enable-background="new    " width="1083.416" height="2.844"/>
	
		<rect id="rect63" x="4.818" y="79.865" opacity="0.8" fill="#5C3A31" enable-background="new    " width="1083.416" height="2.844"/>
	
		<rect id="rect65" x="9.127" y="70.055" opacity="0.8" fill="#5F3D37" enable-background="new    " width="1079.105" height="2.844"/>
	
		<rect id="rect67" x="-2.685" y="34.679" opacity="0.7" fill="#55342A" enable-background="new    " width="1090.917" height="3.28"/>
	
		<rect id="rect69" x="-2.685" y="26.439" opacity="0.4" fill="#55342A" enable-background="new    " width="1090.917" height="3.279"/>
	
		<rect id="rect71" x="-20.625" y="13.338" opacity="0.8" fill="#513530" enable-background="new    " width="1108.858" height="3.064"/>
	<rect id="rect73" x="-20.767" y="54.325" opacity="0.7" fill="#513530" enable-background="new    " width="1109" height="3.059"/>
	<polygon id="polygon75" fill="#D3D1CC" points="1035.202,16.223 1021.594,10.504 1021.594,106.947 1035.202,101.229 	"/>
	<polygon id="polygon77" fill="#D3D1CC" points="979.332,16.223 965.732,10.504 965.732,106.947 979.332,101.229 	"/>
	<polygon id="polygon79" fill="#D3D1CC" points="917.495,16.223 903.896,10.504 903.896,106.947 917.495,101.229 	"/>
	<polygon id="polygon81" fill="#D3D1CC" points="852.788,25.087 830.732,15.419 830.732,102.032 852.788,92.364 	"/>
	<polygon id="polygon83" fill="#D3D1CC" points="733.5,25.087 711.445,15.419 711.445,102.032 733.5,92.364 	"/>
	<path id="path85" inkscape:connector-curvature="0" fill="#D3D1CC" d="M564.985,99.678c0,0,9.024-5.438,15.318-6.721
		c6.29-1.275,15.32-3.109,15.32-3.109v-62.24c0,0-9.026-1.833-15.32-3.109s-15.318-6.716-15.318-6.716V99.678z"/>
	<path id="path87" inkscape:connector-curvature="0" fill="#D3D1CC" d="M454.646,99.674c0,0,9.024-5.441,15.318-6.721
		c6.29-1.276,15.315-3.109,15.315-3.109V27.603c0,0-9.025-1.833-15.315-3.114c-6.294-1.271-15.318-6.712-15.318-6.712V99.674
		L454.646,99.674z"/>
	<path id="path89" inkscape:connector-curvature="0" fill="#D3D1CC" d="M327.555,23.231c0,0,13.93,6.16,20.033,6.582
		c6.105,0.413,17.312,1.181,17.312,1.181v55.47c0,0-11.204,0.765-17.312,1.183c-6.109,0.418-20.033,6.578-20.033,6.578V23.231z"/>
	<path id="path91" inkscape:connector-curvature="0" fill="#D3D1CC" d="M193.307,23.236c0,0,13.927,6.159,20.032,6.572
		c6.106,0.418,17.311,1.187,17.311,1.187v55.47c0,0-11.205,0.764-17.311,1.182c-6.105,0.414-20.032,6.574-20.032,6.574V23.236
		L193.307,23.236z"/>
	<polygon id="polygon93" fill="#F1F1F2" points="-1.013,106.986 10.515,107.193 10.515,10.261 -1.013,10.463 	"/>
	<g id="g95" transform="translate(0,-397)">
		<g id="g97">
			<path id="path99" inkscape:connector-curvature="0" fill="#B88F5F" d="M-327.335,544.619l-0.004,2.605h1.276v7.646
				c0,0-4.767,6.108-7.88,13.671c-1.878,4.561-6.573,20.046-5.679,21.784c1.038,2.018,12.993,3.813,15.873,4.286
				c1.981,0.322,3.688,0.464,4.758,0.464c1.064,0,2.772-0.142,4.753-0.464c2.884-0.473,14.835-2.271,15.877-4.286
				c0.894-1.738-3.801-17.226-5.679-21.784c-3.113-7.564-7.88-13.671-7.88-13.671v-7.646h1.276l-0.004-2.605H-327.335
				L-327.335,544.619z"/>
			<path id="path101" inkscape:connector-curvature="0" opacity="0.3" fill="#929496" enable-background="new    " d="
				M-298.357,590.326c0.894-1.738-3.801-17.225-5.679-21.784c-3.114-7.565-7.88-13.671-7.88-13.671v-7.646h1.276l-0.004-2.604
				h-8.343v50.461c1.065,0,2.772-0.141,4.753-0.463C-311.35,594.141-299.4,592.35-298.357,590.326z"/>
		</g>
		<g id="g103">
			<path id="path105" inkscape:connector-curvature="0" fill="#B88F5F" d="M-237.532,539.165v2.61h1.276v7.646
				c0,0-4.767,6.104-7.88,13.67c-1.878,4.562-6.573,20.043-5.679,21.785c1.038,2.021,12.993,3.813,15.873,4.291
				c1.981,0.323,3.688,0.463,4.758,0.463s2.772-0.14,4.758-0.463c2.884-0.478,14.834-2.271,15.872-4.291
				c0.894-1.738-3.801-17.22-5.679-21.785c-3.113-7.563-7.88-13.67-7.88-13.67v-7.646h1.276v-2.61H-237.532L-237.532,539.165z"/>
			<path id="path107" inkscape:connector-curvature="0" opacity="0.3" fill="#929496" enable-background="new    " d="
				M-208.559,584.877c0.894-1.738-3.801-17.22-5.679-21.784c-3.113-7.565-7.88-13.671-7.88-13.671v-7.646h1.276v-2.608h-8.343
				v50.466c1.064,0,2.772-0.14,4.758-0.463C-221.552,588.691-209.601,586.898-208.559,584.877z"/>
		</g>
		<g id="g109">
			<path id="path111" inkscape:connector-curvature="0" fill="#B88F5F" d="M-144.876,542.539l-0.004,2.609h1.276v7.646
				c0,0-4.771,6.104-7.88,13.672c-1.878,4.56-6.573,20.041-5.679,21.784c1.038,2.021,12.993,3.814,15.873,4.29
				c1.981,0.323,3.688,0.463,4.758,0.463c1.065,0,2.772-0.139,4.753-0.463c2.884-0.476,14.835-2.269,15.877-4.29
				c0.894-1.738-3.801-17.22-5.679-21.784c-3.113-7.565-7.88-13.672-7.88-13.672v-7.646h1.276l-0.004-2.609H-144.876
				L-144.876,542.539z"/>
			<path id="path113" inkscape:connector-curvature="0" opacity="0.3" fill="#929496" enable-background="new    " d="
				M-115.903,588.251c0.894-1.737-3.8-17.22-5.678-21.784c-3.114-7.566-7.88-13.672-7.88-13.672v-7.646h1.276l-0.004-2.607h-8.343
				V593c1.065,0,2.772-0.139,4.753-0.463C-128.896,592.064-116.945,590.273-115.903,588.251L-115.903,588.251z"/>
		</g>
	</g>
	<g id="g115" transform="translate(0,-397)">
		<g id="g117">
			<path id="path119" inkscape:connector-curvature="0" fill="#B88F5F" d="M-328.759,366.711l-0.004-2.605h1.276v-7.646
				c0,0-4.767-6.105-7.88-13.676c-1.874-4.56-6.573-20.042-5.679-21.785c1.038-2.017,12.993-3.814,15.872-4.286
				c1.981-0.323,3.688-0.467,4.758-0.467c1.065,0,2.772,0.14,4.753,0.467c2.884,0.472,14.834,2.269,15.877,4.286
				c0.894,1.743-3.801,17.225-5.679,21.785c-3.113,7.57-7.88,13.676-7.88,13.676v7.646h1.276l-0.005,2.605H-328.759
				L-328.759,366.711z"/>
			<path id="path121" inkscape:connector-curvature="0" opacity="0.3" fill="#929496" enable-background="new    " d="
				M-299.786,320.999c0.894,1.743-3.801,17.225-5.679,21.785c-3.113,7.57-7.88,13.675-7.88,13.675v7.646h1.276l-0.004,2.606h-8.343
				V316.25c1.065,0,2.772,0.139,4.753,0.467C-312.779,317.184-300.829,318.981-299.786,320.999z"/>
		</g>
		<g id="g123">
			<path id="path125" inkscape:connector-curvature="0" fill="#B88F5F" d="M-238.96,372.156l-0.005-2.605h1.276v-7.646
				c0,0-4.767-6.105-7.88-13.671c-1.874-4.564-6.573-20.046-5.679-21.79c1.038-2.017,12.993-3.814,15.877-4.286
				c1.981-0.323,3.688-0.462,4.753-0.462c1.064,0,2.772,0.135,4.757,0.462c2.884,0.472,14.835,2.269,15.873,4.286
				c0.898,1.743-3.801,17.225-5.679,21.79c-3.113,7.565-7.88,13.671-7.88,13.671v7.646h1.276v2.605H-238.96L-238.96,372.156z"/>
			<path id="path127" inkscape:connector-curvature="0" opacity="0.3" fill="#929496" enable-background="new    " d="
				M-209.988,326.448c0.898,1.743-3.801,17.225-5.679,21.789c-3.113,7.565-7.88,13.671-7.88,13.671v7.646h1.276v2.605h-8.343
				v-50.457c1.065,0,2.772,0.135,4.758,0.463C-222.98,322.634-211.03,324.426-209.988,326.448L-209.988,326.448z"/>
		</g>
		<g id="g129">
			<path id="path131" inkscape:connector-curvature="0" fill="#B88F5F" d="M-146.305,368.787v-2.61h1.276v-7.646
				c0,0-4.767-6.105-7.88-13.671c-1.874-4.564-6.573-20.046-5.679-21.79c1.038-2.017,12.993-3.814,15.873-4.286
				c1.981-0.323,3.688-0.462,4.757-0.462c1.065,0,2.772,0.135,4.753,0.462c2.884,0.472,14.834,2.269,15.877,4.286
				c0.894,1.743-3.801,17.225-5.679,21.79c-3.113,7.565-7.88,13.671-7.88,13.671v7.646h1.276l-0.004,2.61H-146.305L-146.305,368.787
				z"/>
			<path id="path133" inkscape:connector-curvature="0" opacity="0.3" fill="#929496" enable-background="new    " d="
				M-117.332,323.074c0.894,1.743-3.801,17.225-5.679,21.789c-3.114,7.565-7.88,13.671-7.88,13.671v7.646h1.276l-0.004,2.61h-8.343
				v-50.46c1.065,0,2.772,0.135,4.753,0.463C-130.324,319.26-118.374,321.052-117.332,323.074z"/>
		</g>
	</g>
	<path id="path135" inkscape:connector-curvature="0" fill="#1D1B1B" d="M-387.819-39.027c0,0,4.012,22.611-0.732,38.291
		c-5.117,16.923-16.775,34.288-17.139,44.495c-0.31,8.689,2.539,13.667,3.396,14.964c-0.858,1.299-3.707,6.272-3.396,14.961
		c0.364,10.213,12.027,27.576,17.139,44.496c4.745,15.685,0.732,38.295,0.732,38.295s118.169-12.769,158.653-13.858
		c40.487-1.099,137.137,7.296,137.137,7.296s16.775-24.805,41.215-34.283c24.436-9.479,43.399-8.752,43.399-8.752l8.226,0.146
		V10.428l-8.226,0.144c0,0-18.963,0.728-43.399-8.751c-24.44-9.484-41.215-34.288-41.215-34.288s-96.654,8.388-137.137,7.296
		C-269.65-26.264-387.819-39.027-387.819-39.027z"/>
	<path id="path137" inkscape:connector-curvature="0" fill="#141414" d="M-387.819-39.027c0,0,4.012,22.611-0.732,38.291
		c-5.117,16.923-16.775,34.288-17.139,44.495c-0.31,8.689,2.539,13.667,3.396,14.964H0.811V10.428l-8.226,0.144
		c0,0-18.963,0.728-43.399-8.751c-24.44-9.484-41.215-34.288-41.215-34.288s-96.654,8.388-137.137,7.296
		C-269.65-26.264-387.819-39.027-387.819-39.027z"/>
	<g id="g139" transform="translate(0,-397)">
		<polygon id="polygon141" fill="#BBBCBF" points="315.556,401.879 312.576,401.929 312.576,509.521 315.556,509.576 		"/>
		<polygon id="polygon143" fill="#BBBCBF" points="656.873,515.598 656.873,395.854 653.891,395.909 653.891,515.543 		"/>
		<polygon id="polygon145" fill="#BBBCBF" points="607.621,514.725 607.621,396.726 604.643,396.775 604.643,514.676 		"/>
		<polygon id="polygon147" fill="#BBBCBF" points="699.85,516.355 702.833,516.405 702.833,395.046 699.85,395.095 		"/>
		<polygon id="polygon149" fill="#BBBCBF" points="555.65,513.809 555.65,397.638 552.672,397.692 552.672,513.759 		"/>
		<polygon id="polygon151" fill="#BBBCBF" points="896.038,391.636 893.061,391.69 893.061,519.762 896.038,519.814 		"/>
		<polygon id="polygon153" fill="#BBBCBF" points="501.074,398.604 498.091,398.658 498.091,512.797 501.074,512.848 		"/>
		<polygon id="polygon155" fill="#BBBCBF" points="960.225,390.504 957.246,390.558 957.246,520.893 960.225,520.947 		"/>
		<polygon id="polygon157" fill="#BBBCBF" points="172.712,404.395 169.733,404.449 169.733,507.002 172.712,507.057 		"/>
		<polygon id="polygon159" fill="#BBBCBF" points="378.007,510.678 380.985,510.73 380.985,400.725 378.007,400.778 		"/>
		<polygon id="polygon161" fill="#BBBCBF" points="440.423,399.673 440.423,511.777 443.406,511.832 443.406,399.624 		"/>
		<polygon id="polygon163" fill="#BBBCBF" points="928.835,520.395 928.835,391.061 925.852,391.11 925.852,520.341 		"/>
		<polygon id="polygon165" fill="#BBBCBF" points="743.258,517.119 746.241,517.174 746.241,394.278 743.258,394.332 		"/>
		<polygon id="polygon167" fill="#BBBCBF" points="862.263,519.218 862.263,392.229 859.284,392.283 859.284,519.168 		"/>
		<polygon id="polygon169" fill="#BBBCBF" points="786.665,517.883 786.665,393.563 783.688,393.617 783.688,517.834 		"/>
		<polygon id="polygon171" fill="#BBBCBF" points="825.4,518.57 825.4,392.885 822.418,392.934 822.418,518.518 		"/>
		<polygon id="polygon173" fill="#BBBCBF" points="988.271,521.441 988.271,390.01 985.289,390.063 985.289,521.393 		"/>
		<polygon id="polygon175" fill="#BBBCBF" points="94.77,405.774 91.791,405.828 91.791,505.627 94.77,505.682 		"/>
		<polygon id="polygon177" fill="#BBBCBF" points="245.758,403.11 242.779,403.164 242.779,508.291 245.758,508.341 		"/>
		<polygon id="polygon179" fill="#BBBCBF" points="1063.142,522.762 1066.12,522.816 1066.12,388.635 1063.142,388.689 		"/>
		<polygon id="polygon181" fill="#BBBCBF" points="1042.053,522.389 1042.053,389.057 1039.07,389.111 1039.07,522.34 		"/>
		<polygon id="polygon183" fill="#BBBCBF" points="1015.547,521.922 1015.547,389.529 1012.563,389.578 1012.563,521.873 		"/>
	</g>
	<g id="g185" transform="translate(0,-397)">
		<polygon id="polygon187" fill="#EDEDED" points="656.249,515.588 656.249,395.868 653.271,395.922 653.271,515.533 		"/>
		<polygon id="polygon189" fill="#EDEDED" points="607.001,514.716 607.001,396.735 604.018,396.789 604.018,514.662 		"/>
		<polygon id="polygon191" fill="#EDEDED" points="439.804,399.682 439.804,511.77 442.782,511.818 442.782,399.633 		"/>
		<polygon id="polygon193" fill="#EDEDED" points="555.03,513.799 555.03,397.651 552.052,397.706 552.052,513.746 		"/>
		<polygon id="polygon195" fill="#EDEDED" points="699.229,516.342 702.209,516.396 702.209,395.055 699.229,395.109 		"/>
		<polygon id="polygon197" fill="#EDEDED" points="314.936,401.888 311.957,401.938 311.957,509.509 314.936,509.563 		"/>
		<polygon id="polygon199" fill="#EDEDED" points="895.418,391.645 892.436,391.699 892.436,519.752 895.418,519.807 		"/>
		<polygon id="polygon201" fill="#EDEDED" points="959.6,390.513 956.621,390.567 956.621,520.885 959.6,520.938 		"/>
		<polygon id="polygon203" fill="#EDEDED" points="377.387,510.668 380.366,510.717 380.366,400.733 377.387,400.788 		"/>
		<polygon id="polygon205" fill="#EDEDED" points="500.449,398.613 497.471,398.667 497.471,512.784 500.449,512.834 		"/>
		<polygon id="polygon207" fill="#EDEDED" points="172.092,404.409 169.114,404.462 169.114,506.993 172.092,507.043 		"/>
		<polygon id="polygon209" fill="#EDEDED" points="245.138,403.119 242.159,403.173 242.159,508.277 245.138,508.332 		"/>
		<polygon id="polygon211" fill="#EDEDED" points="861.643,519.209 861.643,392.243 858.664,392.296 858.664,519.154 		"/>
		<polygon id="polygon213" fill="#EDEDED" points="987.652,521.434 987.652,390.019 984.669,390.072 984.669,521.379 		"/>
		<polygon id="polygon215" fill="#EDEDED" points="928.21,520.386 928.21,391.065 925.23,391.119 925.23,520.332 		"/>
		<polygon id="polygon217" fill="#EDEDED" points="824.781,518.557 824.781,392.894 821.803,392.943 821.803,518.508 		"/>
		<polygon id="polygon219" fill="#EDEDED" points="786.05,517.874 786.05,393.577 783.063,393.631 783.063,517.824 		"/>
		<polygon id="polygon221" fill="#EDEDED" points="742.638,517.109 745.616,517.16 745.616,394.287 742.638,394.34 		"/>
		<polygon id="polygon223" fill="#EDEDED" points="1062.526,522.754 1065.505,522.807 1065.505,388.644 1062.526,388.698 		"/>
		<polygon id="polygon225" fill="#EDEDED" points="1014.927,521.913 1014.927,389.542 1011.948,389.592 1011.948,521.859 		"/>
		<polygon id="polygon227" fill="#EDEDED" points="94.149,405.783 91.171,405.837 91.171,505.618 94.149,505.668 		"/>
		<polygon id="polygon229" fill="#EDEDED" points="1041.429,522.381 1041.429,389.071 1038.45,389.125 1038.45,522.326 		"/>
	</g>
	<g id="g231" transform="translate(0,-397)">
		<path id="path233" inkscape:connector-curvature="0" fill="#272525" d="M1417.901,352.9c5.706,0,10.374,4.668,10.374,10.374
			v188.087c0,5.707-4.668,10.375-10.374,10.375h-80.777c-5.705,0-10.369-4.668-10.369-10.375V363.274
			c0-5.706,4.664-10.374,10.369-10.374H1417.901z"/>
		
			<circle id="circle235" sodipodi:cx="235.63901" sodipodi:cy="396.923" sodipodi:rx="1.2690001" sodipodi:ry="1.2690001" fill="#F7D68F" cx="1377.513" cy="548.707" r="5.702">
		</circle>
		
			<circle id="circle237" sodipodi:cx="276.32401" sodipodi:cy="396.923" sodipodi:rx="1.2690001" sodipodi:ry="1.2690001" fill="#F7D68F" cx="1377.513" cy="365.925" r="5.702">
		</circle>
		
			<circle id="circle239" sodipodi:cx="235.093" sodipodi:cy="387.60901" sodipodi:rx="1.2690001" sodipodi:ry="1.2690001" fill="#434244" cx="1335.669" cy="551.16" r="5.701">
		</circle>
		
			<circle id="circle241" sodipodi:cx="235.093" sodipodi:cy="406.237" sodipodi:rx="1.2690001" sodipodi:ry="1.2690001" fill="#434244" cx="1419.357" cy="551.16" r="5.701">
		</circle>
		
			<circle id="circle243" sodipodi:cx="276.87" sodipodi:cy="387.60901" sodipodi:rx="1.2690001" sodipodi:ry="1.2690001" fill="#434244" cx="1335.669" cy="363.472" r="5.701">
		</circle>
		
			<circle id="circle245" sodipodi:cx="276.87" sodipodi:cy="406.237" sodipodi:rx="1.2690001" sodipodi:ry="1.2690001" fill="#434244" cx="1419.357" cy="363.472" r="5.701">
		</circle>
		<path id="path247" inkscape:connector-curvature="0" fill="#434244" d="M1413.459,376.792c4.533,0,8.243,3.71,8.243,8.244V529.52
			c0,4.533-3.71,8.239-8.243,8.239h-71.141c-4.533,0-8.244-3.706-8.244-8.239V385.036c0-4.533,3.711-8.244,8.244-8.244H1413.459
			L1413.459,376.792z"/>
		<path id="path249" inkscape:connector-curvature="0" fill="#9C7D5D" d="M1412.713,376.873c4.533,0,8.239,3.707,8.239,8.244V529.6
			c0,4.533-3.706,8.24-8.239,8.24h-71.146c-4.533,0-8.239-3.707-8.239-8.24V385.117c0-4.538,3.706-8.244,8.239-8.244H1412.713
			L1412.713,376.873z"/>
		<path id="path251" inkscape:connector-curvature="0" opacity="0.5" fill="#FFFFFF" enable-background="new    " d="
			M1333.328,385.036v3.747c0-4.538,3.707-8.244,8.239-8.244h71.146c4.533,0,8.239,3.707,8.239,8.244v-3.747
			c0-4.533-3.706-8.244-8.239-8.244h-71.146C1337.035,376.792,1333.328,380.503,1333.328,385.036z"/>
		<path id="path253" inkscape:connector-curvature="0" opacity="0.3" fill="#272525" enable-background="new    " d="
			M1337.879,533.873V381.424c-2.688,1.361-4.551,4.151-4.551,7.359v137.738C1333.328,529.727,1335.188,532.512,1337.879,533.873z"/>
		<path id="path255" inkscape:connector-curvature="0" opacity="0.2" fill="#FFFFFF" enable-background="new    " d="
			M1412.713,534.758h-71.146c-4.533,0-8.239-3.707-8.239-8.24v2.998c0,4.532,3.706,8.238,8.239,8.238h71.146
			c4.533,0,8.239-3.706,8.239-8.238v-2.998C1420.952,531.051,1417.246,534.758,1412.713,534.758z"/>
		<g id="g257">
			
				<circle id="circle259" sodipodi:cx="243.271" sodipodi:cy="392.33801" sodipodi:rx="1.587" sodipodi:ry="1.587" fill="#F4CFA6" cx="1356.915" cy="514.42" r="7.129">
			</circle>
			
				<circle id="circle261" sodipodi:cx="248.35201" sodipodi:cy="392.33801" sodipodi:rx="1.587" sodipodi:ry="1.587" fill="#F4CFA6" cx="1356.915" cy="491.592" r="7.129">
			</circle>
			
				<circle id="circle263" sodipodi:cx="253.43201" sodipodi:cy="392.33801" sodipodi:rx="1.587" sodipodi:ry="1.587" fill="#F4CFA6" cx="1356.915" cy="468.77" r="7.129">
			</circle>
			
				<circle id="circle265" sodipodi:cx="258.51199" sodipodi:cy="392.33801" sodipodi:rx="1.587" sodipodi:ry="1.587" fill="#F4CFA6" cx="1356.915" cy="445.947" r="7.129">
			</circle>
			
				<circle id="circle267" sodipodi:cx="263.59201" sodipodi:cy="392.33801" sodipodi:rx="1.587" sodipodi:ry="1.587" fill="#F4CFA6" cx="1356.915" cy="423.125" r="7.129">
			</circle>
			
				<circle id="circle269" sodipodi:cx="268.673" sodipodi:cy="392.33801" sodipodi:rx="1.587" sodipodi:ry="1.587" fill="#F4CFA6" cx="1356.915" cy="400.298" r="7.129">
			</circle>
		</g>
		<path id="path271" inkscape:connector-curvature="0" opacity="0.1" fill="#272525" enable-background="new    " d="
			M1377.141,537.84h35.572c4.533,0,8.239-3.707,8.239-8.24V385.117c0-4.538-3.706-8.244-8.239-8.244h-35.572V537.84z"/>
	</g>
	<g id="g273" transform="translate(0,-397)">
		
			<circle id="circle275" sodipodi:cx="217.12" sodipodi:cy="320.89301" sodipodi:rx="8.3999996" sodipodi:ry="8.3999996" fill="#272525" cx="1035.939" cy="631.906" r="37.738">
		</circle>
		
			<circle id="circle277" sodipodi:cx="217.12" sodipodi:cy="320.89301" sodipodi:rx="4.0960002" sodipodi:ry="4.0960002" fill="#EDC897" cx="1035.939" cy="631.906" r="18.402">
		</circle>
		
			<circle id="circle279" sodipodi:cx="217.12" sodipodi:cy="320.89301" sodipodi:rx="3.6129999" sodipodi:ry="3.6129999" fill="#C8A781" cx="1035.939" cy="631.906" r="16.232">
		</circle>
		
			<circle id="circle281" sodipodi:cx="217.12" sodipodi:cy="320.89301" sodipodi:rx="2.8080001" sodipodi:ry="2.8080001" fill="#EDC897" cx="1035.938" cy="631.906" r="12.615">
		</circle>
		
			<circle id="circle283" sodipodi:cx="217.12" sodipodi:cy="320.89301" sodipodi:rx="1.979" sodipodi:ry="1.979" fill="#272525" cx="1035.939" cy="631.906" r="8.891">
		</circle>
		<path id="path285" inkscape:connector-curvature="0" fill="#EDC897" d="M1036.51,627.902c-1.636,0.675-2.422,2.768-2.422,4.246
			c0,1.478,0.786,3.565,2.422,4.246c1.963,0.813,15.342,3.387,15.342,3.387v-7.493v-0.278v-7.49
			C1051.852,624.516,1038.468,627.09,1036.51,627.902L1036.51,627.902z"/>
		
			<circle id="circle287" sodipodi:cx="217.097" sodipodi:cy="324.89099" sodipodi:rx="1.789" sodipodi:ry="1.789" fill="#B98F58" cx="1053.9" cy="632.01" r="8.037">
		</circle>
	</g>
	<g id="g289" transform="translate(0,-397)">
		
			<circle id="circle291" sodipodi:cx="296.63199" sodipodi:cy="440.51801" sodipodi:rx="6.0939999" sodipodi:ry="6.0939999" opacity="0.6" fill="#272525" enable-background="new    " cx="1573.369" cy="274.688" r="27.378">
		</circle>
		
			<circle id="circle293" sodipodi:cx="296.63199" sodipodi:cy="440.013" sodipodi:rx="6.0939999" sodipodi:ry="6.0939999" fill="#434244" cx="1571.101" cy="274.688" r="27.378">
		</circle>
		
			<circle id="circle295" sodipodi:cx="296.63199" sodipodi:cy="439.76001" sodipodi:rx="4.4790001" sodipodi:ry="4.4790001" fill="#272525" cx="1569.963" cy="274.688" r="20.123">
		</circle>
		
			<circle id="circle297" sodipodi:cx="296.63199" sodipodi:cy="439.508" sodipodi:rx="3.4949999" sodipodi:ry="3.4949999" fill="#343333" cx="1568.832" cy="274.688" r="15.702">
		</circle>
		<path id="path299" inkscape:connector-curvature="0" opacity="0.2" fill="#272525" enable-background="new    " d="
			M1569.964,302.04c0.377,0.018,0.755,0.027,1.137,0.027c15.117,0,27.378-12.256,27.378-27.378s-12.261-27.378-27.378-27.378
			c-0.382,0-0.76,0.013-1.137,0.027V302.04L1569.964,302.04z"/>
	</g>
	<g id="g301" transform="translate(0,-397)">
		
			<circle id="circle303" sodipodi:cx="319.987" sodipodi:cy="426.69699" sodipodi:rx="6.0939999" sodipodi:ry="6.0939999" opacity="0.6" fill="#272525" enable-background="new    " cx="1511.276" cy="169.763" r="27.378">
		</circle>
		
			<circle id="circle305" sodipodi:cx="319.987" sodipodi:cy="426.19199" sodipodi:rx="6.0939999" sodipodi:ry="6.0939999" fill="#434244" cx="1509.008" cy="169.763" r="27.378">
		</circle>
		
			<circle id="circle307" sodipodi:cx="319.987" sodipodi:cy="425.939" sodipodi:rx="4.4790001" sodipodi:ry="4.4790001" fill="#272525" cx="1507.871" cy="169.763" r="20.122">
		</circle>
		
			<circle id="circle309" sodipodi:cx="319.987" sodipodi:cy="425.68799" sodipodi:rx="3.4949999" sodipodi:ry="3.4949999" fill="#343333" cx="1506.744" cy="169.763" r="15.702">
		</circle>
		<path id="path311" inkscape:connector-curvature="0" opacity="0.2" fill="#272525" enable-background="new    " d="
			M1507.871,197.114c0.377,0.018,0.755,0.031,1.137,0.031c15.122,0,27.378-12.26,27.378-27.382
			c0-15.122-12.256-27.378-27.378-27.378c-0.382,0-0.76,0.013-1.137,0.027V197.114z"/>
	</g>
	<g id="g313" transform="translate(0,-397)">
		
			<circle id="circle315" sodipodi:cx="295.784" sodipodi:cy="469.38199" sodipodi:rx="6.0939999" sodipodi:ry="6.0939999" opacity="0.6" fill="#272525" enable-background="new    " cx="1703.044" cy="278.498" r="27.378">
		</circle>
		
			<circle id="circle317" sodipodi:cx="295.784" sodipodi:cy="468.87701" sodipodi:rx="6.0939999" sodipodi:ry="6.0939999" fill="#434244" cx="1700.775" cy="278.498" r="27.378">
		</circle>
		
			<circle id="circle319" sodipodi:cx="295.784" sodipodi:cy="468.625" sodipodi:rx="4.4790001" sodipodi:ry="4.4790001" fill="#272525" cx="1699.643" cy="278.498" r="20.123">
		</circle>
		
			<circle id="circle321" sodipodi:cx="295.784" sodipodi:cy="468.37201" sodipodi:rx="3.4949999" sodipodi:ry="3.4949999" fill="#343333" cx="1698.507" cy="278.498" r="15.702">
		</circle>
		<path id="path323" inkscape:connector-curvature="0" opacity="0.2" fill="#272525" enable-background="new    " d="
			M1699.645,305.849c0.373,0.018,0.75,0.032,1.133,0.032c15.121,0,27.378-12.261,27.378-27.378
			c0-15.122-12.256-27.382-27.378-27.382c-0.383,0-0.761,0.013-1.133,0.031V305.849L1699.645,305.849z"/>
	</g>
	<g id="g325" transform="translate(0,-397)">
		
			<circle id="circle327" sodipodi:cx="317.59" sodipodi:cy="455.85001" sodipodi:rx="6.0939999" sodipodi:ry="6.0939999" opacity="0.6" fill="#272525" enable-background="new    " cx="1642.25" cy="180.532" r="27.378">
		</circle>
		
			<circle id="circle329" sodipodi:cx="317.59" sodipodi:cy="455.345" sodipodi:rx="6.0939999" sodipodi:ry="6.0939999" fill="#434244" cx="1639.98" cy="180.532" r="27.378">
		</circle>
		
			<circle id="circle331" sodipodi:cx="317.591" sodipodi:cy="455.09201" sodipodi:rx="4.4790001" sodipodi:ry="4.4790001" fill="#272525" cx="1638.845" cy="180.527" r="20.122">
		</circle>
		
			<circle id="circle333" sodipodi:cx="317.59" sodipodi:cy="454.84" sodipodi:rx="3.4949999" sodipodi:ry="3.4949999" fill="#343333" cx="1637.712" cy="180.532" r="15.702">
		</circle>
		<path id="path335" inkscape:connector-curvature="0" opacity="0.2" fill="#272525" enable-background="new    " d="
			M1638.845,207.878c0.378,0.018,0.755,0.032,1.138,0.032c15.121,0,27.379-12.261,27.379-27.378
			c0-15.123-12.258-27.383-27.379-27.383c-0.383,0-0.761,0.014-1.138,0.031V207.878L1638.845,207.878z"/>
	</g>
	<g id="g337" transform="translate(0,-397)">
		<path id="path339" inkscape:connector-curvature="0" fill="#ECD3AF" d="M1456.058,511.032c1.204-0.05,2.216,0.741,2.255,1.752
			l0.268,6.434c0.045,1.015-0.907,1.878-2.107,1.927l-2.462,0.102c-1.204,0.049-2.215-0.742-2.255-1.752l-0.266-6.436
			c-0.04-1.016,0.906-1.883,2.105-1.932L1456.058,511.032L1456.058,511.032z"/>
		<path id="path341" inkscape:connector-curvature="0" fill="#ECD3AF" d="M1455.101,487.495c1.204-0.05,2.216,0.741,2.257,1.752
			l0.266,6.435c0.04,1.014-0.903,1.877-2.107,1.926l-2.462,0.102c-1.199,0.049-2.215-0.741-2.255-1.752l-0.266-6.436
			c-0.04-1.012,0.906-1.877,2.105-1.932L1455.101,487.495L1455.101,487.495z"/>
		<path id="path343" inkscape:connector-curvature="0" fill="#ECD3AF" d="M1454.145,463.958c1.203-0.05,2.216,0.741,2.261,1.753
			l0.261,6.434c0.045,1.01-0.902,1.877-2.105,1.929l-2.463,0.099c-1.198,0.051-2.211-0.74-2.256-1.752l-0.261-6.436
			c-0.045-1.016,0.903-1.877,2.107-1.932L1454.145,463.958L1454.145,463.958z"/>
		<path id="path345" inkscape:connector-curvature="0" fill="#ECD3AF" d="M1453.196,440.431c1.198-0.05,2.21,0.736,2.255,1.752
			l0.261,6.434c0.045,1.015-0.903,1.882-2.105,1.932l-2.464,0.099c-1.197,0.05-2.209-0.741-2.25-1.752l-0.266-6.434
			c-0.045-1.02,0.903-1.882,2.107-1.932L1453.196,440.431L1453.196,440.431z"/>
		<path id="path347" inkscape:connector-curvature="0" fill="#ECD3AF" d="M1452.239,416.894c1.198-0.049,2.215,0.741,2.255,1.752
			l0.261,6.434c0.045,1.016-0.903,1.882-2.104,1.932l-2.458,0.099c-1.204,0.049-2.216-0.737-2.257-1.752l-0.266-6.438
			c-0.04-1.011,0.903-1.878,2.107-1.927L1452.239,416.894L1452.239,416.894z"/>
		<path id="path349" inkscape:connector-curvature="0" fill="#ECD3AF" d="M1451.282,393.356c1.198-0.049,2.215,0.737,2.255,1.752
			l0.266,6.434c0.04,1.015-0.908,1.882-2.105,1.932l-2.462,0.099c-1.204,0.049-2.216-0.742-2.257-1.757l-0.266-6.434
			c-0.04-1.011,0.903-1.882,2.107-1.932L1451.282,393.356L1451.282,393.356z"/>
		<path id="path351" inkscape:connector-curvature="0" opacity="0.5" fill="#272525" enable-background="new    " d="
			M1447.48,370.947c0.127,3.167,1.077,6.105,2.629,8.63l6.313,155.463c-1.33,2.633-2.031,5.625-1.905,8.783
			c0.399,9.864,8.727,17.543,18.597,17.139c9.859-0.399,17.537-8.726,17.14-18.595c-0.147-3.585-1.343-6.878-3.275-9.602
			l-6.229-153.469c1.693-2.866,2.609-6.236,2.467-9.812c-0.404-9.866-8.725-17.539-18.595-17.139
			C1454.755,352.757,1447.077,361.082,1447.48,370.947L1447.48,370.947z"/>
		
			<circle id="circle353" sodipodi:cx="236.87399" sodipodi:cy="417.707" sodipodi:rx="3.98" sodipodi:ry="3.98" fill="#C8A781" cx="1470.888" cy="543.158" r="17.881">
		</circle>
		
			<circle id="circle355" sodipodi:cx="275.354" sodipodi:cy="416.14099" sodipodi:rx="3.98" sodipodi:ry="3.98" fill="#C8A781" cx="1463.854" cy="370.283" r="17.881">
		</circle>
		<path id="path357" inkscape:connector-curvature="0" fill="#EDC897" d="M1463.552,356.063c8.102-0.333,14.996,6.029,15.324,14.129
			l6.981,171.798c0.321,8.101-6.033,14.996-14.136,15.328l-1.142,0.045c-8.102,0.328-14.996-6.027-15.324-14.133l-6.977-171.793
			c-0.328-8.104,6.027-15.001,14.134-15.329L1463.552,356.063L1463.552,356.063z"/>
		
			<circle id="circle359" sodipodi:cx="236.87399" sodipodi:cy="417.70801" sodipodi:rx="1.5779999" sodipodi:ry="1.5779999" fill="#ECD3AF" cx="1470.892" cy="543.158" r="7.089">
		</circle>
		
			<circle id="circle361" sodipodi:cx="275.354" sodipodi:cy="416.14099" sodipodi:rx="1.5779999" sodipodi:ry="1.5779999" fill="#ECD3AF" cx="1463.852" cy="370.283" r="7.089">
		</circle>
		
			<rect id="rect363" x="1458.196" y="503.114" transform="matrix(0.0406 0.9992 -0.9992 0.0406 1924.157 -972.8564)" fill="#9C7D5D" width="20.967" height="24.873"/>
		
			<rect id="rect365" x="1463.194" y="503.059" transform="matrix(0.0409 0.9992 -0.9992 0.0409 1923.6904 -972.9856)" fill="#352618" width="10.897" height="24.874"/>
		
			<rect id="rect367" x="1465.581" y="513.131" transform="matrix(0.0406 0.9992 -0.9992 0.0406 1929.0959 -978.3339)" fill="#E5BF91" width="16.852" height="4.524"/>
		
			<rect id="rect369" x="1459.735" y="513.233" transform="matrix(0.0406 0.9992 -0.9992 0.0406 1925.5681 -974.4478)" fill="#E2C1A4" width="20.965" height="4.524"/>
		
			<rect id="rect371" x="1457.234" y="479.574" transform="matrix(0.0406 0.9992 -0.9992 0.0406 1899.7172 -994.4785)" fill="#9C7D5D" width="20.968" height="24.874"/>
		
			<rect id="rect373" x="1462.25" y="479.535" transform="matrix(0.0407 0.9992 -0.9992 0.0407 1899.5461 -994.5287)" fill="#352618" width="10.897" height="24.873"/>
		
			<rect id="rect375" x="1464.447" y="489.545" transform="matrix(0.0406 0.9992 -0.9992 0.0406 1904.4492 -999.8281)" fill="#E5BF91" width="16.854" height="4.524"/>
		
			<rect id="rect377" x="1458.707" y="489.665" transform="matrix(0.0406 0.9992 -0.9992 0.0406 1901.0457 -996.03)" fill="#E2C1A4" width="20.968" height="4.524"/>
		
			<rect id="rect379" x="1456.279" y="456.042" transform="matrix(0.0406 0.9992 -0.9992 0.0406 1875.3568 -1016.0813)" fill="#9C7D5D" width="20.968" height="24.872"/>
		
			<rect id="rect381" x="1461.326" y="455.981" transform="matrix(0.0411 0.9992 -0.9992 0.0411 1874.4491 -1016.3857)" fill="#352618" width="10.895" height="24.875"/>
		
			<rect id="rect383" x="1463.575" y="466.024" transform="matrix(0.0406 0.9992 -0.9992 0.0406 1880.1262 -1021.5178)" fill="#E5BF91" width="16.857" height="4.529"/>
		
			<rect id="rect385" x="1457.826" y="466.154" transform="matrix(0.0406 0.9992 -0.9992 0.0406 1876.7028 -1017.7063)" fill="#E2C1A4" width="20.967" height="4.524"/>
		
			<rect id="rect387" x="1455.25" y="432.488" transform="matrix(0.0406 0.9992 -0.9992 0.0406 1850.8361 -1037.6528)" fill="#9C7D5D" width="20.969" height="24.872"/>
		
			<rect id="rect389" x="1460.368" y="432.498" transform="matrix(0.0405 0.9992 -0.9992 0.0405 1850.9659 -1037.7096)" fill="#352618" width="10.89" height="24.871"/>
		
			<rect id="rect391" x="1462.557" y="442.499" transform="matrix(0.0406 0.9992 -0.9992 0.0406 1855.6066 -1043.0768)" fill="#E5BF91" width="16.848" height="4.523"/>
		
			<rect id="rect393" x="1456.802" y="442.608" transform="matrix(0.0406 0.9992 -0.9992 0.0406 1852.1885 -1039.2732)" fill="#E2C1A4" width="20.965" height="4.523"/>
		
			<rect id="rect395" x="1454.38" y="408.99" transform="matrix(0.0406 0.9992 -0.9992 0.0406 1826.5082 -1059.3291)" fill="#9C7D5D" width="20.965" height="24.872"/>
		
			<rect id="rect397" x="1459.387" y="408.931" transform="matrix(0.0409 0.9992 -0.9992 0.0409 1825.9802 -1059.4651)" fill="#352618" width="10.895" height="24.874"/>
		
			<rect id="rect399" x="1461.758" y="418.989" transform="matrix(0.0406 0.9992 -0.9992 0.0406 1831.4517 -1064.8109)" fill="#E5BF91" width="16.852" height="4.524"/>
		
			<rect id="rect401" x="1455.95" y="419.093" transform="matrix(0.0404 0.9992 -0.9992 0.0404 1828.1606 -1060.9143)" fill="#E2C1A4" width="20.967" height="4.524"/>
		
			<rect id="rect403" x="1453.398" y="385.445" transform="matrix(0.0404 0.9992 -0.9992 0.0404 1802.3131 -1080.8726)" fill="#9C7D5D" width="20.963" height="24.874"/>
		
			<rect id="rect405" x="1458.431" y="385.4" transform="matrix(0.0407 0.9992 -0.9992 0.0407 1801.8159 -1081.0195)" fill="#352618" width="10.895" height="24.872"/>
		
			<rect id="rect407" x="1460.629" y="395.415" transform="matrix(0.0406 0.9992 -0.9992 0.0406 1806.7302 -1086.3203)" fill="#E5BF91" width="16.853" height="4.524"/>
		
			<rect id="rect409" x="1454.869" y="395.545" transform="matrix(0.0404 0.9992 -0.9992 0.0404 1803.6464 -1082.418)" fill="#E2C1A4" width="20.963" height="4.518"/>
		<path id="path411" inkscape:connector-curvature="0" opacity="0.2" fill="#272525" enable-background="new    " d="
			M1471.306,561.03c0.101,0,0.206,0,0.308-0.005c9.863-0.399,17.543-8.727,17.144-18.596c-0.144-3.584-1.343-6.878-3.273-9.602
			l-6.231-153.468c1.694-2.867,2.615-6.236,2.473-9.812c-0.403-9.866-8.726-17.539-18.597-17.14
			c-0.099,0.005-0.196,0.018-0.292,0.022L1471.306,561.03L1471.306,561.03z"/>
	</g>
	<g id="g413" transform="translate(0,-397)">
		<path id="path415" inkscape:connector-curvature="0" opacity="0.5" fill="#272525" enable-background="new    " d="
			M1575.593,350.74c0,0-7.956-8.671-20.343-8.671c-13.091,0-19.813,13.446-19.813,13.446v202.352c0,0,6.722,13.441,19.813,13.441
			c12.387,0,20.343-8.666,20.343-8.666V350.74z"/>
		<path id="path417" inkscape:connector-curvature="0" fill="#EDC897" d="M1574.093,350.74c0,0-7.957-8.671-20.339-8.671
			c-13.091,0-19.813,13.446-19.813,13.446v202.352c0,0,6.722,13.441,19.813,13.441c12.382,0,20.339-8.666,20.339-8.666V350.74z"/>
		<path id="path419" inkscape:connector-curvature="0" fill="#E5BF91" d="M1553.75,571.311c12.382,0,20.338-8.668,20.338-8.668
			v-29.094c-5.67-2.695-12.714-5.049-20.077-5.049c-6.928,0-14.044,1.973-20.078,4.33v25.037
			C1533.938,557.867,1540.658,571.311,1553.75,571.311L1553.75,571.311z"/>
		
			<circle id="circle421" sodipodi:cx="235.549" sodipodi:cy="436.694" sodipodi:rx="3.4649999" sodipodi:ry="3.4649999" opacity="0.3" fill="#272525" enable-background="new    " cx="1556.189" cy="549.111" r="15.567">
		</circle>
		
			<circle id="circle423" sodipodi:cx="235.549" sodipodi:cy="436.17099" sodipodi:rx="3.4649999" sodipodi:ry="3.4649999" fill="#F9C98F" cx="1553.839" cy="549.111" r="15.567">
		</circle>
		<rect id="rect425" x="1551.629" y="536.641" fill="#B98F58" width="4.421" height="24.942"/>
		<path id="path427" inkscape:connector-curvature="0" fill="#E5BF91" d="M1553.75,342.069c12.382,0,20.338,8.671,20.338,8.671
			v29.094c-5.67,2.7-12.714,5.049-20.077,5.049c-6.928,0-14.044-1.967-20.078-4.331V355.52
			C1533.938,355.515,1540.658,342.069,1553.75,342.069L1553.75,342.069z"/>
		
			<circle id="circle429" sodipodi:cx="276.69101" sodipodi:cy="436.694" sodipodi:rx="3.4649999" sodipodi:ry="3.4649999" opacity="0.3" fill="#272525" enable-background="new    " cx="1556.189" cy="364.276" r="15.567">
		</circle>
		
			<circle id="circle431" sodipodi:cx="276.69101" sodipodi:cy="436.17099" sodipodi:rx="3.4649999" sodipodi:ry="3.4649999" fill="#F9C98F" cx="1553.839" cy="364.276" r="15.567">
		</circle>
		<rect id="rect433" x="1551.629" y="351.8" fill="#B98F58" width="4.421" height="24.943"/>
		<path id="path435" inkscape:connector-curvature="0" opacity="0.1" fill="#272525" enable-background="new    " d="
			M1554.015,571.305c12.229-0.121,20.078-8.66,20.078-8.66V350.74c0,0-7.849-8.536-20.078-8.662V571.305z"/>
	</g>
	<g id="g437" transform="translate(0,-397)">
		
			<circle id="circle439" sodipodi:cx="243.597" sodipodi:cy="19.198999" sodipodi:rx="3.7390001" sodipodi:ry="3.7390001" fill="#EDC897" cx="-319.459" cy="512.955" r="16.798">
		</circle>
		<polygon id="polygon441" opacity="0.5" fill="#272525" enable-background="new    " points="-319.967,526.275 -319.967,499.63 
			-308.43,506.293 -308.43,519.617 		"/>
		<polygon id="polygon443" fill="#EDC897" points="-320.106,524.879 -320.106,501.031 -309.782,506.993 -309.782,518.916 		"/>
		<path id="path445" inkscape:connector-curvature="0" opacity="0.1" fill="#272525" enable-background="new    " d="
			M-302.662,512.95c0-9.272-7.521-16.794-16.798-16.794v33.592C-310.182,529.748-302.662,522.229-302.662,512.95z"/>
		
			<ellipse id="ellipse447" sodipodi:cx="243.597" sodipodi:cy="18.554001" sodipodi:rx="1.725" sodipodi:ry="1.888" opacity="0.5" fill="#272525" enable-background="new    " cx="-322.357" cy="512.955" rx="8.482" ry="7.75">
		</ellipse>
	</g>
	<g id="g449" transform="translate(0,-397)">
		
			<circle id="circle451" sodipodi:cx="269.07401" sodipodi:cy="19.198999" sodipodi:rx="3.7390001" sodipodi:ry="3.7390001" fill="#EDC897" cx="-319.459" cy="398.496" r="16.798">
		</circle>
		<polygon id="polygon453" opacity="0.5" fill="#272525" enable-background="new    " points="-319.967,411.821 -319.967,385.176 
			-308.43,391.833 -308.43,405.159 		"/>
		<polygon id="polygon455" fill="#EDC897" points="-320.106,410.419 -320.106,386.573 -309.782,392.539 -309.782,404.462 		"/>
		<path id="path457" inkscape:connector-curvature="0" opacity="0.1" fill="#272525" enable-background="new    " d="
			M-302.662,398.496c0-9.272-7.521-16.793-16.798-16.793v33.596C-310.182,415.294-302.662,407.773-302.662,398.496z"/>
		
			<ellipse id="ellipse459" sodipodi:cx="269.07401" sodipodi:cy="18.554001" sodipodi:rx="1.725" sodipodi:ry="1.888" opacity="0.5" fill="#272525" enable-background="new    " cx="-322.357" cy="398.496" rx="8.482" ry="7.75">
		</ellipse>
	</g>
	<g id="g461" transform="translate(0,-397)">
		
			<circle id="circle463" sodipodi:cx="243.681" sodipodi:cy="39.271" sodipodi:rx="3.7390001" sodipodi:ry="3.7390001" fill="#EDC897" cx="-229.283" cy="512.578" r="16.798">
		</circle>
		<polygon id="polygon465" opacity="0.5" fill="#272525" enable-background="new    " points="-229.787,525.902 -229.787,499.257 
			-218.245,505.915 -218.245,519.24 		"/>
		<polygon id="polygon467" fill="#EDC897" points="-229.931,524.501 -229.931,500.658 -219.606,506.615 -219.606,518.539 		"/>
		<path id="path469" inkscape:connector-curvature="0" opacity="0.1" fill="#272525" enable-background="new    " d="
			M-212.485,512.578c0-9.273-7.521-16.799-16.798-16.799v33.596C-220.006,529.375-212.485,521.854-212.485,512.578z"/>
		
			<ellipse id="ellipse471" sodipodi:cx="243.681" sodipodi:cy="38.626999" sodipodi:rx="1.725" sodipodi:ry="1.887" opacity="0.5" fill="#272525" enable-background="new    " cx="-232.177" cy="512.578" rx="8.478" ry="7.75">
		</ellipse>
	</g>
	<g id="g473" transform="translate(0,-397)">
		
			<circle id="circle475" sodipodi:cx="268.991" sodipodi:cy="39.271" sodipodi:rx="3.7390001" sodipodi:ry="3.7390001" fill="#EDC897" cx="-229.283" cy="398.869" r="16.798">
		</circle>
		<polygon id="polygon477" opacity="0.5" fill="#272525" enable-background="new    " points="-229.787,412.199 -229.787,385.548 
			-218.245,392.207 -218.245,405.532 		"/>
		<polygon id="polygon479" fill="#EDC897" points="-229.931,410.792 -229.931,386.946 -219.606,392.912 -219.606,404.835 		"/>
		<path id="path481" inkscape:connector-curvature="0" opacity="0.1" fill="#272525" enable-background="new    " d="
			M-212.485,398.874c0-9.272-7.521-16.798-16.798-16.798v33.596C-220.006,415.667-212.485,408.146-212.485,398.874L-212.485,398.874
			z"/>
		
			<ellipse id="ellipse483" sodipodi:cx="268.98999" sodipodi:cy="38.626999" sodipodi:rx="1.726" sodipodi:ry="1.887" opacity="0.5" fill="#272525" enable-background="new    " cx="-232.177" cy="398.874" rx="8.478" ry="7.754">
		</ellipse>
	</g>
	<g id="g485" transform="translate(0,-397)">
		
			<circle id="circle487" sodipodi:cx="243.929" sodipodi:cy="59.693001" sodipodi:rx="3.7390001" sodipodi:ry="3.7390001" fill="#EDC897" cx="-137.535" cy="511.463" r="16.798">
		</circle>
		<polygon id="polygon489" opacity="0.5" fill="#272525" enable-background="new    " points="-138.038,524.789 -138.038,498.139 
			-126.501,504.801 -126.501,518.126 		"/>
		<polygon id="polygon491" fill="#EDC897" points="-138.182,523.387 -138.182,499.54 -127.854,505.502 -127.854,517.425 		"/>
		<path id="path493" inkscape:connector-curvature="0" opacity="0.1" fill="#272525" enable-background="new    " d="
			M-120.737,511.463c0-9.271-7.521-16.793-16.798-16.793v33.596C-128.258,528.262-120.737,520.74-120.737,511.463L-120.737,511.463z
			"/>
		
			<ellipse id="ellipse495" sodipodi:cx="243.929" sodipodi:cy="59.049" sodipodi:rx="1.725" sodipodi:ry="1.887" opacity="0.5" fill="#272525" enable-background="new    " cx="-140.428" cy="511.463" rx="8.478" ry="7.75">
		</ellipse>
	</g>
	<g id="g497" transform="translate(0,-397)">
		
			<circle id="circle499" sodipodi:cx="268.742" sodipodi:cy="59.693001" sodipodi:rx="3.7390001" sodipodi:ry="3.7390001" fill="#EDC897" cx="-137.535" cy="399.988" r="16.798">
		</circle>
		<polygon id="polygon501" opacity="0.5" fill="#272525" enable-background="new    " points="-138.038,413.313 -138.038,386.663 
			-126.501,393.325 -126.501,406.65 		"/>
		<polygon id="polygon503" fill="#EDC897" points="-138.182,411.911 -138.182,388.064 -127.854,394.026 -127.854,405.949 		"/>
		<path id="path505" inkscape:connector-curvature="0" opacity="0.1" fill="#272525" enable-background="new    " d="
			M-120.737,399.988c0-9.273-7.521-16.793-16.798-16.793v33.596C-128.258,416.786-120.737,409.265-120.737,399.988z"/>
		
			<ellipse id="ellipse507" sodipodi:cx="268.742" sodipodi:cy="59.049" sodipodi:rx="1.726" sodipodi:ry="1.887" opacity="0.5" fill="#272525" enable-background="new    " cx="-140.428" cy="399.988" rx="8.478" ry="7.754">
		</ellipse>
	</g>
	
		<path id="path509" inkscape:connector-curvature="0" fill="none" stroke="#E1DCD8" stroke-width="0.3335" stroke-miterlimit="10" d="
		M-48.33,30.662c-11.789,1.024-26.206,0.876-26.206,0.876s-31.659-1.051-37.639,1.056c-4.83,1.703-13.788,8.042-17.764,15.477
		c-0.557,1.042-4.358,2.345-5.575,3.801c-1.222,1.46-1.963,2.502-1.963,4.978c0,2.48,0.741,3.522,1.963,4.978
		c1.217,1.455,5.018,2.758,5.575,3.801c3.976,7.439,12.934,13.773,17.764,15.477c5.98,2.111,37.639,1.058,37.639,1.058
		s14.417-0.146,26.206,0.876c20.046,1.736,34.908,8.475,36.404,7.368c2.341-1.729,3.239-8.058,2.889-10.868
		c-0.355-2.813-3.091-10.066-2.21-11.299c0.881-1.23,8.123-7.07,8.123-11.442c0-4.362-7.242-10.108-8.123-11.344
		c-0.876-1.227,1.86-8.482,2.21-11.294c0.351-2.817-0.543-9.143-2.889-10.872C-13.422,22.189-28.283,28.924-48.33,30.662z"/>
	<polygon id="polygon511" fill="#BBBCBF" points="-142.873,111.188 1.334,101.372 1537.599,120.367 1537.635,116.615 1.375,97.625 
		-143.057,107.441 	"/>
	<polygon id="polygon513" fill="#BBBCBF" points="1535.686,97.107 1.187,84.061 -233.745,111.229 -234.136,107.939 1.125,80.75 
		1535.717,93.802 	"/>
	<polygon id="polygon515" fill="#BBBCBF" points="1537.203,72.628 1.014,66.092 -326.252,110.848 -326.585,108.385 0.875,63.625 
		1537.213,70.148 	"/>
	<polygon id="polygon517" fill="#BBBCBF" points="-142.751,10.522 0.875,16.25 1538.105,2.112 1538.098,0.786 0.866,14.92 
		-142.71,9.192 	"/>
	<polygon id="polygon519" fill="#BBBCBF" points="1534.236,46.86 1,46.833 -326.238,6.943 -326.481,8.942 0.852,48.827 
		1534.236,48.872 	"/>
	<polygon id="polygon521" fill="#BBBCBF" points="1539.122,22.787 1.071,30.865 -234.692,7.934 -234.854,9.565 1,32.5 
		1539.126,24.422 	"/>
	<g id="g523" transform="translate(0,-397)">
		
			<circle id="circle525" sodipodi:cx="243.597" sodipodi:cy="17.843" sodipodi:rx="1.725" sodipodi:ry="1.725" fill="#ECD3AF" cx="-325.552" cy="512.955" r="7.75">
		</circle>
		<path id="path527" inkscape:connector-curvature="0" opacity="0.1" fill="#272525" enable-background="new    " d="
			M-317.802,512.95c0-4.281-3.468-7.749-7.754-7.749v15.504C-321.27,520.705-317.802,517.232-317.802,512.95z"/>
	</g>
	<g id="g529" transform="translate(0,-397)">
		
			<circle id="circle531" sodipodi:cx="269.07401" sodipodi:cy="17.843" sodipodi:rx="1.725" sodipodi:ry="1.725" fill="#ECD3AF" cx="-325.552" cy="398.496" r="7.75">
		</circle>
		<path id="path533" inkscape:connector-curvature="0" opacity="0.1" fill="#272525" enable-background="new    " d="
			M-317.802,398.496c0-4.277-3.468-7.75-7.754-7.75v15.5C-321.27,406.246-317.802,402.778-317.802,398.496z"/>
	</g>
	<g id="g535" transform="translate(0,-397)">
		
			<circle id="circle537" sodipodi:cx="243.681" sodipodi:cy="37.916" sodipodi:rx="1.725" sodipodi:ry="1.725" fill="#ECD3AF" cx="-235.371" cy="512.578" r="7.75">
		</circle>
		<path id="path539" inkscape:connector-curvature="0" opacity="0.1" fill="#272525" enable-background="new    " d="
			M-227.617,512.578c0-4.282-3.468-7.75-7.754-7.75v15.499C-231.089,520.327-227.617,516.859-227.617,512.578L-227.617,512.578z"/>
	</g>
	<g id="g541" transform="translate(0,-397)">
		
			<circle id="circle543" sodipodi:cx="268.98999" sodipodi:cy="37.916" sodipodi:rx="1.726" sodipodi:ry="1.726" fill="#ECD3AF" cx="-235.371" cy="398.874" r="7.754">
		</circle>
		<path id="path545" inkscape:connector-curvature="0" opacity="0.1" fill="#272525" enable-background="new    " d="
			M-227.617,398.874c0-4.281-3.468-7.754-7.754-7.754v15.504C-231.089,406.623-227.617,403.155-227.617,398.874L-227.617,398.874z"
			/>
	</g>
	<g id="g547" transform="translate(0,-397)">
		
			<circle id="circle549" sodipodi:cx="243.929" sodipodi:cy="58.338001" sodipodi:rx="1.725" sodipodi:ry="1.725" fill="#ECD3AF" cx="-143.623" cy="511.463" r="7.75">
		</circle>
		<path id="path551" inkscape:connector-curvature="0" opacity="0.1" fill="#272525" enable-background="new    " d="
			M-135.873,511.463c0-4.275-3.468-7.75-7.754-7.75v15.505C-139.341,519.213-135.873,515.744-135.873,511.463z"/>
	</g>
	<g id="g553" transform="translate(0,-397)">
		
			<circle id="circle555" sodipodi:cx="268.742" sodipodi:cy="58.338001" sodipodi:rx="1.726" sodipodi:ry="1.726" fill="#ECD3AF" cx="-143.623" cy="399.988" r="7.754">
		</circle>
		<path id="path557" inkscape:connector-curvature="0" opacity="0.1" fill="#272525" enable-background="new    " d="
			M-135.873,399.988c0-4.282-3.468-7.754-7.754-7.754v15.504C-139.341,407.737-135.873,404.269-135.873,399.988L-135.873,399.988z"
			/>
	</g>
	<g id="g559" transform="translate(0,-397)">
		
			<circle id="circle561" sodipodi:cx="256.75201" sodipodi:cy="61.146999" sodipodi:rx="1.1" sodipodi:ry="1.1" fill="#EDC897" cx="-131.003" cy="453.854" r="4.942">
		</circle>
		<path id="path563" inkscape:connector-curvature="0" opacity="0.2" fill="#272525" enable-background="new    " d="
			M-126.057,453.854c0-2.727-2.215-4.942-4.946-4.942v9.889C-128.271,458.796-126.057,456.581-126.057,453.854z"/>
	</g>
	<g id="g565" transform="translate(0,-397)">
		
			<circle id="circle567" sodipodi:cx="256.75201" sodipodi:cy="87.223" sodipodi:rx="1.101" sodipodi:ry="1.101" fill="#EDC897" cx="-13.853" cy="453.854" r="4.946">
		</circle>
		<path id="path569" inkscape:connector-curvature="0" opacity="0.2" fill="#272525" enable-background="new    " d="
			M-8.911,453.854c0-2.727-2.215-4.942-4.946-4.942v9.889C-11.122,458.801-8.911,456.581-8.911,453.854z"/>
	</g>
</g>
</svg>
