<?xml version="1.0" encoding="UTF-8" standalone="no"?>
<svg
   xmlns:dc="http://purl.org/dc/elements/1.1/"
   xmlns:cc="http://creativecommons.org/ns#"
   xmlns:rdf="http://www.w3.org/1999/02/22-rdf-syntax-ns#"
   xmlns:svg="http://www.w3.org/2000/svg"
   xmlns="http://www.w3.org/2000/svg"
   xmlns:sodipodi="http://sodipodi.sourceforge.net/DTD/sodipodi-0.dtd"
   xmlns:inkscape="http://www.inkscape.org/namespaces/inkscape"
   enable-background="new 0 0 512 512"
   height="170"
   id="guitar3"
   version="1.1"
   viewBox="0 0 512 170"
   width="512"
   xml:space="preserve"
   inkscape:version="0.48.5 r10040"
   sodipodi:docname="les-paul-thumb.svg"><metadata
     id="metadata4133"><rdf:RDF><cc:Work
         rdf:about=""><dc:format>image/svg+xml</dc:format><dc:type
           rdf:resource="http://purl.org/dc/dcmitype/StillImage" /></cc:Work></rdf:RDF></metadata><defs
     id="defs4131" /><sodipodi:namedview
     pagecolor="#ffffff"
     bordercolor="#666666"
     borderopacity="1"
     objecttolerance="10"
     gridtolerance="10"
     guidetolerance="10"
     inkscape:pageopacity="0"
     inkscape:pageshadow="2"
     inkscape:window-width="1920"
     inkscape:window-height="1018"
     id="namedview4129"
     showgrid="false"
     inkscape:zoom="3.2148437"
     inkscape:cx="268.05351"
     inkscape:cy="83.1446"
     inkscape:window-x="1912"
     inkscape:window-y="-8"
     inkscape:window-maximized="1"
     inkscape:current-layer="guitar3" /><g
     id="g4421"
     transform="matrix(0,1,-1,0,511.99954,-170.60829)"><path
       id="path3561"
       d="m 223.986,288.613 c 0,0 -0.445,-0.324 -0.606,-0.939 -0.161,-0.616 -0.096,-0.837 0.069,-0.977 0.165,-0.141 2.195,-0.679 2.014,-1.879 -0.254,-1.687 -3.732,-1.21 -4.369,-1.031 -0.636,0.179 -3.87,1.587 -3.208,3.16 0.47,1.118 2.483,0.521 2.697,0.555 0.214,0.033 0.385,0.188 0.568,0.798 0.183,0.609 -0.028,1.118 -0.028,1.118 l 2.863,-0.805 z"
       inkscape:connector-curvature="0"
       style="fill:#edc897" /><path
       id="path3563"
       d="m 254.501,506.576 c 0,0 0.343,0.432 0.333,1.068 -0.009,0.637 -0.131,0.832 -0.328,0.922 -0.196,0.091 -2.296,0.067 -2.442,1.272 -0.206,1.693 3.273,2.163 3.934,2.161 0.661,-0.002 4.153,-0.495 3.936,-2.188 -0.154,-1.204 -2.254,-1.166 -2.45,-1.256 -0.197,-0.089 -0.321,-0.283 -0.335,-0.92 -0.014,-0.637 0.327,-1.07 0.327,-1.07 l -2.975,0.011 z"
       inkscape:connector-curvature="0"
       style="fill:#edc897" /><path
       id="path3565"
       d="m 208.164,359.364 c 0,0 1.36,5.9 -1.798,12.38 -5.325,10.927 -18.949,19.709 -27.248,36.444 -4.379,8.831 -6.432,21.508 -6.432,21.508 l 46.958,-38.863 -11.48,-31.469 z"
       inkscape:connector-curvature="0"
       style="fill:#ebdec9" /><path
       id="path3567"
       d="m 316.081,321.006 c 0,0 -0.914,-11.171 -5.688,-11.882 -3.964,-0.591 -5.383,2.844 -6.499,4.367 -1.117,1.523 -4.367,8.632 -15.843,8.124 -19.315,-0.854 -17.874,-22.85 -17.874,-22.85 l 1.422,30.162 44.482,-7.921 z"
       inkscape:connector-curvature="0"
       style="fill:#ebdec9" /><path
       id="path3569"
       d="m 243.977,286.07 c 0,0 -19.893,-1.71 -34.63,9.343 -17.468,13.101 -13.913,33.311 -13.913,33.311 l 48.543,-42.654 z"
       inkscape:connector-curvature="0"
       style="fill:#ebdec9" /><path
       id="path3571"
       d="m 242.841,288.591 c 0,0 -10.23,-1.279 -26.488,5.571 -16.258,6.851 -21.139,24.19 -21.099,31.237 0.091,16.076 18.713,32.525 12.604,46.218 -5.297,11.875 -9.865,11.597 -19.546,24.843 -9.681,13.246 -19.065,29.433 -15.621,50.871 3.655,22.749 14.077,61.253 84.2,60.103 66.6,-1.092 77.013,-37.262 80.667,-48.131 5.77,-17.167 1.461,-44.208 -12.879,-61.563 -12.322,-14.913 -15.805,-17.078 -20.46,-26.578 -4.476,-9.134 4.22,-23.329 5.938,-26.579 5.114,-9.682 6.303,-13.52 5.937,-23.109 -0.365,-9.59 -6.679,-11.463 -10.139,-6.85 -3.562,4.75 -6.72,9.769 -17.08,10.23 -12.33,0.549 -16.806,-11.966 -18.998,-19.09 -1.827,-5.937 -27.036,-17.173 -27.036,-17.173 z"
       inkscape:connector-curvature="0"
       style="fill:#ede2d2" /><g
       id="g3573"><path
         id="path3575"
         d="m 279.297,352.837 c 0,1.27 -1.039,2.309 -2.309,2.309 h -41.866 c -1.27,0 -2.309,-1.039 -2.309,-2.309 v -17.98 c 0,-1.27 1.039,-2.309 2.309,-2.309 h 41.866 c 1.27,0 2.309,1.039 2.309,2.309 v 17.98 z"
         inkscape:connector-curvature="0"
         style="fill:#272525" /><circle
         id="circle3577"
         r="1.2690001"
         cy="343.84698"
         cx="235.713"
         sodipodi:cx="235.713"
         sodipodi:cy="343.84698"
         sodipodi:rx="1.2690001"
         sodipodi:ry="1.2690001"
         style="fill:#f7d68f"
         d="m 236.982,343.84698 c 0,0.70085 -0.56815,1.269 -1.269,1.269 -0.70085,0 -1.269,-0.56815 -1.269,-1.269 0,-0.70084 0.56815,-1.269 1.269,-1.269 0.70085,0 1.269,0.56816 1.269,1.269 z" /><circle
         id="circle3579"
         r="1.2690001"
         cy="343.84698"
         cx="276.39801"
         sodipodi:cx="276.39801"
         sodipodi:cy="343.84698"
         sodipodi:rx="1.2690001"
         sodipodi:ry="1.2690001"
         style="fill:#f7d68f"
         d="m 277.66701,343.84698 c 0,0.70085 -0.56815,1.269 -1.269,1.269 -0.70085,0 -1.269,-0.56815 -1.269,-1.269 0,-0.70084 0.56815,-1.269 1.269,-1.269 0.70085,0 1.269,0.56816 1.269,1.269 z" /><circle
         id="circle3581"
         r="1.2690001"
         cy="334.53201"
         cx="235.16701"
         sodipodi:cx="235.16701"
         sodipodi:cy="334.53201"
         sodipodi:rx="1.2690001"
         sodipodi:ry="1.2690001"
         style="fill:#434244"
         d="m 236.43601,334.53201 c 0,0.70085 -0.56815,1.269 -1.269,1.269 -0.70085,0 -1.269,-0.56815 -1.269,-1.269 0,-0.70085 0.56815,-1.269 1.269,-1.269 0.70085,0 1.269,0.56815 1.269,1.269 z" /><circle
         id="circle3583"
         r="1.2690001"
         cy="353.16101"
         cx="235.16701"
         sodipodi:cx="235.16701"
         sodipodi:cy="353.16101"
         sodipodi:rx="1.2690001"
         sodipodi:ry="1.2690001"
         style="fill:#434244"
         d="m 236.43601,353.16101 c 0,0.70085 -0.56815,1.269 -1.269,1.269 -0.70085,0 -1.269,-0.56815 -1.269,-1.269 0,-0.70085 0.56815,-1.269 1.269,-1.269 0.70085,0 1.269,0.56815 1.269,1.269 z" /><circle
         id="circle3585"
         r="1.2690001"
         cy="334.53201"
         cx="276.944"
         sodipodi:cx="276.944"
         sodipodi:cy="334.53201"
         sodipodi:rx="1.2690001"
         sodipodi:ry="1.2690001"
         style="fill:#434244"
         d="m 278.213,334.53201 c 0,0.70085 -0.56815,1.269 -1.269,1.269 -0.70085,0 -1.269,-0.56815 -1.269,-1.269 0,-0.70085 0.56815,-1.269 1.269,-1.269 0.70085,0 1.269,0.56815 1.269,1.269 z" /><circle
         id="circle3587"
         r="1.2690001"
         cy="353.16101"
         cx="276.944"
         sodipodi:cx="276.944"
         sodipodi:cy="353.16101"
         sodipodi:rx="1.2690001"
         sodipodi:ry="1.2690001"
         style="fill:#434244"
         d="m 278.213,353.16101 c 0,0.70085 -0.56815,1.269 -1.269,1.269 -0.70085,0 -1.269,-0.56815 -1.269,-1.269 0,-0.70085 0.56815,-1.269 1.269,-1.269 0.70085,0 1.269,0.56815 1.269,1.269 z" /><path
         id="path3589"
         d="m 273.979,351.848 c 0,1.009 -0.826,1.834 -1.835,1.834 h -32.16 c -1.009,0 -1.834,-0.825 -1.834,-1.834 v -15.835 c 0,-1.009 0.826,-1.835 1.834,-1.835 h 32.16 c 1.009,0 1.835,0.826 1.835,1.835 v 15.835 z"
         inkscape:connector-curvature="0"
         style="fill:#434244" /><path
         id="path3591"
         d="m 273.96,351.681 c 0,1.009 -0.825,1.835 -1.834,1.835 h -32.16 c -1.009,0 -1.834,-0.826 -1.834,-1.835 v -15.835 c 0,-1.009 0.826,-1.835 1.834,-1.835 h 32.16 c 1.009,0 1.834,0.826 1.834,1.835 v 15.835 z"
         inkscape:connector-curvature="0"
         style="fill:#9c7d5d" /><path
         id="path3593"
         d="m 272.145,334.011 h -0.834 c 1.009,0 1.835,0.826 1.835,1.835 v 15.835 c 0,1.009 -0.826,1.835 -1.835,1.835 h 0.834 c 1.009,0 1.835,-0.826 1.835,-1.835 v -15.835 c -0.001,-1.009 -0.827,-1.835 -1.835,-1.835 z"
         inkscape:connector-curvature="0"
         style="opacity:0.5;fill:#ffffff" /><path
         id="path3595"
         d="m 239.015,335.024 h 33.933 c -0.304,-0.599 -0.924,-1.014 -1.638,-1.014 h -30.659 c -0.713,0.001 -1.333,0.416 -1.636,1.014 z"
         inkscape:connector-curvature="0"
         style="opacity:0.3;fill:#272525" /><path
         id="path3597"
         d="m 238.817,351.681 v -15.835 c 0,-1.009 0.826,-1.835 1.834,-1.835 h -0.667 c -1.009,0 -1.834,0.826 -1.834,1.835 v 15.835 c 0,1.009 0.826,1.835 1.834,1.835 h 0.667 c -1.008,0 -1.834,-0.827 -1.834,-1.835 z"
         inkscape:connector-curvature="0"
         style="opacity:0.2;fill:#ffffff" /><g
         id="g3599"><circle
           id="circle3601"
           r="1.587"
           cy="339.26199"
           cx="243.345"
           sodipodi:cx="243.345"
           sodipodi:cy="339.26199"
           sodipodi:rx="1.587"
           sodipodi:ry="1.587"
           style="fill:#f4cfa6"
           d="m 244.932,339.26199 c 0,0.87648 -0.71052,1.587 -1.587,1.587 -0.87647,0 -1.587,-0.71052 -1.587,-1.587 0,-0.87647 0.71053,-1.587 1.587,-1.587 0.87648,0 1.587,0.71053 1.587,1.587 z" /><circle
           id="circle3603"
           r="1.587"
           cy="339.26199"
           cx="248.42599"
           sodipodi:cx="248.42599"
           sodipodi:cy="339.26199"
           sodipodi:rx="1.587"
           sodipodi:ry="1.587"
           style="fill:#f4cfa6"
           d="m 250.01299,339.26199 c 0,0.87648 -0.71052,1.587 -1.587,1.587 -0.87647,0 -1.587,-0.71052 -1.587,-1.587 0,-0.87647 0.71053,-1.587 1.587,-1.587 0.87648,0 1.587,0.71053 1.587,1.587 z" /><circle
           id="circle3605"
           r="1.5880001"
           cy="339.26199"
           cx="253.506"
           sodipodi:cx="253.506"
           sodipodi:cy="339.26199"
           sodipodi:rx="1.5880001"
           sodipodi:ry="1.5880001"
           style="fill:#f4cfa6"
           d="m 255.094,339.26199 c 0,0.87703 -0.71098,1.588 -1.588,1.588 -0.87703,0 -1.588,-0.71097 -1.588,-1.588 0,-0.87702 0.71097,-1.588 1.588,-1.588 0.87702,0 1.588,0.71098 1.588,1.588 z" /><circle
           id="circle3607"
           r="1.587"
           cy="339.26199"
           cx="258.586"
           sodipodi:cx="258.586"
           sodipodi:cy="339.26199"
           sodipodi:rx="1.587"
           sodipodi:ry="1.587"
           style="fill:#f4cfa6"
           d="m 260.173,339.26199 c 0,0.87648 -0.71053,1.587 -1.587,1.587 -0.87648,0 -1.587,-0.71052 -1.587,-1.587 0,-0.87647 0.71052,-1.587 1.587,-1.587 0.87647,0 1.587,0.71053 1.587,1.587 z" /><circle
           id="circle3609"
           r="1.587"
           cy="339.26199"
           cx="263.66699"
           sodipodi:cx="263.66699"
           sodipodi:cy="339.26199"
           sodipodi:rx="1.587"
           sodipodi:ry="1.587"
           style="fill:#f4cfa6"
           d="m 265.25399,339.26199 c 0,0.87648 -0.71052,1.587 -1.587,1.587 -0.87647,0 -1.587,-0.71052 -1.587,-1.587 0,-0.87647 0.71053,-1.587 1.587,-1.587 0.87648,0 1.587,0.71053 1.587,1.587 z" /><circle
           id="circle3611"
           r="1.587"
           cy="339.26199"
           cx="268.74799"
           sodipodi:cx="268.74799"
           sodipodi:cy="339.26199"
           sodipodi:rx="1.587"
           sodipodi:ry="1.587"
           style="fill:#f4cfa6"
           d="m 270.33499,339.26199 c 0,0.87648 -0.71053,1.587 -1.587,1.587 -0.87648,0 -1.587,-0.71052 -1.587,-1.587 0,-0.87647 0.71052,-1.587 1.587,-1.587 0.87647,0 1.587,0.71053 1.587,1.587 z" /></g><path
         id="path3613"
         d="m 238.132,343.764 v 7.917 c 0,1.009 0.826,1.835 1.834,1.835 h 32.16 c 1.009,0 1.834,-0.826 1.834,-1.835 v -7.917 h -35.828 z"
         inkscape:connector-curvature="0"
         style="opacity:0.1;fill:#272525" /></g><path
       id="path3615"
       d="m 273.917,39.342 c 0.244,-9.011 3.427,-34.338 3.427,-34.338 0,0 -4.286,0.487 -7.776,-0.568 -3.767,-1.139 -7.314,-3.86 -9.588,-3.942 -1.934,-0.069 -3.031,0.519 -3.32,0.71 -0.289,-0.191 -1.388,-1.268 -3.321,-1.199 -2.273,0.081 -6.138,2.677 -9.904,3.815 -3.491,1.056 -8.524,0.163 -8.524,0.163 0,0 2.841,26.303 3.085,35.314 0.243,9.012 -1.624,30.525 -1.624,30.525 0,0 5.521,3.734 7.631,9.174 2.111,5.439 1.948,9.66 1.948,9.66 l -4.303,243.876 h 30.041 l -4.271,-240.28 c 0,0 -0.381,-1.767 -0.373,-2.095 0.028,-1.276 -2.104,-7.731 -0.426,-12.056 2.11,-5.44 8.824,-8.647 8.824,-8.647 0,0 -1.769,-21.1 -1.526,-30.112 z"
       inkscape:connector-curvature="0"
       style="fill:#593226" /><path
       id="path3617"
       d="m 275.009,39.298 c 0.244,-9.012 3.085,-35.314 3.085,-35.314 0,0 -5.033,0.893 -8.523,-0.163 -3.767,-1.139 -7.632,-3.734 -9.904,-3.815 -1.934,-0.069 -3.042,0.565 -3.331,0.756 -0.289,-0.191 -1.396,-0.825 -3.33,-0.756 -2.273,0.081 -6.138,2.677 -9.904,3.815 -3.491,1.056 -8.524,0.163 -8.524,0.163 0,0 2.842,26.303 3.085,35.314 0.244,9.012 -1.624,30.525 -1.624,30.525 0,0 5.521,3.734 7.631,9.174 2.11,5.439 1.948,9.66 1.948,9.66 l -4.303,243.876 h 30.041 L 267.053,88.657 c 0,0 -0.162,-4.221 1.948,-9.66 2.111,-5.44 7.632,-9.174 7.632,-9.174 0,0 -1.867,-21.513 -1.624,-30.525 z"
       inkscape:connector-curvature="0"
       style="fill:#724335" /><rect
       id="rect3619"
       y="91.378998"
       x="246.328"
       width="0.63300002"
       height="241.15401"
       style="opacity:0.7;fill:#5c3a31" /><rect
       id="rect3621"
       y="91.378998"
       x="250.99699"
       width="0.63300002"
       height="241.15401"
       style="opacity:0.8;fill:#5c3a31" /><rect
       id="rect3623"
       y="92.337997"
       x="253.181"
       width="0.63300002"
       height="240.19501"
       style="opacity:0.8;fill:#5f3d37" /><rect
       id="rect3625"
       y="89.709"
       x="260.95801"
       width="0.73000002"
       height="242.82401"
       style="opacity:0.7;fill:#55342a" /><rect
       id="rect3627"
       y="89.709"
       x="262.79199"
       width="0.73000002"
       height="242.82401"
       style="opacity:0.4;fill:#55342a" /><rect
       id="rect3629"
       y="85.683998"
       x="265.806"
       width="0.68199998"
       height="246.849"
       style="opacity:0.8;fill:#513530" /><rect
       id="rect3631"
       y="85.683998"
       x="256.634"
       width="0.68099999"
       height="246.849"
       style="opacity:0.7;fill:#513530" /><polygon
       id="polygon3633"
       points="245.602,317.7 246.875,320.729 265.796,320.729 267.069,317.7 "
       style="fill:#d3d1cc" /><polygon
       id="polygon3635"
       points="245.602,305.266 246.875,308.293 265.796,308.293 267.069,305.266 "
       style="fill:#d3d1cc" /><polygon
       id="polygon3637"
       points="245.602,291.502 246.875,294.529 265.796,294.529 267.069,291.502 "
       style="fill:#d3d1cc" /><polygon
       id="polygon3639"
       points="246.696,275.217 248.848,280.126 263.823,280.126 265.975,275.217 "
       style="fill:#d3d1cc" /><polygon
       id="polygon3641"
       points="246.696,248.665 248.848,253.574 263.823,253.574 265.975,248.665 "
       style="fill:#d3d1cc" /><path
       id="path3643"
       d="m 247.22,216.065 c 0,0 1.211,2.009 1.496,3.41 0.284,1.4 0.692,3.41 0.692,3.41 h 13.854 c 0,0 0.408,-2.009 0.692,-3.41 0.284,-1.401 1.495,-3.41 1.495,-3.41 H 247.22 z"
       inkscape:connector-curvature="0"
       style="fill:#d3d1cc" /><path
       id="path3645"
       d="m 247.221,191.505 c 0,0 1.211,2.009 1.496,3.41 0.284,1.4 0.692,3.409 0.692,3.409 h 13.854 c 0,0 0.408,-2.009 0.693,-3.409 0.283,-1.401 1.494,-3.41 1.494,-3.41 h -18.229 z"
       inkscape:connector-curvature="0"
       style="fill:#d3d1cc" /><path
       id="path3647"
       d="m 264.236,163.216 c 0,0 -1.371,3.1 -1.465,4.459 -0.092,1.359 -0.263,3.853 -0.263,3.853 h -12.347 c 0,0 -0.17,-2.494 -0.263,-3.853 -0.093,-1.36 -1.464,-4.459 -1.464,-4.459 h 15.802 z"
       inkscape:connector-curvature="0"
       style="fill:#d3d1cc" /><path
       id="path3649"
       d="m 264.235,133.334 c 0,0 -1.371,3.1 -1.463,4.459 -0.093,1.359 -0.264,3.853 -0.264,3.853 h -12.347 c 0,0 -0.17,-2.494 -0.263,-3.853 -0.092,-1.359 -1.463,-4.459 -1.463,-4.459 h 15.8 z"
       inkscape:connector-curvature="0"
       style="fill:#d3d1cc" /><polygon
       id="polygon3651"
       points="267.123,92.647 267.078,90.081 245.593,90.081 245.547,92.647 "
       style="fill:#f1f1f2" /><g
       id="g3653"><g
         id="g3655"><path
           id="path3657"
           d="m 236.549,17.446 -0.58,-0.001 v 0.284 h -1.702 c 0,0 -1.36,-1.061 -3.043,-1.754 -1.015,-0.418 -4.462,-1.463 -4.849,-1.264 -0.449,0.231 -0.849,2.892 -0.954,3.533 -0.072,0.441 -0.103,0.821 -0.103,1.059 0,0.237 0.031,0.617 0.103,1.058 0.105,0.642 0.505,3.302 0.954,3.534 0.387,0.199 3.834,-0.846 4.849,-1.264 1.684,-0.693 3.043,-1.754 3.043,-1.754 h 1.702 v 0.284 l 0.58,-0.001 v -3.714 z"
           inkscape:connector-curvature="0"
           style="fill:#b88f5f" /><path
           id="path3659"
           d="m 226.375,23.896 c 0.387,0.199 3.834,-0.846 4.849,-1.264 1.684,-0.693 3.043,-1.754 3.043,-1.754 h 1.702 v 0.284 l 0.58,-10e-4 v -1.857 h -11.232 c 0,0.237 0.031,0.617 0.103,1.058 0.106,0.642 0.505,3.302 0.955,3.534 z"
           inkscape:connector-curvature="0"
           style="opacity:0.3;fill:#929496" /></g><g
         id="g3661"><path
           id="path3663"
           d="m 237.763,37.435 -0.581,0 v 0.284 h -1.702 c 0,0 -1.359,-1.061 -3.043,-1.754 -1.015,-0.418 -4.461,-1.463 -4.849,-1.264 -0.45,0.231 -0.849,2.892 -0.955,3.533 -0.072,0.441 -0.103,0.821 -0.103,1.059 0,0.238 0.031,0.617 0.103,1.059 0.106,0.642 0.505,3.302 0.955,3.533 0.387,0.199 3.833,-0.846 4.849,-1.264 1.684,-0.693 3.043,-1.754 3.043,-1.754 h 1.702 v 0.284 l 0.581,0 v -3.716 z"
           inkscape:connector-curvature="0"
           style="fill:#b88f5f" /><path
           id="path3665"
           d="m 227.588,43.884 c 0.387,0.199 3.833,-0.846 4.849,-1.264 1.684,-0.693 3.043,-1.754 3.043,-1.754 h 1.702 v 0.284 l 0.581,0 V 39.293 H 226.53 c 0,0.237 0.031,0.617 0.103,1.059 0.106,0.64 0.505,3.3 0.955,3.532 z"
           inkscape:connector-curvature="0"
           style="opacity:0.3;fill:#929496" /></g><g
         id="g3667"><path
           id="path3669"
           d="m 237.012,58.059 -0.581,-10e-4 v 0.284 h -1.702 c 0,0 -1.359,-1.062 -3.043,-1.754 -1.015,-0.418 -4.461,-1.463 -4.849,-1.264 -0.45,0.231 -0.849,2.892 -0.955,3.533 -0.072,0.441 -0.103,0.821 -0.103,1.059 0,0.237 0.031,0.617 0.103,1.058 0.106,0.642 0.505,3.302 0.955,3.534 0.387,0.199 3.833,-0.846 4.849,-1.264 1.684,-0.693 3.043,-1.754 3.043,-1.754 h 1.702 v 0.284 l 0.581,-10e-4 v -3.714 z"
           inkscape:connector-curvature="0"
           style="fill:#b88f5f" /><path
           id="path3671"
           d="m 226.837,64.508 c 0.387,0.199 3.833,-0.846 4.849,-1.264 1.684,-0.693 3.043,-1.754 3.043,-1.754 h 1.702 v 0.284 l 0.581,-10e-4 V 59.916 H 225.78 c 0,0.237 0.031,0.617 0.103,1.058 0.105,0.642 0.504,3.302 0.954,3.534 z"
           inkscape:connector-curvature="0"
           style="opacity:0.3;fill:#929496" /></g></g><g
       id="g3673"><g
         id="g3675"><path
           id="path3677"
           d="m 276.149,17.129 0.58,-0.001 v 0.284 h 1.702 c 0,0 1.359,-1.061 3.044,-1.754 1.015,-0.417 4.461,-1.463 4.849,-1.264 0.449,0.231 0.849,2.892 0.954,3.533 0.072,0.441 0.104,0.821 0.104,1.059 0,0.237 -0.031,0.617 -0.104,1.058 -0.105,0.642 -0.505,3.302 -0.954,3.534 -0.388,0.199 -3.834,-0.846 -4.849,-1.264 -1.685,-0.693 -3.044,-1.754 -3.044,-1.754 h -1.702 v 0.284 l -0.58,-0.001 v -3.714 z"
           inkscape:connector-curvature="0"
           style="fill:#b88f5f" /><path
           id="path3679"
           d="m 286.324,23.578 c -0.388,0.199 -3.834,-0.846 -4.849,-1.264 -1.685,-0.693 -3.044,-1.754 -3.044,-1.754 h -1.702 v 0.284 l -0.58,-0.001 v -1.857 h 11.232 c 0,0.237 -0.031,0.617 -0.104,1.058 -0.104,0.642 -0.504,3.302 -0.953,3.534 z"
           inkscape:connector-curvature="0"
           style="opacity:0.3;fill:#929496" /></g><g
         id="g3681"><path
           id="path3683"
           d="m 274.937,37.117 0.58,-10e-4 V 37.4 h 1.702 c 0,0 1.359,-1.061 3.043,-1.754 1.016,-0.417 4.462,-1.463 4.85,-1.264 0.449,0.231 0.849,2.892 0.954,3.534 0.072,0.441 0.103,0.821 0.103,1.058 0,0.237 -0.03,0.617 -0.103,1.059 -0.105,0.642 -0.505,3.302 -0.954,3.533 -0.388,0.2 -3.834,-0.846 -4.85,-1.264 -1.684,-0.693 -3.043,-1.754 -3.043,-1.754 h -1.702 v 0.284 l -0.58,0 v -3.715 z"
           inkscape:connector-curvature="0"
           style="fill:#b88f5f" /><path
           id="path3685"
           d="m 285.111,43.566 c -0.388,0.2 -3.834,-0.846 -4.85,-1.264 -1.684,-0.693 -3.043,-1.754 -3.043,-1.754 h -1.702 v 0.284 l -0.58,0 v -1.857 h 11.231 c 0,0.237 -0.03,0.617 -0.103,1.059 -0.104,0.64 -0.503,3.3 -0.953,3.532 z"
           inkscape:connector-curvature="0"
           style="opacity:0.3;fill:#929496" /></g><g
         id="g3687"><path
           id="path3689"
           d="m 275.687,57.741 0.581,0 v 0.284 h 1.702 c 0,0 1.359,-1.061 3.043,-1.754 1.016,-0.417 4.462,-1.463 4.85,-1.264 0.449,0.231 0.849,2.892 0.954,3.533 0.072,0.441 0.103,0.821 0.103,1.059 0,0.237 -0.03,0.617 -0.103,1.058 -0.105,0.642 -0.505,3.302 -0.954,3.534 -0.388,0.199 -3.834,-0.846 -4.85,-1.264 -1.684,-0.693 -3.043,-1.754 -3.043,-1.754 h -1.702 v 0.284 l -0.581,-10e-4 v -3.715 z"
           inkscape:connector-curvature="0"
           style="fill:#b88f5f" /><path
           id="path3691"
           d="m 285.862,64.19 c -0.388,0.199 -3.834,-0.846 -4.85,-1.264 -1.684,-0.693 -3.043,-1.754 -3.043,-1.754 h -1.702 v 0.284 l -0.581,-0.001 v -1.857 h 11.232 c 0,0.237 -0.03,0.617 -0.103,1.058 -0.104,0.642 -0.503,3.302 -0.953,3.534 z"
           inkscape:connector-curvature="0"
           style="opacity:0.3;fill:#929496" /></g></g><path
       id="path3693"
       d="m 278.094,3.983 c 0,0 -5.033,0.893 -8.523,-0.163 -3.767,-1.139 -7.632,-3.734 -9.904,-3.815 -1.934,-0.069 -3.042,0.565 -3.331,0.756 -0.289,-0.191 -1.396,-0.825 -3.33,-0.756 -2.273,0.081 -6.138,2.677 -9.904,3.815 -3.491,1.056 -8.524,0.163 -8.524,0.163 0,0 2.842,26.303 3.085,35.314 0.244,9.012 -1.624,30.525 -1.624,30.525 0,0 5.521,3.734 7.631,9.174 2.11,5.439 1.948,9.66 1.948,9.66 l -0.032,1.831 h 21.5 l -0.032,-1.831 c 0,0 -0.162,-4.221 1.948,-9.66 2.111,-5.44 7.632,-9.174 7.632,-9.174 0,0 -1.867,-21.514 -1.624,-30.525 0.243,-9.011 3.084,-35.314 3.084,-35.314 z"
       inkscape:connector-curvature="0"
       style="fill:#1d1b1b" /><path
       id="path3695"
       d="m 278.094,3.983 c 0,0 -5.033,0.893 -8.523,-0.163 -3.767,-1.139 -7.632,-3.734 -9.904,-3.815 -1.934,-0.069 -3.042,0.565 -3.331,0.756 v 89.726 h 10.75 l -0.032,-1.831 c 0,0 -0.162,-4.221 1.948,-9.66 2.111,-5.44 7.632,-9.174 7.632,-9.174 0,0 -1.867,-21.514 -1.624,-30.525 0.243,-9.011 3.084,-35.314 3.084,-35.314 z"
       inkscape:connector-curvature="0"
       style="fill:#141414" /><g
       id="g3697"><polygon
         id="polygon3699"
         points="244.361,159.882 244.349,160.545 268.321,160.545 268.31,159.882 "
         style="fill:#bbbcbf" /><polygon
         id="polygon3701"
         points="269.65,235.854 243.021,235.854 243.009,236.518 269.662,236.518 "
         style="fill:#bbbcbf" /><polygon
         id="polygon3703"
         points="269.457,224.892 243.214,224.892 243.203,225.555 269.468,225.555 "
         style="fill:#bbbcbf" /><polygon
         id="polygon3705"
         points="269.842,246.748 269.831,246.084 242.84,246.084 242.829,246.748 "
         style="fill:#bbbcbf" /><polygon
         id="polygon3707"
         points="269.253,213.324 243.418,213.324 243.407,213.987 269.265,213.987 "
         style="fill:#bbbcbf" /><polygon
         id="polygon3709"
         points="242.082,289.09 242.07,289.753 270.601,289.753 270.589,289.09 "
         style="fill:#bbbcbf" /><polygon
         id="polygon3711"
         points="243.632,201.175 243.621,201.839 269.05,201.839 269.038,201.175 "
         style="fill:#bbbcbf" /><polygon
         id="polygon3713"
         points="241.83,303.377 241.818,304.04 270.853,304.04 270.841,303.377 "
         style="fill:#bbbcbf" /><polygon
         id="polygon3715"
         points="244.922,128.087 244.91,128.75 267.761,128.75 267.749,128.087 "
         style="fill:#bbbcbf" /><polygon
         id="polygon3717"
         points="268.578,175.109 268.566,174.446 244.104,174.446 244.092,175.109 "
         style="fill:#bbbcbf" /><polygon
         id="polygon3719"
         points="243.847,189.003 268.823,189.003 268.812,188.339 243.859,188.339 "
         style="fill:#bbbcbf" /><polygon
         id="polygon3721"
         points="270.718,296.389 241.953,296.389 241.941,297.053 270.729,297.053 "
         style="fill:#bbbcbf" /><polygon
         id="polygon3723"
         points="270.013,256.41 270.001,255.746 242.67,255.746 242.658,256.41 "
         style="fill:#bbbcbf" /><polygon
         id="polygon3725"
         points="270.457,281.572 242.214,281.572 242.203,282.235 270.469,282.235 "
         style="fill:#bbbcbf" /><polygon
         id="polygon3727"
         points="270.16,264.745 242.511,264.745 242.5,265.408 270.172,265.408 "
         style="fill:#bbbcbf" /><polygon
         id="polygon3729"
         points="270.312,273.366 242.359,273.366 242.347,274.03 270.323,274.03 "
         style="fill:#bbbcbf" /><polygon
         id="polygon3731"
         points="270.951,309.619 241.719,309.619 241.708,310.283 270.963,310.283 "
         style="fill:#bbbcbf" /><polygon
         id="polygon3733"
         points="245.228,110.738 245.216,111.401 267.454,111.401 267.442,110.738 "
         style="fill:#bbbcbf" /><polygon
         id="polygon3735"
         points="244.635,144.346 244.624,145.009 268.047,145.009 268.035,144.346 "
         style="fill:#bbbcbf" /><polygon
         id="polygon3737"
         points="271.269,327.611 271.257,326.948 241.414,326.948 241.402,327.611 "
         style="fill:#bbbcbf" /><polygon
         id="polygon3739"
         points="271.163,321.59 241.508,321.59 241.497,322.254 271.175,322.254 "
         style="fill:#bbbcbf" /><polygon
         id="polygon3741"
         points="271.059,315.69 241.612,315.69 241.601,316.354 271.07,316.354 "
         style="fill:#bbbcbf" /></g><g
       id="g3743"><polygon
         id="polygon3745"
         points="269.647,235.716 243.023,235.716 243.011,236.379 269.659,236.379 "
         style="fill:#ededed" /><polygon
         id="polygon3747"
         points="269.454,224.753 243.217,224.753 243.205,225.417 269.466,225.417 "
         style="fill:#ededed" /><polygon
         id="polygon3749"
         points="243.85,188.864 268.821,188.864 268.81,188.201 243.861,188.201 "
         style="fill:#ededed" /><polygon
         id="polygon3751"
         points="269.25,213.186 243.421,213.186 243.409,213.849 269.262,213.849 "
         style="fill:#ededed" /><polygon
         id="polygon3753"
         points="269.84,246.609 269.828,245.946 242.843,245.946 242.831,246.609 "
         style="fill:#ededed" /><polygon
         id="polygon3755"
         points="244.364,159.744 244.352,160.407 268.319,160.407 268.308,159.744 "
         style="fill:#ededed" /><polygon
         id="polygon3757"
         points="242.084,288.951 242.072,289.615 270.599,289.615 270.587,288.951 "
         style="fill:#ededed" /><polygon
         id="polygon3759"
         points="241.832,303.238 241.82,303.901 270.851,303.901 270.839,303.238 "
         style="fill:#ededed" /><polygon
         id="polygon3761"
         points="268.576,174.971 268.564,174.308 244.106,174.308 244.095,174.971 "
         style="fill:#ededed" /><polygon
         id="polygon3763"
         points="243.635,201.037 243.624,201.7 269.048,201.7 269.036,201.037 "
         style="fill:#ededed" /><polygon
         id="polygon3765"
         points="244.924,127.949 244.913,128.612 267.758,128.612 267.746,127.949 "
         style="fill:#ededed" /><polygon
         id="polygon3767"
         points="244.638,144.208 244.626,144.871 268.045,144.871 268.033,144.208 "
         style="fill:#ededed" /><polygon
         id="polygon3769"
         points="270.454,281.434 242.217,281.434 242.205,282.097 270.466,282.097 "
         style="fill:#ededed" /><polygon
         id="polygon3771"
         points="270.949,309.481 241.722,309.481 241.71,310.145 270.961,310.145 "
         style="fill:#ededed" /><polygon
         id="polygon3773"
         points="270.716,296.251 241.955,296.251 241.943,296.914 270.728,296.914 "
         style="fill:#ededed" /><polygon
         id="polygon3775"
         points="270.31,273.229 242.361,273.229 242.35,273.892 270.321,273.892 "
         style="fill:#ededed" /><polygon
         id="polygon3777"
         points="270.157,264.606 242.513,264.606 242.502,265.271 270.169,265.271 "
         style="fill:#ededed" /><polygon
         id="polygon3779"
         points="270.011,256.271 269.999,255.608 242.672,255.608 242.661,256.271 "
         style="fill:#ededed" /><polygon
         id="polygon3781"
         points="271.267,327.474 271.255,326.811 241.416,326.811 241.404,327.474 "
         style="fill:#ededed" /><polygon
         id="polygon3783"
         points="271.056,315.553 241.615,315.553 241.603,316.216 271.067,316.216 "
         style="fill:#ededed" /><polygon
         id="polygon3785"
         points="245.23,110.6 245.219,111.263 267.452,111.263 267.44,110.6 "
         style="fill:#ededed" /><polygon
         id="polygon3787"
         points="271.16,321.452 241.511,321.452 241.499,322.115 271.172,322.115 "
         style="fill:#ededed" /></g><g
       id="g3789"><path
         id="path3791"
         d="m 279.223,405.913 c 0,1.27 -1.039,2.309 -2.309,2.309 h -41.866 c -1.27,0 -2.309,-1.039 -2.309,-2.309 v -17.98 c 0,-1.27 1.039,-2.308 2.309,-2.308 h 41.866 c 1.27,0 2.309,1.038 2.309,2.308 v 17.98 z"
         inkscape:connector-curvature="0"
         style="fill:#272525" /><circle
         id="circle3793"
         r="1.2690001"
         cy="396.923"
         cx="235.63901"
         sodipodi:cx="235.63901"
         sodipodi:cy="396.923"
         sodipodi:rx="1.2690001"
         sodipodi:ry="1.2690001"
         style="fill:#f7d68f"
         d="m 236.90801,396.923 c 0,0.70085 -0.56815,1.269 -1.269,1.269 -0.70085,0 -1.269,-0.56815 -1.269,-1.269 0,-0.70085 0.56815,-1.269 1.269,-1.269 0.70085,0 1.269,0.56815 1.269,1.269 z" /><circle
         id="circle3795"
         r="1.2690001"
         cy="396.923"
         cx="276.32401"
         sodipodi:cx="276.32401"
         sodipodi:cy="396.923"
         sodipodi:rx="1.2690001"
         sodipodi:ry="1.2690001"
         style="fill:#f7d68f"
         d="m 277.59301,396.923 c 0,0.70085 -0.56816,1.269 -1.269,1.269 -0.70085,0 -1.269,-0.56815 -1.269,-1.269 0,-0.70085 0.56815,-1.269 1.269,-1.269 0.70084,0 1.269,0.56815 1.269,1.269 z" /><circle
         id="circle3797"
         r="1.2690001"
         cy="387.60901"
         cx="235.093"
         sodipodi:cx="235.093"
         sodipodi:cy="387.60901"
         sodipodi:rx="1.2690001"
         sodipodi:ry="1.2690001"
         style="fill:#434244"
         d="m 236.362,387.60901 c 0,0.70085 -0.56815,1.269 -1.269,1.269 -0.70085,0 -1.269,-0.56815 -1.269,-1.269 0,-0.70085 0.56815,-1.269 1.269,-1.269 0.70085,0 1.269,0.56815 1.269,1.269 z" /><circle
         id="circle3799"
         r="1.2690001"
         cy="406.237"
         cx="235.093"
         sodipodi:cx="235.093"
         sodipodi:cy="406.237"
         sodipodi:rx="1.2690001"
         sodipodi:ry="1.2690001"
         style="fill:#434244"
         d="m 236.362,406.237 c 0,0.70085 -0.56815,1.269 -1.269,1.269 -0.70085,0 -1.269,-0.56815 -1.269,-1.269 0,-0.70085 0.56815,-1.269 1.269,-1.269 0.70085,0 1.269,0.56815 1.269,1.269 z" /><circle
         id="circle3801"
         r="1.2690001"
         cy="387.60901"
         cx="276.87"
         sodipodi:cx="276.87"
         sodipodi:cy="387.60901"
         sodipodi:rx="1.2690001"
         sodipodi:ry="1.2690001"
         style="fill:#434244"
         d="m 278.139,387.60901 c 0,0.70085 -0.56816,1.269 -1.269,1.269 -0.70085,0 -1.269,-0.56815 -1.269,-1.269 0,-0.70085 0.56815,-1.269 1.269,-1.269 0.70084,0 1.269,0.56815 1.269,1.269 z" /><circle
         id="circle3803"
         r="1.2690001"
         cy="406.237"
         cx="276.87"
         sodipodi:cx="276.87"
         sodipodi:cy="406.237"
         sodipodi:rx="1.2690001"
         sodipodi:ry="1.2690001"
         style="fill:#434244"
         d="m 278.139,406.237 c 0,0.70085 -0.56816,1.269 -1.269,1.269 -0.70085,0 -1.269,-0.56815 -1.269,-1.269 0,-0.70085 0.56815,-1.269 1.269,-1.269 0.70084,0 1.269,0.56815 1.269,1.269 z" /><path
         id="path3805"
         d="m 273.905,404.924 c 0,1.009 -0.826,1.835 -1.835,1.835 h -32.16 c -1.009,0 -1.834,-0.826 -1.834,-1.835 v -15.835 c 0,-1.009 0.825,-1.835 1.834,-1.835 h 32.16 c 1.009,0 1.835,0.826 1.835,1.835 v 15.835 z"
         inkscape:connector-curvature="0"
         style="fill:#434244" /><path
         id="path3807"
         d="m 273.887,404.758 c 0,1.009 -0.825,1.834 -1.835,1.834 h -32.16 c -1.009,0 -1.834,-0.825 -1.834,-1.834 v -15.836 c 0,-1.009 0.825,-1.834 1.834,-1.834 h 32.16 c 1.01,0 1.835,0.825 1.835,1.834 v 15.836 z"
         inkscape:connector-curvature="0"
         style="fill:#9c7d5d" /><path
         id="path3809"
         d="m 272.07,387.088 h -0.834 c 1.01,0 1.835,0.825 1.835,1.834 v 15.836 c 0,1.009 -0.825,1.834 -1.835,1.834 h 0.834 c 1.009,0 1.835,-0.825 1.835,-1.834 v -15.836 c 0,-1.009 -0.826,-1.834 -1.835,-1.834 z"
         inkscape:connector-curvature="0"
         style="opacity:0.5;fill:#ffffff" /><path
         id="path3811"
         d="m 238.941,388.101 h 33.933 c -0.303,-0.599 -0.924,-1.013 -1.638,-1.013 h -30.659 c -0.713,0 -1.333,0.414 -1.636,1.013 z"
         inkscape:connector-curvature="0"
         style="opacity:0.3;fill:#272525" /><path
         id="path3813"
         d="m 238.744,404.758 v -15.836 c 0,-1.009 0.825,-1.834 1.834,-1.834 h -0.667 c -1.009,0 -1.834,0.825 -1.834,1.834 v 15.836 c 0,1.009 0.825,1.834 1.834,1.834 h 0.667 c -1.009,0 -1.834,-0.825 -1.834,-1.834 z"
         inkscape:connector-curvature="0"
         style="opacity:0.2;fill:#ffffff" /><g
         id="g3815"><circle
           id="circle3817"
           r="1.587"
           cy="392.33801"
           cx="243.271"
           sodipodi:cx="243.271"
           sodipodi:cy="392.33801"
           sodipodi:rx="1.587"
           sodipodi:ry="1.587"
           style="fill:#f4cfa6"
           d="m 244.858,392.33801 c 0,0.87648 -0.71053,1.587 -1.587,1.587 -0.87648,0 -1.587,-0.71052 -1.587,-1.587 0,-0.87647 0.71052,-1.587 1.587,-1.587 0.87647,0 1.587,0.71053 1.587,1.587 z" /><circle
           id="circle3819"
           r="1.587"
           cy="392.33801"
           cx="248.35201"
           sodipodi:cx="248.35201"
           sodipodi:cy="392.33801"
           sodipodi:rx="1.587"
           sodipodi:ry="1.587"
           style="fill:#f4cfa6"
           d="m 249.93901,392.33801 c 0,0.87648 -0.71053,1.587 -1.587,1.587 -0.87648,0 -1.58701,-0.71052 -1.58701,-1.587 0,-0.87647 0.71053,-1.587 1.58701,-1.587 0.87647,0 1.587,0.71053 1.587,1.587 z" /><circle
           id="circle3821"
           r="1.587"
           cy="392.33801"
           cx="253.43201"
           sodipodi:cx="253.43201"
           sodipodi:cy="392.33801"
           sodipodi:rx="1.587"
           sodipodi:ry="1.587"
           style="fill:#f4cfa6"
           d="m 255.01901,392.33801 c 0,0.87648 -0.71053,1.587 -1.587,1.587 -0.87648,0 -1.587,-0.71052 -1.587,-1.587 0,-0.87647 0.71052,-1.587 1.587,-1.587 0.87647,0 1.587,0.71053 1.587,1.587 z" /><circle
           id="circle3823"
           r="1.587"
           cy="392.33801"
           cx="258.51199"
           sodipodi:cx="258.51199"
           sodipodi:cy="392.33801"
           sodipodi:rx="1.587"
           sodipodi:ry="1.587"
           style="fill:#f4cfa6"
           d="m 260.09899,392.33801 c 0,0.87648 -0.71052,1.587 -1.587,1.587 -0.87647,0 -1.587,-0.71052 -1.587,-1.587 0,-0.87647 0.71053,-1.587 1.587,-1.587 0.87648,0 1.587,0.71053 1.587,1.587 z" /><circle
           id="circle3825"
           r="1.587"
           cy="392.33801"
           cx="263.59201"
           sodipodi:cx="263.59201"
           sodipodi:cy="392.33801"
           sodipodi:rx="1.587"
           sodipodi:ry="1.587"
           style="fill:#f4cfa6"
           d="m 265.17901,392.33801 c 0,0.87648 -0.71052,1.587 -1.587,1.587 -0.87648,0 -1.587,-0.71052 -1.587,-1.587 0,-0.87647 0.71052,-1.587 1.587,-1.587 0.87648,0 1.587,0.71053 1.587,1.587 z" /><circle
           id="circle3827"
           r="1.587"
           cy="392.33801"
           cx="268.673"
           sodipodi:cx="268.673"
           sodipodi:cy="392.33801"
           sodipodi:rx="1.587"
           sodipodi:ry="1.587"
           style="fill:#f4cfa6"
           d="m 270.26,392.33801 c 0,0.87648 -0.71052,1.587 -1.587,1.587 -0.87647,0 -1.587,-0.71052 -1.587,-1.587 0,-0.87647 0.71053,-1.587 1.587,-1.587 0.87648,0 1.587,0.71053 1.587,1.587 z" /></g><path
         id="path3829"
         d="m 238.058,396.84 v 7.918 c 0,1.009 0.825,1.834 1.834,1.834 h 32.16 c 1.01,0 1.835,-0.825 1.835,-1.834 v -7.918 h -35.829 z"
         inkscape:connector-curvature="0"
         style="opacity:0.1;fill:#272525" /></g><g
       id="g3831"><circle
         id="circle3833"
         r="8.3999996"
         cy="320.89301"
         cx="217.12"
         sodipodi:cx="217.12"
         sodipodi:cy="320.89301"
         sodipodi:rx="8.3999996"
         sodipodi:ry="8.3999996"
         style="fill:#272525"
         d="m 225.51999,320.89301 c 0,4.63919 -3.7608,8.39999 -8.39999,8.39999 -4.6392,0 -8.4,-3.7608 -8.4,-8.39999 0,-4.6392 3.7608,-8.4 8.4,-8.4 4.63919,0 8.39999,3.7608 8.39999,8.4 z" /><circle
         id="circle3835"
         r="4.0960002"
         cy="320.89301"
         cx="217.12"
         sodipodi:cx="217.12"
         sodipodi:cy="320.89301"
         sodipodi:rx="4.0960002"
         sodipodi:ry="4.0960002"
         style="fill:#edc897"
         d="m 221.216,320.89301 c 0,2.26215 -1.83385,4.096 -4.096,4.096 -2.26216,0 -4.09601,-1.83385 -4.09601,-4.096 0,-2.26216 1.83385,-4.096 4.09601,-4.096 2.26215,0 4.096,1.83384 4.096,4.096 z" /><circle
         id="circle3837"
         r="3.6129999"
         cy="320.89301"
         cx="217.12"
         sodipodi:cx="217.12"
         sodipodi:cy="320.89301"
         sodipodi:rx="3.6129999"
         sodipodi:ry="3.6129999"
         style="fill:#c8a781"
         d="m 220.733,320.89301 c 0,1.9954 -1.6176,3.613 -3.613,3.613 -1.99541,0 -3.613,-1.6176 -3.613,-3.613 0,-1.99541 1.61759,-3.613 3.613,-3.613 1.9954,0 3.613,1.61759 3.613,3.613 z" /><circle
         id="circle3839"
         r="2.8080001"
         cy="320.89301"
         cx="217.12"
         sodipodi:cx="217.12"
         sodipodi:cy="320.89301"
         sodipodi:rx="2.8080001"
         sodipodi:ry="2.8080001"
         style="fill:#edc897"
         d="m 219.928,320.89301 c 0,1.55081 -1.25719,2.808 -2.808,2.808 -1.55082,0 -2.808,-1.25719 -2.808,-2.808 0,-1.55082 1.25718,-2.808 2.808,-2.808 1.55081,0 2.808,1.25718 2.808,2.808 z" /><circle
         id="circle3841"
         r="1.979"
         cy="320.89301"
         cx="217.12"
         sodipodi:cx="217.12"
         sodipodi:cy="320.89301"
         sodipodi:rx="1.979"
         sodipodi:ry="1.979"
         style="fill:#272525"
         d="m 219.099,320.89301 c 0,1.09297 -0.88603,1.979 -1.979,1.979 -1.09298,0 -1.979,-0.88603 -1.979,-1.979 0,-1.09298 0.88602,-1.979 1.979,-1.979 1.09297,0 1.979,0.88602 1.979,1.979 z" /><path
         id="path3843"
         d="m 218.011,321.02 c -0.15,-0.364 -0.616,-0.539 -0.945,-0.539 -0.329,0 -0.794,0.175 -0.945,0.539 -0.181,0.437 -0.754,3.415 -0.754,3.415 h 1.668 0.062 1.667 c 10e-4,0 -0.572,-2.979 -0.753,-3.415 z"
         inkscape:connector-curvature="0"
         style="fill:#edc897" /><circle
         id="circle3845"
         r="1.789"
         cy="324.89099"
         cx="217.097"
         sodipodi:cx="217.097"
         sodipodi:cy="324.89099"
         sodipodi:rx="1.789"
         sodipodi:ry="1.789"
         style="fill:#b98f58"
         d="m 218.886,324.89099 c 0,0.98804 -0.80096,1.789 -1.789,1.789 -0.98804,0 -1.789,-0.80096 -1.789,-1.789 0,-0.98804 0.80096,-1.789 1.789,-1.789 0.98804,0 1.789,0.80096 1.789,1.789 z" /></g><g
       id="g3847"><circle
         id="circle3849"
         r="6.0939999"
         cy="440.51801"
         cx="296.63199"
         sodipodi:cx="296.63199"
         sodipodi:cy="440.51801"
         sodipodi:rx="6.0939999"
         sodipodi:ry="6.0939999"
         style="opacity:0.6;fill:#272525"
         d="m 302.72599,440.51801 c 0,3.36562 -2.72838,6.094 -6.094,6.094 -3.36562,0 -6.094,-2.72838 -6.094,-6.094 0,-3.36563 2.72838,-6.094 6.094,-6.094 3.36562,0 6.094,2.72837 6.094,6.094 z" /><circle
         id="circle3851"
         r="6.0939999"
         cy="440.013"
         cx="296.63199"
         sodipodi:cx="296.63199"
         sodipodi:cy="440.013"
         sodipodi:rx="6.0939999"
         sodipodi:ry="6.0939999"
         style="fill:#434244"
         d="m 302.72599,440.013 c 0,3.36562 -2.72838,6.094 -6.094,6.094 -3.36562,0 -6.094,-2.72838 -6.094,-6.094 0,-3.36562 2.72838,-6.094 6.094,-6.094 3.36562,0 6.094,2.72838 6.094,6.094 z" /><circle
         id="circle3853"
         r="4.4790001"
         cy="439.76001"
         cx="296.63199"
         sodipodi:cx="296.63199"
         sodipodi:cy="439.76001"
         sodipodi:rx="4.4790001"
         sodipodi:ry="4.4790001"
         style="fill:#272525"
         d="m 301.11099,439.76001 c 0,2.47368 -2.00532,4.479 -4.479,4.479 -2.47368,0 -4.479,-2.00532 -4.479,-4.479 0,-2.47368 2.00532,-4.479 4.479,-4.479 2.47368,0 4.479,2.00532 4.479,4.479 z" /><circle
         id="circle3855"
         r="3.4949999"
         cy="439.508"
         cx="296.63199"
         sodipodi:cx="296.63199"
         sodipodi:cy="439.508"
         sodipodi:rx="3.4949999"
         sodipodi:ry="3.4949999"
         style="fill:#343333"
         d="m 300.12699,439.508 c 0,1.93023 -1.56477,3.495 -3.495,3.495 -1.93024,0 -3.495,-1.56477 -3.495,-3.495 0,-1.93024 1.56476,-3.495 3.495,-3.495 1.93023,0 3.495,1.56476 3.495,3.495 z" /><path
         id="path3857"
         d="m 290.544,439.76 c -0.004,0.084 -0.006,0.168 -0.006,0.253 0,3.365 2.728,6.094 6.094,6.094 3.366,0 6.094,-2.729 6.094,-6.094 0,-0.085 -0.003,-0.169 -0.006,-0.253 h -12.176 z"
         inkscape:connector-curvature="0"
         style="opacity:0.2;fill:#272525" /></g><g
       id="g3859"><circle
         id="circle3861"
         r="6.0939999"
         cy="426.69699"
         cx="319.987"
         sodipodi:cx="319.987"
         sodipodi:cy="426.69699"
         sodipodi:rx="6.0939999"
         sodipodi:ry="6.0939999"
         style="opacity:0.6;fill:#272525"
         d="m 326.081,426.69699 c 0,3.36562 -2.72838,6.094 -6.094,6.094 -3.36562,0 -6.094,-2.72838 -6.094,-6.094 0,-3.36562 2.72838,-6.094 6.094,-6.094 3.36562,0 6.094,2.72838 6.094,6.094 z" /><circle
         id="circle3863"
         r="6.0939999"
         cy="426.19199"
         cx="319.987"
         sodipodi:cx="319.987"
         sodipodi:cy="426.19199"
         sodipodi:rx="6.0939999"
         sodipodi:ry="6.0939999"
         style="fill:#434244"
         d="m 326.081,426.19199 c 0,3.36562 -2.72838,6.094 -6.094,6.094 -3.36562,0 -6.094,-2.72838 -6.094,-6.094 0,-3.36563 2.72838,-6.094 6.094,-6.094 3.36562,0 6.094,2.72837 6.094,6.094 z" /><circle
         id="circle3865"
         r="4.4790001"
         cy="425.939"
         cx="319.987"
         sodipodi:cx="319.987"
         sodipodi:cy="425.939"
         sodipodi:rx="4.4790001"
         sodipodi:ry="4.4790001"
         style="fill:#272525"
         d="m 324.466,425.939 c 0,2.47368 -2.00532,4.479 -4.479,4.479 -2.47368,0 -4.479,-2.00532 -4.479,-4.479 0,-2.47369 2.00532,-4.479 4.479,-4.479 2.47368,0 4.479,2.00531 4.479,4.479 z" /><circle
         id="circle3867"
         r="3.4949999"
         cy="425.68799"
         cx="319.987"
         sodipodi:cx="319.987"
         sodipodi:cy="425.68799"
         sodipodi:rx="3.4949999"
         sodipodi:ry="3.4949999"
         style="fill:#343333"
         d="m 323.482,425.68799 c 0,1.93023 -1.56477,3.495 -3.495,3.495 -1.93024,0 -3.495,-1.56477 -3.495,-3.495 0,-1.93024 1.56476,-3.495 3.495,-3.495 1.93023,0 3.495,1.56476 3.495,3.495 z" /><path
         id="path3869"
         d="m 313.899,425.939 c -0.004,0.084 -0.007,0.168 -0.007,0.253 0,3.366 2.729,6.094 6.095,6.094 3.366,0 6.094,-2.728 6.094,-6.094 0,-0.085 -0.003,-0.169 -0.006,-0.253 h -12.176 z"
         inkscape:connector-curvature="0"
         style="opacity:0.2;fill:#272525" /></g><g
       id="g3871"><circle
         id="circle3873"
         r="6.0939999"
         cy="469.38199"
         cx="295.784"
         sodipodi:cx="295.784"
         sodipodi:cy="469.38199"
         sodipodi:rx="6.0939999"
         sodipodi:ry="6.0939999"
         style="opacity:0.6;fill:#272525"
         d="m 301.878,469.38199 c 0,3.36562 -2.72838,6.094 -6.094,6.094 -3.36563,0 -6.094,-2.72838 -6.094,-6.094 0,-3.36562 2.72837,-6.094 6.094,-6.094 3.36562,0 6.094,2.72838 6.094,6.094 z" /><circle
         id="circle3875"
         r="6.0939999"
         cy="468.87701"
         cx="295.784"
         sodipodi:cx="295.784"
         sodipodi:cy="468.87701"
         sodipodi:rx="6.0939999"
         sodipodi:ry="6.0939999"
         style="fill:#434244"
         d="m 301.878,468.87701 c 0,3.36563 -2.72838,6.094 -6.094,6.094 -3.36563,0 -6.094,-2.72837 -6.094,-6.094 0,-3.36562 2.72837,-6.094 6.094,-6.094 3.36562,0 6.094,2.72838 6.094,6.094 z" /><circle
         id="circle3877"
         r="4.4790001"
         cy="468.625"
         cx="295.784"
         sodipodi:cx="295.784"
         sodipodi:cy="468.625"
         sodipodi:rx="4.4790001"
         sodipodi:ry="4.4790001"
         style="fill:#272525"
         d="m 300.263,468.625 c 0,2.47368 -2.00532,4.479 -4.479,4.479 -2.47369,0 -4.479,-2.00532 -4.479,-4.479 0,-2.47368 2.00531,-4.479 4.479,-4.479 2.47368,0 4.479,2.00532 4.479,4.479 z" /><circle
         id="circle3879"
         r="3.4949999"
         cy="468.37201"
         cx="295.784"
         sodipodi:cx="295.784"
         sodipodi:cy="468.37201"
         sodipodi:rx="3.4949999"
         sodipodi:ry="3.4949999"
         style="fill:#343333"
         d="m 299.279,468.37201 c 0,1.93023 -1.56477,3.495 -3.495,3.495 -1.93024,0 -3.495,-1.56477 -3.495,-3.495 0,-1.93024 1.56476,-3.495 3.495,-3.495 1.93023,0 3.495,1.56476 3.495,3.495 z" /><path
         id="path3881"
         d="m 289.696,468.625 c -0.004,0.083 -0.007,0.167 -0.007,0.252 0,3.366 2.729,6.094 6.094,6.094 3.366,0 6.095,-2.728 6.095,-6.094 0,-0.085 -0.003,-0.169 -0.007,-0.252 h -12.175 z"
         inkscape:connector-curvature="0"
         style="opacity:0.2;fill:#272525" /></g><g
       id="g3883"><circle
         id="circle3885"
         r="6.0939999"
         cy="455.85001"
         cx="317.59"
         sodipodi:cx="317.59"
         sodipodi:cy="455.85001"
         sodipodi:rx="6.0939999"
         sodipodi:ry="6.0939999"
         style="opacity:0.6;fill:#272525"
         d="m 323.684,455.85001 c 0,3.36562 -2.72838,6.094 -6.094,6.094 -3.36563,0 -6.094,-2.72838 -6.094,-6.094 0,-3.36563 2.72837,-6.094 6.094,-6.094 3.36562,0 6.094,2.72837 6.094,6.094 z" /><circle
         id="circle3887"
         r="6.0939999"
         cy="455.345"
         cx="317.59"
         sodipodi:cx="317.59"
         sodipodi:cy="455.345"
         sodipodi:rx="6.0939999"
         sodipodi:ry="6.0939999"
         style="fill:#434244"
         d="m 323.684,455.345 c 0,3.36562 -2.72838,6.094 -6.094,6.094 -3.36563,0 -6.094,-2.72838 -6.094,-6.094 0,-3.36562 2.72837,-6.094 6.094,-6.094 3.36562,0 6.094,2.72838 6.094,6.094 z" /><circle
         id="circle3889"
         r="4.4790001"
         cy="455.09201"
         cx="317.591"
         sodipodi:cx="317.591"
         sodipodi:cy="455.09201"
         sodipodi:rx="4.4790001"
         sodipodi:ry="4.4790001"
         style="fill:#272525"
         d="m 322.07,455.09201 c 0,2.47368 -2.00531,4.479 -4.479,4.479 -2.47368,0 -4.479,-2.00532 -4.479,-4.479 0,-2.47368 2.00532,-4.479 4.479,-4.479 2.47369,0 4.479,2.00532 4.479,4.479 z" /><circle
         id="circle3891"
         r="3.4949999"
         cy="454.84"
         cx="317.59"
         sodipodi:cx="317.59"
         sodipodi:cy="454.84"
         sodipodi:rx="3.4949999"
         sodipodi:ry="3.4949999"
         style="fill:#343333"
         d="m 321.085,454.84 c 0,1.93023 -1.56477,3.495 -3.495,3.495 -1.93024,0 -3.495,-1.56477 -3.495,-3.495 0,-1.93024 1.56476,-3.495 3.495,-3.495 1.93023,0 3.495,1.56476 3.495,3.495 z" /><path
         id="path3893"
         d="m 311.503,455.092 c -0.004,0.084 -0.007,0.168 -0.007,0.253 0,3.366 2.729,6.094 6.094,6.094 3.366,0 6.095,-2.728 6.095,-6.094 0,-0.085 -0.003,-0.169 -0.007,-0.253 h -12.175 z"
         inkscape:connector-curvature="0"
         style="opacity:0.2;fill:#272525" /></g><g
       id="g3895"><path
         id="path3897"
         d="m 244.025,414.406 c 0.011,0.268 -0.165,0.493 -0.39,0.502 l -1.432,0.059 c -0.226,0.01 -0.418,-0.202 -0.429,-0.469 l -0.022,-0.548 c -0.011,-0.268 0.165,-0.493 0.39,-0.502 l 1.432,-0.059 c 0.226,-0.009 0.419,0.202 0.43,0.469 l 0.021,0.548 z"
         inkscape:connector-curvature="0"
         style="fill:#ecd3af" /><path
         id="path3899"
         d="m 249.264,414.193 c 0.011,0.268 -0.165,0.493 -0.39,0.502 l -1.432,0.059 c -0.226,0.009 -0.418,-0.201 -0.429,-0.469 l -0.022,-0.548 c -0.011,-0.267 0.165,-0.493 0.39,-0.502 l 1.432,-0.059 c 0.225,-0.009 0.418,0.202 0.43,0.469 l 0.021,0.548 z"
         inkscape:connector-curvature="0"
         style="fill:#ecd3af" /><path
         id="path3901"
         d="m 254.503,413.98 c 0.011,0.268 -0.165,0.493 -0.39,0.503 l -1.432,0.058 c -0.225,0.01 -0.418,-0.201 -0.429,-0.469 l -0.022,-0.548 c -0.011,-0.267 0.165,-0.492 0.39,-0.502 l 1.432,-0.058 c 0.226,-0.01 0.418,0.201 0.43,0.469 l 0.021,0.547 z"
         inkscape:connector-curvature="0"
         style="fill:#ecd3af" /><path
         id="path3903"
         d="m 259.74,413.769 c 0.011,0.267 -0.164,0.492 -0.39,0.502 l -1.432,0.058 c -0.226,0.01 -0.419,-0.201 -0.43,-0.469 l -0.022,-0.548 c -0.011,-0.267 0.165,-0.492 0.39,-0.501 l 1.432,-0.059 c 0.227,-0.01 0.419,0.201 0.43,0.469 l 0.022,0.548 z"
         inkscape:connector-curvature="0"
         style="fill:#ecd3af" /><path
         id="path3905"
         d="m 264.979,413.556 c 0.011,0.267 -0.165,0.493 -0.39,0.502 l -1.432,0.058 c -0.226,0.01 -0.419,-0.201 -0.43,-0.469 l -0.022,-0.547 c -0.011,-0.268 0.164,-0.493 0.39,-0.502 l 1.433,-0.059 c 0.225,-0.009 0.418,0.201 0.429,0.469 l 0.022,0.548 z"
         inkscape:connector-curvature="0"
         style="fill:#ecd3af" /><path
         id="path3907"
         d="m 270.218,413.343 c 0.011,0.267 -0.164,0.493 -0.39,0.502 l -1.432,0.059 c -0.226,0.009 -0.419,-0.202 -0.43,-0.469 l -0.022,-0.548 c -0.011,-0.268 0.165,-0.493 0.391,-0.502 l 1.432,-0.059 c 0.225,-0.009 0.419,0.201 0.43,0.469 l 0.021,0.548 z"
         inkscape:connector-curvature="0"
         style="fill:#ecd3af" /><path
         id="path3909"
         d="m 275.206,412.497 c -0.705,0.028 -1.359,0.24 -1.921,0.585 l -34.604,1.405 c -0.586,-0.296 -1.252,-0.452 -1.955,-0.424 -2.196,0.089 -3.905,1.942 -3.815,4.139 0.089,2.195 1.942,3.904 4.139,3.815 0.798,-0.033 1.531,-0.299 2.137,-0.729 l 34.16,-1.387 c 0.638,0.377 1.388,0.581 2.184,0.549 2.196,-0.09 3.904,-1.942 3.815,-4.139 -0.091,-2.195 -1.944,-3.904 -4.14,-3.814 z"
         inkscape:connector-curvature="0"
         style="opacity:0.5;fill:#272525" /><circle
         id="circle3911"
         r="3.98"
         cy="417.707"
         cx="236.87399"
         sodipodi:cx="236.87399"
         sodipodi:cy="417.707"
         sodipodi:rx="3.98"
         sodipodi:ry="3.98"
         style="fill:#c8a781"
         d="m 240.85399,417.707 c 0,2.19809 -1.7819,3.98 -3.98,3.98 -2.19809,0 -3.98,-1.78191 -3.98,-3.98 0,-2.19809 1.78191,-3.98 3.98,-3.98 2.1981,0 3.98,1.78191 3.98,3.98 z" /><circle
         id="circle3913"
         r="3.98"
         cy="416.14099"
         cx="275.354"
         sodipodi:cx="275.354"
         sodipodi:cy="416.14099"
         sodipodi:rx="3.98"
         sodipodi:ry="3.98"
         style="fill:#c8a781"
         d="m 279.334,416.14099 c 0,2.19809 -1.7819,3.98 -3.98,3.98 -2.19809,0 -3.98,-1.78191 -3.98,-3.98 0,-2.19809 1.78191,-3.98 3.98,-3.98 2.1981,0 3.98,1.78191 3.98,3.98 z" /><path
         id="path3915"
         d="m 278.519,416.074 c 0.074,1.803 -1.342,3.338 -3.145,3.411 l -38.24,1.554 c -1.803,0.072 -3.338,-1.343 -3.412,-3.146 l -0.01,-0.254 c -0.073,-1.803 1.342,-3.338 3.146,-3.411 l 38.239,-1.553 c 1.804,-0.073 3.339,1.342 3.412,3.146 l 0.01,0.253 z"
         inkscape:connector-curvature="0"
         style="fill:#edc897" /><circle
         id="circle3917"
         r="1.5779999"
         cy="417.70801"
         cx="236.87399"
         sodipodi:cx="236.87399"
         sodipodi:cy="417.70801"
         sodipodi:rx="1.5779999"
         sodipodi:ry="1.5779999"
         style="fill:#ecd3af"
         d="m 238.45199,417.70801 c 0,0.8715 -0.70649,1.578 -1.578,1.578 -0.8715,0 -1.578,-0.7065 -1.578,-1.578 0,-0.87151 0.7065,-1.578 1.578,-1.578 0.87151,0 1.578,0.70649 1.578,1.578 z" /><circle
         id="circle3919"
         r="1.5779999"
         cy="416.14099"
         cx="275.354"
         sodipodi:cx="275.354"
         sodipodi:cy="416.14099"
         sodipodi:rx="1.5779999"
         sodipodi:ry="1.5779999"
         style="fill:#ecd3af"
         d="m 276.932,416.14099 c 0,0.87151 -0.70649,1.578 -1.578,1.578 -0.8715,0 -1.578,-0.70649 -1.578,-1.578 0,-0.8715 0.7065,-1.578 1.578,-1.578 0.87151,0 1.578,0.7065 1.578,1.578 z" /><rect
         id="rect3921"
         y="414.43799"
         x="240.67799"
         width="4.6669998"
         transform="matrix(0.9992,-0.0406,0.0406,0.9992,-16.7361,10.2089)"
         height="5.5359998"
         style="fill:#9c7d5d" /><rect
         id="rect3923"
         y="414.43799"
         x="241.799"
         width="2.425"
         transform="matrix(0.9992,-0.0407,0.0407,0.9992,-16.769,10.2299)"
         height="5.5359998"
         style="fill:#352618" /><rect
         id="rect3925"
         y="417.86499"
         x="241.18401"
         width="3.7509999"
         transform="matrix(0.9992,-0.0406,0.0406,0.9992,-16.7905,10.2165)"
         height="1.007"
         style="fill:#e5bf91" /><rect
         id="rect3927"
         y="417.04501"
         x="240.692"
         width="4.6659999"
         transform="matrix(0.9992,-0.0406,0.0406,0.9992,-16.7517,10.2108)"
         height="1.007"
         style="fill:#e2c1a4" /><rect
         id="rect3929"
         y="414.22501"
         x="245.91701"
         width="4.6669998"
         transform="matrix(0.9992,-0.0406,0.0406,0.9992,-16.7231,10.4214)"
         height="5.5359998"
         style="fill:#9c7d5d" /><rect
         id="rect3931"
         y="414.22501"
         x="247.03799"
         width="2.425"
         transform="matrix(0.9992,-0.0407,0.0407,0.9992,-16.756,10.4428)"
         height="5.5359998"
         style="fill:#352618" /><rect
         id="rect3933"
         y="417.65201"
         x="246.422"
         width="3.7509999"
         transform="matrix(0.9992,-0.0406,0.0406,0.9992,-16.7775,10.429)"
         height="1.007"
         style="fill:#e5bf91" /><rect
         id="rect3935"
         y="416.83301"
         x="245.931"
         width="4.6669998"
         transform="matrix(0.9992,-0.0406,0.0406,0.9992,-16.737,10.4223)"
         height="1.007"
         style="fill:#e2c1a4" /><rect
         id="rect3937"
         y="414.01199"
         x="251.155"
         width="4.6669998"
         transform="matrix(0.9992,-0.0406,0.0406,0.9992,-16.7101,10.6339)"
         height="5.5359998"
         style="fill:#9c7d5d" /><rect
         id="rect3939"
         y="414.01199"
         x="252.27699"
         width="2.425"
         transform="matrix(0.9992,-0.0411,0.0411,0.9992,-16.9064,10.7645)"
         height="5.5359998"
         style="fill:#352618" /><rect
         id="rect3941"
         y="417.439"
         x="251.66"
         width="3.7520001"
         transform="matrix(0.9992,-0.0406,0.0406,0.9992,-16.7624,10.6402)"
         height="1.008"
         style="fill:#e5bf91" /><rect
         id="rect3943"
         y="416.62"
         x="251.16901"
         width="4.6669998"
         transform="matrix(0.9992,-0.0406,0.0406,0.9992,-16.7241,10.6347)"
         height="1.007"
         style="fill:#e2c1a4" /><rect
         id="rect3945"
         y="413.79901"
         x="256.39401"
         width="4.6669998"
         transform="matrix(0.9992,-0.0406,0.0406,0.9992,-16.6972,10.8464)"
         height="5.5359998"
         style="fill:#9c7d5d" /><rect
         id="rect3947"
         y="413.79999"
         x="257.51501"
         width="2.424"
         transform="matrix(0.9992,-0.0407,0.0407,0.9992,-16.7367,10.8731)"
         height="5.5359998"
         style="fill:#352618" /><rect
         id="rect3949"
         y="417.22699"
         x="256.89899"
         width="3.75"
         transform="matrix(0.9992,-0.0406,0.0406,0.9992,-16.7559,10.8571)"
         height="1.007"
         style="fill:#e5bf91" /><rect
         id="rect3951"
         y="416.40701"
         x="256.40799"
         width="4.6659999"
         transform="matrix(0.9992,-0.0406,0.0406,0.9992,-16.7128,10.8484)"
         height="1.007"
         style="fill:#e2c1a4" /><rect
         id="rect3953"
         y="413.58701"
         x="261.63199"
         width="4.6659999"
         transform="matrix(0.9992,-0.0406,0.0406,0.9992,-16.6877,11.0612)"
         height="5.5359998"
         style="fill:#9c7d5d" /><rect
         id="rect3955"
         y="413.58701"
         x="262.75299"
         width="2.425"
         transform="matrix(0.9992,-0.0407,0.0407,0.9992,-16.717,11.0815)"
         height="5.5359998"
         style="fill:#352618" /><rect
         id="rect3957"
         y="417.01401"
         x="262.13699"
         width="3.7509999"
         transform="matrix(0.9992,-0.0406,0.0406,0.9992,-16.7386,11.0667)"
         height="1.007"
         style="fill:#e5bf91" /><rect
         id="rect3959"
         y="416.194"
         x="261.646"
         width="4.6669998"
         transform="matrix(0.9992,-0.0404,0.0404,0.9992,-16.6133,11.001)"
         height="1.007"
         style="fill:#e2c1a4" /><rect
         id="rect3961"
         y="413.37399"
         x="266.871"
         width="4.6659999"
         transform="matrix(0.9992,-0.0404,0.0404,0.9992,-16.5901,11.214)"
         height="5.5359998"
         style="fill:#9c7d5d" /><rect
         id="rect3963"
         y="413.37399"
         x="267.991"
         width="2.425"
         transform="matrix(0.9992,-0.0407,0.0407,0.9992,-16.7041,11.2944)"
         height="5.5359998"
         style="fill:#352618" /><rect
         id="rect3965"
         y="416.80099"
         x="267.375"
         width="3.7509999"
         transform="matrix(0.9992,-0.0406,0.0406,0.9992,-16.7257,11.2793)"
         height="1.007"
         style="fill:#e5bf91" /><rect
         id="rect3967"
         y="415.98199"
         x="266.88501"
         width="4.6659999"
         transform="matrix(0.9992,-0.0404,0.0404,0.9992,-16.6039,11.2148)"
         height="1.006"
         style="fill:#e2c1a4" /><path
         id="path3969"
         d="m 232.896,417.8 c 0,0.022 0,0.046 0.001,0.068 0.089,2.196 1.942,3.905 4.139,3.816 0.798,-0.032 1.531,-0.299 2.137,-0.729 l 34.16,-1.387 c 0.638,0.377 1.388,0.582 2.184,0.55 2.196,-0.09 3.904,-1.942 3.815,-4.139 -10e-4,-0.022 -0.004,-0.044 -0.005,-0.065 l -46.431,1.886 z"
         inkscape:connector-curvature="0"
         style="opacity:0.2;fill:#272525" /></g><g
       id="g3971"><path
         id="path3973"
         d="m 279.704,441.013 c 0,0 1.93,-1.771 1.93,-4.528 0,-2.914 -2.993,-4.41 -2.993,-4.41 H 233.6 c 0,0 -2.992,1.496 -2.992,4.41 0,2.757 1.929,4.528 1.929,4.528 h 47.167 z"
         inkscape:connector-curvature="0"
         style="opacity:0.5;fill:#272525" /><path
         id="path3975"
         d="m 279.704,440.679 c 0,0 1.93,-1.771 1.93,-4.527 0,-2.914 -2.993,-4.41 -2.993,-4.41 H 233.6 c 0,0 -2.992,1.496 -2.992,4.41 0,2.756 1.929,4.527 1.929,4.527 h 47.167 z"
         inkscape:connector-curvature="0"
         style="fill:#edc897" /><path
         id="path3977"
         d="m 230.608,436.151 c 0,2.756 1.929,4.527 1.929,4.527 h 6.476 c 0.6,-1.262 1.124,-2.83 1.124,-4.469 0,-1.542 -0.439,-3.126 -0.964,-4.469 H 233.6 c 0,10e-4 -2.992,1.497 -2.992,4.411 z"
         inkscape:connector-curvature="0"
         style="fill:#e5bf91" /><circle
         id="circle3979"
         r="3.4649999"
         cy="436.694"
         cx="235.549"
         sodipodi:cx="235.549"
         sodipodi:cy="436.694"
         sodipodi:rx="3.4649999"
         sodipodi:ry="3.4649999"
         style="opacity:0.3;fill:#272525"
         d="m 239.014,436.694 c 0,1.91367 -1.55134,3.465 -3.465,3.465 -1.91367,0 -3.465,-1.55133 -3.465,-3.465 0,-1.91367 1.55133,-3.465 3.465,-3.465 1.91366,0 3.465,1.55133 3.465,3.465 z" /><circle
         id="circle3981"
         r="3.4649999"
         cy="436.17099"
         cx="235.549"
         sodipodi:cx="235.549"
         sodipodi:cy="436.17099"
         sodipodi:rx="3.4649999"
         sodipodi:ry="3.4649999"
         style="fill:#f9c98f"
         d="m 239.014,436.17099 c 0,1.91367 -1.55134,3.465 -3.465,3.465 -1.91367,0 -3.465,-1.55133 -3.465,-3.465 0,-1.91367 1.55133,-3.465 3.465,-3.465 1.91366,0 3.465,1.55133 3.465,3.465 z" /><rect
         id="rect3983"
         y="435.67899"
         x="232.77299"
         width="5.552"
         height="0.98400003"
         style="fill:#b98f58" /><path
         id="path3985"
         d="m 281.634,436.151 c 0,2.756 -1.93,4.527 -1.93,4.527 h -6.476 c -0.601,-1.262 -1.124,-2.83 -1.124,-4.469 0,-1.542 0.438,-3.126 0.964,-4.469 h 5.572 c 0.001,10e-4 2.994,1.497 2.994,4.411 z"
         inkscape:connector-curvature="0"
         style="fill:#e5bf91" /><circle
         id="circle3987"
         r="3.4649999"
         cy="436.694"
         cx="276.69101"
         sodipodi:cx="276.69101"
         sodipodi:cy="436.694"
         sodipodi:rx="3.4649999"
         sodipodi:ry="3.4649999"
         style="opacity:0.3;fill:#272525"
         d="m 280.15601,436.694 c 0,1.91367 -1.55133,3.465 -3.465,3.465 -1.91367,0 -3.465,-1.55133 -3.465,-3.465 0,-1.91367 1.55133,-3.465 3.465,-3.465 1.91367,0 3.465,1.55133 3.465,3.465 z" /><circle
         id="circle3989"
         r="3.4649999"
         cy="436.17099"
         cx="276.69101"
         sodipodi:cx="276.69101"
         sodipodi:cy="436.17099"
         sodipodi:rx="3.4649999"
         sodipodi:ry="3.4649999"
         style="fill:#f9c98f"
         d="m 280.15601,436.17099 c 0,1.91367 -1.55133,3.465 -3.465,3.465 -1.91367,0 -3.465,-1.55133 -3.465,-3.465 0,-1.91367 1.55133,-3.465 3.465,-3.465 1.91367,0 3.465,1.55133 3.465,3.465 z" /><rect
         id="rect3991"
         y="435.67899"
         x="273.91599"
         width="5.552"
         height="0.98400003"
         style="fill:#b98f58" /><path
         id="path3993"
         d="m 230.609,436.21 c 0.027,2.722 1.928,4.469 1.928,4.469 h 47.167 c 0,0 1.9,-1.747 1.928,-4.469 h -51.023 z"
         inkscape:connector-curvature="0"
         style="opacity:0.1;fill:#272525" /></g><g
       id="g3995"><circle
         id="circle3997"
         r="3.7390001"
         cy="19.198999"
         cx="243.597"
         sodipodi:cx="243.597"
         sodipodi:cy="19.198999"
         sodipodi:rx="3.7390001"
         sodipodi:ry="3.7390001"
         style="fill:#edc897"
         d="m 247.336,19.198999 c 0,2.064993 -1.67401,3.739 -3.739,3.739 -2.06499,0 -3.739,-1.674007 -3.739,-3.739 0,-2.064992 1.67401,-3.739 3.739,-3.739 2.06499,0 3.739,1.674008 3.739,3.739 z" /><polygon
         id="polygon3999"
         points="245.08,21.654 242.114,21.654 240.632,19.086 246.563,19.086 "
         style="opacity:0.5;fill:#272525" /><polygon
         id="polygon4001"
         points="244.924,21.353 242.27,21.353 240.943,19.055 246.251,19.055 "
         style="fill:#edc897" /><path
         id="path4003"
         d="m 243.598,22.938 c 2.064,0 3.738,-1.674 3.738,-3.739 h -7.477 c 0,2.065 1.674,3.739 3.739,3.739 z"
         inkscape:connector-curvature="0"
         style="opacity:0.1;fill:#272525" /><ellipse
         id="ellipse4005"
         ry="1.888"
         rx="1.725"
         cy="18.554001"
         cx="243.597"
         sodipodi:cx="243.597"
         sodipodi:cy="18.554001"
         sodipodi:rx="1.725"
         sodipodi:ry="1.888"
         style="opacity:0.5;fill:#272525"
         d="m 245.322,18.554001 c 0,1.042713 -0.77231,1.888 -1.725,1.888 -0.95269,0 -1.725,-0.845287 -1.725,-1.888 0,-1.042714 0.77231,-1.888 1.725,-1.888 0.95269,0 1.725,0.845286 1.725,1.888 z" /></g><g
       id="g4007"><circle
         id="circle4009"
         r="3.7390001"
         cy="19.198999"
         cx="269.07401"
         sodipodi:cx="269.07401"
         sodipodi:cy="19.198999"
         sodipodi:rx="3.7390001"
         sodipodi:ry="3.7390001"
         style="fill:#edc897"
         d="m 272.81301,19.198999 c 0,2.064993 -1.67401,3.739 -3.739,3.739 -2.065,0 -3.739,-1.674007 -3.739,-3.739 0,-2.064992 1.674,-3.739 3.739,-3.739 2.06499,0 3.739,1.674008 3.739,3.739 z" /><polygon
         id="polygon4011"
         points="270.557,21.654 267.591,21.654 266.108,19.086 272.039,19.086 "
         style="opacity:0.5;fill:#272525" /><polygon
         id="polygon4013"
         points="270.4,21.353 267.746,21.353 266.42,19.055 271.728,19.055 "
         style="fill:#edc897" /><path
         id="path4015"
         d="m 269.074,22.938 c 2.064,0 3.738,-1.674 3.738,-3.739 h -7.478 c 10e-4,2.065 1.675,3.739 3.74,3.739 z"
         inkscape:connector-curvature="0"
         style="opacity:0.1;fill:#272525" /><ellipse
         id="ellipse4017"
         ry="1.888"
         rx="1.725"
         cy="18.554001"
         cx="269.07401"
         sodipodi:cx="269.07401"
         sodipodi:cy="18.554001"
         sodipodi:rx="1.725"
         sodipodi:ry="1.888"
         style="opacity:0.5;fill:#272525"
         d="m 270.79901,18.554001 c 0,1.042713 -0.77231,1.888 -1.725,1.888 -0.9527,0 -1.725,-0.845287 -1.725,-1.888 0,-1.042714 0.7723,-1.888 1.725,-1.888 0.95269,0 1.725,0.845286 1.725,1.888 z" /></g><g
       id="g4019"><circle
         id="circle4021"
         r="3.7390001"
         cy="39.271"
         cx="243.681"
         sodipodi:cx="243.681"
         sodipodi:cy="39.271"
         sodipodi:rx="3.7390001"
         sodipodi:ry="3.7390001"
         style="fill:#edc897"
         d="m 247.42,39.271 c 0,2.064993 -1.67401,3.739 -3.739,3.739 -2.06499,0 -3.739,-1.674007 -3.739,-3.739 0,-2.064993 1.67401,-3.739 3.739,-3.739 2.06499,0 3.739,1.674007 3.739,3.739 z" /><polygon
         id="polygon4023"
         points="245.164,41.728 242.198,41.728 240.715,39.159 246.646,39.159 "
         style="opacity:0.5;fill:#272525" /><polygon
         id="polygon4025"
         points="245.008,41.425 242.354,41.425 241.027,39.127 246.334,39.127 "
         style="fill:#edc897" /><path
         id="path4027"
         d="m 243.681,43.01 c 2.064,0 3.739,-1.674 3.739,-3.739 h -7.478 c 0,2.065 1.674,3.739 3.739,3.739 z"
         inkscape:connector-curvature="0"
         style="opacity:0.1;fill:#272525" /><ellipse
         id="ellipse4029"
         ry="1.887"
         rx="1.725"
         cy="38.626999"
         cx="243.681"
         sodipodi:cx="243.681"
         sodipodi:cy="38.626999"
         sodipodi:rx="1.725"
         sodipodi:ry="1.887"
         style="opacity:0.5;fill:#272525"
         d="m 245.406,38.626999 c 0,1.042161 -0.77231,1.887 -1.725,1.887 -0.95269,0 -1.725,-0.844839 -1.725,-1.887 0,-1.042161 0.77231,-1.887 1.725,-1.887 0.95269,0 1.725,0.844839 1.725,1.887 z" /></g><g
       id="g4031"><circle
         id="circle4033"
         r="3.7390001"
         cy="39.271"
         cx="268.991"
         sodipodi:cx="268.991"
         sodipodi:cy="39.271"
         sodipodi:rx="3.7390001"
         sodipodi:ry="3.7390001"
         style="fill:#edc897"
         d="m 272.73,39.271 c 0,2.064993 -1.67401,3.739 -3.739,3.739 -2.065,0 -3.739,-1.674007 -3.739,-3.739 0,-2.064993 1.674,-3.739 3.739,-3.739 2.06499,0 3.739,1.674007 3.739,3.739 z" /><polygon
         id="polygon4035"
         points="270.474,41.728 267.508,41.728 266.024,39.159 271.956,39.159 "
         style="opacity:0.5;fill:#272525" /><polygon
         id="polygon4037"
         points="270.317,41.425 267.663,41.425 266.337,39.127 271.645,39.127 "
         style="fill:#edc897" /><path
         id="path4039"
         d="m 268.99,43.01 c 2.064,0 3.739,-1.674 3.739,-3.739 h -7.478 c 0.001,2.065 1.675,3.739 3.739,3.739 z"
         inkscape:connector-curvature="0"
         style="opacity:0.1;fill:#272525" /><ellipse
         id="ellipse4041"
         ry="1.887"
         rx="1.726"
         cy="38.626999"
         cx="268.98999"
         sodipodi:cx="268.98999"
         sodipodi:cy="38.626999"
         sodipodi:rx="1.726"
         sodipodi:ry="1.887"
         style="opacity:0.5;fill:#272525"
         d="m 270.71599,38.626999 c 0,1.042161 -0.77276,1.887 -1.726,1.887 -0.95324,0 -1.726,-0.844839 -1.726,-1.887 0,-1.042161 0.77276,-1.887 1.726,-1.887 0.95324,0 1.726,0.844839 1.726,1.887 z" /></g><g
       id="g4043"><circle
         id="circle4045"
         r="3.7390001"
         cy="59.693001"
         cx="243.929"
         sodipodi:cx="243.929"
         sodipodi:cy="59.693001"
         sodipodi:rx="3.7390001"
         sodipodi:ry="3.7390001"
         style="fill:#edc897"
         d="m 247.668,59.693001 c 0,2.064993 -1.67401,3.739 -3.739,3.739 -2.06499,0 -3.739,-1.674007 -3.739,-3.739 0,-2.064993 1.67401,-3.739 3.739,-3.739 2.06499,0 3.739,1.674007 3.739,3.739 z" /><polygon
         id="polygon4047"
         points="245.412,62.149 242.446,62.149 240.963,59.581 246.895,59.581 "
         style="opacity:0.5;fill:#272525" /><polygon
         id="polygon4049"
         points="245.256,61.848 242.602,61.848 241.275,59.549 246.583,59.549 "
         style="fill:#edc897" /><path
         id="path4051"
         d="m 243.929,63.432 c 2.064,0 3.738,-1.674 3.738,-3.739 h -7.478 c 0.001,2.065 1.675,3.739 3.74,3.739 z"
         inkscape:connector-curvature="0"
         style="opacity:0.1;fill:#272525" /><ellipse
         id="ellipse4053"
         ry="1.887"
         rx="1.725"
         cy="59.049"
         cx="243.929"
         sodipodi:cx="243.929"
         sodipodi:cy="59.049"
         sodipodi:rx="1.725"
         sodipodi:ry="1.887"
         style="opacity:0.5;fill:#272525"
         d="m 245.654,59.049 c 0,1.042161 -0.77231,1.887 -1.725,1.887 -0.95269,0 -1.725,-0.844839 -1.725,-1.887 0,-1.042162 0.77231,-1.887 1.725,-1.887 0.95269,0 1.725,0.844838 1.725,1.887 z" /></g><g
       id="g4055"><circle
         id="circle4057"
         r="3.7390001"
         cy="59.693001"
         cx="268.742"
         sodipodi:cx="268.742"
         sodipodi:cy="59.693001"
         sodipodi:rx="3.7390001"
         sodipodi:ry="3.7390001"
         style="fill:#edc897"
         d="m 272.481,59.693001 c 0,2.064993 -1.674,3.739 -3.739,3.739 -2.06499,0 -3.739,-1.674007 -3.739,-3.739 0,-2.064993 1.67401,-3.739 3.739,-3.739 2.065,0 3.739,1.674007 3.739,3.739 z" /><polygon
         id="polygon4059"
         points="270.225,62.149 267.259,62.149 265.776,59.581 271.708,59.581 "
         style="opacity:0.5;fill:#272525" /><polygon
         id="polygon4061"
         points="270.069,61.848 267.415,61.848 266.088,59.549 271.396,59.549 "
         style="fill:#edc897" /><path
         id="path4063"
         d="m 268.742,63.432 c 2.064,0 3.738,-1.674 3.738,-3.739 h -7.478 c 10e-4,2.065 1.675,3.739 3.74,3.739 z"
         inkscape:connector-curvature="0"
         style="opacity:0.1;fill:#272525" /><ellipse
         id="ellipse4065"
         ry="1.887"
         rx="1.726"
         cy="59.049"
         cx="268.742"
         sodipodi:cx="268.742"
         sodipodi:cy="59.049"
         sodipodi:rx="1.726"
         sodipodi:ry="1.887"
         style="opacity:0.5;fill:#272525"
         d="m 270.468,59.049 c 0,1.042161 -0.77275,1.887 -1.726,1.887 -0.95324,0 -1.726,-0.844839 -1.726,-1.887 0,-1.042162 0.77276,-1.887 1.726,-1.887 0.95325,0 1.726,0.844838 1.726,1.887 z" /></g><path
       id="path4067"
       stroke-miterlimit="10"
       d="m 262.582,79.549 c -0.228,-2.624 -0.195,-5.833 -0.195,-5.833 0,0 0.234,-7.047 -0.235,-8.378 -0.379,-1.075 -1.79,-3.069 -3.445,-3.954 -0.232,-0.124 -0.522,-0.97 -0.846,-1.241 -0.325,-0.272 -0.557,-0.437 -1.108,-0.437 -0.552,0 -0.784,0.165 -1.108,0.437 -0.324,0.271 -0.614,1.117 -0.846,1.241 -1.656,0.885 -3.066,2.879 -3.445,3.954 -0.47,1.331 -0.235,8.378 -0.235,8.378 0,0 0.032,3.209 -0.195,5.833 -0.387,4.462 -1.886,7.77 -1.64,8.103 0.385,0.521 1.793,0.721 2.419,0.643 0.626,-0.079 2.241,-0.688 2.515,-0.492 0.274,0.196 1.574,1.808 2.547,1.808 0.971,0 2.25,-1.612 2.525,-1.808 0.273,-0.195 1.888,0.414 2.514,0.492 0.627,0.078 2.035,-0.121 2.42,-0.643 0.244,-0.333 -1.255,-3.641 -1.642,-8.103 z"
       inkscape:connector-curvature="0"
       style="fill:none;stroke:#e1dcd8;stroke-width:0.3335;stroke-miterlimit:10" /><polygon
       id="polygon4069"
       points="244.658,58.505 246.222,90.479 242.615,432.556 243.45,432.564 247.056,90.488 245.492,58.464 "
       style="fill:#bbbcbf" /><polygon
       id="polygon4071"
       points="247.792,432.13 250.854,90.506 244.649,38.278 245.381,38.191 251.591,90.492 248.528,432.137 "
       style="fill:#bbbcbf" /><polygon
       id="polygon4073"
       points="253.241,432.468 254.61,90.518 244.734,17.687 245.282,17.613 255.159,90.487 253.793,432.47 "
       style="fill:#bbbcbf" /><polygon
       id="polygon4075"
       points="267.065,58.532 266.168,90.495 268.937,432.669 269.232,432.667 266.464,90.493 267.361,58.541 "
       style="fill:#bbbcbf" /><polygon
       id="polygon4077"
       points="258.946,431.799 258.952,90.521 267.831,17.682 267.386,17.628 258.508,90.488 258.498,431.799 "
       style="fill:#bbbcbf" /><polygon
       id="polygon4079"
       points="264.335,432.895 262.394,90.498 267.641,38.067 267.278,38.031 262.03,90.482 263.971,432.896 "
       style="fill:#bbbcbf" /><g
       id="g4081"><circle
         id="circle4083"
         r="1.725"
         cy="17.843"
         cx="243.597"
         sodipodi:cx="243.597"
         sodipodi:cy="17.843"
         sodipodi:rx="1.725"
         sodipodi:ry="1.725"
         style="fill:#ecd3af"
         d="m 245.322,17.843 c 0,0.952692 -0.77231,1.725 -1.725,1.725 -0.95269,0 -1.725,-0.772308 -1.725,-1.725 0,-0.952691 0.77231,-1.725 1.725,-1.725 0.95269,0 1.725,0.772309 1.725,1.725 z" /><path
         id="path4085"
         d="m 243.598,19.568 c 0.953,0 1.725,-0.772 1.725,-1.726 h -3.451 c 0,0.954 0.773,1.726 1.726,1.726 z"
         inkscape:connector-curvature="0"
         style="opacity:0.1;fill:#272525" /></g><g
       id="g4087"><circle
         id="circle4089"
         r="1.725"
         cy="17.843"
         cx="269.07401"
         sodipodi:cx="269.07401"
         sodipodi:cy="17.843"
         sodipodi:rx="1.725"
         sodipodi:ry="1.725"
         style="fill:#ecd3af"
         d="m 270.79901,17.843 c 0,0.952692 -0.77231,1.725 -1.725,1.725 -0.9527,0 -1.725,-0.772308 -1.725,-1.725 0,-0.952691 0.7723,-1.725 1.725,-1.725 0.95269,0 1.725,0.772309 1.725,1.725 z" /><path
         id="path4091"
         d="m 269.074,19.568 c 0.952,0 1.725,-0.772 1.725,-1.726 h -3.45 c 0,0.954 0.772,1.726 1.725,1.726 z"
         inkscape:connector-curvature="0"
         style="opacity:0.1;fill:#272525" /></g><g
       id="g4093"><circle
         id="circle4095"
         r="1.725"
         cy="37.916"
         cx="243.681"
         sodipodi:cx="243.681"
         sodipodi:cy="37.916"
         sodipodi:rx="1.725"
         sodipodi:ry="1.725"
         style="fill:#ecd3af"
         d="m 245.406,37.916 c 0,0.952692 -0.77231,1.725 -1.725,1.725 -0.95269,0 -1.725,-0.772308 -1.725,-1.725 0,-0.952691 0.77231,-1.725 1.725,-1.725 0.95269,0 1.725,0.772309 1.725,1.725 z" /><path
         id="path4097"
         d="m 243.681,39.642 c 0.953,0 1.725,-0.772 1.725,-1.726 h -3.45 c 0,0.953 0.772,1.726 1.725,1.726 z"
         inkscape:connector-curvature="0"
         style="opacity:0.1;fill:#272525" /></g><g
       id="g4099"><circle
         id="circle4101"
         r="1.726"
         cy="37.916"
         cx="268.98999"
         sodipodi:cx="268.98999"
         sodipodi:cy="37.916"
         sodipodi:rx="1.726"
         sodipodi:ry="1.726"
         style="fill:#ecd3af"
         d="m 270.71599,37.916 c 0,0.953244 -0.77276,1.726 -1.726,1.726 -0.95324,0 -1.726,-0.772756 -1.726,-1.726 0,-0.953243 0.77276,-1.726 1.726,-1.726 0.95324,0 1.726,0.772757 1.726,1.726 z" /><path
         id="path4103"
         d="m 268.99,39.642 c 0.953,0 1.726,-0.772 1.726,-1.726 h -3.451 c 0,0.953 0.772,1.726 1.725,1.726 z"
         inkscape:connector-curvature="0"
         style="opacity:0.1;fill:#272525" /></g><g
       id="g4105"><circle
         id="circle4107"
         r="1.725"
         cy="58.338001"
         cx="243.929"
         sodipodi:cx="243.929"
         sodipodi:cy="58.338001"
         sodipodi:rx="1.725"
         sodipodi:ry="1.725"
         style="fill:#ecd3af"
         d="m 245.654,58.338001 c 0,0.952691 -0.77231,1.725 -1.725,1.725 -0.95269,0 -1.725,-0.772309 -1.725,-1.725 0,-0.952691 0.77231,-1.725 1.725,-1.725 0.95269,0 1.725,0.772309 1.725,1.725 z" /><path
         id="path4109"
         d="m 243.929,60.063 c 0.952,0 1.725,-0.772 1.725,-1.726 h -3.451 c 0.001,0.954 0.773,1.726 1.726,1.726 z"
         inkscape:connector-curvature="0"
         style="opacity:0.1;fill:#272525" /></g><g
       id="g4111"><circle
         id="circle4113"
         r="1.726"
         cy="58.338001"
         cx="268.742"
         sodipodi:cx="268.742"
         sodipodi:cy="58.338001"
         sodipodi:rx="1.726"
         sodipodi:ry="1.726"
         style="fill:#ecd3af"
         d="m 270.468,58.338001 c 0,0.953244 -0.77275,1.726 -1.726,1.726 -0.95324,0 -1.726,-0.772756 -1.726,-1.726 0,-0.953243 0.77276,-1.726 1.726,-1.726 0.95325,0 1.726,0.772757 1.726,1.726 z" /><path
         id="path4115"
         d="m 268.742,60.063 c 0.953,0 1.726,-0.772 1.726,-1.726 h -3.451 c 0,0.954 0.772,1.726 1.725,1.726 z"
         inkscape:connector-curvature="0"
         style="opacity:0.1;fill:#272525" /></g><g
       id="g4117"><circle
         id="circle4119"
         r="1.1"
         cy="61.146999"
         cx="256.75201"
         sodipodi:cx="256.75201"
         sodipodi:cy="61.146999"
         sodipodi:rx="1.1"
         sodipodi:ry="1.1"
         style="fill:#edc897"
         d="m 257.85201,61.146999 c 0,0.607514 -0.49248,1.1 -1.1,1.1 -0.60751,0 -1.1,-0.492486 -1.1,-1.1 0,-0.607513 0.49249,-1.1 1.1,-1.1 0.60752,0 1.1,0.492487 1.1,1.1 z" /><path
         id="path4121"
         d="m 256.752,62.248 c 0.607,0 1.1,-0.493 1.1,-1.101 h -2.201 c 10e-4,0.608 0.494,1.101 1.101,1.101 z"
         inkscape:connector-curvature="0"
         style="opacity:0.2;fill:#272525" /></g><g
       id="g4123"><circle
         id="circle4125"
         r="1.101"
         cy="87.223"
         cx="256.75201"
         sodipodi:cx="256.75201"
         sodipodi:cy="87.223"
         sodipodi:rx="1.101"
         sodipodi:ry="1.101"
         style="fill:#edc897"
         d="m 257.85301,87.223 c 0,0.608065 -0.49293,1.101 -1.101,1.101 -0.60806,0 -1.101,-0.492935 -1.101,-1.101 0,-0.608066 0.49294,-1.101 1.101,-1.101 0.60807,0 1.101,0.492934 1.101,1.101 z" /><path
         id="path4127"
         d="m 256.752,88.323 c 0.607,0 1.1,-0.493 1.1,-1.101 h -2.201 c 0,0.609 0.494,1.101 1.101,1.101 z"
         inkscape:connector-curvature="0"
         style="opacity:0.2;fill:#272525" /></g></g></svg>