<?xml version="1.0" ?><!DOCTYPE svg  PUBLIC '-//W3C//DTD SVG 1.1//EN'  'http://www.w3.org/Graphics/SVG/1.1/DTD/svg11.dtd'><svg enable-background="new 0 0 512 512" height="512px" id="Layer_1" version="1.1" viewBox="0 0 512 512" width="512px" xml:space="preserve" xmlns="http://www.w3.org/2000/svg" xmlns:xlink="http://www.w3.org/1999/xlink"><g><path d="M243.048,323.716c0,0-1.919,6.567-11.033,3.655c-6.689-2.138-9.759-12.704-10.688-22.066   c-0.896-9.033-1.688-18.175-8.964-19.101c-13.77-1.754-18.327,20.93-18.619,33.65c-0.62,27.1,12.986,42.892,12.165,65.861   c-0.58,16.196-3.958,20.127-10.509,33.573c-5.702,11.703-12.272,28.1-10.592,42.804c1.766,15.465,7.554,24.762,18.114,33.801   c7.58,6.488,19.849,12.617,52.848,11.951c28.101-0.567,53.89-0.154,66.853-24.65c8.277-15.636,3.686-36.56,2.484-41.701   c-3.992-17.09-19.652-40.684-18.916-49.615c1.264-15.354,11.416-18.785,11.33-44.372c-0.068-20.756-13.203-23.63-17.119-21.548   c-9.014,4.791-0.951,19.829-16.463,26.443c-4.688,2-10.266,1.563-11.363,0.074c-0.662-0.898-1.256-1.936-1.738-3.659   c-0.354-1.267-1.623-1.757-1.623-1.757L243.048,323.716z" fill="#272525"/><path d="M243.003,342.075c0,0-7.565-9.532-11.955-4.971c-5.529,5.746,4.835,11.842,1.05,38.306   c-3.912,27.343-10.965,29.384-10.875,47.142c0.088,17.592,11.77,19.967,12.933,19.967s35.21,0.065,48.911,0.065   c7.861,0,15.377,6.33,16.328,18.948c0.875,11.604-4.115,24.652-9.715,29.602c-1.215,1.073-1.789,3.705-0.385,5.767   s3.795,2.767,7.789,1.147c4.416-1.789,24.582-9.903,23.451-36.619c-0.664-15.621-4.691-26.027-9.107-35.152   c-6.105-12.613-12.641-23.891-12.113-33.293c0.264-4.711,0.465-8.153,3.459-14.594c3.947-8.494,8.211-18.04,8.061-27.865   c-0.225-14.761-4.563-17.685-6.58-16.884c-1.74,0.69-0.656,4.019-2.43,11.149c-1.48,5.963-9.078,13.634-15.969,15.617   c-12.24,3.521-16.627-0.414-16.627-0.414L243.003,342.075z" fill="#A6A8AA"/><path d="M243.717,341.944c0,0-7.595-9.51-12.001-4.959c-5.551,5.732,4.854,11.814,1.053,38.218   c-3.926,27.278-11.007,29.314-10.917,47.032c0.089,17.551,11.618,19.676,12.785,19.676c1.167,0,34.325,0,48.081,0   c9.16,0,16.652,7.229,17.285,19.598c0.592,11.594-3.959,24.922-9.582,29.859c-1.221,1.071-1.688,3.383-0.279,5.439   c1.41,2.058,3.855,2.363,7.865,0.749c4.432-1.784,24.678-9.881,23.541-36.535c-0.666-15.585-4.711-25.967-9.145-35.069   c-6.127-12.584-12.688-23.837-12.158-33.217c0.266-4.7,0.467-8.134,3.473-14.561c3.961-8.474,8.242-17.997,8.092-27.8   c-0.227-14.727-5.828-17.917-7.854-17.118c-1.746,0.688-1.078,4.279-2.855,11.394c-1.488,5.95-7.447,13.606-14.367,15.585   c-12.287,3.514-16.689-0.414-16.689-0.414L243.717,341.944z" fill="#F3F3F3"/><g><path d="M235.286,409.424v3.734c-1.161,0.396-2,1.511-2,2.828s0.838,2.433,2,2.828v3.782h25.091v-3.781    c1.162-0.396,2-1.512,2-2.829s-0.838-2.433-2-2.828v-3.734H235.286z" fill="#6D6E70"/><path d="M235.76,409.424v3.415c-1.162,0.388-2,1.482-2,2.773c0,1.293,0.838,2.387,2,2.774v3.71h25.092v-3.71    c1.162-0.388,2-1.481,2-2.774c0-1.291-0.838-2.386-2-2.773v-3.415H235.76z" fill="#272727"/><circle cx="241.94" cy="416.138" fill="#5C5C5C" r="1.045"/><circle cx="246.193" cy="416.138" fill="#5C5C5C" r="1.045"/><circle cx="250.447" cy="416.138" fill="#5C5C5C" r="1.045"/><circle cx="254.7" cy="416.138" fill="#5C5C5C" r="1.045"/><circle cx="235.023" cy="415.625" fill="#C7C7C7" r="1.021"/><circle cx="261.563" cy="415.625" fill="#C7C7C7" r="1.021"/></g><g><path d="M251.169,422.1v3.733c-1.162,0.396-2,1.512-2,2.829s0.838,2.433,2,2.828v3.782h25.569l-0.006-4.464    c1.16-0.396,1.529-0.829,1.529-2.146s-0.838-2.433-2-2.829V422.1H251.169z" fill="#6D6E70"/><path d="M251.644,422.1v3.415c-1.162,0.388-2,1.482-2,2.773c0,1.292,0.838,2.387,2,2.773v3.711h25.091v-3.71    c1.162-0.388,2.002-1.482,2.002-2.774c0-1.291-0.84-2.387-2.002-2.773V422.1H251.644z" fill="#272727"/><circle cx="257.824" cy="428.813" fill="#5C5C5C" r="1.044"/><circle cx="262.076" cy="428.813" fill="#5C5C5C" r="1.044"/><circle cx="266.33" cy="428.813" fill="#5C5C5C" r="1.044"/><circle cx="270.584" cy="428.813" fill="#5C5C5C" r="1.044"/><circle cx="250.906" cy="428.301" fill="#C7C7C7" r="1.021"/><circle cx="277.445" cy="428.301" fill="#C7C7C7" r="1.021"/></g><rect fill="#272727" height="2.799" width="9.036" x="251.815" y="420.905"/><circle cx="234.202" cy="339.581" fill="#C1C1C1" r="1.143"/><circle cx="235.143" cy="386.891" fill="#C1C1C1" r="1.142"/><circle cx="227.078" cy="431.714" fill="#C1C1C1" r="1.143"/><circle cx="255.773" cy="438.704" fill="#C1C1C1" r="1.142"/><circle cx="286.416" cy="439.04" fill="#C1C1C1" r="1.143"/><circle cx="300.125" cy="409.269" fill="#C1C1C1" r="1.142"/><path d="M273.174,364.296c0.631,0,1.141,0.512,1.141,1.143c0,0.632-0.51,1.143-1.141,1.143   c-0.633,0-1.143-0.511-1.143-1.143C272.031,364.808,272.541,364.296,273.174,364.296z" fill="#C1C1C1"/><path d="M247.079,96.722c0,0-5.461,265.02-5.274,267.456c0.221,2.891,2.917,3.681,4.148,3.873   c0.876,0.138,6.364,0.974,9.71,0.969c3.345-0.005,10.328-0.792,11.474-1.32c1.148-0.528,2.561-1.409,2.736-3.698   c0.178-2.288-2.295-120.251-2.295-120.251L247.079,96.722z" fill="#2D1912"/><path d="M246.225,95.487c0,0,0.926,1.041,0.887,3.059c-0.574,29.683-5.082,262.885-4.908,265.157   c0.22,2.88,2.898,3.665,4.121,3.858c0.871,0.137,6.322,0.97,9.646,0.965c3.324-0.006,10.258-0.789,11.398-1.316   c1.141-0.525,2.543-1.402,2.719-3.682c0.174-2.28-5.102-268.15-5.102-268.15L246.225,95.487z" fill="#412D26"/><path d="M248.276,367.847V93.884h-1.09v273.621C247.494,367.604,247.861,367.722,248.276,367.847z" fill="#3A2924"/><path d="M258.338,368.366V93.712h-1.09v274.782C257.595,368.462,257.96,368.419,258.338,368.366z" fill="#3A2924"/><path d="M254.94,368.505V94.219h-0.617v274.221C254.532,368.466,254.739,368.487,254.94,368.505z" fill="#53372E"/><path d="M263.473,367.853V94.419h-0.617v273.602C263.064,367.966,263.271,367.909,263.473,367.853z" fill="#53372E"/><path d="M250.156,368.089V94.536h-0.698v273.363C249.684,367.962,249.917,368.024,250.156,368.089z" fill="#46322D"/><circle cx="249.895" cy="286.199" fill="#E8E8E8" r="1.433"/><circle cx="262.396" cy="286.199" fill="#E8E8E8" r="1.433"/><circle cx="256.146" cy="248.901" fill="#E8E8E8" r="1.433"/><circle cx="256.146" cy="317.601" fill="#E8E8E8" r="1.434"/><circle cx="256.146" cy="335.543" fill="#E8E8E8" r="1.433"/><circle cx="256.146" cy="351.684" fill="#E8E8E8" r="1.433"/><g><path d="M238.637,478.015v15.277h35.063v-15.277c0-1.357-1.111-2.469-2.469-2.469h-30.125    C239.748,475.546,238.637,476.657,238.637,478.015z" fill="#E0E0E0"/><rect fill="#898988" height="0.482" width="35.063" x="238.637" y="493.292"/><path d="M240.942,495.974c2.26,0,28.427,0,30.449,0c2.52,0,2.305-1.395,2.305-2.199h-35.059    C238.637,494.579,238.422,495.974,240.942,495.974z" fill="#59595B"/><g><path d="M244.124,479.167l-0.354,17.897c-0.008,0.407,0.319,0.741,0.726,0.741h0.494     c0.407,0,0.734-0.334,0.726-0.741l-0.354-17.897H244.124z" fill="#6D6E70"/><path d="M244.497,497.806h0.247v-18.639h-0.62l-0.354,17.897C243.763,497.472,244.089,497.806,244.497,497.806z" fill="#A6A8AA"/></g><g><path d="M252.46,479.167l-0.354,17.897c-0.008,0.407,0.319,0.741,0.727,0.741h0.494     c0.407,0,0.734-0.334,0.726-0.741l-0.354-17.897H252.46z" fill="#6D6E70"/><path d="M252.833,497.806h0.247v-18.639h-0.62l-0.354,17.897C252.099,497.472,252.425,497.806,252.833,497.806z" fill="#A6A8AA"/></g><g><path d="M258.25,479.167l-0.354,17.897c-0.008,0.407,0.319,0.741,0.726,0.741h0.494     c0.408,0,0.734-0.334,0.727-0.741l-0.354-17.897H258.25z" fill="#6D6E70"/><path d="M258.621,497.806h0.248v-18.639h-0.619l-0.354,17.897C257.888,497.472,258.215,497.806,258.621,497.806z" fill="#A6A8AA"/></g><g><path d="M266.756,479.167l-0.354,17.897c-0.008,0.407,0.318,0.741,0.725,0.741h0.494     c0.408,0,0.734-0.334,0.727-0.741l-0.354-17.897H266.756z" fill="#6D6E70"/><path d="M267.127,497.806h0.248v-18.639h-0.619l-0.354,17.897C266.395,497.472,266.721,497.806,267.127,497.806z" fill="#A6A8AA"/></g><path d="M271.391,495.974c-2.021,0-28.189,0-30.449,0c-1.852,0-2.227-0.754-2.295-1.473h-0.01    c0,0.805-0.214,2.198,2.305,2.198c2.26,0,28.427,0,30.449,0c2.52,0,2.305-1.394,2.305-2.198h-0.01    C273.617,495.22,273.242,495.974,271.391,495.974z" fill="#D7D7D7"/><g><rect fill="#F1F1F2" height="3.145" width="8.463" x="239.092" y="487.171"/><rect fill="#BBBCBF" height="1.572" width="8.463" x="239.092" y="488.743"/><circle cx="240.133" cy="488.743" fill="#A6A8AA" r="0.602"/><circle cx="246.515" cy="488.743" fill="#A6A8AA" r="0.602"/><rect fill="#434244" height="0.277" width="4.394" x="241.127" y="488.604"/></g><g><rect fill="#F1F1F2" height="3.146" width="8.464" x="247.624" y="486.291"/><rect fill="#BBBCBF" height="1.573" width="8.464" x="247.624" y="487.863"/><circle cx="248.665" cy="487.864" fill="#A6A8AA" r="0.601"/><circle cx="255.047" cy="487.864" fill="#A6A8AA" r="0.601"/><rect fill="#434244" height="0.277" width="4.394" x="249.659" y="487.725"/></g><g><rect fill="#F1F1F2" height="3.145" width="8.462" x="256.155" y="484.898"/><rect fill="#BBBCBF" height="1.572" width="8.462" x="256.155" y="486.471"/><circle cx="257.195" cy="486.471" fill="#A6A8AA" r="0.601"/><circle cx="263.578" cy="486.471" fill="#A6A8AA" r="0.601"/><rect fill="#434244" height="0.277" width="4.395" x="258.189" y="486.332"/></g><g><rect fill="#F1F1F2" height="3.145" width="8.463" x="264.627" y="483.622"/><rect fill="#BBBCBF" height="1.572" width="8.463" x="264.627" y="485.194"/><circle cx="265.668" cy="485.194" fill="#A6A8AA" r="0.602"/><circle cx="272.051" cy="485.194" fill="#A6A8AA" r="0.602"/><rect fill="#434244" height="0.277" width="4.395" x="266.662" y="485.056"/></g></g><path d="M291.572,352.616c0,0,3.441-1.902,5.371-6.891c2.508-6.486,2.035-8.334,2.533-10.59   c0.531-2.406,1.043-3.335,0.938-3.978c-0.127-0.761-1.926,1.521-2.104,3.345c-0.178,1.823-0.557,4.256-1.85,8.639   C295.211,347.385,291.572,352.616,291.572,352.616z" fill="#FFFFFF" opacity="0.7"/><path d="M214.785,290.897c-0.214,0.92,1.595,6.041,2.116,9.016c0.413,2.354,0.653,8.32,0.951,10.885   c0.398,3.435,1.012,5.183,2.484,9.046c2.427,6.37,6.01,8.156,6.01,8.156s-3.182-4.091-5.029-9.353   c-1.41-4.017-1.812-5.553-2.085-8.248c-0.246-2.422-0.627-5.71-1.104-10.916C217.729,295.129,215,289.978,214.785,290.897z" fill="#FFFFFF" opacity="0.7"/><path d="M187.787,453.783c0,0,1.63-9.878,6.713-22.823c6.703-17.074,14.96-24.838,15.056-46.799   c0.058-13.33-3.644-18.413-9.207-40.182c-8.625-33.758,4.22-52.073,4.22-52.073s-7.212,4.631-8.631,24.166   c-2.11,29.058,12.49,45.065,12.371,67.993c-0.096,18.412-6.713,26.371-14.001,43.537   C186.586,445.788,187.787,453.783,187.787,453.783z" fill="#FFFFFF" opacity="0.7"/><g><path d="M216.268,283.601c0.349-0.273,0.593-0.402,0.314-0.966c-0.263-0.532-1.926-1.114-2.351-1.255l0.001-0.004    c0,0-0.021-0.006-0.051-0.012c-0.028-0.01-0.05-0.018-0.05-0.018l-0.001,0.005c-0.436-0.099-2.162-0.46-2.661-0.14    c-0.529,0.338-0.387,0.574-0.229,0.988c0.193,0.51,0.823,1.445,0.823,1.445l1.327,0.369l0.101,0.029l1.327,0.369    C214.816,284.413,215.84,283.937,216.268,283.601z" fill="#E6E6E7"/><rect fill="#BBBCBF" height="2.862" transform="matrix(-0.2684 0.9633 -0.9633 -0.2684 544.4739 155.0067)" width="0.497" x="213.124" y="282.838"/><path d="M211.67,284.186c-0.467,0.167-0.968,1.548-1.098,1.929c0.579-0.016,1.175,0.012,1.791,0.09    c0.945,0.12,1.779,0.382,2.52,0.762c0.106-0.582,0.243-1.579-0.009-1.889c-0.372-0.457-1.398-0.709-1.521-0.738    C213.234,284.301,212.225,283.987,211.67,284.186z" fill="#D0D1D3"/></g><g><path d="M243.056,312.311c-0.006,0.323-0.012,0.645-0.018,0.964h26.188c-0.006-0.319-0.012-0.641-0.02-0.964    H243.056z" fill="#BBBCBF"/><path d="M243.242,302.188c-0.006,0.322-0.012,0.643-0.018,0.964h25.812c-0.006-0.32-0.012-0.642-0.018-0.964    H243.242z" fill="#BBBCBF"/><path d="M243.438,291.53c-0.006,0.322-0.012,0.645-0.018,0.965h25.413c-0.008-0.32-0.014-0.643-0.02-0.965H243.438    z" fill="#BBBCBF"/><path d="M243.649,280.215c-0.006,0.321-0.012,0.644-0.018,0.964h24.986c-0.006-0.32-0.012-0.643-0.018-0.964    H243.649z" fill="#BBBCBF"/><path d="M242.882,321.898c-0.006,0.323-0.012,0.644-0.018,0.964h26.54c-0.006-0.32-0.012-0.641-0.018-0.964    H242.882z" fill="#BBBCBF"/><path d="M270.092,363.229c0-0.214-0.002-0.539-0.006-0.965h-27.88c-0.004,0.404-0.006,0.727-0.006,0.965H270.092z" fill="#BBBCBF"/><path d="M242.306,355.146c-0.005,0.331-0.01,0.651-0.015,0.964h27.708c-0.006-0.313-0.012-0.633-0.016-0.964    H242.306z" fill="#BBBCBF"/><path d="M242.43,347.534c-0.005,0.326-0.011,0.646-0.016,0.964h27.455c-0.006-0.317-0.012-0.639-0.018-0.964    H242.43z" fill="#BBBCBF"/><path d="M242.72,330.909c-0.006,0.324-0.012,0.646-0.017,0.965h26.869c-0.006-0.319-0.014-0.641-0.02-0.965H242.72    z" fill="#BBBCBF"/><path d="M242.57,339.386c-0.005,0.324-0.011,0.646-0.017,0.965h27.171c-0.006-0.318-0.012-0.641-0.018-0.965    H242.57z" fill="#BBBCBF"/><path d="M244.116,255.3c-0.006,0.322-0.012,0.643-0.018,0.964h24.041c-0.006-0.321-0.014-0.643-0.02-0.964H244.116    z" fill="#BBBCBF"/><path d="M246.275,141.973c-0.006,0.321-0.013,0.642-0.019,0.965h19.669c-0.006-0.323-0.014-0.644-0.02-0.965    H246.275z" fill="#BBBCBF"/><path d="M245.562,179.168c-0.006,0.321-0.012,0.643-0.019,0.965h21.113c-0.006-0.322-0.012-0.644-0.02-0.965    H245.562z" fill="#BBBCBF"/><path d="M245.908,161.101c-0.006,0.321-0.013,0.643-0.019,0.965h20.412c-0.006-0.322-0.012-0.645-0.018-0.965    H245.908z" fill="#BBBCBF"/><path d="M246.665,121.72c-0.006,0.319-0.012,0.641-0.019,0.965h18.879c-0.006-0.324-0.012-0.646-0.018-0.965    H246.665z" fill="#BBBCBF"/><path d="M243.876,268.076c-0.006,0.321-0.012,0.644-0.018,0.964h24.527c-0.006-0.32-0.014-0.643-0.02-0.964    H243.876z" fill="#BBBCBF"/><path d="M245.237,196.171c-0.006,0.32-0.012,0.643-0.019,0.964h21.77c-0.006-0.321-0.012-0.644-0.018-0.964    H245.237z" fill="#BBBCBF"/><path d="M244.642,227.458c-0.006,0.321-0.012,0.643-0.018,0.965H267.6c-0.006-0.321-0.014-0.644-0.02-0.965    H244.642z" fill="#BBBCBF"/><path d="M244.37,241.811c-0.006,0.321-0.012,0.643-0.018,0.964h23.525c-0.006-0.321-0.012-0.643-0.018-0.964    H244.37z" fill="#BBBCBF"/><path d="M244.928,212.365c-0.006,0.321-0.012,0.643-0.018,0.964h22.395c-0.006-0.321-0.012-0.643-0.018-0.964    H244.928z" fill="#BBBCBF"/></g><g><path d="M242.885,321.697c-0.006,0.323-0.011,0.644-0.017,0.964H269.4c-0.006-0.32-0.012-0.641-0.018-0.964    H242.885z" fill="#EDEDED"/><path d="M243.06,312.11c-0.006,0.322-0.012,0.643-0.018,0.964h26.181c-0.006-0.321-0.012-0.642-0.02-0.964H243.06z    " fill="#EDEDED"/><path d="M243.245,301.987c-0.006,0.322-0.012,0.643-0.018,0.964h25.804c-0.006-0.32-0.012-0.642-0.018-0.964    H243.245z" fill="#EDEDED"/><path d="M243.442,291.329c-0.006,0.322-0.012,0.645-0.018,0.965h25.406c-0.008-0.32-0.014-0.643-0.02-0.965    H243.442z" fill="#EDEDED"/><path d="M242.574,339.185c-0.006,0.325-0.011,0.646-0.017,0.965h27.164c-0.006-0.318-0.012-0.641-0.016-0.965    H242.574z" fill="#EDEDED"/><path d="M270.092,363.028c-0.002-0.24-0.004-0.562-0.008-0.965h-27.876c-0.004,0.389-0.006,0.711-0.008,0.965    H270.092z" fill="#EDEDED"/><path d="M243.653,280.014c-0.006,0.321-0.012,0.644-0.018,0.964h24.979c-0.006-0.32-0.012-0.643-0.018-0.964    H243.653z" fill="#EDEDED"/><path d="M242.309,354.945c-0.005,0.329-0.01,0.651-0.015,0.964h27.701c-0.006-0.313-0.01-0.635-0.016-0.964    H242.309z" fill="#EDEDED"/><path d="M242.434,347.333c-0.005,0.326-0.011,0.646-0.016,0.964h27.448c-0.004-0.316-0.01-0.639-0.016-0.964    H242.434z" fill="#EDEDED"/><path d="M242.724,330.708c-0.006,0.324-0.011,0.646-0.017,0.965h26.862c-0.006-0.319-0.012-0.641-0.018-0.965    H242.724z" fill="#EDEDED"/><path d="M245.911,160.899c-0.006,0.32-0.012,0.643-0.019,0.965h20.404c-0.006-0.322-0.012-0.645-0.018-0.965    H245.911z" fill="#EDEDED"/><path d="M245.565,178.967c-0.006,0.321-0.013,0.643-0.019,0.965h21.105c-0.006-0.322-0.012-0.644-0.02-0.965    H245.565z" fill="#EDEDED"/><path d="M246.279,141.771c-0.006,0.321-0.012,0.642-0.019,0.965h19.662c-0.006-0.322-0.014-0.645-0.02-0.965    H246.279z" fill="#EDEDED"/><path d="M243.879,267.875c-0.006,0.321-0.012,0.644-0.018,0.964h24.52c-0.006-0.32-0.012-0.643-0.02-0.964H243.879    z" fill="#EDEDED"/><path d="M246.668,121.52c-0.006,0.318-0.012,0.641-0.019,0.964h18.872c-0.006-0.323-0.012-0.646-0.018-0.964    H246.668z" fill="#EDEDED"/><path d="M245.24,195.97c-0.006,0.321-0.012,0.643-0.018,0.964h21.762c-0.006-0.321-0.012-0.643-0.018-0.964H245.24    z" fill="#EDEDED"/><path d="M244.932,212.164c-0.006,0.321-0.012,0.643-0.019,0.964h22.387c-0.006-0.321-0.012-0.643-0.018-0.964    H244.932z" fill="#EDEDED"/><path d="M244.374,241.609c-0.006,0.321-0.012,0.643-0.019,0.964h23.518c-0.006-0.321-0.012-0.643-0.018-0.964    H244.374z" fill="#EDEDED"/><path d="M244.12,255.099c-0.006,0.322-0.012,0.644-0.018,0.964h24.033c-0.006-0.321-0.014-0.643-0.02-0.964H244.12    z" fill="#EDEDED"/><path d="M244.646,227.257c-0.006,0.321-0.012,0.643-0.018,0.965h22.968c-0.008-0.321-0.014-0.644-0.02-0.965    H244.646z" fill="#EDEDED"/></g><path d="M265.088,100.481c-0.008-0.338-0.014-0.659-0.02-0.965h-17.975c-0.006,0.306-0.012,0.627-0.019,0.965   H265.088z" fill="#BBBCBF"/><path d="M265.084,100.28c-0.012-0.531-0.021-1.022-0.029-1.472h-17.947c-0.009,0.448-0.019,0.939-0.029,1.472   H265.084z" fill="#FFFFFF"/><circle cx="303.352" cy="460.093" fill="#C1C1C1" r="1.143"/><circle cx="293.137" cy="494.836" fill="#C1C1C1" r="1.142"/><circle cx="314.709" cy="478.708" fill="#C1C1C1" r="1.143"/><circle cx="315.246" cy="443.628" fill="#C1C1C1" r="1.142"/><path d="M306.041,361.911c0.631,0,1.141,0.512,1.141,1.143s-0.51,1.143-1.141,1.143   c-0.633,0-1.143-0.512-1.143-1.143S305.408,361.911,306.041,361.911z" fill="#C1C1C1"/><circle cx="306.242" cy="339.13" fill="#C1C1C1" r="1.143"/><g><path d="M307.77,442.741c2.867-0.055,4.465,3.5,4.547,6.256c0.066,2.206-3.996,2.232-3.996,2.232    s-2.211,0.975-2.92,0.33c-0.805-0.73-1.627-3.649-1.627-4.822C303.773,444.53,305.563,442.784,307.77,442.741z" fill="#B8B8B8"/><circle cx="308.514" cy="449.266" fill="#EBEBEB" r="3.883"/><path d="M304.838,450.516L304.838,450.516c0.689,2.03,2.896,3.117,4.926,2.427    c2.031-0.689,3.117-2.896,2.428-4.926l0,0L304.838,450.516z" fill="#D7D7D7"/><circle cx="308.514" cy="449.266" fill="#C9C9C9" r="3.448"/></g><g><path d="M310.721,465.938c2.865-0.056,4.465,3.5,4.547,6.256c0.066,2.206-3.996,2.231-3.996,2.231    s-2.211,0.975-2.922,0.331c-0.805-0.731-1.625-3.649-1.625-4.823C306.725,467.727,308.514,465.979,310.721,465.938z" fill="#B8B8B8"/><circle cx="311.465" cy="472.462" fill="#EBEBEB" r="3.883"/><path d="M307.787,473.712L307.787,473.712c0.691,2.031,2.896,3.117,4.928,2.427    c2.029-0.69,3.117-2.896,2.426-4.927l0,0L307.787,473.712z" fill="#D7D7D7"/><circle cx="311.465" cy="472.462" fill="#C9C9C9" r="3.449"/></g><g><circle cx="299.354" cy="490.231" fill="#808183" r="3.572"/><circle cx="299.475" cy="490.1" fill="#BBBCBF" r="3.53"/><polygon fill="#A6A8AA" points="302.436,490.181 300.924,492.761 297.881,492.742 296.395,490.14 297.93,487.499 300.988,487.511       "/><polygon fill="#D0D1D3" points="302.471,490.114 300.959,492.702 297.963,492.688 296.477,490.086 297.988,487.498     300.984,487.513   "/><circle cx="299.473" cy="490.101" fill="#272525" r="1.375"/></g><path d="M307.852,329.997c-0.67,0.479,5.584,1.736,6.234,19.084   c0.863,23.016-11.313,30.785-11.029,44.209c0.193,9.11,4.029,13.33,14.289,37.018c10.262,23.687,6.33,42.482,6.33,42.482   s3.164-7.672,0.574-24.07c-3.656-23.157-19.371-42.387-19.85-55.525c-0.516-14.096,10.836-18.604,11.027-44.113   C315.541,334.024,308.523,329.517,307.852,329.997z" fill="#FFFFFF" opacity="0.7"/><g><path d="M253.557,510.402c-0.263,0.357-0.464,0.547-0.044,1.015c0.396,0.441,2.154,0.557,2.602,0.578V512    c0,0,0.021-0.001,0.052-0.003c0.03,0.002,0.052,0.003,0.052,0.003v-0.005c0.446-0.021,2.206-0.137,2.602-0.578    c0.418-0.468,0.219-0.657-0.045-1.015c-0.322-0.438-1.18-1.172-1.18-1.172h-1.377h-0.104h-1.377    C254.737,509.23,253.879,509.964,253.557,510.402z" fill="#E6E6E7"/><rect fill="#BBBCBF" height="0.497" width="2.862" x="254.735" y="508.733"/><path d="M255.769,507.864c-0.606,0.012-1.204,0.021-1.797,0.029c0.036,0.207,0.161,0.709,0.532,0.814    c0.48,0.137,1.537,0.124,1.663,0.122c0.125,0.002,1.181,0.015,1.662-0.122c0.439-0.125,0.535-0.805,0.545-0.895    C257.508,507.83,256.64,507.847,255.769,507.864z" fill="#D0D1D3"/></g><circle cx="256.146" cy="220.298" fill="#E8E8E8" r="1.433"/><circle cx="256.145" cy="188.038" fill="#E8E8E8" r="1.433"/><circle cx="256.145" cy="151.827" fill="#E8E8E8" r="1.433"/><path d="M233.741,84.043c-0.473,2.49,0.887,8.477,4.899,9.223c4.727,0.878,7.334,1.606,7.334,1.606l19.084-6.379   c0,0,3.512-4.584,6.723-6.684s5.354-2.23,5.354-2.23l0.123-2.524l-8.502-30.98c0,0-0.094-11.146-0.064-12.662   c0.053-2.641,0.92-2.573,5.035-6.358s3.818-9.727,3.818-9.727l-10.951,14.338C266.594,31.665,234.029,82.525,233.741,84.043z" fill="#CCA871"/><path d="M246.189,95.487c0,0-2.441-3.195-6.758-3.854c-4.317-0.658-6.366-3.659-5.488-8.635   c0.878-4.976,12.923-61.221,15.146-72.221c1.839-9.101,11.354-11.845,18.201-10.426c4.203,0.871,9.74,6.268,10.408,11.962   c0.803,6.826-1.811,10.878-4.463,13.098c-2.838,2.375-4.318,3.021-4.316,9.586c0,5.471,1.211,8.425,4.316,16.61   c3.672,9.678,4.098,26.342,4.098,26.342s-0.877-0.175-4.021,1.34c-3.143,1.515-7.98,6.404-8.256,11.931   c-0.076,1.515-0.016,4.218-0.016,4.218L246.189,95.487z" fill="#E8BE80"/><path d="M240.136,53.287c-0.442,2.088-0.877,4.145-1.299,6.143v32.094c0.193,0.041,0.39,0.079,0.594,0.11   c0.241,0.037,0.476,0.083,0.705,0.135V53.287z" fill="#E3B77A"/><path d="M254.656,95.479V2.549c-0.408,0.265-0.802,0.55-1.181,0.858v92.076L254.656,95.479z" fill="#D9AC6D"/><path d="M261.029,95.454V0.205c-0.236,0.036-0.473,0.076-0.707,0.121v95.131L261.029,95.454z" fill="#D6AC6B"/><path d="M265.752,0.111v87.811c0.23-0.63,0.508-1.241,0.826-1.829V0.223C266.305,0.179,266.029,0.143,265.752,0.111   z" fill="#DAAC6B"/><circle cx="246.293" cy="82.405" fill="#E6E6E7" r="4.817"/><circle cx="250.598" cy="61.775" fill="#E6E6E7" r="4.817"/><circle cx="254.927" cy="41.204" fill="#E6E6E7" r="4.817"/><circle cx="259.084" cy="20.673" fill="#E6E6E7" r="4.817"/><circle cx="246.207" cy="82.099" fill="#6D6E70" r="3.902"/><circle cx="250.511" cy="61.469" fill="#6D6E70" r="3.902"/><circle cx="254.84" cy="40.898" fill="#6D6E70" r="3.902"/><circle cx="258.998" cy="20.366" fill="#6D6E70" r="3.902"/><rect fill="#BBBCBF" height="475.87" transform="matrix(-0.9999 0.0108 -0.0108 -0.9999 533.8297 513.254)" width="0.545" x="265.263" y="20.127"/><rect fill="#BBBCBF" height="456.324" width="0.902" x="258.709" y="39.655"/><rect fill="#BBBCBF" height="434.432" transform="matrix(-1 -0.0054 0.0054 -1 504.0755 558.8798)" width="1.09" x="252.243" y="61.547"/><rect fill="#BBBCBF" height="415.285" transform="matrix(-0.9999 -0.0153 0.0153 -0.9999 487.8219 580.4307)" width="1.469" x="245.394" y="80.709"/><g><path d="M228.856,67.031c-3.797-0.623-5.047,3.617-5.047,3.617s-3.238,0.52-3.859,3.511    c-0.622,2.991,2.141,4.758,2.141,4.758s-0.543,4.387,3.188,5.329c4.157,1.049,4.768-2.403,6.205-3.961    c1.167-1.263,3.2-1.025,3.2-1.025l0.806-3.912c0,0-1.954-0.589-2.52-2.213C232.272,71.135,233.086,67.725,228.856,67.031z" fill="#A6A8AA"/><path d="M228.724,66.849c-3.797-0.622-5.047,3.618-5.047,3.618s-3.238,0.52-3.859,3.511    c-0.622,2.99,2.141,4.758,2.141,4.758s-0.542,4.387,3.188,5.328c4.156,1.05,4.768-2.402,6.205-3.959    c1.166-1.265,3.362-0.999,3.362-0.999l0.81-3.897c0,0-2.12-0.631-2.687-2.255C232.14,70.953,232.954,67.542,228.724,66.849z" fill="#C1C1C1"/><path d="M231.88,75.235c-0.1-0.021-0.57,0.313-0.74,1.13c-0.17,0.819,0.11,1.333,0.223,1.356    s3.49,0.712,3.49,0.712l0.517-2.485C235.37,75.948,231.979,75.256,231.88,75.235z" fill="#59595B"/><path d="M231.083,76.812l3.938,0.818l0.182-0.877l-3.936-0.818c-0.048,0.128-0.093,0.268-0.126,0.431    C231.106,76.529,231.091,76.676,231.083,76.812z" fill="#E6E6E7"/></g><g><path d="M233.118,46.756c-3.796-0.622-5.047,3.617-5.047,3.617s-3.238,0.52-3.859,3.511    c-0.622,2.991,2.141,4.759,2.141,4.759s-0.542,4.386,3.188,5.328c4.156,1.05,4.768-2.403,6.205-3.96    c1.166-1.264,3.2-1.025,3.2-1.025l0.806-3.913c0,0-1.953-0.589-2.52-2.213C236.534,50.859,237.348,47.449,233.118,46.756z" fill="#A6A8AA"/><path d="M232.986,46.573c-3.797-0.622-5.047,3.618-5.047,3.618s-3.238,0.521-3.859,3.511    c-0.622,2.99,2.141,4.758,2.141,4.758s-0.542,4.387,3.188,5.328c4.157,1.05,4.768-2.402,6.205-3.959    c1.167-1.265,3.362-0.998,3.362-0.998l0.81-3.898c0,0-2.12-0.631-2.687-2.255C236.401,50.678,237.216,47.267,232.986,46.573z" fill="#C1C1C1"/><path d="M236.142,54.96c-0.1-0.021-0.569,0.313-0.74,1.13c-0.17,0.819,0.11,1.333,0.223,1.356    s3.49,0.713,3.49,0.713l0.517-2.485C239.632,55.674,236.241,54.98,236.142,54.96z" fill="#59595B"/><path d="M235.345,56.536l3.938,0.818l0.182-0.877l-3.937-0.818c-0.048,0.128-0.092,0.269-0.126,0.431    C235.368,56.254,235.353,56.4,235.345,56.536z" fill="#E6E6E7"/></g><g><path d="M237.386,26.704c-3.795-0.634-5.057,3.603-5.057,3.603s-3.24,0.511-3.87,3.5    c-0.63,2.989,2.127,4.765,2.127,4.765s-0.555,4.385,3.173,5.337c4.153,1.062,4.774-2.39,6.216-3.942    c1.17-1.26,3.203-1.017,3.203-1.017l0.817-3.91c0,0-1.952-0.594-2.513-2.22C240.79,30.817,241.614,27.409,237.386,26.704z" fill="#A6A8AA"/><path d="M237.254,26.521c-3.795-0.633-5.057,3.604-5.057,3.604s-3.24,0.512-3.869,3.5    c-0.63,2.989,2.127,4.765,2.127,4.765s-0.555,4.385,3.172,5.337c4.153,1.062,4.775-2.389,6.216-3.941    c1.17-1.261,3.365-0.989,3.365-0.989l0.821-3.896c0,0-2.119-0.637-2.68-2.263C240.658,30.635,241.482,27.227,237.254,26.521z" fill="#C1C1C1"/><path d="M240.386,34.917c-0.099-0.021-0.57,0.311-0.743,1.128c-0.172,0.818,0.106,1.333,0.219,1.356    s3.488,0.723,3.488,0.723l0.523-2.484C243.874,35.64,240.485,34.938,240.386,34.917z" fill="#59595B"/><path d="M239.584,36.49l3.936,0.829l0.185-0.876l-3.934-0.829c-0.048,0.128-0.093,0.268-0.127,0.431    S239.593,36.354,239.584,36.49z" fill="#E6E6E7"/></g><g><path d="M241.644,6.354c-3.796-0.623-5.046,3.617-5.046,3.617s-3.238,0.52-3.86,3.511s2.141,4.758,2.141,4.758    s-0.542,4.387,3.188,5.329c4.156,1.049,4.768-2.403,6.205-3.96c1.166-1.264,3.2-1.025,3.2-1.025l0.806-3.913    c0,0-1.953-0.589-2.52-2.213C245.06,10.457,245.874,7.047,241.644,6.354z" fill="#A6A8AA"/><path d="M241.512,6.171c-3.797-0.622-5.047,3.618-5.047,3.618s-3.238,0.52-3.859,3.511    c-0.622,2.99,2.141,4.758,2.141,4.758s-0.542,4.387,3.188,5.328c4.157,1.05,4.768-2.402,6.205-3.959    c1.167-1.265,3.362-0.998,3.362-0.998l0.81-3.898c0,0-2.12-0.631-2.687-2.255C244.928,10.275,245.742,6.864,241.512,6.171z" fill="#C1C1C1"/><path d="M244.667,14.558c-0.1-0.021-0.569,0.313-0.739,1.13c-0.17,0.819,0.11,1.333,0.223,1.356    s3.491,0.712,3.491,0.712l0.516-2.485C248.158,15.271,244.767,14.578,244.667,14.558z" fill="#59595B"/><path d="M243.871,16.134l3.938,0.818l0.182-0.877l-3.937-0.818c-0.048,0.128-0.092,0.268-0.126,0.431    C243.894,15.852,243.878,15.998,243.871,16.134z" fill="#E6E6E7"/></g><circle cx="246.179" cy="81.659" fill="#929496" r="3.902"/><circle cx="246.179" cy="80.918" fill="#BBBCBF" r="3.559"/><circle cx="246.179" cy="80.918" fill="#E6E6E7" r="3.13"/><path d="M243.662,82.773c0.274,0.371,0.626,0.683,1.036,0.902l3.971-4.65c-0.28-0.367-0.637-0.671-1.05-0.885   L243.662,82.773z" fill="#929496"/><circle cx="250.484" cy="61.029" fill="#929496" r="3.902"/><circle cx="250.484" cy="60.288" fill="#BBBCBF" r="3.56"/><circle cx="250.484" cy="60.289" fill="#E6E6E7" r="3.13"/><path d="M249.304,63.174c0.428,0.175,0.89,0.257,1.354,0.231l0.968-6.038c-0.431-0.168-0.894-0.241-1.358-0.209   L249.304,63.174z" fill="#929496"/><circle cx="254.813" cy="40.459" fill="#929496" r="3.902"/><circle cx="254.813" cy="39.718" fill="#BBBCBF" r="3.56"/><circle cx="254.813" cy="39.718" fill="#E6E6E7" r="3.13"/><path d="M251.711,40.174c0.067,0.457,0.231,0.896,0.488,1.284l5.694-2.231c-0.073-0.456-0.246-0.893-0.51-1.276   L251.711,40.174z" fill="#929496"/><circle cx="258.971" cy="19.927" fill="#929496" r="3.902"/><circle cx="258.971" cy="19.187" fill="#BBBCBF" r="3.56"/><circle cx="258.971" cy="19.186" fill="#E6E6E7" r="3.13"/><path d="M257.896,22.112c0.434,0.159,0.899,0.224,1.361,0.182l0.748-6.069c-0.436-0.152-0.902-0.208-1.364-0.159   L257.896,22.112z" fill="#929496"/><circle cx="260.58" cy="67.524" fill="#D0D1D3" r="4.041"/><circle cx="260.58" cy="67.525" fill="#929496" r="2.769"/><circle cx="260.58" cy="67.524" fill="#D0D1D3" r="2.52"/><circle cx="260.58" cy="67.525" fill="#808183" r="1.522"/><rect fill="#D0D1D3" height="0.449" transform="matrix(0.4697 -0.8828 0.8828 0.4697 78.5815 265.8629)" width="1.747" x="259.706" y="67.3"/><rect fill="#D0D1D3" height="0.449" transform="matrix(-0.883 -0.4695 0.4695 -0.883 458.9592 249.4766)" width="1.745" x="259.706" y="67.3"/></g></svg>