<?xml version="1.0" ?><!DOCTYPE svg  PUBLIC '-//W3C//DTD SVG 1.1//EN'  'http://www.w3.org/Graphics/SVG/1.1/DTD/svg11.dtd'><svg enable-background="new 0 0 512 512" height="512px" id="guitar" version="1.1" viewBox="0 0 512 512" width="512px" xml:space="preserve" xmlns="http://www.w3.org/2000/svg" xmlns:xlink="http://www.w3.org/1999/xlink"><g><path d="M241.192,301.418c0,0-1.251,7.678-11.216,7.678c-9.963,0-15.485-5.952-17.858-8.656   c-7.024-8.004-4.737-23.414-6.373-27.402c-1.46-3.561-5.552-4.287-5.552-4.287c-9.514-1.114-19.098,13.035-17.944,33.809   c1.535,27.629,13.843,44.067,14.666,63.879c0.889,21.423-27.196,56.769-24.651,90.768c1.957,26.143,14.679,34.25,30.759,40.845   c19.006,7.796,48.388,8.566,52.324,8.566c3.935,0.001,51.148,3.467,69.503-14.401c12.914-12.567,14.93-20.341,15.047-35.468   c0.289-36.792-24.705-59.478-24.857-80.694c-0.135-18.955,13.305-28.846,12.951-51.213c-0.355-22.368-11.439-23.893-14.521-23.744   c-1.938,0.095-5.314,1.159-6.879,8.695c-1.006,4.85-1.557,11.896-6.68,16.838c-13.125,12.655-29.832,1.646-29.832,1.646   L241.192,301.418z" fill="#26718E"/><path d="M240.146,323.648c0,0-8.816-5.424-12.207-2.305s-1.221,6.916-1.221,6.916s3.526,15.871,3.391,26.856   c-0.271,21.972-15.598,36.62-14.648,57.915c1.161,26.032,19.531,23.193,19.531,23.193l2.848-5.969l34.45-0.406l2.578,6.238   c0,0,11.393-0.135,19.666,2.171s23.871,18.311,26.99,19.396s6.375,0.678,8.139-0.814s3.496-4.064,2.848-8.816   c-3.662-26.854-24.006-53.168-24.006-70.8c0-15.871,13.828-33.096,13.563-51.676c-0.135-9.493-3.797-17.632-7.188-16.954   c-0.955,0.191-1.9,2.577-2.578,9.087c-1.07,10.274-9.734,21.854-22.379,23.058c-11.393,1.086-24.279-6.917-24.279-6.917   L240.146,323.648z" fill="#A6A8AA"/><path d="M240.662,323.134c0,0-8.816-5.425-12.207-2.306c-3.391,3.119-1.221,6.917-1.221,6.917   s3.526,15.87,3.391,26.856c-0.271,21.972-15.598,36.619-14.648,57.914c1.161,26.033,19.531,23.193,19.531,23.193l2.848-5.968   l34.451-0.407l2.578,6.239c0,0,11.393-0.136,19.666,2.17s23.871,18.311,26.99,19.396s6.375,0.678,8.139-0.813   c1.764-1.492,3.496-4.065,2.848-8.816c-3.662-26.854-24.008-53.168-24.008-70.8c0-15.871,13.83-33.096,13.564-51.677   c-0.135-9.493-3.797-17.632-7.189-16.954c-0.953,0.191-1.898,2.577-2.576,9.088c-1.07,10.273-9.734,21.854-22.379,23.057   c-11.393,1.086-24.279-6.916-24.279-6.916L240.662,323.134z" fill="#F1F1F2"/><path d="M236.911,79.597c0,0-1.126,5.064,0.593,6.849c1.837,1.906,6.698,4.158,6.847,4.93   c0.104,0.533,24.127-11.129,24.127-11.129s3.982-4.606,7.66-6.586c2.521-1.356,3.537-1.738,3.537-1.738l0.027-1.744l-7.639-37.608   l0.41-1.787c0,0-0.918-1.235,4.709-4.175c5.244-2.738,6.346-8.95,6.346-8.95l-22.988,10.14L236.911,79.597z" fill="#D0C9B1"/><path d="M244.242,87.987l-3.722,251.841c0,0-0.955,3.191,14.657,3.373c16.242,0.188,14.681-4.281,14.681-4.281   l-3.979-251.008L244.242,87.987z" fill="#C3B188"/><path d="M243.888,91c0.068,3.063-3.154,248.508-3.154,248.508s-0.955,3.191,14.657,3.373   c16.241,0.189,14.542-4.281,14.542-4.281l-4.154-247.466c0,0,0.275-8.431,4.643-13.448c4.693-5.393,9.287-7.49,9.287-7.49   s-1.398-13.581-3.594-20.871c-2.197-7.291-2.811-12.811-3.496-18.376c-0.898-7.29,10.486-5.393,11.584-15.979   c0.779-7.503-4.395-12.084-8.988-14.38c-2.604-1.303-13.881-1.099-16.477,7.489c-2.451,8.104-20.972,68.907-21.172,69.507   c-0.2,0.599-1.798,3.895-0.399,6.591C238.769,87.27,243.819,87.937,243.888,91z" fill="#EBD9B0"/><path d="M253.92,23.924l-0.928,318.9c0.337,0.012,0.675,0.023,1.031,0.032l0.938-322.353   C254.627,21.6,254.28,22.742,253.92,23.924z" fill="#DED0AE"/><path d="M254.908,90.975c0,0-2.672,0.021-2.65-2.934c0.021-2.954,2.15-5.344,2.65-5.344s2.629,2.39,2.652,5.344   C257.582,90.996,254.908,90.975,254.908,90.975z" fill="#64513E"/><path d="M254.909,82.697L254.909,82.697c-0.501,0-2.629,2.39-2.651,5.344   c-0.021,2.955,2.65,2.934,2.65,2.934h0V82.697z" fill="#434244" opacity="0.3"/><path d="M246.011,49.897l-1.568,291.979c0.314,0.076,0.662,0.148,1.031,0.219l1.587-295.643   C246.708,47.609,246.358,48.759,246.011,49.897z" fill="#DED0AE"/><path d="M259.131,6.987l-0.121,335.849c0.539-0.021,1.059-0.045,1.547-0.078l0.121-338.305   C260.066,5.185,259.539,6.025,259.131,6.987z" fill="#E5D6B1"/><path d="M262.959,2.422l1.449,339.889c0.568-0.104,1.084-0.216,1.545-0.338L264.502,1.546   C263.971,1.8,263.453,2.091,262.959,2.422z" fill="#E7D6B1"/><path d="M250.328,35.726L249.5,342.622c0.487,0.041,1.003,0.077,1.546,0.11l0.842-312.13   C251.378,32.275,250.856,33.989,250.328,35.726z" fill="#E5D6B1"/><circle cx="249.67" cy="259.372" fill="#1B1B1B" r="1.534"/><circle cx="261.227" cy="259.372" fill="#1B1B1B" r="1.534"/><circle cx="255.429" cy="287.356" fill="#1B1B1B" r="1.534"/><circle cx="255.429" cy="303.45" fill="#1B1B1B" r="1.534"/><circle cx="255.429" cy="317.667" fill="#1B1B1B" r="1.534"/><circle cx="255.429" cy="330.485" fill="#1B1B1B" r="1.534"/><path d="M287.313,452.289c-3.471,5.269-0.908,9.412,10.328,18.373c12.451,9.931,22.277,8.382,23.316,7.479   c1.039-0.903,0.662-10.026-11.756-19.6C296.99,449.13,290.627,447.26,287.313,452.289z" fill="#A6A8AA"/><path d="M287.695,451.961c-3.445,5.27-0.902,9.412,10.252,18.375c12.359,9.93,22.113,8.381,23.145,7.479   c1.031-0.903,0.656-10.027-11.67-19.6C297.303,448.803,290.984,446.932,287.695,451.961z" fill="#E0E0E0"/><path d="M294.723,463.566c-0.516,0.645-0.449,1.289,0.064,1.805c0.516,0.516,5.48,5.094,7.479,6.447   c1.453,0.983,11.447,5.328,14.119,2.707c3.289-3.223-4.189-12.12-5.674-13.475c-1.482-1.354-7.219-5.286-7.865-5.802   c-0.645-0.516-1.869-0.129-2.32,0.322S295.24,462.922,294.723,463.566z" fill="#808183"/><circle cx="231.612" cy="324.486" fill="#DADFE1" r="1.347"/><circle cx="229.327" cy="377.668" fill="#DADFE1" r="1.347"/><circle cx="229.25" cy="431.021" fill="#DADFE1" r="1.347"/><path d="M273.895,339.794c0.742,0,1.346,0.603,1.346,1.347s-0.604,1.348-1.346,1.348   c-0.746,0-1.348-0.604-1.348-1.348S273.148,339.794,273.895,339.794z" fill="#DADFE1"/><circle cx="316.854" cy="315.504" fill="#DADFE1" r="1.347"/><circle cx="305.998" cy="384.639" fill="#DADFE1" r="1.348"/><circle cx="313.262" cy="413.614" fill="#DADFE1" r="1.347"/><circle cx="298.941" cy="397.678" fill="#DADFE1" r="1.348"/><circle cx="326.734" cy="451.569" fill="#DADFE1" r="1.347"/><circle cx="278.139" cy="431.783" fill="#DADFE1" r="1.348"/><circle cx="289.451" cy="453.335" fill="#BBBCBF" r="1.347"/><circle cx="319.092" cy="476.124" fill="#BBBCBF" r="1.347"/><circle cx="235.38" cy="409.25" fill="#DADFE1" r="1.578"/><circle cx="235.208" cy="383.101" fill="#DADFE1" r="1.579"/><circle cx="235.131" cy="351.689" fill="#DADFE1" r="1.578"/><circle cx="275.396" cy="416.514" fill="#DADFE1" r="1.578"/><circle cx="275.549" cy="383.178" fill="#DADFE1" r="1.578"/><circle cx="275.781" cy="351.768" fill="#DADFE1" r="1.578"/><path d="M236.045,430.546c0,0.915,0,15.722,0,16.979s0.229,2.23,1.486,2.23s35.218,0.057,35.96,0.057   c1.201,0,1.088-1.086,1.486-1.086c0.4,0,3.26-0.057,3.945-0.057s1.145-0.287,1.145-1.029c0-0.744,0.113-9.262,0.113-10.063   s-0.686-0.743-1.143-0.743c-0.459,0-3.945,0-3.945,0s0-5.831,0-6.86s-1.658-2.002-2.059-2.002s-33.045,0.058-34.703,0.058   S236.045,429.631,236.045,430.546z" fill="#DADFE1"/><circle cx="240.791" cy="430.519" fill="#BDC3C7" r="1.544"/><circle cx="246.668" cy="430.519" fill="#BDC3C7" r="1.544"/><circle cx="252.545" cy="430.519" fill="#BDC3C7" r="1.544"/><circle cx="258.422" cy="430.519" fill="#BDC3C7" r="1.544"/><circle cx="264.299" cy="430.519" fill="#BDC3C7" r="1.544"/><circle cx="270.178" cy="430.519" fill="#BDC3C7" r="1.544"/><circle cx="304.424" cy="428.834" fill="#EBEBEB" r="6.725"/><ellipse cx="304.518" cy="429.399" fill="#BEBEBE" rx="4.752" ry="4.675"/><circle cx="304.846" cy="429.983" fill="#F1F1F1" r="4.464"/><circle cx="284.221" cy="417.904" fill="#EBEBEB" r="6.725"/><ellipse cx="284.313" cy="418.47" fill="#BEBEBE" rx="4.752" ry="4.675"/><circle cx="284.643" cy="419.054" fill="#F1F1F1" r="4.464"/><circle cx="321.867" cy="443.78" fill="#EBEBEB" r="6.725"/><ellipse cx="321.959" cy="444.345" fill="#BEBEBE" rx="4.752" ry="4.675"/><circle cx="322.287" cy="444.93" fill="#F1F1F1" r="4.464"/><circle cx="277.295" cy="442.647" fill="#59595B" r="1.419"/><polygon fill="#BBBCBF" points="269.879,334.336 269.865,333.104 240.836,333.104 240.816,334.336  "/><polygon fill="#EDEDED" points="269.877,334.078 269.861,332.848 240.84,332.848 240.82,334.078  "/><path d="M269.615,340c0.383-0.533,0.389-0.995,0.354-1.23h-29.224l-0.012,0.738c0,0-0.058,0.196,0.09,0.492H269.615   z" fill="#BBBCBF"/><path d="M240.749,338.512l-0.016,0.996c0,0-0.025,0.089,0.002,0.236h29.038c0.342-0.651,0.158-1.145,0.158-1.145   l-0.002-0.088H240.749z" fill="#EDEDED"/><g><path d="M268.656,347.348c2.834,0,5.154,2.26,5.154,5.02s-2.32,5.02-5.154,5.02h-26.43    c-2.834,0-5.153-2.26-5.153-5.02s2.319-5.02,5.153-5.02H268.656z" fill="#BBBCBF"/><path d="M268.656,346.832c2.834,0,5.154,2.26,5.154,5.02c0,2.761-2.32,5.02-5.154,5.02h-26.43    c-2.834,0-5.153-2.259-5.153-5.02c0-2.76,2.319-5.02,5.153-5.02H268.656z" fill="#FFFFFF"/><circle cx="241.472" cy="351.812" fill="#DADFE1" r="1.356"/><circle cx="247.06" cy="351.812" fill="#DADFE1" r="1.356"/><circle cx="252.648" cy="351.812" fill="#DADFE1" r="1.356"/><circle cx="258.234" cy="351.812" fill="#DADFE1" r="1.356"/><circle cx="263.824" cy="351.812" fill="#DADFE1" r="1.356"/><circle cx="269.412" cy="351.812" fill="#DADFE1" r="1.356"/><path d="M237.073,351.852L237.073,351.852c0,2.761,2.319,5.02,5.153,5.02h26.43    c2.834,0,5.154-2.259,5.154-5.02l0,0H237.073z" fill="#F1F1F2" opacity="0.7"/></g><g><path d="M268.656,378.945c2.834,0,5.154,2.26,5.154,5.02c0,2.761-2.32,5.02-5.154,5.02h-26.43    c-2.834,0-5.153-2.259-5.153-5.02c0-2.76,2.319-5.02,5.153-5.02H268.656z" fill="#BBBCBF"/><path d="M268.656,378.43c2.834,0,5.154,2.26,5.154,5.02c0,2.762-2.32,5.02-5.154,5.02h-26.43    c-2.834,0-5.153-2.258-5.153-5.02c0-2.76,2.319-5.02,5.153-5.02H268.656z" fill="#FFFFFF"/><circle cx="241.472" cy="383.409" fill="#DADFE1" r="1.356"/><circle cx="247.06" cy="383.409" fill="#DADFE1" r="1.356"/><circle cx="252.648" cy="383.409" fill="#DADFE1" r="1.356"/><circle cx="258.234" cy="383.409" fill="#DADFE1" r="1.356"/><circle cx="263.824" cy="383.409" fill="#DADFE1" r="1.356"/><circle cx="269.412" cy="383.409" fill="#DADFE1" r="1.356"/><path d="M237.073,383.449L237.073,383.449c0,2.762,2.319,5.02,5.153,5.02h26.43    c2.834,0,5.154-2.258,5.154-5.02l0,0H237.073z" fill="#F1F1F2" opacity="0.7"/></g><g><path d="M269.105,410.941c2.791,0.488,4.686,3.114,4.211,5.832c-0.475,2.721-3.148,4.545-5.941,4.057    l-26.035-4.553c-2.792-0.489-4.688-3.113-4.211-5.833c0.476-2.718,3.149-4.545,5.941-4.056L269.105,410.941z" fill="#BBBCBF"/><path d="M269.193,410.434c2.791,0.488,4.688,3.114,4.213,5.833c-0.477,2.72-3.15,4.545-5.941,4.056l-26.036-4.553    c-2.792-0.488-4.688-3.113-4.212-5.832s3.15-4.545,5.941-4.057L269.193,410.434z" fill="#FFFFFF"/><circle cx="241.558" cy="410.656" fill="#DADFE1" r="1.356"/><circle cx="247.062" cy="411.619" fill="#DADFE1" r="1.357"/><circle cx="252.567" cy="412.581" fill="#DADFE1" r="1.356"/><circle cx="258.07" cy="413.544" fill="#DADFE1" r="1.356"/><circle cx="263.575" cy="414.507" fill="#DADFE1" r="1.356"/><circle cx="269.08" cy="415.469" fill="#DADFE1" r="1.356"/><path d="M237.217,409.938L237.217,409.938c-0.476,2.719,1.42,5.344,4.212,5.832l26.036,4.553    c2.791,0.489,5.465-1.336,5.941-4.056l0,0L237.217,409.938z" fill="#F1F1F2" opacity="0.7"/></g><g><path d="M271.996,447.873c0.568,0,1.031,0.489,1.031,1.089c0,0.599-0.463,1.089-1.031,1.089h-34.319    c-0.567,0-1.031-0.49-1.031-1.089c0-0.6,0.464-1.089,1.031-1.089H271.996z" fill="#59595B"/><rect fill="#808183" height="11.415" width="5.439" x="238.284" y="435.084"/><rect fill="#D0D1D3" height="6.215" width="5.439" x="238.284" y="436.877"/><rect fill="#E6E6E7" height="1.494" width="5.439" x="238.284" y="436.787"/><rect fill="#808183" height="0.292" width="5.439" x="238.284" y="438.046"/><rect fill="#A6A8AA" height="0.756" width="5.439" x="238.284" y="436.313"/><circle cx="239.458" cy="437.743" fill="#434244" r="0.508"/><circle cx="242.549" cy="437.743" fill="#434244" r="0.508"/><rect fill="#808183" height="11.416" width="5.439" x="243.848" y="434.734"/><rect fill="#D0D1D3" height="6.217" width="5.439" x="243.848" y="436.527"/><rect fill="#E6E6E7" height="1.494" width="5.439" x="243.848" y="436.438"/><rect fill="#808183" height="0.291" width="5.439" x="243.848" y="437.697"/><rect fill="#A6A8AA" height="0.755" width="5.439" x="243.848" y="435.964"/><circle cx="245.021" cy="437.395" fill="#434244" r="0.508"/><circle cx="248.113" cy="437.395" fill="#434244" r="0.508"/><rect fill="#808183" height="11.416" width="5.439" x="249.397" y="434.423"/><rect fill="#D0D1D3" height="6.215" width="5.439" x="249.397" y="436.217"/><rect fill="#E6E6E7" height="1.494" width="5.439" x="249.397" y="436.127"/><rect fill="#808183" height="0.292" width="5.439" x="249.397" y="437.385"/><rect fill="#A6A8AA" height="0.756" width="5.439" x="249.397" y="435.652"/><circle cx="250.571" cy="437.083" fill="#434244" r="0.508"/><circle cx="253.663" cy="437.083" fill="#434244" r="0.508"/><rect fill="#808183" height="11.416" width="5.439" x="255.006" y="434.734"/><rect fill="#D0D1D3" height="6.217" width="5.439" x="255.006" y="436.527"/><rect fill="#E6E6E7" height="1.494" width="5.439" x="255.006" y="436.438"/><rect fill="#808183" height="0.291" width="5.439" x="255.006" y="437.697"/><rect fill="#A6A8AA" height="0.755" width="5.439" x="255.006" y="435.964"/><circle cx="256.179" cy="437.395" fill="#434244" r="0.508"/><circle cx="259.271" cy="437.395" fill="#434244" r="0.508"/><rect fill="#808183" height="11.415" width="5.438" x="260.57" y="434.247"/><rect fill="#D0D1D3" height="6.216" width="5.438" x="260.57" y="436.04"/><rect fill="#E6E6E7" height="1.494" width="5.438" x="260.57" y="435.951"/><rect fill="#808183" height="0.291" width="5.438" x="260.57" y="437.209"/><rect fill="#A6A8AA" height="0.756" width="5.438" x="260.57" y="435.477"/><circle cx="261.742" cy="436.906" fill="#434244" r="0.508"/><circle cx="264.836" cy="436.906" fill="#434244" r="0.508"/><rect fill="#808183" height="11.416" width="5.439" x="266.154" y="433.928"/><rect fill="#D0D1D3" height="6.216" width="5.439" x="266.154" y="435.721"/><rect fill="#E6E6E7" height="1.494" width="5.439" x="266.154" y="435.632"/><rect fill="#808183" height="0.291" width="5.439" x="266.154" y="436.891"/><rect fill="#A6A8AA" height="0.755" width="5.439" x="266.154" y="435.157"/><circle cx="267.328" cy="436.587" fill="#434244" r="0.508"/><circle cx="270.42" cy="436.587" fill="#434244" r="0.508"/><g><path d="M241.003,439.596c0.388,0,0.703,0.301,0.703,0.672v0.35c0,0.371-0.314,0.672-0.703,0.672l0,0     c-0.388,0-0.702-0.301-0.702-0.672v-0.35C240.301,439.896,240.616,439.596,241.003,439.596L241.003,439.596z" fill="#272525"/><g><path d="M240.256,441.199v8.965c0,0.272,0.232,0.497,0.515,0.497h0.464c0.283,0,0.515-0.225,0.515-0.497v-8.965      H240.256z" fill="#BBBCBF"/><path d="M241.003,450.661h0.232c0.283,0,0.515-0.225,0.515-0.497v-8.965h-0.747V450.661z" fill="#F0F0F1"/></g></g><g><path d="M246.567,439.596c0.388,0,0.702,0.301,0.702,0.672v0.35c0,0.371-0.314,0.672-0.702,0.672l0,0     c-0.388,0-0.703-0.301-0.703-0.672v-0.35C245.865,439.896,246.179,439.596,246.567,439.596L246.567,439.596z" fill="#272525"/><g><path d="M245.82,441.199v8.965c0,0.272,0.232,0.497,0.516,0.497h0.464c0.283,0,0.515-0.225,0.515-0.497v-8.965      H245.82z" fill="#BBBCBF"/><path d="M246.567,450.661h0.232c0.283,0,0.515-0.225,0.515-0.497v-8.965h-0.748V450.661z" fill="#F0F0F1"/></g></g><g><path d="M252.117,439.596c0.388,0,0.702,0.301,0.702,0.672v0.35c0,0.371-0.314,0.672-0.702,0.672l0,0     c-0.388,0-0.703-0.301-0.703-0.672v-0.35C251.415,439.896,251.729,439.596,252.117,439.596L252.117,439.596z" fill="#272525"/><g><path d="M251.37,441.199v8.965c0,0.272,0.232,0.497,0.515,0.497h0.464c0.283,0,0.515-0.225,0.515-0.497v-8.965      H251.37z" fill="#BBBCBF"/><path d="M252.117,450.661h0.232c0.283,0,0.515-0.225,0.515-0.497v-8.965h-0.747V450.661z" fill="#F0F0F1"/></g></g><g><path d="M257.727,439.596c0.387,0,0.701,0.301,0.701,0.672v0.35c0,0.371-0.314,0.672-0.701,0.672l0,0     c-0.389,0-0.703-0.301-0.703-0.672v-0.35C257.023,439.896,257.338,439.596,257.727,439.596L257.727,439.596z" fill="#272525"/><g><path d="M256.978,441.199v8.965c0,0.272,0.233,0.497,0.516,0.497h0.463c0.283,0,0.516-0.225,0.516-0.497v-8.965      H256.978z" fill="#BBBCBF"/><path d="M257.727,450.661h0.23c0.283,0,0.516-0.225,0.516-0.497v-8.965h-0.746V450.661z" fill="#F0F0F1"/></g></g><g><path d="M263.289,439.596c0.389,0,0.703,0.301,0.703,0.672v0.35c0,0.371-0.314,0.672-0.703,0.672l0,0     c-0.389,0-0.701-0.301-0.701-0.672v-0.35C262.588,439.896,262.9,439.596,263.289,439.596L263.289,439.596z" fill="#272525"/><g><path d="M262.541,441.199v8.965c0,0.272,0.232,0.497,0.516,0.497h0.465c0.283,0,0.516-0.225,0.516-0.497v-8.965      H262.541z" fill="#BBBCBF"/><path d="M263.289,450.661h0.232c0.283,0,0.516-0.225,0.516-0.497v-8.965h-0.748V450.661z" fill="#F0F0F1"/></g></g><g><path d="M268.875,439.596c0.387,0,0.703,0.301,0.703,0.672v0.35c0,0.371-0.316,0.672-0.703,0.672l0,0     c-0.389,0-0.703-0.301-0.703-0.672v-0.35C268.172,439.896,268.486,439.596,268.875,439.596L268.875,439.596z" fill="#272525"/><g><path d="M268.127,441.199v8.965c0,0.272,0.232,0.497,0.516,0.497h0.465c0.283,0,0.514-0.225,0.514-0.497v-8.965      H268.127z" fill="#BBBCBF"/><path d="M268.875,450.661h0.232c0.283,0,0.514-0.225,0.514-0.497v-8.965h-0.746V450.661z" fill="#F0F0F1"/></g></g><rect fill="#E6E6E7" height="1.494" width="5.439" x="238.284" y="444.518"/><rect fill="#F1F1F2" height="0.478" width="5.439" x="238.284" y="444.278"/><rect fill="#E6E6E7" height="1.494" width="5.439" x="243.848" y="444.168"/><rect fill="#F1F1F2" height="0.479" width="5.439" x="243.848" y="443.93"/><rect fill="#E6E6E7" height="1.494" width="5.439" x="249.397" y="443.857"/><rect fill="#F1F1F2" height="0.479" width="5.439" x="249.397" y="443.617"/><rect fill="#E6E6E7" height="1.494" width="5.439" x="255.006" y="444.168"/><rect fill="#F1F1F2" height="0.479" width="5.439" x="255.006" y="443.93"/><rect fill="#E6E6E7" height="1.494" width="5.438" x="260.57" y="443.682"/><rect fill="#F1F1F2" height="0.479" width="5.438" x="260.57" y="443.441"/><rect fill="#E6E6E7" height="1.494" width="5.439" x="266.154" y="443.361"/><rect fill="#F1F1F2" height="0.478" width="5.439" x="266.154" y="443.123"/><path d="M271.996,448.613c0.568,0,1.031,0.323,1.031,0.719s-0.463,0.719-1.031,0.719h-34.319    c-0.567,0-1.031-0.323-1.031-0.719s0.464-0.719,1.031-0.719H271.996z" fill="#E4E4E4"/><path d="M237.677,450.051h34.319c0.568,0,1.031-0.323,1.031-0.719h-36.381    C236.646,449.728,237.11,450.051,237.677,450.051z" fill="#D0D1D3"/></g><rect fill="#929496" height="1.758" transform="matrix(0.5845 -0.8114 0.8114 0.5845 -249.4209 433.2193)" width="7.773" x="294.395" y="459.263"/><path d="M304.799,470.752c2.146,1.7,6.875,3.35,10.389,4.416c0.479-0.133,0.889-0.34,1.197-0.643   c0.514-0.502,0.764-1.141,0.816-1.868c-1.988-3.107-4.902-7.289-7.135-8.918c-3.734-2.727-11.189-3.032-11.189-3.032   S301.174,467.877,304.799,470.752z" fill="#929496"/><rect fill="#A6A8AA" height="1.49" transform="matrix(0.5842 -0.8116 0.8116 0.5842 -249.5911 434.824)" width="4.854" x="297.176" y="460.273"/><g><ellipse cx="305.738" cy="406.968" fill="#A6A8AA" rx="2.389" ry="2.433"/><path d="M310.115,410.23c0.193,0.207,0.182,0.534-0.025,0.728s-0.535,0.182-0.729-0.026l-8.785-9.429    c-0.193-0.208-0.184-0.535,0.025-0.729c0.207-0.192,0.535-0.182,0.729,0.026L310.115,410.23z" fill="#59595B"/><circle cx="305.809" cy="406.647" fill="#DCDCDC" r="2.372"/><path d="M304.738,407.299c0,0.723,0.553,1.428,1.213,1.707c1.016-0.062,1.852-0.756,2.125-1.697    c-0.176-0.773-0.844-1.529-1.66-1.529C305.465,405.779,304.738,406.348,304.738,407.299z" fill="#F1F1F2"/></g><path d="M304.365,327.828c0.068,0.094,2.439-2.193,3.66-5.352c1.297-3.359,3-12.043,3.104-12.905   c0.117-0.973-0.045-1.552-0.301-1.69c-0.254-0.14-0.926,0.533-1.043,1.459c-0.115,0.927-1.598,7.9-2.34,11.074   C306.705,323.589,304.295,327.735,304.365,327.828z" fill="#FFFFFF" opacity="0.5"/><path d="M332.658,477.312c0,0,5.611-10.155,4.584-25.216c-0.953-13.969-3.477-19.389-7.756-31.521   c-6.352-18.005-16.594-27.315-16.873-44.491c-0.279-17.177,10.783-23.868,12.926-47.26c1.541-16.824-6.816-23.883-7.127-22.281   s4.623,5.237,4.904,15.253c0.861,30.704-12.725,34.104-12.537,54.979c0.156,17.541,12.943,30.597,20.904,56.963   C339.869,460.849,332.658,477.312,332.658,477.312z" fill="#FFFFFF" opacity="0.5"/><g opacity="0.5"><path d="M332.713,477.184c0.033-0.083,0.082-0.205,0.145-0.375C332.811,476.918,332.762,477.042,332.713,477.184z" fill="#434244"/><path d="M313.469,301.096c-1.396,0.068-3.543,0.642-5.217,3.781c0.668,0.046,3.814-2.33,6.15-1.5    c1.672,0.594,3.098,2.294,4.133,3.955c0.025,0.041,0.051,0.084,0.076,0.125c-0.168-0.365-0.248-0.664-0.199-0.914    c0.311-1.602,8.668,5.457,7.127,22.281c-2.143,23.392-13.205,30.083-12.926,47.26c0.279,17.176,10.521,26.486,16.873,44.491    c4.279,12.132,6.803,17.552,7.756,31.521c0.99,14.533-4.197,24.496-4.563,25.176c-2.424,7.349-6.9,12.908-10.107,15.531    c-2.898,2.371-9.131,6.479-10.303,7.246c4.869-1.996,9.211-4.555,12.58-7.834c12.914-12.567,14.93-20.341,15.047-35.468    c0.289-36.792-24.705-59.478-24.857-80.694c-0.135-18.955,13.305-28.846,12.951-51.213    C327.635,302.472,316.551,300.947,313.469,301.096z" fill="#434244"/></g><path d="M200.873,273.729c-0.144,0.646,0.288,13.993,1.869,20.118   c2.299,8.909,8.837,12.896,8.945,12.753c0.108-0.144-6.055-6.958-7.329-13.04c-1.293-6.18-1.652-16.31-1.688-18.106   C202.633,273.658,201.017,273.083,200.873,273.729z" fill="#FFFFFF" opacity="0.5"/><path d="M175.762,460.375c0,0-2.038-12.158,5.329-35.525c7.579-24.039,18.977-40.266,19.421-56.485   c0.474-17.289-11.96-40.974-14.092-62.17c-2.062-20.505,5.329-30.789,5.329-30.789s-9.71,8.646-7.224,30.907   c2.487,22.264,14.991,42.879,14.092,62.644c-0.829,18.237-12.95,33.126-19.776,57.078   C172.091,449.719,175.762,460.375,175.762,460.375z" fill="#FFFFFF" opacity="0.5"/><path d="M203.022,498.05c1.549,0.636,3.167,1.223,4.834,1.769   c-4.455-3.229-15.165-7.848-21.426-15.191c-7.365-8.639-10.379-20.379-10.696-24.339c-0.315-1.017-3.306-11.753,3.107-34.254   c6.826-23.952,18.947-38.841,19.776-57.078c0.898-19.765-11.605-40.38-14.092-62.644c-2.487-22.262,7.224-30.907,7.224-30.907   s2.656-3.463,6.112-6.239c0.189-0.152,0.384-0.301,0.58-0.449c-8.899,0.686-17.274,14.346-16.191,33.842   c1.779,27.613,13.843,44.067,14.666,63.879c0.017,0.416,0.02,0.84,0.016,1.266c-0.001,0.096-0.003,0.191-0.006,0.287   c-0.008,0.4-0.024,0.807-0.051,1.217c-0.001,0.015-0.001,0.029-0.002,0.044c-1.26,19.36-21.945,48.474-24.507,77.724   c-0.258,3.417-0.301,6.833-0.101,10.23C174.221,483.348,186.943,491.455,203.022,498.05z" fill="#434244" opacity="0.5"/><g><path d="M251.665,509.882c-0.333,0.474-0.588,0.725-0.056,1.345c0.502,0.586,2.734,0.737,3.301,0.767V512    c0,0,0.027-0.002,0.066-0.004c0.039,0.002,0.066,0.004,0.066,0.004v-0.007c0.567-0.029,2.799-0.181,3.301-0.767    c0.531-0.62,0.277-0.871-0.057-1.345c-0.408-0.581-1.498-1.554-1.498-1.554h-1.747h-0.133h-1.748    C253.162,508.328,252.074,509.301,251.665,509.882z" fill="#E6E6E7"/><rect fill="#BBBCBF" height="0.658" width="3.632" x="253.16" y="507.67"/><path d="M255.346,506.616c-0.564,0-1.652-0.016-3.155-0.065c0.043,0.268,0.199,0.942,0.675,1.084    c0.609,0.182,1.951,0.164,2.11,0.162c0.159,0.002,1.5,0.02,2.11-0.162c0.404-0.12,0.576-0.625,0.646-0.939    C256.559,506.65,255.737,506.616,255.346,506.616z" fill="#D0D1D3"/></g><g><path d="M205.483,267.793c0.507-0.279,0.846-0.394,0.641-1.184c-0.194-0.746-2.132-1.863-2.629-2.139l0.002-0.006    c0,0-0.025-0.012-0.061-0.026c-0.034-0.019-0.058-0.032-0.058-0.032l-0.002,0.006c-0.522-0.223-2.594-1.066-3.303-0.761    c-0.75,0.323-0.632,0.661-0.541,1.232c0.113,0.702,0.663,2.054,0.663,2.054l1.57,0.768l0.12,0.059l1.57,0.768    C203.455,268.531,204.86,268.135,205.483,267.793z" fill="#E6E6E7"/><rect fill="#BBBCBF" height="3.631" transform="matrix(-0.4395 0.8983 -0.8983 -0.4395 531.0737 204.6618)" width="0.658" x="201.352" y="266.214"/><path d="M198.11,268.756c0.692-0.078,1.387-0.088,2.083-0.006c0,0,1.782,0.322,3.414,1.563    c0.063-0.318,0.089-0.773-0.19-1.029c-0.467-0.43-1.68-1.004-1.824-1.071c-0.142-0.073-1.339-0.677-1.966-0.782    C199.17,267.354,198.451,268.275,198.11,268.756z" fill="#D0D1D3"/></g><g><path d="M241.365,291.177c-0.005,0.413-0.011,0.823-0.016,1.231h27.807l-0.021-1.231H241.365z" fill="#BBBCBF"/><path d="M241.718,264.113c-0.005,0.412-0.011,0.822-0.016,1.232h27l-0.02-1.232H241.718z" fill="#BBBCBF"/><path d="M241.593,273.672c-0.005,0.411-0.011,0.822-0.016,1.231h27.286l-0.021-1.231H241.593z" fill="#BBBCBF"/><path d="M241.261,299.207c-0.005,0.413-0.011,0.824-0.016,1.232h28.046l-0.021-1.232H241.261z" fill="#BBBCBF"/><path d="M240.979,320.73c-0.005,0.416-0.011,0.827-0.016,1.23h28.689l-0.021-1.23H240.979z" fill="#BBBCBF"/><path d="M269.758,328.275l-0.02-1.231h-28.842c-0.005,0.42-0.011,0.831-0.016,1.231H269.758z" fill="#BBBCBF"/><path d="M241.161,306.836c-0.005,0.413-0.011,0.824-0.016,1.231h28.273l-0.02-1.231H241.161z" fill="#BBBCBF"/><path d="M241.85,253.96c-0.005,0.411-0.011,0.822-0.016,1.231h26.698l-0.02-1.231H241.85z" fill="#BBBCBF"/><path d="M241.068,313.932c-0.005,0.414-0.011,0.825-0.016,1.231h28.485l-0.02-1.231H241.068z" fill="#BBBCBF"/><path d="M241.476,282.703c-0.005,0.412-0.01,0.822-0.016,1.232h27.554l-0.021-1.232H241.476z" fill="#BBBCBF"/><path d="M242.999,164.779c-0.005,0.41-0.01,0.82-0.016,1.231h24.052l-0.021-1.231H242.999z" fill="#BBBCBF"/><path d="M243.201,148.803c-0.005,0.409-0.01,0.819-0.016,1.231h23.58l-0.02-1.231H243.201z" fill="#BBBCBF"/><path d="M243.638,113.769c-0.005,0.406-0.01,0.815-0.015,1.23h22.555l-0.02-1.23H243.638z" fill="#BBBCBF"/><path d="M243.417,131.607c-0.005,0.408-0.01,0.819-0.016,1.231h23.077l-0.021-1.231H243.417z" fill="#BBBCBF"/><path d="M241.983,243.698c-0.005,0.411-0.011,0.821-0.016,1.231h26.393l-0.021-1.231H241.983z" fill="#BBBCBF"/><path d="M242.807,179.766c-0.005,0.41-0.01,0.82-0.016,1.231h24.494l-0.02-1.231H242.807z" fill="#BBBCBF"/><path d="M242.624,194.095c-0.005,0.41-0.011,0.82-0.016,1.231h24.92l-0.021-1.231H242.624z" fill="#BBBCBF"/><path d="M242.13,232.354c-0.005,0.41-0.011,0.821-0.016,1.231h26.054l-0.02-1.231H242.13z" fill="#BBBCBF"/><path d="M242.287,220.245c-0.005,0.41-0.011,0.821-0.016,1.231h25.694l-0.02-1.231H242.287z" fill="#BBBCBF"/><path d="M242.449,207.636c-0.005,0.41-0.011,0.82-0.016,1.231h25.321l-0.021-1.231H242.449z" fill="#BBBCBF"/></g><g><path d="M241.369,290.92c-0.005,0.412-0.011,0.823-0.016,1.232h27.8l-0.021-1.232H241.369z" fill="#EDEDED"/><path d="M241.264,298.951c-0.005,0.412-0.011,0.822-0.016,1.23h28.039l-0.021-1.23H241.264z" fill="#EDEDED"/><path d="M241.479,282.447c-0.005,0.412-0.011,0.822-0.016,1.23h27.546l-0.021-1.23H241.479z" fill="#EDEDED"/><path d="M241.853,253.703c-0.005,0.412-0.011,0.822-0.016,1.232h26.69l-0.021-1.232H241.853z" fill="#EDEDED"/><path d="M241.597,273.415c-0.005,0.411-0.011,0.821-0.016,1.231h27.277l-0.02-1.231H241.597z" fill="#EDEDED"/><path d="M241.721,263.857c-0.005,0.411-0.011,0.822-0.016,1.231h26.992l-0.021-1.231H241.721z" fill="#EDEDED"/><path d="M269.754,328.02l-0.021-1.232H240.9c-0.005,0.42-0.011,0.83-0.016,1.232H269.754z" fill="#EDEDED"/><path d="M240.983,320.474c-0.006,0.416-0.011,0.827-0.016,1.231h28.682l-0.021-1.231H240.983z" fill="#EDEDED"/><path d="M241.072,313.675c-0.005,0.415-0.011,0.825-0.016,1.231h28.478l-0.02-1.231H241.072z" fill="#EDEDED"/><path d="M241.164,306.579c-0.005,0.413-0.01,0.823-0.016,1.231h28.266l-0.02-1.231H241.164z" fill="#EDEDED"/><path d="M242.811,179.509c-0.005,0.41-0.011,0.82-0.016,1.231h24.487l-0.02-1.231H242.811z" fill="#EDEDED"/><path d="M243.205,148.546c-0.005,0.409-0.01,0.819-0.016,1.231h23.573l-0.021-1.231H243.205z" fill="#EDEDED"/><path d="M243.002,164.522c-0.005,0.41-0.011,0.82-0.016,1.231h24.043l-0.02-1.231H243.002z" fill="#EDEDED"/><path d="M243.421,131.352c-0.005,0.407-0.01,0.818-0.016,1.23h23.067l-0.02-1.23H243.421z" fill="#EDEDED"/><path d="M243.641,113.512c-0.005,0.405-0.01,0.816-0.015,1.231h22.548l-0.02-1.231H243.641z" fill="#EDEDED"/><path d="M242.133,232.097c-0.005,0.411-0.011,0.821-0.016,1.231h26.047l-0.02-1.231H242.133z" fill="#EDEDED"/><path d="M242.29,219.988c-0.005,0.411-0.01,0.821-0.016,1.231h25.687l-0.021-1.231H242.29z" fill="#EDEDED"/><path d="M242.626,193.838c-0.005,0.41-0.01,0.821-0.016,1.231h24.911l-0.02-1.231H242.626z" fill="#EDEDED"/><path d="M241.986,243.441c-0.005,0.411-0.011,0.821-0.016,1.231h26.385l-0.021-1.231H241.986z" fill="#EDEDED"/><path d="M242.453,207.379c-0.005,0.41-0.011,0.821-0.016,1.231h25.313l-0.021-1.231H242.453z" fill="#EDEDED"/></g><polygon fill="#E6E6E7" points="265.844,95.082 265.822,93.851 243.852,93.851 243.836,95.082  "/><polygon fill="#FFFFFF" points="265.84,94.825 265.813,93.236 243.859,93.236 243.839,94.825  "/><polygon fill="#BBBCBF" points="263.721,12.111 268.783,440.719 269.084,440.709 264.021,12.109  "/><rect fill="#BBBCBF" height="0.336" transform="matrix(-0.0063 -1 1 -0.0063 31.1333 496.0013)" width="416.375" x="53.816" y="232.364"/><rect fill="#BBBCBF" height="0.371" transform="matrix(-0.0015 -1 1 -0.0015 19.3605 496.2259)" width="404.54" x="55.161" y="238.261"/><rect fill="#BBBCBF" height="0.439" transform="matrix(0.003 -1 1 0.003 5.7664 498.0744)" width="389.146" x="58.084" y="245.926"/><polygon fill="#BBBCBF" points="249.068,60.241 246.445,440.713 246.943,440.722 249.567,60.243  "/><polygon fill="#BBBCBF" points="245.283,76.237 240.866,440.708 241.457,440.726 245.874,76.24  "/><circle cx="254.843" cy="226.925" fill="#1B1B1B" r="1.534"/><circle cx="254.843" cy="201.42" fill="#1B1B1B" r="1.534"/><circle cx="254.843" cy="172.833" fill="#1B1B1B" r="1.534"/><circle cx="254.843" cy="140.646" fill="#1B1B1B" r="1.534"/><path d="M267.52,0.484l-0.357,83.258c0.285-0.866,0.629-1.748,1.043-2.61l0.348-80.863   C268.211,0.329,267.865,0.401,267.52,0.484z" fill="#DED0AE"/><path d="M270.42,77.686c0.436-0.501,0.871-0.973,1.301-1.418l0.027-76.267c-0.49-0.005-1.008,0.012-1.545,0.056   l-0.029,77.926C270.256,77.883,270.336,77.782,270.42,77.686z" fill="#E5D6B1"/><g><circle cx="244.364" cy="74.508" fill="#D0D1D3" r="2.831"/><path d="M241.553,74.84c0.165,1.407,1.359,2.499,2.811,2.499s2.646-1.092,2.81-2.499H241.553z" fill="#BBBCBF"/><circle cx="244.364" cy="74.148" fill="#6D6E70" r="1.547"/><circle cx="244.364" cy="73.348" fill="#F1F1F2" r="1.492"/><path d="M242.872,73.348c0,0.824,0.668,1.492,1.492,1.492s1.492-0.668,1.492-1.492H242.872z" fill="#E6E6E7"/></g><g><circle cx="248.032" cy="62.353" fill="#D0D1D3" r="2.831"/><path d="M245.222,62.684c0.165,1.408,1.359,2.5,2.811,2.5c1.451,0,2.646-1.092,2.81-2.5H245.222z" fill="#BBBCBF"/><circle cx="248.032" cy="61.993" fill="#6D6E70" r="1.547"/><circle cx="248.032" cy="61.192" fill="#F1F1F2" r="1.491"/><path d="M246.541,61.192c0,0.824,0.668,1.491,1.492,1.491s1.492-0.667,1.492-1.491H246.541z" fill="#E6E6E7"/></g><g><circle cx="251.773" cy="50.054" fill="#D0D1D3" r="2.832"/><path d="M248.962,50.386c0.165,1.407,1.359,2.5,2.811,2.5s2.646-1.093,2.81-2.5H248.962z" fill="#BBBCBF"/><circle cx="251.773" cy="49.695" fill="#6D6E70" r="1.547"/><circle cx="251.773" cy="48.894" fill="#F1F1F2" r="1.492"/><path d="M250.281,48.894c0,0.824,0.668,1.492,1.492,1.492s1.492-0.668,1.492-1.492H250.281z" fill="#E6E6E7"/></g><g><circle cx="255.502" cy="37.888" fill="#D0D1D3" r="2.832"/><path d="M252.692,38.22c0.165,1.407,1.359,2.5,2.811,2.5c1.451,0,2.646-1.093,2.81-2.5H252.692z" fill="#BBBCBF"/><circle cx="255.502" cy="37.529" fill="#6D6E70" r="1.547"/><circle cx="255.502" cy="36.728" fill="#F1F1F2" r="1.492"/><path d="M254.011,36.728c0,0.824,0.667,1.492,1.492,1.492c0.823,0,1.491-0.668,1.491-1.492H254.011z" fill="#E6E6E7"/></g><g><circle cx="259.162" cy="25.832" fill="#D0D1D3" r="2.832"/><path d="M256.352,26.163c0.164,1.407,1.359,2.5,2.81,2.5s2.646-1.093,2.811-2.5H256.352z" fill="#BBBCBF"/><circle cx="259.162" cy="25.473" fill="#6D6E70" r="1.547"/><circle cx="259.162" cy="24.671" fill="#F1F1F2" r="1.492"/><path d="M257.67,24.672c0,0.823,0.668,1.491,1.492,1.491s1.492-0.668,1.492-1.491H257.67z" fill="#E6E6E7"/></g><g><circle cx="262.877" cy="13.667" fill="#D0D1D3" r="2.832"/><path d="M260.066,13.999c0.164,1.407,1.357,2.5,2.811,2.5c1.451,0,2.645-1.093,2.809-2.5H260.066z" fill="#BBBCBF"/><circle cx="262.877" cy="13.309" fill="#6D6E70" r="1.547"/><circle cx="262.877" cy="12.507" fill="#F1F1F2" r="1.492"/><path d="M261.385,12.508c0,0.823,0.668,1.491,1.492,1.491c0.822,0,1.49-0.668,1.49-1.491H261.385z" fill="#E6E6E7"/></g><g><rect fill="#D0D1D3" height="2.775" transform="matrix(0.2893 -0.9572 0.9572 0.2893 100.6764 278.6217)" width="1.764" x="237.089" y="70.125"/><rect fill="#B7B7B7" height="2.775" transform="matrix(0.2892 -0.9573 0.9573 0.2892 100.2031 278.8141)" width="0.881" x="237.402" y="70.547"/><rect fill="#808183" height="0.379" opacity="0.7" transform="matrix(0.2893 -0.9572 0.9572 0.2893 100.1931 277.2773)" width="1.764" x="235.942" y="70.976"/><ellipse cx="233.538" cy="70.173" fill="#D0D1D3" rx="4.588" ry="3.348" transform="matrix(0.2893 -0.9573 0.9573 0.2893 98.8133 273.4307)"/><path d="M236.743,71.142c-0.733,2.426-2.762,3.959-4.532,3.424c-1.77-0.535-2.61-2.935-1.877-5.36L236.743,71.142z    " fill="#929496"/><path d="M230.334,69.205L230.334,69.205c-0.681,2.253,0.202,4.513,1.972,5.048c1.77,0.534,3.756-0.858,4.437-3.111    l0,0L230.334,69.205z" fill="#BFBFBF"/></g><g><rect fill="#D0D1D3" height="2.775" transform="matrix(0.2893 -0.9572 0.9572 0.2893 114.7131 273.6111)" width="1.764" x="240.733" y="58.167"/><rect fill="#B7B7B7" height="2.775" transform="matrix(0.2894 -0.9572 0.9572 0.2894 114.1963 273.7756)" width="0.882" x="241.046" y="58.588"/><rect fill="#808183" height="0.379" opacity="0.7" transform="matrix(0.2895 -0.9572 0.9572 0.2895 114.1735 272.2336)" width="1.764" x="239.586" y="59.018"/><ellipse cx="237.183" cy="58.214" fill="#D0D1D3" rx="4.588" ry="3.347" transform="matrix(0.2893 -0.9573 0.9573 0.2893 112.8514 268.4196)"/><path d="M240.387,59.184c-0.733,2.425-2.762,3.958-4.531,3.423c-1.77-0.534-2.61-2.935-1.877-5.359L240.387,59.184    z" fill="#929496"/><path d="M233.978,57.246L233.978,57.246c-0.681,2.253,0.202,4.514,1.972,5.048c1.77,0.535,3.756-0.858,4.437-3.11    v-0.001L233.978,57.246z" fill="#BFBFBF"/></g><g><rect fill="#D0D1D3" height="2.775" transform="matrix(0.2893 -0.9572 0.9572 0.2893 128.8466 268.5728)" width="1.764" x="244.407" y="46.129"/><rect fill="#B7B7B7" height="2.775" transform="matrix(0.2897 -0.9571 0.9571 0.2897 128.2578 268.7013)" width="0.882" x="244.72" y="46.552"/><rect fill="#808183" height="0.379" opacity="0.7" transform="matrix(0.2895 -0.9572 0.9572 0.2895 128.3052 267.198)" width="1.764" x="243.26" y="46.981"/><ellipse cx="240.856" cy="46.178" fill="#D0D1D3" rx="4.588" ry="3.347" transform="matrix(0.2893 -0.9573 0.9573 0.2893 126.9842 263.3817)"/><path d="M244.061,47.146c-0.733,2.426-2.762,3.959-4.531,3.424c-1.77-0.535-2.61-2.935-1.877-5.36L244.061,47.146z    " fill="#929496"/><path d="M237.652,45.21L237.652,45.21c-0.681,2.253,0.202,4.513,1.972,5.048c1.77,0.534,3.756-0.858,4.437-3.111    l0,0L237.652,45.21z" fill="#BFBFBF"/></g><g><rect fill="#D0D1D3" height="2.775" transform="matrix(0.2893 -0.9572 0.9572 0.2893 142.8166 263.574)" width="1.764" x="248.025" y="34.222"/><rect fill="#B7B7B7" height="2.775" transform="matrix(0.2889 -0.9574 0.9574 0.2889 142.4188 263.7968)" width="0.882" x="248.338" y="34.644"/><rect fill="#808183" height="0.379" opacity="0.7" transform="matrix(0.2893 -0.9572 0.9572 0.2893 142.3333 262.2297)" width="1.764" x="246.878" y="35.074"/><ellipse cx="244.475" cy="34.271" fill="#D0D1D3" rx="4.589" ry="3.347" transform="matrix(0.2892 -0.9573 0.9573 0.2892 140.9614 258.385)"/><path d="M247.679,35.239c-0.733,2.425-2.762,3.958-4.531,3.424c-1.77-0.535-2.61-2.936-1.877-5.36L247.679,35.239z    " fill="#929496"/><path d="M241.271,33.303L241.271,33.303c-0.681,2.253,0.202,4.513,1.972,5.047c1.77,0.535,3.756-0.857,4.437-3.11    l0-0.001L241.271,33.303z" fill="#BFBFBF"/></g><g><rect fill="#D0D1D3" height="2.775" transform="matrix(0.2893 -0.9572 0.9572 0.2893 156.8546 258.5828)" width="1.764" x="251.683" y="22.273"/><rect fill="#B7B7B7" height="2.775" transform="matrix(0.2889 -0.9574 0.9574 0.2889 156.4597 258.8012)" width="0.882" x="251.996" y="22.695"/><rect fill="#808183" height="0.379" opacity="0.7" transform="matrix(0.2893 -0.9572 0.9572 0.2893 156.3712 257.2384)" width="1.764" x="250.536" y="23.125"/><ellipse cx="248.132" cy="22.321" fill="#D0D1D3" rx="4.589" ry="3.347" transform="matrix(0.2892 -0.9573 0.9573 0.2892 154.9997 253.3932)"/><path d="M251.336,23.29c-0.733,2.425-2.762,3.958-4.531,3.424c-1.77-0.535-2.61-2.936-1.877-5.36L251.336,23.29z" fill="#929496"/><path d="M244.928,21.354L244.928,21.354c-0.681,2.253,0.202,4.513,1.972,5.047c1.77,0.535,3.756-0.857,4.437-3.11    l0-0.001L244.928,21.354z" fill="#BFBFBF"/></g><g><rect fill="#D0D1D3" height="2.775" transform="matrix(0.2893 -0.9572 0.9572 0.2893 170.9491 253.5252)" width="1.764" x="255.324" y="10.253"/><rect fill="#B7B7B7" height="2.775" transform="matrix(0.2889 -0.9574 0.9574 0.2889 170.5573 253.7392)" width="0.882" x="255.637" y="10.675"/><rect fill="#808183" height="0.379" opacity="0.7" transform="matrix(0.2893 -0.9572 0.9572 0.2893 170.466 252.1811)" width="1.764" x="254.178" y="11.104"/><ellipse cx="251.774" cy="10.301" fill="#D0D1D3" rx="4.588" ry="3.347" transform="matrix(0.2893 -0.9573 0.9573 0.2893 169.0871 248.333)"/><path d="M254.978,11.27c-0.733,2.426-2.762,3.958-4.531,3.424c-1.77-0.535-2.61-2.936-1.877-5.36L254.978,11.27z" fill="#929496"/><path d="M248.57,9.333L248.57,9.333c-0.681,2.253,0.202,4.513,1.972,5.047c1.77,0.535,3.756-0.857,4.437-3.11h0    L248.57,9.333z" fill="#BFBFBF"/></g><rect fill="#A6A8AA" height="2.959" width="2.381" x="259.551" y="54.313"/><rect fill="#E6E6E7" height="2.959" width="0.615" x="259.977" y="54.313"/><rect fill="#A6A8AA" height="2.959" width="2.721" x="262.52" y="54.313"/><rect fill="#E6E6E7" height="2.959" width="0.617" x="264.199" y="54.313"/><circle cx="262.32" cy="55.793" fill="#E6E6E7" r="1.454"/><path d="M260.865,55.793c0,0.804,0.652,1.454,1.455,1.454s1.453-0.65,1.453-1.454H260.865z" fill="#D0D1D3"/><rect fill="#808183" height="1.871" transform="matrix(-0.4527 -0.8916 0.8916 -0.4527 331.3318 314.9497)" width="0.354" x="262.143" y="54.858"/><rect fill="#808183" height="1.871" transform="matrix(-0.8911 0.4538 -0.4538 -0.8911 521.3917 -13.5309)" width="0.355" x="262.142" y="54.857"/></g></svg>