<?xml version="1.0" ?><!DOCTYPE svg  PUBLIC '-//W3C//DTD SVG 1.1//EN'  'http://www.w3.org/Graphics/SVG/1.1/DTD/svg11.dtd'><svg enable-background="new 0 0 512 512" height="512px" id="guitar2" version="1.1" viewBox="0 0 512 512" width="512px" xml:space="preserve" xmlns="http://www.w3.org/2000/svg" xmlns:xlink="http://www.w3.org/1999/xlink"><path d="M270.148,323.639c0,0,2.82,11.807,13.898,9.676c4.455-0.857,13.969-4.799,17.566-17.482  c3.301-11.631,5.057-14.738,9.256-16.624s9.068,1.956,9.068,1.956l-21.15,28.037l-15.512,12.598l-10.541-6.514l-2.271-4.424  L270.148,323.639z" fill="#C1A352"/><path d="M193.98,299.551c0,0,8.912-4.457,14.654-3.942s6.78,1.026,10.455,1.971  c8.998,2.313,15.093,9.542,19.037,7.831c4.372-1.896,3.872-5.688,3.872-5.688l-1.228,10.112L193.98,299.551z" fill="#C1A352"/><path d="M241.851,301.061c0,0-0.036,5.063-6.289,5.766c-3.11,0.35-11.016-7.631-23.734-9.901  c-11.728-2.094-17.011,2.115-18.93,3.349c-1.918,1.234-9.704,7.216-10.049,22.492c-0.448,19.84,13.891,36.482,13.252,52.644  c-0.572,14.487-7.689,23.961-13.833,38.296c-7.699,17.962-9.987,27.129-10.484,41.79c-0.497,14.661,5.295,23.881,9.174,29.997  c6.217,9.801,20.166,20.542,46.741,21.986c18.836,1.023,44.222,0.734,60.72-0.728c20.711-1.835,35.107-8.922,45.576-26.793  c11.125-18.992,4.084-42.006,3.703-43.442c-7.383-27.896-21.283-41.612-21.904-58.922c-0.621-17.311,11.031-32.174,12.814-48.052  c1.781-15.878-3.494-22.971-4.66-24.608c-1.168-1.638-6.527-7.614-11.939-4.514c-5.414,3.1-5.727,6.797-5.971,8.008  c-0.637,3.147-5.037,18.961-13.979,24.172c-15.883,9.256-21.988-7.28-21.988-7.28L241.851,301.061z" fill="#E6C462"/><g opacity="0.4"><path d="M189.607,304.306c0,0-0.482,0.505-1.164,1.604c-0.17,0.275-0.36,0.582-0.57,0.92   c-0.178,0.356-0.372,0.745-0.581,1.165c-0.456,0.821-0.808,1.845-1.261,2.963c-0.25,0.551-0.375,1.181-0.568,1.818   c-0.178,0.643-0.365,1.314-0.56,2.016c-0.123,0.718-0.25,1.465-0.383,2.239c-0.118,0.776-0.315,1.57-0.33,2.415   c-0.273,3.34-0.393,7.18,0.105,11.281c0.473,4.12,1.756,8.442,3.454,12.893c0.832,2.236,1.725,4.513,2.646,6.845   c0.94,2.322,1.9,4.694,2.877,7.106c0.924,2.438,1.855,4.936,2.479,7.56c0.159,0.654,0.319,1.311,0.479,1.97   c0.106,0.67,0.212,1.341,0.318,2.014c0.089,0.676,0.246,1.346,0.281,2.029l0.142,2.053c0.137,1.371,0.093,2.762,0.058,4.131   l-0.183,2.084c-0.07,0.693-0.204,1.375-0.303,2.064c-0.476,2.742-1.192,5.448-2.092,8.086c-1.81,5.277-4.208,10.314-6.662,15.199   c-1.228,2.441-2.445,4.862-3.648,7.255c-1.153,2.398-2.278,4.814-3.228,7.221c-1.019,2.384-1.84,4.809-2.693,7.156   c-0.759,2.382-1.562,4.693-2.155,7c-1.343,4.571-2.167,9.002-2.811,13.1c-0.1,1.031-0.199,2.041-0.294,3.028   c-0.078,0.998-0.224,1.936-0.217,2.891c-0.024,1.895-0.149,3.702-0.083,5.383c0.091,3.362,0.354,6.298,0.783,8.679   c0.215,1.19,0.401,2.255,0.653,3.16c0.115,0.455,0.221,0.877,0.319,1.263c0.123,0.379,0.234,0.723,0.334,1.03   c0.401,1.234,0.721,1.842,0.721,1.842l-0.154,0.086c0,0-0.349-0.617-0.791-1.848c-0.111-0.308-0.234-0.651-0.37-1.03   c-0.11-0.386-0.23-0.808-0.361-1.263c-0.29-0.905-0.498-1.975-0.724-3.173c-0.461-2.396-0.763-5.345-0.896-8.746   c-0.086-1.699,0.017-3.494,0.018-5.393c-0.025-0.947,0.133-1.94,0.208-2.929c0.098-0.996,0.197-2.015,0.298-3.056   c0.648-4.126,1.48-8.583,2.829-13.175c1.263-4.613,2.899-9.388,4.874-14.222c0.963-2.437,2.074-4.821,3.242-7.25   c1.205-2.394,2.423-4.815,3.652-7.258c2.451-4.877,4.839-9.894,6.635-15.128c1.741-5.239,2.963-10.705,2.495-16.156l-0.14-2.028   c-0.034-0.677-0.188-1.337-0.277-2.003c-0.105-0.665-0.209-1.327-0.313-1.988c-0.158-0.65-0.316-1.299-0.473-1.945   c-0.615-2.591-1.537-5.068-2.457-7.494c-0.976-2.412-1.936-4.784-2.875-7.106c-0.918-2.329-1.815-4.616-2.647-6.853   c-1.701-4.458-3.005-8.848-3.482-13.017c-0.504-4.178-0.397-8.005-0.048-11.399c0.028-0.852,0.239-1.655,0.37-2.438   c0.146-0.781,0.287-1.534,0.421-2.258c0.208-0.706,0.407-1.384,0.597-2.032c0.206-0.643,0.341-1.274,0.603-1.83   c0.481-1.123,0.833-2.16,1.337-2.972c0.228-0.416,0.438-0.801,0.631-1.153c0.225-0.334,0.429-0.638,0.611-0.909   c0.732-1.087,1.237-1.576,1.237-1.576L189.607,304.306z" fill="#F1F1F2"/></g><g opacity="0.4"><path d="M338.583,465.174c-0.001,0,0.084-0.662,0.209-1.905c0.05-0.623,0.111-1.391,0.183-2.294   c0.035-0.906,0.121-1.943,0.161-3.107c0.007-1.165,0.103-2.453,0.04-3.855c-0.013-0.701-0.025-1.431-0.038-2.188   c-0.031-0.755-0.108-1.535-0.163-2.343c-0.063-1.616-0.417-3.317-0.687-5.086c-0.427-1.773-0.875-3.638-1.344-5.583   c-0.233-0.973-0.473-1.966-0.716-2.978c-0.258-1.008-0.619-2.002-0.932-3.03c-0.652-2.05-1.327-4.168-2.021-6.346   c-1.668-4.263-3.301-8.81-5.455-13.321c-1.959-4.596-4.428-9.145-6.618-13.928c-2.208-4.769-4.218-9.77-5.359-15.02   c-0.226-1.323-0.523-2.636-0.688-3.965c-0.1-1.338-0.2-2.675-0.3-4.009c-0.058-2.665,0.175-5.345,0.615-7.946   c0.896-5.216,2.676-10.134,4.64-14.738c0.977-2.307,2.033-4.535,2.923-6.754c0.824-2.235,1.554-4.493,2.208-6.675   c1.273-4.384,2.232-8.62,2.525-12.594c0.146-0.987,0.115-1.963,0.151-2.914c0.013-0.476,0.024-0.945,0.036-1.41l0.015-0.691   l-0.053-0.682c-0.153-1.817-0.205-3.504-0.563-5.104c-0.15-0.798-0.266-1.58-0.43-2.317c-0.208-0.722-0.408-1.418-0.601-2.087   c-0.096-0.334-0.19-0.662-0.282-0.983c-0.123-0.312-0.244-0.615-0.362-0.913c-0.238-0.595-0.466-1.162-0.681-1.7   c-1.015-2.082-1.944-3.66-2.713-4.639c-0.36-0.509-0.683-0.859-0.895-1.102c-0.211-0.242-0.334-0.352-0.334-0.352l0.082-0.092   c0-0.001,0.133,0.107,0.356,0.343c0.225,0.234,0.567,0.576,0.954,1.072c0.829,0.95,1.839,2.507,2.887,4.611   c0.228,0.541,0.469,1.111,0.721,1.71c0.124,0.3,0.252,0.606,0.383,0.92c0.1,0.325,0.201,0.658,0.306,0.998   c0.207,0.68,0.424,1.388,0.648,2.121c0.178,0.741,0.306,1.517,0.47,2.313c0.396,1.575,0.45,3.359,0.602,5.176l0.054,0.691   l-0.015,0.701c-0.012,0.471-0.023,0.946-0.035,1.428c-0.037,0.963-0.007,1.952-0.154,2.949c-0.297,4.019-1.264,8.29-2.545,12.701   c-0.663,2.21-1.382,4.438-2.223,6.72c-0.902,2.251-1.955,4.47-2.929,6.77c-1.955,4.584-3.718,9.461-4.603,14.615   c-0.434,2.576-0.662,5.191-0.606,7.84c0.099,1.316,0.197,2.635,0.296,3.954c0.163,1.313,0.458,2.609,0.681,3.916   c1.128,5.188,3.121,10.151,5.321,14.903c2.184,4.768,4.654,9.318,6.621,13.931c2.16,4.524,3.8,9.088,5.475,13.365   c0.697,2.19,1.376,4.322,2.032,6.385c0.314,1.034,0.678,2.038,0.936,3.047c0.244,1.012,0.483,2.005,0.717,2.978   c0.469,1.945,0.917,3.81,1.345,5.583c0.162,0.922,0.267,1.798,0.397,2.662c0.15,0.858,0.2,1.7,0.245,2.516   c0.046,0.815,0.114,1.604,0.137,2.365c0.001,0.763,0.002,1.497,0.003,2.203c0.023,1.412-0.108,2.704-0.148,3.873   c-0.149,2.335-0.393,4.157-0.56,5.397c-0.184,1.239-0.299,1.896-0.299,1.896L338.583,465.174z" fill="#F1F1F2"/></g><path d="M232.584,402.217c0,0,0-1.899,0-3.791c0-1.893,1.597-2.668,2.808-2.668s39.717,0,41.275,0  s2.105,1.402,2.105,1.966s0,4.493,0,4.493s33.314,0,36.924,0c3.611,0,2.807-1.869,1.795-4.238  c-0.773-1.814-5.311-10.73-5.738-21.675c-0.42-10.738,4.564-18.393,8.328-28.776c3.764-10.385,4.855-16.941,4.74-24.914  c-0.121-8.614-3.279-18.979-9.893-18.57c-10.801,0.666-3.688,28.254-28.236,34.57c-8.783,2.26-13.742-3.273-15.309-5.17  c-0.271-0.328-0.754-0.301-0.754-0.301l-29.201-18.532c0,0-11.47-2.36-22.463,26.253c-5.883,15.313-7.152,30.188-7.301,40.013  c-0.148,9.825,1.853,15.934,2.667,18.111c0.814,2.177,1.583,3.212,3.37,3.229C219.49,402.233,232.584,402.217,232.584,402.217z" fill="#0E0E0E"/><path d="M269.675,345.678c1.762,0,3.203,1.441,3.203,3.203v1.225c0,1.762-1.441,3.203-3.203,3.203h-27.732  c-1.762,0-3.203-1.441-3.203-3.203v-1.225c0-1.762,1.441-3.203,3.203-3.203H269.675z" fill="#CDCDCD"/><g opacity="0.4"><path d="M299.979,325.199c0,0.001,0.153-0.261,0.392-0.731c0.221-0.479,0.586-1.13,0.929-1.963   c0.337-0.836,0.799-1.777,1.167-2.841c0.38-1.058,0.784-2.187,1.188-3.314c0.382-1.144,0.763-2.286,1.119-3.358   c0.359-1.071,0.726-2.062,1.023-2.915c0.613-1.701,1.06-2.823,1.06-2.823l0.035,0.012c0,0-0.291,1.172-0.783,2.913   c-0.254,0.867-0.533,1.886-0.865,2.965c-0.334,1.08-0.69,2.231-1.046,3.383c-0.409,1.14-0.853,2.269-1.25,3.332   c-0.182,0.538-0.428,1.03-0.663,1.496c-0.23,0.467-0.448,0.908-0.649,1.315c-0.383,0.823-0.847,1.441-1.103,1.901   c-0.283,0.446-0.474,0.682-0.474,0.682L299.979,325.199z" fill="#F1F1F2"/></g><g opacity="0.4"><path d="M270.075,326.032c0,0,0.352,0.413,0.783,1.111c0.204,0.352,0.472,0.748,0.673,1.217   c0.217,0.452,0.447,0.935,0.679,1.417c0.233,0.481,0.467,0.964,0.686,1.415c0.267,0.414,0.515,0.8,0.728,1.131   c0.104,0.168,0.234,0.297,0.332,0.425c0.103,0.126,0.192,0.235,0.266,0.325c0.156,0.169,0.256,0.257,0.257,0.257l-0.045,0.061   c0,0-0.112-0.076-0.295-0.23c-0.085-0.081-0.189-0.181-0.309-0.294c-0.114-0.119-0.268-0.233-0.391-0.396   c-0.25-0.326-0.543-0.705-0.855-1.112c-0.245-0.438-0.505-0.906-0.766-1.375c-0.122-0.221-0.274-0.485-0.385-0.715   c-0.117-0.232-0.232-0.461-0.344-0.682c-0.211-0.448-0.461-0.837-0.653-1.184c-0.398-0.678-0.702-1.114-0.702-1.114   L270.075,326.032z" fill="#F1F1F2"/></g><path d="M303.376,394.651c4.68,0,8.508,4.035,8.508,8.969v65.479c0,4.934-3.828,8.97-8.508,8.97  c-4.678,0-8.506-4.036-8.506-8.97V403.62C294.871,398.686,298.699,394.651,303.376,394.651z" fill="#ECECEC"/><circle cx="217.3" cy="399.173" fill="#959595" r="1.435"/><circle cx="237.346" cy="319.344" fill="#959595" r="1.435"/><circle cx="286.941" cy="399.447" fill="#959595" r="1.435"/><circle cx="315.46" cy="310.173" fill="#959595" r="1.435"/><circle cx="314.992" cy="399.572" fill="#959595" r="1.435"/><path d="M238.74,349.494v0.612c0,1.762,1.441,3.203,3.203,3.203h27.732  c1.762,0,3.203-1.441,3.203-3.203v-0.612H238.74z" fill="#6D6E70" opacity="0.2"/><g><path d="M216.255,293.018c0.387-0.402,0.667-0.606,0.25-1.275c-0.395-0.633-2.504-1.104-3.042-1.214l0.001-0.005   c0,0-0.026-0.004-0.064-0.008c-0.037-0.008-0.063-0.012-0.063-0.012l-0.001,0.006c-0.546-0.055-2.701-0.234-3.266,0.252   c-0.598,0.515-0.391,0.792-0.142,1.293c0.307,0.614,1.205,1.702,1.205,1.702l1.669,0.255l0.127,0.02l1.669,0.254   C214.598,294.286,215.779,293.514,216.255,293.018z" fill="#E6E6E7"/><rect fill="#BBBCBF" height="3.51" transform="matrix(-0.1504 0.9886 -0.9886 -0.1504 535.8196 128.2216)" width="0.636" x="212.499" y="292.581"/><path d="M212.118,296.802c0.539,0.082,1.438,0.206,2.867,0.472c-0.002-0.262,0.229-2.079-0.206-2.283   c-0.556-0.262-1.84-0.441-1.992-0.462c-0.151-0.026-1.43-0.237-2.039-0.153c-0.404,0.057-0.786,1.714-0.899,2.004   C210.964,296.592,211.745,296.745,212.118,296.802z" fill="#D0D1D3"/></g><g><path d="M235.28,397.85v40.066c0,2.114,1.729,3.844,3.844,3.844h32.956c2.113,0,3.844-1.729,3.844-3.844V397.85   H235.28z" fill="#ECECEC"/><path d="M236.377,439.309c0.675,1.009,1.824,1.677,3.123,1.677h32.203c1.299,0,2.447-0.668,3.123-1.677H236.377z" fill="#434244"/><g><path d="M270.732,409.075c2.832,0.852,4.471,3.808,3.643,6.566c-0.832,2.76-3.828,4.32-6.662,3.467l-26.418-7.947    c-2.833-0.854-4.472-3.809-3.642-6.568c0.83-2.758,3.828-4.319,6.661-3.467L270.732,409.075z" fill="#060505"/><path d="M270.656,409.711c2.832,0.854,4.473,3.809,3.643,6.568c-0.832,2.76-3.828,4.319-6.66,3.467l-26.42-7.948    c-2.833-0.853-4.472-3.808-3.642-6.567c0.83-2.759,3.828-4.319,6.661-3.468L270.656,409.711z" fill="#313131"/><circle cx="241.986" cy="406.514" fill="#636363" r="1.416"/><circle cx="247.571" cy="408.194" fill="#636363" r="1.416"/><circle cx="253.157" cy="409.875" fill="#636363" r="1.416"/><path d="M259.148,410.2c0.752,0.227,1.174,1.016,0.951,1.765c-0.227,0.749-1.014,1.173-1.766,0.946    c-0.748-0.225-1.172-1.014-0.947-1.762C257.613,410.4,258.402,409.975,259.148,410.2z" fill="#636363"/><circle cx="264.328" cy="413.237" fill="#636363" r="1.416"/><path d="M270.322,413.561c0.75,0.226,1.174,1.016,0.947,1.764c-0.225,0.748-1.014,1.174-1.762,0.947    c-0.752-0.225-1.174-1.014-0.949-1.762C268.783,413.76,269.572,413.335,270.322,413.561z" fill="#636363"/><path d="M237.576,405.231L237.576,405.231c-0.83,2.76,0.809,5.715,3.642,6.567l26.42,7.948    c2.832,0.853,5.828-0.707,6.66-3.467l0,0L237.576,405.231z" fill="#272525" opacity="0.5"/></g><g><path d="M254.919,425.035l-0.34,17.239c-0.008,0.393,0.307,0.713,0.699,0.713h0.476    c0.392,0,0.707-0.32,0.699-0.713l-0.341-17.239H254.919z" fill="#6D6E70"/><path d="M255.278,442.987h0.238v-17.952h-0.597l-0.34,17.239C254.571,442.667,254.885,442.987,255.278,442.987z" fill="#A6A8AA"/></g><g><path d="M266.41,424.918l-0.34,17.239c-0.008,0.392,0.307,0.714,0.699,0.714h0.477    c0.391,0,0.707-0.322,0.699-0.714l-0.342-17.239H266.41z" fill="#6D6E70"/><path d="M266.769,442.872h0.238v-17.953h-0.598l-0.34,17.239C266.062,442.549,266.376,442.872,266.769,442.872z" fill="#A6A8AA"/></g><g><path d="M243.679,425.147l-0.341,17.239c-0.007,0.393,0.307,0.714,0.7,0.714h0.476    c0.392,0,0.707-0.321,0.699-0.714l-0.341-17.239H243.679z" fill="#6D6E70"/><path d="M244.038,443.1h0.238v-17.953h-0.597l-0.341,17.239C243.331,442.779,243.645,443.1,244.038,443.1z" fill="#A6A8AA"/></g><g><rect fill="#C9A24D" height="4.041" width="10.876" x="238.874" y="430.854"/><rect fill="#A2833F" height="2.02" width="10.876" x="238.874" y="432.875"/><circle cx="240.211" cy="432.875" fill="#A6A8AA" r="0.773"/><circle cx="248.413" cy="432.875" fill="#A6A8AA" r="0.773"/><rect fill="#434244" height="0.356" width="5.646" x="241.489" y="432.697"/></g><g><rect fill="#C9A24D" height="4.041" width="10.876" x="250.249" y="429.604"/><rect fill="#A2833F" height="2.021" width="10.876" x="250.249" y="431.625"/><circle cx="251.586" cy="431.625" fill="#A6A8AA" r="0.772"/><circle cx="259.787" cy="431.625" fill="#A6A8AA" r="0.772"/><rect fill="#434244" height="0.357" width="5.646" x="252.864" y="431.446"/></g><g><rect fill="#C9A24D" height="4.041" width="10.875" x="261.51" y="428.444"/><rect fill="#A2833F" height="2.021" width="10.875" x="261.51" y="430.463"/><circle cx="262.845" cy="430.464" fill="#A6A8AA" r="0.772"/><circle cx="271.046" cy="430.464" fill="#A6A8AA" r="0.772"/><rect fill="#434244" height="0.356" width="5.646" x="264.123" y="430.286"/></g><path d="M236.782,440.956c0.65,0.502,1.461,0.805,2.342,0.805h32.956c0.881,0,1.691-0.303,2.342-0.805H236.782z" fill="#ECECEC"/><circle cx="242.445" cy="414.189" fill="#959595" r="1.435"/><circle cx="264.564" cy="420.979" fill="#959595" r="1.436"/><circle cx="258.125" cy="403.341" fill="#959595" r="1.435"/><circle cx="241.789" cy="438.039" fill="#3E331A" r="0.958"/><circle cx="247.385" cy="438.039" fill="#3E331A" r="0.958"/><circle cx="252.981" cy="438.039" fill="#3E331A" r="0.958"/><circle cx="258.578" cy="438.039" fill="#3E331A" r="0.958"/><circle cx="264.173" cy="438.039" fill="#3E331A" r="0.958"/><circle cx="269.769" cy="438.039" fill="#3E331A" r="0.958"/></g><circle cx="303.427" cy="475.343" fill="#959595" r="1.435"/><circle cx="303.427" cy="424.412" fill="#959595" r="1.435"/><circle cx="303.427" cy="402.966" fill="#959595" r="1.435"/><circle cx="303.427" cy="397.564" fill="#959595" r="1.449"/><path d="M303.509,461.742c2.791,0,5.166,3.011,5.197,6.625c0.008,0.935-0.127,0.22-0.439,0.87  c-0.596,1.246-1.945,1.766-3.779,1.766c-1.201,0-3.418,1.295-4.285,0.611c-1.148-0.905-1.746-3.377-1.746-4.933  C298.457,463.954,300.718,461.742,303.509,461.742z" fill="#808183"/><circle cx="303.855" cy="468.62" fill="#D0D1D3" r="4.939"/><circle cx="303.855" cy="468.62" fill="#E6E6E7" r="4.68"/><path d="M303.466,428.569c2.791,0,5.166,3.011,5.195,6.625c0.008,0.935-0.127,0.221-0.438,0.87  c-0.596,1.246-1.947,1.766-3.781,1.766c-1.199,0-3.418,1.294-4.283,0.611c-1.15-0.905-1.748-3.378-1.748-4.933  C298.412,430.78,300.675,428.569,303.466,428.569z" fill="#808183"/><g><path d="M252.416,509.985c-0.318,0.461-0.562,0.705-0.042,1.3c0.491,0.562,2.648,0.688,3.197,0.71V512   c0,0,0.027-0.001,0.064-0.003c0.038,0.001,0.064,0.002,0.064,0.002v-0.006c0.547-0.034,2.703-0.2,3.183-0.772   c0.508-0.604,0.26-0.844-0.066-1.299c-0.402-0.557-1.463-1.487-1.463-1.487l-1.688,0.017l-0.128,0.001l-1.688,0.017   C253.849,508.469,252.806,509.419,252.416,509.985z" fill="#E6E6E7"/><path d="M253.843,508.084l0.003,0.385l3.509-0.034l-0.004-0.372C256.184,508.075,255.014,508.081,253.843,508.084z" fill="#BBBCBF"/></g><circle cx="303.812" cy="435.446" fill="#D0D1D3" r="4.939"/><circle cx="303.812" cy="435.446" fill="#E6E6E7" r="4.679"/><rect fill="#272525" height="13.887" width="0.848" x="302.927" y="406.762"/><circle cx="303.423" cy="416.062" fill="#272525" r="3.151"/><circle cx="303.423" cy="416.061" fill="#343335" r="2.635"/><path d="M305.675,416.061c0,1.313-1.029,2.381-2.324,2.452c0.045,0.003,0.09,0.007,0.137,0.007  c1.357,0,2.457-1.102,2.457-2.459s-1.1-2.458-2.457-2.458c-0.047,0-0.092,0.005-0.137,0.007  C304.646,413.68,305.675,414.749,305.675,416.061z" fill="#59595B"/><path d="M266.507,88.74c0,0,3.885,244.172,3.885,246.459c0,2.289-2.113,3.257-3.371,3.257  c-1.199,0-22.166,0-22.852,0c-0.686,0-2.971-1.146-2.971-3.199s3.719-244.75,3.713-245.43s-1.734-3.094-3.371-4.228  c-1.626-1.127-3.656-2.867-3.942-4.571c-0.279-1.657-0.103-1.704,0.457-3.599c0.613-2.075,21.488-71.654,21.709-72.384  c0.244-0.802,1.029-4.342,6.113-4.971c5.084-0.628,8.627,2.856,9.885,4.113c1.256,1.258,2.283,5.028,2.342,6.113  c0.057,1.086,0.342,4.57-3.086,8.513s-3.77,6.227-3.027,8.684s3.723,6.979,4.113,15.368c0.514,11.026-7.998,21.996-9.084,34.449  C266.324,85.319,266.507,88.74,266.507,88.74z" fill="#F5CB8D"/><path d="M246.484,338.457V49.314c-0.326,1.088-0.649,2.165-0.968,3.229v285.914  C245.801,338.457,246.126,338.457,246.484,338.457z" fill="#E5B76E"/><path d="M251.247,338.457V33.439c-0.193,0.643-0.387,1.288-0.581,1.937v303.081  C250.857,338.457,251.051,338.457,251.247,338.457z" fill="#E1B474"/><path d="M255.675,338.457V18.678c-0.447,1.488-0.918,3.061-1.41,4.699v315.08  C254.733,338.457,255.204,338.457,255.675,338.457z" fill="#E8BB77"/><path d="M259.311,338.457V6.562c-0.143,0.477-0.316,1.056-0.52,1.73v330.165  C258.967,338.457,259.139,338.457,259.311,338.457z" fill="#DDB270"/><path d="M265.859,338.457V0.078c-0.287,0.036-0.559,0.082-0.816,0.135v338.244  C265.343,338.457,265.617,338.457,265.859,338.457z" fill="#E5B97A"/><path d="M268.126,0.057v71.075c0.168-0.644,0.348-1.284,0.541-1.922V0.131C268.49,0.102,268.31,0.076,268.126,0.057z  " fill="#DFB474"/><path d="M270.154,0.493v64.311c0.287-0.781,0.582-1.559,0.879-2.332V0.822C270.75,0.703,270.457,0.591,270.154,0.493  z" fill="#E0B576"/><g><path d="M242.293,262.289c-0.006,0.425-0.013,0.85-0.019,1.272h27.005c-0.006-0.423-0.014-0.848-0.02-1.272H242.293   z" fill="#BBBCBF"/><path d="M241.88,289.546c-0.007,0.427-0.013,0.851-0.02,1.272h27.848c-0.008-0.422-0.014-0.846-0.021-1.272H241.88z   " fill="#BBBCBF"/><path d="M242.145,272.069c-0.006,0.426-0.013,0.85-0.019,1.273h27.308c-0.008-0.424-0.014-0.848-0.02-1.273H242.145   z" fill="#BBBCBF"/><path d="M242.01,280.944c-0.007,0.426-0.013,0.85-0.02,1.272h27.581c-0.006-0.423-0.012-0.847-0.02-1.272H242.01z" fill="#BBBCBF"/><path d="M241.76,297.424c-0.006,0.428-0.013,0.852-0.019,1.273h28.09c-0.006-0.422-0.014-0.846-0.02-1.273H241.76z" fill="#BBBCBF"/><path d="M270.355,332.518c-0.006-0.387-0.012-0.811-0.02-1.273h-29.082c-0.006,0.461-0.013,0.888-0.018,1.273   H270.355z" fill="#BBBCBF"/><path d="M241.646,305.032c-0.006,0.428-0.013,0.853-0.019,1.273h28.324c-0.006-0.422-0.014-0.846-0.02-1.273   H241.646z" fill="#BBBCBF"/><path d="M241.34,325.407c-0.006,0.438-0.013,0.862-0.019,1.273h28.946c-0.006-0.411-0.014-0.835-0.02-1.273H241.34z   " fill="#BBBCBF"/><path d="M241.538,312.186c-0.007,0.429-0.013,0.854-0.02,1.272h28.543c-0.006-0.419-0.014-0.844-0.02-1.272H241.538   z" fill="#BBBCBF"/><path d="M241.437,318.887c-0.006,0.432-0.013,0.855-0.019,1.273h28.748c-0.006-0.418-0.012-0.842-0.02-1.273   H241.437z" fill="#BBBCBF"/><path d="M242.964,218.187c-0.006,0.425-0.013,0.849-0.02,1.273h25.637c-0.006-0.425-0.014-0.849-0.02-1.273H242.964   z" fill="#BBBCBF"/><path d="M244.056,146.473c-0.006,0.424-0.013,0.848-0.02,1.273h23.408c-0.008-0.426-0.014-0.85-0.02-1.273H244.056z   " fill="#BBBCBF"/><path d="M243.579,177.798c-0.006,0.424-0.013,0.849-0.02,1.273h24.381c-0.006-0.425-0.012-0.85-0.02-1.273H243.579z   " fill="#BBBCBF"/><path d="M243.81,162.675c-0.007,0.423-0.013,0.848-0.02,1.272h23.913c-0.008-0.425-0.014-0.85-0.021-1.272H243.81z" fill="#BBBCBF"/><path d="M244.313,129.63c-0.007,0.422-0.013,0.846-0.02,1.272h22.884c-0.006-0.427-0.014-0.851-0.02-1.272H244.313z   " fill="#BBBCBF"/><path d="M244.584,111.699c-0.006,0.419-0.013,0.844-0.019,1.272h22.327c-0.006-0.429-0.014-0.853-0.02-1.272   H244.584z" fill="#BBBCBF"/><path d="M242.781,230.23c-0.007,0.425-0.013,0.85-0.02,1.273h26.012c-0.008-0.424-0.014-0.849-0.021-1.273H242.781z   " fill="#BBBCBF"/><path d="M242.608,241.55c-0.006,0.425-0.013,0.85-0.02,1.273h26.362c-0.006-0.424-0.014-0.849-0.02-1.273H242.608z" fill="#BBBCBF"/><path d="M242.446,252.237c-0.006,0.425-0.013,0.85-0.02,1.272h26.694c-0.008-0.423-0.014-0.848-0.021-1.272H242.446   z" fill="#BBBCBF"/><path d="M243.364,191.925c-0.006,0.424-0.013,0.849-0.02,1.273h24.821c-0.006-0.425-0.014-0.85-0.02-1.273H243.364z   " fill="#BBBCBF"/><path d="M243.157,205.509c-0.006,0.424-0.013,0.849-0.019,1.272h25.243c-0.006-0.424-0.014-0.849-0.02-1.272   H243.157z" fill="#BBBCBF"/></g><g><path d="M241.884,289.282c-0.007,0.426-0.013,0.85-0.02,1.271h27.84c-0.008-0.422-0.014-0.846-0.021-1.271H241.884z   " fill="#EDEDED"/><path d="M241.765,297.16c-0.007,0.427-0.013,0.851-0.02,1.272h28.083c-0.008-0.422-0.014-0.846-0.02-1.272H241.765z   " fill="#EDEDED"/><path d="M242.148,271.803c-0.006,0.426-0.013,0.85-0.019,1.273h27.3c-0.008-0.424-0.014-0.848-0.021-1.273H242.148z   " fill="#EDEDED"/><path d="M241.649,304.766c-0.006,0.428-0.013,0.853-0.019,1.273h28.316c-0.006-0.42-0.014-0.846-0.02-1.273H241.649   z" fill="#EDEDED"/><path d="M242.014,280.678c-0.007,0.426-0.013,0.85-0.02,1.272h27.573c-0.006-0.423-0.014-0.847-0.02-1.272H242.014z   " fill="#EDEDED"/><path d="M270.351,332.252c-0.006-0.389-0.012-0.813-0.02-1.273h-29.074c-0.006,0.46-0.013,0.885-0.019,1.273   H270.351z" fill="#EDEDED"/><path d="M242.297,262.023c-0.007,0.426-0.013,0.85-0.02,1.272h26.997c-0.008-0.423-0.014-0.848-0.02-1.272H242.297z   " fill="#EDEDED"/><path d="M241.344,325.142c-0.006,0.437-0.013,0.861-0.019,1.272h28.938c-0.006-0.41-0.014-0.836-0.02-1.272H241.344   z" fill="#EDEDED"/><path d="M241.542,311.92c-0.007,0.43-0.013,0.854-0.02,1.273h28.536c-0.006-0.42-0.014-0.844-0.02-1.273H241.542z" fill="#EDEDED"/><path d="M241.441,318.622c-0.007,0.432-0.013,0.855-0.019,1.273h28.739c-0.006-0.417-0.012-0.842-0.02-1.273   H241.441z" fill="#EDEDED"/><path d="M243.813,162.409c-0.006,0.424-0.013,0.848-0.02,1.273h23.903c-0.006-0.426-0.012-0.85-0.02-1.273H243.813z   " fill="#EDEDED"/><path d="M242.45,251.971c-0.006,0.425-0.013,0.85-0.019,1.272h26.686c-0.008-0.423-0.014-0.848-0.021-1.272H242.45z   " fill="#EDEDED"/><path d="M243.583,177.532c-0.006,0.424-0.013,0.849-0.02,1.273h24.374c-0.006-0.425-0.014-0.85-0.02-1.273H243.583z   " fill="#EDEDED"/><path d="M243.368,191.659c-0.006,0.425-0.013,0.849-0.019,1.273h24.813c-0.006-0.425-0.014-0.849-0.02-1.273   H243.368z" fill="#EDEDED"/><path d="M244.588,111.434c-0.006,0.42-0.013,0.844-0.019,1.273h22.319c-0.006-0.429-0.014-0.854-0.02-1.273H244.588   z" fill="#EDEDED"/><path d="M244.316,129.364c-0.006,0.422-0.013,0.847-0.02,1.272h22.876c-0.008-0.426-0.014-0.851-0.021-1.272   H244.316z" fill="#EDEDED"/><path d="M244.06,146.208c-0.006,0.423-0.013,0.847-0.02,1.272h23.4c-0.008-0.426-0.014-0.85-0.021-1.272H244.06z" fill="#EDEDED"/><path d="M242.612,241.285c-0.006,0.425-0.013,0.849-0.019,1.272h26.354c-0.006-0.424-0.014-0.848-0.02-1.272   H242.612z" fill="#EDEDED"/><path d="M242.785,229.966c-0.006,0.425-0.013,0.849-0.02,1.272h26.002c-0.006-0.424-0.012-0.848-0.02-1.272H242.785   z" fill="#EDEDED"/><path d="M243.161,205.243c-0.006,0.424-0.013,0.849-0.02,1.273h25.235c-0.006-0.425-0.014-0.85-0.02-1.273H243.161z   " fill="#EDEDED"/><path d="M242.968,217.922c-0.006,0.424-0.013,0.849-0.019,1.272h25.629c-0.008-0.424-0.014-0.849-0.02-1.272   H242.968z" fill="#EDEDED"/></g><circle cx="255.812" cy="328.911" fill="#272525" r="1.643"/><circle cx="255.812" cy="316.059" fill="#272525" r="1.643"/><circle cx="255.812" cy="301.805" fill="#272525" r="1.643"/><circle cx="255.812" cy="285.723" fill="#272525" r="1.643"/><circle cx="248.902" cy="257.885" fill="#272525" r="1.643"/><circle cx="262.769" cy="257.885" fill="#272525" r="1.643"/><circle cx="255.812" cy="224.738" fill="#272525" r="1.643"/><circle cx="255.812" cy="199.227" fill="#272525" r="1.643"/><circle cx="255.812" cy="170.624" fill="#272525" r="1.643"/><circle cx="255.812" cy="138.443" fill="#272525" r="1.643"/><path d="M266.574,92.972c-0.006-0.461-0.014-0.885-0.02-1.273h-21.668c-0.005,0.372-0.012,0.797-0.019,1.273H266.574  z" fill="#BBBCBF"/><path d="M255.759,84.851c-0.375,0-2.214,1.489-2.399,2.782c-0.213,1.495,0.667,1.788,0.975,1.788  c0.236,0,1.374,0.052,1.425,0.05c0.051,0.002,1.188-0.05,1.424-0.05c0.309,0,1.189-0.293,0.975-1.788  C257.975,86.34,256.134,84.851,255.759,84.851z" fill="#6A5542"/><path d="M266.57,92.706c-0.01-0.631-0.018-1.19-0.025-1.676h-21.649c-0.006,0.442-0.015,1.002-0.024,1.676H266.57z" fill="#FFFFFF"/><polygon fill="#BBBCBF" points="264.416,12.977 269.435,437.833 269.734,437.823 264.714,12.975 "/><rect fill="#BBBCBF" height="0.332" transform="matrix(-0.0063 -1 1 -0.0063 32.9116 495.6411)" width="412.73" x="56.348" y="231.302"/><rect fill="#BBBCBF" height="0.367" transform="matrix(-0.0015 -1 1 -0.0015 21.2276 495.8593)" width="401.002" x="57.682" y="237.148"/><rect fill="#BBBCBF" height="0.435" transform="matrix(0.0029 -1 1 0.0029 9.0308 496.4194)" width="388.304" x="59.284" y="243.464"/><polygon fill="#BBBCBF" points="249.893,60.685 247.293,437.828 247.786,437.836 250.387,60.687 "/><polygon fill="#BBBCBF" points="246.186,73.414 241.762,437.823 242.348,437.84 246.772,73.418 "/><g><circle cx="263.175" cy="41.333" fill="#D0D1D3" r="2.034"/><circle cx="263.175" cy="41.334" fill="#929496" r="1.394"/><circle cx="263.175" cy="41.333" fill="#D0D1D3" r="1.268"/><circle cx="263.175" cy="41.334" fill="#808183" r="0.766"/><rect fill="#D0D1D3" height="0.226" transform="matrix(0.4706 -0.8824 0.8824 0.4706 102.8569 254.0962)" width="0.88" x="262.735" y="41.221"/><rect fill="#D0D1D3" height="0.225" transform="matrix(-0.8831 -0.4693 0.4693 -0.8831 476.1781 201.3319)" width="0.88" x="262.735" y="41.221"/></g><g><rect fill="#D0D1D3" height="2.75" transform="matrix(0.2872 -0.9579 0.9579 0.2872 103.8026 278.4564)" width="1.747" x="238.134" y="68.104"/><rect fill="#B7B7B7" height="2.75" transform="matrix(0.2872 -0.9579 0.9579 0.2872 103.3124 278.6344)" width="0.874" x="238.445" y="68.523"/><rect fill="#808183" height="0.376" opacity="0.7" transform="matrix(0.2871 -0.9579 0.9579 0.2871 103.3525 277.1456)" width="1.748" x="236.996" y="68.95"/><ellipse cx="234.613" cy="68.161" fill="#D0D1D3" rx="4.547" ry="3.317" transform="matrix(0.2874 -0.9578 0.9578 0.2874 101.9049 273.289)"/><path d="M237.79,69.114c-0.721,2.405-2.729,3.928-4.483,3.401c-1.755-0.526-2.592-2.903-1.871-5.308L237.79,69.114z   " fill="#929496"/><path d="M231.436,67.207L231.436,67.207c-0.67,2.234,0.209,4.472,1.963,4.998c1.755,0.526,3.721-0.857,4.391-3.091   h0L231.436,67.207z" fill="#BFBFBF"/></g><g><rect fill="#D0D1D3" height="2.75" transform="matrix(0.2894 -0.9572 0.9572 0.2894 116.8828 273.2338)" width="1.748" x="241.606" y="56.514"/><rect fill="#B7B7B7" height="2.75" transform="matrix(0.2893 -0.9572 0.9572 0.2893 116.4276 273.4301)" width="0.874" x="241.916" y="56.932"/><rect fill="#808183" height="0.376" opacity="0.7" transform="matrix(0.2892 -0.9573 0.9573 0.2892 116.4615 271.9349)" width="1.748" x="240.469" y="57.358"/><ellipse cx="238.088" cy="56.563" fill="#D0D1D3" rx="4.547" ry="3.317" transform="matrix(0.2892 -0.9573 0.9573 0.2892 115.0764 268.1122)"/><path d="M241.263,57.521c-0.726,2.404-2.736,3.923-4.49,3.394c-1.753-0.53-2.586-2.908-1.86-5.312L241.263,57.521z" fill="#929496"/><path d="M234.913,55.603L234.913,55.603c-0.675,2.232,0.2,4.472,1.954,5.002c1.753,0.53,3.722-0.851,4.396-3.083h0   L234.913,55.603z" fill="#BFBFBF"/></g><g><rect fill="#D0D1D3" height="2.75" transform="matrix(0.2892 -0.9573 0.9573 0.2892 130.6222 268.3153)" width="1.748" x="245.113" y="44.826"/><rect fill="#B7B7B7" height="2.75" transform="matrix(0.2893 -0.9572 0.9572 0.2893 130.1089 268.4793)" width="0.874" x="245.423" y="45.244"/><rect fill="#808183" height="0.375" opacity="0.7" transform="matrix(0.2894 -0.9572 0.9572 0.2894 130.084 266.9529)" width="1.748" x="243.976" y="45.67"/><ellipse cx="241.594" cy="44.874" fill="#D0D1D3" rx="4.546" ry="3.317" transform="matrix(0.2892 -0.9573 0.9573 0.2892 128.7625 263.1633)"/><path d="M244.77,45.833c-0.727,2.403-2.737,3.923-4.49,3.393c-1.754-0.529-2.587-2.908-1.86-5.312L244.77,45.833z" fill="#929496"/><path d="M238.419,43.914L238.419,43.914c-0.675,2.232,0.2,4.472,1.954,5.002c1.753,0.529,3.722-0.851,4.396-3.083   l0,0L238.419,43.914z" fill="#BFBFBF"/></g><g><rect fill="#D0D1D3" height="2.75" transform="matrix(0.2866 -0.9581 0.9581 0.2866 144.9717 263.6334)" width="1.748" x="248.629" y="33.1"/><rect fill="#B7B7B7" height="2.75" transform="matrix(0.2864 -0.9581 0.9581 0.2864 144.5181 263.8287)" width="0.875" x="248.941" y="33.518"/><rect fill="#808183" height="0.376" opacity="0.7" transform="matrix(0.2863 -0.9581 0.9581 0.2863 144.5467 262.3288)" width="1.748" x="247.491" y="33.947"/><ellipse cx="245.107" cy="33.161" fill="#D0D1D3" rx="4.547" ry="3.317" transform="matrix(0.2864 -0.9581 0.9581 0.2864 143.1358 258.503)"/><path d="M248.285,34.111c-0.719,2.406-2.725,3.931-4.48,3.406s-2.595-2.9-1.876-5.306L248.285,34.111z" fill="#929496"/><path d="M241.929,32.211L241.929,32.211c-0.668,2.234,0.213,4.472,1.969,4.996s3.72-0.861,4.387-3.096h0   L241.929,32.211z" fill="#BFBFBF"/></g><g><rect fill="#D0D1D3" height="2.75" transform="matrix(0.2872 -0.9579 0.9579 0.2872 158.394 258.6312)" width="1.747" x="252.108" y="21.509"/><rect fill="#B7B7B7" height="2.75" transform="matrix(0.2872 -0.9579 0.9579 0.2872 157.9037 258.8092)" width="0.874" x="252.419" y="21.928"/><rect fill="#808183" height="0.376" opacity="0.7" transform="matrix(0.2872 -0.9579 0.9579 0.2872 157.9104 257.2986)" width="1.747" x="250.971" y="22.355"/><ellipse cx="248.587" cy="21.566" fill="#D0D1D3" rx="4.547" ry="3.317" transform="matrix(0.2871 -0.9579 0.9579 0.2871 156.5586 253.4959)"/><path d="M251.764,22.52c-0.721,2.405-2.728,3.929-4.482,3.402s-2.593-2.902-1.872-5.307L251.764,22.52z" fill="#929496"/><path d="M245.409,20.614L245.409,20.614c-0.67,2.234,0.21,4.472,1.965,4.998c1.754,0.525,3.72-0.859,4.389-3.093h0   L245.409,20.614z" fill="#BFBFBF"/></g><g><rect fill="#D0D1D3" height="2.75" transform="matrix(0.2896 -0.9571 0.9571 0.2896 171.4213 253.47)" width="1.747" x="255.593" y="9.878"/><rect fill="#B7B7B7" height="2.75" transform="matrix(0.2896 -0.9571 0.9571 0.2896 170.9314 253.6459)" width="0.873" x="255.903" y="10.296"/><rect fill="#808183" height="0.376" opacity="0.7" transform="matrix(0.289 -0.9573 0.9573 0.289 171.086 252.1875)" width="1.748" x="254.455" y="10.721"/><ellipse cx="252.074" cy="9.926" fill="#D0D1D3" rx="4.547" ry="3.317" transform="matrix(0.2892 -0.9573 0.9573 0.2892 169.6604 248.3536)"/><path d="M255.249,10.886c-0.726,2.403-2.737,3.923-4.49,3.393c-1.754-0.529-2.586-2.908-1.86-5.312L255.249,10.886z   " fill="#929496"/><path d="M248.898,8.967L248.898,8.967c-0.675,2.232,0.2,4.472,1.954,5.002c1.753,0.529,3.722-0.851,4.396-3.083h0   L248.898,8.967z" fill="#BFBFBF"/></g><g><circle cx="245.208" cy="72.453" fill="#D0D1D3" r="2.83"/><path d="M242.399,72.784c0.164,1.407,1.358,2.499,2.809,2.499s2.645-1.092,2.809-2.499H242.399z" fill="#BBBCBF"/><circle cx="245.208" cy="72.094" fill="#6D6E70" r="1.546"/><circle cx="245.208" cy="71.293" fill="#F1F1F2" r="1.491"/><path d="M243.717,71.293c0,0.824,0.667,1.491,1.491,1.491s1.491-0.667,1.491-1.491H243.717z" fill="#E6E6E7"/></g><g><circle cx="248.921" cy="60.469" fill="#D0D1D3" r="2.83"/><path d="M246.112,60.8c0.164,1.407,1.358,2.499,2.809,2.499c1.451,0,2.645-1.092,2.809-2.499H246.112z" fill="#BBBCBF"/><circle cx="248.921" cy="60.11" fill="#6D6E70" r="1.546"/><circle cx="248.921" cy="59.309" fill="#F1F1F2" r="1.491"/><path d="M247.43,59.309c0,0.824,0.667,1.491,1.491,1.491s1.491-0.667,1.491-1.491H247.43z" fill="#E6E6E7"/></g><g><circle cx="252.42" cy="48.7" fill="#D0D1D3" r="2.83"/><path d="M249.611,49.031c0.164,1.407,1.358,2.499,2.809,2.499c1.451,0,2.645-1.092,2.809-2.499H249.611z" fill="#BBBCBF"/><circle cx="252.42" cy="48.341" fill="#6D6E70" r="1.546"/><circle cx="252.42" cy="47.541" fill="#F1F1F2" r="1.491"/><path d="M250.929,47.54c0,0.824,0.667,1.491,1.491,1.491s1.491-0.667,1.491-1.491H250.929z" fill="#E6E6E7"/></g><g><circle cx="255.993" cy="36.67" fill="#D0D1D3" r="2.83"/><path d="M253.184,37.001c0.164,1.407,1.358,2.499,2.809,2.499c1.452,0,2.646-1.092,2.81-2.499H253.184z" fill="#BBBCBF"/><circle cx="255.993" cy="36.311" fill="#6D6E70" r="1.546"/><circle cx="255.993" cy="35.51" fill="#F1F1F2" r="1.491"/><path d="M254.502,35.51c0,0.824,0.667,1.491,1.491,1.491c0.824,0,1.491-0.667,1.491-1.491H254.502z" fill="#E6E6E7"/></g><g><circle cx="259.527" cy="24.837" fill="#D0D1D3" r="2.831"/><path d="M256.718,25.169c0.164,1.406,1.358,2.499,2.809,2.499s2.644-1.093,2.808-2.499H256.718z" fill="#BBBCBF"/><circle cx="259.527" cy="24.479" fill="#6D6E70" r="1.546"/><circle cx="259.527" cy="23.678" fill="#F1F1F2" r="1.491"/><path d="M258.037,23.678c0,0.823,0.666,1.491,1.49,1.491s1.49-0.668,1.49-1.491H258.037z" fill="#E6E6E7"/></g><g><circle cx="263.06" cy="13.044" fill="#D0D1D3" r="2.831"/><path d="M260.252,13.376c0.164,1.407,1.357,2.499,2.808,2.499c1.451,0,2.646-1.092,2.811-2.499H260.252z" fill="#BBBCBF"/><circle cx="263.06" cy="12.686" fill="#6D6E70" r="1.546"/><circle cx="263.06" cy="11.885" fill="#F1F1F2" r="1.491"/><path d="M261.57,11.885c0,0.823,0.667,1.491,1.49,1.491c0.824,0,1.492-0.668,1.492-1.491H261.57z" fill="#E6E6E7"/></g></svg>