<?xml version="1.0" encoding="UTF-8" standalone="no"?>
<!-- Created with Inkscape (http://www.inkscape.org/) -->
<svg id="svg2" xmlns:rdf="http://www.w3.org/1999/02/22-rdf-syntax-ns#" xmlns="http://www.w3.org/2000/svg" viewBox="0 0 744.09 1052.4" height="100%" width="100%" version="1.1" xmlns:cc="http://creativecommons.org/ns#" xmlns:dc="http://purl.org/dc/elements/1.1/">
 <metadata id="metadata7">
  <rdf:RDF>
   <cc:Work rdf:about="">
    <dc:format>image/svg+xml</dc:format>
    <dc:type rdf:resource="http://purl.org/dc/dcmitype/StillImage"/>
    <dc:title/>
   </cc:Work>
  </rdf:RDF>
 </metadata>
 <g id="layer1" stroke-dasharray="none" stroke="#e97c15" stroke-miterlimit="4" fill="none">
  <path id="path2996" stroke-linejoin="miter" stroke-linecap="butt" stroke-width="15" d="m244.82,956.47s3.6699-27.769-16.429-58.571c-16.444-20.586-25.16-28.017-46.964-49.821-7.3562-6.346-6.8163-18.189-6.6378-23.189,0.18-7.32,197.35-673.24,197.35-673.24,37.86-105.72,259.27-125.73,262.15,86.43-9.5964,93.439-117.13,105.13-125.71,152.11-9.5964,30.81,53.706,127.31,94.172,278.33,9.2218,48.126,0.17398,99.515-1.0696,101.67,0,0-70.741-3.3031-125.51,52.082-36.464,36.464-47.087,75.564-46.582,133.65z"/>
  <path id="path3774" stroke-width="37.81105739000000200" transform="matrix(0.39670935,0,0,0.39670935,174.36798,364.0302)" d="m454.29,273.08a38.571,38.571,0,1,1,-77.143,0,38.571,38.571,0,1,1,77.143,0z"/>
  <path id="path3774-5" stroke-width="37.81105739000000200" transform="matrix(0.39670935,0,0,0.39670935,142.22511,471.17305)" d="m454.29,273.08a38.571,38.571,0,1,1,-77.143,0,38.571,38.571,0,1,1,77.143,0z"/>
  <path id="path3774-2" stroke-width="37.81105739000000200" transform="matrix(0.39670935,0,0,0.39670935,109.36797,575.45876)" d="m454.29,273.08a38.571,38.571,0,1,1,-77.143,0,38.571,38.571,0,1,1,77.143,0z"/>
  <path id="path3774-3" stroke-width="37.81105739000000200" transform="matrix(0.39670935,0,0,0.39670935,80.082252,679.03019)" d="m454.29,273.08a38.571,38.571,0,1,1,-77.143,0,38.571,38.571,0,1,1,77.143,0z"/>
  <path id="path3774-1" stroke-width="37.81105739000000200" transform="matrix(0.39670935,0,0,0.39670935,203.65368,256.88733)" d="m454.29,273.08a38.571,38.571,0,1,1,-77.143,0,38.571,38.571,0,1,1,77.143,0z"/>
  <path id="path3774-6" stroke-width="37.81105739000000200" transform="matrix(0.39670935,0,0,0.39670935,235.08225,147.60162)" d="m454.29,273.08a38.571,38.571,0,1,1,-77.143,0,38.571,38.571,0,1,1,77.143,0z"/>
  <path id="path3830" stroke-linejoin="round" d="m280.32,284.39a26.264,40.659,0,1,1,-52.528,0,26.264,40.659,0,1,1,52.528,0z" stroke-dashoffset="6.20000000000000020" transform="matrix(1.0851636,0.17838852,-0.24506616,0.96040603,60.958908,-25.978707)" stroke-linecap="round" stroke-width="14.39439486999999900"/>
  <path id="path3850" stroke-linejoin="miter" stroke-linecap="butt" stroke-width="15" d="m292.32,305.58,30.893,10.357"/>
  <path id="path3852" stroke-linejoin="miter" stroke-linecap="butt" stroke-width="15" d="m296.25,292.18,31.429,8.75"/>
  <path id="path3830-8" stroke-linejoin="round" d="m280.32,284.39a26.264,40.659,0,1,1,-52.528,0,26.264,40.659,0,1,1,52.528,0z" stroke-dashoffset="6.20000000000000020" transform="matrix(1.0851636,0.17838852,-0.24506616,0.96040603,92.462036,-132.16963)" stroke-linecap="round" stroke-width="14.39439486999999900"/>
  <path id="path3850-2" stroke-linejoin="miter" stroke-linecap="butt" stroke-width="15" d="m323.82,199.39,30.893,10.357"/>
  <path id="path3852-7" stroke-linejoin="miter" stroke-linecap="butt" stroke-width="15" d="m327.75,185.99,31.429,8.75"/>
  <path id="path3830-7" stroke-linejoin="round" d="m280.32,284.39a26.264,40.659,0,1,1,-52.528,0,26.264,40.659,0,1,1,52.528,0z" stroke-dashoffset="6.20000000000000020" transform="matrix(1.0851636,0.17838852,-0.24506616,0.96040603,31.281456,77.309391)" stroke-linecap="round" stroke-width="14.39439486999999900"/>
  <path id="path3850-1" stroke-linejoin="miter" stroke-linecap="butt" stroke-width="15" d="m262.64,408.86,30.893,10.357"/>
  <path id="path3852-2" stroke-linejoin="miter" stroke-linecap="butt" stroke-width="15" d="m266.57,395.47,31.429,8.75"/>
  <path id="path3830-6" stroke-linejoin="round" d="m280.32,284.39a26.264,40.659,0,1,1,-52.528,0,26.264,40.659,0,1,1,52.528,0z" stroke-dashoffset="6.20000000000000020" transform="matrix(1.0851636,0.17838852,-0.24506616,0.96040603,-0.03327299,181.10257)" stroke-linecap="round" stroke-width="14.39439486999999900"/>
  <path id="path3850-0" stroke-linejoin="miter" stroke-linecap="butt" stroke-width="15" d="m231.33,512.66,30.893,10.357"/>
  <path id="path3852-4" stroke-linejoin="miter" stroke-linecap="butt" stroke-width="15" d="m235.26,499.26,31.429,8.75"/>
  <path id="path3830-9" stroke-linejoin="round" d="m280.32,284.39a26.264,40.659,0,1,1,-52.528,0,26.264,40.659,0,1,1,52.528,0z" stroke-dashoffset="6.20000000000000020" transform="matrix(1.0851636,0.17838852,-0.24506616,0.96040603,-30.337849,283.63305)" stroke-linecap="round" stroke-width="14.39439486999999900"/>
  <path id="path3850-4" stroke-linejoin="miter" stroke-linecap="butt" stroke-width="15" d="m201.02,615.19,30.893,10.357"/>
  <path id="path3852-6" stroke-linejoin="miter" stroke-linecap="butt" stroke-width="15" d="m204.95,601.8,31.429,8.75"/>
  <path id="path3830-0" stroke-linejoin="round" d="m280.32,284.39a26.264,40.659,0,1,1,-52.528,0,26.264,40.659,0,1,1,52.528,0z" stroke-dashoffset="6.20000000000000020" transform="matrix(1.0851636,0.17838852,-0.24506616,0.96040603,-59.632273,386.92115)" stroke-linecap="round" stroke-width="14.39439486999999900"/>
  <path id="path3850-3" stroke-linejoin="miter" stroke-linecap="butt" stroke-width="15" d="m171.73,718.48,30.893,10.357"/>
  <path id="path3852-62" stroke-linejoin="miter" stroke-linecap="butt" stroke-width="15" d="m175.66,705.08,31.429,8.75"/>
 </g>
</svg>
