<?xml version="1.0" encoding="utf-8"?>
<!-- Generator: Adobe Illustrator 16.0.0, SVG Export Plug-In . SVG Version: 6.00 Build 0)  -->
<!DOCTYPE svg PUBLIC "-//W3C//DTD SVG 1.1//EN" "http://www.w3.org/Graphics/SVG/1.1/DTD/svg11.dtd">
<svg version="1.1" id="Layer_1" xmlns="http://www.w3.org/2000/svg" xmlns:xlink="http://www.w3.org/1999/xlink" x="0px" y="0px"
	 width="500px" height="1500px" viewBox="0 0 500 1500" enable-background="new 0 0 500 1500" xml:space="preserve">
<g>
	<g>
		<path fill="#A28750" d="M120.915,849.242c0,0-0.681-1.253-0.376-2.871c0.306-1.619,0.704-2.063,1.245-2.207
			c0.541-0.145,5.884,0.846,6.79-2.162c1.274-4.225-7.388-6.965-9.074-7.251c-1.685-0.288-10.808-0.577-11.004,3.833
			c-0.14,3.138,5.23,3.972,5.692,4.286c0.463,0.315,0.691,0.866,0.445,2.495c-0.248,1.63-1.307,2.583-1.307,2.583L120.915,849.242z"
			/>
		<path opacity="0.1" fill="#272525" d="M117.093,848.59l3.822,0.652c0,0-0.681-1.253-0.376-2.871
			c0.306-1.619,0.704-2.063,1.245-2.207c0.541-0.145,5.884,0.846,6.79-2.162c1.274-4.225-7.388-6.965-9.074-7.251
			c0,0-0.002-0.001-0.003-0.001L117.093,848.59z"/>
	</g>
	<g>
		<path fill="#A28750" d="M183.149,1485.134c0,0,0.609,1.289,0.211,2.888c-0.397,1.6-0.82,2.02-1.368,2.132
			c-0.548,0.113-5.827-1.18-6.902,1.771c-1.513,4.146,6.979,7.375,8.645,7.758c1.667,0.382,10.758,1.192,11.206-3.2
			c0.318-3.125-4.995-4.264-5.438-4.604c-0.444-0.342-0.641-0.904-0.302-2.517c0.34-1.612,1.452-2.505,1.452-2.505L183.149,1485.134
			z"/>
		<path opacity="0.1" fill="#272525" d="M186.928,1486.002l-3.779-0.868c0,0,0.609,1.289,0.211,2.888
			c-0.397,1.6-0.82,2.02-1.368,2.132c-0.548,0.113-5.827-1.18-6.902,1.771c-1.513,4.146,6.979,7.375,8.645,7.758
			c0.001,0,0.002,0,0.003,0L186.928,1486.002z"/>
	</g>
	<path fill="#843622" d="M115.436,849.394c-30.866,2.059-36.926,53.512-38.067,64.817c-5.659,56.072,46.439,145.096,44.24,211.428
		c-3.51,105.865-85.001,149.689-86.599,227.502c-1.262,61.46,92.297,131.271,205.43,138.252
		c82.524,5.091,149.396-9.547,190.037-43.621c6.123-5.133,30.201-50.112,33.067-61.608c14.572-58.429-84.833-141.315-84.211-195.193
		c0.504-43.58,26.608-78.213,36.528-105.362c9.92-27.15-11.95-37.423-22.638-36.104c-18.958,2.34-50.283,31.752-68.933,31.38
		c-17.206-0.344-24.179-27.265-24.179-27.265l-99.568-110.142c0,0-11.376,32.715-40.746,24.936
		C123.441,958.783,146.301,847.337,115.436,849.394z"/>
	<path fill="#A7542A" d="M113.792,845.467c-31.243,2.083-37.377,54.164-38.532,65.609c-5.728,56.757,47.007,146.867,44.781,214.01
		c-3.553,107.159-86.04,151.519-87.657,230.281c-1.278,62.21,93.425,132.875,207.939,139.94
		c83.533,5.154,151.376-9.478,192.359-44.153c10.672-9.029,30.569-50.726,33.471-62.361c14.75-59.142-85.869-143.042-85.239-197.577
		c0.51-44.113,26.934-79.169,36.975-106.651c10.041-27.48-12.097-37.879-22.915-36.543c-19.189,2.368-50.897,32.14-69.774,31.763
		c-17.415-0.347-24.474-27.598-24.474-27.598L199.94,940.699c0,0-6.953,33.445-36.681,25.571
		C126.457,956.523,145.034,843.385,113.792,845.467z M195.647,953.795l104.595,104.596c0,0,16.81,37.731,37.356,35.113
		c20.547-2.617,37.727-20.542,51.55-26.148c13.824-5.605,19.423,4.486,11.581,22.414c-7.843,17.927-29.888,39.973-35.488,96.75
		s107.955,143.821,78.82,226.375c-20.015,56.708-132.425,78.008-197.239,72.468c-56.781-4.853-199.854-33.989-208.443-124.765
		c-5.543-58.586,91.871-130.436,96.75-225.627c3.734-72.842-45.949-165.11-43.706-214.794c2.243-49.685,16.435-54.911,18.677-53.419
		c2.243,1.493,3.111,99.952,47.814,108.333C181.823,979.573,195.647,953.795,195.647,953.795z"/>
	<path fill="#BA6E34" d="M265.175,1486.193c-6.427-0.062-12.581-0.337-18.353-0.831c-4.609-0.394-9.795-0.95-15.424-1.685v10.938
		c2.962,0.27,5.935,0.508,8.924,0.692c8.454,0.521,16.735,0.828,24.853,0.94V1486.193z"/>
	<path fill="#B0642A" d="M265.175,1120.12h-33.776v363.558c5.629,0.734,10.814,1.291,15.424,1.685
		c5.771,0.494,11.926,0.77,18.353,0.831V1120.12z"/>
	<path fill="#BA6E34" d="M225.779,1494.052v-11.146c-10.229-1.477-21.69-3.513-33.776-6.211v11.74
		C202.967,1490.891,214.252,1492.788,225.779,1494.052z"/>
	<path fill="#B0642A" d="M225.779,1482.906V1120.12h-33.776v356.575C204.089,1479.394,215.551,1481.43,225.779,1482.906z"/>
	<path fill="#BA6E34" d="M270.795,1486.191v10.112c11.643,0.026,22.905-0.387,33.776-1.217v-11.002
		C292.932,1485.393,281.532,1486.086,270.795,1486.191z"/>
	<path fill="#B0642A" d="M304.571,1484.085V1120.12h-33.776v366.071C281.532,1486.086,292.932,1485.393,304.571,1484.085z"/>
	<polygon fill="#11130E" points="191.357,1123.521 305.223,1123.521 285.75,215.234 216.125,215.234 	"/>
	<polygon fill="#BBBCBF" points="199,843.236 198.907,846.656 299.286,846.656 299.214,843.236 	"/>
	<polygon fill="#BBBCBF" points="195.881,957.631 195.788,961.051 301.739,961.051 301.666,957.631 	"/>
	<polygon fill="#BBBCBF" points="195.213,982.144 195.12,985.563 302.266,985.563 302.191,982.144 	"/>
	<polygon fill="#BBBCBF" points="197.357,903.498 197.264,906.918 300.578,906.918 300.506,903.498 	"/>
	<polygon fill="#BBBCBF" points="196.582,931.951 196.488,935.37 301.188,935.37 301.115,931.951 	"/>
	<polygon fill="#BBBCBF" points="198.141,874.754 198.048,878.174 299.963,878.174 299.89,874.754 	"/>
	<polygon fill="#BBBCBF" points="194.572,1005.636 194.479,1009.056 302.769,1009.056 302.695,1005.636 	"/>
	<polygon fill="#BBBCBF" points="304.905,1108.712 304.832,1105.292 191.854,1105.292 191.761,1108.712 	"/>
	<polygon fill="#BBBCBF" points="192.356,1086.907 192.262,1090.327 304.511,1090.327 304.438,1086.907 	"/>
	<polygon fill="#BBBCBF" points="192.857,1068.522 192.764,1071.942 304.117,1071.942 304.044,1068.522 	"/>
	<polygon fill="#BBBCBF" points="193.406,1048.387 193.313,1051.807 303.686,1051.807 303.611,1048.387 	"/>
	<polygon fill="#BBBCBF" points="193.955,1028.252 193.862,1031.672 303.254,1031.672 303.18,1028.252 	"/>
	<polygon fill="#BBBCBF" points="202.938,698.862 202.844,702.282 296.191,702.282 296.118,698.862 	"/>
	<polygon fill="#BBBCBF" points="209.32,464.797 209.227,468.217 291.174,468.217 291.101,464.797 	"/>
	<polygon fill="#BBBCBF" points="199.912,809.824 199.818,813.243 298.571,813.243 298.497,809.824 	"/>
	<polygon fill="#BBBCBF" points="210.828,409.484 210.735,412.904 289.988,412.904 289.915,409.484 	"/>
	<polygon fill="#BBBCBF" points="212.439,350.414 212.346,353.834 288.722,353.834 288.648,350.414 	"/>
	<polygon fill="#BBBCBF" points="214.135,288.229 214.042,291.648 287.389,291.648 287.314,288.229 	"/>
	<polygon fill="#BBBCBF" points="207.891,517.207 207.798,520.627 292.298,520.627 292.224,517.207 	"/>
	<polygon fill="#BBBCBF" points="200.862,774.951 200.77,778.37 297.823,778.37 297.749,774.951 	"/>
	<polygon fill="#BBBCBF" points="201.845,738.911 201.752,742.331 297.05,742.331 296.978,738.911 	"/>
	<polygon fill="#BBBCBF" points="205.271,613.269 205.178,616.688 294.357,616.688 294.283,613.269 	"/>
	<polygon fill="#BBBCBF" points="206.54,566.752 206.447,570.171 293.359,570.171 293.286,566.752 	"/>
	<polygon fill="#BBBCBF" points="204.075,657.156 203.981,660.575 295.298,660.575 295.225,657.156 	"/>
	<polygon fill="#EDEDED" points="196.601,931.237 196.507,934.657 301.174,934.657 301.1,931.237 	"/>
	<polygon fill="#EDEDED" points="195.9,956.918 195.807,960.338 301.724,960.338 301.65,956.918 	"/>
	<polygon fill="#EDEDED" points="195.232,981.431 195.139,984.851 302.25,984.851 302.177,981.431 	"/>
	<polygon fill="#EDEDED" points="198.161,874.041 198.067,877.461 299.947,877.461 299.874,874.041 	"/>
	<polygon fill="#EDEDED" points="197.376,902.785 197.283,906.205 300.563,906.205 300.49,902.785 	"/>
	<polygon fill="#EDEDED" points="193.425,1047.674 193.332,1051.094 303.67,1051.094 303.597,1047.674 	"/>
	<polygon fill="#EDEDED" points="194.591,1004.923 194.498,1008.343 302.753,1008.343 302.68,1004.923 	"/>
	<polygon fill="#EDEDED" points="304.89,1107.999 304.816,1104.579 191.874,1104.579 191.78,1107.999 	"/>
	<polygon fill="#EDEDED" points="192.375,1086.194 192.282,1089.614 304.496,1089.614 304.422,1086.194 	"/>
	<polygon fill="#EDEDED" points="192.876,1067.81 192.783,1071.229 304.102,1071.229 304.028,1067.81 	"/>
	<polygon fill="#EDEDED" points="199.02,842.523 198.927,845.943 299.272,845.943 299.198,842.523 	"/>
	<polygon fill="#EDEDED" points="193.975,1027.539 193.881,1030.958 303.238,1030.958 303.165,1027.539 	"/>
	<polygon fill="#EDEDED" points="200.882,774.237 200.789,777.657 297.808,777.657 297.734,774.237 	"/>
	<polygon fill="#EDEDED" points="207.91,516.494 207.817,519.913 292.282,519.913 292.209,516.494 	"/>
	<polygon fill="#EDEDED" points="209.34,464.084 209.246,467.504 291.159,467.504 291.085,464.084 	"/>
	<polygon fill="#EDEDED" points="210.848,408.771 210.755,412.191 289.973,412.191 289.899,408.771 	"/>
	<polygon fill="#EDEDED" points="214.154,287.516 214.061,290.936 287.373,290.936 287.3,287.516 	"/>
	<polygon fill="#EDEDED" points="212.458,349.701 212.365,353.121 288.707,353.121 288.633,349.701 	"/>
	<polygon fill="#EDEDED" points="204.094,656.443 204,659.862 295.282,659.862 295.209,656.443 	"/>
	<polygon fill="#EDEDED" points="206.56,566.039 206.466,569.458 293.344,569.458 293.271,566.039 	"/>
	<polygon fill="#EDEDED" points="202.957,698.149 202.864,701.569 296.177,701.569 296.104,698.149 	"/>
	<polygon fill="#EDEDED" points="201.865,738.198 201.771,741.618 297.035,741.618 296.962,738.198 	"/>
	<polygon fill="#EDEDED" points="199.931,809.11 199.838,812.53 298.556,812.53 298.482,809.11 	"/>
	<polygon fill="#EDEDED" points="205.291,612.556 205.198,615.975 294.342,615.975 294.269,612.556 	"/>
	<g>
		<g>
			<path fill="#2A2929" d="M320.18,1189.017c2.47,0,4.49,2.021,4.49,4.491v43.506c0,2.47-2.021,4.49-4.49,4.49H175.412
				c-2.47,0-4.491-2.021-4.491-4.49v-43.506c0-2.471,2.021-4.491,4.491-4.491H320.18z"/>
		</g>
		<g>
			<path fill="#191D1E" d="M318.718,1189.016c2.407,0,4.377,1.97,4.377,4.377v41.633c0,2.407-1.97,4.377-4.377,4.377H175.299
				c-2.408,0-4.377-1.97-4.377-4.377v-41.633c0-2.407,1.97-4.377,4.377-4.377H318.718z"/>
		</g>
		<circle fill="#796B48" cx="175.22" cy="1214.208" r="3.544"/>
		<circle fill="#796B48" cx="318.796" cy="1214.208" r="3.544"/>
	</g>
	<g>
		<g>
			<path fill="#2A2929" d="M320.18,1303.702c2.47,0,4.49,2.021,4.49,4.491v43.506c0,2.47-2.021,4.49-4.49,4.49H175.412
				c-2.47,0-4.491-2.021-4.491-4.49v-43.506c0-2.471,2.021-4.491,4.491-4.491H320.18z"/>
		</g>
		<g>
			<path fill="#191D1E" d="M318.718,1303.701c2.407,0,4.377,1.97,4.377,4.377v41.633c0,2.407-1.97,4.377-4.377,4.377H175.299
				c-2.408,0-4.377-1.97-4.377-4.377v-41.633c0-2.407,1.97-4.377,4.377-4.377H318.718z"/>
		</g>
		<circle fill="#796B48" cx="175.22" cy="1328.894" r="3.544"/>
		<circle fill="#796B48" cx="318.796" cy="1328.894" r="3.544"/>
	</g>
	<g>
		<circle fill="#E3C292" cx="352.492" cy="1359.046" r="12.152"/>
		<circle fill="#CAAA6D" cx="352.492" cy="1359.046" r="8.957"/>
	</g>
	<g>
		<circle fill="#E3C292" cx="378.342" cy="1412.695" r="12.151"/>
		<circle fill="#CAAA6D" cx="378.342" cy="1412.695" r="8.957"/>
	</g>
	<g>
		<circle fill="#E3C292" cx="387.81" cy="1322.636" r="10.217"/>
		<circle fill="#CAAA6D" cx="387.811" cy="1322.636" r="7.19"/>
	</g>
	<g>
		<circle fill="#E3C292" cx="369.386" cy="1285.082" r="10.217"/>
		<circle fill="#CAAA6D" cx="369.387" cy="1285.082" r="7.19"/>
	</g>
	<g>
		<circle fill="#E3C292" cx="406.094" cy="1359.859" r="10.218"/>
		<circle fill="#CAAA6D" cx="406.095" cy="1359.858" r="7.19"/>
	</g>
	<g>
		<path fill="#D8C799" d="M164.175,89.199c1.632,6.213,1.846,9.715,1.846,13.478c0,3.762-0.214,7.264-1.846,13.477
			c-2.105,8.014,6.557,10.28,9.683,6.209c3.635-4.734,6.012-9.334,9.375-11.05s10.061-3.549,10.967-3.6
			c2.516-0.141,16.396,0.02,16.396,0.02V97.62c0,0-13.88,0.16-16.396,0.02c-0.906-0.05-7.603-1.883-10.967-3.599
			c-3.364-1.717-5.74-6.315-9.375-11.051C170.732,78.919,162.07,81.186,164.175,89.199z"/>
		<path fill="#A28750" d="M173.858,122.362c3.635-4.734,6.012-9.334,9.375-11.05s10.061-3.549,10.967-3.6
			c2.516-0.141,2.475,0.02,2.475,0.02v-5.056h-30.654c0,3.762-0.214,7.264-1.846,13.477
			C162.07,124.167,170.732,126.434,173.858,122.362z"/>
		<path fill="#59595B" d="M194.953,107.687c0.662-0.017,1.569-0.025,2.622-0.028v-9.964c-1.052-0.003-1.96-0.012-2.622-0.028
			V107.687z"/>
		<path fill="#272525" d="M194.481,107.7c0.581-0.021,1.504-0.034,2.621-0.04v-9.967c-1.117-0.007-2.041-0.02-2.621-0.041V107.7z"/>
	</g>
	<g>
		<path fill="#D8C799" d="M338.087,89.199c-1.632,6.213-1.846,9.715-1.846,13.478c0,3.762,0.214,7.264,1.846,13.477
			c2.105,8.014-6.556,10.28-9.683,6.209c-3.635-4.734-6.012-9.334-9.376-11.05c-3.363-1.716-10.06-3.549-10.966-3.6
			c-2.517-0.141-16.396,0.02-16.396,0.02V97.62c0,0,13.879,0.16,16.396,0.02c0.906-0.05,7.603-1.883,10.966-3.599
			c3.364-1.717,5.741-6.315,9.376-11.051C331.531,78.919,340.192,81.186,338.087,89.199z"/>
		<path fill="#A28750" d="M328.404,122.362c-3.635-4.734-6.012-9.334-9.376-11.05c-3.363-1.716-10.06-3.549-10.966-3.6
			c-2.517-0.141-2.475,0.02-2.475,0.02v-5.056h30.653c0,3.762,0.214,7.264,1.846,13.477
			C340.192,124.167,331.531,126.434,328.404,122.362z"/>
		<path fill="#59595B" d="M307.31,107.687c-0.661-0.017-1.569-0.025-2.621-0.028v-9.964c1.052-0.003,1.96-0.012,2.621-0.028V107.687
			z"/>
		<path fill="#272525" d="M307.781,107.7c-0.58-0.021-1.505-0.034-2.621-0.04v-9.967c1.116-0.007,2.041-0.02,2.621-0.041V107.7z"/>
	</g>
	<g>
		<path fill="#D8C799" d="M172.054,36.434c1.632,6.213,1.846,9.715,1.846,13.478s-0.214,7.265-1.846,13.478
			c-2.104,8.013,6.557,10.279,9.683,6.208c3.635-4.734,6.012-9.334,9.376-11.05s10.06-3.549,10.966-3.6
			c2.516-0.14,16.396,0.02,16.396,0.02V44.854c0,0-13.88,0.16-16.396,0.02c-0.906-0.05-7.603-1.883-10.966-3.599
			s-5.741-6.315-9.376-11.051C178.611,26.153,169.949,28.42,172.054,36.434z"/>
		<path fill="#A28750" d="M181.737,69.597c3.635-4.734,6.012-9.334,9.376-11.05s10.06-3.549,10.966-3.6
			c2.516-0.14,2.475,0.02,2.475,0.02v-5.056H173.9c0,3.763-0.214,7.265-1.846,13.478C169.949,71.401,178.611,73.668,181.737,69.597z
			"/>
		<path fill="#59595B" d="M202.832,54.921c0.661-0.017,1.569-0.024,2.621-0.028v-9.964c-1.052-0.003-1.96-0.012-2.621-0.027V54.921z
			"/>
		<path fill="#272525" d="M202.36,54.935c0.581-0.021,1.505-0.034,2.622-0.04v-9.967c-1.117-0.006-2.041-0.02-2.622-0.04V54.935z"/>
	</g>
	<g>
		<path fill="#D8C799" d="M330.208,36.434c-1.632,6.213-1.846,9.715-1.846,13.478s0.214,7.265,1.846,13.478
			c2.105,8.013-6.557,10.279-9.683,6.208c-3.636-4.734-6.013-9.334-9.376-11.05c-3.364-1.716-10.06-3.549-10.966-3.6
			c-2.517-0.14-16.396,0.02-16.396,0.02V44.854c0,0,13.88,0.16,16.396,0.02c0.906-0.05,7.602-1.883,10.966-3.599
			c3.363-1.716,5.74-6.315,9.376-11.051C323.651,26.153,332.313,28.42,330.208,36.434z"/>
		<path fill="#A28750" d="M320.525,69.597c-3.636-4.734-6.013-9.334-9.376-11.05c-3.364-1.716-10.06-3.549-10.966-3.6
			c-2.517-0.14-2.476,0.02-2.476,0.02v-5.056h30.654c0,3.763,0.214,7.265,1.846,13.478
			C332.313,71.401,323.651,73.668,320.525,69.597z"/>
		<path fill="#59595B" d="M299.431,54.921c-0.661-0.017-1.569-0.024-2.622-0.028v-9.964c1.053-0.003,1.961-0.012,2.622-0.027V54.921
			z"/>
		<path fill="#272525" d="M299.902,54.935c-0.581-0.021-1.505-0.034-2.621-0.04v-9.967c1.116-0.006,2.04-0.02,2.621-0.04V54.935z"/>
	</g>
	<g>
		<path fill="#D8C799" d="M154.981,140.835c1.632,6.213,1.846,9.715,1.846,13.478s-0.213,7.265-1.846,13.478
			c-2.104,8.013,6.557,10.279,9.683,6.208c3.635-4.734,6.012-9.334,9.376-11.05s10.06-3.549,10.966-3.6
			c2.516-0.14,16.396,0.02,16.396,0.02v-10.112c0,0-13.88,0.16-16.396,0.021c-0.906-0.051-7.603-1.884-10.966-3.6
			s-5.741-6.315-9.376-11.051C161.539,130.556,152.877,132.821,154.981,140.835z"/>
		<path fill="#A28750" d="M164.665,173.998c3.635-4.734,6.012-9.334,9.376-11.05s10.06-3.549,10.966-3.6
			c2.516-0.14,2.475,0.02,2.475,0.02v-5.056h-30.654c0,3.763-0.213,7.265-1.846,13.478
			C152.877,175.803,161.539,178.069,164.665,173.998z"/>
		<path fill="#59595B" d="M185.76,159.322c0.661-0.017,1.569-0.024,2.621-0.028v-9.963c-1.052-0.004-1.96-0.013-2.621-0.028V159.322
			z"/>
		<path fill="#272525" d="M185.288,159.336c0.581-0.021,1.505-0.034,2.621-0.04v-9.967c-1.116-0.006-2.041-0.019-2.621-0.04V159.336
			z"/>
	</g>
	<g>
		<path fill="#D8C799" d="M347.28,140.835c-1.633,6.213-1.847,9.715-1.847,13.478s0.214,7.265,1.847,13.478
			c2.105,8.013-6.557,10.279-9.683,6.208c-3.636-4.734-6.012-9.334-9.376-11.05s-10.061-3.549-10.967-3.6
			c-2.516-0.14-16.396,0.02-16.396,0.02v-10.112c0,0,13.881,0.16,16.396,0.021c0.906-0.051,7.603-1.884,10.967-3.6
			s5.74-6.315,9.376-11.051C340.724,130.556,349.386,132.821,347.28,140.835z"/>
		<path fill="#A28750" d="M337.598,173.998c-3.636-4.734-6.012-9.334-9.376-11.05s-10.061-3.549-10.967-3.6
			c-2.516-0.14-2.475,0.02-2.475,0.02v-5.056h30.653c0,3.763,0.214,7.265,1.847,13.478
			C349.386,175.803,340.724,178.069,337.598,173.998z"/>
		<path fill="#59595B" d="M316.503,159.322c-0.662-0.017-1.57-0.024-2.621-0.028v-9.963c1.051-0.004,1.959-0.013,2.621-0.028
			V159.322z"/>
		<path fill="#272525" d="M316.975,159.336c-0.581-0.021-1.505-0.034-2.621-0.04v-9.967c1.116-0.006,2.04-0.019,2.621-0.04V159.336z
			"/>
	</g>
	<path fill="#76391C" d="M285.75,215.234c0,0,2.155-13.003,9.06-23.393c6.903-10.39,15.479-14.793,15.942-18.502
		c0.464-3.709-13.241-43.29-17.167-83.067c-3.924-39.776,0.888-81.566,1.575-88.125c0.688-6.558-24.649,3.526-35.029,8.603
		c-2.432,1.189-6.95-2.742-9.024-2.742s-6.544,3.932-8.976,2.742c-10.38-5.076-35.717-15.16-35.029-8.603
		c0.688,6.559,5.5,48.349,1.575,88.125c-3.925,39.777-17.631,79.358-17.167,83.067s9.04,8.112,15.943,18.502
		c6.903,10.39,8.672,23.393,8.672,23.393H285.75z"/>
	<path fill="#272525" d="M252.388,159.614c-1.104,0-13.482,8.581-21.021,23.146c-8.248,15.936-10.067,34.601-10.067,34.601h62.176
		c0,0-1.819-18.665-10.067-34.601C265.87,168.195,253.491,159.614,252.388,159.614z"/>
	<polygon fill="#434244" points="285.948,224.489 285.794,217.267 216.07,217.267 215.873,224.489 	"/>
	<polygon fill="#59595B" points="285.93,223.614 285.775,216.392 216.094,216.392 215.897,223.614 	"/>
	<g>
		<circle fill="#D0B77F" cx="216.988" cy="157.609" r="12.177"/>
		<polygon opacity="0.5" fill="#272525" points="212.158,165.607 207.329,157.242 226.646,157.242 221.817,165.607 		"/>
		<polygon fill="#CAAA6D" points="212.666,164.624 208.344,157.14 225.632,157.14 221.311,164.624 		"/>
		<path opacity="0.1" fill="#272525" d="M216.988,169.786c6.724,0,12.177-5.453,12.177-12.177h-24.354
			C204.811,164.333,210.263,169.786,216.988,169.786z"/>
		<ellipse opacity="0.5" fill="#272525" cx="216.988" cy="155.509" rx="5.62" ry="6.146"/>
	</g>
	<g>
		<circle fill="#D0B77F" cx="285.274" cy="157.609" r="12.177"/>
		<polygon opacity="0.5" fill="#272525" points="280.444,165.607 275.616,157.242 294.933,157.242 290.104,165.607 		"/>
		<polygon fill="#CAAA6D" points="280.951,164.624 276.63,157.14 293.918,157.14 289.597,164.624 		"/>
		<path opacity="0.1" fill="#272525" d="M285.275,169.786c6.723,0,12.176-5.453,12.176-12.177h-24.354
			C273.097,164.333,278.549,169.786,285.275,169.786z"/>
		<ellipse opacity="0.5" fill="#272525" cx="285.274" cy="155.509" rx="5.62" ry="6.146"/>
	</g>
	<g>
		<circle fill="#D0B77F" cx="226.18" cy="105.771" r="12.177"/>
		<polygon opacity="0.5" fill="#272525" points="221.351,113.769 216.521,105.403 235.839,105.403 231.01,113.769 		"/>
		<polygon fill="#CAAA6D" points="221.857,112.785 217.537,105.301 234.824,105.301 230.503,112.785 		"/>
		<path opacity="0.1" fill="#272525" d="M226.181,117.947c6.724,0,12.177-5.453,12.177-12.177h-24.354
			C214.003,112.494,219.455,117.947,226.181,117.947z"/>
		<ellipse opacity="0.5" fill="#272525" cx="226.18" cy="103.67" rx="5.619" ry="6.146"/>
	</g>
	<g>
		<circle fill="#D0B77F" cx="276.081" cy="105.771" r="12.177"/>
		<polygon opacity="0.5" fill="#272525" points="271.251,113.769 266.423,105.403 285.74,105.403 280.91,113.769 		"/>
		<polygon fill="#CAAA6D" points="271.759,112.785 267.438,105.301 284.726,105.301 280.404,112.785 		"/>
		<path opacity="0.1" fill="#272525" d="M276.082,117.947c6.724,0,12.176-5.453,12.176-12.177h-24.354
			C263.904,112.494,269.356,117.947,276.082,117.947z"/>
		<ellipse opacity="0.5" fill="#272525" cx="276.081" cy="103.67" rx="5.62" ry="6.146"/>
	</g>
	<g>
		<circle fill="#D0B77F" cx="233.622" cy="55.388" r="12.177"/>
		<polygon opacity="0.5" fill="#272525" points="228.792,63.386 223.963,55.021 243.28,55.021 238.451,63.386 		"/>
		<polygon fill="#CAAA6D" points="229.299,62.402 224.978,54.918 242.266,54.918 237.944,62.402 		"/>
		<path opacity="0.1" fill="#272525" d="M233.622,67.564c6.724,0,12.177-5.452,12.177-12.177h-24.354
			C221.444,62.112,226.896,67.564,233.622,67.564z"/>
		<ellipse opacity="0.5" fill="#272525" cx="233.621" cy="53.287" rx="5.619" ry="6.146"/>
	</g>
	<g>
		<circle fill="#D0B77F" cx="268.64" cy="55.388" r="12.177"/>
		<polygon opacity="0.5" fill="#272525" points="263.811,63.386 258.982,55.021 278.299,55.021 273.47,63.386 		"/>
		<polygon fill="#CAAA6D" points="264.317,62.402 259.996,54.918 277.284,54.918 272.963,62.402 		"/>
		<path opacity="0.1" fill="#272525" d="M268.642,67.564c6.723,0,12.176-5.452,12.176-12.177h-24.354
			C256.463,62.112,261.915,67.564,268.642,67.564z"/>
		<ellipse opacity="0.5" fill="#272525" cx="268.64" cy="53.287" rx="5.62" ry="6.146"/>
	</g>
	<circle fill="#929496" cx="224.484" cy="380.947" r="4.037"/>
	<circle fill="#929496" cx="222.734" cy="491.999" r="4.036"/>
	<circle fill="#929496" cx="220.983" cy="591.006" r="4.037"/>
	<circle fill="#929496" cx="219.232" cy="679.006" r="4.036"/>
	<circle fill="#929496" cx="216.606" cy="793.384" r="4.036"/>
	<circle fill="#929496" cx="234.99" cy="793.384" r="4.036"/>
	<circle fill="#929496" cx="215.73" cy="890.123" r="4.036"/>
	<circle fill="#929496" cx="214.855" cy="945.788" r="4.036"/>
	<circle fill="#929496" cx="213.979" cy="994.887" r="4.036"/>
	<circle fill="#929496" cx="213.104" cy="1039.316" r="4.036"/>
	<circle fill="#929496" cx="212.229" cy="1097.097" r="4.036"/>
	<circle fill="#929496" cx="232.364" cy="1097.097" r="4.036"/>
	<circle fill="#929496" cx="250.749" cy="1097.097" r="4.036"/>
	<g>
		<rect x="184.558" y="1393.797" fill="#594017" width="16.538" height="32.48"/>
		<rect x="184.558" y="1406.658" fill="#B3A274" width="16.538" height="1.575"/>
		<rect x="184.558" y="1426.143" fill="#2E2916" width="16.538" height="23.369"/>
		<rect x="184.558" y="1423.516" fill="#F8E3B6" width="16.538" height="2.777"/>
		<rect x="184.558" y="1415.254" fill="#B18F4F" width="16.538" height="8.412"/>
		<rect x="184.558" y="1410.877" fill="#2D2F2C" width="16.538" height="4.728"/>
		<circle fill="#A3894C" cx="192.827" cy="1435.028" r="5.852"/>
		<rect x="205.744" y="1393.797" fill="#594017" width="16.538" height="32.48"/>
		<rect x="205.744" y="1409.284" fill="#B3A274" width="16.538" height="1.576"/>
		<rect x="205.744" y="1426.143" fill="#2E2916" width="16.538" height="23.369"/>
		<rect x="205.744" y="1426.143" fill="#F8E3B6" width="16.538" height="2.776"/>
		<rect x="205.744" y="1417.88" fill="#B18F4F" width="16.538" height="8.413"/>
		<rect x="205.744" y="1413.503" fill="#2D2F2C" width="16.538" height="4.728"/>
		<circle fill="#A3894C" cx="214.013" cy="1435.028" r="5.852"/>
		<rect x="226.93" y="1393.797" fill="#594017" width="16.538" height="32.48"/>
		<rect x="226.93" y="1397.903" fill="#B3A274" width="16.538" height="1.576"/>
		<rect x="226.93" y="1426.143" fill="#2E2916" width="16.538" height="23.369"/>
		<rect x="226.93" y="1414.762" fill="#F8E3B6" width="16.538" height="2.776"/>
		<rect x="226.93" y="1406.499" fill="#B18F4F" width="16.538" height="8.413"/>
		<rect x="226.93" y="1402.122" fill="#2D2F2C" width="16.538" height="4.728"/>
		<circle fill="#A3894C" cx="235.199" cy="1435.028" r="5.852"/>
		<rect x="248.116" y="1393.797" fill="#594017" width="16.537" height="32.48"/>
		<rect x="248.116" y="1396.152" fill="#B3A274" width="16.537" height="1.576"/>
		<rect x="248.116" y="1426.143" fill="#2E2916" width="16.537" height="23.369"/>
		<rect x="248.116" y="1413.011" fill="#F8E3B6" width="16.537" height="2.776"/>
		<rect x="248.116" y="1404.748" fill="#B18F4F" width="16.537" height="8.413"/>
		<rect x="248.116" y="1400.371" fill="#2D2F2C" width="16.537" height="4.728"/>
		<circle fill="#A3894C" cx="256.385" cy="1435.028" r="5.852"/>
		<rect x="269.302" y="1393.797" fill="#594017" width="16.538" height="32.48"/>
		<rect x="269.302" y="1394.401" fill="#B3A274" width="16.538" height="1.576"/>
		<rect x="269.302" y="1426.143" fill="#2E2916" width="16.538" height="23.369"/>
		<rect x="269.302" y="1411.26" fill="#F8E3B6" width="16.538" height="2.776"/>
		<rect x="269.302" y="1402.997" fill="#B18F4F" width="16.538" height="8.413"/>
		<rect x="269.302" y="1398.62" fill="#2D2F2C" width="16.538" height="4.728"/>
		<circle fill="#A3894C" cx="277.571" cy="1435.028" r="5.852"/>
		<rect x="290.488" y="1393.797" fill="#594017" width="16.538" height="32.48"/>
		<rect x="290.488" y="1397.028" fill="#B3A274" width="16.538" height="1.575"/>
		<rect x="290.488" y="1426.143" fill="#2E2916" width="16.538" height="23.369"/>
		<rect x="290.488" y="1413.886" fill="#F8E3B6" width="16.538" height="2.777"/>
		<rect x="290.488" y="1405.624" fill="#B18F4F" width="16.538" height="8.412"/>
		<rect x="290.488" y="1401.246" fill="#2D2F2C" width="16.538" height="4.729"/>
		<circle fill="#A3894C" cx="298.758" cy="1435.028" r="5.852"/>
		<rect x="185.492" y="1448.759" fill="#756238" width="119.382" height="8.063"/>
		<g>
			<path fill="#A28750" d="M253.648,1439.701c-3.214-0.993-5.566-3.999-5.566-7.529v-38.397h-4.578v38.397
				c0,3.53-2.353,6.536-5.567,7.529v20.508h15.712V1439.701z"/>
			<path fill="#A28750" d="M274.835,1439.701c-3.214-0.993-5.567-3.999-5.567-7.529v-38.397h-4.577v38.397
				c0,3.53-2.353,6.536-5.568,7.529v20.508h15.713V1439.701z"/>
			<path fill="#A28750" d="M195.564,1439.701v20.508h15.713v-20.508c-3.215-0.993-5.568-3.999-5.568-7.529v-38.397h-4.577v38.397
				C201.132,1435.702,198.779,1438.708,195.564,1439.701z"/>
			<path fill="#A28750" d="M232.463,1439.701c-3.215-0.993-5.567-3.999-5.567-7.529v-38.397h-4.577v38.397
				c0,3.53-2.353,6.536-5.567,7.529v20.508h15.712V1439.701z"/>
			<path fill="#A28750" d="M307.063,1432.172c0,3.53-2.354,6.536-5.568,7.529v20.508h9.512c2.889,0,5.253-2.363,5.253-5.253v-55.929
				c0-2.889-2.364-5.253-5.253-5.253h-3.943V1432.172z"/>
			<path fill="#A28750" d="M296.021,1439.701c-3.215-0.993-5.567-3.999-5.567-7.529v-38.397h-4.577v38.397
				c0,3.53-2.353,6.536-5.568,7.529v20.508h15.713V1439.701z"/>
			<path fill="#A28750" d="M190.091,1439.701c-3.215-0.993-5.568-3.999-5.568-7.529v-38.397h-4.184
				c-2.889,0-5.253,2.364-5.253,5.253v55.929c0,2.89,2.364,5.253,5.253,5.253h9.751V1439.701z"/>
		</g>
	</g>
	<polygon fill="#BBBCBF" points="222.312,151.662 225.366,216.393 194.98,1447.291 191.479,1447.291 221.865,216.393 
		218.81,151.662 	"/>
	<polygon fill="#BBBCBF" points="231.171,99.06 237.655,217.918 215.828,1448.816 212.659,1448.816 234.485,217.917 228.002,97.535 
			"/>
	<polygon fill="#BBBCBF" points="239.038,48.588 249.574,216.393 236.589,1447.24 233.823,1447.24 246.81,216.392 236.271,48.588 	
		"/>
	<polygon fill="#BBBCBF" points="266.355,49.644 260.958,216.392 257.601,1447.24 255.333,1447.24 258.69,216.392 264.089,49.644 	
		"/>
	<polygon fill="#BBBCBF" points="273.203,103.908 272.206,216.392 278.611,1447.24 276.625,1447.24 270.219,216.392 
		271.216,103.908 	"/>
	<polygon fill="#BBBCBF" points="281.846,153.192 281.185,216.392 298.747,1447.24 297.134,1447.24 280.232,216.392 
		280.232,153.192 	"/>
	<polyline fill="none" points="234.47,217.267 237.639,217.267 246.799,217.267 249.565,217.267 258.688,217.267 260.955,217.267 
		270.223,217.267 272.21,217.267 	"/>
	<g>
		<circle fill="#EFD9AA" cx="216.988" cy="153.192" r="5.62"/>
		<path opacity="0.1" fill="#272525" d="M216.988,158.813c3.103,0,5.619-2.516,5.619-5.621h-11.239
			C211.368,156.298,213.884,158.813,216.988,158.813z"/>
	</g>
	<g>
		<circle fill="#EFD9AA" cx="285.274" cy="153.192" r="5.62"/>
		<path opacity="0.1" fill="#272525" d="M285.275,158.813c3.102,0,5.618-2.516,5.618-5.621h-11.239
			C279.654,156.298,282.17,158.813,285.275,158.813z"/>
	</g>
	<g>
		<circle fill="#EFD9AA" cx="226.18" cy="101.354" r="5.619"/>
		<path opacity="0.1" fill="#272525" d="M226.181,106.975c3.103,0,5.618-2.516,5.618-5.621h-11.238
			C220.561,104.459,223.076,106.975,226.181,106.975z"/>
	</g>
	<g>
		<circle fill="#EFD9AA" cx="276.081" cy="101.354" r="5.62"/>
		<path opacity="0.1" fill="#272525" d="M276.082,106.975c3.103,0,5.618-2.516,5.618-5.621h-11.239
			C270.461,104.459,272.978,106.975,276.082,106.975z"/>
	</g>
	<g>
		<circle fill="#EFD9AA" cx="233.621" cy="50.971" r="5.619"/>
		<path opacity="0.1" fill="#272525" d="M233.622,56.593c3.103,0,5.618-2.517,5.618-5.622h-11.238
			C228.002,54.076,230.518,56.593,233.622,56.593z"/>
	</g>
	<g>
		<circle fill="#EFD9AA" cx="268.64" cy="50.971" r="5.62"/>
		<path opacity="0.1" fill="#272525" d="M268.642,56.593c3.102,0,5.618-2.517,5.618-5.622h-11.239
			C263.021,54.076,265.536,56.593,268.642,56.593z"/>
	</g>
	<path opacity="0.2" fill="#FFFFFF" d="M123.507,1138.603c-10.527,89.989-88.151,172.994-83.707,203.199
		c12.378-55.048,90.959-121.576,95.33-206.831c3.734-72.842-45.949-165.11-43.706-214.794c1.917-42.465,12.561-52.451,17.015-53.525
		c0.093-0.866,0.143-1.626,0.143-2.26c0-10.066-7.138-9.414-13.884,1.041c-8.329,12.908-15.443,56.318-8.518,87.787
		C92.226,980.694,130.781,1076.428,123.507,1138.603z"/>
	<path opacity="0.1" fill="#FFFFFF" d="M120.665,861.154c-0.523-8.109-6.802-1.176-7.979,4.317
		c-0.424,1.979-0.877,6.728-1.209,10.745c0.654,6.177,1.589,14.874,3.166,24.588l4.088,20.189
		c5.8,23.258,16.046,46.558,34.832,52.947c-5.607-7.769-13.479-20.26-19.686-36.266C123.02,909.684,121.516,874.35,120.665,861.154z
		"/>
	<path opacity="0.1" fill="#FFFFFF" d="M372.345,1148.956c-3.112,10.558-5.657,22.9-7.104,37.563
		c-5.17,52.409,91.185,130.607,83.127,207.256c0,0,2.926-10.07,2.516-23.504c-0.954-31.237-64.456-127.195-74.417-157.33
		C370.733,1195.596,371.272,1168.77,372.345,1148.956z"/>
	<path opacity="0.2" fill="#FFFFFF" d="M302.646,1062.604l0.369,1.316c5.285,9.816,17.581,29.3,32.075,29.702
		c-11.147-5.813-19.123-12.388-22.81-17.016C310.447,1074.306,302.646,1062.604,302.646,1062.604z"/>
	<path opacity="0.2" fill="#FFFFFF" d="M133.66,1459.01c24.093,14.398,93.005,28.142,111.926,28.99
		c142.913,6.415,186.427-54.937,186.427-54.937c-36.151,41.577-128.728,57.125-185.19,52.299
		C220.381,1483.103,175.231,1475.572,133.66,1459.01z"/>
</g>
</svg>
