<?xml version="1.0" encoding="UTF-8" standalone="no"?>
<svg
   xmlns:dc="http://purl.org/dc/elements/1.1/"
   xmlns:cc="http://creativecommons.org/ns#"
   xmlns:rdf="http://www.w3.org/1999/02/22-rdf-syntax-ns#"
   xmlns:svg="http://www.w3.org/2000/svg"
   xmlns="http://www.w3.org/2000/svg"
   xmlns:sodipodi="http://sodipodi.sourceforge.net/DTD/sodipodi-0.dtd"
   xmlns:inkscape="http://www.inkscape.org/namespaces/inkscape"
   enable-background="new 0 0 512 512"
   height="512"
   id="guitar2"
   version="1.1"
   viewBox="0 0 172 512"
   width="172"
   xml:space="preserve"
   inkscape:version="0.48.5 r10040"
   sodipodi:docname="telecaster.svg"><metadata
     id="metadata501"><rdf:RDF><cc:Work
         rdf:about=""><dc:format>image/svg+xml</dc:format><dc:type
           rdf:resource="http://purl.org/dc/dcmitype/StillImage" /></cc:Work></rdf:RDF></metadata><defs
     id="defs499" /><sodipodi:namedview
     pagecolor="#ffffff"
     bordercolor="#666666"
     borderopacity="1"
     objecttolerance="10"
     gridtolerance="10"
     guidetolerance="10"
     inkscape:pageopacity="0"
     inkscape:pageshadow="2"
     inkscape:window-width="1920"
     inkscape:window-height="1018"
     id="namedview497"
     showgrid="false"
     inkscape:zoom="1.84375"
     inkscape:cx="217.16191"
     inkscape:cy="168.1782"
     inkscape:window-x="1912"
     inkscape:window-y="-8"
     inkscape:window-maximized="1"
     inkscape:current-layer="guitar2" /><g
     id="g3478"
     transform="matrix(0.99941562,0,0,0.99941562,-169.84954,0.29920256)"><path
       id="path3"
       d="m 270.148,323.639 c 0,0 2.82,11.807 13.898,9.676 4.455,-0.857 13.969,-4.799 17.566,-17.482 3.301,-11.631 5.057,-14.738 9.256,-16.624 4.199,-1.886 9.068,1.956 9.068,1.956 l -21.15,28.037 -15.512,12.598 -10.541,-6.514 -2.271,-4.424 -0.314,-7.223 z"
       inkscape:connector-curvature="0"
       style="fill:#c1a352" /><path
       id="path5"
       d="m 193.98,299.551 c 0,0 8.912,-4.457 14.654,-3.942 5.742,0.515 6.78,1.026 10.455,1.971 8.998,2.313 15.093,9.542 19.037,7.831 4.372,-1.896 3.872,-5.688 3.872,-5.688 l -1.228,10.112 -46.79,-10.284 z"
       inkscape:connector-curvature="0"
       style="fill:#c1a352" /><path
       id="path7"
       d="m 241.851,301.061 c 0,0 -0.036,5.063 -6.289,5.766 -3.11,0.35 -11.016,-7.631 -23.734,-9.901 -11.728,-2.094 -17.011,2.115 -18.93,3.349 -1.918,1.234 -9.704,7.216 -10.049,22.492 -0.448,19.84 13.891,36.482 13.252,52.644 -0.572,14.487 -7.689,23.961 -13.833,38.296 -7.699,17.962 -9.987,27.129 -10.484,41.79 -0.497,14.661 5.295,23.881 9.174,29.997 6.217,9.801 20.166,20.542 46.741,21.986 18.836,1.023 44.222,0.734 60.72,-0.728 20.711,-1.835 35.107,-8.922 45.576,-26.793 11.125,-18.992 4.084,-42.006 3.703,-43.442 -7.383,-27.896 -21.283,-41.612 -21.904,-58.922 -0.621,-17.311 11.031,-32.174 12.814,-48.052 1.781,-15.878 -3.494,-22.971 -4.66,-24.608 -1.168,-1.638 -6.527,-7.614 -11.939,-4.514 -5.414,3.1 -5.727,6.797 -5.971,8.008 -0.637,3.147 -5.037,18.961 -13.979,24.172 -15.883,9.256 -21.988,-7.28 -21.988,-7.28 l -28.22,-24.26 z"
       inkscape:connector-curvature="0"
       style="fill:#e6c462" /><g
       id="g9"
       style="opacity:0.4"><path
         id="path11"
         d="m 189.607,304.306 c 0,0 -0.482,0.505 -1.164,1.604 -0.17,0.275 -0.36,0.582 -0.57,0.92 -0.178,0.356 -0.372,0.745 -0.581,1.165 -0.456,0.821 -0.808,1.845 -1.261,2.963 -0.25,0.551 -0.375,1.181 -0.568,1.818 -0.178,0.643 -0.365,1.314 -0.56,2.016 -0.123,0.718 -0.25,1.465 -0.383,2.239 -0.118,0.776 -0.315,1.57 -0.33,2.415 -0.273,3.34 -0.393,7.18 0.105,11.281 0.473,4.12 1.756,8.442 3.454,12.893 0.832,2.236 1.725,4.513 2.646,6.845 0.94,2.322 1.9,4.694 2.877,7.106 0.924,2.438 1.855,4.936 2.479,7.56 0.159,0.654 0.319,1.311 0.479,1.97 0.106,0.67 0.212,1.341 0.318,2.014 0.089,0.676 0.246,1.346 0.281,2.029 l 0.142,2.053 c 0.137,1.371 0.093,2.762 0.058,4.131 l -0.183,2.084 c -0.07,0.693 -0.204,1.375 -0.303,2.064 -0.476,2.742 -1.192,5.448 -2.092,8.086 -1.81,5.277 -4.208,10.314 -6.662,15.199 -1.228,2.441 -2.445,4.862 -3.648,7.255 -1.153,2.398 -2.278,4.814 -3.228,7.221 -1.019,2.384 -1.84,4.809 -2.693,7.156 -0.759,2.382 -1.562,4.693 -2.155,7 -1.343,4.571 -2.167,9.002 -2.811,13.1 -0.1,1.031 -0.199,2.041 -0.294,3.028 -0.078,0.998 -0.224,1.936 -0.217,2.891 -0.024,1.895 -0.149,3.702 -0.083,5.383 0.091,3.362 0.354,6.298 0.783,8.679 0.215,1.19 0.401,2.255 0.653,3.16 0.115,0.455 0.221,0.877 0.319,1.263 0.123,0.379 0.234,0.723 0.334,1.03 0.401,1.234 0.721,1.842 0.721,1.842 l -0.154,0.086 c 0,0 -0.349,-0.617 -0.791,-1.848 -0.111,-0.308 -0.234,-0.651 -0.37,-1.03 -0.11,-0.386 -0.23,-0.808 -0.361,-1.263 -0.29,-0.905 -0.498,-1.975 -0.724,-3.173 -0.461,-2.396 -0.763,-5.345 -0.896,-8.746 -0.086,-1.699 0.017,-3.494 0.018,-5.393 -0.025,-0.947 0.133,-1.94 0.208,-2.929 0.098,-0.996 0.197,-2.015 0.298,-3.056 0.648,-4.126 1.48,-8.583 2.829,-13.175 1.263,-4.613 2.899,-9.388 4.874,-14.222 0.963,-2.437 2.074,-4.821 3.242,-7.25 1.205,-2.394 2.423,-4.815 3.652,-7.258 2.451,-4.877 4.839,-9.894 6.635,-15.128 1.741,-5.239 2.963,-10.705 2.495,-16.156 l -0.14,-2.028 c -0.034,-0.677 -0.188,-1.337 -0.277,-2.003 -0.105,-0.665 -0.209,-1.327 -0.313,-1.988 -0.158,-0.65 -0.316,-1.299 -0.473,-1.945 -0.615,-2.591 -1.537,-5.068 -2.457,-7.494 -0.976,-2.412 -1.936,-4.784 -2.875,-7.106 -0.918,-2.329 -1.815,-4.616 -2.647,-6.853 -1.701,-4.458 -3.005,-8.848 -3.482,-13.017 -0.504,-4.178 -0.397,-8.005 -0.048,-11.399 0.028,-0.852 0.239,-1.655 0.37,-2.438 0.146,-0.781 0.287,-1.534 0.421,-2.258 0.208,-0.706 0.407,-1.384 0.597,-2.032 0.206,-0.643 0.341,-1.274 0.603,-1.83 0.481,-1.123 0.833,-2.16 1.337,-2.972 0.228,-0.416 0.438,-0.801 0.631,-1.153 0.225,-0.334 0.429,-0.638 0.611,-0.909 0.732,-1.087 1.237,-1.576 1.237,-1.576 l 0.087,0.079 z"
         inkscape:connector-curvature="0"
         style="fill:#f1f1f2" /></g><g
       id="g13"
       style="opacity:0.4"><path
         id="path15"
         d="m 338.583,465.174 c -0.001,0 0.084,-0.662 0.209,-1.905 0.05,-0.623 0.111,-1.391 0.183,-2.294 0.035,-0.906 0.121,-1.943 0.161,-3.107 0.007,-1.165 0.103,-2.453 0.04,-3.855 -0.013,-0.701 -0.025,-1.431 -0.038,-2.188 -0.031,-0.755 -0.108,-1.535 -0.163,-2.343 -0.063,-1.616 -0.417,-3.317 -0.687,-5.086 -0.427,-1.773 -0.875,-3.638 -1.344,-5.583 -0.233,-0.973 -0.473,-1.966 -0.716,-2.978 -0.258,-1.008 -0.619,-2.002 -0.932,-3.03 -0.652,-2.05 -1.327,-4.168 -2.021,-6.346 -1.668,-4.263 -3.301,-8.81 -5.455,-13.321 -1.959,-4.596 -4.428,-9.145 -6.618,-13.928 -2.208,-4.769 -4.218,-9.77 -5.359,-15.02 -0.226,-1.323 -0.523,-2.636 -0.688,-3.965 -0.1,-1.338 -0.2,-2.675 -0.3,-4.009 -0.058,-2.665 0.175,-5.345 0.615,-7.946 0.896,-5.216 2.676,-10.134 4.64,-14.738 0.977,-2.307 2.033,-4.535 2.923,-6.754 0.824,-2.235 1.554,-4.493 2.208,-6.675 1.273,-4.384 2.232,-8.62 2.525,-12.594 0.146,-0.987 0.115,-1.963 0.151,-2.914 0.013,-0.476 0.024,-0.945 0.036,-1.41 l 0.015,-0.691 -0.053,-0.682 c -0.153,-1.817 -0.205,-3.504 -0.563,-5.104 -0.15,-0.798 -0.266,-1.58 -0.43,-2.317 -0.208,-0.722 -0.408,-1.418 -0.601,-2.087 -0.096,-0.334 -0.19,-0.662 -0.282,-0.983 -0.123,-0.312 -0.244,-0.615 -0.362,-0.913 -0.238,-0.595 -0.466,-1.162 -0.681,-1.7 -1.015,-2.082 -1.944,-3.66 -2.713,-4.639 -0.36,-0.509 -0.683,-0.859 -0.895,-1.102 -0.211,-0.242 -0.334,-0.352 -0.334,-0.352 l 0.082,-0.092 c 0,-0.001 0.133,0.107 0.356,0.343 0.225,0.234 0.567,0.576 0.954,1.072 0.829,0.95 1.839,2.507 2.887,4.611 0.228,0.541 0.469,1.111 0.721,1.71 0.124,0.3 0.252,0.606 0.383,0.92 0.1,0.325 0.201,0.658 0.306,0.998 0.207,0.68 0.424,1.388 0.648,2.121 0.178,0.741 0.306,1.517 0.47,2.313 0.396,1.575 0.45,3.359 0.602,5.176 l 0.054,0.691 -0.015,0.701 c -0.012,0.471 -0.023,0.946 -0.035,1.428 -0.037,0.963 -0.007,1.952 -0.154,2.949 -0.297,4.019 -1.264,8.29 -2.545,12.701 -0.663,2.21 -1.382,4.438 -2.223,6.72 -0.902,2.251 -1.955,4.47 -2.929,6.77 -1.955,4.584 -3.718,9.461 -4.603,14.615 -0.434,2.576 -0.662,5.191 -0.606,7.84 0.099,1.316 0.197,2.635 0.296,3.954 0.163,1.313 0.458,2.609 0.681,3.916 1.128,5.188 3.121,10.151 5.321,14.903 2.184,4.768 4.654,9.318 6.621,13.931 2.16,4.524 3.8,9.088 5.475,13.365 0.697,2.19 1.376,4.322 2.032,6.385 0.314,1.034 0.678,2.038 0.936,3.047 0.244,1.012 0.483,2.005 0.717,2.978 0.469,1.945 0.917,3.81 1.345,5.583 0.162,0.922 0.267,1.798 0.397,2.662 0.15,0.858 0.2,1.7 0.245,2.516 0.046,0.815 0.114,1.604 0.137,2.365 10e-4,0.763 0.002,1.497 0.003,2.203 0.023,1.412 -0.108,2.704 -0.148,3.873 -0.149,2.335 -0.393,4.157 -0.56,5.397 -0.184,1.239 -0.299,1.896 -0.299,1.896 l -0.023,-0.002 z"
         inkscape:connector-curvature="0"
         style="fill:#f1f1f2" /></g><path
       id="path17"
       d="m 232.584,402.217 c 0,0 0,-1.899 0,-3.791 0,-1.893 1.597,-2.668 2.808,-2.668 1.211,0 39.717,0 41.275,0 1.558,0 2.105,1.402 2.105,1.966 0,0.564 0,4.493 0,4.493 0,0 33.314,0 36.924,0 3.611,0 2.807,-1.869 1.795,-4.238 -0.773,-1.814 -5.311,-10.73 -5.738,-21.675 -0.42,-10.738 4.564,-18.393 8.328,-28.776 3.764,-10.385 4.855,-16.941 4.74,-24.914 -0.121,-8.614 -3.279,-18.979 -9.893,-18.57 -10.801,0.666 -3.688,28.254 -28.236,34.57 -8.783,2.26 -13.742,-3.273 -15.309,-5.17 -0.271,-0.328 -0.754,-0.301 -0.754,-0.301 l -29.201,-18.532 c 0,0 -11.47,-2.36 -22.463,26.253 -5.883,15.313 -7.152,30.188 -7.301,40.013 -0.148,9.825 1.853,15.934 2.667,18.111 0.814,2.177 1.583,3.212 3.37,3.229 1.789,0.016 14.883,0 14.883,0 z"
       inkscape:connector-curvature="0"
       style="fill:#0e0e0e" /><path
       id="path19"
       d="m 269.675,345.678 c 1.762,0 3.203,1.441 3.203,3.203 v 1.225 c 0,1.762 -1.441,3.203 -3.203,3.203 h -27.732 c -1.762,0 -3.203,-1.441 -3.203,-3.203 v -1.225 c 0,-1.762 1.441,-3.203 3.203,-3.203 h 27.732 z"
       inkscape:connector-curvature="0"
       style="fill:#cdcdcd" /><g
       id="g21"
       style="opacity:0.4"><path
         id="path23"
         d="m 299.979,325.199 c 0,10e-4 0.153,-0.261 0.392,-0.731 0.221,-0.479 0.586,-1.13 0.929,-1.963 0.337,-0.836 0.799,-1.777 1.167,-2.841 0.38,-1.058 0.784,-2.187 1.188,-3.314 0.382,-1.144 0.763,-2.286 1.119,-3.358 0.359,-1.071 0.726,-2.062 1.023,-2.915 0.613,-1.701 1.06,-2.823 1.06,-2.823 l 0.035,0.012 c 0,0 -0.291,1.172 -0.783,2.913 -0.254,0.867 -0.533,1.886 -0.865,2.965 -0.334,1.08 -0.69,2.231 -1.046,3.383 -0.409,1.14 -0.853,2.269 -1.25,3.332 -0.182,0.538 -0.428,1.03 -0.663,1.496 -0.23,0.467 -0.448,0.908 -0.649,1.315 -0.383,0.823 -0.847,1.441 -1.103,1.901 -0.283,0.446 -0.474,0.682 -0.474,0.682 l -0.08,-0.054 z"
         inkscape:connector-curvature="0"
         style="fill:#f1f1f2" /></g><g
       id="g25"
       style="opacity:0.4"><path
         id="path27"
         d="m 270.075,326.032 c 0,0 0.352,0.413 0.783,1.111 0.204,0.352 0.472,0.748 0.673,1.217 0.217,0.452 0.447,0.935 0.679,1.417 0.233,0.481 0.467,0.964 0.686,1.415 0.267,0.414 0.515,0.8 0.728,1.131 0.104,0.168 0.234,0.297 0.332,0.425 0.103,0.126 0.192,0.235 0.266,0.325 0.156,0.169 0.256,0.257 0.257,0.257 l -0.045,0.061 c 0,0 -0.112,-0.076 -0.295,-0.23 -0.085,-0.081 -0.189,-0.181 -0.309,-0.294 -0.114,-0.119 -0.268,-0.233 -0.391,-0.396 -0.25,-0.326 -0.543,-0.705 -0.855,-1.112 -0.245,-0.438 -0.505,-0.906 -0.766,-1.375 -0.122,-0.221 -0.274,-0.485 -0.385,-0.715 -0.117,-0.232 -0.232,-0.461 -0.344,-0.682 -0.211,-0.448 -0.461,-0.837 -0.653,-1.184 -0.398,-0.678 -0.702,-1.114 -0.702,-1.114 l 0.341,-0.257 z"
         inkscape:connector-curvature="0"
         style="fill:#f1f1f2" /></g><path
       id="path29"
       d="m 303.376,394.651 c 4.68,0 8.508,4.035 8.508,8.969 v 65.479 c 0,4.934 -3.828,8.97 -8.508,8.97 -4.678,0 -8.506,-4.036 -8.506,-8.97 V 403.62 c 10e-4,-4.934 3.829,-8.969 8.506,-8.969 z"
       inkscape:connector-curvature="0"
       style="fill:#ececec" /><circle
       id="circle31"
       r="1.4349999"
       cy="399.173"
       cx="217.3"
       sodipodi:cx="217.3"
       sodipodi:cy="399.173"
       sodipodi:rx="1.4349999"
       sodipodi:ry="1.4349999"
       style="fill:#959595"
       d="m 218.735,399.173 c 0,0.79253 -0.64247,1.435 -1.435,1.435 -0.79253,0 -1.435,-0.64247 -1.435,-1.435 0,-0.79252 0.64247,-1.435 1.435,-1.435 0.79253,0 1.435,0.64248 1.435,1.435 z" /><circle
       id="circle33"
       r="1.4349999"
       cy="319.34399"
       cx="237.34599"
       sodipodi:cx="237.34599"
       sodipodi:cy="319.34399"
       sodipodi:rx="1.4349999"
       sodipodi:ry="1.4349999"
       style="fill:#959595"
       d="m 238.78099,319.34399 c 0,0.79253 -0.64247,1.435 -1.435,1.435 -0.79253,0 -1.435,-0.64247 -1.435,-1.435 0,-0.79252 0.64247,-1.435 1.435,-1.435 0.79253,0 1.435,0.64248 1.435,1.435 z" /><circle
       id="circle35"
       r="1.4349999"
       cy="399.44699"
       cx="286.94101"
       sodipodi:cx="286.94101"
       sodipodi:cy="399.44699"
       sodipodi:rx="1.4349999"
       sodipodi:ry="1.4349999"
       style="fill:#959595"
       d="m 288.37601,399.44699 c 0,0.79253 -0.64247,1.435 -1.435,1.435 -0.79253,0 -1.435,-0.64247 -1.435,-1.435 0,-0.79253 0.64247,-1.435 1.435,-1.435 0.79253,0 1.435,0.64247 1.435,1.435 z" /><circle
       id="circle37"
       r="1.4349999"
       cy="310.173"
       cx="315.45999"
       sodipodi:cx="315.45999"
       sodipodi:cy="310.173"
       sodipodi:rx="1.4349999"
       sodipodi:ry="1.4349999"
       style="fill:#959595"
       d="m 316.89499,310.173 c 0,0.79253 -0.64247,1.435 -1.435,1.435 -0.79253,0 -1.435,-0.64247 -1.435,-1.435 0,-0.79252 0.64247,-1.435 1.435,-1.435 0.79253,0 1.435,0.64248 1.435,1.435 z" /><circle
       id="circle39"
       r="1.4349999"
       cy="399.57199"
       cx="314.992"
       sodipodi:cx="314.992"
       sodipodi:cy="399.57199"
       sodipodi:rx="1.4349999"
       sodipodi:ry="1.4349999"
       style="fill:#959595"
       d="m 316.427,399.57199 c 0,0.79253 -0.64247,1.435 -1.435,1.435 -0.79252,0 -1.435,-0.64247 -1.435,-1.435 0,-0.79253 0.64248,-1.435 1.435,-1.435 0.79253,0 1.435,0.64247 1.435,1.435 z" /><path
       id="path41"
       d="m 238.74,349.494 v 0.612 c 0,1.762 1.441,3.203 3.203,3.203 h 27.732 c 1.762,0 3.203,-1.441 3.203,-3.203 v -0.612 H 238.74 z"
       inkscape:connector-curvature="0"
       style="opacity:0.2;fill:#6d6e70" /><g
       id="g43"><path
         id="path45"
         d="m 216.255,293.018 c 0.387,-0.402 0.667,-0.606 0.25,-1.275 -0.395,-0.633 -2.504,-1.104 -3.042,-1.214 l 0.001,-0.005 c 0,0 -0.026,-0.004 -0.064,-0.008 -0.037,-0.008 -0.063,-0.012 -0.063,-0.012 l -10e-4,0.006 c -0.546,-0.055 -2.701,-0.234 -3.266,0.252 -0.598,0.515 -0.391,0.792 -0.142,1.293 0.307,0.614 1.205,1.702 1.205,1.702 l 1.669,0.255 0.127,0.02 1.669,0.254 c 0,0 1.181,-0.772 1.657,-1.268 z"
         inkscape:connector-curvature="0"
         style="fill:#e6e6e7" /><rect
         id="rect47"
         y="292.58099"
         x="212.49899"
         width="0.63599998"
         transform="matrix(-0.1504,0.9886,-0.9886,-0.1504,535.8196,128.2216)"
         height="3.51"
         style="fill:#bbbcbf" /><path
         id="path49"
         d="m 212.118,296.802 c 0.539,0.082 1.438,0.206 2.867,0.472 -0.002,-0.262 0.229,-2.079 -0.206,-2.283 -0.556,-0.262 -1.84,-0.441 -1.992,-0.462 -0.151,-0.026 -1.43,-0.237 -2.039,-0.153 -0.404,0.057 -0.786,1.714 -0.899,2.004 1.115,0.212 1.896,0.365 2.269,0.422 z"
         inkscape:connector-curvature="0"
         style="fill:#d0d1d3" /></g><g
       id="g51"><path
         id="path53"
         d="m 235.28,397.85 v 40.066 c 0,2.114 1.729,3.844 3.844,3.844 h 32.956 c 2.113,0 3.844,-1.729 3.844,-3.844 V 397.85 H 235.28 z"
         inkscape:connector-curvature="0"
         style="fill:#ececec" /><path
         id="path55"
         d="m 236.377,439.309 c 0.675,1.009 1.824,1.677 3.123,1.677 h 32.203 c 1.299,0 2.447,-0.668 3.123,-1.677 h -38.449 z"
         inkscape:connector-curvature="0"
         style="fill:#434244" /><g
         id="g57"><path
           id="path59"
           d="m 270.732,409.075 c 2.832,0.852 4.471,3.808 3.643,6.566 -0.832,2.76 -3.828,4.32 -6.662,3.467 l -26.418,-7.947 c -2.833,-0.854 -4.472,-3.809 -3.642,-6.568 0.83,-2.758 3.828,-4.319 6.661,-3.467 l 26.418,7.949 z"
           inkscape:connector-curvature="0"
           style="fill:#060505" /><path
           id="path61"
           d="m 270.656,409.711 c 2.832,0.854 4.473,3.809 3.643,6.568 -0.832,2.76 -3.828,4.319 -6.66,3.467 l -26.42,-7.948 c -2.833,-0.853 -4.472,-3.808 -3.642,-6.567 0.83,-2.759 3.828,-4.319 6.661,-3.468 l 26.418,7.948 z"
           inkscape:connector-curvature="0"
           style="fill:#313131" /><circle
           id="circle63"
           r="1.416"
           cy="406.51401"
           cx="241.98599"
           sodipodi:cx="241.98599"
           sodipodi:cy="406.51401"
           sodipodi:rx="1.416"
           sodipodi:ry="1.416"
           style="fill:#636363"
           d="m 243.40199,406.51401 c 0,0.78203 -0.63396,1.416 -1.416,1.416 -0.78203,0 -1.416,-0.63397 -1.416,-1.416 0,-0.78204 0.63397,-1.416 1.416,-1.416 0.78204,0 1.416,0.63396 1.416,1.416 z" /><circle
           id="circle65"
           r="1.416"
           cy="408.194"
           cx="247.571"
           sodipodi:cx="247.571"
           sodipodi:cy="408.194"
           sodipodi:rx="1.416"
           sodipodi:ry="1.416"
           style="fill:#636363"
           d="m 248.987,408.194 c 0,0.78204 -0.63397,1.416 -1.416,1.416 -0.78204,0 -1.416,-0.63396 -1.416,-1.416 0,-0.78203 0.63396,-1.416 1.416,-1.416 0.78203,0 1.416,0.63397 1.416,1.416 z" /><circle
           id="circle67"
           r="1.416"
           cy="409.875"
           cx="253.157"
           sodipodi:cx="253.157"
           sodipodi:cy="409.875"
           sodipodi:rx="1.416"
           sodipodi:ry="1.416"
           style="fill:#636363"
           d="m 254.573,409.875 c 0,0.78204 -0.63397,1.416 -1.416,1.416 -0.78204,0 -1.416,-0.63396 -1.416,-1.416 0,-0.78204 0.63396,-1.416 1.416,-1.416 0.78203,0 1.416,0.63396 1.416,1.416 z" /><path
           id="path69"
           d="m 259.148,410.2 c 0.752,0.227 1.174,1.016 0.951,1.765 -0.227,0.749 -1.014,1.173 -1.766,0.946 -0.748,-0.225 -1.172,-1.014 -0.947,-1.762 0.227,-0.749 1.016,-1.174 1.762,-0.949 z"
           inkscape:connector-curvature="0"
           style="fill:#636363" /><circle
           id="circle71"
           r="1.416"
           cy="413.237"
           cx="264.328"
           sodipodi:cx="264.328"
           sodipodi:cy="413.237"
           sodipodi:rx="1.416"
           sodipodi:ry="1.416"
           style="fill:#636363"
           d="m 265.744,413.237 c 0,0.78203 -0.63396,1.416 -1.416,1.416 -0.78203,0 -1.416,-0.63397 -1.416,-1.416 0,-0.78204 0.63397,-1.416 1.416,-1.416 0.78204,0 1.416,0.63396 1.416,1.416 z" /><path
           id="path73"
           d="m 270.322,413.561 c 0.75,0.226 1.174,1.016 0.947,1.764 -0.225,0.748 -1.014,1.174 -1.762,0.947 -0.752,-0.225 -1.174,-1.014 -0.949,-1.762 0.225,-0.75 1.014,-1.175 1.764,-0.949 z"
           inkscape:connector-curvature="0"
           style="fill:#636363" /><path
           id="path75"
           d="m 237.576,405.231 0,0 c -0.83,2.76 0.809,5.715 3.642,6.567 l 26.42,7.948 c 2.832,0.853 5.828,-0.707 6.66,-3.467 l 0,0 -36.722,-11.048 z"
           inkscape:connector-curvature="0"
           style="opacity:0.5;fill:#272525" /></g><g
         id="g77"><path
           id="path79"
           d="m 254.919,425.035 -0.34,17.239 c -0.008,0.393 0.307,0.713 0.699,0.713 h 0.476 c 0.392,0 0.707,-0.32 0.699,-0.713 l -0.341,-17.239 h -1.193 z"
           inkscape:connector-curvature="0"
           style="fill:#6d6e70" /><path
           id="path81"
           d="m 255.278,442.987 h 0.238 v -17.952 h -0.597 l -0.34,17.239 c -0.008,0.393 0.306,0.713 0.699,0.713 z"
           inkscape:connector-curvature="0"
           style="fill:#a6a8aa" /></g><g
         id="g83"><path
           id="path85"
           d="m 266.41,424.918 -0.34,17.239 c -0.008,0.392 0.307,0.714 0.699,0.714 h 0.477 c 0.391,0 0.707,-0.322 0.699,-0.714 l -0.342,-17.239 h -1.193 z"
           inkscape:connector-curvature="0"
           style="fill:#6d6e70" /><path
           id="path87"
           d="m 266.769,442.872 h 0.238 v -17.953 h -0.598 l -0.34,17.239 c -0.007,0.391 0.307,0.714 0.7,0.714 z"
           inkscape:connector-curvature="0"
           style="fill:#a6a8aa" /></g><g
         id="g89"><path
           id="path91"
           d="m 243.679,425.147 -0.341,17.239 c -0.007,0.393 0.307,0.714 0.7,0.714 h 0.476 c 0.392,0 0.707,-0.321 0.699,-0.714 l -0.341,-17.239 h -1.193 z"
           inkscape:connector-curvature="0"
           style="fill:#6d6e70" /><path
           id="path93"
           d="m 244.038,443.1 h 0.238 v -17.953 h -0.597 l -0.341,17.239 c -0.007,0.393 0.307,0.714 0.7,0.714 z"
           inkscape:connector-curvature="0"
           style="fill:#a6a8aa" /></g><g
         id="g95"><rect
           id="rect97"
           y="430.854"
           x="238.87399"
           width="10.876"
           height="4.0409999"
           style="fill:#c9a24d" /><rect
           id="rect99"
           y="432.875"
           x="238.87399"
           width="10.876"
           height="2.02"
           style="fill:#a2833f" /><circle
           id="circle101"
           r="0.773"
           cy="432.875"
           cx="240.211"
           sodipodi:cx="240.211"
           sodipodi:cy="432.875"
           sodipodi:rx="0.773"
           sodipodi:ry="0.773"
           style="fill:#a6a8aa"
           d="m 240.984,432.875 c 0,0.42692 -0.34609,0.773 -0.773,0.773 -0.42692,0 -0.773,-0.34608 -0.773,-0.773 0,-0.42692 0.34608,-0.773 0.773,-0.773 0.42691,0 0.773,0.34608 0.773,0.773 z" /><circle
           id="circle103"
           r="0.773"
           cy="432.875"
           cx="248.41299"
           sodipodi:cx="248.41299"
           sodipodi:cy="432.875"
           sodipodi:rx="0.773"
           sodipodi:ry="0.773"
           style="fill:#a6a8aa"
           d="m 249.18599,432.875 c 0,0.42692 -0.34608,0.773 -0.773,0.773 -0.42691,0 -0.773,-0.34608 -0.773,-0.773 0,-0.42692 0.34609,-0.773 0.773,-0.773 0.42692,0 0.773,0.34608 0.773,0.773 z" /><rect
           id="rect105"
           y="432.69699"
           x="241.489"
           width="5.6459999"
           height="0.35600001"
           style="fill:#434244" /></g><g
         id="g107"><rect
           id="rect109"
           y="429.604"
           x="250.24899"
           width="10.876"
           height="4.0409999"
           style="fill:#c9a24d" /><rect
           id="rect111"
           y="431.625"
           x="250.24899"
           width="10.876"
           height="2.0209999"
           style="fill:#a2833f" /><circle
           id="circle113"
           r="0.77200001"
           cy="431.625"
           cx="251.586"
           sodipodi:cx="251.586"
           sodipodi:cy="431.625"
           sodipodi:rx="0.77200001"
           sodipodi:ry="0.77200001"
           style="fill:#a6a8aa"
           d="m 252.358,431.625 c 0,0.42636 -0.34564,0.772 -0.772,0.772 -0.42637,0 -0.772,-0.34564 -0.772,-0.772 0,-0.42636 0.34563,-0.772 0.772,-0.772 0.42636,0 0.772,0.34564 0.772,0.772 z" /><circle
           id="circle115"
           r="0.77200001"
           cy="431.625"
           cx="259.78699"
           sodipodi:cx="259.78699"
           sodipodi:cy="431.625"
           sodipodi:rx="0.77200001"
           sodipodi:ry="0.77200001"
           style="fill:#a6a8aa"
           d="m 260.55899,431.625 c 0,0.42636 -0.34564,0.772 -0.772,0.772 -0.42637,0 -0.772,-0.34564 -0.772,-0.772 0,-0.42636 0.34563,-0.772 0.772,-0.772 0.42636,0 0.772,0.34564 0.772,0.772 z" /><rect
           id="rect117"
           y="431.44601"
           x="252.864"
           width="5.6459999"
           height="0.35699999"
           style="fill:#434244" /></g><g
         id="g119"><rect
           id="rect121"
           y="428.444"
           x="261.51001"
           width="10.875"
           height="4.0409999"
           style="fill:#c9a24d" /><rect
           id="rect123"
           y="430.46301"
           x="261.51001"
           width="10.875"
           height="2.0209999"
           style="fill:#a2833f" /><circle
           id="circle125"
           r="0.77200001"
           cy="430.46399"
           cx="262.845"
           sodipodi:cx="262.845"
           sodipodi:cy="430.46399"
           sodipodi:rx="0.77200001"
           sodipodi:ry="0.77200001"
           style="fill:#a6a8aa"
           d="m 263.617,430.46399 c 0,0.42636 -0.34563,0.772 -0.772,0.772 -0.42636,0 -0.772,-0.34564 -0.772,-0.772 0,-0.42636 0.34564,-0.772 0.772,-0.772 0.42637,0 0.772,0.34564 0.772,0.772 z" /><circle
           id="circle127"
           r="0.77200001"
           cy="430.46399"
           cx="271.04599"
           sodipodi:cx="271.04599"
           sodipodi:cy="430.46399"
           sodipodi:rx="0.77200001"
           sodipodi:ry="0.77200001"
           style="fill:#a6a8aa"
           d="m 271.81799,430.46399 c 0,0.42636 -0.34564,0.772 -0.772,0.772 -0.42636,0 -0.772,-0.34564 -0.772,-0.772 0,-0.42636 0.34564,-0.772 0.772,-0.772 0.42636,0 0.772,0.34564 0.772,0.772 z" /><rect
           id="rect129"
           y="430.28601"
           x="264.12299"
           width="5.6459999"
           height="0.35600001"
           style="fill:#434244" /></g><path
         id="path131"
         d="m 236.782,440.956 c 0.65,0.502 1.461,0.805 2.342,0.805 h 32.956 c 0.881,0 1.691,-0.303 2.342,-0.805 h -37.64 z"
         inkscape:connector-curvature="0"
         style="fill:#ececec" /><circle
         id="circle133"
         r="1.4349999"
         cy="414.189"
         cx="242.44501"
         sodipodi:cx="242.44501"
         sodipodi:cy="414.189"
         sodipodi:rx="1.4349999"
         sodipodi:ry="1.4349999"
         style="fill:#959595"
         d="m 243.88001,414.189 c 0,0.79252 -0.64247,1.435 -1.435,1.435 -0.79253,0 -1.435,-0.64248 -1.435,-1.435 0,-0.79253 0.64247,-1.435 1.435,-1.435 0.79253,0 1.435,0.64247 1.435,1.435 z" /><circle
         id="circle135"
         r="1.436"
         cy="420.979"
         cx="264.564"
         sodipodi:cx="264.564"
         sodipodi:cy="420.979"
         sodipodi:rx="1.436"
         sodipodi:ry="1.436"
         style="fill:#959595"
         d="m 266,420.979 c 0,0.79308 -0.64292,1.436 -1.436,1.436 -0.79309,0 -1.436,-0.64292 -1.436,-1.436 0,-0.79308 0.64291,-1.436 1.436,-1.436 0.79308,0 1.436,0.64292 1.436,1.436 z" /><circle
         id="circle137"
         r="1.4349999"
         cy="403.341"
         cx="258.125"
         sodipodi:cx="258.125"
         sodipodi:cy="403.341"
         sodipodi:rx="1.4349999"
         sodipodi:ry="1.4349999"
         style="fill:#959595"
         d="m 259.56,403.341 c 0,0.79253 -0.64247,1.435 -1.435,1.435 -0.79253,0 -1.435,-0.64247 -1.435,-1.435 0,-0.79253 0.64247,-1.435 1.435,-1.435 0.79253,0 1.435,0.64247 1.435,1.435 z" /><circle
         id="circle139"
         r="0.958"
         cy="438.039"
         cx="241.789"
         sodipodi:cx="241.789"
         sodipodi:cy="438.039"
         sodipodi:rx="0.958"
         sodipodi:ry="0.958"
         style="fill:#3e331a"
         d="m 242.747,438.039 c 0,0.52909 -0.42891,0.958 -0.958,0.958 -0.52909,0 -0.958,-0.42891 -0.958,-0.958 0,-0.52909 0.42891,-0.958 0.958,-0.958 0.52909,0 0.958,0.42891 0.958,0.958 z" /><circle
         id="circle141"
         r="0.958"
         cy="438.039"
         cx="247.38499"
         sodipodi:cx="247.38499"
         sodipodi:cy="438.039"
         sodipodi:rx="0.958"
         sodipodi:ry="0.958"
         style="fill:#3e331a"
         d="m 248.34299,438.039 c 0,0.52909 -0.42891,0.958 -0.958,0.958 -0.52908,0 -0.958,-0.42891 -0.958,-0.958 0,-0.52909 0.42892,-0.958 0.958,-0.958 0.52909,0 0.958,0.42891 0.958,0.958 z" /><circle
         id="circle143"
         r="0.958"
         cy="438.039"
         cx="252.981"
         sodipodi:cx="252.981"
         sodipodi:cy="438.039"
         sodipodi:rx="0.958"
         sodipodi:ry="0.958"
         style="fill:#3e331a"
         d="m 253.939,438.039 c 0,0.52909 -0.42891,0.958 -0.958,0.958 -0.52909,0 -0.958,-0.42891 -0.958,-0.958 0,-0.52909 0.42891,-0.958 0.958,-0.958 0.52909,0 0.958,0.42891 0.958,0.958 z" /><circle
         id="circle145"
         r="0.958"
         cy="438.039"
         cx="258.578"
         sodipodi:cx="258.578"
         sodipodi:cy="438.039"
         sodipodi:rx="0.958"
         sodipodi:ry="0.958"
         style="fill:#3e331a"
         d="m 259.536,438.039 c 0,0.52909 -0.42891,0.958 -0.958,0.958 -0.52909,0 -0.958,-0.42891 -0.958,-0.958 0,-0.52909 0.42891,-0.958 0.958,-0.958 0.52909,0 0.958,0.42891 0.958,0.958 z" /><circle
         id="circle147"
         r="0.958"
         cy="438.039"
         cx="264.173"
         sodipodi:cx="264.173"
         sodipodi:cy="438.039"
         sodipodi:rx="0.958"
         sodipodi:ry="0.958"
         style="fill:#3e331a"
         d="m 265.131,438.039 c 0,0.52909 -0.42891,0.958 -0.958,0.958 -0.52908,0 -0.958,-0.42891 -0.958,-0.958 0,-0.52909 0.42892,-0.958 0.958,-0.958 0.52909,0 0.958,0.42891 0.958,0.958 z" /><circle
         id="circle149"
         r="0.958"
         cy="438.039"
         cx="269.76901"
         sodipodi:cx="269.76901"
         sodipodi:cy="438.039"
         sodipodi:rx="0.958"
         sodipodi:ry="0.958"
         style="fill:#3e331a"
         d="m 270.72701,438.039 c 0,0.52909 -0.42891,0.958 -0.958,0.958 -0.52909,0 -0.958,-0.42891 -0.958,-0.958 0,-0.52909 0.42891,-0.958 0.958,-0.958 0.52909,0 0.958,0.42891 0.958,0.958 z" /></g><circle
       id="circle151"
       r="1.4349999"
       cy="475.34299"
       cx="303.427"
       sodipodi:cx="303.427"
       sodipodi:cy="475.34299"
       sodipodi:rx="1.4349999"
       sodipodi:ry="1.4349999"
       style="fill:#959595"
       d="m 304.862,475.34299 c 0,0.79253 -0.64247,1.435 -1.435,1.435 -0.79253,0 -1.435,-0.64247 -1.435,-1.435 0,-0.79253 0.64247,-1.435 1.435,-1.435 0.79253,0 1.435,0.64247 1.435,1.435 z" /><circle
       id="circle153"
       r="1.4349999"
       cy="424.41199"
       cx="303.427"
       sodipodi:cx="303.427"
       sodipodi:cy="424.41199"
       sodipodi:rx="1.4349999"
       sodipodi:ry="1.4349999"
       style="fill:#959595"
       d="m 304.862,424.41199 c 0,0.79253 -0.64247,1.435 -1.435,1.435 -0.79253,0 -1.435,-0.64247 -1.435,-1.435 0,-0.79253 0.64247,-1.435 1.435,-1.435 0.79253,0 1.435,0.64247 1.435,1.435 z" /><circle
       id="circle155"
       r="1.4349999"
       cy="402.966"
       cx="303.427"
       sodipodi:cx="303.427"
       sodipodi:cy="402.966"
       sodipodi:rx="1.4349999"
       sodipodi:ry="1.4349999"
       style="fill:#959595"
       d="m 304.862,402.966 c 0,0.79253 -0.64247,1.435 -1.435,1.435 -0.79253,0 -1.435,-0.64247 -1.435,-1.435 0,-0.79253 0.64247,-1.435 1.435,-1.435 0.79253,0 1.435,0.64247 1.435,1.435 z" /><circle
       id="circle157"
       r="1.449"
       cy="397.564"
       cx="303.427"
       sodipodi:cx="303.427"
       sodipodi:cy="397.564"
       sodipodi:rx="1.449"
       sodipodi:ry="1.449"
       style="fill:#959595"
       d="m 304.876,397.564 c 0,0.80026 -0.64874,1.449 -1.449,1.449 -0.80026,0 -1.449,-0.64874 -1.449,-1.449 0,-0.80027 0.64874,-1.449 1.449,-1.449 0.80026,0 1.449,0.64873 1.449,1.449 z" /><path
       id="path159"
       d="m 303.509,461.742 c 2.791,0 5.166,3.011 5.197,6.625 0.008,0.935 -0.127,0.22 -0.439,0.87 -0.596,1.246 -1.945,1.766 -3.779,1.766 -1.201,0 -3.418,1.295 -4.285,0.611 -1.148,-0.905 -1.746,-3.377 -1.746,-4.933 0,-2.727 2.261,-4.939 5.052,-4.939 z"
       inkscape:connector-curvature="0"
       style="fill:#808183" /><circle
       id="circle161"
       r="4.9390001"
       cy="468.62"
       cx="303.85501"
       sodipodi:cx="303.85501"
       sodipodi:cy="468.62"
       sodipodi:rx="4.9390001"
       sodipodi:ry="4.9390001"
       style="fill:#d0d1d3"
       d="m 308.79401,468.62 c 0,2.72773 -2.21126,4.939 -4.939,4.939 -2.72773,0 -4.939,-2.21127 -4.939,-4.939 0,-2.72774 2.21127,-4.93901 4.939,-4.93901 2.72774,0 4.939,2.21127 4.939,4.93901 z" /><circle
       id="circle163"
       r="4.6799998"
       cy="468.62"
       cx="303.85501"
       sodipodi:cx="303.85501"
       sodipodi:cy="468.62"
       sodipodi:rx="4.6799998"
       sodipodi:ry="4.6799998"
       style="fill:#e6e6e7"
       d="m 308.53501,468.62 c 0,2.58469 -2.09531,4.67999 -4.68,4.67999 -2.58469,0 -4.68,-2.0953 -4.68,-4.67999 0,-2.5847 2.09531,-4.68 4.68,-4.68 2.58469,0 4.68,2.0953 4.68,4.68 z" /><path
       id="path165"
       d="m 303.466,428.569 c 2.791,0 5.166,3.011 5.195,6.625 0.008,0.935 -0.127,0.221 -0.438,0.87 -0.596,1.246 -1.947,1.766 -3.781,1.766 -1.199,0 -3.418,1.294 -4.283,0.611 -1.15,-0.905 -1.748,-3.378 -1.748,-4.933 10e-4,-2.728 2.264,-4.939 5.055,-4.939 z"
       inkscape:connector-curvature="0"
       style="fill:#808183" /><g
       id="g167"><path
         id="path169"
         d="m 252.416,509.985 c -0.318,0.461 -0.562,0.705 -0.042,1.3 0.491,0.562 2.648,0.688 3.197,0.71 V 512 c 0,0 0.027,-10e-4 0.064,-0.003 0.038,10e-4 0.064,0.002 0.064,0.002 v -0.006 c 0.547,-0.034 2.703,-0.2 3.183,-0.772 0.508,-0.604 0.26,-0.844 -0.066,-1.299 -0.402,-0.557 -1.463,-1.487 -1.463,-1.487 l -1.688,0.017 -0.128,10e-4 -1.688,0.017 c 0,-0.001 -1.043,0.949 -1.433,1.515 z"
         inkscape:connector-curvature="0"
         style="fill:#e6e6e7" /><path
         id="path171"
         d="m 253.843,508.084 0.003,0.385 3.509,-0.034 -0.004,-0.372 c -1.167,0.012 -2.337,0.018 -3.508,0.021 z"
         inkscape:connector-curvature="0"
         style="fill:#bbbcbf" /></g><circle
       id="circle173"
       r="4.9390001"
       cy="435.44601"
       cx="303.81201"
       sodipodi:cx="303.81201"
       sodipodi:cy="435.44601"
       sodipodi:rx="4.9390001"
       sodipodi:ry="4.9390001"
       style="fill:#d0d1d3"
       d="m 308.75101,435.44601 c 0,2.72774 -2.21126,4.939 -4.939,4.939 -2.72773,0 -4.939,-2.21126 -4.939,-4.939 0,-2.72773 2.21127,-4.939 4.939,-4.939 2.72774,0 4.939,2.21127 4.939,4.939 z" /><circle
       id="circle175"
       r="4.6789999"
       cy="435.44601"
       cx="303.81201"
       sodipodi:cx="303.81201"
       sodipodi:cy="435.44601"
       sodipodi:rx="4.6789999"
       sodipodi:ry="4.6789999"
       style="fill:#e6e6e7"
       d="m 308.49101,435.44601 c 0,2.58414 -2.09486,4.679 -4.679,4.679 -2.58414,0 -4.679,-2.09486 -4.679,-4.679 0,-2.58414 2.09486,-4.679 4.679,-4.679 2.58414,0 4.679,2.09486 4.679,4.679 z" /><rect
       id="rect177"
       y="406.76199"
       x="302.927"
       width="0.84799999"
       height="13.887"
       style="fill:#272525" /><circle
       id="circle179"
       r="3.151"
       cy="416.06201"
       cx="303.423"
       sodipodi:cx="303.423"
       sodipodi:cy="416.06201"
       sodipodi:rx="3.151"
       sodipodi:ry="3.151"
       style="fill:#272525"
       d="m 306.574,416.06201 c 0,1.74025 -1.41075,3.151 -3.151,3.151 -1.74025,0 -3.151,-1.41075 -3.151,-3.151 0,-1.74025 1.41075,-3.151 3.151,-3.151 1.74025,0 3.151,1.41075 3.151,3.151 z" /><circle
       id="circle181"
       r="2.635"
       cy="416.061"
       cx="303.423"
       sodipodi:cx="303.423"
       sodipodi:cy="416.061"
       sodipodi:rx="2.635"
       sodipodi:ry="2.635"
       style="fill:#343335"
       d="m 306.058,416.061 c 0,1.45527 -1.17973,2.635 -2.635,2.635 -1.45527,0 -2.635,-1.17973 -2.635,-2.635 0,-1.45527 1.17973,-2.635 2.635,-2.635 1.45527,0 2.635,1.17973 2.635,2.635 z" /><path
       id="path183"
       d="m 305.675,416.061 c 0,1.313 -1.029,2.381 -2.324,2.452 0.045,0.003 0.09,0.007 0.137,0.007 1.357,0 2.457,-1.102 2.457,-2.459 0,-1.357 -1.1,-2.458 -2.457,-2.458 -0.047,0 -0.092,0.005 -0.137,0.007 1.295,0.07 2.324,1.139 2.324,2.451 z"
       inkscape:connector-curvature="0"
       style="fill:#59595b" /><path
       id="path185"
       d="m 266.507,88.74 c 0,0 3.885,244.172 3.885,246.459 0,2.289 -2.113,3.257 -3.371,3.257 -1.199,0 -22.166,0 -22.852,0 -0.686,0 -2.971,-1.146 -2.971,-3.199 0,-2.053 3.719,-244.75 3.713,-245.43 -0.006,-0.68 -1.734,-3.094 -3.371,-4.228 -1.626,-1.127 -3.656,-2.867 -3.942,-4.571 -0.279,-1.657 -0.103,-1.704 0.457,-3.599 0.613,-2.075 21.488,-71.654 21.709,-72.384 0.244,-0.802 1.029,-4.342 6.113,-4.971 5.084,-0.628 8.627,2.856 9.885,4.113 1.256,1.258 2.283,5.028 2.342,6.113 0.057,1.086 0.342,4.57 -3.086,8.513 -3.428,3.943 -3.77,6.227 -3.027,8.684 0.743,2.457 3.723,6.979 4.113,15.368 0.514,11.026 -7.998,21.996 -9.084,34.449 -0.696,8.005 -0.513,11.426 -0.513,11.426 z"
       inkscape:connector-curvature="0"
       style="fill:#f5cb8d" /><path
       id="path187"
       d="M 246.484,338.457 V 49.314 c -0.326,1.088 -0.649,2.165 -0.968,3.229 v 285.914 c 0.285,0 0.61,0 0.968,0 z"
       inkscape:connector-curvature="0"
       style="fill:#e5b76e" /><path
       id="path189"
       d="M 251.247,338.457 V 33.439 c -0.193,0.643 -0.387,1.288 -0.581,1.937 v 303.081 c 0.191,0 0.385,0 0.581,0 z"
       inkscape:connector-curvature="0"
       style="fill:#e1b474" /><path
       id="path191"
       d="M 255.675,338.457 V 18.678 c -0.447,1.488 -0.918,3.061 -1.41,4.699 v 315.08 c 0.468,0 0.939,0 1.41,0 z"
       inkscape:connector-curvature="0"
       style="fill:#e8bb77" /><path
       id="path193"
       d="M 259.311,338.457 V 6.562 c -0.143,0.477 -0.316,1.056 -0.52,1.73 v 330.165 c 0.176,0 0.348,0 0.52,0 z"
       inkscape:connector-curvature="0"
       style="fill:#ddb270" /><path
       id="path195"
       d="M 265.859,338.457 V 0.078 c -0.287,0.036 -0.559,0.082 -0.816,0.135 v 338.244 c 0.3,0 0.574,0 0.816,0 z"
       inkscape:connector-curvature="0"
       style="fill:#e5b97a" /><path
       id="path197"
       d="m 268.126,0.057 v 71.075 c 0.168,-0.644 0.348,-1.284 0.541,-1.922 V 0.131 C 268.49,0.102 268.31,0.076 268.126,0.057 z"
       inkscape:connector-curvature="0"
       style="fill:#dfb474" /><path
       id="path199"
       d="m 270.154,0.493 v 64.311 c 0.287,-0.781 0.582,-1.559 0.879,-2.332 V 0.822 C 270.75,0.703 270.457,0.591 270.154,0.493 z"
       inkscape:connector-curvature="0"
       style="fill:#e0b576" /><g
       id="g201"><path
         id="path203"
         d="m 242.293,262.289 c -0.006,0.425 -0.013,0.85 -0.019,1.272 h 27.005 c -0.006,-0.423 -0.014,-0.848 -0.02,-1.272 h -26.966 z"
         inkscape:connector-curvature="0"
         style="fill:#bbbcbf" /><path
         id="path205"
         d="m 241.88,289.546 c -0.007,0.427 -0.013,0.851 -0.02,1.272 h 27.848 c -0.008,-0.422 -0.014,-0.846 -0.021,-1.272 H 241.88 z"
         inkscape:connector-curvature="0"
         style="fill:#bbbcbf" /><path
         id="path207"
         d="m 242.145,272.069 c -0.006,0.426 -0.013,0.85 -0.019,1.273 h 27.308 c -0.008,-0.424 -0.014,-0.848 -0.02,-1.273 h -27.269 z"
         inkscape:connector-curvature="0"
         style="fill:#bbbcbf" /><path
         id="path209"
         d="m 242.01,280.944 c -0.007,0.426 -0.013,0.85 -0.02,1.272 h 27.581 c -0.006,-0.423 -0.012,-0.847 -0.02,-1.272 H 242.01 z"
         inkscape:connector-curvature="0"
         style="fill:#bbbcbf" /><path
         id="path211"
         d="m 241.76,297.424 c -0.006,0.428 -0.013,0.852 -0.019,1.273 h 28.09 c -0.006,-0.422 -0.014,-0.846 -0.02,-1.273 H 241.76 z"
         inkscape:connector-curvature="0"
         style="fill:#bbbcbf" /><path
         id="path213"
         d="m 270.355,332.518 c -0.006,-0.387 -0.012,-0.811 -0.02,-1.273 h -29.082 c -0.006,0.461 -0.013,0.888 -0.018,1.273 h 29.12 z"
         inkscape:connector-curvature="0"
         style="fill:#bbbcbf" /><path
         id="path215"
         d="m 241.646,305.032 c -0.006,0.428 -0.013,0.853 -0.019,1.273 h 28.324 c -0.006,-0.422 -0.014,-0.846 -0.02,-1.273 h -28.285 z"
         inkscape:connector-curvature="0"
         style="fill:#bbbcbf" /><path
         id="path217"
         d="m 241.34,325.407 c -0.006,0.438 -0.013,0.862 -0.019,1.273 h 28.946 c -0.006,-0.411 -0.014,-0.835 -0.02,-1.273 H 241.34 z"
         inkscape:connector-curvature="0"
         style="fill:#bbbcbf" /><path
         id="path219"
         d="m 241.538,312.186 c -0.007,0.429 -0.013,0.854 -0.02,1.272 h 28.543 c -0.006,-0.419 -0.014,-0.844 -0.02,-1.272 h -28.503 z"
         inkscape:connector-curvature="0"
         style="fill:#bbbcbf" /><path
         id="path221"
         d="m 241.437,318.887 c -0.006,0.432 -0.013,0.855 -0.019,1.273 h 28.748 c -0.006,-0.418 -0.012,-0.842 -0.02,-1.273 h -28.709 z"
         inkscape:connector-curvature="0"
         style="fill:#bbbcbf" /><path
         id="path223"
         d="m 242.964,218.187 c -0.006,0.425 -0.013,0.849 -0.02,1.273 h 25.637 c -0.006,-0.425 -0.014,-0.849 -0.02,-1.273 h -25.597 z"
         inkscape:connector-curvature="0"
         style="fill:#bbbcbf" /><path
         id="path225"
         d="m 244.056,146.473 c -0.006,0.424 -0.013,0.848 -0.02,1.273 h 23.408 c -0.008,-0.426 -0.014,-0.85 -0.02,-1.273 h -23.368 z"
         inkscape:connector-curvature="0"
         style="fill:#bbbcbf" /><path
         id="path227"
         d="m 243.579,177.798 c -0.006,0.424 -0.013,0.849 -0.02,1.273 h 24.381 c -0.006,-0.425 -0.012,-0.85 -0.02,-1.273 h -24.341 z"
         inkscape:connector-curvature="0"
         style="fill:#bbbcbf" /><path
         id="path229"
         d="m 243.81,162.675 c -0.007,0.423 -0.013,0.848 -0.02,1.272 h 23.913 c -0.008,-0.425 -0.014,-0.85 -0.021,-1.272 H 243.81 z"
         inkscape:connector-curvature="0"
         style="fill:#bbbcbf" /><path
         id="path231"
         d="m 244.313,129.63 c -0.007,0.422 -0.013,0.846 -0.02,1.272 h 22.884 c -0.006,-0.427 -0.014,-0.851 -0.02,-1.272 h -22.844 z"
         inkscape:connector-curvature="0"
         style="fill:#bbbcbf" /><path
         id="path233"
         d="m 244.584,111.699 c -0.006,0.419 -0.013,0.844 -0.019,1.272 h 22.327 c -0.006,-0.429 -0.014,-0.853 -0.02,-1.272 h -22.288 z"
         inkscape:connector-curvature="0"
         style="fill:#bbbcbf" /><path
         id="path235"
         d="m 242.781,230.23 c -0.007,0.425 -0.013,0.85 -0.02,1.273 h 26.012 c -0.008,-0.424 -0.014,-0.849 -0.021,-1.273 h -25.971 z"
         inkscape:connector-curvature="0"
         style="fill:#bbbcbf" /><path
         id="path237"
         d="m 242.608,241.55 c -0.006,0.425 -0.013,0.85 -0.02,1.273 h 26.362 c -0.006,-0.424 -0.014,-0.849 -0.02,-1.273 h -26.322 z"
         inkscape:connector-curvature="0"
         style="fill:#bbbcbf" /><path
         id="path239"
         d="m 242.446,252.237 c -0.006,0.425 -0.013,0.85 -0.02,1.272 h 26.694 c -0.008,-0.423 -0.014,-0.848 -0.021,-1.272 h -26.653 z"
         inkscape:connector-curvature="0"
         style="fill:#bbbcbf" /><path
         id="path241"
         d="m 243.364,191.925 c -0.006,0.424 -0.013,0.849 -0.02,1.273 h 24.821 c -0.006,-0.425 -0.014,-0.85 -0.02,-1.273 h -24.781 z"
         inkscape:connector-curvature="0"
         style="fill:#bbbcbf" /><path
         id="path243"
         d="m 243.157,205.509 c -0.006,0.424 -0.013,0.849 -0.019,1.272 h 25.243 c -0.006,-0.424 -0.014,-0.849 -0.02,-1.272 h -25.204 z"
         inkscape:connector-curvature="0"
         style="fill:#bbbcbf" /></g><g
       id="g245"><path
         id="path247"
         d="m 241.884,289.282 c -0.007,0.426 -0.013,0.85 -0.02,1.271 h 27.84 c -0.008,-0.422 -0.014,-0.846 -0.021,-1.271 h -27.799 z"
         inkscape:connector-curvature="0"
         style="fill:#ededed" /><path
         id="path249"
         d="m 241.765,297.16 c -0.007,0.427 -0.013,0.851 -0.02,1.272 h 28.083 c -0.008,-0.422 -0.014,-0.846 -0.02,-1.272 h -28.043 z"
         inkscape:connector-curvature="0"
         style="fill:#ededed" /><path
         id="path251"
         d="m 242.148,271.803 c -0.006,0.426 -0.013,0.85 -0.019,1.273 h 27.3 c -0.008,-0.424 -0.014,-0.848 -0.021,-1.273 h -27.26 z"
         inkscape:connector-curvature="0"
         style="fill:#ededed" /><path
         id="path253"
         d="m 241.649,304.766 c -0.006,0.428 -0.013,0.853 -0.019,1.273 h 28.316 c -0.006,-0.42 -0.014,-0.846 -0.02,-1.273 h -28.277 z"
         inkscape:connector-curvature="0"
         style="fill:#ededed" /><path
         id="path255"
         d="m 242.014,280.678 c -0.007,0.426 -0.013,0.85 -0.02,1.272 h 27.573 c -0.006,-0.423 -0.014,-0.847 -0.02,-1.272 h -27.533 z"
         inkscape:connector-curvature="0"
         style="fill:#ededed" /><path
         id="path257"
         d="m 270.351,332.252 c -0.006,-0.389 -0.012,-0.813 -0.02,-1.273 h -29.074 c -0.006,0.46 -0.013,0.885 -0.019,1.273 h 29.113 z"
         inkscape:connector-curvature="0"
         style="fill:#ededed" /><path
         id="path259"
         d="m 242.297,262.023 c -0.007,0.426 -0.013,0.85 -0.02,1.272 h 26.997 c -0.008,-0.423 -0.014,-0.848 -0.02,-1.272 h -26.957 z"
         inkscape:connector-curvature="0"
         style="fill:#ededed" /><path
         id="path261"
         d="m 241.344,325.142 c -0.006,0.437 -0.013,0.861 -0.019,1.272 h 28.938 c -0.006,-0.41 -0.014,-0.836 -0.02,-1.272 h -28.899 z"
         inkscape:connector-curvature="0"
         style="fill:#ededed" /><path
         id="path263"
         d="m 241.542,311.92 c -0.007,0.43 -0.013,0.854 -0.02,1.273 h 28.536 c -0.006,-0.42 -0.014,-0.844 -0.02,-1.273 h -28.496 z"
         inkscape:connector-curvature="0"
         style="fill:#ededed" /><path
         id="path265"
         d="m 241.441,318.622 c -0.007,0.432 -0.013,0.855 -0.019,1.273 h 28.739 c -0.006,-0.417 -0.012,-0.842 -0.02,-1.273 h -28.7 z"
         inkscape:connector-curvature="0"
         style="fill:#ededed" /><path
         id="path267"
         d="m 243.813,162.409 c -0.006,0.424 -0.013,0.848 -0.02,1.273 h 23.903 c -0.006,-0.426 -0.012,-0.85 -0.02,-1.273 h -23.863 z"
         inkscape:connector-curvature="0"
         style="fill:#ededed" /><path
         id="path269"
         d="m 242.45,251.971 c -0.006,0.425 -0.013,0.85 -0.019,1.272 h 26.686 c -0.008,-0.423 -0.014,-0.848 -0.021,-1.272 H 242.45 z"
         inkscape:connector-curvature="0"
         style="fill:#ededed" /><path
         id="path271"
         d="m 243.583,177.532 c -0.006,0.424 -0.013,0.849 -0.02,1.273 h 24.374 c -0.006,-0.425 -0.014,-0.85 -0.02,-1.273 h -24.334 z"
         inkscape:connector-curvature="0"
         style="fill:#ededed" /><path
         id="path273"
         d="m 243.368,191.659 c -0.006,0.425 -0.013,0.849 -0.019,1.273 h 24.813 c -0.006,-0.425 -0.014,-0.849 -0.02,-1.273 h -24.774 z"
         inkscape:connector-curvature="0"
         style="fill:#ededed" /><path
         id="path275"
         d="m 244.588,111.434 c -0.006,0.42 -0.013,0.844 -0.019,1.273 h 22.319 c -0.006,-0.429 -0.014,-0.854 -0.02,-1.273 h -22.28 z"
         inkscape:connector-curvature="0"
         style="fill:#ededed" /><path
         id="path277"
         d="m 244.316,129.364 c -0.006,0.422 -0.013,0.847 -0.02,1.272 h 22.876 c -0.008,-0.426 -0.014,-0.851 -0.021,-1.272 h -22.835 z"
         inkscape:connector-curvature="0"
         style="fill:#ededed" /><path
         id="path279"
         d="m 244.06,146.208 c -0.006,0.423 -0.013,0.847 -0.02,1.272 h 23.4 c -0.008,-0.426 -0.014,-0.85 -0.021,-1.272 H 244.06 z"
         inkscape:connector-curvature="0"
         style="fill:#ededed" /><path
         id="path281"
         d="m 242.612,241.285 c -0.006,0.425 -0.013,0.849 -0.019,1.272 h 26.354 c -0.006,-0.424 -0.014,-0.848 -0.02,-1.272 h -26.315 z"
         inkscape:connector-curvature="0"
         style="fill:#ededed" /><path
         id="path283"
         d="m 242.785,229.966 c -0.006,0.425 -0.013,0.849 -0.02,1.272 h 26.002 c -0.006,-0.424 -0.012,-0.848 -0.02,-1.272 h -25.962 z"
         inkscape:connector-curvature="0"
         style="fill:#ededed" /><path
         id="path285"
         d="m 243.161,205.243 c -0.006,0.424 -0.013,0.849 -0.02,1.273 h 25.235 c -0.006,-0.425 -0.014,-0.85 -0.02,-1.273 h -25.195 z"
         inkscape:connector-curvature="0"
         style="fill:#ededed" /><path
         id="path287"
         d="m 242.968,217.922 c -0.006,0.424 -0.013,0.849 -0.019,1.272 h 25.629 c -0.008,-0.424 -0.014,-0.849 -0.02,-1.272 h -25.59 z"
         inkscape:connector-curvature="0"
         style="fill:#ededed" /></g><circle
       id="circle289"
       r="1.643"
       cy="328.91101"
       cx="255.812"
       sodipodi:cx="255.812"
       sodipodi:cy="328.91101"
       sodipodi:rx="1.643"
       sodipodi:ry="1.643"
       style="fill:#272525"
       d="m 257.455,328.91101 c 0,0.9074 -0.7356,1.643 -1.643,1.643 -0.90741,0 -1.643,-0.7356 -1.643,-1.643 0,-0.9074 0.73559,-1.643 1.643,-1.643 0.9074,0 1.643,0.7356 1.643,1.643 z" /><circle
       id="circle291"
       r="1.643"
       cy="316.05899"
       cx="255.812"
       sodipodi:cx="255.812"
       sodipodi:cy="316.05899"
       sodipodi:rx="1.643"
       sodipodi:ry="1.643"
       style="fill:#272525"
       d="m 257.455,316.05899 c 0,0.9074 -0.7356,1.643 -1.643,1.643 -0.90741,0 -1.643,-0.7356 -1.643,-1.643 0,-0.9074 0.73559,-1.643 1.643,-1.643 0.9074,0 1.643,0.7356 1.643,1.643 z" /><circle
       id="circle293"
       r="1.643"
       cy="301.80499"
       cx="255.812"
       sodipodi:cx="255.812"
       sodipodi:cy="301.80499"
       sodipodi:rx="1.643"
       sodipodi:ry="1.643"
       style="fill:#272525"
       d="m 257.455,301.80499 c 0,0.90741 -0.7356,1.643 -1.643,1.643 -0.90741,0 -1.643,-0.73559 -1.643,-1.643 0,-0.9074 0.73559,-1.643 1.643,-1.643 0.9074,0 1.643,0.7356 1.643,1.643 z" /><circle
       id="circle295"
       r="1.643"
       cy="285.72299"
       cx="255.812"
       sodipodi:cx="255.812"
       sodipodi:cy="285.72299"
       sodipodi:rx="1.643"
       sodipodi:ry="1.643"
       style="fill:#272525"
       d="m 257.455,285.72299 c 0,0.90741 -0.7356,1.643 -1.643,1.643 -0.90741,0 -1.643,-0.73559 -1.643,-1.643 0,-0.9074 0.73559,-1.643 1.643,-1.643 0.9074,0 1.643,0.7356 1.643,1.643 z" /><circle
       id="circle297"
       r="1.643"
       cy="257.88501"
       cx="248.90199"
       sodipodi:cx="248.90199"
       sodipodi:cy="257.88501"
       sodipodi:rx="1.643"
       sodipodi:ry="1.643"
       style="fill:#272525"
       d="m 250.54499,257.88501 c 0,0.9074 -0.73559,1.643 -1.643,1.643 -0.9074,0 -1.643,-0.7356 -1.643,-1.643 0,-0.9074 0.7356,-1.643 1.643,-1.643 0.90741,0 1.643,0.7356 1.643,1.643 z" /><circle
       id="circle299"
       r="1.643"
       cy="257.88501"
       cx="262.76901"
       sodipodi:cx="262.76901"
       sodipodi:cy="257.88501"
       sodipodi:rx="1.643"
       sodipodi:ry="1.643"
       style="fill:#272525"
       d="m 264.41201,257.88501 c 0,0.9074 -0.73559,1.643 -1.643,1.643 -0.9074,0 -1.643,-0.7356 -1.643,-1.643 0,-0.9074 0.7356,-1.643 1.643,-1.643 0.90741,0 1.643,0.7356 1.643,1.643 z" /><circle
       id="circle301"
       r="1.643"
       cy="224.73801"
       cx="255.812"
       sodipodi:cx="255.812"
       sodipodi:cy="224.73801"
       sodipodi:rx="1.643"
       sodipodi:ry="1.643"
       style="fill:#272525"
       d="m 257.455,224.73801 c 0,0.9074 -0.7356,1.643 -1.643,1.643 -0.90741,0 -1.643,-0.7356 -1.643,-1.643 0,-0.90741 0.73559,-1.643 1.643,-1.643 0.9074,0 1.643,0.73559 1.643,1.643 z" /><circle
       id="circle303"
       r="1.643"
       cy="199.22701"
       cx="255.812"
       sodipodi:cx="255.812"
       sodipodi:cy="199.22701"
       sodipodi:rx="1.643"
       sodipodi:ry="1.643"
       style="fill:#272525"
       d="m 257.455,199.22701 c 0,0.9074 -0.7356,1.643 -1.643,1.643 -0.90741,0 -1.643,-0.7356 -1.643,-1.643 0,-0.90741 0.73559,-1.64301 1.643,-1.64301 0.9074,0 1.643,0.7356 1.643,1.64301 z" /><circle
       id="circle305"
       r="1.643"
       cy="170.62399"
       cx="255.812"
       sodipodi:cx="255.812"
       sodipodi:cy="170.62399"
       sodipodi:rx="1.643"
       sodipodi:ry="1.643"
       style="fill:#272525"
       d="m 257.455,170.62399 c 0,0.90741 -0.7356,1.643 -1.643,1.643 -0.90741,0 -1.643,-0.73559 -1.643,-1.643 0,-0.9074 0.73559,-1.643 1.643,-1.643 0.9074,0 1.643,0.7356 1.643,1.643 z" /><circle
       id="circle307"
       r="1.643"
       cy="138.44299"
       cx="255.812"
       sodipodi:cx="255.812"
       sodipodi:cy="138.44299"
       sodipodi:rx="1.643"
       sodipodi:ry="1.643"
       style="fill:#272525"
       d="m 257.455,138.44299 c 0,0.90741 -0.7356,1.643 -1.643,1.643 -0.90741,0 -1.643,-0.73559 -1.643,-1.643 0,-0.9074 0.73559,-1.643 1.643,-1.643 0.9074,0 1.643,0.7356 1.643,1.643 z" /><path
       id="path309"
       d="m 266.574,92.972 c -0.006,-0.461 -0.014,-0.885 -0.02,-1.273 h -21.668 c -0.005,0.372 -0.012,0.797 -0.019,1.273 h 21.707 z"
       inkscape:connector-curvature="0"
       style="fill:#bbbcbf" /><path
       id="path311"
       d="m 255.759,84.851 c -0.375,0 -2.214,1.489 -2.399,2.782 -0.213,1.495 0.667,1.788 0.975,1.788 0.236,0 1.374,0.052 1.425,0.05 0.051,0.002 1.188,-0.05 1.424,-0.05 0.309,0 1.189,-0.293 0.975,-1.788 -0.184,-1.293 -2.025,-2.782 -2.4,-2.782 z"
       inkscape:connector-curvature="0"
       style="fill:#6a5542" /><path
       id="path313"
       d="m 266.57,92.706 c -0.01,-0.631 -0.018,-1.19 -0.025,-1.676 h -21.649 c -0.006,0.442 -0.015,1.002 -0.024,1.676 h 21.698 z"
       inkscape:connector-curvature="0"
       style="fill:#ffffff" /><polygon
       id="polygon315"
       points="269.435,437.833 269.734,437.823 264.714,12.975 264.416,12.977 "
       style="fill:#bbbcbf" /><rect
       id="rect317"
       y="231.302"
       x="56.348"
       width="412.73001"
       transform="matrix(-0.0063,-1,1,-0.0063,32.9116,495.6411)"
       height="0.33199999"
       style="fill:#bbbcbf" /><rect
       id="rect319"
       y="237.14799"
       x="57.681999"
       width="401.00201"
       transform="matrix(-0.0015,-1,1,-0.0015,21.2276,495.8593)"
       height="0.36700001"
       style="fill:#bbbcbf" /><rect
       id="rect321"
       y="243.464"
       x="59.284"
       width="388.30399"
       transform="matrix(0.0029,-1,1,0.0029,9.0308,496.4194)"
       height="0.435"
       style="fill:#bbbcbf" /><polygon
       id="polygon323"
       points="247.293,437.828 247.786,437.836 250.387,60.687 249.893,60.685 "
       style="fill:#bbbcbf" /><polygon
       id="polygon325"
       points="241.762,437.823 242.348,437.84 246.772,73.418 246.186,73.414 "
       style="fill:#bbbcbf" /><g
       id="g327"><circle
         id="circle329"
         r="2.0339999"
         cy="41.333"
         cx="263.17499"
         sodipodi:cx="263.17499"
         sodipodi:cy="41.333"
         sodipodi:rx="2.0339999"
         sodipodi:ry="2.0339999"
         style="fill:#d0d1d3"
         d="m 265.20899,41.333 c 0,1.123347 -0.91066,2.034 -2.034,2.034 -1.12335,0 -2.034,-0.910653 -2.034,-2.034 0,-1.123347 0.91065,-2.034 2.034,-2.034 1.12334,0 2.034,0.910653 2.034,2.034 z" /><circle
         id="circle331"
         r="1.3940001"
         cy="41.334"
         cx="263.17499"
         sodipodi:cx="263.17499"
         sodipodi:cy="41.334"
         sodipodi:rx="1.3940001"
         sodipodi:ry="1.3940001"
         style="fill:#929496"
         d="m 264.56899,41.334 c 0,0.769885 -0.62412,1.394 -1.394,1.394 -0.76989,0 -1.394,-0.624115 -1.394,-1.394 0,-0.769885 0.62411,-1.394 1.394,-1.394 0.76988,0 1.394,0.624115 1.394,1.394 z" /><circle
         id="circle333"
         r="1.268"
         cy="41.333"
         cx="263.17499"
         sodipodi:cx="263.17499"
         sodipodi:cy="41.333"
         sodipodi:rx="1.268"
         sodipodi:ry="1.268"
         style="fill:#d0d1d3"
         d="m 264.44299,41.333 c 0,0.700297 -0.56771,1.268 -1.268,1.268 -0.7003,0 -1.268,-0.567703 -1.268,-1.268 0,-0.700297 0.5677,-1.268 1.268,-1.268 0.70029,0 1.268,0.567703 1.268,1.268 z" /><circle
         id="circle335"
         r="0.76599997"
         cy="41.334"
         cx="263.17499"
         sodipodi:cx="263.17499"
         sodipodi:cy="41.334"
         sodipodi:rx="0.76599997"
         sodipodi:ry="0.76599997"
         style="fill:#808183"
         d="m 263.94099,41.334 c 0,0.42305 -0.34295,0.766 -0.766,0.766 -0.42305,0 -0.766,-0.34295 -0.766,-0.766 0,-0.42305 0.34295,-0.766 0.766,-0.766 0.42305,0 0.766,0.34295 0.766,0.766 z" /><rect
         id="rect337"
         y="41.221001"
         x="262.73499"
         width="0.88"
         transform="matrix(0.4706,-0.8824,0.8824,0.4706,102.8569,254.0962)"
         height="0.226"
         style="fill:#d0d1d3" /><rect
         id="rect339"
         y="41.221001"
         x="262.73499"
         width="0.88"
         transform="matrix(-0.8831,-0.4693,0.4693,-0.8831,476.1781,201.3319)"
         height="0.22499999"
         style="fill:#d0d1d3" /></g><g
       id="g341"><rect
         id="rect343"
         y="68.103996"
         x="238.134"
         width="1.747"
         transform="matrix(0.2872,-0.9579,0.9579,0.2872,103.8026,278.4564)"
         height="2.75"
         style="fill:#d0d1d3" /><rect
         id="rect345"
         y="68.523003"
         x="238.44501"
         width="0.87400001"
         transform="matrix(0.2872,-0.9579,0.9579,0.2872,103.3124,278.6344)"
         height="2.75"
         style="fill:#b7b7b7" /><rect
         id="rect347"
         y="68.949997"
         x="236.996"
         width="1.748"
         transform="matrix(0.2871,-0.9579,0.9579,0.2871,103.3525,277.1456)"
         height="0.37599999"
         style="opacity:0.7;fill:#808183" /><ellipse
         id="ellipse349"
         transform="matrix(0.2874,-0.9578,0.9578,0.2874,101.9049,273.289)"
         ry="3.3169999"
         rx="4.5469999"
         cy="68.161003"
         cx="234.61301"
         sodipodi:cx="234.61301"
         sodipodi:cy="68.161003"
         sodipodi:rx="4.5469999"
         sodipodi:ry="3.3169999"
         style="fill:#d0d1d3"
         d="m 239.16001,68.161003 c 0,1.831929 -2.03576,3.317 -4.547,3.317 -2.51124,0 -4.547,-1.485071 -4.547,-3.317 0,-1.831928 2.03576,-3.317 4.547,-3.317 2.51124,0 4.547,1.485072 4.547,3.317 z" /><path
         id="path351"
         d="m 237.79,69.114 c -0.721,2.405 -2.729,3.928 -4.483,3.401 -1.755,-0.526 -2.592,-2.903 -1.871,-5.308 l 6.354,1.907 z"
         inkscape:connector-curvature="0"
         style="fill:#929496" /><path
         id="path353"
         d="m 231.436,67.207 0,0 c -0.67,2.234 0.209,4.472 1.963,4.998 1.755,0.526 3.721,-0.857 4.391,-3.091 h 0 l -6.354,-1.907 z"
         inkscape:connector-curvature="0"
         style="fill:#bfbfbf" /></g><g
       id="g355"><rect
         id="rect357"
         y="56.514"
         x="241.606"
         width="1.748"
         transform="matrix(0.2894,-0.9572,0.9572,0.2894,116.8828,273.2338)"
         height="2.75"
         style="fill:#d0d1d3" /><rect
         id="rect359"
         y="56.931999"
         x="241.916"
         width="0.87400001"
         transform="matrix(0.2893,-0.9572,0.9572,0.2893,116.4276,273.4301)"
         height="2.75"
         style="fill:#b7b7b7" /><rect
         id="rect361"
         y="57.358002"
         x="240.46899"
         width="1.748"
         transform="matrix(0.2892,-0.9573,0.9573,0.2892,116.4615,271.9349)"
         height="0.37599999"
         style="opacity:0.7;fill:#808183" /><ellipse
         id="ellipse363"
         transform="matrix(0.2892,-0.9573,0.9573,0.2892,115.0764,268.1122)"
         ry="3.3169999"
         rx="4.5469999"
         cy="56.563"
         cx="238.088"
         sodipodi:cx="238.088"
         sodipodi:cy="56.563"
         sodipodi:rx="4.5469999"
         sodipodi:ry="3.3169999"
         style="fill:#d0d1d3"
         d="m 242.635,56.563 c 0,1.831928 -2.03576,3.317 -4.547,3.317 -2.51124,0 -4.547,-1.485072 -4.547,-3.317 0,-1.831929 2.03576,-3.317 4.547,-3.317 2.51124,0 4.547,1.485071 4.547,3.317 z" /><path
         id="path365"
         d="m 241.263,57.521 c -0.726,2.404 -2.736,3.923 -4.49,3.394 -1.753,-0.53 -2.586,-2.908 -1.86,-5.312 l 6.35,1.918 z"
         inkscape:connector-curvature="0"
         style="fill:#929496" /><path
         id="path367"
         d="m 234.913,55.603 0,0 c -0.675,2.232 0.2,4.472 1.954,5.002 1.753,0.53 3.722,-0.851 4.396,-3.083 h 0 l -6.35,-1.919 z"
         inkscape:connector-curvature="0"
         style="fill:#bfbfbf" /></g><g
       id="g369"><rect
         id="rect371"
         y="44.826"
         x="245.11301"
         width="1.748"
         transform="matrix(0.2892,-0.9573,0.9573,0.2892,130.6222,268.3153)"
         height="2.75"
         style="fill:#d0d1d3" /><rect
         id="rect373"
         y="45.243999"
         x="245.423"
         width="0.87400001"
         transform="matrix(0.2893,-0.9572,0.9572,0.2893,130.1089,268.4793)"
         height="2.75"
         style="fill:#b7b7b7" /><rect
         id="rect375"
         y="45.669998"
         x="243.976"
         width="1.748"
         transform="matrix(0.2894,-0.9572,0.9572,0.2894,130.084,266.9529)"
         height="0.375"
         style="opacity:0.7;fill:#808183" /><ellipse
         id="ellipse377"
         transform="matrix(0.2892,-0.9573,0.9573,0.2892,128.7625,263.1633)"
         ry="3.3169999"
         rx="4.546"
         cy="44.874001"
         cx="241.59399"
         sodipodi:cx="241.59399"
         sodipodi:cy="44.874001"
         sodipodi:rx="4.546"
         sodipodi:ry="3.3169999"
         style="fill:#d0d1d3"
         d="m 246.13999,44.874001 c 0,1.831928 -2.03531,3.316999 -4.546,3.316999 -2.51068,0 -4.546,-1.485071 -4.546,-3.316999 0,-1.831929 2.03532,-3.317 4.546,-3.317 2.51069,0 4.546,1.485071 4.546,3.317 z" /><path
         id="path379"
         d="m 244.77,45.833 c -0.727,2.403 -2.737,3.923 -4.49,3.393 -1.754,-0.529 -2.587,-2.908 -1.86,-5.312 l 6.35,1.919 z"
         inkscape:connector-curvature="0"
         style="fill:#929496" /><path
         id="path381"
         d="m 238.419,43.914 0,0 c -0.675,2.232 0.2,4.472 1.954,5.002 1.753,0.529 3.722,-0.851 4.396,-3.083 l 0,0 -6.35,-1.919 z"
         inkscape:connector-curvature="0"
         style="fill:#bfbfbf" /></g><g
       id="g383"><rect
         id="rect385"
         y="33.099998"
         x="248.629"
         width="1.748"
         transform="matrix(0.2866,-0.9581,0.9581,0.2866,144.9717,263.6334)"
         height="2.75"
         style="fill:#d0d1d3" /><rect
         id="rect387"
         y="33.518002"
         x="248.94099"
         width="0.875"
         transform="matrix(0.2864,-0.9581,0.9581,0.2864,144.5181,263.8287)"
         height="2.75"
         style="fill:#b7b7b7" /><rect
         id="rect389"
         y="33.946999"
         x="247.491"
         width="1.748"
         transform="matrix(0.2863,-0.9581,0.9581,0.2863,144.5467,262.3288)"
         height="0.37599999"
         style="opacity:0.7;fill:#808183" /><ellipse
         id="ellipse391"
         transform="matrix(0.2864,-0.9581,0.9581,0.2864,143.1358,258.503)"
         ry="3.3169999"
         rx="4.5469999"
         cy="33.160999"
         cx="245.10699"
         sodipodi:cx="245.10699"
         sodipodi:cy="33.160999"
         sodipodi:rx="4.5469999"
         sodipodi:ry="3.3169999"
         style="fill:#d0d1d3"
         d="m 249.65399,33.160999 c 0,1.831929 -2.03576,3.317 -4.547,3.317 -2.51123,0 -4.547,-1.485071 -4.547,-3.317 0,-1.831928 2.03577,-3.317 4.547,-3.317 2.51124,0 4.547,1.485072 4.547,3.317 z" /><path
         id="path393"
         d="m 248.285,34.111 c -0.719,2.406 -2.725,3.931 -4.48,3.406 -1.755,-0.525 -2.595,-2.9 -1.876,-5.306 l 6.356,1.9 z"
         inkscape:connector-curvature="0"
         style="fill:#929496" /><path
         id="path395"
         d="m 241.929,32.211 0,0 c -0.668,2.234 0.213,4.472 1.969,4.996 1.756,0.524 3.72,-0.861 4.387,-3.096 h 0 l -6.356,-1.9 z"
         inkscape:connector-curvature="0"
         style="fill:#bfbfbf" /></g><g
       id="g397"><rect
         id="rect399"
         y="21.509001"
         x="252.108"
         width="1.747"
         transform="matrix(0.2872,-0.9579,0.9579,0.2872,158.394,258.6312)"
         height="2.75"
         style="fill:#d0d1d3" /><rect
         id="rect401"
         y="21.927999"
         x="252.41901"
         width="0.87400001"
         transform="matrix(0.2872,-0.9579,0.9579,0.2872,157.9037,258.8092)"
         height="2.75"
         style="fill:#b7b7b7" /><rect
         id="rect403"
         y="22.355"
         x="250.97099"
         width="1.747"
         transform="matrix(0.2872,-0.9579,0.9579,0.2872,157.9104,257.2986)"
         height="0.37599999"
         style="opacity:0.7;fill:#808183" /><ellipse
         id="ellipse405"
         transform="matrix(0.2871,-0.9579,0.9579,0.2871,156.5586,253.4959)"
         ry="3.3169999"
         rx="4.5469999"
         cy="21.566"
         cx="248.58701"
         sodipodi:cx="248.58701"
         sodipodi:cy="21.566"
         sodipodi:rx="4.5469999"
         sodipodi:ry="3.3169999"
         style="fill:#d0d1d3"
         d="m 253.13401,21.566 c 0,1.831928 -2.03577,3.317 -4.547,3.317 -2.51124,0 -4.547,-1.485072 -4.547,-3.317 0,-1.831928 2.03576,-3.317 4.547,-3.317 2.51123,0 4.547,1.485072 4.547,3.317 z" /><path
         id="path407"
         d="m 251.764,22.52 c -0.721,2.405 -2.728,3.929 -4.482,3.402 -1.754,-0.527 -2.593,-2.902 -1.872,-5.307 l 6.354,1.905 z"
         inkscape:connector-curvature="0"
         style="fill:#929496" /><path
         id="path409"
         d="m 245.409,20.614 0,0 c -0.67,2.234 0.21,4.472 1.965,4.998 1.754,0.525 3.72,-0.859 4.389,-3.093 h 0 l -6.354,-1.905 z"
         inkscape:connector-curvature="0"
         style="fill:#bfbfbf" /></g><g
       id="g411"><rect
         id="rect413"
         y="9.8780003"
         x="255.593"
         width="1.747"
         transform="matrix(0.2896,-0.9571,0.9571,0.2896,171.4213,253.47)"
         height="2.75"
         style="fill:#d0d1d3" /><rect
         id="rect415"
         y="10.296"
         x="255.903"
         width="0.87300003"
         transform="matrix(0.2896,-0.9571,0.9571,0.2896,170.9314,253.6459)"
         height="2.75"
         style="fill:#b7b7b7" /><rect
         id="rect417"
         y="10.721"
         x="254.455"
         width="1.748"
         transform="matrix(0.289,-0.9573,0.9573,0.289,171.086,252.1875)"
         height="0.37599999"
         style="opacity:0.7;fill:#808183" /><ellipse
         id="ellipse419"
         transform="matrix(0.2892,-0.9573,0.9573,0.2892,169.6604,248.3536)"
         ry="3.3169999"
         rx="4.5469999"
         cy="9.9259996"
         cx="252.07401"
         sodipodi:cx="252.07401"
         sodipodi:cy="9.9259996"
         sodipodi:rx="4.5469999"
         sodipodi:ry="3.3169999"
         style="fill:#d0d1d3"
         d="m 256.62101,9.9259996 c 0,1.8319284 -2.03577,3.3170004 -4.547,3.3170004 -2.51124,0 -4.547,-1.485072 -4.547,-3.3170004 0,-1.8319284 2.03576,-3.3169999 4.547,-3.3169999 2.51123,0 4.547,1.4850715 4.547,3.3169999 z" /><path
         id="path421"
         d="m 255.249,10.886 c -0.726,2.403 -2.737,3.923 -4.49,3.393 -1.754,-0.529 -2.586,-2.908 -1.86,-5.312 l 6.35,1.919 z"
         inkscape:connector-curvature="0"
         style="fill:#929496" /><path
         id="path423"
         d="m 248.898,8.967 0,0 c -0.675,2.232 0.2,4.472 1.954,5.002 1.753,0.529 3.722,-0.851 4.396,-3.083 h 0 l -6.35,-1.919 z"
         inkscape:connector-curvature="0"
         style="fill:#bfbfbf" /></g><g
       id="g425"><circle
         id="circle427"
         r="2.8299999"
         cy="72.453003"
         cx="245.20799"
         sodipodi:cx="245.20799"
         sodipodi:cy="72.453003"
         sodipodi:rx="2.8299999"
         sodipodi:ry="2.8299999"
         style="fill:#d0d1d3"
         d="m 248.03799,72.453003 c 0,1.562966 -1.26703,2.83 -2.83,2.83 -1.56296,0 -2.83,-1.267034 -2.83,-2.83 0,-1.562966 1.26704,-2.83 2.83,-2.83 1.56297,0 2.83,1.267034 2.83,2.83 z" /><path
         id="path429"
         d="m 242.399,72.784 c 0.164,1.407 1.358,2.499 2.809,2.499 1.451,0 2.645,-1.092 2.809,-2.499 h -5.618 z"
         inkscape:connector-curvature="0"
         style="fill:#bbbcbf" /><circle
         id="circle431"
         r="1.546"
         cy="72.094002"
         cx="245.20799"
         sodipodi:cx="245.20799"
         sodipodi:cy="72.094002"
         sodipodi:rx="1.546"
         sodipodi:ry="1.546"
         style="fill:#6d6e70"
         d="m 246.75399,72.094002 c 0,0.853832 -0.69217,1.546 -1.546,1.546 -0.85383,0 -1.546,-0.692168 -1.546,-1.546 0,-0.853832 0.69217,-1.546 1.546,-1.546 0.85383,0 1.546,0.692168 1.546,1.546 z" /><circle
         id="circle433"
         r="1.4910001"
         cy="71.292999"
         cx="245.20799"
         sodipodi:cx="245.20799"
         sodipodi:cy="71.292999"
         sodipodi:rx="1.4910001"
         sodipodi:ry="1.4910001"
         style="fill:#f1f1f2"
         d="m 246.69899,71.292999 c 0,0.823457 -0.66754,1.491 -1.491,1.491 -0.82345,0 -1.491,-0.667543 -1.491,-1.491 0,-0.823456 0.66755,-1.491 1.491,-1.491 0.82346,0 1.491,0.667544 1.491,1.491 z" /><path
         id="path435"
         d="m 243.717,71.293 c 0,0.824 0.667,1.491 1.491,1.491 0.824,0 1.491,-0.667 1.491,-1.491 h -2.982 z"
         inkscape:connector-curvature="0"
         style="fill:#e6e6e7" /></g><g
       id="g437"><circle
         id="circle439"
         r="2.8299999"
         cy="60.469002"
         cx="248.92101"
         sodipodi:cx="248.92101"
         sodipodi:cy="60.469002"
         sodipodi:rx="2.8299999"
         sodipodi:ry="2.8299999"
         style="fill:#d0d1d3"
         d="m 251.75101,60.469002 c 0,1.562966 -1.26704,2.83 -2.83,2.83 -1.56297,0 -2.83,-1.267034 -2.83,-2.83 0,-1.562966 1.26703,-2.83 2.83,-2.83 1.56296,0 2.83,1.267034 2.83,2.83 z" /><path
         id="path441"
         d="m 246.112,60.8 c 0.164,1.407 1.358,2.499 2.809,2.499 1.451,0 2.645,-1.092 2.809,-2.499 h -5.618 z"
         inkscape:connector-curvature="0"
         style="fill:#bbbcbf" /><circle
         id="circle443"
         r="1.546"
         cy="60.110001"
         cx="248.92101"
         sodipodi:cx="248.92101"
         sodipodi:cy="60.110001"
         sodipodi:rx="1.546"
         sodipodi:ry="1.546"
         style="fill:#6d6e70"
         d="m 250.46701,60.110001 c 0,0.853832 -0.69217,1.546 -1.546,1.546 -0.85384,0 -1.546,-0.692168 -1.546,-1.546 0,-0.853833 0.69216,-1.546 1.546,-1.546 0.85383,0 1.546,0.692167 1.546,1.546 z" /><circle
         id="circle445"
         r="1.4910001"
         cy="59.308998"
         cx="248.92101"
         sodipodi:cx="248.92101"
         sodipodi:cy="59.308998"
         sodipodi:rx="1.4910001"
         sodipodi:ry="1.4910001"
         style="fill:#f1f1f2"
         d="m 250.41201,59.308998 c 0,0.823457 -0.66755,1.491 -1.491,1.491 -0.82346,0 -1.491,-0.667543 -1.491,-1.491 0,-0.823456 0.66754,-1.491 1.491,-1.491 0.82345,0 1.491,0.667544 1.491,1.491 z" /><path
         id="path447"
         d="m 247.43,59.309 c 0,0.824 0.667,1.491 1.491,1.491 0.824,0 1.491,-0.667 1.491,-1.491 h -2.982 z"
         inkscape:connector-curvature="0"
         style="fill:#e6e6e7" /></g><g
       id="g449"><circle
         id="circle451"
         r="2.8299999"
         cy="48.700001"
         cx="252.42"
         sodipodi:cx="252.42"
         sodipodi:cy="48.700001"
         sodipodi:rx="2.8299999"
         sodipodi:ry="2.8299999"
         style="fill:#d0d1d3"
         d="m 255.25,48.700001 c 0,1.562966 -1.26704,2.83 -2.83,2.83 -1.56297,0 -2.83,-1.267034 -2.83,-2.83 0,-1.562966 1.26703,-2.83 2.83,-2.83 1.56296,0 2.83,1.267034 2.83,2.83 z" /><path
         id="path453"
         d="m 249.611,49.031 c 0.164,1.407 1.358,2.499 2.809,2.499 1.451,0 2.645,-1.092 2.809,-2.499 h -5.618 z"
         inkscape:connector-curvature="0"
         style="fill:#bbbcbf" /><circle
         id="circle455"
         r="1.546"
         cy="48.341"
         cx="252.42"
         sodipodi:cx="252.42"
         sodipodi:cy="48.341"
         sodipodi:rx="1.546"
         sodipodi:ry="1.546"
         style="fill:#6d6e70"
         d="m 253.966,48.341 c 0,0.853832 -0.69217,1.546 -1.546,1.546 -0.85383,0 -1.546,-0.692168 -1.546,-1.546 0,-0.853833 0.69217,-1.546 1.546,-1.546 0.85383,0 1.546,0.692167 1.546,1.546 z" /><circle
         id="circle457"
         r="1.4910001"
         cy="47.541"
         cx="252.42"
         sodipodi:cx="252.42"
         sodipodi:cy="47.541"
         sodipodi:rx="1.4910001"
         sodipodi:ry="1.4910001"
         style="fill:#f1f1f2"
         d="m 253.911,47.541 c 0,0.823457 -0.66755,1.491 -1.491,1.491 -0.82346,0 -1.491,-0.667543 -1.491,-1.491 0,-0.823456 0.66754,-1.491 1.491,-1.491 0.82345,0 1.491,0.667544 1.491,1.491 z" /><path
         id="path459"
         d="m 250.929,47.54 c 0,0.824 0.667,1.491 1.491,1.491 0.824,0 1.491,-0.667 1.491,-1.491 h -2.982 z"
         inkscape:connector-curvature="0"
         style="fill:#e6e6e7" /></g><g
       id="g461"><circle
         id="circle463"
         r="2.8299999"
         cy="36.669998"
         cx="255.993"
         sodipodi:cx="255.993"
         sodipodi:cy="36.669998"
         sodipodi:rx="2.8299999"
         sodipodi:ry="2.8299999"
         style="fill:#d0d1d3"
         d="m 258.823,36.669998 c 0,1.562966 -1.26704,2.83 -2.83,2.83 -1.56297,0 -2.83,-1.267034 -2.83,-2.83 0,-1.562966 1.26703,-2.83 2.83,-2.83 1.56296,0 2.83,1.267034 2.83,2.83 z" /><path
         id="path465"
         d="m 253.184,37.001 c 0.164,1.407 1.358,2.499 2.809,2.499 1.452,0 2.646,-1.092 2.81,-2.499 h -5.619 z"
         inkscape:connector-curvature="0"
         style="fill:#bbbcbf" /><circle
         id="circle467"
         r="1.546"
         cy="36.311001"
         cx="255.993"
         sodipodi:cx="255.993"
         sodipodi:cy="36.311001"
         sodipodi:rx="1.546"
         sodipodi:ry="1.546"
         style="fill:#6d6e70"
         d="m 257.539,36.311001 c 0,0.853832 -0.69217,1.546 -1.546,1.546 -0.85384,0 -1.546,-0.692168 -1.546,-1.546 0,-0.853832 0.69216,-1.546 1.546,-1.546 0.85383,0 1.546,0.692168 1.546,1.546 z" /><circle
         id="circle469"
         r="1.4910001"
         cy="35.509998"
         cx="255.993"
         sodipodi:cx="255.993"
         sodipodi:cy="35.509998"
         sodipodi:rx="1.4910001"
         sodipodi:ry="1.4910001"
         style="fill:#f1f1f2"
         d="m 257.484,35.509998 c 0,0.823457 -0.66755,1.491 -1.491,1.491 -0.82346,0 -1.491,-0.667543 -1.491,-1.491 0,-0.823456 0.66754,-1.491 1.491,-1.491 0.82345,0 1.491,0.667544 1.491,1.491 z" /><path
         id="path471"
         d="m 254.502,35.51 c 0,0.824 0.667,1.491 1.491,1.491 0.824,0 1.491,-0.667 1.491,-1.491 h -2.982 z"
         inkscape:connector-curvature="0"
         style="fill:#e6e6e7" /></g><g
       id="g473"><circle
         id="circle475"
         r="2.8310001"
         cy="24.837"
         cx="259.52701"
         sodipodi:cx="259.52701"
         sodipodi:cy="24.837"
         sodipodi:rx="2.8310001"
         sodipodi:ry="2.8310001"
         style="fill:#d0d1d3"
         d="m 262.35801,24.837 c 0,1.563518 -1.26748,2.831 -2.831,2.831 -1.56352,0 -2.831,-1.267482 -2.831,-2.831 0,-1.563518 1.26748,-2.831 2.831,-2.831 1.56352,0 2.831,1.267482 2.831,2.831 z" /><path
         id="path477"
         d="m 256.718,25.169 c 0.164,1.406 1.358,2.499 2.809,2.499 1.451,0 2.644,-1.093 2.808,-2.499 h -5.617 z"
         inkscape:connector-curvature="0"
         style="fill:#bbbcbf" /><circle
         id="circle479"
         r="1.546"
         cy="24.479"
         cx="259.52701"
         sodipodi:cx="259.52701"
         sodipodi:cy="24.479"
         sodipodi:rx="1.546"
         sodipodi:ry="1.546"
         style="fill:#6d6e70"
         d="m 261.07301,24.479 c 0,0.853832 -0.69217,1.546 -1.546,1.546 -0.85383,0 -1.546,-0.692168 -1.546,-1.546 0,-0.853832 0.69217,-1.546 1.546,-1.546 0.85383,0 1.546,0.692168 1.546,1.546 z" /><circle
         id="circle481"
         r="1.4910001"
         cy="23.677999"
         cx="259.52701"
         sodipodi:cx="259.52701"
         sodipodi:cy="23.677999"
         sodipodi:rx="1.4910001"
         sodipodi:ry="1.4910001"
         style="fill:#f1f1f2"
         d="m 261.01801,23.677999 c 0,0.823457 -0.66755,1.491001 -1.491,1.491001 -0.82346,0 -1.491,-0.667544 -1.491,-1.491001 0,-0.823456 0.66754,-1.491 1.491,-1.491 0.82345,0 1.491,0.667544 1.491,1.491 z" /><path
         id="path483"
         d="m 258.037,23.678 c 0,0.823 0.666,1.491 1.49,1.491 0.824,0 1.49,-0.668 1.49,-1.491 h -2.98 z"
         inkscape:connector-curvature="0"
         style="fill:#e6e6e7" /></g><g
       id="g485"><circle
         id="circle487"
         r="2.8310001"
         cy="13.044"
         cx="263.06"
         sodipodi:cx="263.06"
         sodipodi:cy="13.044"
         sodipodi:rx="2.8310001"
         sodipodi:ry="2.8310001"
         style="fill:#d0d1d3"
         d="m 265.891,13.044 c 0,1.563518 -1.26748,2.831 -2.831,2.831 -1.56352,0 -2.831,-1.267482 -2.831,-2.831 0,-1.563519 1.26748,-2.831 2.831,-2.831 1.56352,0 2.831,1.267481 2.831,2.831 z" /><path
         id="path489"
         d="m 260.252,13.376 c 0.164,1.407 1.357,2.499 2.808,2.499 1.451,0 2.646,-1.092 2.811,-2.499 h -5.619 z"
         inkscape:connector-curvature="0"
         style="fill:#bbbcbf" /><circle
         id="circle491"
         r="1.546"
         cy="12.686"
         cx="263.06"
         sodipodi:cx="263.06"
         sodipodi:cy="12.686"
         sodipodi:rx="1.546"
         sodipodi:ry="1.546"
         style="fill:#6d6e70"
         d="m 264.606,12.686 c 0,0.853832 -0.69217,1.546 -1.546,1.546 -0.85383,0 -1.546,-0.692168 -1.546,-1.546 0,-0.853832 0.69217,-1.546 1.546,-1.546 0.85383,0 1.546,0.692168 1.546,1.546 z" /><circle
         id="circle493"
         r="1.4910001"
         cy="11.885"
         cx="263.06"
         sodipodi:cx="263.06"
         sodipodi:cy="11.885"
         sodipodi:rx="1.4910001"
         sodipodi:ry="1.4910001"
         style="fill:#f1f1f2"
         d="m 264.551,11.885 c 0,0.823457 -0.66755,1.491 -1.491,1.491 -0.82346,0 -1.491,-0.667543 -1.491,-1.491 0,-0.823456 0.66754,-1.491 1.491,-1.491 0.82345,0 1.491,0.667544 1.491,1.491 z" /><path
         id="path495"
         d="m 261.57,11.885 c 0,0.823 0.667,1.491 1.49,1.491 0.824,0 1.492,-0.668 1.492,-1.491 h -2.982 z"
         inkscape:connector-curvature="0"
         style="fill:#e6e6e7" /></g></g></svg>