<?xml version="1.0" encoding="UTF-8" standalone="no"?>
<!-- Created with Inkscape (http://www.inkscape.org/) -->

<svg
   xmlns:dc="http://purl.org/dc/elements/1.1/"
   xmlns:cc="http://creativecommons.org/ns#"
   xmlns:rdf="http://www.w3.org/1999/02/22-rdf-syntax-ns#"
   xmlns:svg="http://www.w3.org/2000/svg"
   xmlns="http://www.w3.org/2000/svg"
   xmlns:sodipodi="http://sodipodi.sourceforge.net/DTD/sodipodi-0.dtd"
   xmlns:inkscape="http://www.inkscape.org/namespaces/inkscape"
   width="543.09003"
   height="908.35999"
   id="svg2"
   version="1.1"
   inkscape:version="0.48.5 r10040"
   sodipodi:docname="main_guitar_sm.svg"
   inkscape:export-filename="C:\wamp\www\q\img\icon\main_guitar_sm.png"
   inkscape:export-xdpi="7.02"
   inkscape:export-ydpi="7.02">
  <defs
     id="defs4" />
  <sodipodi:namedview
     id="base"
     pagecolor="#ffffff"
     bordercolor="#666666"
     borderopacity="1.0"
     inkscape:pageopacity="0.0"
     inkscape:pageshadow="2"
     inkscape:zoom="0.7"
     inkscape:cx="54.972977"
     inkscape:cy="423.93115"
     inkscape:document-units="px"
     inkscape:current-layer="layer1"
     showgrid="false"
     inkscape:window-width="1920"
     inkscape:window-height="1058"
     inkscape:window-x="-8"
     inkscape:window-y="-8"
     inkscape:window-maximized="1" />
  <metadata
     id="metadata7">
    <rdf:RDF>
      <cc:Work
         rdf:about="">
        <dc:format>image/svg+xml</dc:format>
        <dc:type
           rdf:resource="http://purl.org/dc/dcmitype/StillImage" />
        <dc:title></dc:title>
      </cc:Work>
    </rdf:RDF>
  </metadata>
  <g
     inkscape:label="Layer 1"
     inkscape:groupmode="layer"
     id="layer1"
     transform="translate(0,-144.00025)">
    <path
       style="fill:none;stroke:#eeeeee;stroke-width:28.6;stroke-linecap:butt;stroke-linejoin:miter;stroke-miterlimit:4;stroke-opacity:1;stroke-dasharray:none"
       d="m 140.53572,1039.3265 c 0,0 3.66988,-27.7693 -16.42857,-58.57146 C 107.6631,960.16951 98.94686,952.7376 77.14286,930.9336 69.78667,924.58756 70.32652,912.7447 70.50509,907.7447 70.68366,900.42327 267.85715,234.50504 267.85715,234.50504 305.71429,128.79075 527.12659,108.78015 530,320.9336 c -9.59645,93.43911 -117.12798,105.13488 -125.71428,152.10697 -9.59645,30.80965 53.70586,127.31024 94.17187,278.33143 9.22183,48.12642 0.17398,99.51458 -1.06962,101.66857 0,0 -70.74103,-3.3031 -125.51034,52.08159 -36.46356,36.46356 -47.08683,75.56379 -46.58176,133.64754 z"
       id="path2996"
       inkscape:connector-curvature="0"
       sodipodi:nodetypes="cccccccccccc"
       inkscape:export-filename="C:\wamp\www\q\img\icon\path3852-62.png"
       inkscape:export-xdpi="7.02"
       inkscape:export-ydpi="7.02" />
    <path
       sodipodi:type="arc"
       style="fill:none;stroke:#eeeeee;stroke-width:72.09308276;stroke-miterlimit:4;stroke-opacity:1;stroke-dasharray:none"
       id="path3774"
       sodipodi:cx="415.71429"
       sodipodi:cy="273.07648"
       sodipodi:rx="38.57143"
       sodipodi:ry="38.57143"
       d="m 454.28572,273.07648 c 0,21.30241 -17.26901,38.57143 -38.57143,38.57143 -21.30241,0 -38.57143,-17.26902 -38.57143,-38.57143 0,-21.30242 17.26902,-38.57143 38.57143,-38.57143 21.30242,0 38.57143,17.26901 38.57143,38.57143 z"
       transform="matrix(0.39670935,0,0,0.39670935,70.08227,446.88734)"
       inkscape:export-filename="C:\wamp\www\q\img\icon\path3852-62.png"
       inkscape:export-xdpi="7.02"
       inkscape:export-ydpi="7.02" />
    <path
       sodipodi:type="arc"
       style="fill:none;stroke:#eeeeee;stroke-width:72.09308276;stroke-miterlimit:4;stroke-opacity:1;stroke-dasharray:none"
       id="path3774-5"
       sodipodi:cx="415.71429"
       sodipodi:cy="273.07648"
       sodipodi:rx="38.57143"
       sodipodi:ry="38.57143"
       d="m 454.28572,273.07648 c 0,21.30241 -17.26901,38.57143 -38.57143,38.57143 -21.30241,0 -38.57143,-17.26902 -38.57143,-38.57143 0,-21.30242 17.26902,-38.57143 38.57143,-38.57143 21.30242,0 38.57143,17.26901 38.57143,38.57143 z"
       transform="matrix(0.39670935,0,0,0.39670935,37.9394,554.03019)"
       inkscape:export-filename="C:\wamp\www\q\img\icon\path3852-62.png"
       inkscape:export-xdpi="7.02"
       inkscape:export-ydpi="7.02" />
    <path
       sodipodi:type="arc"
       style="fill:none;stroke:#eeeeee;stroke-width:72.09308276;stroke-miterlimit:4;stroke-opacity:1;stroke-dasharray:none"
       id="path3774-2"
       sodipodi:cx="415.71429"
       sodipodi:cy="273.07648"
       sodipodi:rx="38.57143"
       sodipodi:ry="38.57143"
       d="m 454.28572,273.07648 c 0,21.30241 -17.26901,38.57143 -38.57143,38.57143 -21.30241,0 -38.57143,-17.26902 -38.57143,-38.57143 0,-21.30242 17.26902,-38.57143 38.57143,-38.57143 21.30242,0 38.57143,17.26901 38.57143,38.57143 z"
       transform="matrix(0.39670935,0,0,0.39670935,5.08226,658.3159)"
       inkscape:export-filename="C:\wamp\www\q\img\icon\path3852-62.png"
       inkscape:export-xdpi="7.02"
       inkscape:export-ydpi="7.02" />
    <path
       sodipodi:type="arc"
       style="fill:none;stroke:#eeeeee;stroke-width:72.09308276;stroke-miterlimit:4;stroke-opacity:1;stroke-dasharray:none"
       id="path3774-3"
       sodipodi:cx="415.71429"
       sodipodi:cy="273.07648"
       sodipodi:rx="38.57143"
       sodipodi:ry="38.57143"
       d="m 454.28572,273.07648 c 0,21.30241 -17.26901,38.57143 -38.57143,38.57143 -21.30241,0 -38.57143,-17.26902 -38.57143,-38.57143 0,-21.30242 17.26902,-38.57143 38.57143,-38.57143 21.30242,0 38.57143,17.26901 38.57143,38.57143 z"
       transform="matrix(0.39670935,0,0,0.39670935,-24.20346,761.88733)"
       inkscape:export-filename="C:\wamp\www\q\img\icon\path3852-62.png"
       inkscape:export-xdpi="7.02"
       inkscape:export-ydpi="7.02" />
    <path
       sodipodi:type="arc"
       style="fill:none;stroke:#eeeeee;stroke-width:72.09308276;stroke-miterlimit:4;stroke-opacity:1;stroke-dasharray:none"
       id="path3774-1"
       sodipodi:cx="415.71429"
       sodipodi:cy="273.07648"
       sodipodi:rx="38.57143"
       sodipodi:ry="38.57143"
       d="m 454.28572,273.07648 c 0,21.30241 -17.26901,38.57143 -38.57143,38.57143 -21.30241,0 -38.57143,-17.26902 -38.57143,-38.57143 0,-21.30242 17.26902,-38.57143 38.57143,-38.57143 21.30242,0 38.57143,17.26901 38.57143,38.57143 z"
       transform="matrix(0.39670935,0,0,0.39670935,99.36797,339.74447)"
       inkscape:export-filename="C:\wamp\www\q\img\icon\path3852-62.png"
       inkscape:export-xdpi="7.02"
       inkscape:export-ydpi="7.02" />
    <path
       sodipodi:type="arc"
       style="fill:none;stroke:#eeeeee;stroke-width:72.09308276;stroke-miterlimit:4;stroke-opacity:1;stroke-dasharray:none"
       id="path3774-6"
       sodipodi:cx="415.71429"
       sodipodi:cy="273.07648"
       sodipodi:rx="38.57143"
       sodipodi:ry="38.57143"
       d="m 454.28572,273.07648 c 0,21.30241 -17.26901,38.57143 -38.57143,38.57143 -21.30241,0 -38.57143,-17.26902 -38.57143,-38.57143 0,-21.30242 17.26902,-38.57143 38.57143,-38.57143 21.30242,0 38.57143,17.26901 38.57143,38.57143 z"
       transform="matrix(0.39670935,0,0,0.39670935,130.79654,230.45876)"
       inkscape:export-filename="C:\wamp\www\q\img\icon\path3852-62.png"
       inkscape:export-xdpi="7.02"
       inkscape:export-ydpi="7.02" />
    <path
       sodipodi:type="arc"
       style="fill:none;stroke:#eeeeee;stroke-width:27.44531288;stroke-linecap:round;stroke-linejoin:round;stroke-miterlimit:4;stroke-opacity:1;stroke-dasharray:none;stroke-dashoffset:6.20000000000000020"
       id="path3830"
       sodipodi:cx="254.05336"
       sodipodi:cy="284.39371"
       sodipodi:rx="26.263966"
       sodipodi:ry="40.658642"
       d="m 280.31733,284.39371 c 0,22.45515 -11.75878,40.65864 -26.26397,40.65864 -14.50519,0 -26.26397,-18.20349 -26.26397,-40.65864 0,-22.45515 11.75878,-40.65864 26.26397,-40.65864 14.50519,0 26.26397,18.20349 26.26397,40.65864 z"
       transform="matrix(1.0851636,0.17838852,-0.24506616,0.96040603,-43.32681,56.878436)"
       inkscape:export-filename="C:\wamp\www\q\img\icon\path3852-62.png"
       inkscape:export-xdpi="7.02"
       inkscape:export-ydpi="7.02" />
    <path
       style="fill:none;stroke:#eeeeee;stroke-width:28.6;stroke-linecap:butt;stroke-linejoin:miter;stroke-miterlimit:4;stroke-opacity:1;stroke-dasharray:none"
       d="m 188.03572,388.43361 30.89286,10.35714"
       id="path3850"
       inkscape:connector-curvature="0"
       inkscape:export-filename="C:\wamp\www\q\img\icon\path3852-62.png"
       inkscape:export-xdpi="7.02"
       inkscape:export-ydpi="7.02" />
    <path
       style="fill:none;stroke:#eeeeee;stroke-width:28.6;stroke-linecap:butt;stroke-linejoin:miter;stroke-miterlimit:4;stroke-opacity:1;stroke-dasharray:none"
       d="m 191.96429,375.04075 31.42857,8.75"
       id="path3852"
       inkscape:connector-curvature="0"
       inkscape:export-xdpi="7.02"
       inkscape:export-ydpi="7.02" />
    <path
       sodipodi:type="arc"
       style="fill:none;stroke:#eeeeee;stroke-width:27.44531288;stroke-linecap:round;stroke-linejoin:round;stroke-miterlimit:4;stroke-opacity:1;stroke-dasharray:none;stroke-dashoffset:6.20000000000000020"
       id="path3830-8"
       sodipodi:cx="254.05336"
       sodipodi:cy="284.39371"
       sodipodi:rx="26.263966"
       sodipodi:ry="40.658642"
       d="m 280.31733,284.39371 c 0,22.45515 -11.75878,40.65864 -26.26397,40.65864 -14.50519,0 -26.26397,-18.20349 -26.26397,-40.65864 0,-22.45515 11.75878,-40.65864 26.26397,-40.65864 14.50519,0 26.26397,18.20349 26.26397,40.65864 z"
       transform="matrix(1.0851636,0.17838852,-0.24506616,0.96040603,-11.82368,-49.312487)"
       inkscape:export-filename="C:\wamp\www\q\img\icon\path3852-62.png"
       inkscape:export-xdpi="7.02"
       inkscape:export-ydpi="7.02" />
    <path
       style="fill:none;stroke:#eeeeee;stroke-width:28.6;stroke-linecap:butt;stroke-linejoin:miter;stroke-miterlimit:4;stroke-opacity:1;stroke-dasharray:none"
       d="m 219.53885,282.24269 30.89286,10.35714"
       id="path3850-2"
       inkscape:connector-curvature="0"
       inkscape:export-filename="C:\wamp\www\q\img\icon\path3852-62.png"
       inkscape:export-xdpi="7.02"
       inkscape:export-ydpi="7.02" />
    <path
       style="fill:none;stroke:#eeeeee;stroke-width:28.6;stroke-linecap:butt;stroke-linejoin:miter;stroke-miterlimit:4;stroke-opacity:1;stroke-dasharray:none"
       d="m 223.46742,268.84983 31.42857,8.75"
       id="path3852-7"
       inkscape:connector-curvature="0"
       inkscape:export-filename="C:\wamp\www\q\img\icon\path3852-62.png"
       inkscape:export-xdpi="7.02"
       inkscape:export-ydpi="7.02" />
    <path
       sodipodi:type="arc"
       style="fill:none;stroke:#eeeeee;stroke-width:27.44531288;stroke-linecap:round;stroke-linejoin:round;stroke-miterlimit:4;stroke-opacity:1;stroke-dasharray:none;stroke-dashoffset:6.20000000000000020"
       id="path3830-7"
       sodipodi:cx="254.05336"
       sodipodi:cy="284.39371"
       sodipodi:rx="26.263966"
       sodipodi:ry="40.658642"
       d="m 280.31733,284.39371 c 0,22.45515 -11.75878,40.65864 -26.26397,40.65864 -14.50519,0 -26.26397,-18.20349 -26.26397,-40.65864 0,-22.45515 11.75878,-40.65864 26.26397,-40.65864 14.50519,0 26.26397,18.20349 26.26397,40.65864 z"
       transform="matrix(1.0851636,0.17838852,-0.24506616,0.96040603,-73.00426,160.16653)"
       inkscape:export-filename="C:\wamp\www\q\img\icon\path3852-62.png"
       inkscape:export-xdpi="7.02"
       inkscape:export-ydpi="7.02" />
    <path
       style="fill:none;stroke:#eeeeee;stroke-width:28.6;stroke-linecap:butt;stroke-linejoin:miter;stroke-miterlimit:4;stroke-opacity:1;stroke-dasharray:none"
       d="m 158.35826,491.72171 30.89286,10.35714"
       id="path3850-1"
       inkscape:connector-curvature="0"
       inkscape:export-filename="C:\wamp\www\q\img\icon\path3852-62.png"
       inkscape:export-xdpi="7.02"
       inkscape:export-ydpi="7.02" />
    <path
       style="fill:none;stroke:#eeeeee;stroke-width:28.6;stroke-linecap:butt;stroke-linejoin:miter;stroke-miterlimit:4;stroke-opacity:1;stroke-dasharray:none"
       d="m 162.28683,478.32885 31.42857,8.75"
       id="path3852-2"
       inkscape:connector-curvature="0"
       inkscape:export-filename="C:\wamp\www\q\img\icon\path3852-62.png"
       inkscape:export-xdpi="7.02"
       inkscape:export-ydpi="7.02" />
    <path
       sodipodi:type="arc"
       style="fill:none;stroke:#eeeeee;stroke-width:27.44531288;stroke-linecap:round;stroke-linejoin:round;stroke-miterlimit:4;stroke-opacity:1;stroke-dasharray:none;stroke-dashoffset:6.20000000000000020"
       id="path3830-6"
       sodipodi:cx="254.05336"
       sodipodi:cy="284.39371"
       sodipodi:rx="26.263966"
       sodipodi:ry="40.658642"
       d="m 280.31733,284.39371 c 0,22.45515 -11.75878,40.65864 -26.26397,40.65864 -14.50519,0 -26.26397,-18.20349 -26.26397,-40.65864 0,-22.45515 11.75878,-40.65864 26.26397,-40.65864 14.50519,0 26.26397,18.20349 26.26397,40.65864 z"
       transform="matrix(1.0851636,0.17838852,-0.24506616,0.96040603,-104.31899,263.95971)"
       inkscape:export-filename="C:\wamp\www\q\img\icon\path3852-62.png"
       inkscape:export-xdpi="7.02"
       inkscape:export-ydpi="7.02" />
    <path
       style="fill:none;stroke:#eeeeee;stroke-width:28.6;stroke-linecap:butt;stroke-linejoin:miter;stroke-miterlimit:4;stroke-opacity:1;stroke-dasharray:none"
       d="m 127.04354,595.51489 30.89286,10.35714"
       id="path3850-0"
       inkscape:connector-curvature="0"
       inkscape:export-filename="C:\wamp\www\q\img\icon\path3852-62.png"
       inkscape:export-xdpi="7.02"
       inkscape:export-ydpi="7.02" />
    <path
       style="fill:none;stroke:#eeeeee;stroke-width:28.6;stroke-linecap:butt;stroke-linejoin:miter;stroke-miterlimit:4;stroke-opacity:1;stroke-dasharray:none"
       d="m 130.97211,582.12203 31.42857,8.75"
       id="path3852-4"
       inkscape:connector-curvature="0"
       inkscape:export-filename="C:\wamp\www\q\img\icon\path3852-62.png"
       inkscape:export-xdpi="7.02"
       inkscape:export-ydpi="7.02" />
    <path
       sodipodi:type="arc"
       style="fill:none;stroke:#eeeeee;stroke-width:27.44531288;stroke-linecap:round;stroke-linejoin:round;stroke-miterlimit:4;stroke-opacity:1;stroke-dasharray:none;stroke-dashoffset:6.20000000000000020"
       id="path3830-9"
       sodipodi:cx="254.05336"
       sodipodi:cy="284.39371"
       sodipodi:rx="26.263966"
       sodipodi:ry="40.658642"
       d="m 280.31733,284.39371 c 0,22.45515 -11.75878,40.65864 -26.26397,40.65864 -14.50519,0 -26.26397,-18.20349 -26.26397,-40.65864 0,-22.45515 11.75878,-40.65864 26.26397,-40.65864 14.50519,0 26.26397,18.20349 26.26397,40.65864 z"
       transform="matrix(1.0851636,0.17838852,-0.24506616,0.96040603,-134.62356,366.49019)"
       inkscape:export-filename="C:\wamp\www\q\img\icon\path3852-62.png"
       inkscape:export-xdpi="7.02"
       inkscape:export-ydpi="7.02" />
    <path
       style="fill:none;stroke:#eeeeee;stroke-width:28.6;stroke-linecap:butt;stroke-linejoin:miter;stroke-miterlimit:4;stroke-opacity:1;stroke-dasharray:none"
       d="m 96.73896,698.04538 30.89286,10.35714"
       id="path3850-4"
       inkscape:connector-curvature="0"
       inkscape:export-filename="C:\wamp\www\q\img\icon\path3852-62.png"
       inkscape:export-xdpi="7.02"
       inkscape:export-ydpi="7.02" />
    <path
       style="fill:none;stroke:#eeeeee;stroke-width:28.6;stroke-linecap:butt;stroke-linejoin:miter;stroke-miterlimit:4;stroke-opacity:1;stroke-dasharray:none"
       d="m 100.66753,684.65252 31.42857,8.75"
       id="path3852-6"
       inkscape:connector-curvature="0"
       inkscape:export-xdpi="7.02"
       inkscape:export-ydpi="7.02" />
    <path
       sodipodi:type="arc"
       style="fill:none;stroke:#eeeeee;stroke-width:27.44531288;stroke-linecap:round;stroke-linejoin:round;stroke-miterlimit:4;stroke-opacity:1;stroke-dasharray:none;stroke-dashoffset:6.20000000000000020"
       id="path3830-0"
       sodipodi:cx="254.05336"
       sodipodi:cy="284.39371"
       sodipodi:rx="26.263966"
       sodipodi:ry="40.658642"
       d="m 280.31733,284.39371 c 0,22.45515 -11.75878,40.65864 -26.26397,40.65864 -14.50519,0 -26.26397,-18.20349 -26.26397,-40.65864 0,-22.45515 11.75878,-40.65864 26.26397,-40.65864 14.50519,0 26.26397,18.20349 26.26397,40.65864 z"
       transform="matrix(1.0851636,0.17838852,-0.24506616,0.96040603,-163.91799,469.77829)"
       inkscape:export-filename="C:\wamp\www\q\img\icon\path3852-62.png"
       inkscape:export-xdpi="7.02"
       inkscape:export-ydpi="7.02" />
    <path
       style="fill:none;stroke:#eeeeee;stroke-width:28.6;stroke-linecap:butt;stroke-linejoin:miter;stroke-miterlimit:4;stroke-opacity:1;stroke-dasharray:none"
       d="m 67.44453,801.33347 30.89286,10.35714"
       id="path3850-3"
       inkscape:connector-curvature="0"
       inkscape:export-filename="C:\wamp\www\q\img\icon\path3852-62.png"
       inkscape:export-xdpi="7.02"
       inkscape:export-ydpi="7.02" />
    <path
       style="fill:none;stroke:#eeeeee;stroke-width:28.6;stroke-linecap:butt;stroke-linejoin:miter;stroke-miterlimit:4;stroke-opacity:1;stroke-dasharray:none"
       d="m 71.3731,787.94061 31.42857,8.75"
       id="path3852-62"
       inkscape:connector-curvature="0"
       inkscape:export-xdpi="7.02"
       inkscape:export-ydpi="7.02" />
  </g>
</svg>
