<?xml version="1.0" encoding="utf-8"?>
<!-- Generator: Adobe Illustrator 16.0.0, SVG Export Plug-In . SVG Version: 6.00 Build 0)  -->
<!DOCTYPE svg PUBLIC "-//W3C//DTD SVG 1.1//EN" "http://www.w3.org/Graphics/SVG/1.1/DTD/svg11.dtd">
<svg version="1.1" id="Layer_1" xmlns="http://www.w3.org/2000/svg" xmlns:xlink="http://www.w3.org/1999/xlink" x="0px" y="0px"
	 width="500px" height="1500px" viewBox="0 0 500 1500" enable-background="new 0 0 500 1500" xml:space="preserve">
<g>
	<g>
		<path fill="#272525" d="M239.032,1494.188c-0.917,1.328-1.618,2.036-0.121,3.748c1.416,1.62,7.636,1.982,9.218,2.049V1500
			c0,0,0.078-0.003,0.186-0.009c0.109,0.005,0.186,0.007,0.186,0.007v-0.019c1.577-0.096,7.794-0.578,9.18-2.225
			c1.462-1.742,0.746-2.436-0.194-3.745c-1.158-1.608-4.214-4.289-4.214-4.289l-4.87,0.047l-0.37,0.003l-4.869,0.047
			C243.162,1489.817,240.156,1492.56,239.032,1494.188z"/>
		<path fill="#191A19" d="M243.147,1488.707l0.009,1.11l10.12-0.098l-0.011-1.07C249.896,1488.68,246.522,1488.7,243.147,1488.707z"
			/>
	</g>
	<g>
		<path fill="#272525" d="M112.322,838.877c1.485-0.892,2.486-1.274,1.779-3.614c-0.668-2.212-6.597-5.323-8.117-6.089l0.007-0.017
			c0,0-0.076-0.029-0.186-0.073c-0.104-0.05-0.178-0.088-0.178-0.088l-0.007,0.018c-1.588-0.605-7.886-2.886-9.97-1.889
			c-2.205,1.057-1.81,2.054-1.471,3.751c0.422,2.087,2.227,6.066,2.227,6.066l4.786,2.11l0.364,0.161l4.787,2.111
			C106.344,841.325,110.5,839.975,112.322,838.877z"/>
		
			<rect x="99.992" y="834.599" transform="matrix(-0.4035 0.915 -0.915 -0.4035 910.3384 1086.5918)" fill="#151515" width="1.971" height="10.872"/>
		<path fill="#1E1E1E" d="M96.893,846.845c1.544,0.681,4.135,1.778,8.191,3.73c0.204-0.784,2.369-6.031,1.233-6.996
			c-1.451-1.23-5.145-2.808-5.584-2.99c-0.432-0.199-4.085-1.866-5.975-2.106c-1.253-0.16-3.735,4.487-4.308,5.264
			C93.611,845.284,95.823,846.373,96.893,846.845z"/>
	</g>
	<path fill="#494A4D" d="M100.449,840.761c-9.232-3.225-39.487,23.311-42.736,76.61c-3.547,58.196,40.018,157.69,36.263,203.354
		c-3.755,45.662-40.877,108.269-60.438,168.513c-22.523,69.369,3.88,138.351,51.905,168.514
		c47.463,29.811,113.087,30.658,159.27,31.285c46.182,0.627,100.543,2.361,145.05-11.377
		c85.344-26.344,87.419-111.307,83.899-148.604c-5.94-62.979-70.976-157.53-65.414-193.398
		c6.666-42.988,31.806-60.939,41.871-114.586c9.551-50.904-21.962-86.636-21.962-86.636s9.973,79.055-43.929,118.507
		c-53.9,39.452-88.725-22.121-88.725-22.121l-85.637-64.228c0,0-21.522,48.716-60.432,25.436
		C89.031,955.89,115.435,845.993,100.449,840.761z"/>
	<path fill="#434244" d="M102.581,842.589c-1.219,5.86-2.621,12.995-4.188,21.614c-6.011,33.059-5.109,76.936,6.01,107.891
		c9.264,25.79,33.059,59.205,57.402,60.707c33.295,2.056,47.183-64.013,47.183-64.013l0.017-0.416
		c-4.359,8.546-25.166,44.24-59.569,23.657C92.389,957.897,112.761,858.001,102.581,842.589z"/>
	<path fill="#434244" d="M384.229,1052.942c-38.958,28.515-67.946,4.257-81.027-11.386c6.889,17.468,20.212,44.034,33.508,50.451
		c17.438,8.415,41.173,7.513,72.428-37.267c27.825-39.864,26.698-87.984,23.037-115.024c-2.391-3.43-4.017-5.281-4.017-5.281
		S438.131,1013.49,384.229,1052.942z"/>
	<g>
		
			<rect x="301.047" y="227.291" transform="matrix(0.9592 -0.2826 0.2826 0.9592 -53.0221 97.2397)" fill="#F1DCA4" width="18.92" height="10.19"/>
		
			<rect x="313.772" y="225.987" transform="matrix(0.9593 -0.2824 0.2824 0.9593 -52.4396 98.3448)" fill="#434244" width="2.322" height="10.19"/>
		<path fill="#D7C8A9" d="M317.426,218.37c0.199-0.289,4.261-1.446,5.783-1.894c1.519-0.447,5.558-1.678,5.884-1.543
			c0.324,0.133,6.321,8.202,6.994,10.482c0.671,2.28,0.008,12.311-0.192,12.599c-0.2,0.29-4.262,1.446-5.782,1.894
			c-1.521,0.449-5.562,1.678-5.885,1.544c-0.324-0.134-6.289-8.093-6.993-10.481C316.532,228.58,317.225,218.657,317.426,218.37z"/>
		<path fill="#F1DCA4" d="M317.333,218.058c0.201-0.284,4.262-1.441,5.785-1.891c1.52-0.448,5.56-1.676,5.883-1.547
			s6.272,8.036,6.931,10.273c0.661,2.239-0.05,12.108-0.252,12.393c-0.2,0.284-4.263,1.442-5.782,1.891
			c-1.521,0.448-5.563,1.676-5.885,1.547c-0.323-0.129-6.24-7.928-6.931-10.275C316.391,228.104,317.132,218.342,317.333,218.058z"
			/>
		<path opacity="0.3" fill="#434244" d="M329.897,239.177c1.52-0.448,5.582-1.606,5.782-1.891
			c0.202-0.284,0.913-10.153,0.252-12.393l-18.85,5.555c0.69,2.347,6.607,10.146,6.931,10.275
			C324.335,240.853,328.376,239.625,329.897,239.177z"/>
	</g>
	<g>
		
			<rect x="291.133" y="194.057" transform="matrix(0.9592 -0.2827 0.2827 0.9592 -44.0345 93.0872)" fill="#F1DCA4" width="18.919" height="10.191"/>
		
			<rect x="303.857" y="192.754" transform="matrix(0.9593 -0.2824 0.2824 0.9593 -43.4578 94.192)" fill="#434244" width="2.322" height="10.19"/>
		<path fill="#D7C8A9" d="M307.511,185.136c0.199-0.289,4.262-1.446,5.783-1.894c1.52-0.447,5.559-1.678,5.884-1.543
			c0.324,0.133,6.321,8.202,6.994,10.482c0.671,2.28,0.008,12.311-0.192,12.599c-0.199,0.29-4.262,1.446-5.782,1.894
			c-1.521,0.449-5.562,1.679-5.885,1.544c-0.324-0.134-6.288-8.093-6.993-10.481C306.617,195.346,307.311,185.423,307.511,185.136z"
			/>
		<path fill="#F1DCA4" d="M307.418,184.824c0.201-0.284,4.263-1.441,5.785-1.891c1.52-0.448,5.56-1.676,5.883-1.547
			c0.323,0.13,6.272,8.036,6.931,10.274c0.661,2.239-0.05,12.108-0.252,12.392c-0.2,0.284-4.263,1.442-5.781,1.891
			c-1.522,0.448-5.563,1.676-5.886,1.547c-0.323-0.129-6.24-7.928-6.931-10.275C306.476,194.87,307.218,185.108,307.418,184.824z"/>
		<path opacity="0.3" fill="#434244" d="M319.983,205.943c1.519-0.448,5.581-1.606,5.781-1.891
			c0.202-0.284,0.913-10.153,0.252-12.392l-18.85,5.555c0.69,2.347,6.607,10.146,6.931,10.275
			C314.42,207.619,318.461,206.391,319.983,205.943z"/>
	</g>
	<g>
		
			<rect x="281.219" y="160.719" transform="matrix(0.9592 -0.2827 0.2827 0.9592 -35.0154 88.9253)" fill="#F1DCA4" width="18.919" height="10.191"/>
		
			<rect x="293.944" y="159.416" transform="matrix(0.9594 -0.2822 0.2822 0.9594 -34.4315 89.969)" fill="#434244" width="2.322" height="10.19"/>
		<path fill="#D7C8A9" d="M297.597,151.797c0.199-0.289,4.262-1.446,5.783-1.894c1.52-0.447,5.559-1.677,5.884-1.543
			c0.324,0.133,6.321,8.202,6.994,10.482c0.672,2.28,0.008,12.311-0.192,12.598c-0.199,0.29-4.262,1.446-5.782,1.894
			c-1.521,0.449-5.562,1.679-5.885,1.545c-0.324-0.134-6.288-8.093-6.993-10.481C296.703,162.008,297.396,152.085,297.597,151.797z"
			/>
		<path fill="#F1DCA4" d="M297.504,151.486c0.202-0.284,4.263-1.441,5.785-1.891c1.52-0.448,5.56-1.676,5.883-1.547
			s6.272,8.036,6.932,10.273c0.661,2.239-0.051,12.108-0.252,12.393s-4.263,1.442-5.782,1.891c-1.521,0.448-5.563,1.676-5.885,1.547
			c-0.323-0.13-6.24-7.928-6.932-10.275C296.563,161.531,297.304,151.77,297.504,151.486z"/>
		<path opacity="0.3" fill="#434244" d="M310.069,172.605c1.52-0.448,5.581-1.606,5.782-1.891s0.913-10.153,0.252-12.393
			l-18.851,5.555c0.691,2.347,6.608,10.145,6.932,10.275C304.506,174.281,308.548,173.053,310.069,172.605z"/>
	</g>
	<g>
		
			<rect x="271.304" y="128.007" transform="matrix(0.9592 -0.2827 0.2827 0.9592 -26.1732 84.7887)" fill="#F1DCA4" width="18.919" height="10.191"/>
		
			<rect x="284.029" y="126.703" transform="matrix(0.9594 -0.2822 0.2822 0.9594 -25.6026 85.8411)" fill="#434244" width="2.322" height="10.19"/>
		<path fill="#D7C8A9" d="M287.682,119.085c0.199-0.289,4.262-1.446,5.783-1.894c1.52-0.447,5.559-1.677,5.884-1.543
			c0.324,0.133,6.322,8.202,6.994,10.482s0.008,12.311-0.192,12.598c-0.199,0.29-4.261,1.446-5.782,1.894
			c-1.521,0.449-5.562,1.679-5.885,1.545c-0.324-0.134-6.288-8.093-6.993-10.481C286.788,129.296,287.481,119.373,287.682,119.085z"
			/>
		<path fill="#F1DCA4" d="M287.589,118.773c0.202-0.284,4.263-1.441,5.785-1.891c1.52-0.448,5.56-1.676,5.883-1.547
			s6.272,8.036,6.932,10.273c0.661,2.239-0.051,12.108-0.252,12.393s-4.263,1.442-5.782,1.891c-1.521,0.448-5.563,1.676-5.885,1.547
			c-0.323-0.13-6.24-7.928-6.932-10.275C286.647,128.819,287.389,119.058,287.589,118.773z"/>
		<path opacity="0.3" fill="#434244" d="M300.154,139.893c1.52-0.448,5.581-1.606,5.782-1.891s0.913-10.153,0.252-12.393
			l-18.851,5.555c0.691,2.347,6.608,10.145,6.932,10.275C294.592,141.569,298.633,140.34,300.154,139.893z"/>
	</g>
	<g>
		
			<rect x="261.389" y="95.399" transform="matrix(0.9592 -0.2827 0.2827 0.9592 -17.3605 80.6563)" fill="#F1DCA4" width="18.919" height="10.191"/>
		
			<rect x="274.113" y="94.095" transform="matrix(0.9594 -0.2822 0.2822 0.9594 -16.8033 81.7176)" fill="#434244" width="2.322" height="10.19"/>
		<path fill="#D7C8A9" d="M277.767,86.477c0.2-0.289,4.262-1.446,5.783-1.894c1.52-0.447,5.559-1.678,5.884-1.543
			c0.324,0.133,6.322,8.202,6.994,10.482s0.009,12.311-0.192,12.599c-0.199,0.29-4.261,1.446-5.781,1.894
			c-1.521,0.449-5.563,1.679-5.886,1.544c-0.324-0.134-6.288-8.093-6.993-10.481C276.873,96.688,277.566,86.765,277.767,86.477z"/>
		<path fill="#F1DCA4" d="M277.674,86.166c0.202-0.284,4.263-1.442,5.786-1.891c1.519-0.448,5.56-1.677,5.882-1.547
			c0.323,0.129,6.272,8.036,6.932,10.273c0.661,2.239-0.051,12.108-0.252,12.392c-0.2,0.284-4.263,1.442-5.782,1.891
			c-1.521,0.448-5.563,1.676-5.885,1.547c-0.323-0.129-6.24-7.928-6.932-10.275C276.732,96.211,277.474,86.45,277.674,86.166z"/>
		<path opacity="0.3" fill="#434244" d="M290.239,107.284c1.52-0.448,5.582-1.606,5.782-1.891
			c0.201-0.284,0.913-10.153,0.252-12.392l-18.851,5.555c0.691,2.347,6.608,10.146,6.932,10.275
			C284.677,108.96,288.718,107.732,290.239,107.284z"/>
	</g>
	<g>
		
			<rect x="251.475" y="62.582" transform="matrix(0.9592 -0.2826 0.2826 0.9592 -8.4889 76.512)" fill="#F1DCA4" width="18.92" height="10.191"/>
		
			<rect x="264.199" y="61.278" transform="matrix(0.9594 -0.2822 0.2822 0.9594 -7.945 77.5858)" fill="#434244" width="2.322" height="10.19"/>
		<path fill="#D7C8A9" d="M267.854,53.66c0.199-0.289,4.261-1.446,5.783-1.894c1.519-0.447,5.558-1.677,5.884-1.543
			c0.324,0.133,6.321,8.202,6.994,10.482c0.671,2.28,0.008,12.311-0.192,12.598c-0.2,0.29-4.262,1.446-5.782,1.894
			c-1.521,0.449-5.562,1.679-5.885,1.545c-0.324-0.134-6.289-8.093-6.993-10.481C266.96,63.871,267.652,53.948,267.854,53.66z"/>
		<path fill="#F1DCA4" d="M267.761,53.349c0.201-0.284,4.263-1.441,5.785-1.891c1.52-0.448,5.56-1.676,5.883-1.547
			s6.272,8.036,6.931,10.273c0.661,2.239-0.05,12.108-0.252,12.392c-0.2,0.284-4.263,1.443-5.782,1.891
			c-1.521,0.448-5.563,1.677-5.885,1.547c-0.323-0.129-6.24-7.928-6.931-10.274C266.818,63.394,267.56,53.633,267.761,53.349z"/>
		<path opacity="0.3" fill="#434244" d="M280.325,74.467c1.52-0.448,5.582-1.606,5.782-1.891c0.202-0.284,0.913-10.153,0.252-12.392
			l-18.85,5.555c0.69,2.347,6.607,10.145,6.931,10.274C274.763,76.144,278.804,74.916,280.325,74.467z"/>
	</g>
	<g>
		
			<rect x="241.56" y="29.036" transform="matrix(0.9592 -0.2827 0.2827 0.9592 0.5886 72.3436)" fill="#F1DCA4" width="18.919" height="10.191"/>
		
			<rect x="254.284" y="27.733" transform="matrix(0.9594 -0.2822 0.2822 0.9594 1.1189 73.4241)" fill="#434244" width="2.322" height="10.19"/>
		<path fill="#D7C8A9" d="M257.938,20.115c0.199-0.289,4.262-1.446,5.783-1.894c1.52-0.447,5.559-1.677,5.884-1.543
			c0.324,0.133,6.321,8.202,6.994,10.482c0.671,2.28,0.008,12.311-0.192,12.599c-0.199,0.29-4.262,1.446-5.782,1.894
			c-1.521,0.449-5.562,1.679-5.885,1.544c-0.324-0.134-6.288-8.093-6.993-10.481C257.045,30.325,257.738,20.402,257.938,20.115z"/>
		<path fill="#F1DCA4" d="M257.846,19.803c0.201-0.284,4.263-1.441,5.785-1.891c1.52-0.448,5.56-1.676,5.883-1.547
			s6.272,8.036,6.931,10.273c0.661,2.239-0.05,12.108-0.252,12.392c-0.2,0.284-4.263,1.443-5.781,1.891
			c-1.522,0.448-5.563,1.677-5.886,1.547c-0.323-0.129-6.24-7.928-6.931-10.274C256.903,29.849,257.646,20.087,257.846,19.803z"/>
		<path opacity="0.3" fill="#434244" d="M270.411,40.922c1.519-0.448,5.581-1.606,5.781-1.891
			c0.202-0.284,0.913-10.153,0.252-12.392l-18.85,5.555c0.69,2.347,6.607,10.145,6.931,10.274
			C264.848,42.599,268.889,41.37,270.411,40.922z"/>
	</g>
	<path fill="#272525" d="M218.164,294.287c0,0-6.206-21.56-13.79-30.39c-7.585-8.83-19.621-17.81-19.888-19.027
		c-0.267-1.217,8.924-48.813,10.507-71.078S189.265,3.928,189.365,2.916c0.247-2.513,9.566-3.333,10.627-2.373
		c1.171,1.061,15.219,15.545,19.391,16.374c4.051,0.804,4.724-0.309,8.254-2.154c4.274-2.234,9.008-2.455,10.506,2.154
		c1.499,4.607,76.856,240.495,76.546,241.594c-0.309,1.102-10.767,8.767-17.249,17.603c-6.483,8.835-10.226,18.301-10.226,18.301
		L218.164,294.287z"/>
	<path fill="#4C4D4F" d="M218.106,294.409c0,0-4.604-21.746-11.881-30.601c-7.276-8.855-18.825-17.861-19.081-19.082
		c-0.255-1.22,8.562-48.955,10.081-71.284c1.52-22.329-5.495-170.354-5.4-171.369c0.237-2.52,7.982-2.403,9-1.439
		c1.124,1.063,15.798,14.649,19.801,15.48c3.887,0.807,4.533-0.308,7.92-2.16c4.101-2.241,8.643-2.461,10.081,2.16
		s73.739,241.189,73.444,242.292c-0.296,1.104-10.33,8.792-16.551,17.653s-6.671,18.348-6.671,18.348H218.106z"/>
	<path fill="#1A1A1B" d="M224.136,294.125c0,0,17.436-55.443,17.707-55.56c0.271-0.117,20.435,6.336,20.759,6.838
		c0.324,0.501,19.659,48.111,19.659,48.111L224.136,294.125z"/>
	<g>
		<circle fill="#DCB762" cx="289.82" cy="241.897" r="10.817"/>
		<polygon opacity="0.5" fill="#272525" points="285.53,249.002 281.24,241.571 298.4,241.571 294.11,249.002 		"/>
		<polygon fill="#EDCC78" points="285.98,248.129 282.142,241.479 297.498,241.479 293.66,248.129 		"/>
		<path opacity="0.1" fill="#272525" d="M289.821,252.713c5.972,0,10.815-4.843,10.815-10.816h-21.634
			C279.003,247.87,283.845,252.713,289.821,252.713z"/>
	</g>
	<ellipse opacity="0.5" fill="#272525" cx="289.82" cy="240.03" rx="4.992" ry="5.461"/>
	<g>
		<path fill="#DCB762" d="M290.947,208.247c0,5.973-4.843,10.817-10.815,10.817c-5.977,0-10.817-4.844-10.817-10.817
			s4.841-10.816,10.817-10.816C286.104,197.431,290.947,202.274,290.947,208.247z"/>
		<polygon opacity="0.5" fill="#272525" points="275.841,215.353 271.551,207.922 288.711,207.922 284.421,215.353 		"/>
		<polygon fill="#EDCC78" points="276.291,214.479 272.453,207.829 287.81,207.829 283.971,214.479 		"/>
		<path opacity="0.1" fill="#272525" d="M280.132,219.064c5.973,0,10.815-4.844,10.815-10.817h-21.633
			C269.314,214.22,274.155,219.064,280.132,219.064z"/>
	</g>
	<ellipse opacity="0.5" fill="#272525" cx="280.131" cy="206.38" rx="4.992" ry="5.461"/>
	<g>
		<path fill="#DCB762" d="M280.843,174.493c0,5.973-4.844,10.816-10.815,10.816c-5.978,0-10.818-4.843-10.818-10.816
			s4.841-10.817,10.818-10.817C275.999,163.676,280.843,168.52,280.843,174.493z"/>
		<polygon opacity="0.5" fill="#272525" points="265.735,181.599 261.445,174.167 278.605,174.167 274.315,181.599 		"/>
		<polygon fill="#EDCC78" points="266.187,180.725 262.348,174.075 277.704,174.075 273.865,180.725 		"/>
		<path opacity="0.1" fill="#272525" d="M270.027,185.31c5.972,0,10.815-4.843,10.815-10.816h-21.634
			C259.209,180.466,264.05,185.31,270.027,185.31z"/>
	</g>
	<ellipse opacity="0.5" fill="#272525" cx="270.026" cy="172.626" rx="4.993" ry="5.461"/>
	<g>
		<circle fill="#DCB762" cx="259.504" cy="141.573" r="10.817"/>
		<polygon opacity="0.5" fill="#272525" points="255.214,148.679 250.924,141.248 268.084,141.248 263.794,148.679 		"/>
		<polygon fill="#EDCC78" points="255.664,147.806 251.825,141.155 267.182,141.155 263.343,147.806 		"/>
		<path opacity="0.1" fill="#272525" d="M259.505,152.39c5.972,0,10.815-4.844,10.815-10.817h-21.633
			C248.687,147.546,253.528,152.39,259.505,152.39z"/>
	</g>
	<ellipse opacity="0.5" fill="#272525" cx="259.503" cy="139.707" rx="4.993" ry="5.461"/>
	<g>
		<circle fill="#DCB762" cx="249.19" cy="108.131" r="10.817"/>
		<polygon opacity="0.5" fill="#272525" points="244.9,115.236 240.61,107.806 257.77,107.806 253.479,115.236 		"/>
		<polygon fill="#EDCC78" points="245.35,114.363 241.512,107.713 256.868,107.713 253.029,114.363 		"/>
		<path opacity="0.1" fill="#272525" d="M249.191,118.948c5.972,0,10.816-4.844,10.816-10.817h-21.634
			C238.373,114.104,243.214,118.948,249.191,118.948z"/>
	</g>
	<ellipse opacity="0.5" fill="#272525" cx="249.19" cy="106.264" rx="4.993" ry="5.461"/>
	<g>
		<path fill="#DCB762" d="M250.631,75.524c0,5.973-4.845,10.817-10.816,10.817c-5.977,0-10.818-4.844-10.818-10.817
			s4.841-10.817,10.818-10.817C245.787,64.707,250.631,69.551,250.631,75.524z"/>
		<polygon opacity="0.5" fill="#272525" points="235.524,82.629 231.234,75.199 248.395,75.199 244.104,82.629 		"/>
		<polygon fill="#EDCC78" points="235.975,81.756 232.136,75.105 247.492,75.105 243.654,81.756 		"/>
		<path opacity="0.1" fill="#272525" d="M239.815,86.341c5.971,0,10.816-4.844,10.816-10.817h-21.634
			C228.998,81.497,233.838,86.341,239.815,86.341z"/>
	</g>
	<ellipse opacity="0.5" fill="#272525" cx="239.814" cy="73.657" rx="4.992" ry="5.461"/>
	<g>
		<circle fill="#DCB762" cx="231.168" cy="41.562" r="10.817"/>
		<polygon opacity="0.5" fill="#272525" points="226.877,48.667 222.588,41.236 239.748,41.236 235.458,48.667 		"/>
		<polygon fill="#EDCC78" points="227.328,47.793 223.489,41.143 238.846,41.143 235.007,47.793 		"/>
		<path opacity="0.1" fill="#272525" d="M231.169,52.378c5.972,0,10.815-4.843,10.815-10.816h-21.633
			C220.351,47.535,225.192,52.378,231.169,52.378z"/>
	</g>
	<ellipse opacity="0.5" fill="#272525" cx="231.168" cy="39.695" rx="4.992" ry="5.461"/>
	<polygon fill="#69463B" points="205.664,1078.129 301.291,1078.129 288.85,294.409 218.106,294.409 	"/>
	<rect x="221.893" y="294.409" fill="#634238" width="3.309" height="783.72"/>
	<rect x="245.736" y="294.409" fill="#5C4139" width="5.17" height="783.72"/>
	<rect x="277.677" y="294.409" fill="#775043" width="2.585" height="783.72"/>
	<rect x="236.61" y="294.409" fill="#936856" width="2.585" height="783.72"/>
	<rect x="258.314" y="294.409" fill="#6C4A40" width="3.07" height="783.72"/>
	<g>
		<polygon fill="#B1AEA3" points="207.828,941.816 207.762,945.988 299.193,945.988 299.127,941.816 		"/>
		<polygon fill="#B1AEA3" points="207.503,962.338 207.437,966.511 299.52,966.511 299.453,962.338 		"/>
		<polygon fill="#B1AEA3" points="209.352,845.871 209.285,850.044 297.67,850.044 297.604,845.871 		"/>
		<polygon fill="#B1AEA3" points="208.94,871.78 208.874,875.953 298.081,875.953 298.015,871.78 		"/>
		<polygon fill="#B1AEA3" points="207.193,981.854 207.126,986.027 299.829,986.027 299.763,981.854 		"/>
		<polygon fill="#B1AEA3" points="208.183,919.488 208.116,923.66 298.839,923.66 298.772,919.488 		"/>
		<polygon fill="#B1AEA3" points="206.909,999.728 206.843,1003.901 300.113,1003.901 300.047,999.728 		"/>
		<polygon fill="#B1AEA3" points="206.126,1049.008 206.06,1053.181 300.895,1053.181 300.829,1049.008 		"/>
		<polygon fill="#B1AEA3" points="301.138,1068.435 301.071,1064.261 205.884,1064.261 205.818,1068.435 		"/>
		<polygon fill="#B1AEA3" points="206.629,1017.328 206.563,1021.501 300.392,1021.501 300.326,1017.328 		"/>
		<polygon fill="#B1AEA3" points="206.369,1033.755 206.302,1037.928 300.652,1037.928 300.586,1033.755 		"/>
		<polygon fill="#B1AEA3" points="208.559,895.798 208.493,899.97 298.463,899.97 298.396,895.798 		"/>
		<polygon fill="#B1AEA3" points="214.464,523.839 214.398,528.012 292.558,528.012 292.492,523.839 		"/>
		<polygon fill="#B1AEA3" points="213.751,568.752 213.685,572.924 293.271,572.924 293.205,568.752 		"/>
		<polygon fill="#B1AEA3" points="215.23,475.57 215.164,479.744 291.792,479.744 291.726,475.57 		"/>
		<polygon fill="#B1AEA3" points="209.791,818.179 209.725,822.352 297.23,822.352 297.165,818.179 		"/>
		<polygon fill="#B1AEA3" points="216.891,370.942 216.825,375.114 290.131,375.114 290.064,370.942 		"/>
		<polygon fill="#B1AEA3" points="213.092,610.262 213.026,614.435 293.931,614.435 293.863,610.262 		"/>
		<polygon fill="#B1AEA3" points="216.043,424.348 215.978,428.521 290.979,428.521 290.912,424.348 		"/>
		<polygon fill="#B1AEA3" points="210.759,757.218 210.693,761.39 296.263,761.39 296.196,757.218 		"/>
		<polygon fill="#B1AEA3" points="210.263,788.468 210.197,792.64 296.759,792.64 296.692,788.468 		"/>
		<polygon fill="#B1AEA3" points="212.438,651.45 212.372,655.623 294.583,655.623 294.518,651.45 		"/>
		<polygon fill="#B1AEA3" points="211.853,688.31 211.787,692.482 295.169,692.482 295.103,688.31 		"/>
		<polygon fill="#B1AEA3" points="211.295,723.469 211.229,727.641 295.727,727.641 295.66,723.469 		"/>
	</g>
	<g>
		<polygon fill="#CAC7BC" points="208.197,918.617 208.13,922.791 298.825,922.791 298.759,918.617 		"/>
		<polygon fill="#CAC7BC" points="207.517,961.47 207.45,965.643 299.506,965.643 299.439,961.47 		"/>
		<polygon fill="#CAC7BC" points="207.842,940.945 207.776,945.118 299.18,945.118 299.112,940.945 		"/>
		<polygon fill="#CAC7BC" points="208.954,870.912 208.888,875.083 298.067,875.083 298.001,870.912 		"/>
		<polygon fill="#CAC7BC" points="208.572,894.929 208.506,899.102 298.449,899.102 298.383,894.929 		"/>
		<polygon fill="#CAC7BC" points="206.644,1016.458 206.577,1020.631 300.378,1020.631 300.313,1016.458 		"/>
		<polygon fill="#CAC7BC" points="207.207,980.985 207.14,985.157 299.815,985.157 299.749,980.985 		"/>
		<polygon fill="#CAC7BC" points="206.14,1048.138 206.074,1052.312 300.881,1052.312 300.814,1048.138 		"/>
		<polygon fill="#CAC7BC" points="301.124,1067.564 301.058,1063.392 205.898,1063.392 205.832,1067.564 		"/>
		<polygon fill="#CAC7BC" points="206.383,1032.885 206.316,1037.058 300.639,1037.058 300.572,1032.885 		"/>
		<polygon fill="#CAC7BC" points="206.923,998.858 206.856,1003.031 300.1,1003.031 300.033,998.858 		"/>
		<polygon fill="#CAC7BC" points="209.365,845.001 209.299,849.173 297.656,849.173 297.59,845.001 		"/>
		<polygon fill="#CAC7BC" points="215.244,474.702 215.178,478.874 291.778,478.874 291.712,474.702 		"/>
		<polygon fill="#CAC7BC" points="213.106,609.394 213.04,613.565 293.916,613.565 293.85,609.394 		"/>
		<polygon fill="#CAC7BC" points="213.765,567.882 213.698,572.054 293.258,572.054 293.191,567.882 		"/>
		<polygon fill="#CAC7BC" points="214.478,522.97 214.412,527.142 292.544,527.142 292.479,522.97 		"/>
		<polygon fill="#CAC7BC" points="216.905,370.072 216.839,374.244 290.117,374.244 290.051,370.072 		"/>
		<polygon fill="#CAC7BC" points="216.057,423.479 215.991,427.651 290.965,427.651 290.898,423.479 		"/>
		<polygon fill="#CAC7BC" points="210.773,756.348 210.707,760.52 296.249,760.52 296.183,756.348 		"/>
		<polygon fill="#CAC7BC" points="212.452,650.582 212.386,654.754 294.569,654.754 294.504,650.582 		"/>
		<polygon fill="#CAC7BC" points="209.805,817.31 209.739,821.481 297.217,821.481 297.15,817.31 		"/>
		<polygon fill="#CAC7BC" points="210.277,787.599 210.21,791.771 296.745,791.771 296.679,787.599 		"/>
		<polygon fill="#CAC7BC" points="211.309,722.6 211.242,726.773 295.713,726.773 295.646,722.6 		"/>
		<polygon fill="#CAC7BC" points="211.867,687.441 211.8,691.613 295.155,691.613 295.089,687.441 		"/>
	</g>
	<g>
		<path fill="#272525" d="M194.82,1094.99c-8.773,1.364-15.298,6.452-15.298,12.536s6.525,11.171,15.298,12.536V1094.99z"/>
		<path fill="#272525" d="M313.281,1094.99c8.772,1.364,15.299,6.452,15.299,12.536s-6.526,11.171-15.299,12.536V1094.99z"/>
	</g>
	<g>
		<path fill="#272525" d="M194.82,1232.271c-8.773,1.364-15.298,6.452-15.298,12.536c0,6.083,6.525,11.171,15.298,12.536V1232.271z"
			/>
		<path fill="#272525" d="M313.281,1232.271c8.772,1.364,15.299,6.452,15.299,12.536c0,6.083-6.526,11.171-15.299,12.536V1232.271z"
			/>
	</g>
	<g>
		<g>
			<path fill="#D2BE96" d="M308.714,1080.065c3.307,0,6.012,2.705,6.012,6.012v44.819c0,3.307-2.705,6.012-6.012,6.012H201.095
				c-3.306,0-6.011-2.705-6.011-6.012v-44.819c0-3.307,2.705-6.012,6.011-6.012H308.714z"/>
		</g>
		<g>
			<path fill="#FAE6B4" d="M307.151,1080.065c3.227,0,5.866,2.64,5.866,5.866v43.189c0,3.227-2.64,5.866-5.866,5.866H200.95
				c-3.227,0-5.867-2.64-5.867-5.866v-43.189c0-3.227,2.64-5.866,5.867-5.866H307.151z"/>
		</g>
		<circle fill="#434244" cx="208.878" cy="1094.62" r="4.257"/>
		<circle fill="#434244" cx="223.936" cy="1094.62" r="4.257"/>
		<circle fill="#434244" cx="238.993" cy="1094.62" r="4.257"/>
		<circle fill="#434244" cx="254.051" cy="1094.62" r="4.257"/>
		<path fill="#434244" d="M269.109,1090.362c2.351,0,4.255,1.905,4.255,4.257c0,2.353-1.904,4.258-4.255,4.258
			c-2.354,0-4.258-1.905-4.258-4.258C264.852,1092.268,266.756,1090.362,269.109,1090.362z"/>
		<path fill="#434244" d="M284.168,1090.362c2.351,0,4.255,1.905,4.255,4.257c0,2.353-1.904,4.258-4.255,4.258
			c-2.354,0-4.258-1.905-4.258-4.258C279.91,1092.268,281.814,1090.362,284.168,1090.362z"/>
		<circle fill="#434244" cx="299.224" cy="1094.62" r="4.257"/>
		<circle fill="#434244" cx="208.878" cy="1120.433" r="4.257"/>
		<circle fill="#434244" cx="223.936" cy="1120.433" r="4.257"/>
		<circle fill="#434244" cx="238.993" cy="1120.433" r="4.257"/>
		<circle fill="#434244" cx="254.051" cy="1120.433" r="4.257"/>
		<path fill="#434244" d="M269.109,1116.176c2.351,0,4.255,1.905,4.255,4.257s-1.904,4.258-4.255,4.258
			c-2.354,0-4.258-1.906-4.258-4.258S266.756,1116.176,269.109,1116.176z"/>
		<path fill="#434244" d="M284.168,1116.176c2.351,0,4.255,1.905,4.255,4.257s-1.904,4.258-4.255,4.258
			c-2.354,0-4.258-1.906-4.258-4.258S281.814,1116.176,284.168,1116.176z"/>
		<circle fill="#434244" cx="299.224" cy="1120.433" r="4.257"/>
	</g>
	<g>
		<g>
			<path fill="#D2BE96" d="M308.714,1217.346c3.307,0,6.012,2.705,6.012,6.012v44.819c0,3.307-2.705,6.012-6.012,6.012H201.095
				c-3.306,0-6.011-2.705-6.011-6.012v-44.819c0-3.307,2.705-6.012,6.011-6.012H308.714z"/>
		</g>
		<g>
			<path fill="#FAE6B4" d="M307.151,1217.346c3.227,0,5.866,2.64,5.866,5.867v43.188c0,3.228-2.64,5.867-5.866,5.867H200.95
				c-3.227,0-5.867-2.64-5.867-5.867v-43.188c0-3.228,2.64-5.867,5.867-5.867H307.151z"/>
		</g>
		<circle fill="#434244" cx="208.878" cy="1231.9" r="4.257"/>
		<circle fill="#434244" cx="223.936" cy="1231.9" r="4.257"/>
		<circle fill="#434244" cx="238.993" cy="1231.9" r="4.257"/>
		<circle fill="#434244" cx="254.051" cy="1231.9" r="4.257"/>
		<path fill="#434244" d="M269.109,1227.643c2.351,0,4.255,1.905,4.255,4.257s-1.904,4.258-4.255,4.258
			c-2.354,0-4.258-1.906-4.258-4.258S266.756,1227.643,269.109,1227.643z"/>
		<path fill="#434244" d="M284.168,1227.643c2.351,0,4.255,1.905,4.255,4.257s-1.904,4.258-4.255,4.258
			c-2.354,0-4.258-1.906-4.258-4.258S281.814,1227.643,284.168,1227.643z"/>
		<circle fill="#434244" cx="299.224" cy="1231.9" r="4.257"/>
		<circle fill="#434244" cx="208.878" cy="1257.713" r="4.257"/>
		<circle fill="#434244" cx="223.936" cy="1257.713" r="4.257"/>
		<circle fill="#434244" cx="238.993" cy="1257.713" r="4.257"/>
		<circle fill="#434244" cx="254.051" cy="1257.713" r="4.257"/>
		<path fill="#434244" d="M269.109,1253.456c2.351,0,4.255,1.905,4.255,4.256c0,2.353-1.904,4.259-4.255,4.259
			c-2.354,0-4.258-1.906-4.258-4.259C264.852,1255.361,266.756,1253.456,269.109,1253.456z"/>
		<path fill="#434244" d="M284.168,1253.456c2.351,0,4.255,1.905,4.255,4.256c0,2.353-1.904,4.259-4.255,4.259
			c-2.354,0-4.258-1.906-4.258-4.259C279.91,1255.361,281.814,1253.456,284.168,1253.456z"/>
		<circle fill="#434244" cx="299.224" cy="1257.713" r="4.257"/>
	</g>
	<circle fill="#434244" cx="375.853" cy="1195.416" r="3.684"/>
	<circle fill="#434244" cx="412.905" cy="1237.812" r="3.684"/>
	<g>
		<path fill="#272525" d="M409.306,1229.886c0.583,0.626,0.549,1.613-0.077,2.197c-0.627,0.583-1.614,0.548-2.198-0.077
			l-26.513-28.454c-0.582-0.625-0.548-1.615,0.077-2.197c0.626-0.583,1.615-0.548,2.197,0.078L409.306,1229.886z"/>
		<ellipse fill="#434244" cx="396.099" cy="1220.044" rx="7.211" ry="7.341"/>
		<circle fill="#59595B" cx="396.311" cy="1219.075" r="7.159"/>
		<path fill="#6D6E70" d="M393.08,1221.041c0,2.183,1.664,4.31,3.659,5.15c3.063-0.186,5.586-2.28,6.415-5.123
			c-0.534-2.329-2.549-4.611-5.012-4.611C395.274,1216.457,393.08,1218.172,393.08,1221.041z"/>
	</g>
	<path fill="#1D1A1A" d="M170.455,1289.594v51.022c0,4.518,3.696,8.213,8.213,8.213H192.5v29.281c0,4.518,3.696,8.213,8.213,8.213
		h102.501c4.517,0,8.213-3.695,8.213-8.213v-29.281h13.832c4.517,0,8.213-3.695,8.213-8.213v-51.022
		c0-4.518-3.696-8.213-8.213-8.213h-146.59C174.151,1281.381,170.455,1285.076,170.455,1289.594z"/>
	<g>
		<path fill="#272525" d="M321.175,1283.419c4.517,0,8.213,3.696,8.213,8.214v36.758c0,4.517-3.696,8.213-8.213,8.213H184.773
			c-4.518,0-8.213-3.696-8.213-8.213v-36.758c0-4.518,3.696-8.214,8.213-8.214H321.175z"/>
	</g>
	<g>
		<rect x="199.957" y="1291.069" fill="#434244" width="12.167" height="28.823"/>
		<rect x="199.957" y="1321.575" fill="#434244" width="12.167" height="18.635"/>
		<rect x="199.957" y="1342.692" fill="#6D6E70" width="12.167" height="25.16"/>
		<rect x="201.611" y="1342.692" fill="#434244" width="8.86" height="25.16"/>
		<rect x="201.611" y="1359.229" fill="#272525" width="8.86" height="8.624"/>
		<rect x="202.083" y="1325.563" fill="#272525" width="7.915" height="7.56"/>
		<circle fill="#393838" cx="206.041" cy="1369.598" r="6.515"/>
	</g>
	<g>
		<rect x="215.602" y="1288.722" fill="#434244" width="12.167" height="28.824"/>
		<rect x="215.602" y="1319.229" fill="#434244" width="12.167" height="18.635"/>
		<rect x="215.602" y="1340.489" fill="#6D6E70" width="12.167" height="27.363"/>
		<rect x="217.255" y="1340.489" fill="#434244" width="8.86" height="27.363"/>
		<rect x="217.255" y="1359.229" fill="#272525" width="8.86" height="8.624"/>
		<rect x="217.728" y="1323.216" fill="#272525" width="7.915" height="7.561"/>
		<circle fill="#393838" cx="221.686" cy="1369.598" r="6.515"/>
	</g>
	<g>
		<rect x="231.246" y="1286.376" fill="#434244" width="12.167" height="28.823"/>
		<rect x="231.246" y="1316.882" fill="#434244" width="12.167" height="18.635"/>
		<rect x="231.246" y="1337.863" fill="#6D6E70" width="12.167" height="29.989"/>
		<rect x="232.899" y="1337.863" fill="#434244" width="8.86" height="29.989"/>
		<rect x="232.899" y="1359.229" fill="#272525" width="8.86" height="8.624"/>
		<rect x="233.372" y="1320.87" fill="#272525" width="7.915" height="7.56"/>
		<circle fill="#393838" cx="237.33" cy="1369.598" r="6.515"/>
	</g>
	<g>
		<rect x="246.89" y="1285.202" fill="#434244" width="12.167" height="28.823"/>
		<rect x="246.89" y="1315.709" fill="#434244" width="12.167" height="18.635"/>
		<rect x="246.89" y="1336.842" fill="#6D6E70" width="12.167" height="31.011"/>
		<rect x="248.543" y="1336.842" fill="#434244" width="8.86" height="31.011"/>
		<rect x="248.543" y="1359.229" fill="#272525" width="8.86" height="8.624"/>
		<rect x="249.017" y="1319.696" fill="#272525" width="7.915" height="7.561"/>
		<circle fill="#393838" cx="252.975" cy="1369.598" r="6.515"/>
	</g>
	<g>
		<rect x="262.534" y="1287.549" fill="#434244" width="12.168" height="28.823"/>
		<rect x="262.534" y="1318.056" fill="#434244" width="12.168" height="18.635"/>
		<rect x="262.534" y="1339.198" fill="#6D6E70" width="12.168" height="28.654"/>
		<rect x="264.188" y="1339.198" fill="#434244" width="8.859" height="28.654"/>
		<rect x="264.188" y="1359.229" fill="#272525" width="8.859" height="8.624"/>
		<rect x="264.661" y="1322.043" fill="#272525" width="7.914" height="7.561"/>
		<circle fill="#393838" cx="268.619" cy="1369.598" r="6.515"/>
	</g>
	<g>
		<rect x="278.18" y="1286.376" fill="#434244" width="12.167" height="28.823"/>
		<rect x="278.18" y="1316.882" fill="#434244" width="12.167" height="18.635"/>
		<rect x="278.18" y="1337.863" fill="#6D6E70" width="12.167" height="29.989"/>
		<rect x="279.833" y="1337.863" fill="#434244" width="8.859" height="29.989"/>
		<rect x="279.833" y="1359.229" fill="#272525" width="8.859" height="8.624"/>
		<rect x="280.307" y="1320.87" fill="#272525" width="7.914" height="7.56"/>
		<circle fill="#393838" cx="284.264" cy="1369.598" r="6.515"/>
	</g>
	<g>
		<rect x="293.823" y="1285.202" fill="#434244" width="12.168" height="28.823"/>
		<rect x="293.823" y="1315.709" fill="#434244" width="12.168" height="18.635"/>
		<rect x="293.823" y="1336.842" fill="#6D6E70" width="12.168" height="31.011"/>
		<rect x="295.478" y="1336.842" fill="#434244" width="8.859" height="31.011"/>
		<rect x="295.478" y="1359.229" fill="#272525" width="8.859" height="8.624"/>
		<rect x="295.95" y="1319.696" fill="#272525" width="7.914" height="7.561"/>
		<circle fill="#393838" cx="299.908" cy="1369.598" r="6.515"/>
	</g>
	<circle fill="#434244" cx="186.681" cy="1290.873" r="5.994"/>
	<circle fill="#434244" cx="319.267" cy="1290.873" r="5.994"/>
	<path fill="#434244" d="M427.429,1311.027c6.607-3.104,15.733,1.712,20.014,10.632c1.107,2.307-0.045,0.688-0.024,2.644
		c0.043,3.749-2.549,6.54-6.894,8.582c-2.839,1.334-6.581,7.008-9.428,6.279c-3.774-0.965-8.068-6.426-9.878-10.278
		C418.041,1322.128,420.823,1314.132,427.429,1311.027z"/>
	
		<ellipse transform="matrix(-0.4253 -0.9051 0.9051 -0.4253 -579.8326 2287.1758)" fill="#1E1A1C" cx="436.253" cy="1327.683" rx="13.521" ry="12.92"/>
	<path fill="#272525" d="M430.806,1316.089c6.119-2.876,13.517-0.015,16.525,6.387c3.008,6.403,0.491,13.925-5.63,16.801
		c-6.115,2.874-13.514,0.014-16.523-6.389C422.171,1326.484,424.689,1318.963,430.806,1316.089z"/>
	<polygon fill="#191919" points="289.177,315.025 288.886,296.751 218.069,296.751 217.779,315.025 	"/>
	<polygon fill="#272525" points="289.14,312.679 288.85,294.409 218.106,294.409 217.816,312.679 	"/>
	<polygon fill="#BBBCBF" points="229.278,37.024 208.202,1330.392 205.269,1330.392 226.344,37.024 	"/>
	<polygon fill="#BBBCBF" points="237.567,72.77 223.362,1327.468 220.966,1327.468 235.171,72.77 	"/>
	<polygon fill="#BBBCBF" points="246.367,103.756 238.442,1324.876 236.369,1324.876 244.292,103.756 	"/>
	<polygon fill="#BBBCBF" points="256.385,137.718 253.976,1323.429 252.224,1323.429 254.633,137.718 	"/>
	<polygon fill="#BBBCBF" points="266.479,170.665 270.2,1324.876 268.878,1324.876 265.156,170.665 	"/>
	<polygon fill="#BBBCBF" points="276.166,204.781 285.452,1323.429 284.522,1323.429 275.237,204.781 	"/>
	<polygon fill="#BBBCBF" points="285.714,238.113 301.19,1322.313 300.378,1322.313 284.901,238.113 	"/>
	<g>
		<circle fill="#F1DCA4" cx="289.82" cy="237.974" r="4.992"/>
		<path opacity="0.1" fill="#272525" d="M289.821,242.967c2.756,0,4.991-2.235,4.991-4.993h-9.984
			C284.828,240.731,287.063,242.967,289.821,242.967z"/>
	</g>
	<g>
		<circle fill="#F1DCA4" cx="280.131" cy="204.324" r="4.992"/>
		<path opacity="0.1" fill="#272525" d="M280.132,209.317c2.756,0,4.991-2.235,4.991-4.994h-9.984
			C275.139,207.082,277.374,209.317,280.132,209.317z"/>
	</g>
	<g>
		<circle fill="#F1DCA4" cx="270.026" cy="170.57" r="4.993"/>
		<path opacity="0.1" fill="#272525" d="M270.027,175.563c2.755,0,4.991-2.236,4.991-4.994h-9.985
			C265.033,173.328,267.269,175.563,270.027,175.563z"/>
	</g>
	<g>
		<circle fill="#F1DCA4" cx="259.503" cy="137.65" r="4.993"/>
		<path opacity="0.1" fill="#272525" d="M259.505,142.644c2.756,0,4.991-2.235,4.991-4.994h-9.985
			C254.511,140.408,256.747,142.644,259.505,142.644z"/>
	</g>
	<g>
		<circle fill="#F1DCA4" cx="249.19" cy="104.208" r="4.993"/>
		<path opacity="0.1" fill="#272525" d="M249.191,109.201c2.756,0,4.992-2.235,4.992-4.994h-9.985
			C244.197,106.966,246.433,109.201,249.191,109.201z"/>
	</g>
	<g>
		<circle fill="#F1DCA4" cx="239.814" cy="71.601" r="4.992"/>
		<path opacity="0.1" fill="#272525" d="M239.815,76.594c2.755,0,4.991-2.236,4.991-4.994h-9.985
			C234.822,74.358,237.057,76.594,239.815,76.594z"/>
	</g>
	<g>
		<circle fill="#F1DCA4" cx="231.168" cy="37.638" r="4.992"/>
		<path opacity="0.1" fill="#272525" d="M231.169,42.632c2.755,0,4.991-2.236,4.991-4.994h-9.985
			C226.175,40.396,228.411,42.632,231.169,42.632z"/>
	</g>
</g>
</svg>
