<?xml version="1.0" encoding="utf-8"?>
<!-- Generator: Adobe Illustrator 16.0.0, SVG Export Plug-In . SVG Version: 6.00 Build 0)  -->
<!DOCTYPE svg PUBLIC "-//W3C//DTD SVG 1.1//EN" "http://www.w3.org/Graphics/SVG/1.1/DTD/svg11.dtd">
<svg version="1.1" id="Layer_1" xmlns="http://www.w3.org/2000/svg" xmlns:xlink="http://www.w3.org/1999/xlink" x="0px" y="0px"
	 width="500px" height="1500px" viewBox="0 0 500 1500" enable-background="new 0 0 500 1500" xml:space="preserve">
<g>
	<path fill="#AAD1D6" d="M102.065,849.896c-9.205-3.214-37.094,20.416-42.092,73.431c-6.214,65.914,34.971,153.799,34.241,200.376
		c-0.717,45.683-37.652,103.618-55.326,164.258c-24.19,83.002,8.877,144.922,58.146,172.441
		c48.795,27.254,101.44,29.953,147.493,30.577c46.053,0.625,100.261,2.355,144.642-11.344
		c85.104-26.271,82.221-108.764,78.712-145.957c-5.924-62.803-68.354-159.089-62.809-194.857
		c8.013-51.674,29.566-69.624,37.521-114.492c10.195-57.504-25.103-82.522-25.103-82.522s13.147,65.946-40.602,105.287
		c-53.751,39.341-81.714-22.06-81.714-22.06L202.2,970.005c0,0-13.881,38.81-52.682,15.595
		C89.283,949.561,117.009,855.115,102.065,849.896z"/>
	<path opacity="0.4" fill="#434244" d="M102.065,849.896c-1.117-0.39-2.512-0.381-4.105,0.024
		c-5.247,31.766-4.01,64.326,6.651,94.006c9.238,25.718,32.97,58.969,57.241,60.536c37.385,2.416,51.241-27.443,51.241-27.443
		l-0.765-1.02l-10.129-5.995c0,0-13.881,38.81-52.682,15.595C89.283,949.561,117.009,855.115,102.065,849.896z"/>
	<path fill="#2A0B09" d="M137.661,1287.295c4.51-17.627,23.567-77.085,29.925-139.782c5.746-56.67-7.679-116.361-22.546-139.373
		c-1.118-1.73-0.637-4.06,3.279-2.869c3.917,1.19,16.68,6.15,31.154,4.509c14.474-1.641,19.676-8.608,19.676-8.608l106.169,56.57
		c0,0,21.968,24.689,71.326,2.049c49.359-22.641,48.493-91.239,47.961-96.741s2.137-2.943,3.689,0s17.216,29.514,8.198,68.047
		c-9.019,38.532-37.303,84.853-39.763,116.417c-2.459,31.563,32.107,93.227,40.582,113.548
		c11.089,26.588,20.147,65.569,20.496,81.983c0.41,19.267-19.266,31.975-36.072,15.987c-13.233-12.588-16.397-22.956-50.42-48.78
		c-37.688-28.605-119.596-15.164-119.596-15.164s-74.723,0.936-92.054,3.594C154.654,1299.45,133.152,1304.921,137.661,1287.295z"/>
	<g>
		
			<rect x="299.702" y="203.439" transform="matrix(0.9783 -0.2071 0.2071 0.9783 -36.5178 68.629)" fill="#F4DF84" width="19.698" height="10.609"/>
		
			<rect x="313.042" y="202.442" transform="matrix(0.9783 -0.2074 0.2074 0.9783 -36.2545 69.6944)" fill="#434244" width="2.418" height="10.611"/>
		<path fill="#6D8686" d="M317.869,194.755c0.229-0.285,4.54-1.156,6.158-1.497c1.612-0.34,5.904-1.29,6.231-1.125
			c0.325,0.163,5.896,9.025,6.409,11.447c0.512,2.421-0.989,12.779-1.221,13.061c-0.231,0.287-4.541,1.157-6.156,1.498
			c-1.615,0.343-5.909,1.292-6.235,1.126c-0.324-0.166-5.87-8.91-6.407-11.447C316.112,205.28,317.637,195.037,317.869,194.755z"/>
		<path fill="#BBD7D3" d="M317.798,194.423c0.232-0.279,4.542-1.151,6.158-1.493c1.614-0.342,5.907-1.289,6.232-1.129
			c0.324,0.161,5.859,8.851,6.361,11.226c0.505,2.379-1.034,12.564-1.268,12.844c-0.23,0.279-4.54,1.152-6.154,1.494
			c-1.616,0.342-5.91,1.289-6.234,1.129c-0.325-0.162-5.834-8.736-6.361-11.228C316.006,204.774,317.567,194.703,317.798,194.423z"
			/>
		<path opacity="0.3" fill="#434244" d="M329.128,217.365c1.614-0.341,5.924-1.215,6.154-1.494
			c0.233-0.279,1.772-10.464,1.268-12.844l-20.018,4.238c0.527,2.492,6.036,11.066,6.361,11.228
			C323.218,218.653,327.512,217.707,329.128,217.365z"/>
	</g>
	<g>
		
			<rect x="179.733" y="233.028" transform="matrix(-0.9702 -0.2423 0.2423 -0.9702 315.7628 515.5006)" fill="#F4DF84" width="19.697" height="10.609"/>
		
			<rect x="183.713" y="231.863" transform="matrix(-0.9703 -0.2418 0.2418 -0.9703 307.0152 512.0096)" fill="#434244" width="2.417" height="10.611"/>
		<path fill="#6D8686" d="M181.775,224.052c-0.219-0.293-4.496-1.32-6.101-1.719c-1.599-0.398-5.854-1.502-6.188-1.349
			c-0.329,0.151-6.219,8.806-6.818,11.208c-0.599,2.402,0.527,12.809,0.748,13.097c0.22,0.295,4.495,1.32,6.097,1.719
			c1.602,0.402,5.859,1.505,6.19,1.351c0.33-0.153,6.189-8.692,6.818-11.207C183.148,234.635,181.997,224.342,181.775,224.052z"/>
		<path fill="#BBD7D3" d="M181.858,223.723c-0.224-0.287-4.498-1.314-6.102-1.715c-1.6-0.4-5.855-1.5-6.187-1.353
			c-0.33,0.15-6.177,8.633-6.764,10.988c-0.59,2.36,0.579,12.594,0.802,12.881c0.22,0.287,4.496,1.316,6.097,1.715
			c1.604,0.402,5.859,1.502,6.189,1.354s6.146-8.518,6.763-10.989C183.274,234.132,182.077,224.012,181.858,223.723z"/>
		<path opacity="0.3" fill="#434244" d="M169.705,246.239c-1.601-0.398-5.877-1.428-6.097-1.715
			c-0.223-0.287-1.392-10.521-0.802-12.881l19.851,4.96c-0.616,2.471-6.433,10.84-6.763,10.989S171.309,246.641,169.705,246.239z"/>
	</g>
	<g>
		
			<rect x="187.979" y="185.683" transform="matrix(-0.9702 -0.2423 0.2423 -0.9702 343.4863 424.2157)" fill="#F4DF84" width="19.697" height="10.609"/>
		
			<rect x="191.958" y="184.518" transform="matrix(-0.9703 -0.2418 0.2418 -0.9703 334.7076 420.7177)" fill="#434244" width="2.417" height="10.61"/>
		<path fill="#6D8686" d="M190.021,176.707c-0.22-0.293-4.497-1.32-6.101-1.719c-1.6-0.399-5.854-1.502-6.188-1.349
			c-0.329,0.151-6.219,8.806-6.817,11.208c-0.6,2.402,0.526,12.809,0.747,13.097c0.22,0.295,4.496,1.32,6.097,1.72
			c1.602,0.401,5.859,1.504,6.191,1.351c0.33-0.153,6.188-8.692,6.817-11.208C191.395,187.289,190.242,176.997,190.021,176.707z"/>
		<path fill="#BBD7D3" d="M190.104,176.377c-0.223-0.286-4.498-1.313-6.102-1.714c-1.6-0.4-5.854-1.501-6.187-1.354
			c-0.33,0.15-6.176,8.634-6.763,10.989c-0.591,2.36,0.579,12.594,0.801,12.881c0.221,0.287,4.496,1.316,6.098,1.714
			c1.602,0.401,5.859,1.503,6.188,1.354c0.33-0.149,6.147-8.519,6.764-10.99C191.52,186.787,190.323,176.667,190.104,176.377z"/>
		<path opacity="0.3" fill="#434244" d="M177.951,198.894c-1.602-0.398-5.877-1.428-6.098-1.714
			c-0.222-0.287-1.392-10.521-0.801-12.881l19.851,4.96c-0.616,2.471-6.434,10.84-6.764,10.99
			C183.811,200.396,179.553,199.295,177.951,198.894z"/>
	</g>
	<g>
		
			<rect x="196.225" y="138.245" transform="matrix(-0.9702 -0.2423 0.2423 -0.9702 371.2211 332.755)" fill="#F4DF84" width="19.697" height="10.609"/>
		
			<rect x="200.204" y="137.079" transform="matrix(-0.9702 -0.2422 0.2422 -0.9702 362.3514 329.305)" fill="#434244" width="2.418" height="10.611"/>
		<path fill="#6D8686" d="M198.267,129.269c-0.219-0.293-4.495-1.32-6.101-1.72c-1.599-0.398-5.854-1.502-6.187-1.349
			c-0.33,0.151-6.219,8.806-6.819,11.207c-0.599,2.401,0.527,12.808,0.748,13.097c0.22,0.295,4.496,1.321,6.098,1.72
			c1.602,0.402,5.858,1.504,6.19,1.351c0.33-0.154,6.188-8.692,6.817-11.208C199.641,139.852,198.488,129.559,198.267,129.269z"/>
		<path fill="#BBD7D3" d="M198.35,128.939c-0.223-0.287-4.498-1.314-6.102-1.714c-1.6-0.401-5.854-1.501-6.187-1.354
			c-0.33,0.15-6.176,8.634-6.764,10.988c-0.59,2.36,0.58,12.595,0.803,12.881c0.22,0.288,4.495,1.316,6.097,1.716
			c1.603,0.401,5.859,1.502,6.189,1.354c0.33-0.15,6.146-8.519,6.764-10.989C199.767,139.349,198.569,129.228,198.35,128.939z"/>
		<path opacity="0.3" fill="#434244" d="M186.197,151.456c-1.602-0.399-5.877-1.428-6.097-1.716
			c-0.223-0.286-1.393-10.521-0.803-12.881l19.853,4.961c-0.618,2.47-6.434,10.839-6.764,10.989
			C192.057,152.958,187.8,151.857,186.197,151.456z"/>
	</g>
	<g>
		
			<rect x="205.332" y="89.169" transform="matrix(-0.9702 -0.2423 0.2423 -0.9702 401.0598 238.2676)" fill="#F4DF84" width="19.697" height="10.609"/>
		
			<rect x="209.311" y="88.004" transform="matrix(-0.9703 -0.242 0.242 -0.9703 392.2059 234.7834)" fill="#434244" width="2.418" height="10.61"/>
		<path fill="#6D8686" d="M207.374,80.192c-0.219-0.294-4.496-1.32-6.101-1.719c-1.598-0.399-5.854-1.502-6.188-1.35
			c-0.33,0.152-6.219,8.806-6.818,11.208c-0.6,2.401,0.527,12.808,0.748,13.096c0.22,0.295,4.495,1.32,6.097,1.72
			c1.602,0.401,5.859,1.504,6.19,1.35c0.331-0.153,6.189-8.692,6.818-11.207C208.748,90.775,207.595,80.482,207.374,80.192z"/>
		<path fill="#BBD7D3" d="M207.457,79.863c-0.224-0.287-4.498-1.314-6.101-1.714c-1.601-0.401-5.856-1.501-6.188-1.354
			c-0.33,0.15-6.176,8.634-6.764,10.987c-0.59,2.361,0.579,12.595,0.802,12.882c0.221,0.288,4.496,1.317,6.098,1.715
			c1.602,0.401,5.859,1.502,6.188,1.354c0.33-0.15,6.146-8.52,6.763-10.99C208.873,90.273,207.676,80.152,207.457,79.863z"/>
		<path opacity="0.3" fill="#434244" d="M195.305,102.379c-1.602-0.398-5.877-1.428-6.098-1.715
			c-0.223-0.287-1.392-10.521-0.802-12.882l19.851,4.961c-0.616,2.47-6.433,10.84-6.763,10.99
			C201.164,103.881,196.906,102.781,195.305,102.379z"/>
	</g>
	<g>
		
			<rect x="288.903" y="156.41" transform="matrix(0.9919 -0.1272 0.1272 0.9919 -18.1458 39.321)" fill="#F4DF84" width="19.697" height="10.609"/>
		
			<rect x="302.308" y="155.797" transform="matrix(0.9918 -0.1275 0.1275 0.9918 -18.0592 40.0018)" fill="#434244" width="2.417" height="10.61"/>
		<path fill="#6D8686" d="M308.174,148.445c0.252-0.265,4.619-0.785,6.26-0.994c1.635-0.208,5.989-0.808,6.303-0.617
			c0.31,0.188,5.146,9.472,5.462,11.929c0.313,2.454-2.021,12.657-2.274,12.919c-0.253,0.267-4.619,0.785-6.256,0.995
			c-1.638,0.211-5.994,0.809-6.307,0.618c-0.31-0.191-5.13-9.355-5.46-11.927C305.572,158.793,307.92,148.707,308.174,148.445z"/>
		<path fill="#BBD7D3" d="M308.13,148.108c0.255-0.259,4.621-0.779,6.26-0.989c1.637-0.21,5.991-0.807,6.303-0.622
			c0.311,0.187,5.125,9.295,5.433,11.704c0.31,2.413-2.048,12.439-2.302,12.699c-0.253,0.259-4.619,0.781-6.256,0.991
			c-1.639,0.21-5.995,0.807-6.305,0.621c-0.312-0.187-5.109-9.18-5.433-11.706S307.878,148.369,308.13,148.108z"/>
		<path opacity="0.3" fill="#434244" d="M317.567,171.891c1.637-0.209,6.003-0.731,6.256-0.991
			c0.254-0.26,2.611-10.287,2.302-12.699l-20.295,2.605c0.323,2.526,5.121,11.519,5.433,11.706
			C311.572,172.698,315.929,172.101,317.567,171.891z"/>
	</g>
	<g>
		
			<rect x="279.35" y="109.872" transform="matrix(0.9967 -0.0817 0.0817 0.9967 -8.4435 24.0137)" fill="#F4DF84" width="19.698" height="10.61"/>
		
			<rect x="292.778" y="109.479" transform="matrix(0.9966 -0.082 0.082 0.9966 -8.4231 24.4962)" fill="#434244" width="2.417" height="10.611"/>
		<path fill="#6D8686" d="M299.22,102.353c0.263-0.253,4.65-0.572,6.297-0.706c1.644-0.134,6.021-0.534,6.325-0.328
			c0.302,0.203,4.708,9.698,4.91,12.166c0.201,2.466-2.598,12.552-2.863,12.802c-0.265,0.254-4.65,0.573-6.295,0.707
			c-1.646,0.136-6.025,0.534-6.328,0.329c-0.301-0.206-4.696-9.581-4.908-12.165C296.146,112.572,298.953,102.603,299.22,102.353z"
			/>
		<path fill="#BBD7D3" d="M299.19,102.015c0.267-0.247,4.651-0.567,6.299-0.702c1.645-0.135,6.021-0.531,6.324-0.333
			c0.302,0.202,4.693,9.521,4.892,11.94c0.199,2.424-2.615,12.333-2.882,12.581c-0.264,0.248-4.649,0.569-6.294,0.703
			c-1.647,0.135-6.026,0.531-6.327,0.331c-0.302-0.201-4.683-9.403-4.891-11.942C296.104,112.056,298.927,102.263,299.19,102.015z"
			/>
		<path opacity="0.3" fill="#434244" d="M307.529,126.205c1.645-0.134,6.03-0.456,6.294-0.703
			c0.267-0.248,3.081-10.157,2.882-12.581l-20.394,1.673c0.208,2.539,4.589,11.741,4.891,11.942
			C301.503,126.736,305.882,126.34,307.529,126.205z"/>
	</g>
	<g>
		
			<rect x="273.941" y="63.273" transform="matrix(0.9992 -0.0391 0.0391 0.9992 -2.4655 11.1539)" fill="#F4DF84" width="19.697" height="10.61"/>
		
			<rect x="287.381" y="63.084" transform="matrix(0.9992 -0.0396 0.0396 0.9992 -2.4817 11.4809)" fill="#434244" width="2.417" height="10.612"/>
		<path fill="#6D8686" d="M294.348,56.193c0.274-0.242,4.671-0.374,6.322-0.437c1.647-0.064,6.038-0.276,6.333-0.058
			c0.292,0.216,4.29,9.891,4.387,12.364c0.096,2.473-3.131,12.429-3.407,12.668c-0.275,0.242-4.67,0.375-6.32,0.438
			c-1.649,0.065-6.043,0.276-6.335,0.058c-0.292-0.218-4.284-9.772-4.386-12.364C290.842,66.272,294.071,56.432,294.348,56.193z"/>
		<path fill="#BBD7D3" d="M294.334,55.855c0.275-0.236,4.671-0.369,6.321-0.433c1.649-0.064,6.04-0.274,6.333-0.063
			c0.294,0.214,4.284,9.712,4.378,12.139c0.096,2.43-3.139,12.21-3.416,12.446c-0.273,0.236-4.669,0.37-6.318,0.434
			c-1.65,0.064-6.042,0.274-6.335,0.061c-0.293-0.214-4.277-9.595-4.376-12.14C290.822,65.754,294.06,56.09,294.334,55.855z"/>
		<path opacity="0.3" fill="#434244" d="M301.632,80.378c1.649-0.064,6.045-0.197,6.318-0.434
			c0.277-0.236,3.512-10.016,3.416-12.446l-20.445,0.801c0.099,2.544,4.083,11.926,4.376,12.14
			C295.59,80.652,299.981,80.442,301.632,80.378z"/>
	</g>
	<path opacity="0.4" fill="#434244" d="M422.229,945.987c-2.816-2.818-4.738-4.181-4.738-4.181s13.147,65.946-40.602,105.287
		c-39.158,28.659-64.625,3.856-75.569-11.725c2.122,9.105,4.97,17.016,10.722,20.885c20.883,14.052,63.037,12.687,90.555-27.907
		C422.266,999.331,424.102,970.13,422.229,945.987z"/>
	<path fill="#6B8E91" d="M289.33,299.709c0,0,2.97-29.006,6.861-39.063c4.125-10.658,18.161-19.755,18.415-20.972
		c0.255-1.217-17.473-71.31-23.582-93.785c-9.082-33.411-13.253-142.808-13.348-143.821c-0.235-2.512-7.96-2.396-8.975-1.435
		c-1.121,1.06-15.754,14.608-19.747,15.437c-3.876,0.804-4.52-0.308-7.897-2.154c-4.088-2.234-8.617-2.454-10.052,2.154
		c-1.434,4.608-44.225,250.38-43.93,251.481c0.294,1.1,10.325,5.231,16.529,14.067c6.203,8.836,7.562,18.09,7.562,18.09H289.33z"/>
	<path fill="#A7CACD" d="M289.33,299.709c0,0,1.694-29.585,5.586-39.641c4.126-10.658,18.236-23.436,18.49-24.652
		c0.255-1.217-16.272-67.051-22.382-89.526c-9.082-33.411-13.253-142.808-13.348-143.821c-0.235-2.512-7.96-2.396-8.975-1.435
		c-1.121,1.06-15.754,14.608-19.747,15.437c-3.876,0.804-4.52-0.308-7.897-2.154c-4.088-2.234-8.617-2.454-10.052,2.154
		c-1.434,4.608-44.224,246.637-43.929,247.738c0.295,1.1,11.785,7.21,17.988,16.046s6.102,19.854,6.102,19.854H289.33z"/>
	<path fill="#1A1A1B" d="M223.421,299.709c0,0,17.975-55.571,18.244-55.688c0.271-0.117,20.378,6.319,20.701,6.819
		s20.033,48.869,20.033,48.869H223.421z"/>
	<polygon fill="#121312" points="195.067,1081.228 308.291,1081.228 289.33,299.709 211.167,299.709 	"/>
	<rect x="221.771" y="299.709" fill="#1E211F" width="3.299" height="781.519"/>
	<rect x="245.548" y="299.709" fill="#181916" width="5.156" height="781.519"/>
	<rect x="277.398" y="299.709" fill="#1A1A16" width="2.577" height="781.519"/>
	<rect x="236.447" y="299.709" fill="#2A2B24" width="2.577" height="781.519"/>
	<rect x="258.091" y="299.709" fill="#151817" width="3.063" height="781.519"/>
	<g>
		<polygon fill="#B1AEA3" points="198.28,925.286 198.194,929.447 304.608,929.447 304.508,925.286 		"/>
		<polygon fill="#B1AEA3" points="197.853,946.048 197.767,950.209 305.112,950.209 305.011,946.048 		"/>
		<polygon fill="#B1AEA3" points="199.823,850.373 199.737,854.533 302.791,854.533 302.689,850.373 		"/>
		<polygon fill="#B1AEA3" points="198.782,900.912 198.696,905.072 304.018,905.072 303.916,900.912 		"/>
		<polygon fill="#B1AEA3" points="199.291,876.21 199.205,880.371 303.418,880.371 303.316,876.21 		"/>
		<polygon fill="#B1AEA3" points="197.431,966.514 197.346,970.675 305.608,970.675 305.508,966.514 		"/>
		<polygon fill="#B1AEA3" points="308.093,1073.063 307.991,1068.901 195.321,1068.901 195.235,1073.063 		"/>
		<polygon fill="#B1AEA3" points="195.619,1054.442 195.533,1058.604 307.742,1058.604 307.641,1054.442 		"/>
		<polygon fill="#B1AEA3" points="197.03,985.975 196.944,990.136 306.081,990.136 305.979,985.975 		"/>
		<polygon fill="#B1AEA3" points="196.271,1022.852 196.185,1027.013 306.976,1027.013 306.874,1022.852 		"/>
		<polygon fill="#B1AEA3" points="196.647,1004.55 196.562,1008.711 306.532,1008.711 306.431,1004.55 		"/>
		<polygon fill="#B1AEA3" points="195.948,1038.48 195.862,1042.642 307.354,1042.642 307.254,1038.48 		"/>
		<polygon fill="#B1AEA3" points="206.438,529.245 206.354,533.406 295,533.406 294.898,529.245 		"/>
		<polygon fill="#B1AEA3" points="207.415,481.864 207.329,486.026 293.851,486.026 293.75,481.864 		"/>
		<polygon fill="#B1AEA3" points="205.516,574.033 205.431,578.192 296.086,578.192 295.985,574.033 		"/>
		<polygon fill="#B1AEA3" points="208.467,430.786 208.382,434.947 292.611,434.947 292.51,430.786 		"/>
		<polygon fill="#B1AEA3" points="204.647,616.177 204.563,620.339 297.109,620.339 297.008,616.177 		"/>
		<polygon fill="#B1AEA3" points="209.549,378.281 209.463,382.441 291.337,382.441 291.236,378.281 		"/>
		<polygon fill="#B1AEA3" points="203.833,655.747 203.747,659.908 298.069,659.908 297.968,655.747 		"/>
		<polygon fill="#B1AEA3" points="201.645,761.969 201.559,766.129 300.646,766.129 300.546,761.969 		"/>
		<polygon fill="#B1AEA3" points="201.003,793.132 200.917,797.291 301.401,797.291 301.302,793.132 		"/>
		<polygon fill="#B1AEA3" points="200.393,822.759 200.307,826.92 302.121,826.92 302.02,822.759 		"/>
		<polygon fill="#B1AEA3" points="203.075,692.502 202.99,696.665 298.961,696.665 298.859,692.502 		"/>
		<polygon fill="#B1AEA3" points="202.322,729.067 202.236,733.227 299.849,733.227 299.747,729.067 		"/>
	</g>
	<g>
		<polygon fill="#CAC7BC" points="199.841,849.506 199.755,853.667 302.77,853.667 302.669,849.506 		"/>
		<polygon fill="#CAC7BC" points="197.449,965.646 197.363,969.808 305.588,969.808 305.486,965.646 		"/>
		<polygon fill="#CAC7BC" points="197.048,985.107 196.962,989.269 306.06,989.269 305.959,985.107 		"/>
		<polygon fill="#CAC7BC" points="198.8,900.044 198.714,904.205 303.996,904.205 303.895,900.044 		"/>
		<polygon fill="#CAC7BC" points="199.31,875.344 199.224,879.503 303.396,879.503 303.296,875.344 		"/>
		<polygon fill="#CAC7BC" points="198.313,923.667 198.228,927.829 304.569,927.829 304.468,923.667 		"/>
		<polygon fill="#CAC7BC" points="308.071,1072.195 307.971,1068.034 195.34,1068.034 195.254,1072.195 		"/>
		<polygon fill="#CAC7BC" points="196.665,1003.683 196.579,1007.844 306.511,1007.844 306.409,1003.683 		"/>
		<polygon fill="#CAC7BC" points="195.637,1053.575 195.552,1057.736 307.721,1057.736 307.62,1053.575 		"/>
		<polygon fill="#CAC7BC" points="195.966,1037.614 195.881,1041.774 307.334,1041.774 307.232,1037.614 		"/>
		<polygon fill="#CAC7BC" points="196.288,1021.985 196.202,1026.146 306.954,1026.146 306.854,1021.985 		"/>
		<polygon fill="#CAC7BC" points="197.87,945.181 197.784,949.342 305.091,949.342 304.99,945.181 		"/>
		<polygon fill="#CAC7BC" points="207.433,480.998 207.347,485.158 293.829,485.158 293.729,480.998 		"/>
		<polygon fill="#CAC7BC" points="204.666,615.311 204.58,619.472 297.088,619.472 296.986,615.311 		"/>
		<polygon fill="#CAC7BC" points="205.534,573.165 205.448,577.326 296.065,577.326 295.965,573.165 		"/>
		<polygon fill="#CAC7BC" points="206.456,528.379 206.371,532.54 294.979,532.54 294.878,528.379 		"/>
		<polygon fill="#CAC7BC" points="200.41,821.892 200.324,826.053 302.1,826.053 301.999,821.892 		"/>
		<polygon fill="#CAC7BC" points="209.566,377.414 209.48,381.574 291.316,381.574 291.216,377.414 		"/>
		<polygon fill="#CAC7BC" points="208.485,429.918 208.399,434.08 292.59,434.08 292.489,429.918 		"/>
		<polygon fill="#CAC7BC" points="201.662,761.102 201.577,765.262 300.625,765.262 300.524,761.102 		"/>
		<polygon fill="#CAC7BC" points="201.021,792.264 200.935,796.425 301.381,796.425 301.28,792.264 		"/>
		<polygon fill="#CAC7BC" points="202.34,728.2 202.255,732.361 299.827,732.361 299.726,728.2 		"/>
		<polygon fill="#CAC7BC" points="203.094,691.637 203.008,695.797 298.939,695.797 298.839,691.637 		"/>
		<polygon fill="#CAC7BC" points="203.851,654.881 203.765,659.041 298.048,659.041 297.947,654.881 		"/>
	</g>
	<g>
		<circle fill="#D3BB46" cx="290.535" cy="214.899" r="9.842"/>
		<polygon opacity="0.5" fill="#272525" points="286.632,221.364 282.729,214.604 298.342,214.604 294.438,221.364 		"/>
		<polygon fill="#F3DE77" points="287.042,220.57 283.549,214.519 297.521,214.519 294.029,220.57 		"/>
		<path opacity="0.1" fill="#272525" d="M290.536,224.742c5.435,0,9.841-4.407,9.841-9.842h-19.684
			C280.693,220.335,285.099,224.742,290.536,224.742z"/>
	</g>
	<g>
		<circle fill="#D3BB46" cx="209.313" cy="244.638" r="9.842"/>
		<polygon opacity="0.5" fill="#272525" points="205.41,251.103 201.507,244.343 217.121,244.343 213.217,251.103 		"/>
		<polygon fill="#F3DE77" points="205.82,250.309 202.326,244.257 216.3,244.257 212.807,250.309 		"/>
		<path opacity="0.1" fill="#272525" d="M209.314,254.48c5.435,0,9.841-4.407,9.841-9.842h-19.684
			C199.472,250.074,203.877,254.48,209.314,254.48z"/>
	</g>
	<g>
		<circle fill="#D3BB46" cx="218.199" cy="195.889" r="9.842"/>
		<polygon opacity="0.5" fill="#272525" points="214.296,202.354 210.393,195.593 226.007,195.593 222.103,202.354 		"/>
		<polygon fill="#F3DE77" points="214.706,201.559 211.213,195.508 225.187,195.508 221.692,201.559 		"/>
		<path opacity="0.1" fill="#272525" d="M218.2,205.731c5.435,0,9.841-4.407,9.841-9.842h-19.684
			C208.357,201.324,212.763,205.731,218.2,205.731z"/>
	</g>
	<g>
		<path fill="#D3BB46" d="M235.848,146.836c0,5.435-4.406,9.842-9.84,9.842c-5.438,0-9.844-4.407-9.844-9.842
			c0-5.436,4.405-9.842,9.844-9.842C231.441,136.994,235.848,141.401,235.848,146.836z"/>
		<polygon opacity="0.5" fill="#272525" points="222.104,153.301 218.199,146.541 233.813,146.541 229.909,153.301 		"/>
		<polygon fill="#F3DE77" points="222.513,152.506 219.02,146.456 232.993,146.456 229.5,152.506 		"/>
		<path opacity="0.1" fill="#272525" d="M226.008,156.678c5.434,0,9.84-4.407,9.84-9.842h-19.684
			C216.164,152.271,220.569,156.678,226.008,156.678z"/>
	</g>
	<g>
		<path fill="#D3BB46" d="M244.241,99.235c0,5.435-4.406,9.842-9.84,9.842c-5.438,0-9.844-4.407-9.844-9.842
			s4.405-9.842,9.844-9.842C239.835,89.393,244.241,93.8,244.241,99.235z"/>
		<polygon opacity="0.5" fill="#272525" points="230.497,105.7 226.593,98.939 242.207,98.939 238.303,105.7 		"/>
		<polygon fill="#F3DE77" points="230.906,104.905 227.413,98.854 241.387,98.854 237.894,104.905 		"/>
		<path opacity="0.1" fill="#272525" d="M234.401,109.078c5.434,0,9.84-4.407,9.84-9.842h-19.684
			C224.558,104.67,228.963,109.078,234.401,109.078z"/>
	</g>
	<g>
		<path fill="#D3BB46" d="M288.872,167.433c0,5.435-4.407,9.842-9.841,9.842c-5.438,0-9.843-4.407-9.843-9.842
			c0-5.436,4.404-9.842,9.843-9.842C284.465,157.591,288.872,161.998,288.872,167.433z"/>
		<polygon opacity="0.5" fill="#272525" points="275.127,173.898 271.224,167.137 286.837,167.137 282.934,173.898 		"/>
		<polygon fill="#F3DE77" points="275.536,173.103 272.043,167.052 286.017,167.052 282.524,173.103 		"/>
		<path opacity="0.1" fill="#272525" d="M279.031,177.275c5.434,0,9.841-4.407,9.841-9.842h-19.684
			C269.188,172.868,273.593,177.275,279.031,177.275z"/>
	</g>
	<g>
		<path fill="#D3BB46" d="M278.949,119.242c0,5.436-4.407,9.842-9.841,9.842c-5.438,0-9.843-4.407-9.843-9.842
			c0-5.435,4.404-9.842,9.843-9.842C274.542,109.399,278.949,113.807,278.949,119.242z"/>
		<polygon opacity="0.5" fill="#272525" points="265.204,125.707 261.301,118.946 276.914,118.946 273.011,125.707 		"/>
		<polygon fill="#F3DE77" points="265.613,124.912 262.12,118.861 276.094,118.861 272.601,124.912 		"/>
		<path opacity="0.1" fill="#272525" d="M269.108,129.084c5.434,0,9.841-4.407,9.841-9.842h-19.684
			C259.266,124.677,263.67,129.084,269.108,129.084z"/>
	</g>
	<g>
		<path fill="#D3BB46" d="M273.243,70.04c0,5.435-4.407,9.842-9.841,9.842c-5.438,0-9.843-4.407-9.843-9.842
			s4.404-9.842,9.843-9.842C268.836,60.197,273.243,64.604,273.243,70.04z"/>
		<polygon opacity="0.5" fill="#272525" points="259.498,76.504 255.595,69.744 271.208,69.744 267.305,76.504 		"/>
		<polygon fill="#F3DE77" points="259.907,75.709 256.414,69.659 270.388,69.659 266.895,75.709 		"/>
		<path opacity="0.1" fill="#272525" d="M263.402,79.882c5.434,0,9.841-4.407,9.841-9.842H253.56
			C253.56,75.475,257.964,79.882,263.402,79.882z"/>
	</g>
	<polygon fill="#A78A29" points="289.855,321.363 289.417,303.29 211.094,303.29 210.721,321.363 	"/>
	<polygon fill="#D0BE5E" points="289.801,319.108 289.362,301.035 211.141,301.035 210.768,319.108 	"/>
	<g>
		<circle fill="#E8DC79" cx="290.536" cy="211.33" r="4.542"/>
		<path opacity="0.1" fill="#272525" d="M290.536,215.874c2.508,0,4.542-2.034,4.542-4.543h-9.085
			C285.993,213.84,288.026,215.874,290.536,215.874z"/>
	</g>
	<g>
		<circle fill="#E8DC79" cx="209.314" cy="241.069" r="4.542"/>
		<path opacity="0.1" fill="#272525" d="M209.314,245.612c2.508,0,4.542-2.034,4.542-4.543h-9.085
			C204.771,243.579,206.805,245.612,209.314,245.612z"/>
	</g>
	<g>
		<circle fill="#E8DC79" cx="218.2" cy="192.319" r="4.542"/>
		<path opacity="0.1" fill="#272525" d="M218.2,196.863c2.508,0,4.542-2.034,4.542-4.543h-9.085
			C213.657,194.829,215.69,196.863,218.2,196.863z"/>
	</g>
	<g>
		<circle fill="#E8DC79" cx="226.006" cy="143.267" r="4.542"/>
		<path opacity="0.1" fill="#272525" d="M226.008,147.81c2.507,0,4.541-2.034,4.541-4.543h-9.085
			C221.464,145.776,223.497,147.81,226.008,147.81z"/>
	</g>
	<g>
		<circle fill="#E8DC79" cx="234.4" cy="95.666" r="4.542"/>
		<path opacity="0.1" fill="#272525" d="M234.401,100.209c2.507,0,4.541-2.034,4.541-4.543h-9.085
			C229.857,98.175,231.891,100.209,234.401,100.209z"/>
	</g>
	<g>
		<circle fill="#E8DC79" cx="279.03" cy="163.863" r="4.542"/>
		<path opacity="0.1" fill="#272525" d="M279.031,168.407c2.507,0,4.541-2.034,4.541-4.543h-9.084
			C274.488,166.373,276.521,168.407,279.031,168.407z"/>
	</g>
	<g>
		<circle fill="#E8DC79" cx="269.107" cy="115.672" r="4.542"/>
		<path opacity="0.1" fill="#272525" d="M269.108,120.216c2.507,0,4.541-2.034,4.541-4.543h-9.085
			C264.564,118.182,266.599,120.216,269.108,120.216z"/>
	</g>
	<g>
		<circle fill="#E8DC79" cx="263.401" cy="66.47" r="4.542"/>
		<path opacity="0.1" fill="#272525" d="M263.402,71.014c2.507,0,4.541-2.034,4.541-4.544h-9.085
			C258.858,68.98,260.893,71.014,263.402,71.014z"/>
	</g>
	<g>
		<g>
			<path fill="#B2C3BF" d="M305.01,1087.651c7.44,0,13.527,5.677,13.527,12.616c0,6.938-6.087,12.615-13.527,12.615H203.1
				c-7.44,0-13.527-5.677-13.527-12.615c0-6.939,6.087-12.616,13.527-12.616H305.01z"/>
		</g>
		<g>
			<path fill="#B2C3BF" d="M304.768,1112.886c7.44,0,13.527,5.677,13.527,12.615s-6.087,12.615-13.527,12.615H202.858
				c-7.44,0-13.527-5.677-13.527-12.615s6.087-12.615,13.527-12.615H304.768z"/>
		</g>
		<g>
			<path fill="#B2C3BF" d="M305.01,1227.431c7.44,0,13.527,5.677,13.527,12.616c0,6.938-6.087,12.615-13.527,12.615H203.1
				c-7.44,0-13.527-5.677-13.527-12.615c0-6.939,6.087-12.616,13.527-12.616H305.01z"/>
		</g>
		<g>
			<path fill="#B2C3BF" d="M304.768,1252.665c7.44,0,13.527,5.677,13.527,12.616c0,6.938-6.087,12.615-13.527,12.615H202.858
				c-7.44,0-13.527-5.677-13.527-12.615c0-6.939,6.087-12.616,13.527-12.616H304.768z"/>
		</g>
		<g>
			<path fill="#B2C3BF" d="M304.889,1166.56c7.44,0,13.527,5.677,13.527,12.615s-6.087,12.615-13.527,12.615H202.979
				c-7.44,0-13.527-5.677-13.527-12.615s6.087-12.615,13.527-12.615H304.889z"/>
		</g>
	</g>
	<g>
		<g>
			<path fill="#DAECE7" d="M302.755,1086.148c7.44,0,13.527,5.677,13.527,12.615c0,6.939-6.087,12.616-13.527,12.616H200.846
				c-7.44,0-13.527-5.677-13.527-12.616c0-6.938,6.087-12.615,13.527-12.615H302.755z"/>
		</g>
		<g>
			<circle fill="#D8D8A1" cx="200.322" cy="1098.764" r="3.451"/>
			<circle fill="#D8D8A1" cx="215.03" cy="1098.764" r="3.451"/>
			<circle fill="#D8D8A1" cx="229.737" cy="1098.764" r="3.451"/>
			<circle fill="#D8D8A1" cx="244.445" cy="1098.764" r="3.451"/>
			<circle fill="#D8D8A1" cx="259.154" cy="1098.764" r="3.451"/>
			<circle fill="#D8D8A1" cx="273.862" cy="1098.764" r="3.451"/>
			<circle fill="#D8D8A1" cx="288.57" cy="1098.764" r="3.451"/>
			<circle fill="#D8D8A1" cx="303.278" cy="1098.764" r="3.451"/>
		</g>
		<g>
			<path fill="#DAECE7" d="M302.514,1111.382c7.44,0,13.527,5.677,13.527,12.616c0,6.938-6.087,12.615-13.527,12.615h-101.91
				c-7.44,0-13.527-5.677-13.527-12.615c0-6.939,6.087-12.616,13.527-12.616H302.514z"/>
		</g>
		<g>
			<circle fill="#D8D8A1" cx="200.08" cy="1123.998" r="3.451"/>
			<circle fill="#D8D8A1" cx="214.788" cy="1123.998" r="3.451"/>
			<circle fill="#D8D8A1" cx="229.496" cy="1123.998" r="3.451"/>
			<circle fill="#D8D8A1" cx="244.204" cy="1123.998" r="3.451"/>
			<circle fill="#D8D8A1" cx="258.913" cy="1123.998" r="3.451"/>
			<circle fill="#D8D8A1" cx="273.62" cy="1123.998" r="3.451"/>
			<circle fill="#D8D8A1" cx="288.329" cy="1123.998" r="3.451"/>
			<circle fill="#D8D8A1" cx="303.036" cy="1123.998" r="3.451"/>
		</g>
	</g>
	<g>
		<g>
			<path fill="#DAECE7" d="M302.755,1225.929c7.44,0,13.527,5.677,13.527,12.615s-6.087,12.615-13.527,12.615H200.846
				c-7.44,0-13.527-5.677-13.527-12.615s6.087-12.615,13.527-12.615H302.755z"/>
		</g>
		<g>
			<circle fill="#D8D8A1" cx="200.322" cy="1238.544" r="3.451"/>
			<circle fill="#D8D8A1" cx="215.03" cy="1238.544" r="3.451"/>
			<circle fill="#D8D8A1" cx="229.737" cy="1238.544" r="3.451"/>
			<circle fill="#D8D8A1" cx="244.445" cy="1238.544" r="3.451"/>
			<circle fill="#D8D8A1" cx="259.154" cy="1238.544" r="3.451"/>
			<circle fill="#D8D8A1" cx="273.862" cy="1238.544" r="3.451"/>
			<circle fill="#D8D8A1" cx="288.57" cy="1238.544" r="3.451"/>
			<circle fill="#D8D8A1" cx="303.278" cy="1238.544" r="3.451"/>
		</g>
		<g>
			<path fill="#DAECE7" d="M302.514,1251.162c7.44,0,13.527,5.677,13.527,12.615c0,6.939-6.087,12.616-13.527,12.616h-101.91
				c-7.44,0-13.527-5.677-13.527-12.616c0-6.938,6.087-12.615,13.527-12.615H302.514z"/>
		</g>
		<g>
			<circle fill="#D8D8A1" cx="200.08" cy="1263.778" r="3.451"/>
			<circle fill="#D8D8A1" cx="214.788" cy="1263.778" r="3.451"/>
			<circle fill="#D8D8A1" cx="229.496" cy="1263.778" r="3.451"/>
			<circle fill="#D8D8A1" cx="244.204" cy="1263.778" r="3.451"/>
			<circle fill="#D8D8A1" cx="258.913" cy="1263.778" r="3.451"/>
			<circle fill="#D8D8A1" cx="273.62" cy="1263.778" r="3.451"/>
			<circle fill="#D8D8A1" cx="288.329" cy="1263.778" r="3.451"/>
			<circle fill="#D8D8A1" cx="303.036" cy="1263.778" r="3.451"/>
		</g>
	</g>
	<g>
		<path fill="#DAECE7" d="M302.634,1165.057c7.44,0,13.527,5.677,13.527,12.615s-6.087,12.615-13.527,12.615H200.725
			c-7.44,0-13.527-5.677-13.527-12.615s6.087-12.615,13.527-12.615H302.634z"/>
	</g>
	<g>
		<circle fill="#D8D8A1" cx="200.439" cy="1177.672" r="3.451"/>
		<circle fill="#D8D8A1" cx="215.147" cy="1177.672" r="3.451"/>
		<circle fill="#D8D8A1" cx="229.855" cy="1177.672" r="3.451"/>
		<circle fill="#D8D8A1" cx="244.563" cy="1177.672" r="3.451"/>
		<circle fill="#D8D8A1" cx="259.272" cy="1177.672" r="3.451"/>
		<circle fill="#D8D8A1" cx="273.979" cy="1177.672" r="3.451"/>
		<circle fill="#D8D8A1" cx="288.688" cy="1177.672" r="3.451"/>
		<circle fill="#D8D8A1" cx="303.396" cy="1177.672" r="3.451"/>
	</g>
	<path fill="#363112" d="M184.259,1291.739c0,5.336,0.866,9.513-3.833,9.513c-9.938,0-12.492,0.878-12.492,7.239s0,15.522,0,24.094
		c0,8.57,6.752,8.623,11.645,8.623c3.697,0,3.916,14.213,3.916,38.612c0,4.918,0.319,9.438,7.716,9.438c5.996,0,114.768,0,120.939,0
		c7.396,0,7.715-4.521,7.715-9.438c0-24.399,0.218-38.612,3.917-38.612c4.892,0,11.644-0.053,11.644-8.623
		c0-8.571,0-17.732,0-24.094s-2.554-7.239-12.491-7.239c-4.7,0-3.834-4.177-3.834-9.513s-2.099-6.201-9.806-6.201
		c-6.393,0-109.034,0-115.229,0C186.358,1285.538,184.259,1286.403,184.259,1291.739z"/>
	<path fill="#D6C15D" d="M185.729,1294.686c0,4.999,0.848,8.913-3.749,8.913c-9.722,0-12.22,0.823-12.22,6.782s0,14.542,0,22.572
		s6.604,8.079,11.391,8.079c3.617,0,3.83,13.315,3.83,36.175c0,4.607,0.313,8.843,7.548,8.843c5.865,0,112.264,0,118.3,0
		c7.235,0,7.548-4.235,7.548-8.843c0-22.859,0.213-36.175,3.831-36.175c4.785,0,11.39-0.049,11.39-8.079s0-16.613,0-22.572
		s-2.498-6.782-12.22-6.782c-4.597,0-3.75-3.914-3.75-8.913c0-4.998-2.053-5.809-9.591-5.809c-6.254,0-106.655,0-112.715,0
		C187.783,1288.877,185.729,1289.688,185.729,1294.686z"/>
	<path fill="#F7E896" d="M318.372,1377.87c0.003-0.22,0.005-0.44,0.005-0.663c0-1.474,0.001-2.905,0.004-4.298H184.978
		c0.003,1.393,0.004,2.824,0.004,4.298c0,0.223,0.002,0.443,0.004,0.663H318.372z"/>
	<path fill="#391E00" d="M318.472,1361.635c0.055-3.079,0.142-5.839,0.275-8.265H184.611c0.134,2.426,0.22,5.186,0.275,8.265
		H318.472z"/>
	<g>
		<rect x="192.145" y="1298.443" fill="#CCA636" width="11.604" height="25.377"/>
		<rect x="192.145" y="1324.123" fill="#FFEC81" width="11.604" height="22.494"/>
		<rect x="193.722" y="1324.123" fill="#CCA636" width="8.449" height="22.169"/>
		<rect x="194.903" y="1353.486" fill="#FBC44F" width="6.087" height="12.657"/>
		<rect x="194.903" y="1346.617" fill="#272525" width="6.087" height="6.869"/>
		<rect x="193.722" y="1341.494" fill="#9B8528" width="8.449" height="5.123"/>
		<rect x="195.693" y="1325.599" fill="#0A0C04" width="4.507" height="5.659"/>
		<circle fill="#393838" cx="197.947" cy="1386.771" r="5.272"/>
	</g>
	<g>
		<rect x="207.496" y="1297.692" fill="#CCA636" width="11.605" height="25.377"/>
		<rect x="207.496" y="1323.372" fill="#FFEC81" width="11.605" height="22.494"/>
		<rect x="209.073" y="1323.372" fill="#CCA636" width="8.45" height="22.169"/>
		<rect x="210.255" y="1352.734" fill="#FBC44F" width="6.087" height="13.409"/>
		<rect x="210.255" y="1345.866" fill="#272525" width="6.087" height="6.868"/>
		<rect x="209.073" y="1340.743" fill="#9B8528" width="8.45" height="5.123"/>
		<rect x="211.046" y="1324.847" fill="#0A0C04" width="4.507" height="5.66"/>
		<circle fill="#393838" cx="213.3" cy="1386.771" r="5.272"/>
	</g>
	<g>
		<rect x="222.848" y="1294.686" fill="#CCA636" width="11.606" height="25.378"/>
		<rect x="222.848" y="1320.365" fill="#FFEC81" width="11.606" height="22.495"/>
		<rect x="224.426" y="1320.365" fill="#CCA636" width="8.449" height="22.17"/>
		<rect x="225.607" y="1349.729" fill="#FBC44F" width="6.086" height="16.415"/>
		<rect x="225.607" y="1342.86" fill="#272525" width="6.086" height="6.868"/>
		<rect x="224.426" y="1337.736" fill="#9B8528" width="8.449" height="5.124"/>
		<rect x="226.397" y="1321.841" fill="#0A0C04" width="4.507" height="5.659"/>
		<circle fill="#393838" cx="228.651" cy="1386.771" r="5.272"/>
	</g>
	<g>
		<rect x="238.2" y="1295.438" fill="#CCA636" width="11.605" height="25.377"/>
		<rect x="238.2" y="1321.117" fill="#FFEC81" width="11.605" height="22.494"/>
		<rect x="239.778" y="1321.117" fill="#CCA636" width="8.449" height="22.169"/>
		<rect x="240.96" y="1350.479" fill="#FBC44F" width="6.086" height="15.664"/>
		<rect x="240.96" y="1343.611" fill="#272525" width="6.086" height="6.868"/>
		<rect x="239.778" y="1338.488" fill="#9B8528" width="8.449" height="5.123"/>
		<rect x="241.749" y="1322.592" fill="#0A0C04" width="4.508" height="5.66"/>
		<circle fill="#393838" cx="244.003" cy="1386.771" r="5.272"/>
	</g>
	<g>
		<rect x="253.553" y="1296.188" fill="#CCA636" width="11.605" height="25.378"/>
		<rect x="253.553" y="1321.868" fill="#FFEC81" width="11.605" height="22.495"/>
		<rect x="255.131" y="1321.868" fill="#CCA636" width="8.449" height="22.17"/>
		<rect x="256.313" y="1351.231" fill="#FBC44F" width="6.086" height="14.912"/>
		<rect x="256.313" y="1344.363" fill="#272525" width="6.086" height="6.868"/>
		<rect x="255.131" y="1339.239" fill="#9B8528" width="8.449" height="5.124"/>
		<rect x="257.102" y="1323.344" fill="#0A0C04" width="4.508" height="5.659"/>
		<circle fill="#393838" cx="259.355" cy="1386.771" r="5.272"/>
	</g>
	<g>
		<rect x="268.905" y="1294.686" fill="#CCA636" width="11.605" height="25.378"/>
		<rect x="268.905" y="1320.365" fill="#FFEC81" width="11.605" height="22.495"/>
		<rect x="270.483" y="1320.365" fill="#CCA636" width="8.449" height="22.17"/>
		<rect x="271.665" y="1349.729" fill="#FBC44F" width="6.086" height="16.415"/>
		<rect x="271.665" y="1342.86" fill="#272525" width="6.086" height="6.868"/>
		<rect x="270.483" y="1337.736" fill="#9B8528" width="8.449" height="5.124"/>
		<rect x="272.454" y="1321.841" fill="#0A0C04" width="4.508" height="5.659"/>
		<circle fill="#393838" cx="274.708" cy="1386.771" r="5.272"/>
	</g>
	<g>
		<rect x="284.258" y="1292.432" fill="#CCA636" width="11.605" height="25.377"/>
		<rect x="284.258" y="1318.11" fill="#FFEC81" width="11.605" height="22.495"/>
		<rect x="285.835" y="1318.11" fill="#CCA636" width="8.449" height="22.17"/>
		<rect x="287.017" y="1347.474" fill="#FBC44F" width="6.086" height="18.67"/>
		<rect x="287.017" y="1340.605" fill="#272525" width="6.086" height="6.868"/>
		<rect x="285.835" y="1335.482" fill="#9B8528" width="8.449" height="5.123"/>
		<rect x="287.807" y="1319.586" fill="#0A0C04" width="4.508" height="5.66"/>
		<circle fill="#393838" cx="290.061" cy="1386.771" r="5.272"/>
	</g>
	<g>
		<rect x="299.609" y="1293.183" fill="#CCA636" width="11.606" height="25.377"/>
		<rect x="299.609" y="1318.862" fill="#FFEC81" width="11.606" height="22.494"/>
		<rect x="301.188" y="1318.862" fill="#CCA636" width="8.449" height="22.17"/>
		<rect x="302.369" y="1348.226" fill="#FBC44F" width="6.086" height="17.918"/>
		<rect x="302.369" y="1341.356" fill="#272525" width="6.086" height="6.869"/>
		<rect x="301.188" y="1336.233" fill="#9B8528" width="8.449" height="5.123"/>
		<rect x="303.159" y="1320.338" fill="#0A0C04" width="4.507" height="5.659"/>
		<circle fill="#393838" cx="305.412" cy="1386.771" r="5.272"/>
	</g>
	<circle fill="#272525" cx="251.679" cy="1375.202" r="5.168"/>
	<g>
		<g>
			<circle fill="#F1DF97" cx="178.032" cy="1321.666" r="10.335"/>
			<path opacity="0.2" fill="#272525" d="M178.032,1332.001c5.708,0,10.335-4.629,10.335-10.336h-20.671
				C167.696,1327.372,172.323,1332.001,178.032,1332.001z"/>
		</g>
		<g>
			<circle fill="#F1DF97" cx="325.327" cy="1321.666" r="10.335"/>
			<path opacity="0.2" fill="#272525" d="M325.327,1332.001c5.709,0,10.335-4.629,10.335-10.336h-20.671
				C314.991,1327.372,319.619,1332.001,325.327,1332.001z"/>
		</g>
	</g>
	<g>
		<rect x="221.804" y="331.6" fill="#ACD0CF" width="59.751" height="28.62"/>
		<rect x="221.051" y="444.233" fill="#ACD0CF" width="61.257" height="26.611"/>
		<rect x="219.042" y="539.547" fill="#ACD0CF" width="65.274" height="26.611"/>
		<rect x="217.284" y="625.126" fill="#ACD0CF" width="68.79" height="24.101"/>
		<rect x="215.527" y="700.953" fill="#ACD0CF" width="72.304" height="22.091"/>
		<rect x="214.021" y="800.623" fill="#ACD0CF" width="75.316" height="17.07"/>
		<rect x="212.514" y="883.499" fill="#ACD0CF" width="78.33" height="12.551"/>
		<rect x="211.259" y="931.483" fill="#ACD0CF" width="80.84" height="10.042"/>
		<rect x="211.259" y="973.189" fill="#ACD0CF" width="80.84" height="8.535"/>
		<rect x="210.506" y="1011.148" fill="#ACD0CF" width="82.347" height="7.531"/>
		<rect x="208.748" y="1060.062" fill="#ACD0CF" width="85.861" height="5.647"/>
	</g>
	<polygon fill="#BBBCBF" points="213.722,241.069 216.884,301.035 199.101,1329.426 196.176,1329.426 213.959,301.035 
		210.797,241.069 	"/>
	<polygon fill="#BBBCBF" points="222.417,193.23 226.77,301.035 214.219,1329.865 211.83,1329.865 224.381,301.035 220.028,193.23 	
		"/>
	<polygon fill="#BBBCBF" points="230.142,144.306 236.647,301.035 229.257,1326.184 227.189,1326.184 234.579,301.035 
		228.073,144.306 	"/>
	<polygon fill="#BBBCBF" points="238.518,96.033 246.761,301.035 244.24,1325.837 242.493,1325.837 245.014,301.035 236.771,96.033 
			"/>
	<polygon fill="#BBBCBF" points="261.125,68.418 256.688,301.035 259.729,1325.778 258.41,1325.778 255.368,301.035 259.807,68.418 
			"/>
	<polygon fill="#BBBCBF" points="265.896,116.039 266.606,301.035 274.468,1325.086 273.542,1325.086 265.68,301.035 
		264.97,116.039 	"/>
	<polygon fill="#BBBCBF" points="275.853,164.746 276.648,301.035 290.646,1323.975 289.835,1323.975 275.838,301.035 
		275.042,164.746 	"/>
	<polygon fill="#BBBCBF" points="287.436,211.713 286.435,301.035 305.129,1323.975 304.385,1323.975 285.69,301.035 
		286.691,211.713 	"/>
	<g>
		<path fill="#3C3603" d="M363.957,1252.373c6.223-1.688,13.423,3.9,15.781,12.315c0.609,2.176-0.145,0.591-0.427,2.295
			c-0.537,3.269-3.219,5.299-7.311,6.409c-2.675,0.727-6.799,5.089-9.163,4.019c-3.136-1.417-6.035-6.826-7.019-10.452
			C354.09,1260.593,357.735,1254.063,363.957,1252.373z"/>
		
			<ellipse transform="matrix(-0.2619 -0.9651 0.9651 -0.2619 -758.2017 1956.5565)" fill="#FCE081" cx="369.082" cy="1268.213" rx="11.943" ry="11.412"/>
		<path fill="#D6C15D" d="M366.667,1259.314c4.697-1.275,9.584,1.677,10.92,6.591c1.332,4.915-1.391,9.934-6.09,11.207
			c-4.693,1.275-9.582-1.676-10.917-6.592C359.248,1265.606,361.973,1260.589,366.667,1259.314z"/>
	</g>
	<g>
		<path fill="#3C3603" d="M421.206,1315.74c6.224-1.688,13.424,3.899,15.781,12.315c0.61,2.175-0.145,0.59-0.426,2.295
			c-0.537,3.268-3.219,5.299-7.312,6.408c-2.674,0.727-6.799,5.089-9.162,4.02c-3.136-1.418-6.036-6.826-7.02-10.453
			C411.339,1323.96,414.985,1317.429,421.206,1315.74z"/>
		
			<ellipse transform="matrix(-0.2619 -0.9651 0.9651 -0.2619 -747.1353 2091.7363)" fill="#FCE081" cx="426.332" cy="1331.58" rx="11.943" ry="11.412"/>
		<path fill="#D6C15D" d="M423.916,1322.682c4.698-1.275,9.585,1.677,10.92,6.591c1.333,4.915-1.39,9.933-6.089,11.207
			c-4.693,1.274-9.583-1.676-10.918-6.592C416.497,1328.974,419.223,1323.956,423.916,1322.682z"/>
	</g>
	<g>
		<path fill="#272525" d="M401.233,1232.913c0.535,0.574,0.503,1.479-0.07,2.016c-0.575,0.534-1.481,0.503-2.018-0.071l-24.318-26.1
			c-0.533-0.573-0.502-1.48,0.07-2.015c0.575-0.535,1.482-0.503,2.016,0.07L401.233,1232.913z"/>
		<ellipse fill="#A7C5C3" cx="389.119" cy="1223.886" rx="6.614" ry="6.733"/>
		<circle fill="#D4E9E7" cx="389.313" cy="1222.997" r="6.566"/>
		<path fill="#EBF0EF" d="M386.351,1224.8c0,2.002,1.526,3.952,3.356,4.725c2.811-0.17,5.124-2.092,5.885-4.698
			c-0.49-2.138-2.339-4.231-4.598-4.231C388.363,1220.595,386.351,1222.169,386.351,1224.8z"/>
	</g>
	<circle fill="#272525" cx="408.038" cy="1241.973" r="4.253"/>
	<circle fill="#272525" cx="368.378" cy="1199.75" r="4.253"/>
	<circle fill="#272525" cx="426.536" cy="1261.29" r="5.021"/>
	<circle fill="#272525" cx="442.831" cy="1355.47" r="5.021"/>
	<circle fill="#272525" cx="330.204" cy="1286.501" r="5.021"/>
	<circle fill="#272525" cx="149.228" cy="1289.508" r="5.021"/>
	<circle fill="#272525" cx="179.391" cy="1147.746" r="5.022"/>
	<circle fill="#272525" cx="167.537" cy="1022.346" r="5.022"/>
	<circle fill="#272525" cx="320.571" cy="1074.441" r="5.021"/>
	<circle fill="#272525" cx="430.565" cy="993.277" r="5.022"/>
	<circle fill="#272525" cx="402.383" cy="1086.842" r="5.022"/>
	<circle fill="#272525" cx="389.778" cy="1177.397" r="5.022"/>
	<path fill="#D6C15D" d="M240.508,1494.984c-1.015,1.146-1.791,1.756-0.134,3.233c1.566,1.398,8.451,1.711,10.203,1.768V1500
		c0,0,0.086-0.003,0.206-0.009c0.12,0.005,0.204,0.006,0.204,0.006v-0.015c1.746-0.083,8.628-0.501,10.161-1.921
		c1.618-1.502,0.826-2.101-0.214-3.23c-1.282-1.389-4.665-3.701-4.665-3.701l-5.391,0.041l-0.409,0.002l-5.39,0.041
		C245.08,1491.214,241.752,1493.579,240.508,1494.984z"/>
	<path fill="#9B8528" d="M245.063,1490.256l0.01,0.958l11.201-0.084l-0.012-0.924
		C252.532,1490.232,248.799,1490.25,245.063,1490.256z"/>
	<g>
		<path fill="#D6C15D" d="M117.148,847.504c1.669-0.803,2.772-1.112,2.249-3.673c-0.494-2.42-6.502-6.315-8.046-7.278l0.01-0.017
			c0,0-0.079-0.039-0.19-0.096c-0.105-0.064-0.182-0.112-0.182-0.112l-0.009,0.018c-1.632-0.8-8.114-3.845-10.431-2.986
			c-2.451,0.908-2.129,2.008-1.934,3.85c0.244,2.263,1.776,6.677,1.776,6.677l4.889,2.717l0.372,0.207l4.889,2.717
			C110.542,849.526,115.102,848.495,117.148,847.504z"/>
		
			<rect x="103.901" y="841.814" transform="matrix(-0.4859 0.874 -0.874 -0.4859 896.7993 1167.7371)" fill="#9B8528" width="2.108" height="11.625"/>
		<path fill="#D6C15D" d="M99.939,854.477c1.577,0.877,4.228,2.298,8.356,4.775c0.293-0.815,3.112-6.19,1.999-7.328
			c-1.425-1.453-5.204-3.493-5.653-3.731c-0.44-0.255-4.166-2.387-6.155-2.828c-1.318-0.294-4.417,4.41-5.103,5.183
			C96.598,852.493,98.847,853.87,99.939,854.477z"/>
	</g>
	<rect x="210.627" y="281.325" fill="#D0BE5E" width="78.429" height="6.192"/>
	<circle fill="#272525" cx="218.278" cy="284.42" r="2.754"/>
	<circle fill="#272525" cx="281.404" cy="284.42" r="2.754"/>
</g>
</svg>
