<?xml version="1.0" encoding="UTF-8" standalone="no"?>
<svg
   xmlns:dc="http://purl.org/dc/elements/1.1/"
   xmlns:cc="http://creativecommons.org/ns#"
   xmlns:rdf="http://www.w3.org/1999/02/22-rdf-syntax-ns#"
   xmlns:svg="http://www.w3.org/2000/svg"
   xmlns="http://www.w3.org/2000/svg"
   xmlns:sodipodi="http://sodipodi.sourceforge.net/DTD/sodipodi-0.dtd"
   xmlns:inkscape="http://www.inkscape.org/namespaces/inkscape"
   enable-background="new 0 0 512 512"
   height="115"
   id="bass2"
   version="1.1"
   viewBox="0 0 1044 115"
   width="1044"
   xml:space="preserve"
   inkscape:version="0.91 r13725"
   sodipodi:docname="jazz-bass-fretboard.svg"><metadata
     id="metadata553"><rdf:RDF><cc:Work
         rdf:about=""><dc:format>image/svg+xml</dc:format><dc:type
           rdf:resource="http://purl.org/dc/dcmitype/StillImage" /></cc:Work></rdf:RDF></metadata><defs
     id="defs551" /><sodipodi:namedview
     pagecolor="#ffffff"
     bordercolor="#666666"
     borderopacity="1"
     objecttolerance="10"
     gridtolerance="10"
     guidetolerance="10"
     inkscape:pageopacity="0"
     inkscape:pageshadow="2"
     inkscape:window-width="1920"
     inkscape:window-height="1018"
     id="namedview549"
     showgrid="false"
     inkscape:zoom="1.3037281"
     inkscape:cx="1395.8205"
     inkscape:cy="18.239163"
     inkscape:window-x="1912"
     inkscape:window-y="-8"
     inkscape:window-maximized="1"
     inkscape:current-layer="g5571" /><g
     id="g5571"><path
       d="m 870.53569,249.18571 c -10.60003,39.14216 45.38736,88.805 161.80561,89.37911 120.3484,0.59278 196.6957,-55.52063 266.0416,-52.41203 54.6385,2.4458 96.7772,39.77695 176.6859,72.57589 72.8466,29.90039 112.5348,44.85059 162.8278,43.76305 63.3201,-1.3676 99.1763,-20.6913 117.0064,-30.70788 60.4869,-33.98918 84.9543,-71.49769 101.2627,-104.11927 16.3085,-32.62158 50.559,-126.93897 62.2466,-229.690641 11.6876,-102.747005 10.8988,-154.860319 2.5952,-211.571169 -8.2989,-56.71553 -58.7039,-95.97438 -81.6683,-109.35627 -27.2072,-15.85571 -107.5079,-28.29942 -187.3139,9.15308 -83.9881,39.41288 -123.3823,90.92874 -187.2858,89.15974 -68.4965,-1.90437 -122.5702,-55.1799 -248.1742,-59.25935 -83.7174,-2.71652 -167.1594,32.8923 -159.3085,78.61105 4.3781,25.49888 29.1349,30.1011 52.4914,32.29485 40.5004,3.80406 77.1967,32.8923 79.3672,61.434431 2.9172,38.231987 -15.487,51.371169 -32.0709,57.891751 -7.1927,2.828541 -11.1508,8.4296136 -11.1508,8.4296136 L 1048.9485,115.70749 c 0,0 20.85,15.02021 14.5861,48.13188 -7.6128,40.2297 -118.20126,45.19132 -150.23939,48.76667 -8.77035,0.97552 -34.75465,7.02468 -42.75952,36.57967 z"
       id="path5"
       inkscape:connector-curvature="0"
       style="fill:#9a0c13;fill-opacity:1" /><path
       d="m 1111.9186,171.53618 c 14.5628,15.42162 47.231,-9.8859 126.2948,-17.16729 56.9349,-5.24634 150.4262,65.53721 225.3778,66.05531 56.9863,0.39675 71.9038,-47.36173 72.898,-54.09235 0.4901,-3.33731 5.293,-52.8928 15.3563,-108.189383 11.3235,-62.195241 28.9155,-101.603453 28.9155,-101.603453 0,0 -48.1552,-26.861809 -56.0481,-31.450021 -7.8928,-4.588212 -11.2721,-8.462287 -12.215,-14.469437 -0.9475,-6.011818 -8.3502,-69.985396 -8.3502,-69.985396 0,0 -34.6147,8.1729 -58.844,2.87055 -37.2098,-8.14023 -97.1086,-36.95775 -160.3727,-50.63837 -59.3013,-12.82178 -164.3401,-9.6105 -185.8436,31.73008 -1.7456,3.36064 110.8966,3.43999 130.4023,83.2226 13.9747,57.168278 -13.3445,84.7815652 -13.3445,84.7815652 0,0 -106.5978,163.3972848 -107.2979,164.8815648 -0.7095,1.49829 -2.8192,7.82283 3.0713,14.05403 z"
       id="path7"
       inkscape:connector-curvature="0"
       style="fill:#a6a8aa" /><path
       d="m 1109.9209,169.18373 c 14.5674,15.22091 47.231,-9.7552 126.2995,-16.94325 56.9349,-5.17632 150.4214,64.68772 225.3731,65.20115 56.9863,0.38741 71.9085,-46.75028 72.9026,-53.39222 0.4901,-3.2953 5.2977,-52.20666 15.361,-106.784444 11.3141,-61.3877535 26.7358,-99.087638 26.7358,-99.087638 0,0 -46.0128,-25.760265 -53.9057,-30.287799 -7.8928,-4.527533 -12.4017,-10.497343 -13.3492,-16.429812 -0.9382,-5.932469 -9.2371,-65.714577 -9.2371,-65.714577 0,0 -32.7569,5.74576 -56.9863,0.51343 -37.2144,-8.03754 -96.9172,-37.32648 -160.1766,-50.82973 -59.2967,-12.65376 -164.3448,-9.48449 -185.8436,31.31933 -1.7457,3.31396 110.8966,3.39798 130.4023,82.144389 13.9793,56.430804 -13.3492,83.6800209 -13.3492,83.6800209 0,0 -106.5931,161.2782101 -107.2932,162.7438201 -0.7142,1.47029 -2.8146,7.71081 3.0666,13.86733 z"
       id="path9"
       inkscape:connector-curvature="0"
       style="fill:#f7efd9;fill-opacity:1" /><path
       d="m 1581.3818,-43.106251 c 0,0 28.2901,-46.717611 71.9924,-75.049699 49.0094,-31.78609 141.6792,-105.30483 114.8687,-140.1435 -25.2142,-32.78028 -129.4221,29.48031 -165.4137,55.90804 -34.5213,25.33551 -100.7026,43.65102 -100.7026,43.65102 0,0 8.1589,60.020158 9.5732,67.390236 1.4049,7.370077 3.1879,12.000297 15.3142,18.763592 12.1217,6.75396 54.3678,29.480311 54.3678,29.480311 z"
       id="path11"
       inkscape:connector-curvature="0"
       style="fill:#efefef" /><g
       transform="matrix(0,-4.6675603,4.6675603,0,-454.22061,1251.9737)"
       id="g13"><g
         id="g15"><path
           d="m 245.52,405.906 c 0,0.102 0.009,0.199 0.021,0.297 l 4.887,0 c 0.012,-0.098 0.021,-0.195 0.021,-0.297 0,-1.317 -1.104,-2.385 -2.464,-2.385 -1.362,0 -2.465,1.068 -2.465,2.385 z"
           id="path17"
           inkscape:connector-curvature="0"
           style="fill:#434244" /><path
           d="m 245.306,406.119 c 0,0.102 0.009,0.2 0.021,0.298 l 4.887,0 c 0.013,-0.098 0.021,-0.196 0.021,-0.298 0,-1.316 -1.104,-2.385 -2.465,-2.385 -1.36,0 -2.464,1.069 -2.464,2.385 z"
           id="path19"
           inkscape:connector-curvature="0"
           style="fill:#292929" /><circle
           cx="247.771"
           cy="404.784"
           r="0.98500001"
           id="circle21"
           style="fill:#b4b4b4" /></g><g
         id="g23"><path
           d="m 261.709,405.906 c 0,0.102 0.009,0.199 0.021,0.297 l 4.888,0 c 0.012,-0.098 0.021,-0.195 0.021,-0.297 0,-1.317 -1.104,-2.385 -2.465,-2.385 -1.361,0 -2.465,1.068 -2.465,2.385 z"
           id="path25"
           inkscape:connector-curvature="0"
           style="fill:#434244" /><path
           d="m 261.495,406.119 c 0,0.102 0.009,0.2 0.021,0.298 l 4.887,0 c 0.013,-0.098 0.021,-0.196 0.021,-0.298 0,-1.316 -1.103,-2.385 -2.464,-2.385 -1.361,0 -2.465,1.069 -2.465,2.385 z"
           id="path27"
           inkscape:connector-curvature="0"
           style="fill:#292929" /><circle
           cx="263.95999"
           cy="404.784"
           r="0.98500001"
           id="circle29"
           style="fill:#b4b4b4" /></g><g
         id="g31"><path
           d="m 245.306,414.479 c 0,-0.101 0.009,-0.2 0.021,-0.298 l 4.887,0 c 0.013,0.098 0.021,0.197 0.021,0.298 0,1.317 -1.104,2.385 -2.465,2.385 -1.36,0 -2.464,-1.067 -2.464,-2.385 z"
           id="path33"
           inkscape:connector-curvature="0"
           style="fill:#292929" /><circle
           cx="247.771"
           cy="415.815"
           r="0.98500001"
           id="circle35"
           style="fill:#b4b4b4" /></g><g
         id="g37"><path
           d="m 261.495,414.479 c 0,-0.101 0.009,-0.2 0.021,-0.298 l 4.887,0 c 0.013,0.098 0.021,0.197 0.021,0.298 0,1.317 -1.103,2.385 -2.464,2.385 -1.361,0 -2.465,-1.067 -2.465,-2.385 z"
           id="path39"
           inkscape:connector-curvature="0"
           style="fill:#292929" /><circle
           cx="263.95999"
           cy="415.815"
           r="0.98500001"
           id="circle41"
           style="fill:#b4b4b4" /></g><path
         d="m 275.306,405.977 c 0.475,0 0.863,0.418 0.863,0.93 l 0,6.62 c 0,0.511 -0.389,0.929 -0.863,0.929 l -38.488,0 c -0.475,0 -0.863,-0.418 -0.863,-0.929 l 0,-6.62 c 0,-0.512 0.389,-0.93 0.863,-0.93 l 38.488,0 z"
         id="path43"
         inkscape:connector-curvature="0" /><path
         d="m 274.888,406.831 c 0.47,0 0.854,0.384 0.854,0.854 l 0,6.085 c 0,0.47 -0.384,0.854 -0.854,0.854 l -38.08,0 c -0.47,0 -0.854,-0.385 -0.854,-0.854 l 0,-6.085 c 0,-0.471 0.384,-0.854 0.854,-0.854 l 38.08,0 z"
         id="path45"
         inkscape:connector-curvature="0"
         style="fill:#292929" /><g
         id="g47"><circle
           cx="242.121"
           cy="410.80801"
           r="1.199"
           id="circle49"
           style="fill:#6a6a6a" /><circle
           cx="245.265"
           cy="410.80801"
           r="1.199"
           id="circle51"
           style="fill:#6a6a6a" /></g><g
         id="g53"><circle
           cx="250.354"
           cy="410.80801"
           r="1.199"
           id="circle55"
           style="fill:#6a6a6a" /><circle
           cx="253.49699"
           cy="410.80801"
           r="1.199"
           id="circle57"
           style="fill:#6a6a6a" /></g><g
         id="g59"><circle
           cx="258.586"
           cy="410.80801"
           r="1.199"
           id="circle61"
           style="fill:#6a6a6a" /><circle
           cx="261.729"
           cy="410.80801"
           r="1.199"
           id="circle63"
           style="fill:#6a6a6a" /></g><g
         id="g65"><circle
           cx="266.81799"
           cy="410.80801"
           r="1.199"
           id="circle67"
           style="fill:#6a6a6a" /><circle
           cx="269.96201"
           cy="410.80801"
           r="1.199"
           id="circle69"
           style="fill:#6a6a6a" /></g></g><g
       transform="matrix(0,-4.6675603,4.6675603,0,-454.22061,1251.9737)"
       id="g71"><g
         id="g73"><path
           d="m 245.52,445.988 c 0,0.1 0.009,0.199 0.021,0.297 l 4.887,0 c 0.012,-0.098 0.021,-0.197 0.021,-0.297 0,-1.318 -1.104,-2.385 -2.464,-2.385 -1.362,10e-4 -2.465,1.067 -2.465,2.385 z"
           id="path75"
           inkscape:connector-curvature="0"
           style="fill:#434244" /><path
           d="m 245.306,446.201 c 0,0.102 0.009,0.199 0.021,0.297 l 4.887,0 c 0.013,-0.098 0.021,-0.195 0.021,-0.297 0,-1.317 -1.104,-2.385 -2.465,-2.385 -1.36,0 -2.464,1.068 -2.464,2.385 z"
           id="path77"
           inkscape:connector-curvature="0"
           style="fill:#292929" /><circle
           cx="247.771"
           cy="444.866"
           r="0.986"
           id="circle79"
           style="fill:#b4b4b4" /></g><g
         id="g81"><path
           d="m 261.709,445.988 c 0,0.1 0.008,0.199 0.021,0.297 l 4.887,0 c 0.013,-0.098 0.021,-0.197 0.021,-0.297 0,-1.318 -1.104,-2.385 -2.465,-2.385 -1.361,0 -2.464,1.067 -2.464,2.385 z"
           id="path83"
           inkscape:connector-curvature="0"
           style="fill:#434244" /><path
           d="m 261.495,446.201 c 0,0.102 0.009,0.199 0.021,0.297 l 4.887,0 c 0.012,-0.098 0.021,-0.195 0.021,-0.297 0,-1.317 -1.103,-2.385 -2.464,-2.385 -1.361,0 -2.465,1.068 -2.465,2.385 z"
           id="path85"
           inkscape:connector-curvature="0"
           style="fill:#292929" /><circle
           cx="263.95999"
           cy="444.866"
           r="0.986"
           id="circle87"
           style="fill:#b4b4b4" /></g><g
         id="g89"><path
           d="m 245.306,454.561 c 0,-0.101 0.009,-0.199 0.021,-0.297 l 4.887,0 c 0.013,0.098 0.021,0.196 0.021,0.297 0,1.317 -1.104,2.385 -2.465,2.385 -1.36,-0.001 -2.464,-1.068 -2.464,-2.385 z"
           id="path91"
           inkscape:connector-curvature="0"
           style="fill:#292929" /><circle
           cx="247.771"
           cy="455.896"
           r="0.98500001"
           id="circle93"
           style="fill:#b4b4b4" /></g><g
         id="g95"><path
           d="m 261.495,454.561 c 0,-0.101 0.009,-0.199 0.021,-0.297 l 4.887,0 c 0.012,0.098 0.021,0.196 0.021,0.297 0,1.317 -1.103,2.385 -2.464,2.385 -1.361,0 -2.465,-1.068 -2.465,-2.385 z"
           id="path97"
           inkscape:connector-curvature="0"
           style="fill:#292929" /><circle
           cx="263.95999"
           cy="455.896"
           r="0.98500001"
           id="circle99"
           style="fill:#b4b4b4" /></g><path
         d="m 275.305,446.059 c 0.476,0 0.863,0.418 0.863,0.929 l 0,6.62 c 0,0.512 -0.388,0.93 -0.863,0.93 l -38.487,0 c -0.475,0 -0.863,-0.418 -0.863,-0.93 l 0,-6.62 c 0,-0.511 0.389,-0.929 0.863,-0.929 l 38.487,0 z"
         id="path101"
         inkscape:connector-curvature="0" /><path
         d="m 274.888,446.912 c 0.47,0 0.854,0.385 0.854,0.854 l 0,6.085 c 0,0.47 -0.384,0.854 -0.854,0.854 l -38.08,0 c -0.47,0 -0.854,-0.385 -0.854,-0.854 l 0,-6.085 c 0,-0.47 0.384,-0.854 0.854,-0.854 l 38.08,0 z"
         id="path103"
         inkscape:connector-curvature="0"
         style="fill:#292929" /><g
         id="g105"><circle
           cx="242.121"
           cy="450.88901"
           r="1.199"
           id="circle107"
           style="fill:#6a6a6a" /><circle
           cx="245.265"
           cy="450.88901"
           r="1.199"
           id="circle109"
           style="fill:#6a6a6a" /></g><g
         id="g111"><circle
           cx="250.354"
           cy="450.88901"
           r="1.199"
           id="circle113"
           style="fill:#6a6a6a" /><circle
           cx="253.49699"
           cy="450.88901"
           r="1.199"
           id="circle115"
           style="fill:#6a6a6a" /></g><g
         id="g117"><circle
           cx="258.586"
           cy="450.88901"
           r="1.199"
           id="circle119"
           style="fill:#6a6a6a" /><circle
           cx="261.729"
           cy="450.88901"
           r="1.199"
           id="circle121"
           style="fill:#6a6a6a" /></g><g
         id="g123"><circle
           cx="266.81799"
           cy="450.88901"
           r="1.199"
           id="circle125"
           style="fill:#6a6a6a" /><circle
           cx="269.96201"
           cy="450.88901"
           r="1.199"
           id="circle127"
           style="fill:#6a6a6a" /></g></g><circle
       transform="matrix(0,-1,1,0,0,0)"
       cx="-183.69054"
       cy="1374.6975"
       r="5.4237046"
       id="circle129"
       style="fill:#c1c1c1" /><circle
       transform="matrix(0,-1,1,0,0,0)"
       cx="-110.60116"
       cy="1530.0759"
       r="5.4237046"
       id="circle131"
       style="fill:#c1c1c1" /><circle
       transform="matrix(0,-1,1,0,0,0)"
       cx="34.233166"
       cy="1561.9834"
       r="5.4237046"
       id="circle133"
       style="fill:#c1c1c1" /><circle
       transform="matrix(0,-1,1,0,0,0)"
       cx="139.88344"
       cy="1487.9232"
       r="5.4237046"
       id="circle135"
       style="fill:#c1c1c1" /><circle
       transform="matrix(0,-1,1,0,0,0)"
       cx="166.14786"
       cy="1367.4396"
       r="5.4237046"
       id="circle137"
       style="fill:#c1c1c1" /><circle
       transform="matrix(0,-1,1,0,0,0)"
       cx="197.8452"
       cy="1245.1168"
       r="5.4237046"
       id="circle139"
       style="fill:#c1c1c1" /><circle
       transform="matrix(0,-1,1,0,0,0)"
       cx="181.9241"
       cy="1124.1942"
       r="5.4237046"
       id="circle141"
       style="fill:#c1c1c1" /><circle
       transform="matrix(0,-1,1,0,0,0)"
       cx="22.989027"
       cy="1238.2881"
       r="5.4237046"
       id="circle143"
       style="fill:#c1c1c1" /><circle
       transform="matrix(0,-1,1,0,0,0)"
       cx="-160.11464"
       cy="1119.3307"
       r="5.4237046"
       id="circle145"
       style="fill:#c1c1c1" /><circle
       transform="matrix(0,-1,1,0,0,0)"
       cx="-141.77579"
       cy="1263.3669"
       r="5.4237046"
       id="circle147"
       style="fill:#c1c1c1" /><g
       transform="matrix(0,-4.6675603,4.6675603,0,-454.22061,1251.9737)"
       id="g149"><circle
         cx="290.42099"
         cy="428.646"
         r="5.506"
         id="circle151"
         style="fill:#272525" /><g
         id="g153"><path
           d="m 295.493,430.939 c 0.058,0.228 -0.011,0.567 -0.152,0.755 l -2.138,2.824 c -0.142,0.188 -0.45,0.346 -0.685,0.352 l -3.541,0.09 c -0.234,0.006 -0.551,-0.137 -0.701,-0.316 l -2.278,-2.713 c -0.15,-0.18 -0.236,-0.516 -0.189,-0.746 l 0.699,-3.471 c 0.047,-0.23 0.256,-0.507 0.465,-0.614 l 3.151,-1.616 c 0.209,-0.107 0.556,-0.116 0.77,-0.02 l 3.229,1.454 c 0.214,0.097 0.438,0.362 0.495,0.59 l 0.875,3.431 z"
           id="path155"
           inkscape:connector-curvature="0"
           style="fill:#424242" /></g></g><g
       transform="matrix(0,-4.6675603,4.6675603,0,-454.22061,1251.9737)"
       id="g157"><circle
         cx="299.104"
         cy="441.39801"
         r="5.506"
         id="circle159"
         style="fill:#272525" /><g
         id="g161"><path
           d="m 304.175,443.691 c 0.058,0.228 -0.011,0.567 -0.152,0.755 l -2.137,2.824 c -0.142,0.188 -0.45,0.346 -0.685,0.352 l -3.541,0.09 c -0.234,0.006 -0.551,-0.137 -0.701,-0.316 l -2.278,-2.712 c -0.15,-0.18 -0.236,-0.516 -0.19,-0.746 l 0.701,-3.471 c 0.046,-0.23 0.255,-0.507 0.464,-0.614 l 3.151,-1.616 c 0.209,-0.107 0.555,-0.116 0.77,-0.02 l 3.228,1.454 c 0.215,0.097 0.438,0.362 0.495,0.59 l 0.875,3.43 z"
           id="path163"
           inkscape:connector-curvature="0"
           style="fill:#424242" /></g></g><g
       transform="matrix(0,-4.6675603,4.6675603,0,-454.22061,1251.9737)"
       id="g165"><circle
         cx="307.69299"
         cy="453.77399"
         r="4.079"
         id="circle167"
         style="fill:#272525" /><g
         id="g169"><path
           d="m 311.45,455.473 c 0.043,0.169 -0.008,0.42 -0.112,0.559 l -1.584,2.094 c -0.104,0.139 -0.333,0.256 -0.507,0.26 l -2.623,0.066 c -0.174,0.004 -0.408,-0.102 -0.52,-0.234 l -1.688,-2.01 c -0.111,-0.133 -0.175,-0.382 -0.141,-0.553 l 0.52,-2.57 c 0.034,-0.171 0.189,-0.376 0.344,-0.455 l 2.335,-1.197 c 0.154,-0.079 0.411,-0.086 0.569,-0.015 l 2.393,1.078 c 0.158,0.071 0.323,0.268 0.366,0.437 l 0.648,2.54 z"
           id="path171"
           inkscape:connector-curvature="0"
           style="fill:#424242" /></g></g><circle
       transform="matrix(0,-1,1,0,0,0)"
       cx="63.321518"
       cy="1578.0117"
       r="5.4237046"
       id="circle173"
       style="fill:#c1c1c1" /><circle
       transform="matrix(0,-1,1,0,0,0)"
       cx="248.97839"
       cy="1758.2683"
       r="5.4237046"
       id="circle175"
       style="fill:#c1c1c1" /><circle
       transform="matrix(0,-1,1,0,0,0)"
       cx="147.55226"
       cy="1520.5121"
       r="5.4237046"
       id="circle177"
       style="fill:#c1c1c1" /><g
       transform="matrix(0,-4.6675603,4.6675603,0,-454.22061,1251.9737)"
       id="g179"
       style="opacity:0.7"><path
         d="m 187.168,464.401 c 0,0 -0.251,-0.669 -0.679,-1.951 -0.399,-1.285 -0.987,-3.177 -1.5,-5.646 -0.231,-1.239 -0.551,-2.603 -0.706,-4.12 -0.089,-0.757 -0.205,-1.543 -0.27,-2.364 -0.031,-0.825 -0.063,-1.68 -0.096,-2.563 -0.072,-0.884 0.013,-1.798 0.083,-2.74 0.034,-0.472 0.068,-0.95 0.103,-1.436 l 0.057,-0.743 0.117,-0.721 c 0.162,-0.967 0.304,-1.956 0.494,-2.973 0.212,-1.02 0.43,-2.063 0.652,-3.128 0.978,-4.233 2.509,-8.694 4.405,-13.253 1.885,-4.571 3.966,-9.328 6.237,-14.208 2.287,-4.889 4.897,-9.797 7.334,-14.854 2.421,-5.045 4.686,-10.318 5.401,-15.896 0.37,-2.776 0.336,-5.592 -0.007,-8.385 -0.334,-2.759 -1.058,-5.478 -1.946,-8.124 -1.824,-5.29 -3.828,-10.534 -5.155,-15.768 -1.38,-5.227 -2.361,-10.332 -3.09,-15.243 -0.724,-4.848 -1,-9.594 -0.949,-13.909 0.134,-4.331 0.636,-8.288 1.417,-11.729 0.805,-3.437 1.877,-6.337 2.939,-8.639 1.058,-2.309 2.142,-4 2.953,-5.101 0.387,-0.564 0.785,-0.926 1.098,-1.122 0.308,-0.202 0.517,-0.251 0.517,-0.251 l 0.045,0.045 c 0,0 -0.042,0.206 -0.185,0.532 -0.137,0.329 -0.395,0.766 -0.782,1.296 -0.766,1.068 -1.799,2.725 -2.8,4.989 -1.006,2.258 -2.017,5.105 -2.761,8.48 -0.707,3.383 -1.167,7.266 -1.307,11.523 -0.038,4.275 0.227,8.843 0.963,13.735 0.736,4.82 1.749,9.919 3.139,15.069 1.344,5.18 3.34,10.312 5.22,15.666 0.918,2.689 1.686,5.485 2.054,8.393 0.368,2.863 0.423,5.818 0.051,8.724 -0.721,5.841 -3.033,11.268 -5.443,16.366 -2.431,5.114 -5.006,10.023 -7.244,14.876 -2.234,4.868 -4.366,9.603 -6.242,14.129 -1.867,4.531 -3.517,8.85 -4.535,12.98 -0.236,1.033 -0.468,2.045 -0.694,3.033 -0.208,0.999 -0.371,1.996 -0.551,2.956 l -0.13,0.718 -0.073,0.69 c -0.048,0.465 -0.096,0.923 -0.143,1.375 -0.098,0.904 -0.211,1.783 -0.168,2.646 0.003,0.861 0.007,1.695 0.01,2.5 0.035,0.805 0.131,1.579 0.184,2.325 0.079,1.497 0.33,2.854 0.499,4.089 0.175,1.234 0.444,2.316 0.604,3.273 0.217,0.946 0.4,1.75 0.55,2.402 0.337,1.292 0.546,1.979 0.546,1.979 l -0.216,0.078 z"
         id="path181"
         inkscape:connector-curvature="0"
         style="fill:#ffffff" /></g><g
       transform="matrix(0,-4.6675603,4.6675603,0,-454.22061,1251.9737)"
       id="g183"
       style="opacity:0.7"><path
         d="m 329.021,480.193 c 0,0 -0.017,-0.627 -0.1,-1.801 -0.081,-1.173 -0.226,-2.893 -0.52,-5.065 -0.296,-2.171 -0.695,-4.805 -1.409,-7.765 -0.723,-2.953 -1.654,-6.264 -3.115,-9.689 -0.341,-0.867 -0.76,-1.718 -1.199,-2.578 -0.406,-0.879 -0.916,-1.718 -1.428,-2.575 -1.013,-1.715 -2.201,-3.49 -3.354,-5.304 -2.337,-3.637 -4.831,-7.469 -7.199,-11.583 -2.315,-4.135 -4.55,-8.58 -5.822,-13.477 -0.617,-2.436 -1.069,-4.992 -0.975,-7.546 l -0.021,-1.881 c 0.018,-0.633 0.119,-1.283 0.177,-1.924 l 0.206,-1.929 0.407,-1.876 c 1.121,-5.008 3.277,-9.607 4.96,-14.239 0.453,-1.149 0.849,-2.312 1.232,-3.472 0.382,-1.168 0.807,-2.29 1.124,-3.467 0.34,-1.165 0.677,-2.323 1.013,-3.474 0.297,-1.152 0.593,-2.298 0.886,-3.434 1.122,-4.559 1.809,-9.044 2.104,-13.335 0.295,-4.281 0.414,-8.392 0.344,-12.124 -0.107,-3.728 -0.742,-7.082 -1.59,-9.985 -0.841,-2.901 -1.911,-5.324 -2.926,-7.238 -1.023,-1.912 -1.952,-3.342 -2.589,-4.313 -0.646,-0.967 -1.01,-1.458 -1.01,-1.458 -0.104,-0.139 -0.076,-0.334 0.062,-0.438 0.118,-0.089 0.281,-0.079 0.39,0.012 0,0 0.501,0.427 1.27,1.349 0.774,0.916 1.81,2.349 2.867,4.317 1.063,1.963 2.187,4.448 3.08,7.432 0.889,2.973 1.508,6.48 1.604,10.301 0.051,3.813 -0.109,7.887 -0.439,12.229 -0.34,4.334 -1.06,8.889 -2.213,13.488 -0.302,1.147 -0.606,2.304 -0.913,3.469 -0.341,1.149 -0.684,2.306 -1.028,3.47 -0.328,1.164 -0.741,2.339 -1.115,3.507 -0.376,1.175 -0.765,2.351 -1.208,3.511 -1.654,4.683 -3.749,9.292 -4.778,14.138 l -0.378,1.814 -0.176,1.824 c -0.048,0.61 -0.144,1.207 -0.155,1.827 l 0.039,1.882 c -0.07,2.468 0.388,4.883 1.004,7.23 1.27,4.702 3.491,9.036 5.816,13.094 2.338,4.065 4.816,7.885 7.153,11.524 1.159,1.841 2.333,3.552 3.36,5.356 0.517,0.899 1.029,1.78 1.433,2.693 0.438,0.897 0.854,1.782 1.189,2.679 1.437,3.548 2.353,6.936 2.938,9.969 0.594,3.033 0.932,5.705 1.09,7.912 0.336,4.414 0.17,6.943 0.17,6.943 -0.003,0.072 -0.063,0.128 -0.136,0.125 -0.065,-10e-4 -0.119,-0.058 -0.122,-0.125 z"
         id="path185"
         inkscape:connector-curvature="0"
         style="fill:#ffffff" /></g><path
       d="M 920.19386,317.27608 C 888.20241,299.39932 874.5778,275.2587 880.28156,254.166 c 8.00486,-29.55499 33.9845,-35.60415 42.76418,-36.58434 32.03347,-3.57535 142.62666,-8.53697 150.23946,-48.76667 6.2638,-33.11167 -14.5862,-48.13188 -14.5862,-48.13188 l 96.9499,-120.94582509 c 0,0 3.9535,-5.59640481 11.1462,-8.42961391 16.5838,-6.520582 38.1433,-25.643576 35.2261,-63.884898 -2.1705,-28.537463 -35.9636,-62.260583 -76.464,-66.064653 -23.3518,-2.19375 -56.3421,-2.91722 -60.6176,-28.43477 -2.0631,-12.30836 6.8426,-21.40077 24.598,-31.87944 0.8822,-0.64412 1.8204,-1.30692 2.8099,-1.98838 3.3606,-2.26843 7.3374,-4.7049 11.9256,-7.19738 4.5742,-2.49714 9.7552,-5.0643 15.5383,-7.53344 5.7831,-2.4598 12.187,-4.78892 19.1557,-6.86131 13.9373,-4.13079 30.1664,-7.04335 48.1085,-7.50077 l 1.6897,-0.0607 1.6616,0 c 1.1156,0 2.2311,0.005 3.356,0.005 l 1.6897,0 1.7503,0.0467 c 1.1296,0.028 2.2731,0.0607 3.4213,0.0933 4.5882,0.12136 9.2651,0.25205 14.026,0.37807 4.7563,0.14003 9.6012,0.44342 14.5115,0.66747 2.4551,0.13069 4.9336,0.21004 7.4307,0.39207 2.4879,0.20537 5.0037,0.41075 7.5288,0.62079 2.5298,0.21004 5.0783,0.42008 7.6408,0.63012 1.2789,0.084 2.5625,0.25671 3.8461,0.42008 1.2836,0.15869 2.5718,0.31739 3.8647,0.48542 5.167,0.68147 10.4227,1.1809 15.6597,2.21243 10.5487,1.66632 21.1767,4.0421 31.9354,6.65127 5.3584,1.40027 10.7588,2.81454 16.2011,4.23348 5.3584,1.57763 10.7681,3.16927 16.2011,4.77024 1.3583,0.40141 2.7166,0.80283 4.0842,1.20424 1.4142,0.42008 2.7351,0.85883 4.1167,1.28357 2.7259,0.87751 5.4751,1.70833 8.2009,2.61851 2.7259,0.92884 5.4564,1.85768 8.1916,2.7912 2.7305,0.94751 5.4471,1.9557 8.1776,2.93122 10.8987,3.9721 21.7461,8.28959 32.6636,12.36437 10.9174,4.05611 21.9468,7.82283 33.261,10.22663 11.2722,2.45513 22.8804,3.42132 34.2599,3.13193 2.8892,-0.14469 5.7831,-0.29406 8.6677,-0.43408 2.8332,-0.3314 5.6664,-0.66746 8.4856,-0.99886 5.6197,-0.92885 11.2021,-1.98838 16.6678,-3.54268 10.9455,-2.98724 21.5268,-7.02935 31.7021,-11.71091 10.1426,-4.76091 19.9398,-9.97924 29.4196,-15.44029 18.9643,-10.93609 36.7571,-22.55832 53.775,-33.41506 4.2568,-2.72119 8.4576,-5.40037 12.5884,-8.04688 4.1541,-2.6185 8.1589,-5.251 12.3784,-7.70147 8.3502,-4.90094 16.7939,-8.92438 25.0601,-12.30369 16.5885,-6.67461 32.4349,-10.83341 46.5776,-13.61994 14.1567,-2.82387 26.6518,-4.24281 36.9437,-5.05964 10.2967,-0.82149 18.4089,-0.95685 23.9353,-0.96151 5.5264,0.0327 8.4809,0.19603 8.4809,0.19603 l 0,0 c 0.1354,0.009 0.2567,0.0747 0.3547,0.15403 22.6284,-1.03153 42.6102,0.20538 55.5113,4.07478 -1.2835,-0.79815 -2.5064,-1.53562 -3.6547,-2.20775 -27.2072,-15.8557 -107.5079,-28.29942 -187.3138,9.15308 -83.9881,39.41288 -123.3823,90.92875 -187.2859,89.15974 -68.4964,-1.90436 -122.5701,-55.1799 -248.1742,-59.25935 -83.7173,-2.71652 -167.1593,32.8923 -159.3085,78.61106 4.3782,25.49888 29.135,30.10109 52.4914,32.29485 40.5004,3.80406 77.1968,32.89229 79.3672,61.434424 2.9172,38.231986 -15.4869,51.371168 -32.0708,57.89175 -7.1927,2.828542 -11.1508,8.4296141 -11.1508,8.4296141 L 1048.9532,115.70282 c 0,0 20.85,15.02021 14.5861,48.13188 -7.6128,40.2297 -118.20129,45.19132 -150.23942,48.76667 -8.77968,0.98019 -34.75932,7.02935 -42.76419,36.58434 -6.26387,23.12309 10.72139,49.91489 49.65817,68.09037 z"
       id="path187"
       inkscape:connector-curvature="0"
       style="opacity:0.3;fill:#272525" /><g
       transform="matrix(0,-4.6675603,4.6675603,0,-454.22061,1251.9737)"
       id="g189"
       style="opacity:0.7"><path
         d="m 293.703,350.865 c 0,0 0.199,-0.303 0.524,-0.825 0.171,-0.256 0.356,-0.588 0.579,-0.956 0.232,-0.362 0.438,-0.808 0.702,-1.265 0.271,-0.453 0.505,-0.978 0.774,-1.516 0.287,-0.531 0.528,-1.117 0.77,-1.724 0.128,-0.3 0.257,-0.604 0.388,-0.913 0.101,-0.318 0.203,-0.64 0.306,-0.964 0.106,-0.322 0.214,-0.646 0.321,-0.973 0.081,-0.331 0.139,-0.668 0.21,-1.001 0.141,-0.665 0.278,-1.327 0.365,-2.04 0.104,-0.695 0.205,-1.381 0.305,-2.044 0.205,-1.32 0.429,-2.564 0.671,-3.626 0.132,-0.533 0.249,-1.022 0.403,-1.452 0.156,-0.432 0.289,-0.804 0.463,-1.105 0.131,-0.307 0.319,-0.521 0.441,-0.663 0.119,-0.142 0.182,-0.217 0.182,-0.217 0.096,-0.114 0.267,-0.13 0.381,-0.034 0.096,0.081 0.122,0.214 0.07,0.322 l -0.031,0.067 c 0,0 -0.035,0.074 -0.101,0.213 -0.067,0.135 -0.166,0.323 -0.237,0.613 -0.1,0.266 -0.159,0.628 -0.229,1.039 -0.061,0.414 -0.119,0.895 -0.181,1.415 -0.11,1.062 -0.238,2.301 -0.377,3.628 -0.065,0.668 -0.164,1.354 -0.254,2.052 -0.064,0.689 -0.227,1.426 -0.402,2.156 -0.086,0.363 -0.159,0.731 -0.256,1.089 -0.128,0.347 -0.254,0.692 -0.38,1.034 -0.129,0.341 -0.257,0.679 -0.384,1.013 -0.154,0.318 -0.309,0.634 -0.459,0.943 -0.307,0.618 -0.612,1.207 -0.955,1.733 -0.328,0.535 -0.64,1.039 -0.969,1.476 -0.632,0.892 -1.228,1.577 -1.641,2.061 -0.431,0.475 -0.689,0.721 -0.689,0.721 -0.08,0.078 -0.209,0.076 -0.287,-0.004 -0.067,-0.068 -0.074,-0.175 -0.023,-0.253 z"
         id="path191"
         inkscape:connector-curvature="0"
         style="fill:#ffffff" /></g><g
       transform="matrix(0,-4.6675603,4.6675603,0,-454.22061,1251.9737)"
       id="g193"
       style="opacity:0.7"><path
         d="m 269.562,349.043 c 0,0 0.046,0.125 0.127,0.345 0.038,0.11 0.085,0.245 0.138,0.399 0.057,0.121 0.121,0.257 0.191,0.406 0.059,0.148 0.164,0.317 0.261,0.499 0.093,0.185 0.211,0.37 0.343,0.557 0.247,0.385 0.572,0.758 0.901,1.138 0.335,0.374 0.706,0.725 1.075,1.033 0.371,0.307 0.737,0.572 1.045,0.821 0.62,0.484 1.04,0.869 1.04,0.869 l -0.025,0.068 c 0,0 -0.589,0.018 -1.378,-0.266 -0.789,-0.278 -1.766,-0.833 -2.67,-1.529 -0.453,-0.349 -0.876,-0.746 -1.23,-1.163 -0.369,-0.411 -0.667,-0.816 -0.899,-1.229 -0.113,-0.208 -0.217,-0.398 -0.309,-0.567 -0.063,-0.15 -0.119,-0.281 -0.165,-0.389 -0.088,-0.217 -0.138,-0.341 -0.138,-0.341 l 1.693,-0.651 z"
         id="path195"
         inkscape:connector-curvature="0"
         style="fill:#ffffff" /></g><g
       transform="matrix(0,-4.6675603,4.6675603,0,-454.22061,1251.9737)"
       id="g197"
       style="opacity:0.7"><path
         d="m 227.871,326.691 c 0.005,-0.013 -0.167,-0.008 -0.435,-0.144 -0.139,-0.061 -0.312,-0.146 -0.516,-0.259 -0.182,-0.121 -0.374,-0.281 -0.603,-0.455 -0.479,-0.339 -0.884,-0.876 -1.378,-1.49 -0.495,-0.615 -0.838,-1.414 -1.319,-2.24 -0.254,-0.409 -0.401,-0.877 -0.601,-1.345 -0.187,-0.473 -0.38,-0.961 -0.579,-1.463 -0.096,-0.252 -0.193,-0.508 -0.292,-0.767 -0.075,-0.266 -0.151,-0.533 -0.228,-0.804 -0.152,-0.542 -0.307,-1.097 -0.464,-1.66 -0.151,-0.563 -0.305,-1.138 -0.46,-1.719 -0.113,-0.588 -0.227,-1.184 -0.342,-1.784 -0.231,-1.206 -0.483,-2.4 -0.704,-3.648 -0.179,-1.217 -0.359,-2.434 -0.536,-3.632 -0.114,-1.22 -0.258,-2.424 -0.336,-3.583 -0.07,-1.156 -0.138,-2.28 -0.168,-3.33 -0.026,-1.062 -0.106,-2.036 -0.151,-2.944 -0.013,-0.457 -0.114,-0.869 -0.161,-1.276 -0.07,-0.401 -0.087,-0.798 -0.203,-1.14 -0.213,-0.689 -0.3,-1.337 -0.544,-1.806 -0.412,-0.969 -0.639,-1.545 -0.639,-1.545 l 0.262,-0.16 c 0,0 0.338,0.516 0.917,1.459 0.161,0.229 0.283,0.507 0.397,0.821 0.124,0.312 0.256,0.648 0.399,1.008 0.171,0.356 0.219,0.765 0.321,1.186 0.08,0.423 0.216,0.87 0.262,1.335 0.265,1.869 0.353,4.02 0.524,6.303 0.09,1.141 0.224,2.305 0.334,3.495 0.176,1.198 0.355,2.414 0.534,3.631 0.227,1.171 0.518,2.376 0.769,3.543 0.132,0.585 0.264,1.165 0.394,1.738 0.173,0.56 0.344,1.112 0.512,1.655 0.165,0.544 0.327,1.079 0.485,1.603 0.078,0.262 0.155,0.521 0.232,0.776 0.098,0.247 0.195,0.49 0.291,0.73 0.404,0.948 0.685,1.899 1.077,2.701 0.408,0.788 0.716,1.566 1.087,2.178 0.372,0.607 0.617,1.218 0.919,1.629 0.132,0.227 0.261,0.424 0.359,0.613 0.118,0.166 0.218,0.307 0.299,0.421 0.162,0.254 0.284,0.369 0.285,0.369 z"
         id="path199"
         inkscape:connector-curvature="0"
         style="fill:#ffffff" /></g><g
       transform="matrix(0,-4.6675603,4.6675603,0,-454.22061,1251.9737)"
       id="g201"><path
         d="m 218.826,281.688 c 0.42,-0.309 0.709,-0.449 0.434,-1.131 -0.26,-0.644 -2.119,-1.414 -2.595,-1.602 l 0.002,-0.006 c 0,0 -0.023,-0.007 -0.058,-0.016 -0.032,-0.014 -0.055,-0.021 -0.055,-0.021 l -0.002,0.004 c -0.492,-0.137 -2.439,-0.648 -3.036,-0.293 -0.631,0.376 -0.486,0.664 -0.338,1.162 0.182,0.613 0.831,1.756 0.831,1.756 l 1.49,0.502 0.113,0.037 1.49,0.502 c 0.001,0 1.209,-0.518 1.724,-0.894 z"
         id="path203"
         inkscape:connector-curvature="0"
         style="fill:#e6e6e7" /><rect
         height="3.267"
         transform="matrix(-0.3194,0.9476,-0.9476,-0.3194,551.8381,168.3631)"
         width="0.59200001"
         x="215.16499"
         y="280.70901"
         id="rect205"
         style="fill:#bbbcbf" /><path
         d="m 212.317,283.568 c 0.855,-0.051 1.701,0.031 2.524,0.254 0.924,0.25 1.738,0.585 2.46,0.976 0.034,-0.445 0.093,-1.372 -0.146,-1.54 -0.467,-0.329 -1.617,-0.7 -1.753,-0.743 -0.135,-0.048 -1.273,-0.447 -1.845,-0.468 -0.352,-0.014 -0.923,0.945 -1.24,1.521 z"
         id="path207"
         inkscape:connector-curvature="0"
         style="fill:#d0d1d3" /></g><path
       d="m 1922.2397,70.119427 c 1.8017,1.638313 2.7119,2.828541 5.5731,0.938179 2.7025,-1.787675 4.5042,-11.006107 4.9243,-13.35389 l 0.028,0 c 0,0 0.01,-0.112021 0.019,-0.280053 0.028,-0.158697 0.051,-0.275386 0.051,-0.275386 l -0.023,-0.0047 c 0.1727,-2.380456 0.7048,-11.757584 -1.4702,-14.161378 -2.3058,-2.539153 -3.4867,-1.610308 -5.6338,-0.471423 -2.6278,1.404935 -7.2627,5.428372 -7.2627,5.428372 l -0.9102,7.281394 -0.07,0.55544 -0.9148,7.281394 c 0,0.0093 3.482,5.054968 5.6897,7.062019 z"
       id="path209"
       inkscape:connector-curvature="0"
       style="fill:#e6e6e7" /><path
       d="m 1915.1263,62.894043 1.419,0.182035 1.895,-15.13223 -1.2135,-0.15403 c -0.6488,5.064303 -1.3536,10.100601 -2.1005,15.104225 z"
       id="path211"
       inkscape:connector-curvature="0"
       style="fill:#bbbcbf" /><g
       transform="matrix(0,-4.6675603,4.6675603,0,-454.22061,1251.9737)"
       id="g213"><circle
         cx="316.50601"
         cy="466.638"
         r="3.2939999"
         id="circle215"
         style="fill:#808183" /><circle
         cx="316.616"
         cy="466.51801"
         r="3.2550001"
         id="circle217"
         style="fill:#bbbcbf" /><polygon
         points="315.146,468.953 313.776,466.554 315.192,464.119 318.014,464.129 319.348,466.591 317.953,468.971 "
         id="polygon219"
         style="fill:#a6a8aa" /><polygon
         points="315.224,468.904 313.853,466.504 315.246,464.117 318.01,464.131 319.38,466.531 317.986,468.917 "
         id="polygon221"
         style="fill:#d0d1d3" /><circle
         cx="316.616"
         cy="466.51801"
         r="1.268"
         id="circle223"
         style="fill:#272525" /></g><g
       transform="matrix(0,-4.6675603,4.6675603,0,-454.22061,1251.9737)"
       id="g225"><path
         d="m 238.821,476.485 0,15.122 34.706,0 0,-15.122 c 0,-1.345 -1.1,-2.444 -2.444,-2.444 l -29.818,0 c -1.344,0 -2.444,1.1 -2.444,2.444 z"
         id="path227"
         inkscape:connector-curvature="0"
         style="fill:#e0e0e0" /><rect
         height="0.477"
         width="34.706001"
         x="238.821"
         y="491.60699"
         id="rect229"
         style="fill:#898988" /><path
         d="m 241.103,494.26 c 2.236,0 28.138,0 30.138,0 2.494,0 2.281,-1.379 2.281,-2.176 l -34.701,0 c 0,0.797 -0.212,2.176 2.282,2.176 z"
         id="path231"
         inkscape:connector-curvature="0"
         style="fill:#59595b" /><g
         id="g233"><path
           d="m 244.252,477.625 -0.35,17.716 c -0.008,0.403 0.315,0.733 0.719,0.733 l 0.488,0 c 0.403,0 0.727,-0.33 0.719,-0.733 l -0.35,-17.716 -1.226,0 z"
           id="path235"
           inkscape:connector-curvature="0"
           style="fill:#6d6e70" /><path
           d="m 244.622,496.074 0.244,0 0,-18.449 -0.613,0 -0.35,17.716 c -0.008,0.403 0.315,0.733 0.719,0.733 z"
           id="path237"
           inkscape:connector-curvature="0"
           style="fill:#a6a8aa" /></g><g
         id="g239"><path
           d="m 252.504,477.625 -0.35,17.716 c -0.008,0.403 0.315,0.733 0.719,0.733 l 0.489,0 c 0.403,0 0.727,-0.33 0.719,-0.733 l -0.351,-17.716 -1.226,0 z"
           id="path241"
           inkscape:connector-curvature="0"
           style="fill:#6d6e70" /><path
           d="m 252.873,496.074 0.245,0 0,-18.449 -0.613,0 -0.35,17.716 c -0.009,0.403 0.314,0.733 0.718,0.733 z"
           id="path243"
           inkscape:connector-curvature="0"
           style="fill:#a6a8aa" /></g><g
         id="g245"><path
           d="m 258.234,477.625 -0.351,17.716 c -0.007,0.403 0.315,0.733 0.719,0.733 l 0.489,0 c 0.403,0 0.727,-0.33 0.719,-0.733 l -0.351,-17.716 -1.225,0 z"
           id="path247"
           inkscape:connector-curvature="0"
           style="fill:#6d6e70" /><path
           d="m 258.603,496.074 0.244,0 0,-18.449 -0.612,0 -0.351,17.716 c -0.007,0.403 0.315,0.733 0.719,0.733 z"
           id="path249"
           inkscape:connector-curvature="0"
           style="fill:#a6a8aa" /></g><g
         id="g251"><path
           d="m 266.653,477.625 -0.35,17.716 c -0.008,0.403 0.315,0.733 0.719,0.733 l 0.489,0 c 0.403,0 0.726,-0.33 0.719,-0.733 l -0.351,-17.716 -1.226,0 z"
           id="path253"
           inkscape:connector-curvature="0"
           style="fill:#6d6e70" /><path
           d="m 267.022,496.074 0.244,0 0,-18.449 -0.613,0 -0.35,17.716 c -0.007,0.403 0.316,0.733 0.719,0.733 z"
           id="path255"
           inkscape:connector-curvature="0"
           style="fill:#a6a8aa" /></g><path
         d="m 271.241,494.26 c -2,0 -27.902,0 -30.138,0 -1.833,0 -2.204,-0.745 -2.272,-1.456 l -0.01,0 c 0,0.796 -0.212,2.176 2.282,2.176 2.236,0 28.138,0 30.138,0 2.494,0 2.281,-1.38 2.281,-2.176 l -0.01,0 c -0.067,0.711 -0.438,1.456 -2.271,1.456 z"
         id="path257"
         inkscape:connector-curvature="0"
         style="fill:#d7d7d7" /><g
         id="g259"><rect
           height="3.1129999"
           width="8.3769999"
           x="239.272"
           y="485.547"
           id="rect261"
           style="fill:#f1f1f2" /><rect
           height="1.557"
           width="8.3769999"
           x="239.272"
           y="487.104"
           id="rect263"
           style="fill:#bbbcbf" /><circle
           cx="240.302"
           cy="487.104"
           r="0.59500003"
           id="circle265"
           style="fill:#a6a8aa" /><circle
           cx="246.619"
           cy="487.104"
           r="0.59500003"
           id="circle267"
           style="fill:#a6a8aa" /><rect
           height="0.27399999"
           width="4.349"
           x="241.286"
           y="486.96701"
           id="rect269"
           style="fill:#434244" /></g><g
         id="g271"><rect
           height="3.1129999"
           width="8.3769999"
           x="247.717"
           y="484.677"
           id="rect273"
           style="fill:#f1f1f2" /><rect
           height="1.557"
           width="8.3769999"
           x="247.717"
           y="486.233"
           id="rect275"
           style="fill:#bbbcbf" /><circle
           cx="248.74699"
           cy="486.233"
           r="0.59500003"
           id="circle277"
           style="fill:#a6a8aa" /><circle
           cx="255.064"
           cy="486.233"
           r="0.59500003"
           id="circle279"
           style="fill:#a6a8aa" /><rect
           height="0.27500001"
           width="4.349"
           x="249.731"
           y="486.09601"
           id="rect281"
           style="fill:#434244" /></g><g
         id="g283"><rect
           height="3.112"
           width="8.3769999"
           x="256.16101"
           y="483.29901"
           id="rect285"
           style="fill:#f1f1f2" /><rect
           height="1.556"
           width="8.3769999"
           x="256.16101"
           y="484.85501"
           id="rect287"
           style="fill:#bbbcbf" /><circle
           cx="257.19101"
           cy="484.854"
           r="0.59500003"
           id="circle289"
           style="fill:#a6a8aa" /><circle
           cx="263.509"
           cy="484.854"
           r="0.59500003"
           id="circle291"
           style="fill:#a6a8aa" /><rect
           height="0.27500001"
           width="4.3499999"
           x="258.17499"
           y="484.71701"
           id="rect293"
           style="fill:#434244" /></g><g
         id="g295"><rect
           height="3.112"
           width="8.3769999"
           x="264.548"
           y="482.035"
           id="rect297"
           style="fill:#f1f1f2" /><rect
           height="1.556"
           width="8.3769999"
           x="264.548"
           y="483.59201"
           id="rect299"
           style="fill:#bbbcbf" /><circle
           cx="265.577"
           cy="483.591"
           r="0.59500003"
           id="circle301"
           style="fill:#a6a8aa" /><circle
           cx="271.89499"
           cy="483.591"
           r="0.59500003"
           id="circle303"
           style="fill:#a6a8aa" /><rect
           height="0.27500001"
           width="4.349"
           x="266.56201"
           y="483.453"
           id="rect305"
           style="fill:#434244" /></g></g><path
       style="fill:#2d1912"
       inkscape:connector-curvature="0"
       id="path309"
       d="m -8.8093333,98.437515 c 0,0 1227.4983333,25.298175 1238.7845333,24.430015 13.3865,-1.02687 17.0412,-13.51259 17.9374,-19.21635 0.6395,-4.060778 4.5135,-29.470976 4.4902,-44.971944 -0.028,-15.4963 -3.6734,-47.833158 -6.1192,-53.1495088 -2.4458,-5.31635113 -6.5252,-11.8602707 -17.1299,-12.6770937 -10.6,-0.8214906 -556.97065,10.6327023 -556.97065,10.6327023 L -8.8093333,98.437515 Z" /><path
       style="fill:#412d26"
       inkscape:connector-curvature="0"
       id="path311"
       d="m -14.527095,102.39094 c 0,0 4.8215902,-4.289489 14.16604589,-4.107454 C 137.12194,100.94399 1217.2467,121.82199 1227.7768,121.01917 c 13.3305,-1.01753 16.9759,-13.4239 17.8674,-19.08565 0.6301,-4.032774 4.4902,-29.279608 4.4668,-44.673222 -0.028,-15.393614 -3.6547,-47.5204314 -6.0958,-52.7994421 -2.4318,-5.27901066 -6.4972,-11.7762546 -17.0553,-12.5837425 C 1216.3972,-8.9397097 -15.040526,15.504304 -15.040526,15.504304 l 0.513431,86.886636 z" /><path
       style="fill:#3a2924"
       inkscape:connector-curvature="0"
       id="path313"
       d="m 1246.9651,92.892453 -1268.918283,0 0,5.050301 1267.335983,0 c 0.4621,-1.423606 1.0035,-3.127266 1.5823,-5.050301 z" /><path
       style="fill:#3a2924"
       inkscape:connector-curvature="0"
       id="path315"
       d="m 1249.3736,46.286864 -1272.129603,0 0,5.0503 1272.722303,0 c -0.1493,-1.600973 -0.35,-3.295298 -0.5927,-5.0503 z" /><path
       style="fill:#53372e"
       inkscape:connector-curvature="0"
       id="path317"
       d="m 1250.013,62.030545 -1270.416553,0 0,2.856547 1270.113153,0 c 0.1214,-0.970853 0.2194,-1.923035 0.3034,-2.856547 z" /><path
       style="fill:#53372e"
       inkscape:connector-curvature="0"
       id="path319"
       d="m 1246.9978,22.505644 -1266.477176,0 0,2.856547 1267.251976,0 c -0.2521,-0.970853 -0.5135,-1.918367 -0.7748,-2.856547 z" /><path
       style="fill:#46322d"
       inkscape:connector-curvature="0"
       id="path321"
       d="m 1248.0853,84.187453 -1267.013904,0 0,3.23462 1266.141104,0 c 0.2894,-1.050201 0.5788,-2.128408 0.8728,-3.23462 z" /><circle
       style="fill:#e8e8e8"
       id="circle323"
       r="6.6419382"
       cy="868.79944"
       cx="-85.396355"
       transform="matrix(0,-1,1,0,0,0)" /><circle
       style="fill:#e8e8e8"
       id="circle325"
       r="6.6419382"
       cy="868.79944"
       cx="-27.495207"
       transform="matrix(0,-1,1,0,0,0)" /><circle
       style="fill:#e8e8e8"
       id="circle327"
       r="6.6372709"
       cy="696.04364"
       cx="-56.448097"
       transform="matrix(0,-1,1,0,0,0)" /><circle
       style="fill:#e8e8e8"
       id="circle329"
       r="6.6372709"
       cy="1014.2405"
       cx="-56.448097"
       transform="matrix(0,-1,1,0,0,0)" /><circle
       style="fill:#e8e8e8"
       id="circle331"
       r="6.6372709"
       cy="1097.3418"
       cx="-56.448097"
       transform="matrix(0,-1,1,0,0,0)" /><circle
       style="fill:#e8e8e8"
       id="circle333"
       r="6.6372709"
       cy="1172.1068"
       cx="-56.448097"
       transform="matrix(0,-1,1,0,0,0)" /><g
       id="g335"
       transform="matrix(0,-4.6675603,4.6675603,0,-454.22061,1251.9737)"><path
         style="fill:#bbbcbf"
         inkscape:connector-curvature="0"
         id="path337"
         d="m 243.146,309.361 c -0.006,0.319 -0.012,0.639 -0.018,0.957 l 25.987,0 c -0.006,-0.318 -0.013,-0.638 -0.018,-0.957 l -25.951,0 z" /><path
         style="fill:#bbbcbf"
         inkscape:connector-curvature="0"
         id="path339"
         d="m 243.331,299.316 c -0.006,0.319 -0.012,0.639 -0.018,0.957 l 25.613,0 c -0.006,-0.318 -0.012,-0.639 -0.018,-0.957 l -25.577,0 z" /><path
         style="fill:#bbbcbf"
         inkscape:connector-curvature="0"
         id="path341"
         d="m 243.526,288.74 c -0.006,0.32 -0.012,0.639 -0.018,0.957 l 25.218,0 c -0.006,-0.318 -0.013,-0.637 -0.019,-0.957 l -25.181,0 z" /><path
         style="fill:#bbbcbf"
         inkscape:connector-curvature="0"
         id="path343"
         d="m 243.735,277.512 c -0.006,0.318 -0.012,0.639 -0.018,0.957 l 24.794,0 c -0.006,-0.318 -0.012,-0.639 -0.019,-0.957 l -24.757,0 z" /><path
         style="fill:#bbbcbf"
         inkscape:connector-curvature="0"
         id="path345"
         d="m 242.974,318.875 c -0.006,0.32 -0.012,0.639 -0.017,0.957 l 26.337,0 c -0.007,-0.318 -0.013,-0.637 -0.019,-0.957 l -26.301,0 z" /><path
         style="fill:#bbbcbf"
         inkscape:connector-curvature="0"
         id="path347"
         d="m 269.976,359.889 c 0,-0.213 -0.003,-0.534 -0.007,-0.957 l -27.666,0 c -0.004,0.401 -0.006,0.722 -0.006,0.957 l 27.679,0 z" /><path
         style="fill:#bbbcbf"
         inkscape:connector-curvature="0"
         id="path349"
         d="m 242.402,351.867 c -0.005,0.328 -0.01,0.646 -0.015,0.957 l 27.495,0 c -0.005,-0.311 -0.011,-0.628 -0.016,-0.957 l -27.464,0 z" /><path
         style="fill:#bbbcbf"
         inkscape:connector-curvature="0"
         id="path351"
         d="m 242.526,344.313 c -0.006,0.323 -0.011,0.642 -0.017,0.957 l 27.245,0 c -0.006,-0.315 -0.011,-0.634 -0.016,-0.957 l -27.212,0 z" /><path
         style="fill:#bbbcbf"
         inkscape:connector-curvature="0"
         id="path353"
         d="m 242.813,327.816 c -0.005,0.321 -0.011,0.641 -0.017,0.958 l 26.662,0 c -0.006,-0.317 -0.011,-0.637 -0.017,-0.958 l -26.628,0 z" /><path
         style="fill:#bbbcbf"
         inkscape:connector-curvature="0"
         id="path355"
         d="m 242.665,336.229 c -0.005,0.322 -0.011,0.641 -0.017,0.957 l 26.963,0 c -0.006,-0.316 -0.012,-0.635 -0.017,-0.957 l -26.929,0 z" /><path
         style="fill:#bbbcbf"
         inkscape:connector-curvature="0"
         id="path357"
         d="m 244.198,252.788 c -0.005,0.319 -0.012,0.639 -0.018,0.957 l 23.856,0 c -0.006,-0.318 -0.012,-0.638 -0.018,-0.957 l -23.82,0 z" /><path
         style="fill:#bbbcbf"
         inkscape:connector-curvature="0"
         id="path359"
         d="m 246.341,140.331 c -0.006,0.318 -0.013,0.637 -0.019,0.957 l 19.519,0 c -0.006,-0.32 -0.013,-0.639 -0.019,-0.957 l -19.481,0 z" /><path
         style="fill:#bbbcbf"
         inkscape:connector-curvature="0"
         id="path361"
         d="m 245.633,177.241 c -0.006,0.318 -0.012,0.637 -0.019,0.956 l 20.951,0 c -0.006,-0.319 -0.013,-0.638 -0.019,-0.956 l -20.913,0 z" /><path
         style="fill:#bbbcbf"
         inkscape:connector-curvature="0"
         id="path363"
         d="m 245.976,159.313 c -0.006,0.317 -0.012,0.637 -0.018,0.957 l 20.256,0 c -0.006,-0.32 -0.013,-0.64 -0.019,-0.957 l -20.219,0 z" /><path
         style="fill:#bbbcbf"
         inkscape:connector-curvature="0"
         id="path365"
         d="m 246.728,120.233 c -0.006,0.317 -0.012,0.637 -0.019,0.957 l 18.735,0 c -0.007,-0.32 -0.013,-0.64 -0.019,-0.957 l -18.697,0 z" /><path
         style="fill:#bbbcbf"
         inkscape:connector-curvature="0"
         id="path367"
         d="m 243.96,265.466 c -0.006,0.319 -0.012,0.638 -0.018,0.957 l 24.338,0 c -0.006,-0.319 -0.012,-0.638 -0.018,-0.957 l -24.302,0 z" /><path
         style="fill:#bbbcbf"
         inkscape:connector-curvature="0"
         id="path369"
         d="m 245.311,194.112 c -0.006,0.319 -0.012,0.638 -0.019,0.957 l 21.604,0 c -0.007,-0.319 -0.013,-0.638 -0.02,-0.957 l -21.565,0 z" /><path
         style="fill:#bbbcbf"
         inkscape:connector-curvature="0"
         id="path371"
         d="m 244.72,225.16 c -0.006,0.319 -0.012,0.638 -0.019,0.956 l 22.799,0 c -0.006,-0.318 -0.012,-0.637 -0.019,-0.956 l -22.761,0 z" /><path
         style="fill:#bbbcbf"
         inkscape:connector-curvature="0"
         id="path373"
         d="m 244.451,239.401 c -0.006,0.319 -0.012,0.639 -0.018,0.957 l 23.345,0 c -0.006,-0.318 -0.012,-0.638 -0.018,-0.957 l -23.309,0 z" /><path
         style="fill:#bbbcbf"
         inkscape:connector-curvature="0"
         id="path375"
         d="m 245.004,210.183 c -0.006,0.318 -0.012,0.638 -0.019,0.957 l 22.223,0 c -0.006,-0.319 -0.012,-0.639 -0.018,-0.957 l -22.186,0 z" /></g><g
       id="g377"
       transform="matrix(0,-4.6675603,4.6675603,0,-454.22061,1251.9737)"><path
         style="fill:#ededed"
         inkscape:connector-curvature="0"
         id="path379"
         d="m 242.978,318.676 c -0.006,0.32 -0.012,0.639 -0.018,0.957 l 26.33,0 c -0.006,-0.318 -0.012,-0.637 -0.018,-0.957 l -26.294,0 z" /><path
         style="fill:#ededed"
         inkscape:connector-curvature="0"
         id="path381"
         d="m 243.15,309.161 c -0.006,0.32 -0.011,0.64 -0.017,0.957 l 25.979,0 c -0.006,-0.317 -0.013,-0.636 -0.018,-0.957 l -25.944,0 z" /><path
         style="fill:#ededed"
         inkscape:connector-curvature="0"
         id="path383"
         d="m 243.334,299.116 c -0.006,0.319 -0.012,0.639 -0.018,0.957 l 25.606,0 c -0.006,-0.317 -0.012,-0.638 -0.019,-0.957 l -25.569,0 z" /><path
         style="fill:#ededed"
         inkscape:connector-curvature="0"
         id="path385"
         d="m 243.53,288.541 c -0.006,0.319 -0.012,0.639 -0.018,0.957 l 25.21,0 c -0.006,-0.318 -0.013,-0.638 -0.019,-0.957 l -25.173,0 z" /><path
         style="fill:#ededed"
         inkscape:connector-curvature="0"
         id="path387"
         d="m 242.668,336.029 c -0.005,0.322 -0.011,0.641 -0.017,0.957 l 26.956,0 c -0.006,-0.316 -0.012,-0.636 -0.017,-0.957 l -26.922,0 z" /><path
         style="fill:#ededed"
         inkscape:connector-curvature="0"
         id="path389"
         d="m 269.974,359.689 c -10e-4,-0.238 -0.004,-0.557 -0.008,-0.957 l -27.661,0 c -0.004,0.385 -0.006,0.705 -0.007,0.957 l 27.676,0 z" /><path
         style="fill:#ededed"
         inkscape:connector-curvature="0"
         id="path391"
         d="m 243.738,277.312 c -0.006,0.319 -0.011,0.639 -0.018,0.957 l 24.787,0 c -0.006,-0.318 -0.012,-0.638 -0.019,-0.957 l -24.75,0 z" /><path
         style="fill:#ededed"
         inkscape:connector-curvature="0"
         id="path393"
         d="m 242.405,351.668 c -0.005,0.328 -0.01,0.646 -0.015,0.957 l 27.489,0 c -0.006,-0.31 -0.011,-0.629 -0.016,-0.957 l -27.458,0 z" /><path
         style="fill:#ededed"
         inkscape:connector-curvature="0"
         id="path395"
         d="m 242.529,344.114 c -0.006,0.323 -0.011,0.642 -0.017,0.956 l 27.237,0 c -0.005,-0.314 -0.01,-0.633 -0.016,-0.956 l -27.204,0 z" /><path
         style="fill:#ededed"
         inkscape:connector-curvature="0"
         id="path397"
         d="m 242.817,327.617 c -0.006,0.321 -0.012,0.641 -0.017,0.957 l 26.655,0 c -0.006,-0.316 -0.012,-0.636 -0.018,-0.957 l -26.62,0 z" /><path
         style="fill:#ededed"
         inkscape:connector-curvature="0"
         id="path399"
         d="m 245.98,159.112 c -0.006,0.318 -0.012,0.638 -0.019,0.957 l 20.249,0 c -0.006,-0.319 -0.012,-0.639 -0.019,-0.957 l -20.211,0 z" /><path
         style="fill:#ededed"
         inkscape:connector-curvature="0"
         id="path401"
         d="m 245.636,177.041 c -0.006,0.318 -0.012,0.639 -0.018,0.957 l 20.943,0 c -0.006,-0.319 -0.013,-0.639 -0.019,-0.957 l -20.906,0 z" /><path
         style="fill:#ededed"
         inkscape:connector-curvature="0"
         id="path403"
         d="m 246.345,140.132 c -0.006,0.318 -0.013,0.636 -0.019,0.957 l 19.511,0 c -0.006,-0.32 -0.012,-0.64 -0.019,-0.957 l -19.473,0 z" /><path
         style="fill:#ededed"
         inkscape:connector-curvature="0"
         id="path405"
         d="m 243.964,265.267 c -0.006,0.319 -0.012,0.638 -0.018,0.956 l 24.332,0 c -0.007,-0.318 -0.013,-0.637 -0.019,-0.956 l -24.295,0 z" /><path
         style="fill:#ededed"
         inkscape:connector-curvature="0"
         id="path407"
         d="m 246.731,120.034 c -0.006,0.316 -0.012,0.636 -0.018,0.957 l 18.728,0 c -0.007,-0.321 -0.013,-0.641 -0.019,-0.957 l -18.691,0 z" /><path
         style="fill:#ededed"
         inkscape:connector-curvature="0"
         id="path409"
         d="m 245.314,193.913 c -0.006,0.318 -0.012,0.638 -0.018,0.956 l 21.597,0 c -0.007,-0.318 -0.013,-0.638 -0.02,-0.956 l -21.559,0 z" /><path
         style="fill:#ededed"
         inkscape:connector-curvature="0"
         id="path411"
         d="m 245.008,209.982 c -0.006,0.319 -0.012,0.638 -0.018,0.958 l 22.216,0 c -0.006,-0.32 -0.012,-0.639 -0.019,-0.958 l -22.179,0 z" /><path
         style="fill:#ededed"
         inkscape:connector-curvature="0"
         id="path413"
         d="m 244.455,239.202 c -0.006,0.319 -0.012,0.639 -0.019,0.957 l 23.337,0 c -0.006,-0.318 -0.012,-0.638 -0.018,-0.957 l -23.3,0 z" /><path
         style="fill:#ededed"
         inkscape:connector-curvature="0"
         id="path415"
         d="m 244.202,252.589 c -0.006,0.318 -0.012,0.639 -0.018,0.957 l 23.848,0 c -0.006,-0.318 -0.012,-0.639 -0.018,-0.957 l -23.812,0 z" /><path
         style="fill:#ededed"
         inkscape:connector-curvature="0"
         id="path417"
         d="m 244.724,224.96 c -0.006,0.319 -0.012,0.639 -0.018,0.958 l 22.792,0 c -0.006,-0.319 -0.012,-0.639 -0.019,-0.958 l -22.755,0 z" /></g><path
       style="fill:#bbbcbf"
       inkscape:connector-curvature="0"
       id="path419"
       d="m 8.6006667,15.028212 c -1.5589652,0.03267 -3.0479169,0.06068 -4.4668552,0.09335 l 0,83.250605 c 1.4189383,0.02801 2.9032225,0.05601 4.4668552,0.08868 l 0,-83.432641 z" /><path
       style="fill:#ffffff"
       inkscape:connector-curvature="0"
       id="path421"
       d="m 7.6718222,15.046883 c -2.4598043,0.05134 -4.7375737,0.09335 -6.81463807,0.130691 l 0,83.129249 c 2.07239677,0.03734 4.35483377,0.08402 6.81463807,0.130692 l 0,-83.390632 z" /><circle
       style="fill:#e8e8e8"
       id="circle423"
       r="6.6372709"
       cy="563.56421"
       cx="-56.448097"
       transform="matrix(0,-1,1,0,0,0)" /><circle
       style="fill:#e8e8e8"
       id="circle425"
       r="6.6372709"
       cy="414.14169"
       cx="-56.452797"
       transform="matrix(0,-1,1,0,0,0)" /><circle
       style="fill:#e8e8e8"
       id="circle427"
       r="6.6372709"
       cy="246.42216"
       cx="-56.452797"
       transform="matrix(0,-1,1,0,0,0)" /><path
       style="fill:#cca871"
       inkscape:connector-curvature="0"
       id="path429"
       d="m -67.531909,160.21734 c 11.533541,2.18909 39.263517,-4.10745 42.712844,-22.68901 4.070113,-21.89552 7.449426,-33.96583 7.449426,-33.96583 L -46.919963,15.168239 c 0,0 -21.228064,-16.2711149 -30.95526,-31.141962 -9.727196,-14.875515 -10.333979,-24.798748 -10.333979,-24.798748 l -11.692238,-0.560107 -143.49014,39.3755385 c 0,0 -51.62788,0.4387507 -58.64789,0.2940563 -12.23368,-0.2427131 -11.91629,-4.2614825 -29.45231,-23.3191308 C -349.02314,-44.039763 -376.5384,-42.6675 -376.5384,-42.6675 l 66.40538,50.7177098 c 0,0 235.571765,150.8322102 242.601111,152.1671302 z" /><path
       style="fill:#e8be80"
       inkscape:connector-curvature="0"
       id="path431"
       d="m -14.527095,102.56364 c 0,0 -14.796166,11.30483 -17.84875,31.30066 -3.04325,19.99583 -16.943244,29.48498 -39.986989,25.41953 -23.048413,-4.07011 -283.558956,-59.856792 -334.510046,-70.158098 -42.14807,-8.518297 -54.8625,-52.589402 -48.29058,-84.3008064 4.03744,-19.4730616 29.03223,-45.1166376 55.40394,-48.2112306 31.61339,-3.715378 50.38632,8.387606 60.67362,20.672625 10.9921,13.1391821 13.98401,19.9958282 44.3885,19.9911606 25.34018,0 39.02547,-5.6057399 76.93539,-19.9911606 44.82725,-17.003922 122.010031,-18.973633 122.010031,-18.973633 0,0 -0.812155,4.060778 6.207855,18.623566 7.020011,14.5581204 29.662346,36.96241 55.259247,38.236654 7.015343,0.354734 19.538407,0.07468 19.538407,0.07468 l 0.219375,87.316053 z" /><circle
       style="fill:#e6e6e7"
       id="circle441"
       r="22.31094"
       cy="-75.116692"
       cx="-102.07824"
       transform="matrix(0,-1,1,0,0,0)" /><circle
       style="fill:#e6e6e7"
       id="circle443"
       r="22.31094"
       cy="-170.67099"
       cx="-82.143036"
       transform="matrix(0,-1,1,0,0,0)" /><circle
       style="fill:#e6e6e7"
       id="circle445"
       r="22.31094"
       cy="-265.94989"
       cx="-62.091248"
       transform="matrix(0,-1,1,0,0,0)" /><circle
       style="fill:#e6e6e7"
       id="circle447"
       r="22.31094"
       cy="-361.04678"
       cx="-42.832859"
       transform="matrix(0,-1,1,0,0,0)" /><circle
       style="fill:#6d6e70"
       id="circle449"
       r="18.077461"
       cy="-76.535637"
       cx="-102.48428"
       transform="matrix(0,-1,1,0,0,0)" /><circle
       style="fill:#6d6e70"
       id="circle451"
       r="18.077461"
       cy="-172.08994"
       cx="-82.544441"
       transform="matrix(0,-1,1,0,0,0)" /><circle
       style="fill:#6d6e70"
       id="circle453"
       r="18.077461"
       cy="-267.36417"
       cx="-62.492649"
       transform="matrix(0,-1,1,0,0,0)" /><circle
       style="fill:#6d6e70"
       id="circle455"
       r="18.077461"
       cy="-362.46103"
       cx="-43.234264"
       transform="matrix(0,-1,1,0,0,0)" /><path
       style="fill:#bbbcbf"
       d="m 1839.9948,-0.15817317 0.032,2.52489747 -2203.49738,25.6679867 -0.0318,-2.524898 z"
       id="rect457"
       inkscape:connector-curvature="0"
       sodipodi:nodetypes="ccccc" /><g
       id="g6510"><g
         id="g3602"><path
           style="fill:#bbbcbf"
           d="m -270.63108,47.450302 0,-4.182134 2111.07648,-8.020926 0,4.182134 z"
           id="rect459"
           inkscape:connector-curvature="0"
           sodipodi:nodetypes="ccccc" /></g></g><path
       style="fill:#bbbcbf"
       d="m -172.87641,69.535233 0,-5.054967 2013.31721,10.130262 0,5.054967 z"
       id="rect461"
       inkscape:connector-curvature="0"
       sodipodi:nodetypes="ccccc" /><path
       transform="matrix(-0.01539971,0.99988142,-0.99988142,-0.01539971,0,0)"
       style="fill:#bbbcbf"
       d="m 79.41405,-1841.8884 6.805429,0 6.507703,1923.418429 -6.805429,0 z"
       id="rect463"
       inkscape:connector-curvature="0"
       sodipodi:nodetypes="ccccc" /><g
       id="g465"
       transform="matrix(0,-4.6675603,4.6675603,0,-454.22061,1251.9737)"><path
         style="fill:#a6a8aa"
         inkscape:connector-curvature="0"
         id="path467"
         d="m 229.055,65.964 c -3.767,-0.616 -5.008,3.59 -5.008,3.59 0,0 -3.213,0.517 -3.83,3.484 -0.617,2.968 2.125,4.721 2.125,4.721 0,0 -0.539,4.354 3.163,5.288 4.125,1.042 4.731,-2.384 6.157,-3.929 1.158,-1.255 3.176,-1.019 3.176,-1.019 l 0.799,-3.883 c 0,0 -1.938,-0.583 -2.5,-2.196 -0.692,-1.984 0.116,-5.368 -4.082,-6.056 z" /><path
         style="fill:#c1c1c1"
         inkscape:connector-curvature="0"
         id="path469"
         d="m 228.924,65.783 c -3.768,-0.617 -5.008,3.591 -5.008,3.591 0,0 -3.213,0.516 -3.83,3.483 -0.617,2.968 2.125,4.722 2.125,4.722 0,0 -0.538,4.353 3.164,5.287 4.125,1.041 4.731,-2.384 6.158,-3.93 1.157,-1.253 3.336,-0.99 3.336,-0.99 l 0.804,-3.868 c 0,0 -2.104,-0.625 -2.666,-2.237 -0.693,-1.985 0.115,-5.368 -4.083,-6.058 z" /><path
         style="fill:#59595b"
         inkscape:connector-curvature="0"
         id="path471"
         d="m 232.056,74.106 c -0.098,-0.021 -0.565,0.309 -0.733,1.121 -0.169,0.813 0.109,1.322 0.221,1.346 0.112,0.022 3.463,0.707 3.463,0.707 l 0.513,-2.467 c 0,0 -3.365,-0.686 -3.464,-0.707 z" /><path
         style="fill:#e6e6e7"
         inkscape:connector-curvature="0"
         id="path473"
         d="m 231.265,75.67 3.908,0.813 0.181,-0.87 -3.906,-0.813 c -0.047,0.127 -0.092,0.266 -0.125,0.428 -0.034,0.162 -0.05,0.307 -0.058,0.442 z" /></g><g
       id="g475"
       transform="matrix(0,-4.6675603,4.6675603,0,-454.22061,1251.9737)"><path
         style="fill:#a6a8aa"
         inkscape:connector-curvature="0"
         id="path477"
         d="m 233.285,45.845 c -3.768,-0.617 -5.008,3.59 -5.008,3.59 0,0 -3.213,0.517 -3.83,3.484 -0.617,2.967 2.125,4.722 2.125,4.722 0,0 -0.539,4.353 3.164,5.287 4.125,1.042 4.731,-2.385 6.157,-3.93 1.157,-1.254 3.175,-1.018 3.175,-1.018 l 0.8,-3.883 c 0,0 -1.938,-0.584 -2.5,-2.195 -0.694,-1.985 0.114,-5.369 -4.083,-6.057 z" /><path
         style="fill:#c1c1c1"
         inkscape:connector-curvature="0"
         id="path479"
         d="m 233.153,45.664 c -3.768,-0.616 -5.008,3.589 -5.008,3.589 0,0 -3.213,0.518 -3.83,3.485 -0.617,2.968 2.125,4.722 2.125,4.722 0,0 -0.539,4.352 3.163,5.287 4.125,1.041 4.731,-2.385 6.158,-3.93 1.157,-1.254 3.336,-0.99 3.336,-0.99 l 0.804,-3.868 c 0,0 -2.104,-0.626 -2.666,-2.237 -0.692,-1.985 0.116,-5.369 -4.082,-6.058 z" /><path
         style="fill:#59595b"
         inkscape:connector-curvature="0"
         id="path481"
         d="m 236.285,53.986 c -0.099,-0.02 -0.565,0.311 -0.734,1.121 -0.168,0.813 0.109,1.323 0.221,1.347 0.112,0.022 3.464,0.706 3.464,0.706 l 0.512,-2.466 c 0.001,0 -3.364,-0.687 -3.463,-0.708 z" /><path
         style="fill:#e6e6e7"
         inkscape:connector-curvature="0"
         id="path483"
         d="m 235.495,55.55 3.907,0.813 0.181,-0.87 -3.906,-0.812 c -0.047,0.127 -0.092,0.266 -0.125,0.427 -0.034,0.163 -0.05,0.308 -0.057,0.442 z" /></g><g
       id="g485"
       transform="matrix(0,-4.6675603,4.6675603,0,-454.22061,1251.9737)"><path
         style="fill:#a6a8aa"
         inkscape:connector-curvature="0"
         id="path487"
         d="m 237.52,25.946 c -3.766,-0.628 -5.018,3.576 -5.018,3.576 0,0 -3.215,0.507 -3.84,3.473 -0.625,2.966 2.111,4.729 2.111,4.729 0,0 -0.551,4.351 3.148,5.296 4.122,1.053 4.738,-2.371 6.168,-3.912 1.161,-1.25 3.179,-1.009 3.179,-1.009 l 0.811,-3.88 c 0,0 -1.937,-0.59 -2.494,-2.203 -0.688,-1.987 0.13,-5.369 -4.065,-6.07 z" /><path
         style="fill:#c1c1c1"
         inkscape:connector-curvature="0"
         id="path489"
         d="m 237.389,25.766 c -3.766,-0.628 -5.019,3.575 -5.019,3.575 0,0 -3.215,0.508 -3.84,3.474 -0.625,2.966 2.111,4.728 2.111,4.728 0,0 -0.551,4.351 3.148,5.296 4.122,1.054 4.738,-2.37 6.169,-3.911 1.161,-1.251 3.339,-0.98 3.339,-0.98 l 0.814,-3.866 c 0,0 -2.102,-0.632 -2.659,-2.245 -0.685,-1.988 0.133,-5.371 -4.063,-6.071 z" /><path
         style="fill:#59595b"
         inkscape:connector-curvature="0"
         id="path491"
         d="m 240.497,34.098 c -0.099,-0.021 -0.566,0.308 -0.737,1.118 -0.171,0.813 0.105,1.323 0.217,1.347 0.112,0.023 3.462,0.717 3.462,0.717 l 0.52,-2.464 c -0.001,-0.001 -3.363,-0.698 -3.462,-0.718 z" /><path
         style="fill:#e6e6e7"
         inkscape:connector-curvature="0"
         id="path493"
         d="m 239.702,35.658 3.905,0.824 0.183,-0.87 -3.904,-0.823 c -0.047,0.127 -0.092,0.266 -0.126,0.427 -0.034,0.163 -0.05,0.308 -0.058,0.442 z" /></g><g
       id="g495"
       transform="matrix(0,-4.6675603,4.6675603,0,-454.22061,1251.9737)"><path
         style="fill:#a6a8aa"
         inkscape:connector-curvature="0"
         id="path497"
         d="m 241.745,5.753 c -3.768,-0.618 -5.008,3.59 -5.008,3.59 0,0 -3.213,0.516 -3.83,3.483 -0.617,2.968 2.125,4.722 2.125,4.722 0,0 -0.539,4.354 3.164,5.287 4.125,1.042 4.731,-2.384 6.157,-3.929 1.157,-1.254 3.176,-1.019 3.176,-1.019 l 0.799,-3.882 c 0,0 -1.938,-0.585 -2.5,-2.196 -0.693,-1.985 0.115,-5.368 -4.083,-6.056 z" /><path
         style="fill:#c1c1c1"
         inkscape:connector-curvature="0"
         id="path499"
         d="m 241.614,5.571 c -3.768,-0.617 -5.008,3.59 -5.008,3.59 0,0 -3.213,0.517 -3.83,3.484 -0.617,2.968 2.125,4.721 2.125,4.721 0,0 -0.539,4.354 3.163,5.288 4.125,1.042 4.731,-2.384 6.158,-3.929 1.157,-1.255 3.336,-0.99 3.336,-0.99 l 0.804,-3.869 c 0,0 -2.104,-0.626 -2.666,-2.237 -0.692,-1.983 0.116,-5.368 -4.082,-6.058 z" /><path
         style="fill:#59595b"
         inkscape:connector-curvature="0"
         id="path501"
         d="m 244.746,13.894 c -0.099,-0.02 -0.565,0.31 -0.734,1.122 -0.168,0.812 0.11,1.322 0.221,1.346 0.112,0.022 3.464,0.707 3.464,0.707 l 0.512,-2.467 c 0,0 -3.364,-0.687 -3.463,-0.708 z" /><path
         style="fill:#e6e6e7"
         inkscape:connector-curvature="0"
         id="path503"
         d="m 243.955,15.458 3.908,0.813 0.181,-0.87 -3.906,-0.812 c -0.047,0.127 -0.092,0.265 -0.125,0.427 -0.034,0.163 -0.05,0.307 -0.058,0.442 z" /></g><circle
       style="fill:#929496"
       id="circle505"
       r="18.077461"
       cy="-78.570679"
       cx="-102.60564"
       transform="matrix(0,-1,1,0,0,0)" /><circle
       style="fill:#bbbcbf"
       id="circle507"
       r="16.485823"
       cy="-82.001335"
       cx="-102.60564"
       transform="matrix(0,-1,1,0,0,0)" /><circle
       style="fill:#e6e6e7"
       id="circle509"
       r="14.497442"
       cy="-82.006004"
       cx="-102.60564"
       transform="matrix(0,-1,1,0,0,0)" /><path
       style="fill:#929496"
       inkscape:connector-curvature="0"
       id="path511"
       d="m -73.413035,114.26988 c 1.722329,-1.26958 3.159938,-2.90322 4.182134,-4.79825 L -90.771692,91.076772 c -1.694325,1.297582 -3.103928,2.954566 -4.093451,4.863598 l 21.452108,18.32951 z" /><circle
       style="fill:#929496"
       id="circle513"
       r="18.072794"
       cy="-174.12498"
       cx="-82.665802"
       transform="matrix(0,-1,1,0,0,0)" /><circle
       style="fill:#bbbcbf"
       id="circle515"
       r="16.485823"
       cy="-177.55565"
       cx="-82.665802"
       transform="matrix(0,-1,1,0,0,0)" /><circle
       style="fill:#e6e6e7"
       id="circle517"
       r="14.497442"
       cy="-177.55565"
       cx="-82.665802"
       transform="matrix(0,-1,1,0,0,0)" /><path
       style="fill:#929496"
       inkscape:connector-curvature="0"
       id="path519"
       d="m -164.18775,88.131542 c 0.80282,-1.983713 1.18556,-4.121456 1.06887,-6.273201 l -27.96802,-4.480858 c -0.77481,1.993048 -1.11554,4.140126 -0.96618,6.287204 l 27.86533,4.466855 z" /><circle
       style="fill:#929496"
       id="circle521"
       r="18.077461"
       cy="-269.4039"
       cx="-62.618641"
       transform="matrix(0,-1,1,0,0,0)" /><circle
       style="fill:#bbbcbf"
       id="circle523"
       r="16.481155"
       cy="-272.83453"
       cx="-62.618641"
       transform="matrix(0,-1,1,0,0,0)" /><circle
       style="fill:#e6e6e7"
       id="circle525"
       r="14.50211"
       cy="-272.8299"
       cx="-62.618641"
       transform="matrix(0,-1,1,0,0,0)" /><path
       style="fill:#929496"
       inkscape:connector-curvature="0"
       id="path527"
       d="m -270.72481,76.985408 c 2.1144,-0.312727 4.15879,-1.068871 5.9418,-2.259099 l -10.33398,-26.371716 c -2.10973,0.340732 -4.13079,1.138885 -5.90913,2.357118 l 10.30131,26.273697 z" /><circle
       style="fill:#929496"
       id="circle529"
       r="18.077461"
       cy="-364.50076"
       cx="-43.365025"
       transform="matrix(0,-1,1,0,0,0)" /><circle
       style="fill:#bbbcbf"
       id="circle531"
       r="16.485823"
       cy="-367.93143"
       cx="-43.365025"
       transform="matrix(0,-1,1,0,0,0)" /><circle
       style="fill:#e6e6e7"
       id="circle533"
       r="14.50211"
       cy="-367.93143"
       cx="-43.365025"
       transform="matrix(0,-1,1,0,0,0)" /><path
       style="fill:#929496"
       inkscape:connector-curvature="0"
       id="path535"
       d="m -354.37216,48.331255 c 0.72814,-2.007051 1.0362,-4.163464 0.84016,-6.305874 l -28.11271,-3.46333 c -0.69547,2.021054 -0.95685,4.182135 -0.72814,6.319877 l 28.00069,3.449327 z" /><circle
       style="fill:#d0d1d3"
       id="circle537"
       r="18.716917"
       cy="-144.03789"
       cx="-35.906158"
       transform="matrix(0,-1,1,0,0,0)" /><circle
       style="fill:#929496"
       id="circle539"
       r="12.826455"
       cy="-144.03789"
       cx="-35.906158"
       transform="matrix(0,-1,1,0,0,0)" /><circle
       style="fill:#d0d1d3"
       id="circle541"
       r="11.6689"
       cy="-144.03789"
       cx="-35.906158"
       transform="matrix(0,-1,1,0,0,0)" /><circle
       style="fill:#808183"
       id="circle543"
       r="7.0480161"
       cy="-144.04254"
       cx="-35.906158"
       transform="matrix(0,-1,1,0,0,0)" /><rect
       style="fill:#d0d1d3"
       id="rect545"
       y="-100.38971"
       x="106.17408"
       width="8.088788"
       transform="matrix(-0.88261025,-0.47010546,0.47010546,-0.88261025,0,0)"
       height="2.0817077" /><rect
       style="fill:#d0d1d3"
       id="rect547"
       y="109.2007"
       x="95.36496"
       width="8.0937433"
       transform="matrix(-0.46978875,0.88277887,-0.88277887,-0.46978875,0,0)"
       height="2.0817819" /></g></svg>