<?xml version="1.0" encoding="UTF-8" standalone="no"?>
<svg
   xmlns:dc="http://purl.org/dc/elements/1.1/"
   xmlns:cc="http://creativecommons.org/ns#"
   xmlns:rdf="http://www.w3.org/1999/02/22-rdf-syntax-ns#"
   xmlns:svg="http://www.w3.org/2000/svg"
   xmlns="http://www.w3.org/2000/svg"
   xmlns:sodipodi="http://sodipodi.sourceforge.net/DTD/sodipodi-0.dtd"
   xmlns:inkscape="http://www.inkscape.org/namespaces/inkscape"
   enable-background="new 0 0 512 512"
   height="115"
   id="bass2"
   version="1.1"
   viewBox="0 0 1044 115"
   width="1044"
   xml:space="preserve"
   inkscape:version="0.91 r13725"
   sodipodi:docname="jazz-bass2-fretboard.svg"><metadata
     id="metadata553"><rdf:RDF><cc:Work
         rdf:about=""><dc:format>image/svg+xml</dc:format><dc:type
           rdf:resource="http://purl.org/dc/dcmitype/StillImage" /><dc:title /></cc:Work></rdf:RDF></metadata><defs
     id="defs551" /><sodipodi:namedview
     pagecolor="#ffffff"
     bordercolor="#666666"
     borderopacity="1"
     objecttolerance="10"
     gridtolerance="10"
     guidetolerance="10"
     inkscape:pageopacity="0"
     inkscape:pageshadow="2"
     inkscape:window-width="1920"
     inkscape:window-height="1018"
     id="namedview549"
     showgrid="false"
     inkscape:zoom="1.3037281"
     inkscape:cx="6.4976437"
     inkscape:cy="50.509873"
     inkscape:window-x="1912"
     inkscape:window-y="-8"
     inkscape:window-maximized="1"
     inkscape:current-layer="bass2" /><g
     id="g4907"><path
       d="m 870.53569,249.18571 c -10.60003,39.14216 45.38736,88.805 161.80561,89.37911 120.3484,0.59278 196.6957,-55.52063 266.0416,-52.41203 54.6385,2.4458 96.7772,39.77695 176.6859,72.57589 72.8466,29.90039 112.5348,44.85059 162.8278,43.76305 63.3201,-1.3676 99.1763,-20.6913 117.0064,-30.70788 60.4869,-33.98918 84.9543,-71.49769 101.2627,-104.11927 16.3085,-32.62158 50.559,-126.93897 62.2466,-229.690641 11.6876,-102.747005 10.8988,-154.860319 2.5952,-211.571169 -8.2989,-56.71553 -58.7039,-95.97438 -81.6683,-109.35627 -27.2072,-15.85571 -107.5079,-28.29942 -187.3139,9.15308 -83.9881,39.41288 -123.3823,90.92874 -187.2858,89.15974 -68.4965,-1.90437 -122.5702,-55.1799 -248.1742,-59.25935 -83.7174,-2.71652 -167.1594,32.8923 -159.3085,78.61105 4.3781,25.49888 29.1349,30.1011 52.4914,32.29485 40.5004,3.80406 77.1967,32.8923 79.3672,61.434431 2.9172,38.231987 -15.487,51.371169 -32.0709,57.891751 -7.1927,2.828541 -11.1508,8.4296136 -11.1508,8.4296136 L 1048.9485,115.70749 c 0,0 20.85,15.02021 14.5861,48.13188 -7.6128,40.2297 -118.20126,45.19132 -150.23939,48.76667 -8.77035,0.97552 -34.75465,7.02468 -42.75952,36.57967 z"
       id="path5"
       inkscape:connector-curvature="0"
       style="fill:#71d7b6;fill-opacity:1" /><path
       d="m 1111.9186,171.53618 c 14.5628,15.42162 47.231,-9.8859 126.2948,-17.16729 56.9349,-5.24634 150.4262,65.53721 225.3778,66.05531 56.9863,0.39675 71.9038,-47.36173 72.898,-54.09235 0.4901,-3.33731 5.293,-52.8928 15.3563,-108.189383 11.3235,-62.195241 28.9155,-101.603453 28.9155,-101.603453 0,0 -48.1552,-26.861809 -56.0481,-31.450021 -7.8928,-4.588212 -11.2721,-8.462287 -12.215,-14.469437 -0.9475,-6.011818 -8.3502,-69.985396 -8.3502,-69.985396 0,0 -34.6147,8.1729 -58.844,2.87055 -37.2098,-8.14023 -97.1086,-36.95775 -160.3727,-50.63837 -59.3013,-12.82178 -164.3401,-9.6105 -185.8436,31.73008 -1.7456,3.36064 110.8966,3.43999 130.4023,83.2226 13.9747,57.168278 -13.3445,84.7815652 -13.3445,84.7815652 0,0 -106.5978,163.3972848 -107.2979,164.8815648 -0.7095,1.49829 -2.8192,7.82283 3.0713,14.05403 z"
       id="path7"
       inkscape:connector-curvature="0"
       style="fill:#a6a8aa" /><path
       d="m 1109.9209,169.18373 c 14.5674,15.22091 47.231,-9.7552 126.2995,-16.94325 56.9349,-5.17632 150.4214,64.68772 225.3731,65.20115 56.9863,0.38741 71.9085,-46.75028 72.9026,-53.39222 0.4901,-3.2953 5.2977,-52.20666 15.361,-106.784444 11.3141,-61.3877535 26.7358,-99.087638 26.7358,-99.087638 0,0 -46.0128,-25.760265 -53.9057,-30.287799 -7.8928,-4.527533 -12.4017,-10.497343 -13.3492,-16.429812 -0.9382,-5.932469 -9.2371,-65.714577 -9.2371,-65.714577 0,0 -32.7569,5.74576 -56.9863,0.51343 -37.2144,-8.03754 -96.9172,-37.32648 -160.1766,-50.82973 -59.2967,-12.65376 -164.3448,-9.48449 -185.8436,31.31933 -1.7457,3.31396 110.8966,3.39798 130.4023,82.144389 13.9793,56.430804 -13.3492,83.6800209 -13.3492,83.6800209 0,0 -106.5931,161.2782101 -107.2932,162.7438201 -0.7142,1.47029 -2.8146,7.71081 3.0666,13.86733 z"
       id="path9"
       inkscape:connector-curvature="0"
       style="fill:#86322a;fill-opacity:1" /><path
       d="m 1581.3818,-43.106251 c 0,0 28.2901,-46.717611 71.9924,-75.049699 49.0094,-31.78609 141.6792,-105.30483 114.8687,-140.1435 -25.2142,-32.78028 -129.4221,29.48031 -165.4137,55.90804 -34.5213,25.33551 -100.7026,43.65102 -100.7026,43.65102 0,0 8.1589,60.020158 9.5732,67.390236 1.4049,7.370077 3.1879,12.000297 15.3142,18.763592 12.1217,6.75396 54.3678,29.480311 54.3678,29.480311 z"
       id="path11"
       inkscape:connector-curvature="0"
       style="fill:#efefef" /><g
       transform="matrix(0,-4.6675603,4.6675603,0,-454.22061,1251.9737)"
       id="g15"><path
         style="fill:#434244"
         inkscape:connector-curvature="0"
         id="path17"
         d="m 245.52,405.906 c 0,0.102 0.009,0.199 0.021,0.297 l 4.887,0 c 0.012,-0.098 0.021,-0.195 0.021,-0.297 0,-1.317 -1.104,-2.385 -2.464,-2.385 -1.362,0 -2.465,1.068 -2.465,2.385 z" /><path
         style="fill:#292929"
         inkscape:connector-curvature="0"
         id="path19"
         d="m 245.306,406.119 c 0,0.102 0.009,0.2 0.021,0.298 l 4.887,0 c 0.013,-0.098 0.021,-0.196 0.021,-0.298 0,-1.316 -1.104,-2.385 -2.465,-2.385 -1.36,0 -2.464,1.069 -2.464,2.385 z" /><circle
         style="fill:#b4b4b4"
         id="circle21"
         r="0.98500001"
         cy="404.784"
         cx="247.771" /></g><g
       transform="matrix(0,-4.6675603,4.6675603,0,-454.22061,1251.9737)"
       id="g23"><path
         style="fill:#434244"
         inkscape:connector-curvature="0"
         id="path25"
         d="m 261.709,405.906 c 0,0.102 0.009,0.199 0.021,0.297 l 4.888,0 c 0.012,-0.098 0.021,-0.195 0.021,-0.297 0,-1.317 -1.104,-2.385 -2.465,-2.385 -1.361,0 -2.465,1.068 -2.465,2.385 z" /><path
         style="fill:#292929"
         inkscape:connector-curvature="0"
         id="path27"
         d="m 261.495,406.119 c 0,0.102 0.009,0.2 0.021,0.298 l 4.887,0 c 0.013,-0.098 0.021,-0.196 0.021,-0.298 0,-1.316 -1.103,-2.385 -2.464,-2.385 -1.361,0 -2.465,1.069 -2.465,2.385 z" /><circle
         style="fill:#b4b4b4"
         id="circle29"
         r="0.98500001"
         cy="404.784"
         cx="263.95999" /></g><g
       transform="matrix(0,-4.6675603,4.6675603,0,-454.22061,1251.9737)"
       id="g31"><path
         style="fill:#292929"
         inkscape:connector-curvature="0"
         id="path33"
         d="m 245.306,414.479 c 0,-0.101 0.009,-0.2 0.021,-0.298 l 4.887,0 c 0.013,0.098 0.021,0.197 0.021,0.298 0,1.317 -1.104,2.385 -2.465,2.385 -1.36,0 -2.464,-1.067 -2.464,-2.385 z" /><circle
         style="fill:#b4b4b4"
         id="circle35"
         r="0.98500001"
         cy="415.815"
         cx="247.771" /></g><g
       transform="matrix(0,-4.6675603,4.6675603,0,-454.22061,1251.9737)"
       id="g37"><path
         style="fill:#292929"
         inkscape:connector-curvature="0"
         id="path39"
         d="m 261.495,414.479 c 0,-0.101 0.009,-0.2 0.021,-0.298 l 4.887,0 c 0.013,0.098 0.021,0.197 0.021,0.298 0,1.317 -1.103,2.385 -2.464,2.385 -1.361,0 -2.465,-1.067 -2.465,-2.385 z" /><circle
         style="fill:#b4b4b4"
         id="circle41"
         r="0.98500001"
         cy="415.815"
         cx="263.95999" /></g><path
       inkscape:connector-curvature="0"
       id="path43"
       d="m 1440.7015,-33.033656 c 0,-2.217091 1.9511,-4.028104 4.3408,-4.028104 l 30.8993,0 c 2.3851,0 4.3362,1.81568 4.3362,4.028104 l 0,179.645056 c 0,2.2171 -1.9511,4.02811 -4.3362,4.02811 l -30.8993,0 c -2.3897,0 -4.3408,-1.81568 -4.3408,-4.02811 l 0,-179.645056 z" /><path
       style="fill:#292929"
       inkscape:connector-curvature="0"
       id="path45"
       d="m 1444.6876,-31.082616 c 0,-2.193753 1.7924,-3.986096 3.9861,-3.986096 l 28.4021,0 c 2.1938,0 3.9861,1.792343 3.9861,3.986096 l 0,177.740696 c 0,2.19375 -1.797,3.9861 -3.9861,3.9861 l -28.4021,0 c -2.1984,0 -3.9861,-1.79235 -3.9861,-3.9861 l 0,-177.740696 z" /><g
       transform="matrix(0,-4.6675603,4.6675603,0,-454.22061,1251.9737)"
       id="g47"><circle
         style="fill:#6a6a6a"
         id="circle49"
         r="1.199"
         cy="410.80801"
         cx="242.121" /><circle
         style="fill:#6a6a6a"
         id="circle51"
         r="1.199"
         cy="410.80801"
         cx="245.265" /></g><g
       transform="matrix(0,-4.6675603,4.6675603,0,-454.22061,1251.9737)"
       id="g53"><circle
         style="fill:#6a6a6a"
         id="circle55"
         r="1.199"
         cy="410.80801"
         cx="250.354" /><circle
         style="fill:#6a6a6a"
         id="circle57"
         r="1.199"
         cy="410.80801"
         cx="253.49699" /></g><g
       transform="matrix(0,-4.6675603,4.6675603,0,-454.22061,1251.9737)"
       id="g59"><circle
         style="fill:#6a6a6a"
         id="circle61"
         r="1.199"
         cy="410.80801"
         cx="258.586" /><circle
         style="fill:#6a6a6a"
         id="circle63"
         r="1.199"
         cy="410.80801"
         cx="261.729" /></g><g
       transform="matrix(0,-4.6675603,4.6675603,0,-454.22061,1251.9737)"
       id="g65"><circle
         style="fill:#6a6a6a"
         id="circle67"
         r="1.199"
         cy="410.80801"
         cx="266.81799" /><circle
         style="fill:#6a6a6a"
         id="circle69"
         r="1.199"
         cy="410.80801"
         cx="269.96201" /></g><g
       transform="matrix(0,-4.6675603,4.6675603,0,-454.22061,1251.9737)"
       id="g73"><path
         style="fill:#434244"
         inkscape:connector-curvature="0"
         id="path75"
         d="m 245.52,445.988 c 0,0.1 0.009,0.199 0.021,0.297 l 4.887,0 c 0.012,-0.098 0.021,-0.197 0.021,-0.297 0,-1.318 -1.104,-2.385 -2.464,-2.385 -1.362,10e-4 -2.465,1.067 -2.465,2.385 z" /><path
         style="fill:#292929"
         inkscape:connector-curvature="0"
         id="path77"
         d="m 245.306,446.201 c 0,0.102 0.009,0.199 0.021,0.297 l 4.887,0 c 0.013,-0.098 0.021,-0.195 0.021,-0.297 0,-1.317 -1.104,-2.385 -2.465,-2.385 -1.36,0 -2.464,1.068 -2.464,2.385 z" /><circle
         style="fill:#b4b4b4"
         id="circle79"
         r="0.986"
         cy="444.866"
         cx="247.771" /></g><g
       transform="matrix(0,-4.6675603,4.6675603,0,-454.22061,1251.9737)"
       id="g81"><path
         style="fill:#434244"
         inkscape:connector-curvature="0"
         id="path83"
         d="m 261.709,445.988 c 0,0.1 0.008,0.199 0.021,0.297 l 4.887,0 c 0.013,-0.098 0.021,-0.197 0.021,-0.297 0,-1.318 -1.104,-2.385 -2.465,-2.385 -1.361,0 -2.464,1.067 -2.464,2.385 z" /><path
         style="fill:#292929"
         inkscape:connector-curvature="0"
         id="path85"
         d="m 261.495,446.201 c 0,0.102 0.009,0.199 0.021,0.297 l 4.887,0 c 0.012,-0.098 0.021,-0.195 0.021,-0.297 0,-1.317 -1.103,-2.385 -2.464,-2.385 -1.361,0 -2.465,1.068 -2.465,2.385 z" /><circle
         style="fill:#b4b4b4"
         id="circle87"
         r="0.986"
         cy="444.866"
         cx="263.95999" /></g><g
       transform="matrix(0,-4.6675603,4.6675603,0,-454.22061,1251.9737)"
       id="g89"><path
         style="fill:#292929"
         inkscape:connector-curvature="0"
         id="path91"
         d="m 245.306,454.561 c 0,-0.101 0.009,-0.199 0.021,-0.297 l 4.887,0 c 0.013,0.098 0.021,0.196 0.021,0.297 0,1.317 -1.104,2.385 -2.465,2.385 -1.36,-0.001 -2.464,-1.068 -2.464,-2.385 z" /><circle
         style="fill:#b4b4b4"
         id="circle93"
         r="0.98500001"
         cy="455.896"
         cx="247.771" /></g><g
       transform="matrix(0,-4.6675603,4.6675603,0,-454.22061,1251.9737)"
       id="g95"><path
         style="fill:#292929"
         inkscape:connector-curvature="0"
         id="path97"
         d="m 261.495,454.561 c 0,-0.101 0.009,-0.199 0.021,-0.297 l 4.887,0 c 0.012,0.098 0.021,0.196 0.021,0.297 0,1.317 -1.103,2.385 -2.464,2.385 -1.361,0 -2.465,-1.068 -2.465,-2.385 z" /><circle
         style="fill:#b4b4b4"
         id="circle99"
         r="0.98500001"
         cy="455.896"
         cx="263.95999" /></g><path
       inkscape:connector-curvature="0"
       id="path101"
       d="m 1627.7867,-33.028988 c 0,-2.221759 1.951,-4.028105 4.3361,-4.028105 l 30.8993,0 c 2.3898,0 4.3408,1.811013 4.3408,4.028105 l 0,179.640388 c 0,2.2171 -1.951,4.02811 -4.3408,4.02811 l -30.8993,0 c -2.3851,0 -4.3361,-1.81568 -4.3361,-4.02811 l 0,-179.640388 z" /><path
       style="fill:#292929"
       inkscape:connector-curvature="0"
       id="path103"
       d="m 1631.7681,-31.082616 c 0,-2.193753 1.797,-3.986096 3.9861,-3.986096 l 28.4021,0 c 2.1938,0 3.9861,1.792343 3.9861,3.986096 l 0,177.740696 c 0,2.19375 -1.797,3.9861 -3.9861,3.9861 l -28.4021,0 c -2.1938,0 -3.9861,-1.79235 -3.9861,-3.9861 l 0,-177.740696 z" /><g
       transform="matrix(0,-4.6675603,4.6675603,0,-454.22061,1251.9737)"
       id="g105"><circle
         style="fill:#6a6a6a"
         id="circle107"
         r="1.199"
         cy="450.88901"
         cx="242.121" /><circle
         style="fill:#6a6a6a"
         id="circle109"
         r="1.199"
         cy="450.88901"
         cx="245.265" /></g><g
       transform="matrix(0,-4.6675603,4.6675603,0,-454.22061,1251.9737)"
       id="g111"><circle
         style="fill:#6a6a6a"
         id="circle113"
         r="1.199"
         cy="450.88901"
         cx="250.354" /><circle
         style="fill:#6a6a6a"
         id="circle115"
         r="1.199"
         cy="450.88901"
         cx="253.49699" /></g><g
       transform="matrix(0,-4.6675603,4.6675603,0,-454.22061,1251.9737)"
       id="g117"><circle
         style="fill:#6a6a6a"
         id="circle119"
         r="1.199"
         cy="450.88901"
         cx="258.586" /><circle
         style="fill:#6a6a6a"
         id="circle121"
         r="1.199"
         cy="450.88901"
         cx="261.729" /></g><g
       transform="matrix(0,-4.6675603,4.6675603,0,-454.22061,1251.9737)"
       id="g123"><circle
         style="fill:#6a6a6a"
         id="circle125"
         r="1.199"
         cy="450.88901"
         cx="266.81799" /><circle
         style="fill:#6a6a6a"
         id="circle127"
         r="1.199"
         cy="450.88901"
         cx="269.96201" /></g><circle
       transform="matrix(0,-1,1,0,0,0)"
       cx="-183.69054"
       cy="1374.6975"
       r="5.4237046"
       id="circle129"
       style="fill:#312303;fill-opacity:1" /><circle
       transform="matrix(0,-1,1,0,0,0)"
       cx="-110.60116"
       cy="1530.0759"
       r="5.4237046"
       id="circle131"
       style="fill:#312303;fill-opacity:1" /><circle
       transform="matrix(0,-1,1,0,0,0)"
       cx="34.233166"
       cy="1561.9834"
       r="5.4237046"
       id="circle133"
       style="fill:#312303;fill-opacity:1" /><circle
       transform="matrix(0,-1,1,0,0,0)"
       cx="139.88344"
       cy="1487.9232"
       r="5.4237046"
       id="circle135"
       style="fill:#312303;fill-opacity:1" /><circle
       transform="matrix(0,-1,1,0,0,0)"
       cx="166.14786"
       cy="1367.4396"
       r="5.4237046"
       id="circle137"
       style="fill:#312303;fill-opacity:1" /><circle
       transform="matrix(0,-1,1,0,0,0)"
       cx="197.8452"
       cy="1245.1168"
       r="5.4237046"
       id="circle139"
       style="fill:#312303;fill-opacity:1" /><circle
       transform="matrix(0,-1,1,0,0,0)"
       cx="181.9241"
       cy="1124.1942"
       r="5.4237046"
       id="circle141"
       style="fill:#312303;fill-opacity:1" /><circle
       transform="matrix(0,-1,1,0,0,0)"
       cx="22.989027"
       cy="1238.2881"
       r="5.4237046"
       id="circle143"
       style="fill:#312303;fill-opacity:1" /><circle
       transform="matrix(0,-1,1,0,0,0)"
       cx="-160.11464"
       cy="1119.3307"
       r="5.4237046"
       id="circle145"
       style="fill:#312303;fill-opacity:1" /><circle
       transform="matrix(0,-1,1,0,0,0)"
       cx="-141.77579"
       cy="1263.3669"
       r="5.4237046"
       id="circle147"
       style="fill:#312303;fill-opacity:1" /><circle
       transform="matrix(0,-1,1,0,0,0)"
       style="fill:#272525"
       id="circle151"
       r="25.699587"
       cy="1546.5104"
       cx="103.58379" /><g
       transform="matrix(0,-4.6675603,4.6675603,0,-454.22061,1251.9737)"
       id="g153"><path
         style="fill:#424242"
         inkscape:connector-curvature="0"
         id="path155"
         d="m 295.493,430.939 c 0.058,0.228 -0.011,0.567 -0.152,0.755 l -2.138,2.824 c -0.142,0.188 -0.45,0.346 -0.685,0.352 l -3.541,0.09 c -0.234,0.006 -0.551,-0.137 -0.701,-0.316 l -2.278,-2.713 c -0.15,-0.18 -0.236,-0.516 -0.189,-0.746 l 0.699,-3.471 c 0.047,-0.23 0.256,-0.507 0.465,-0.614 l 3.151,-1.616 c 0.209,-0.107 0.556,-0.116 0.77,-0.02 l 3.229,1.454 c 0.214,0.097 0.438,0.362 0.495,0.59 l 0.875,3.431 z" /></g><circle
       transform="matrix(0,-1,1,0,0,0)"
       style="fill:#272525"
       id="circle159"
       r="25.699587"
       cy="1606.0312"
       cx="144.11227" /><g
       transform="matrix(0,-4.6675603,4.6675603,0,-454.22061,1251.9737)"
       id="g161"><path
         style="fill:#424242"
         inkscape:connector-curvature="0"
         id="path163"
         d="m 304.175,443.691 c 0.058,0.228 -0.011,0.567 -0.152,0.755 l -2.137,2.824 c -0.142,0.188 -0.45,0.346 -0.685,0.352 l -3.541,0.09 c -0.234,0.006 -0.551,-0.137 -0.701,-0.316 l -2.278,-2.712 c -0.15,-0.18 -0.236,-0.516 -0.19,-0.746 l 0.701,-3.471 c 0.046,-0.23 0.255,-0.507 0.464,-0.614 l 3.151,-1.616 c 0.209,-0.107 0.555,-0.116 0.77,-0.02 l 3.228,1.454 c 0.215,0.097 0.438,0.362 0.495,0.59 l 0.875,3.43 z" /></g><circle
       transform="matrix(0,-1,1,0,0,0)"
       style="fill:#272525"
       id="circle167"
       r="19.038979"
       cy="1663.7969"
       cx="184.2019" /><g
       transform="matrix(0,-4.6675603,4.6675603,0,-454.22061,1251.9737)"
       id="g169"><path
         style="fill:#424242"
         inkscape:connector-curvature="0"
         id="path171"
         d="m 311.45,455.473 c 0.043,0.169 -0.008,0.42 -0.112,0.559 l -1.584,2.094 c -0.104,0.139 -0.333,0.256 -0.507,0.26 l -2.623,0.066 c -0.174,0.004 -0.408,-0.102 -0.52,-0.234 l -1.688,-2.01 c -0.111,-0.133 -0.175,-0.382 -0.141,-0.553 l 0.52,-2.57 c 0.034,-0.171 0.189,-0.376 0.344,-0.455 l 2.335,-1.197 c 0.154,-0.079 0.411,-0.086 0.569,-0.015 l 2.393,1.078 c 0.158,0.071 0.323,0.268 0.366,0.437 l 0.648,2.54 z" /></g><circle
       transform="matrix(0,-1,1,0,0,0)"
       cx="63.321518"
       cy="1578.0117"
       r="5.4237046"
       id="circle173"
       style="fill:#312303;fill-opacity:1" /><circle
       transform="matrix(0,-1,1,0,0,0)"
       cx="248.97839"
       cy="1758.2683"
       r="5.4237046"
       id="circle175"
       style="fill:#312303;fill-opacity:1" /><circle
       transform="matrix(0,-1,1,0,0,0)"
       cx="147.55226"
       cy="1520.5121"
       r="5.4237046"
       id="circle177"
       style="fill:#312303;fill-opacity:1" /><path
       style="fill:#ffffff"
       inkscape:connector-curvature="0"
       id="path181"
       d="m 1713.3991,378.35577 c 0,0 -3.1226,1.17156 -9.1064,3.16928 -5.9979,1.86235 -14.8289,4.60688 -26.3531,7.00134 -5.7831,1.0782 -12.1497,2.57182 -19.2303,3.2953 -3.5334,0.41541 -7.2021,0.95685 -11.0342,1.26024 -3.8507,0.14469 -7.8415,0.29405 -11.9629,0.44808 -4.1261,0.33607 -8.3923,-0.0607 -12.7891,-0.38741 -2.2031,-0.15869 -4.4342,-0.31739 -6.7026,-0.48075 l -3.468,-0.26605 -3.3654,-0.54611 c -4.5135,-0.75614 -9.1297,-1.41894 -13.8766,-2.30577 -4.7609,-0.98953 -9.6292,-2.00706 -14.6001,-3.04325 -19.7578,-4.56488 -40.5798,-11.71091 -61.8592,-20.56061 -21.3354,-8.79835 -43.539,-18.51154 -66.3167,-29.11157 -22.8197,-10.67471 -45.7281,-22.85704 -69.332,-34.23189 -23.5478,-11.30016 -48.1598,-21.87219 -74.1955,-25.20949 -12.9571,-1.727 -26.101,-1.5683 -39.1375,0.0327 -12.8778,1.55897 -25.5689,4.93828 -37.9192,9.08307 -24.6914,8.51363 -49.1681,17.86743 -73.5981,24.06128 -24.3974,6.44123 -48.2253,11.02011 -71.1477,14.42276 -22.6283,3.37931 -44.7805,4.66756 -64.9211,4.42951 -20.2152,-0.62545 -38.68469,-2.96856 -54.74577,-6.61393 -16.0424,-3.75738 -29.57833,-8.76101 -40.32305,-13.71796 -10.7774,-4.93828 -18.67024,-9.99791 -23.80923,-13.7833 -2.6325,-1.80635 -4.32216,-3.66404 -5.237,-5.12499 -0.94285,-1.4376 -1.17156,-2.41312 -1.17156,-2.41312 l 0.21004,-0.21004 c 0,0 0.96152,0.19603 2.48315,0.86349 1.53562,0.63946 3.57535,1.84369 6.04915,3.65004 4.98496,3.57535 12.71911,8.39694 23.28646,13.06917 10.53935,4.69556 23.8279,9.41446 39.58091,12.88713 15.79036,3.29996 33.9145,5.44704 53.7843,6.1005 19.9538,0.17737 41.2752,-1.05954 64.1089,-4.49486 22.4977,-3.43532 46.2976,-8.16356 70.3355,-14.65147 24.178,-6.2732 48.1319,-15.58965 73.122,-24.36467 12.5511,-4.28482 25.6016,-7.8695 39.1748,-9.58717 13.3633,-1.71766 27.1559,-1.97437 40.7198,-0.23804 27.2633,3.36531 52.5941,14.15671 76.3893,25.40553 23.8699,11.34684 46.783,23.36581 69.4347,33.81181 22.7216,10.42733 44.8225,20.37856 65.9479,29.13491 21.1487,8.71433 41.3079,16.41581 60.5849,21.16738 4.8216,1.10155 9.5452,2.18442 14.1568,3.23929 4.6629,0.97085 9.3164,1.73167 13.7973,2.57183 l 3.3513,0.60678 3.2206,0.34073 c 2.1704,0.22404 4.3082,0.44809 6.4179,0.66746 4.2195,0.45742 8.3222,0.98486 12.3504,0.78415 4.0187,-0.014 7.9115,-0.0327 11.6689,-0.0467 3.7573,-0.16337 7.37,-0.61145 10.852,-0.85883 6.9874,-0.36874 13.3212,-1.5403 19.0857,-2.32912 5.7598,-0.81682 10.8101,-2.07239 15.2769,-2.8192 4.4155,-1.01286 8.1682,-1.86703 11.2115,-2.56716 6.0305,-1.57297 9.2371,-2.54849 9.2371,-2.54849 l 0.3641,1.00819 z" /><path
       style="fill:#ffffff"
       inkscape:connector-curvature="0"
       id="path185"
       d="m 1787.1092,-283.75166 c 0,0 -2.9266,0.0794 -8.4063,0.46676 -5.4751,0.37807 -13.5033,1.05487 -23.6412,2.42713 -10.1333,1.3816 -22.4276,3.24395 -36.2436,6.57659 -13.7833,3.37465 -29.2376,7.72015 -45.224,14.53945 -4.0468,1.59164 -8.0189,3.54735 -12.033,5.59641 -4.1027,1.89503 -8.0188,4.27548 -12.0189,6.66527 -8.0049,4.72824 -16.2898,10.2733 -24.7568,15.655 -16.9759,10.90809 -34.862,22.54898 -54.0643,33.60177 -19.3004,10.8054 -40.0477,21.2374 -62.9047,27.17453 -11.3702,2.87989 -23.3005,4.98963 -35.2214,4.55087 l -8.7797,0.098 c -2.9546,-0.084 -5.9885,-0.55544 -8.9804,-0.82615 l -9.0037,-0.96152 -8.7564,-1.8997 c -23.3751,-5.23233 -44.8412,-15.29559 -66.4614,-23.1511 -5.363,-2.1144 -10.7914,-3.96276 -16.2057,-5.75043 -5.4517,-1.78301 -10.6888,-3.76672 -16.1825,-5.24634 -5.4377,-1.58697 -10.8427,-3.15994 -16.2151,-4.72824 -5.377,-1.38626 -10.726,-2.76786 -16.0284,-4.13546 -21.2794,-5.237 -42.2134,-8.44361 -62.2419,-9.82054 -19.9818,-1.37693 -39.1702,-1.93237 -56.5895,-1.60564 -17.4007,0.49942 -33.0557,3.46332 -46.6056,7.42142 -13.5406,3.92541 -24.8501,8.9197 -33.7838,13.65728 -8.9244,4.77491 -15.599,9.11108 -20.1312,12.08431 -4.5135,3.01525 -6.8053,4.71424 -6.8053,4.71424 -0.6488,0.48542 -1.5589,0.35473 -2.0444,-0.28939 -0.4154,-0.55077 -0.3687,-1.31159 0.056,-1.82035 0,0 1.9931,-2.33845 6.2966,-5.9278 4.2755,-3.61269 10.9641,-8.44829 20.1498,-13.3819 9.1625,-4.96161 20.7613,-10.20795 34.6893,-14.37608 13.8767,-4.14946 30.2458,-7.03868 48.0806,-7.48677 17.7974,-0.23805 36.813,0.50876 57.0796,2.04906 20.2292,1.58697 41.4899,4.94761 62.956,10.32931 5.3537,1.4096 10.7541,2.82854 16.1918,4.26148 5.363,1.59164 10.7634,3.19261 16.1964,4.79825 5.4331,1.53096 10.9175,3.45867 16.3692,5.20433 5.4844,1.75501 10.9734,3.57069 16.3878,5.63842 21.8582,7.72014 43.3709,17.49868 65.9899,22.3016 l 8.467,1.76434 8.5136,0.82149 c 2.8472,0.22404 5.6338,0.67213 8.5277,0.72347 l 8.7843,-0.18203 c 11.5195,0.32673 22.7917,-1.81102 33.7465,-4.68623 21.9468,-5.92781 42.176,-16.29446 61.117,-27.14654 18.9736,-10.91275 36.8037,-22.47897 53.789,-33.38705 8.5929,-5.40971 16.5791,-10.88942 24.9994,-15.68301 4.1962,-2.41313 8.3083,-4.80292 12.5698,-6.68861 4.1868,-2.04439 8.3176,-3.9861 12.5044,-5.54973 16.5605,-6.70728 32.3742,-10.98277 46.5309,-13.71329 14.1567,-2.77253 26.6284,-4.35017 36.9297,-5.08764 20.6026,-1.5683 32.4069,-0.79349 32.4069,-0.79349 0.336,0.014 0.5974,0.29406 0.5834,0.63479 -0,0.30339 -0.2707,0.55544 -0.5834,0.56944 z" /><path
       d="M 920.19386,317.27608 C 888.20241,299.39932 874.5778,275.2587 880.28156,254.166 c 8.00486,-29.55499 33.9845,-35.60415 42.76418,-36.58434 32.03347,-3.57535 142.62666,-8.53697 150.23946,-48.76667 6.2638,-33.11167 -14.5862,-48.13188 -14.5862,-48.13188 l 96.9499,-120.94582509 c 0,0 3.9535,-5.59640481 11.1462,-8.42961391 16.5838,-6.520582 38.1433,-25.643576 35.2261,-63.884898 -2.1705,-28.537463 -35.9636,-62.260583 -76.464,-66.064653 -23.3518,-2.19375 -56.3421,-2.91722 -60.6176,-28.43477 -2.0631,-12.30836 6.8426,-21.40077 24.598,-31.87944 0.8822,-0.64412 1.8204,-1.30692 2.8099,-1.98838 3.3606,-2.26843 7.3374,-4.7049 11.9256,-7.19738 4.5742,-2.49714 9.7552,-5.0643 15.5383,-7.53344 5.7831,-2.4598 12.187,-4.78892 19.1557,-6.86131 13.9373,-4.13079 30.1664,-7.04335 48.1085,-7.50077 l 1.6897,-0.0607 1.6616,0 c 1.1156,0 2.2311,0.005 3.356,0.005 l 1.6897,0 1.7503,0.0467 c 1.1296,0.028 2.2731,0.0607 3.4213,0.0933 4.5882,0.12136 9.2651,0.25205 14.026,0.37807 4.7563,0.14003 9.6012,0.44342 14.5115,0.66747 2.4551,0.13069 4.9336,0.21004 7.4307,0.39207 2.4879,0.20537 5.0037,0.41075 7.5288,0.62079 2.5298,0.21004 5.0783,0.42008 7.6408,0.63012 1.2789,0.084 2.5625,0.25671 3.8461,0.42008 1.2836,0.15869 2.5718,0.31739 3.8647,0.48542 5.167,0.68147 10.4227,1.1809 15.6597,2.21243 10.5487,1.66632 21.1767,4.0421 31.9354,6.65127 5.3584,1.40027 10.7588,2.81454 16.2011,4.23348 5.3584,1.57763 10.7681,3.16927 16.2011,4.77024 1.3583,0.40141 2.7166,0.80283 4.0842,1.20424 1.4142,0.42008 2.7351,0.85883 4.1167,1.28357 2.7259,0.87751 5.4751,1.70833 8.2009,2.61851 2.7259,0.92884 5.4564,1.85768 8.1916,2.7912 2.7305,0.94751 5.4471,1.9557 8.1776,2.93122 10.8987,3.9721 21.7461,8.28959 32.6636,12.36437 10.9174,4.05611 21.9468,7.82283 33.261,10.22663 11.2722,2.45513 22.8804,3.42132 34.2599,3.13193 2.8892,-0.14469 5.7831,-0.29406 8.6677,-0.43408 2.8332,-0.3314 5.6664,-0.66746 8.4856,-0.99886 5.6197,-0.92885 11.2021,-1.98838 16.6678,-3.54268 10.9455,-2.98724 21.5268,-7.02935 31.7021,-11.71091 10.1426,-4.76091 19.9398,-9.97924 29.4196,-15.44029 18.9643,-10.93609 36.7571,-22.55832 53.775,-33.41506 4.2568,-2.72119 8.4576,-5.40037 12.5884,-8.04688 4.1541,-2.6185 8.1589,-5.251 12.3784,-7.70147 8.3502,-4.90094 16.7939,-8.92438 25.0601,-12.30369 16.5885,-6.67461 32.4349,-10.83341 46.5776,-13.61994 14.1567,-2.82387 26.6518,-4.24281 36.9437,-5.05964 10.2967,-0.82149 18.4089,-0.95685 23.9353,-0.96151 5.5264,0.0327 8.4809,0.19603 8.4809,0.19603 l 0,0 c 0.1354,0.009 0.2567,0.0747 0.3547,0.15403 22.6284,-1.03153 42.6102,0.20538 55.5113,4.07478 -1.2835,-0.79815 -2.5064,-1.53562 -3.6547,-2.20775 -27.2072,-15.8557 -107.5079,-28.29942 -187.3138,9.15308 -83.9881,39.41288 -123.3823,90.92875 -187.2859,89.15974 -68.4964,-1.90436 -122.5701,-55.1799 -248.1742,-59.25935 -83.7173,-2.71652 -167.1593,32.8923 -159.3085,78.61106 4.3782,25.49888 29.135,30.10109 52.4914,32.29485 40.5004,3.80406 77.1968,32.89229 79.3672,61.434424 2.9172,38.231986 -15.4869,51.371168 -32.0708,57.89175 -7.1927,2.828542 -11.1508,8.4296141 -11.1508,8.4296141 L 1048.9532,115.70282 c 0,0 20.85,15.02021 14.5861,48.13188 -7.6128,40.2297 -118.20129,45.19132 -150.23942,48.76667 -8.77968,0.98019 -34.75932,7.02935 -42.76419,36.58434 -6.26387,23.12309 10.72139,49.91489 49.65817,68.09037 z"
       id="path187"
       inkscape:connector-curvature="0"
       style="opacity:0.3;fill:#272525" /><path
       style="fill:#ffffff"
       inkscape:connector-curvature="0"
       id="path191"
       d="m 1183.4629,-118.90276 c 0,0 -1.4142,-0.92885 -3.8507,-2.4458 -1.1949,-0.79816 -2.7445,-1.66166 -4.4622,-2.70252 -1.6896,-1.08288 -3.7714,-2.04439 -5.9045,-3.27663 -2.1144,-1.26491 -4.5648,-2.35712 -7.076,-3.61269 -2.4784,-1.33959 -5.2136,-2.46447 -8.0468,-3.59402 -1.4003,-0.59745 -2.8193,-1.19957 -4.2615,-1.81102 -1.4843,-0.47142 -2.9873,-0.94751 -4.4996,-1.42827 -1.5029,-0.49476 -3.0152,-0.99886 -4.5415,-1.49829 -1.545,-0.37807 -3.1179,-0.64879 -4.6722,-0.98018 -3.104,-0.65813 -6.1939,-1.29759 -9.5218,-1.70366 -3.244,-0.48543 -6.4459,-0.95685 -9.5405,-1.42361 -6.1612,-0.95685 -11.9677,-2.00238 -16.9246,-3.13193 -2.4878,-0.61612 -4.7703,-1.16222 -6.7773,-1.88103 -2.0164,-0.72814 -3.7527,-1.34892 -5.1577,-2.16108 -1.4329,-0.61145 -2.4318,-1.48895 -3.0946,-2.05839 -0.6628,-0.55544 -1.0128,-0.8495 -1.0128,-0.8495 -0.5321,-0.44809 -0.6068,-1.24624 -0.1587,-1.77834 0.3781,-0.44809 0.9988,-0.56944 1.5029,-0.32673 l 0.3128,0.1447 c 0,0 0.3454,0.16336 0.9942,0.47142 0.6301,0.31273 1.5076,0.77481 2.8612,1.10621 1.2415,0.46676 2.9312,0.74214 4.8496,1.06887 1.9323,0.28472 4.1774,0.55544 6.6046,0.84483 4.9569,0.51343 10.74,1.11088 16.9339,1.75967 3.1179,0.30339 6.3198,0.76548 9.5778,1.18556 3.216,0.29872 6.6559,1.05954 10.0633,1.87636 1.6943,0.40141 3.412,0.74214 5.0829,1.1949 1.6197,0.59744 3.23,1.18556 4.8263,1.77367 1.5916,0.60211 3.1693,1.19956 4.7282,1.79234 1.4843,0.71881 2.9593,1.44228 4.4015,2.14241 2.8846,1.43294 5.6338,2.85655 8.0889,4.45752 2.4972,1.53096 4.8496,2.98724 6.8893,4.52287 4.1635,2.9499 7.3608,5.73176 9.6199,7.65946 2.2171,2.01172 3.3653,3.21595 3.3653,3.21595 0.3641,0.37341 0.3547,0.97552 -0.019,1.33959 -0.3174,0.31273 -0.8168,0.3454 -1.1809,0.10736 z" /><path
       style="fill:#ffffff"
       inkscape:connector-curvature="0"
       id="path195"
       d="m 1174.9586,-6.2231896 c 0,0 0.5835,-0.2147078 1.6103,-0.5927801 0.5135,-0.1773673 1.1436,-0.3967427 1.8624,-0.6441234 0.5648,-0.2660509 1.1996,-0.5647748 1.895,-0.891504 0.6908,-0.275386 1.4797,-0.7654799 2.3291,-1.2182332 0.8635,-0.4340827 1.727,-0.9848557 2.5999,-1.6009737 1.797,-1.152887 3.538,-2.669844 5.3117,-4.205471 1.7456,-1.563633 3.3839,-3.295298 4.8216,-5.017628 1.4329,-1.731665 2.6698,-3.439992 3.832,-4.8776 2.2591,-2.893888 4.0561,-4.854263 4.0561,-4.854263 l 0.3174,0.116689 c 0,0 0.084,2.749193 -1.2415,6.431898 -1.2976,3.682705 -3.8881,8.242912 -7.1367,12.462386 -1.629,2.114405 -3.482,4.088783 -5.4284,5.7410994 -1.9184,1.7223297 -3.8088,3.1132627 -5.7365,4.1961367 -0.9708,0.52743431 -1.8576,1.01286058 -2.6465,1.44227613 -0.7001,0.2940563 -1.3115,0.55543967 -1.8156,0.77014747 -1.0129,0.4107453 -1.5917,0.6441233 -1.5917,0.6441233 l -3.0386,-7.9021796 z" /><path
       style="fill:#ffffff"
       inkscape:connector-curvature="0"
       id="path199"
       d="m 1070.6293,188.37207 c -0.061,-0.0233 -0.037,0.77948 -0.6721,2.03039 -0.2847,0.64879 -0.6815,1.45627 -1.2089,2.40846 -0.5648,0.84949 -1.3116,1.74566 -2.1237,2.81454 -1.5823,2.23576 -4.0888,4.12612 -6.9547,6.43189 -2.8705,2.31045 -6.5999,3.91142 -10.4553,6.15652 -1.9091,1.18556 -4.0935,1.87169 -6.2779,2.8052 -2.2078,0.87283 -4.4855,1.77367 -6.8286,2.70252 -1.1763,0.44808 -2.3712,0.90084 -3.5801,1.36292 -1.2415,0.35007 -2.4878,0.70481 -3.7527,1.06421 -2.5298,0.70947 -5.1203,1.43294 -7.7481,2.16575 -2.6279,0.7048 -5.3117,1.4236 -8.0236,2.14707 -2.7445,0.52744 -5.5264,1.05954 -8.3269,1.59631 -5.62907,1.07821 -11.20214,2.25443 -17.02726,3.28596 -5.68042,0.8355 -11.36084,1.67566 -16.95257,2.50181 -5.69443,0.53211 -11.31417,1.20423 -16.72387,1.5683 -5.3957,0.32673 -10.64204,0.64413 -15.54298,0.78415 -4.95695,0.12136 -9.50315,0.49477 -13.7413,0.70481 -2.13307,0.0607 -4.05611,0.5321 -5.9558,0.75147 -1.87169,0.32673 -3.72472,0.40608 -5.32102,0.94752 -3.21595,0.99419 -6.24053,1.40027 -8.42962,2.53915 -4.52286,1.92304 -7.21138,2.98257 -7.21138,2.98257 l -0.74681,-1.2229 c 0,0 2.40847,-1.57763 6.80997,-4.28015 1.06888,-0.75148 2.36646,-1.32092 3.83207,-1.85302 1.45628,-0.57878 3.02458,-1.1949 4.7049,-1.86236 1.66165,-0.79815 3.57069,-1.0222 5.53573,-1.49829 1.97438,-0.3734 4.06078,-1.00819 6.23119,-1.2229 8.72367,-1.2369 18.76359,-1.64765 29.41963,-2.4458 5.32569,-0.42008 10.75873,-1.04553 16.31313,-1.55896 5.59174,-0.82149 11.26749,-1.65699 16.94791,-2.49248 5.46571,-1.05954 11.09012,-2.4178 16.53718,-3.58935 2.7305,-0.61612 5.4377,-1.23224 8.1122,-1.83902 2.6138,-0.80749 5.1903,-1.60564 7.7248,-2.38979 2.5392,-0.77015 5.0363,-1.5263 7.4821,-2.26377 1.2229,-0.36407 2.4318,-0.72347 3.622,-1.08288 1.1529,-0.45742 2.2871,-0.91017 3.4074,-1.35826 4.4248,-1.88569 8.8637,-3.19727 12.607,-5.02696 3.6781,-1.90436 7.3094,-3.34197 10.166,-5.07364 2.8332,-1.73633 5.6851,-2.87988 7.6034,-4.28948 1.0596,-0.61612 1.9791,-1.21824 2.8613,-1.67566 0.7748,-0.55077 1.4329,-1.01753 1.965,-1.3956 1.1856,-0.75614 1.7223,-1.32559 1.7223,-1.33025 z" /><path
       style="fill:#e6e6e7"
       inkscape:connector-curvature="0"
       id="path203"
       d="m 860.57512,230.59015 c -1.44228,-1.96038 -2.09574,-3.3093 -5.27901,-2.02572 -3.00591,1.21356 -6.59994,9.89056 -7.47744,12.11232 l -0.028,-0.009 c 0,0 -0.0327,0.10736 -0.0747,0.27072 -0.0654,0.14936 -0.098,0.25672 -0.098,0.25672 l 0.0187,0.009 c -0.63946,2.29644 -3.02458,11.38418 -1.3676,14.17071 1.75501,2.94524 3.09926,2.26844 5.42371,1.57764 2.86121,-0.8495 8.19623,-3.87874 8.19623,-3.87874 l 2.34312,-6.95467 0.1727,-0.52743 2.34311,-6.95467 c 0,-0.005 -2.41779,-5.64308 -4.17279,-8.04687 z" /><rect
       style="fill:#bbbcbf"
       id="rect205"
       y="-50.14381"
       x="895.71149"
       width="2.7631433"
       transform="matrix(0.94761794,0.31940606,-0.31940606,0.94761794,0,0)"
       height="15.248631" /><path
       style="fill:#d0d1d3"
       inkscape:connector-curvature="0"
       id="path207"
       d="m 869.35013,260.9713 c -0.23805,-3.99076 0.14469,-7.93952 1.18556,-11.78092 1.16689,-4.31283 2.73052,-8.11222 4.55554,-11.4822 -2.07707,-0.1587 -6.40389,-0.43408 -7.18804,0.68146 -1.53563,2.17975 -3.2673,7.54745 -3.468,8.18224 -0.22404,0.63012 -2.0864,5.9418 -2.18442,8.61165 -0.0653,1.64298 4.41084,4.30815 7.09936,5.78777 z" /><path
       d="m 1922.2397,70.119427 c 1.8017,1.638313 2.7119,2.828541 5.5731,0.938179 2.7025,-1.787675 4.5042,-11.006107 4.9243,-13.35389 l 0.028,0 c 0,0 0.01,-0.112021 0.019,-0.280053 0.028,-0.158697 0.051,-0.275386 0.051,-0.275386 l -0.023,-0.0047 c 0.1727,-2.380456 0.7048,-11.757584 -1.4702,-14.161378 -2.3058,-2.539153 -3.4867,-1.610308 -5.6338,-0.471423 -2.6278,1.404935 -7.2627,5.428372 -7.2627,5.428372 l -0.9102,7.281394 -0.07,0.55544 -0.9148,7.281394 c 0,0.0093 3.482,5.054968 5.6897,7.062019 z"
       id="path209"
       inkscape:connector-curvature="0"
       style="fill:#e6e6e7" /><path
       d="m 1915.1263,62.894043 1.419,0.182035 1.895,-15.13223 -1.2135,-0.15403 c -0.6488,5.064303 -1.3536,10.100601 -2.1005,15.104225 z"
       id="path211"
       inkscape:connector-curvature="0"
       style="fill:#bbbcbf" /><circle
       transform="matrix(0,-1,1,0,0,0)"
       style="fill:#808183"
       id="circle215"
       r="15.374943"
       cy="1723.8405"
       cx="225.33719" /><circle
       transform="matrix(0,-1,1,0,0,0)"
       style="fill:#bbbcbf"
       id="circle217"
       r="15.192909"
       cy="1723.2803"
       cx="225.85056" /><polygon
       transform="matrix(0,-4.6675603,4.6675603,0,-454.22061,1251.9737)"
       style="fill:#a6a8aa"
       id="polygon219"
       points="319.348,466.591 317.953,468.971 315.146,468.953 313.776,466.554 315.192,464.119 318.014,464.129 " /><polygon
       transform="matrix(0,-4.6675603,4.6675603,0,-454.22061,1251.9737)"
       style="fill:#d0d1d3"
       id="polygon221"
       points="319.38,466.531 317.986,468.917 315.224,468.904 313.853,466.504 315.246,464.117 318.01,464.131 " /><circle
       transform="matrix(0,-1,1,0,0,0)"
       style="fill:#272525"
       id="circle223"
       r="5.9184666"
       cy="1723.2803"
       cx="225.85056" /><path
       style="fill:#e0e0e0"
       inkscape:connector-curvature="0"
       id="path227"
       d="m 1769.8019,137.26228 70.5828,0 0,-161.992346 -70.5828,0 c -6.2779,0 -11.4076,5.134316 -11.4076,11.407517 l 0,139.177309 c 0,6.27321 5.1344,11.40752 11.4076,11.40752 z" /><rect
       transform="matrix(0,-1,1,0,0,0)"
       style="fill:#898988"
       id="rect229"
       y="1840.3846"
       x="-137.26228"
       width="161.99236"
       height="2.2264264" /><path
       style="fill:#59595b"
       inkscape:connector-curvature="0"
       id="path231"
       d="m 1852.7677,126.61091 c 0,-10.43667 0,-131.3358127 0,-140.670933 0,-11.640896 -6.4365,-10.646705 -10.1566,-10.646705 l 0,161.969008 c 3.7201,0 10.1566,0.98952 10.1566,-10.65137 z" /><g
       transform="matrix(0,-4.6675603,4.6675603,0,-454.22061,1251.9737)"
       id="g233"><path
         style="fill:#6d6e70"
         inkscape:connector-curvature="0"
         id="path235"
         d="m 244.252,477.625 -0.35,17.716 c -0.008,0.403 0.315,0.733 0.719,0.733 l 0.488,0 c 0.403,0 0.727,-0.33 0.719,-0.733 l -0.35,-17.716 -1.226,0 z" /><path
         style="fill:#a6a8aa"
         inkscape:connector-curvature="0"
         id="path237"
         d="m 244.622,496.074 0.244,0 0,-18.449 -0.613,0 -0.35,17.716 c -0.008,0.403 0.315,0.733 0.719,0.733 z" /></g><g
       transform="matrix(0,-4.6675603,4.6675603,0,-454.22061,1251.9737)"
       id="g239"><path
         style="fill:#6d6e70"
         inkscape:connector-curvature="0"
         id="path241"
         d="m 252.504,477.625 -0.35,17.716 c -0.008,0.403 0.315,0.733 0.719,0.733 l 0.489,0 c 0.403,0 0.727,-0.33 0.719,-0.733 l -0.351,-17.716 -1.226,0 z" /><path
         style="fill:#a6a8aa"
         inkscape:connector-curvature="0"
         id="path243"
         d="m 252.873,496.074 0.245,0 0,-18.449 -0.613,0 -0.35,17.716 c -0.009,0.403 0.314,0.733 0.718,0.733 z" /></g><g
       transform="matrix(0,-4.6675603,4.6675603,0,-454.22061,1251.9737)"
       id="g245"><path
         style="fill:#6d6e70"
         inkscape:connector-curvature="0"
         id="path247"
         d="m 258.234,477.625 -0.351,17.716 c -0.007,0.403 0.315,0.733 0.719,0.733 l 0.489,0 c 0.403,0 0.727,-0.33 0.719,-0.733 l -0.351,-17.716 -1.225,0 z" /><path
         style="fill:#a6a8aa"
         inkscape:connector-curvature="0"
         id="path249"
         d="m 258.603,496.074 0.244,0 0,-18.449 -0.612,0 -0.351,17.716 c -0.007,0.403 0.315,0.733 0.719,0.733 z" /></g><g
       transform="matrix(0,-4.6675603,4.6675603,0,-454.22061,1251.9737)"
       id="g251"><path
         style="fill:#6d6e70"
         inkscape:connector-curvature="0"
         id="path253"
         d="m 266.653,477.625 -0.35,17.716 c -0.008,0.403 0.315,0.733 0.719,0.733 l 0.489,0 c 0.403,0 0.726,-0.33 0.719,-0.733 l -0.351,-17.716 -1.226,0 z" /><path
         style="fill:#a6a8aa"
         inkscape:connector-curvature="0"
         id="path255"
         d="m 267.022,496.074 0.244,0 0,-18.449 -0.613,0 -0.35,17.716 c -0.007,0.403 0.316,0.733 0.719,0.733 z" /></g><path
       style="fill:#d7d7d7"
       inkscape:connector-curvature="0"
       id="path257"
       d="m 1852.7677,-14.060023 c 0,9.3351203 0,130.234263 0,140.670933 0,8.55564 -3.4773,10.2873 -6.7959,10.6047 l 0,0.0467 c 3.7154,0 10.1566,0.98952 10.1566,-10.65137 0,-10.43667 0,-131.3358127 0,-140.670933 0,-11.640896 -6.4412,-10.646705 -10.1566,-10.646705 l 0,0.04667 c 3.3186,0.312727 6.7959,2.044392 6.7959,10.60003 z" /><g
       transform="matrix(0,-4.6675603,4.6675603,0,-454.22061,1251.9737)"
       id="g259"><rect
         style="fill:#f1f1f2"
         id="rect261"
         y="485.547"
         x="239.272"
         width="8.3769999"
         height="3.1129999" /><rect
         style="fill:#bbbcbf"
         id="rect263"
         y="487.104"
         x="239.272"
         width="8.3769999"
         height="1.557" /><circle
         style="fill:#a6a8aa"
         id="circle265"
         r="0.59500003"
         cy="487.104"
         cx="240.302" /><circle
         style="fill:#a6a8aa"
         id="circle267"
         r="0.59500003"
         cy="487.104"
         cx="246.619" /><rect
         style="fill:#434244"
         id="rect269"
         y="486.96701"
         x="241.286"
         width="4.349"
         height="0.27399999" /></g><g
       transform="matrix(0,-4.6675603,4.6675603,0,-454.22061,1251.9737)"
       id="g271"><rect
         style="fill:#f1f1f2"
         id="rect273"
         y="484.677"
         x="247.717"
         width="8.3769999"
         height="3.1129999" /><rect
         style="fill:#bbbcbf"
         id="rect275"
         y="486.233"
         x="247.717"
         width="8.3769999"
         height="1.557" /><circle
         style="fill:#a6a8aa"
         id="circle277"
         r="0.59500003"
         cy="486.233"
         cx="248.74699" /><circle
         style="fill:#a6a8aa"
         id="circle279"
         r="0.59500003"
         cy="486.233"
         cx="255.064" /><rect
         style="fill:#434244"
         id="rect281"
         y="486.09601"
         x="249.731"
         width="4.349"
         height="0.27500001" /></g><g
       transform="matrix(0,-4.6675603,4.6675603,0,-454.22061,1251.9737)"
       id="g283"><rect
         style="fill:#f1f1f2"
         id="rect285"
         y="483.29901"
         x="256.16101"
         width="8.3769999"
         height="3.112" /><rect
         style="fill:#bbbcbf"
         id="rect287"
         y="484.85501"
         x="256.16101"
         width="8.3769999"
         height="1.556" /><circle
         style="fill:#a6a8aa"
         id="circle289"
         r="0.59500003"
         cy="484.854"
         cx="257.19101" /><circle
         style="fill:#a6a8aa"
         id="circle291"
         r="0.59500003"
         cy="484.854"
         cx="263.509" /><rect
         style="fill:#434244"
         id="rect293"
         y="484.71701"
         x="258.17499"
         width="4.3499999"
         height="0.27500001" /></g><g
       transform="matrix(0,-4.6675603,4.6675603,0,-454.22061,1251.9737)"
       id="g295"><rect
         style="fill:#f1f1f2"
         id="rect297"
         y="482.035"
         x="264.548"
         width="8.3769999"
         height="3.112" /><rect
         style="fill:#bbbcbf"
         id="rect299"
         y="483.59201"
         x="264.548"
         width="8.3769999"
         height="1.556" /><circle
         style="fill:#a6a8aa"
         id="circle301"
         r="0.59500003"
         cy="483.591"
         cx="265.577" /><circle
         style="fill:#a6a8aa"
         id="circle303"
         r="0.59500003"
         cy="483.591"
         cx="271.89499" /><rect
         style="fill:#434244"
         id="rect305"
         y="483.453"
         x="266.56201"
         width="4.349"
         height="0.27500001" /></g><path
       style="fill:#2d1912"
       inkscape:connector-curvature="0"
       id="path309"
       d="m -8.8093333,98.437515 c 0,0 1227.4983333,25.298175 1238.7845333,24.430015 13.3865,-1.02687 17.0412,-13.51259 17.9374,-19.21635 0.6395,-4.060778 4.5135,-29.470976 4.4902,-44.971944 -0.028,-15.4963 -3.6734,-47.833158 -6.1192,-53.1495088 -2.4458,-5.31635113 -6.5252,-11.8602707 -17.1299,-12.6770937 -10.6,-0.8214906 -556.97065,10.6327023 -556.97065,10.6327023 L -8.8093333,98.437515 Z" /><path
       style="fill:#412d26"
       inkscape:connector-curvature="0"
       id="path311"
       d="m -14.527095,102.39094 c 0,0 4.8215902,-4.289489 14.16604589,-4.107454 C 137.12194,100.94399 1217.2467,121.82199 1227.7768,121.01917 c 13.3305,-1.01753 16.9759,-13.4239 17.8674,-19.08565 0.6301,-4.032774 4.4902,-29.279608 4.4668,-44.673222 -0.028,-15.393614 -3.6547,-47.5204314 -6.0958,-52.7994421 -2.4318,-5.27901066 -6.4972,-11.7762546 -17.0553,-12.5837425 C 1216.3972,-8.9397097 -15.040526,15.504304 -15.040526,15.504304 l 0.513431,86.886636 z" /><path
       style="fill:#3a2924"
       inkscape:connector-curvature="0"
       id="path313"
       d="m 1246.9651,92.892453 -1268.918283,0 0,5.050301 1267.335983,0 c 0.4621,-1.423606 1.0035,-3.127266 1.5823,-5.050301 z" /><path
       style="fill:#3a2924"
       inkscape:connector-curvature="0"
       id="path315"
       d="m 1249.3736,46.286864 -1272.129603,0 0,5.0503 1272.722303,0 c -0.1493,-1.600973 -0.35,-3.295298 -0.5927,-5.0503 z" /><path
       style="fill:#53372e"
       inkscape:connector-curvature="0"
       id="path317"
       d="m 1250.013,62.030545 -1270.416553,0 0,2.856547 1270.113153,0 c 0.1214,-0.970853 0.2194,-1.923035 0.3034,-2.856547 z" /><path
       style="fill:#53372e"
       inkscape:connector-curvature="0"
       id="path319"
       d="m 1246.9978,22.505644 -1266.477176,0 0,2.856547 1267.251976,0 c -0.2521,-0.970853 -0.5135,-1.918367 -0.7748,-2.856547 z" /><path
       style="fill:#46322d"
       inkscape:connector-curvature="0"
       id="path321"
       d="m 1248.0853,84.187453 -1267.013904,0 0,3.23462 1266.141104,0 c 0.2894,-1.050201 0.5788,-2.128408 0.8728,-3.23462 z" /><circle
       transform="matrix(0,-1,1,0,0,0)"
       style="fill:#e8e8e8"
       id="circle323"
       r="6.6419382"
       cy="868.79944"
       cx="-85.396355" /><circle
       transform="matrix(0,-1,1,0,0,0)"
       style="fill:#e8e8e8"
       id="circle325"
       r="6.6419382"
       cy="868.79944"
       cx="-27.495207" /><circle
       transform="matrix(0,-1,1,0,0,0)"
       style="fill:#e8e8e8"
       id="circle327"
       r="6.6372709"
       cy="696.04364"
       cx="-56.448097" /><circle
       transform="matrix(0,-1,1,0,0,0)"
       style="fill:#e8e8e8"
       id="circle329"
       r="6.6372709"
       cy="1014.2405"
       cx="-56.448097" /><circle
       transform="matrix(0,-1,1,0,0,0)"
       style="fill:#e8e8e8"
       id="circle331"
       r="6.6372709"
       cy="1097.3418"
       cx="-56.448097" /><circle
       transform="matrix(0,-1,1,0,0,0)"
       style="fill:#e8e8e8"
       id="circle333"
       r="6.6372709"
       cy="1172.1068"
       cx="-56.448097" /><g
       transform="matrix(0,-4.6675603,4.6675603,0,-454.22061,1251.9737)"
       id="g335"><path
         style="fill:#bbbcbf"
         inkscape:connector-curvature="0"
         id="path337"
         d="m 243.146,309.361 c -0.006,0.319 -0.012,0.639 -0.018,0.957 l 25.987,0 c -0.006,-0.318 -0.013,-0.638 -0.018,-0.957 l -25.951,0 z" /><path
         style="fill:#bbbcbf"
         inkscape:connector-curvature="0"
         id="path339"
         d="m 243.331,299.316 c -0.006,0.319 -0.012,0.639 -0.018,0.957 l 25.613,0 c -0.006,-0.318 -0.012,-0.639 -0.018,-0.957 l -25.577,0 z" /><path
         style="fill:#bbbcbf"
         inkscape:connector-curvature="0"
         id="path341"
         d="m 243.526,288.74 c -0.006,0.32 -0.012,0.639 -0.018,0.957 l 25.218,0 c -0.006,-0.318 -0.013,-0.637 -0.019,-0.957 l -25.181,0 z" /><path
         style="fill:#bbbcbf"
         inkscape:connector-curvature="0"
         id="path343"
         d="m 243.735,277.512 c -0.006,0.318 -0.012,0.639 -0.018,0.957 l 24.794,0 c -0.006,-0.318 -0.012,-0.639 -0.019,-0.957 l -24.757,0 z" /><path
         style="fill:#bbbcbf"
         inkscape:connector-curvature="0"
         id="path345"
         d="m 242.974,318.875 c -0.006,0.32 -0.012,0.639 -0.017,0.957 l 26.337,0 c -0.007,-0.318 -0.013,-0.637 -0.019,-0.957 l -26.301,0 z" /><path
         style="fill:#bbbcbf"
         inkscape:connector-curvature="0"
         id="path347"
         d="m 269.976,359.889 c 0,-0.213 -0.003,-0.534 -0.007,-0.957 l -27.666,0 c -0.004,0.401 -0.006,0.722 -0.006,0.957 l 27.679,0 z" /><path
         style="fill:#bbbcbf"
         inkscape:connector-curvature="0"
         id="path349"
         d="m 242.402,351.867 c -0.005,0.328 -0.01,0.646 -0.015,0.957 l 27.495,0 c -0.005,-0.311 -0.011,-0.628 -0.016,-0.957 l -27.464,0 z" /><path
         style="fill:#bbbcbf"
         inkscape:connector-curvature="0"
         id="path351"
         d="m 242.526,344.313 c -0.006,0.323 -0.011,0.642 -0.017,0.957 l 27.245,0 c -0.006,-0.315 -0.011,-0.634 -0.016,-0.957 l -27.212,0 z" /><path
         style="fill:#bbbcbf"
         inkscape:connector-curvature="0"
         id="path353"
         d="m 242.813,327.816 c -0.005,0.321 -0.011,0.641 -0.017,0.958 l 26.662,0 c -0.006,-0.317 -0.011,-0.637 -0.017,-0.958 l -26.628,0 z" /><path
         style="fill:#bbbcbf"
         inkscape:connector-curvature="0"
         id="path355"
         d="m 242.665,336.229 c -0.005,0.322 -0.011,0.641 -0.017,0.957 l 26.963,0 c -0.006,-0.316 -0.012,-0.635 -0.017,-0.957 l -26.929,0 z" /><path
         style="fill:#bbbcbf"
         inkscape:connector-curvature="0"
         id="path357"
         d="m 244.198,252.788 c -0.005,0.319 -0.012,0.639 -0.018,0.957 l 23.856,0 c -0.006,-0.318 -0.012,-0.638 -0.018,-0.957 l -23.82,0 z" /><path
         style="fill:#bbbcbf"
         inkscape:connector-curvature="0"
         id="path359"
         d="m 246.341,140.331 c -0.006,0.318 -0.013,0.637 -0.019,0.957 l 19.519,0 c -0.006,-0.32 -0.013,-0.639 -0.019,-0.957 l -19.481,0 z" /><path
         style="fill:#bbbcbf"
         inkscape:connector-curvature="0"
         id="path361"
         d="m 245.633,177.241 c -0.006,0.318 -0.012,0.637 -0.019,0.956 l 20.951,0 c -0.006,-0.319 -0.013,-0.638 -0.019,-0.956 l -20.913,0 z" /><path
         style="fill:#bbbcbf"
         inkscape:connector-curvature="0"
         id="path363"
         d="m 245.976,159.313 c -0.006,0.317 -0.012,0.637 -0.018,0.957 l 20.256,0 c -0.006,-0.32 -0.013,-0.64 -0.019,-0.957 l -20.219,0 z" /><path
         style="fill:#bbbcbf"
         inkscape:connector-curvature="0"
         id="path365"
         d="m 246.728,120.233 c -0.006,0.317 -0.012,0.637 -0.019,0.957 l 18.735,0 c -0.007,-0.32 -0.013,-0.64 -0.019,-0.957 l -18.697,0 z" /><path
         style="fill:#bbbcbf"
         inkscape:connector-curvature="0"
         id="path367"
         d="m 243.96,265.466 c -0.006,0.319 -0.012,0.638 -0.018,0.957 l 24.338,0 c -0.006,-0.319 -0.012,-0.638 -0.018,-0.957 l -24.302,0 z" /><path
         style="fill:#bbbcbf"
         inkscape:connector-curvature="0"
         id="path369"
         d="m 245.311,194.112 c -0.006,0.319 -0.012,0.638 -0.019,0.957 l 21.604,0 c -0.007,-0.319 -0.013,-0.638 -0.02,-0.957 l -21.565,0 z" /><path
         style="fill:#bbbcbf"
         inkscape:connector-curvature="0"
         id="path371"
         d="m 244.72,225.16 c -0.006,0.319 -0.012,0.638 -0.019,0.956 l 22.799,0 c -0.006,-0.318 -0.012,-0.637 -0.019,-0.956 l -22.761,0 z" /><path
         style="fill:#bbbcbf"
         inkscape:connector-curvature="0"
         id="path373"
         d="m 244.451,239.401 c -0.006,0.319 -0.012,0.639 -0.018,0.957 l 23.345,0 c -0.006,-0.318 -0.012,-0.638 -0.018,-0.957 l -23.309,0 z" /><path
         style="fill:#bbbcbf"
         inkscape:connector-curvature="0"
         id="path375"
         d="m 245.004,210.183 c -0.006,0.318 -0.012,0.638 -0.019,0.957 l 22.223,0 c -0.006,-0.319 -0.012,-0.639 -0.018,-0.957 l -22.186,0 z" /></g><g
       transform="matrix(0,-4.6675603,4.6675603,0,-454.22061,1251.9737)"
       id="g377"><path
         style="fill:#ededed"
         inkscape:connector-curvature="0"
         id="path379"
         d="m 242.978,318.676 c -0.006,0.32 -0.012,0.639 -0.018,0.957 l 26.33,0 c -0.006,-0.318 -0.012,-0.637 -0.018,-0.957 l -26.294,0 z" /><path
         style="fill:#ededed"
         inkscape:connector-curvature="0"
         id="path381"
         d="m 243.15,309.161 c -0.006,0.32 -0.011,0.64 -0.017,0.957 l 25.979,0 c -0.006,-0.317 -0.013,-0.636 -0.018,-0.957 l -25.944,0 z" /><path
         style="fill:#ededed"
         inkscape:connector-curvature="0"
         id="path383"
         d="m 243.334,299.116 c -0.006,0.319 -0.012,0.639 -0.018,0.957 l 25.606,0 c -0.006,-0.317 -0.012,-0.638 -0.019,-0.957 l -25.569,0 z" /><path
         style="fill:#ededed"
         inkscape:connector-curvature="0"
         id="path385"
         d="m 243.53,288.541 c -0.006,0.319 -0.012,0.639 -0.018,0.957 l 25.21,0 c -0.006,-0.318 -0.013,-0.638 -0.019,-0.957 l -25.173,0 z" /><path
         style="fill:#ededed"
         inkscape:connector-curvature="0"
         id="path387"
         d="m 242.668,336.029 c -0.005,0.322 -0.011,0.641 -0.017,0.957 l 26.956,0 c -0.006,-0.316 -0.012,-0.636 -0.017,-0.957 l -26.922,0 z" /><path
         style="fill:#ededed"
         inkscape:connector-curvature="0"
         id="path389"
         d="m 269.974,359.689 c -10e-4,-0.238 -0.004,-0.557 -0.008,-0.957 l -27.661,0 c -0.004,0.385 -0.006,0.705 -0.007,0.957 l 27.676,0 z" /><path
         style="fill:#ededed"
         inkscape:connector-curvature="0"
         id="path391"
         d="m 243.738,277.312 c -0.006,0.319 -0.011,0.639 -0.018,0.957 l 24.787,0 c -0.006,-0.318 -0.012,-0.638 -0.019,-0.957 l -24.75,0 z" /><path
         style="fill:#ededed"
         inkscape:connector-curvature="0"
         id="path393"
         d="m 242.405,351.668 c -0.005,0.328 -0.01,0.646 -0.015,0.957 l 27.489,0 c -0.006,-0.31 -0.011,-0.629 -0.016,-0.957 l -27.458,0 z" /><path
         style="fill:#ededed"
         inkscape:connector-curvature="0"
         id="path395"
         d="m 242.529,344.114 c -0.006,0.323 -0.011,0.642 -0.017,0.956 l 27.237,0 c -0.005,-0.314 -0.01,-0.633 -0.016,-0.956 l -27.204,0 z" /><path
         style="fill:#ededed"
         inkscape:connector-curvature="0"
         id="path397"
         d="m 242.817,327.617 c -0.006,0.321 -0.012,0.641 -0.017,0.957 l 26.655,0 c -0.006,-0.316 -0.012,-0.636 -0.018,-0.957 l -26.62,0 z" /><path
         style="fill:#ededed"
         inkscape:connector-curvature="0"
         id="path399"
         d="m 245.98,159.112 c -0.006,0.318 -0.012,0.638 -0.019,0.957 l 20.249,0 c -0.006,-0.319 -0.012,-0.639 -0.019,-0.957 l -20.211,0 z" /><path
         style="fill:#ededed"
         inkscape:connector-curvature="0"
         id="path401"
         d="m 245.636,177.041 c -0.006,0.318 -0.012,0.639 -0.018,0.957 l 20.943,0 c -0.006,-0.319 -0.013,-0.639 -0.019,-0.957 l -20.906,0 z" /><path
         style="fill:#ededed"
         inkscape:connector-curvature="0"
         id="path403"
         d="m 246.345,140.132 c -0.006,0.318 -0.013,0.636 -0.019,0.957 l 19.511,0 c -0.006,-0.32 -0.012,-0.64 -0.019,-0.957 l -19.473,0 z" /><path
         style="fill:#ededed"
         inkscape:connector-curvature="0"
         id="path405"
         d="m 243.964,265.267 c -0.006,0.319 -0.012,0.638 -0.018,0.956 l 24.332,0 c -0.007,-0.318 -0.013,-0.637 -0.019,-0.956 l -24.295,0 z" /><path
         style="fill:#ededed"
         inkscape:connector-curvature="0"
         id="path407"
         d="m 246.731,120.034 c -0.006,0.316 -0.012,0.636 -0.018,0.957 l 18.728,0 c -0.007,-0.321 -0.013,-0.641 -0.019,-0.957 l -18.691,0 z" /><path
         style="fill:#ededed"
         inkscape:connector-curvature="0"
         id="path409"
         d="m 245.314,193.913 c -0.006,0.318 -0.012,0.638 -0.018,0.956 l 21.597,0 c -0.007,-0.318 -0.013,-0.638 -0.02,-0.956 l -21.559,0 z" /><path
         style="fill:#ededed"
         inkscape:connector-curvature="0"
         id="path411"
         d="m 245.008,209.982 c -0.006,0.319 -0.012,0.638 -0.018,0.958 l 22.216,0 c -0.006,-0.32 -0.012,-0.639 -0.019,-0.958 l -22.179,0 z" /><path
         style="fill:#ededed"
         inkscape:connector-curvature="0"
         id="path413"
         d="m 244.455,239.202 c -0.006,0.319 -0.012,0.639 -0.019,0.957 l 23.337,0 c -0.006,-0.318 -0.012,-0.638 -0.018,-0.957 l -23.3,0 z" /><path
         style="fill:#ededed"
         inkscape:connector-curvature="0"
         id="path415"
         d="m 244.202,252.589 c -0.006,0.318 -0.012,0.639 -0.018,0.957 l 23.848,0 c -0.006,-0.318 -0.012,-0.639 -0.018,-0.957 l -23.812,0 z" /><path
         style="fill:#ededed"
         inkscape:connector-curvature="0"
         id="path417"
         d="m 244.724,224.96 c -0.006,0.319 -0.012,0.639 -0.018,0.958 l 22.792,0 c -0.006,-0.319 -0.012,-0.639 -0.019,-0.958 l -22.755,0 z" /></g><path
       style="fill:#bbbcbf"
       inkscape:connector-curvature="0"
       id="path419"
       d="m 8.6006667,15.028212 c -1.5589652,0.03267 -3.0479169,0.06068 -4.4668552,0.09335 l 0,83.250605 c 1.4189383,0.02801 2.9032225,0.05601 4.4668552,0.08868 l 0,-83.432641 z" /><path
       style="fill:#ffffff"
       inkscape:connector-curvature="0"
       id="path421"
       d="m 7.6718222,15.046883 c -2.4598043,0.05134 -4.7375737,0.09335 -6.81463807,0.130691 l 0,83.129249 c 2.07239677,0.03734 4.35483377,0.08402 6.81463807,0.130692 l 0,-83.390632 z" /><circle
       transform="matrix(0,-1,1,0,0,0)"
       style="fill:#e8e8e8"
       id="circle423"
       r="6.6372709"
       cy="563.56421"
       cx="-56.448097" /><circle
       transform="matrix(0,-1,1,0,0,0)"
       style="fill:#e8e8e8"
       id="circle425"
       r="6.6372709"
       cy="414.14169"
       cx="-56.452797" /><circle
       transform="matrix(0,-1,1,0,0,0)"
       style="fill:#e8e8e8"
       id="circle427"
       r="6.6372709"
       cy="246.42216"
       cx="-56.452797" /><path
       style="fill:#cca871"
       inkscape:connector-curvature="0"
       id="path429"
       d="m -67.531909,160.21734 c 11.533541,2.18909 39.263517,-4.10745 42.712844,-22.68901 4.070113,-21.89552 7.449426,-33.96583 7.449426,-33.96583 L -46.919963,15.168239 c 0,0 -21.228064,-16.2711149 -30.95526,-31.141962 -9.727196,-14.875515 -10.333979,-24.798748 -10.333979,-24.798748 l -11.692238,-0.560107 -143.49014,39.3755385 c 0,0 -51.62788,0.4387507 -58.64789,0.2940563 -12.23368,-0.2427131 -11.91629,-4.2614825 -29.45231,-23.3191308 C -349.02314,-44.039763 -376.5384,-42.6675 -376.5384,-42.6675 l 66.40538,50.7177098 c 0,0 235.571765,150.8322102 242.601111,152.1671302 z" /><path
       style="fill:#ebc342;fill-opacity:1"
       inkscape:connector-curvature="0"
       id="path431"
       d="m -14.527095,102.56364 c 0,0 -14.796166,11.30483 -17.84875,31.30066 -3.04325,19.99583 -16.943244,29.48498 -39.986989,25.41953 -23.048413,-4.07011 -283.558956,-59.856792 -334.510046,-70.158098 -42.14807,-8.518297 -54.8625,-52.589402 -48.29058,-84.3008064 4.03744,-19.4730616 29.03223,-45.1166376 55.40394,-48.2112306 31.61339,-3.715378 50.38632,8.387606 60.67362,20.672625 10.9921,13.1391821 13.98401,19.9958282 44.3885,19.9911606 25.34018,0 39.02547,-5.6057399 76.93539,-19.9911606 44.82725,-17.003922 122.010031,-18.973633 122.010031,-18.973633 0,0 -0.812155,4.060778 6.207855,18.623566 7.020011,14.5581204 29.662346,36.96241 55.259247,38.236654 7.015343,0.354734 19.538407,0.07468 19.538407,0.07468 l 0.219375,87.316052 z" /><circle
       transform="matrix(0,-1,1,0,0,0)"
       style="fill:#e6e6e7"
       id="circle441"
       r="22.31094"
       cy="-75.116692"
       cx="-102.07824" /><circle
       transform="matrix(0,-1,1,0,0,0)"
       style="fill:#e6e6e7"
       id="circle443"
       r="22.31094"
       cy="-170.67099"
       cx="-82.143036" /><circle
       transform="matrix(0,-1,1,0,0,0)"
       style="fill:#e6e6e7"
       id="circle445"
       r="22.31094"
       cy="-265.94989"
       cx="-62.091248" /><circle
       transform="matrix(0,-1,1,0,0,0)"
       style="fill:#e6e6e7"
       id="circle447"
       r="22.31094"
       cy="-361.04678"
       cx="-42.832859" /><circle
       transform="matrix(0,-1,1,0,0,0)"
       style="fill:#6d6e70"
       id="circle449"
       r="18.077461"
       cy="-76.535637"
       cx="-102.48428" /><circle
       transform="matrix(0,-1,1,0,0,0)"
       style="fill:#6d6e70"
       id="circle451"
       r="18.077461"
       cy="-172.08994"
       cx="-82.544441" /><circle
       transform="matrix(0,-1,1,0,0,0)"
       style="fill:#6d6e70"
       id="circle453"
       r="18.077461"
       cy="-267.36417"
       cx="-62.492649" /><circle
       transform="matrix(0,-1,1,0,0,0)"
       style="fill:#6d6e70"
       id="circle455"
       r="18.077461"
       cy="-362.46103"
       cx="-43.234264" /><path
       sodipodi:nodetypes="ccccc"
       inkscape:connector-curvature="0"
       id="rect457"
       d="m 20.937226,-1841.0277 2.525098,0 -0.0097,2204.82287 -2.525098,0 z"
       style="fill:#bbbcbf"
       transform="matrix(0.01260026,0.99992061,-0.99992061,0.01260026,0,0)" /><path
       sodipodi:nodetypes="ccccc"
       inkscape:connector-curvature="0"
       id="rect459"
       d="m -48.701546,-270.57092 4.182134,0 11.505466,2113.18582 -4.182134,0 z"
       style="fill:#bbbcbf"
       transform="matrix(0,-1,1,0,0,0)" /><path
       sodipodi:nodetypes="ccccc"
       inkscape:connector-curvature="0"
       id="rect461"
       d="m -69.639579,-175.79366 5.054967,0 -9.483543,2016.23446 -5.054967,0 z"
       style="fill:#bbbcbf"
       transform="matrix(0,-1,1,0,0,0)" /><path
       sodipodi:nodetypes="ccccc"
       inkscape:connector-curvature="0"
       id="rect463"
       d="m 81.320112,-1841.9177 6.805429,0 4.269743,1920.576133 -6.805429,0 z"
       style="fill:#bbbcbf"
       transform="matrix(-0.01539971,0.99988142,-0.99988142,-0.01539971,0,0)" /><g
       transform="matrix(0,-4.6675603,4.6675603,0,-454.22061,1251.9737)"
       id="g465"><path
         style="fill:#a6a8aa"
         inkscape:connector-curvature="0"
         id="path467"
         d="m 229.055,65.964 c -3.767,-0.616 -5.008,3.59 -5.008,3.59 0,0 -3.213,0.517 -3.83,3.484 -0.617,2.968 2.125,4.721 2.125,4.721 0,0 -0.539,4.354 3.163,5.288 4.125,1.042 4.731,-2.384 6.157,-3.929 1.158,-1.255 3.176,-1.019 3.176,-1.019 l 0.799,-3.883 c 0,0 -1.938,-0.583 -2.5,-2.196 -0.692,-1.984 0.116,-5.368 -4.082,-6.056 z" /><path
         style="fill:#c1c1c1"
         inkscape:connector-curvature="0"
         id="path469"
         d="m 228.924,65.783 c -3.768,-0.617 -5.008,3.591 -5.008,3.591 0,0 -3.213,0.516 -3.83,3.483 -0.617,2.968 2.125,4.722 2.125,4.722 0,0 -0.538,4.353 3.164,5.287 4.125,1.041 4.731,-2.384 6.158,-3.93 1.157,-1.253 3.336,-0.99 3.336,-0.99 l 0.804,-3.868 c 0,0 -2.104,-0.625 -2.666,-2.237 -0.693,-1.985 0.115,-5.368 -4.083,-6.058 z" /><path
         style="fill:#59595b"
         inkscape:connector-curvature="0"
         id="path471"
         d="m 232.056,74.106 c -0.098,-0.021 -0.565,0.309 -0.733,1.121 -0.169,0.813 0.109,1.322 0.221,1.346 0.112,0.022 3.463,0.707 3.463,0.707 l 0.513,-2.467 c 0,0 -3.365,-0.686 -3.464,-0.707 z" /><path
         style="fill:#e6e6e7"
         inkscape:connector-curvature="0"
         id="path473"
         d="m 231.265,75.67 3.908,0.813 0.181,-0.87 -3.906,-0.813 c -0.047,0.127 -0.092,0.266 -0.125,0.428 -0.034,0.162 -0.05,0.307 -0.058,0.442 z" /></g><g
       transform="matrix(0,-4.6675603,4.6675603,0,-454.22061,1251.9737)"
       id="g475"><path
         style="fill:#a6a8aa"
         inkscape:connector-curvature="0"
         id="path477"
         d="m 233.285,45.845 c -3.768,-0.617 -5.008,3.59 -5.008,3.59 0,0 -3.213,0.517 -3.83,3.484 -0.617,2.967 2.125,4.722 2.125,4.722 0,0 -0.539,4.353 3.164,5.287 4.125,1.042 4.731,-2.385 6.157,-3.93 1.157,-1.254 3.175,-1.018 3.175,-1.018 l 0.8,-3.883 c 0,0 -1.938,-0.584 -2.5,-2.195 -0.694,-1.985 0.114,-5.369 -4.083,-6.057 z" /><path
         style="fill:#c1c1c1"
         inkscape:connector-curvature="0"
         id="path479"
         d="m 233.153,45.664 c -3.768,-0.616 -5.008,3.589 -5.008,3.589 0,0 -3.213,0.518 -3.83,3.485 -0.617,2.968 2.125,4.722 2.125,4.722 0,0 -0.539,4.352 3.163,5.287 4.125,1.041 4.731,-2.385 6.158,-3.93 1.157,-1.254 3.336,-0.99 3.336,-0.99 l 0.804,-3.868 c 0,0 -2.104,-0.626 -2.666,-2.237 -0.692,-1.985 0.116,-5.369 -4.082,-6.058 z" /><path
         style="fill:#59595b"
         inkscape:connector-curvature="0"
         id="path481"
         d="m 236.285,53.986 c -0.099,-0.02 -0.565,0.311 -0.734,1.121 -0.168,0.813 0.109,1.323 0.221,1.347 0.112,0.022 3.464,0.706 3.464,0.706 l 0.512,-2.466 c 0.001,0 -3.364,-0.687 -3.463,-0.708 z" /><path
         style="fill:#e6e6e7"
         inkscape:connector-curvature="0"
         id="path483"
         d="m 235.495,55.55 3.907,0.813 0.181,-0.87 -3.906,-0.812 c -0.047,0.127 -0.092,0.266 -0.125,0.427 -0.034,0.163 -0.05,0.308 -0.057,0.442 z" /></g><g
       transform="matrix(0,-4.6675603,4.6675603,0,-454.22061,1251.9737)"
       id="g485"><path
         style="fill:#a6a8aa"
         inkscape:connector-curvature="0"
         id="path487"
         d="m 237.52,25.946 c -3.766,-0.628 -5.018,3.576 -5.018,3.576 0,0 -3.215,0.507 -3.84,3.473 -0.625,2.966 2.111,4.729 2.111,4.729 0,0 -0.551,4.351 3.148,5.296 4.122,1.053 4.738,-2.371 6.168,-3.912 1.161,-1.25 3.179,-1.009 3.179,-1.009 l 0.811,-3.88 c 0,0 -1.937,-0.59 -2.494,-2.203 -0.688,-1.987 0.13,-5.369 -4.065,-6.07 z" /><path
         style="fill:#c1c1c1"
         inkscape:connector-curvature="0"
         id="path489"
         d="m 237.389,25.766 c -3.766,-0.628 -5.019,3.575 -5.019,3.575 0,0 -3.215,0.508 -3.84,3.474 -0.625,2.966 2.111,4.728 2.111,4.728 0,0 -0.551,4.351 3.148,5.296 4.122,1.054 4.738,-2.37 6.169,-3.911 1.161,-1.251 3.339,-0.98 3.339,-0.98 l 0.814,-3.866 c 0,0 -2.102,-0.632 -2.659,-2.245 -0.685,-1.988 0.133,-5.371 -4.063,-6.071 z" /><path
         style="fill:#59595b"
         inkscape:connector-curvature="0"
         id="path491"
         d="m 240.497,34.098 c -0.099,-0.021 -0.566,0.308 -0.737,1.118 -0.171,0.813 0.105,1.323 0.217,1.347 0.112,0.023 3.462,0.717 3.462,0.717 l 0.52,-2.464 c -0.001,-0.001 -3.363,-0.698 -3.462,-0.718 z" /><path
         style="fill:#e6e6e7"
         inkscape:connector-curvature="0"
         id="path493"
         d="m 239.702,35.658 3.905,0.824 0.183,-0.87 -3.904,-0.823 c -0.047,0.127 -0.092,0.266 -0.126,0.427 -0.034,0.163 -0.05,0.308 -0.058,0.442 z" /></g><g
       transform="matrix(0,-4.6675603,4.6675603,0,-454.22061,1251.9737)"
       id="g495"><path
         style="fill:#a6a8aa"
         inkscape:connector-curvature="0"
         id="path497"
         d="m 241.745,5.753 c -3.768,-0.618 -5.008,3.59 -5.008,3.59 0,0 -3.213,0.516 -3.83,3.483 -0.617,2.968 2.125,4.722 2.125,4.722 0,0 -0.539,4.354 3.164,5.287 4.125,1.042 4.731,-2.384 6.157,-3.929 1.157,-1.254 3.176,-1.019 3.176,-1.019 l 0.799,-3.882 c 0,0 -1.938,-0.585 -2.5,-2.196 -0.693,-1.985 0.115,-5.368 -4.083,-6.056 z" /><path
         style="fill:#c1c1c1"
         inkscape:connector-curvature="0"
         id="path499"
         d="m 241.614,5.571 c -3.768,-0.617 -5.008,3.59 -5.008,3.59 0,0 -3.213,0.517 -3.83,3.484 -0.617,2.968 2.125,4.721 2.125,4.721 0,0 -0.539,4.354 3.163,5.288 4.125,1.042 4.731,-2.384 6.158,-3.929 1.157,-1.255 3.336,-0.99 3.336,-0.99 l 0.804,-3.869 c 0,0 -2.104,-0.626 -2.666,-2.237 -0.692,-1.983 0.116,-5.368 -4.082,-6.058 z" /><path
         style="fill:#59595b"
         inkscape:connector-curvature="0"
         id="path501"
         d="m 244.746,13.894 c -0.099,-0.02 -0.565,0.31 -0.734,1.122 -0.168,0.812 0.11,1.322 0.221,1.346 0.112,0.022 3.464,0.707 3.464,0.707 l 0.512,-2.467 c 0,0 -3.364,-0.687 -3.463,-0.708 z" /><path
         style="fill:#e6e6e7"
         inkscape:connector-curvature="0"
         id="path503"
         d="m 243.955,15.458 3.908,0.813 0.181,-0.87 -3.906,-0.812 c -0.047,0.127 -0.092,0.265 -0.125,0.427 -0.034,0.163 -0.05,0.307 -0.058,0.442 z" /></g><circle
       transform="matrix(0,-1,1,0,0,0)"
       style="fill:#929496"
       id="circle505"
       r="18.077461"
       cy="-78.570679"
       cx="-102.60564" /><circle
       transform="matrix(0,-1,1,0,0,0)"
       style="fill:#bbbcbf"
       id="circle507"
       r="16.485823"
       cy="-82.001335"
       cx="-102.60564" /><circle
       transform="matrix(0,-1,1,0,0,0)"
       style="fill:#e6e6e7"
       id="circle509"
       r="14.497442"
       cy="-82.006004"
       cx="-102.60564" /><path
       style="fill:#929496"
       inkscape:connector-curvature="0"
       id="path511"
       d="m -73.413035,114.26988 c 1.722329,-1.26958 3.159938,-2.90322 4.182134,-4.79825 L -90.771692,91.076772 c -1.694325,1.297582 -3.103928,2.954566 -4.093451,4.863598 l 21.452108,18.32951 z" /><circle
       transform="matrix(0,-1,1,0,0,0)"
       style="fill:#929496"
       id="circle513"
       r="18.072794"
       cy="-174.12498"
       cx="-82.665802" /><circle
       transform="matrix(0,-1,1,0,0,0)"
       style="fill:#bbbcbf"
       id="circle515"
       r="16.485823"
       cy="-177.55565"
       cx="-82.665802" /><circle
       transform="matrix(0,-1,1,0,0,0)"
       style="fill:#e6e6e7"
       id="circle517"
       r="14.497442"
       cy="-177.55565"
       cx="-82.665802" /><path
       style="fill:#929496"
       inkscape:connector-curvature="0"
       id="path519"
       d="m -164.18775,88.131542 c 0.80282,-1.983713 1.18556,-4.121456 1.06887,-6.273201 l -27.96802,-4.480858 c -0.77481,1.993048 -1.11554,4.140126 -0.96618,6.287204 l 27.86533,4.466855 z" /><circle
       transform="matrix(0,-1,1,0,0,0)"
       style="fill:#929496"
       id="circle521"
       r="18.077461"
       cy="-269.4039"
       cx="-62.618641" /><circle
       transform="matrix(0,-1,1,0,0,0)"
       style="fill:#bbbcbf"
       id="circle523"
       r="16.481155"
       cy="-272.83453"
       cx="-62.618641" /><circle
       transform="matrix(0,-1,1,0,0,0)"
       style="fill:#e6e6e7"
       id="circle525"
       r="14.50211"
       cy="-272.8299"
       cx="-62.618641" /><path
       style="fill:#929496"
       inkscape:connector-curvature="0"
       id="path527"
       d="m -270.72481,76.985408 c 2.1144,-0.312727 4.15879,-1.068871 5.9418,-2.259099 l -10.33398,-26.371716 c -2.10973,0.340732 -4.13079,1.138885 -5.90913,2.357118 l 10.30131,26.273697 z" /><circle
       transform="matrix(0,-1,1,0,0,0)"
       style="fill:#929496"
       id="circle529"
       r="18.077461"
       cy="-364.50076"
       cx="-43.365025" /><circle
       transform="matrix(0,-1,1,0,0,0)"
       style="fill:#bbbcbf"
       id="circle531"
       r="16.485823"
       cy="-367.93143"
       cx="-43.365025" /><circle
       transform="matrix(0,-1,1,0,0,0)"
       style="fill:#e6e6e7"
       id="circle533"
       r="14.50211"
       cy="-367.93143"
       cx="-43.365025" /><path
       style="fill:#929496"
       inkscape:connector-curvature="0"
       id="path535"
       d="m -354.37216,48.331255 c 0.72814,-2.007051 1.0362,-4.163464 0.84016,-6.305874 l -28.11271,-3.46333 c -0.69547,2.021054 -0.95685,4.182135 -0.72814,6.319877 l 28.00069,3.449327 z" /><circle
       transform="matrix(0,-1,1,0,0,0)"
       style="fill:#d0d1d3"
       id="circle537"
       r="18.716917"
       cy="-144.03789"
       cx="-35.906158" /><circle
       transform="matrix(0,-1,1,0,0,0)"
       style="fill:#929496"
       id="circle539"
       r="12.826455"
       cy="-144.03789"
       cx="-35.906158" /><circle
       transform="matrix(0,-1,1,0,0,0)"
       style="fill:#d0d1d3"
       id="circle541"
       r="11.6689"
       cy="-144.03789"
       cx="-35.906158" /><circle
       transform="matrix(0,-1,1,0,0,0)"
       style="fill:#808183"
       id="circle543"
       r="7.0480161"
       cy="-144.04254"
       cx="-35.906158" /><rect
       style="fill:#d0d1d3"
       id="rect545"
       y="-100.38971"
       x="106.17408"
       width="8.088788"
       transform="matrix(-0.88261025,-0.47010546,0.47010546,-0.88261025,0,0)"
       height="2.0817077" /><rect
       style="fill:#d0d1d3"
       id="rect547"
       y="109.2007"
       x="95.36496"
       width="8.0937433"
       transform="matrix(-0.46978875,0.88277887,-0.88277887,-0.46978875,0,0)"
       height="2.0817819" /></g></svg>