<?xml version="1.0" encoding="UTF-8" standalone="no"?>
<!-- Generator: Adobe Illustrator 16.0.0, SVG Export Plug-In . SVG Version: 6.00 Build 0)  -->

<svg
   xmlns:dc="http://purl.org/dc/elements/1.1/"
   xmlns:cc="http://creativecommons.org/ns#"
   xmlns:rdf="http://www.w3.org/1999/02/22-rdf-syntax-ns#"
   xmlns:svg="http://www.w3.org/2000/svg"
   xmlns="http://www.w3.org/2000/svg"
   xmlns:sodipodi="http://sodipodi.sourceforge.net/DTD/sodipodi-0.dtd"
   xmlns:inkscape="http://www.inkscape.org/namespaces/inkscape"
   version="1.1"
   id="Layer_1"
   x="0px"
   y="0px"
   width="1000"
   height="115"
   viewBox="0 0 1000 115"
   enable-background="new 0 0 500 1500"
   xml:space="preserve"
   inkscape:version="0.91 r13725"
   sodipodi:docname="precision-bass-5-fretboard.svg"><metadata
     id="metadata515"><rdf:RDF><cc:Work
         rdf:about=""><dc:format>image/svg+xml</dc:format><dc:type
           rdf:resource="http://purl.org/dc/dcmitype/StillImage" /></cc:Work></rdf:RDF></metadata><defs
     id="defs513" /><sodipodi:namedview
     pagecolor="#ffffff"
     bordercolor="#666666"
     borderopacity="1"
     objecttolerance="10"
     gridtolerance="10"
     guidetolerance="10"
     inkscape:pageopacity="0"
     inkscape:pageshadow="2"
     inkscape:window-width="1920"
     inkscape:window-height="1018"
     id="namedview511"
     showgrid="false"
     inkscape:zoom="0.89001174"
     inkscape:cx="358.83965"
     inkscape:cy="33.939581"
     inkscape:window-x="1912"
     inkscape:window-y="-8"
     inkscape:window-maximized="1"
     inkscape:current-layer="Layer_1" /><g
     id="g5539"><path
       d="m 1041.5732,115.9181 c 0,0 30.4091,8.88769 16.9234,51.08959 -9.8992,30.97335 -58.825,45.19081 -102.17916,49.49319 -41.83046,4.15065 -84.16039,7.81763 -88.45013,41.5096 -8.1211,63.76123 96.92055,84.86534 155.82459,86.21517 125.4882,2.87352 198.6145,-60.13376 304.9791,-56.32927 74.9993,2.68386 93.2014,18.33017 155.4674,48.66496 54.1923,26.40227 130.1178,56.82716 198.2082,49.05063 71.6089,-8.17801 114.6612,-34.97859 156.5169,-83.87905 30.044,-35.10029 58.4299,-91.9148 55.3446,-244.720457 -2.6285,-130.125694 -0.7176,-249.542853 -114.1475,-309.575453 -72.407,-38.32154 -169.296,-17.06095 -193.1045,-11.49883 -79.1404,18.48822 -188.3943,91.00437 -229.749,87.5966 -71.0968,-5.85926 -86.9929,-52.86618 -205.4727,-52.47103 -96.1145,0.31928 -109.4215,61.14218 -99.7799,79.27952 22.1869,41.73878 91.82,4.40037 122.4519,76.225799 9.2592,21.712642 7.2313,47.541154 0.3415,52.619608 -4.1618,3.066356 -8.9636,5.815011 -16.9456,8.049973 -5.8672,1.642239 -8.1338,7.5157325 -8.1338,7.5157325 L 1041.5732,115.9181 Z"
       id="path5"
       inkscape:connector-curvature="0"
       style="fill:#640000" /><path
       d="m 1126.5855,116.12832 c 0,0 -44.1397,35.0339 -23.0198,55.35878 26.6109,25.60407 54.8372,-22.39072 177.3855,-4.86033 126.6121,18.11204 136.0624,50.77347 218.2929,50.35777 81.4639,-0.41095 92.4585,-54.50209 92.4585,-59.88718 0,-5.38509 0.3051,-163.0447619 0.3051,-226.496192 0,-36.397958 29.3122,-71.207408 87.7404,-75.612528 53.7308,-4.05107 114.1601,19.05882 137.0788,44.99639 4.971,5.625341 17.1558,8.276 26.7041,1.77501 9.5453,-6.49941 12.8092,-17.57148 5.314,-36.06445 -8.2839,-20.44816 -45.861,-113.83608 -169.5742,-108.59166 -72.336,3.06636 -120.5236,21.72371 -162.7729,42.17345 -58.4077,28.27054 -110.6354,58.53262 -154.1729,56.08744 -21.8138,-1.22338 -37.7525,-2.15435 -67.5783,-16.0146 -39.3316,-18.278 -83.5361,-38.0228 -129.0335,-37.32734 -68.3513,1.04161 -81.8907,21.12624 -78.1826,30.47072 3.196,8.05471 18.6052,3.04265 51.627,11.24752 27.6161,6.86294 63.1353,42.03594 72.3201,73.948163 16.307,56.683319 -1.9156,76.9939727 -1.9156,76.9939727 L 1126.5855,116.12832 Z"
       id="path7"
       inkscape:connector-curvature="0"
       style="fill:#a6a8aa" /><path
       d="m 1125.9833,112.82013 c 0,0 -44.0385,35.16825 -22.9645,55.57374 26.5461,25.70365 54.7092,-22.47765 176.9714,-4.87771 126.3196,18.18159 135.7479,50.96946 217.7871,50.55218 81.2758,-0.41253 91.1151,-53.79715 91.1151,-59.20278 0,-5.40564 0,-158.9494397 0,-222.644281 0,-42.424769 33.477,-77.115679 90.7483,-80.042939 53.6912,-2.74392 115.4087,18.33016 138.2721,44.36732 4.9583,5.647464 15.6637,7.816041 25.1899,1.28976 9.5231,-6.5247 10.9409,-17.85125 3.4647,-36.41534 -8.265,-20.52561 -45.7535,-114.2739 -169.1807,-109.01052 -72.1684,3.07742 -120.2438,21.80906 -162.3967,42.33626 -58.2718,28.37801 -110.3793,58.75864 -153.8141,56.30397 -21.7632,-1.22812 -37.664,-2.16383 -67.4187,-16.07782 -39.243,-18.34755 -83.3432,-38.16664 -128.7332,-37.47118 -68.1963,1.04636 -82.9702,26.98709 -79.2716,36.36951 3.1897,8.08474 19.8175,4.98678 52.7619,13.22326 27.5513,6.88824 63.0041,34.48544 72.1652,66.522528 16.2723,56.901442 -1.9109,77.2895443 -1.9109,77.2895443 L 1125.9833,112.82013 Z"
       id="path9"
       inkscape:connector-curvature="0"
       style="fill:#f3f3f3" /><g
       transform="matrix(0,-1.5805956,1.5805956,0,-457.44471,451.09288)"
       id="g11"><path
         d="m 189.314,1199.484 0,10.94 c -3.403,1.158 -5.859,4.426 -5.859,8.285 0,3.859 2.456,7.129 5.859,8.286 l 0,11.082 93.255,0 0,-11.081 c 3.402,-1.158 5.858,-4.428 5.858,-8.287 0,-3.859 -2.456,-7.128 -5.858,-8.285 l 0,-10.94 -93.255,0 z"
         id="path13"
         inkscape:connector-curvature="0"
         style="fill:#6d6e70" /><path
         d="m 190.703,1199.484 0,10.005 c -3.403,1.136 -5.859,4.341 -5.859,8.127 0,3.785 2.456,6.99 5.859,8.126 l 0,10.868 93.255,0 0,-10.868 c 3.402,-1.136 5.858,-4.341 5.858,-8.126 0,-3.786 -2.456,-6.991 -5.858,-8.127 l 0,-10.005 -93.255,0 z"
         id="path15"
         inkscape:connector-curvature="0"
         style="fill:#272727" /><circle
         cx="209.23599"
         cy="1219.152"
         r="3.0610001"
         id="circle17"
         style="fill:#5c5c5c" /><circle
         cx="220.474"
         cy="1219.152"
         r="3.0610001"
         id="circle19"
         style="fill:#5c5c5c" /><circle
         cx="231.711"
         cy="1219.152"
         r="3.0610001"
         id="circle21"
         style="fill:#5c5c5c" /><circle
         cx="242.94901"
         cy="1219.152"
         r="3.0610001"
         id="circle23"
         style="fill:#5c5c5c" /><circle
         cx="254.187"
         cy="1219.152"
         r="3.0610001"
         id="circle25"
         style="fill:#5c5c5c" /><circle
         cx="265.42401"
         cy="1219.152"
         r="3.0610001"
         id="circle27"
         style="fill:#5c5c5c" /><circle
         cx="188.54401"
         cy="1217.651"
         r="2.99"
         id="circle29"
         style="fill:#c7c7c7" /><circle
         cx="285.82501"
         cy="1217.651"
         r="2.99"
         id="circle31"
         style="fill:#c7c7c7" /></g><g
       transform="matrix(0,-1.5805956,1.5805956,0,-457.44471,451.09288)"
       id="g33"><path
         d="m 235.849,1236.619 0,10.94 c -3.403,1.158 -5.859,4.427 -5.859,8.286 0,3.858 2.456,7.128 5.859,8.286 l 0,11.081 74.907,0 -0.016,-13.079 c 3.403,-1.158 4.48,-2.43 4.48,-6.288 0,-3.859 -2.456,-7.128 -5.859,-8.286 l 0,-10.94 -73.512,0 z"
         id="path35"
         inkscape:connector-curvature="0"
         style="fill:#6d6e70" /><path
         d="m 237.237,1236.619 0,10.005 c -3.403,1.136 -5.859,4.342 -5.859,8.127 0,3.785 2.456,6.99 5.859,8.126 l 0,10.869 73.513,0 0,-10.868 c 3.403,-1.136 5.859,-4.342 5.859,-8.127 0,-3.785 -2.456,-6.991 -5.859,-8.127 l 0,-10.005 -73.513,0 z"
         id="path37"
         inkscape:connector-curvature="0"
         style="fill:#272727" /><circle
         cx="255.345"
         cy="1256.288"
         r="3.0610001"
         id="circle39"
         style="fill:#5c5c5c" /><circle
         cx="267.80499"
         cy="1256.288"
         r="3.0610001"
         id="circle41"
         style="fill:#5c5c5c" /><circle
         cx="280.267"
         cy="1256.288"
         r="3.0610001"
         id="circle43"
         style="fill:#5c5c5c" /><circle
         cx="292.72699"
         cy="1256.288"
         r="3.0610001"
         id="circle45"
         style="fill:#5c5c5c" /><circle
         cx="235.078"
         cy="1254.787"
         r="2.9909999"
         id="circle47"
         style="fill:#c7c7c7" /><circle
         cx="312.82901"
         cy="1254.787"
         r="2.9909999"
         id="circle49"
         style="fill:#c7c7c7" /></g><rect
       transform="matrix(0,-1,1,0,0,0)"
       x="-75.320503"
       y="1491.6224"
       width="73.045647"
       height="12.960884"
       id="rect51"
       style="fill:#272727" /><circle
       transform="matrix(0,-1,1,0,0,0)"
       cx="-156.88239"
       cy="1115.0377"
       r="5.2902532"
       id="circle53"
       style="fill:#c1c1c1" /><circle
       transform="matrix(0,-1,1,0,0,0)"
       cx="-152.52626"
       cy="1334.1129"
       r="5.2902532"
       id="circle55"
       style="fill:#c1c1c1" /><circle
       transform="matrix(0,-1,1,0,0,0)"
       cx="-189.86943"
       cy="1541.6736"
       r="5.2902532"
       id="circle57"
       style="fill:#c1c1c1" /><circle
       transform="matrix(0,-1,1,0,0,0)"
       cx="-56.993496"
       cy="1574.038"
       r="5.2902532"
       id="circle59"
       style="fill:#c1c1c1" /><circle
       transform="matrix(0,-1,1,0,0,0)"
       cx="84.909241"
       cy="1575.5948"
       r="5.2902532"
       id="circle61"
       style="fill:#c1c1c1" /><circle
       transform="matrix(0,-1,1,0,0,0)"
       cx="148.3891"
       cy="1437.7384"
       r="5.2902532"
       id="circle63"
       style="fill:#c1c1c1" /><circle
       transform="matrix(0,-1,1,0,0,0)"
       cx="23.580507"
       cy="1234.7756"
       r="5.2902532"
       id="circle65"
       style="fill:#c1c1c1" /><path
       d="m -13.238864,103.30969 c 0,0 1230.547464,28.91858 1241.869264,28.07612 11.0183,-0.82033 17.9666,-12.76963 20.7437,-21.80116 1.3799,-4.47941 6.3066,-33.876903 6.3066,-51.600121 0,-21.350685 -5.4863,-54.9177942 -8.4167,-60.7786427 -2.962,-5.9240723 -8.521,-13.2280043 -14.8766,-14.4956423 -11.0072,-2.192286 -558.25053,12.1563608 -558.25053,12.1563608 L -13.238864,103.30969 Z"
       id="path67"
       inkscape:connector-curvature="0"
       style="fill:#2d1912" /><path
       d="m -15.276252,104.80493 c 0,0 4.819236,-2.39934 14.1652977,-2.21757 C 136.33606,105.2475 1216.2148,128.4048 1226.7384,127.60028 c 13.3323,-1.01948 19.2595,-21.42339 20.151,-27.08667 0.6322,-4.032095 4.492,-29.272626 4.4668,-44.662885 -0.025,-15.390259 -3.656,-47.5063815 -6.0917,-52.7855708 -2.4357,-5.2791893 -8.7849,-19.7779932 -19.3401,-20.5888382 C 1215.3692,-18.33453 -15.782043,10.67098 -15.782043,10.67098 l 0.505791,94.13395 z"
       id="path69"
       inkscape:connector-curvature="0"
       style="fill:#412d26" /><path
       d="m -15.304703,99.712253 0.02845,5.048427 0.09642,0 c 0.684398,-0.31454 5.4451521,-2.34087 14.0688817,-2.17332 19.0762083,0.36827 56.3102993,1.13328 106.3124443,2.17332 l 1140.71431,0 c 0.4931,-1.75289 0.8155,-3.23706 0.9736,-4.24707 0.033,-0.20705 0.076,-0.48524 0.1233,-0.801357 l -1262.317403,0 z"
       id="path71"
       inkscape:connector-curvature="0"
       style="fill:#3a2924" /><path
       d="m 1251.2787,59.979241 -1266.795203,0 0.02845,5.046841 1266.515452,0 c 0.1106,-1.730752 0.196,-3.420409 0.2513,-5.046841 z"
       id="path73"
       inkscape:connector-curvature="0"
       style="fill:#3a2924" /><path
       d="m 1249.6222,80.286733 -1265.029642,0 0.01581,2.857717 1264.677236,0 c 0.1122,-0.937294 0.2228,-1.890393 0.3366,-2.857717 z"
       id="path75"
       inkscape:connector-curvature="0"
       style="fill:#53372e" /><path
       d="m 1247.3778,12.188352 -1263.15194,0 0.01581,2.857717 1263.585034,0 c -0.1502,-0.994195 -0.3003,-1.945713 -0.4489,-2.857717 z"
       id="path77"
       inkscape:connector-curvature="0"
       style="fill:#53372e" /><path
       d="m 1249.9573,32.699741 -1265.620798,0 0.01739,3.23706 1265.903711,0 c -0.096,-1.077966 -0.1959,-2.155933 -0.3003,-3.23706 z"
       id="path79"
       inkscape:connector-curvature="0"
       style="fill:#46322d" /><circle
       transform="matrix(0,-1,1,0,0,0)"
       cx="-84.21608"
       cy="867.84515"
       r="6.6353402"
       id="circle81"
       style="fill:#e8e8e8" /><circle
       transform="matrix(0,-1,1,0,0,0)"
       cx="-26.325178"
       cy="867.84515"
       r="6.6353402"
       id="circle83"
       style="fill:#e8e8e8" /><circle
       transform="matrix(0,-1,1,0,0,0)"
       cx="-55.269062"
       cy="695.13037"
       r="6.6353402"
       id="circle85"
       style="fill:#e8e8e8" /><circle
       transform="matrix(0,-1,1,0,0,0)"
       cx="-55.269062"
       cy="1013.2537"
       r="6.6353402"
       id="circle87"
       style="fill:#e8e8e8" /><circle
       transform="matrix(0,-1,1,0,0,0)"
       cx="-55.269062"
       cy="1096.3361"
       r="6.6353402"
       id="circle89"
       style="fill:#e8e8e8" /><circle
       transform="matrix(0,-1,1,0,0,0)"
       cx="-55.269062"
       cy="1171.0808"
       r="6.6353402"
       id="circle91"
       style="fill:#e8e8e8" /><path
       d="m 1175.3991,-108.78095 c 0,0 -8.8071,-15.93557 -31.9091,-24.86909 -30.0329,-11.6158 -38.5871,-9.42351 -49.0364,-11.73276 -11.1448,-2.46415 -15.444,-4.83663 -18.4171,-4.33874 -3.52,0.58482 7.0384,8.91614 15.4851,9.73647 8.4467,0.82033 19.7084,2.57953 40.0049,8.56209 19.6468,5.79446 43.8726,22.64203 43.8726,22.64203 z"
       id="path93"
       inkscape:connector-curvature="0"
       style="opacity:0.7;fill:#ffffff" /><path
       d="m 889.6005,246.79774 c 4.25971,0.99261 27.9718,-7.38455 41.74511,-9.79811 10.89979,-1.91094 38.53492,-3.02526 50.40678,-4.40196 15.90395,-1.84456 23.99821,-4.68489 41.88741,-11.50042 29.4986,-11.23803 37.7699,-27.82954 37.7699,-27.82954 0,0 -18.9466,14.73273 -43.3068,23.28691 -18.602,6.53102 -25.71468,8.39138 -38.19507,9.65428 -11.21906,1.13645 -26.44178,2.90513 -50.54902,5.11165 -20.16366,1.84613 -44.01959,14.48299 -39.75831,15.47719 z"
       id="path95"
       inkscape:connector-curvature="0"
       style="opacity:0.7;fill:#ffffff" /><path
       d="m 1643.8655,371.81337 c 0,0 -45.7393,-7.54893 -105.6881,-31.08558 -79.063,-31.03973 -115.0152,-69.27592 -216.7076,-69.72007 -61.727,-0.2687 -85.2621,16.87444 -186.0677,42.63182 -156.31934,39.94166 -241.13252,-19.53932 -241.13252,-19.53932 0,0 21.44394,33.39799 111.90622,39.96694 134.5561,9.76966 208.6828,-57.83715 314.8483,-57.28552 85.262,0.44414 122.1215,31.08557 201.6097,64.83445 84.2125,35.75623 121.2317,30.19728 121.2317,30.19728 z"
       id="path97"
       inkscape:connector-curvature="0"
       style="opacity:0.7;fill:#ffffff" /><g
       transform="matrix(0,-1.5805956,1.5805956,0,-457.44471,451.09288)"
       id="g99"><path
         d="m 133.597,830.859 c 1.023,-0.801 1.737,-1.179 0.922,-2.827 -0.77,-1.561 -5.643,-3.263 -6.888,-3.678 l 0.003,-0.012 c 0,0 -0.062,-0.016 -0.15,-0.035 -0.084,-0.027 -0.146,-0.048 -0.146,-0.048 l -0.003,0.013 c -1.278,-0.287 -6.333,-1.348 -7.797,-0.411 -1.55,0.992 -1.133,1.685 -0.671,2.898 0.566,1.491 2.41,4.234 2.41,4.234 l 3.887,1.082 0.295,0.083 3.886,1.081 c 0,10e-4 2.999,-1.395 4.252,-2.38 z"
         id="path101"
         inkscape:connector-curvature="0"
         style="fill:#e6e6e7" /><rect
         x="124.389"
         y="828.62701"
         transform="matrix(-0.268,0.9634,-0.9634,-0.268,960.998,935.4953)"
         width="1.456"
         height="8.3830004"
         id="rect103"
         style="fill:#bbbcbf" /><path
         d="m 120.128,832.574 c -1.367,0.491 -2.835,4.537 -3.216,5.651 1.696,-0.048 3.442,0.033 5.245,0.263 2.77,0.353 5.212,1.119 7.383,2.231 0.313,-1.702 0.712,-4.626 -0.026,-5.534 -1.088,-1.335 -4.096,-2.077 -4.455,-2.163 -0.35,-0.109 -3.307,-1.028 -4.931,-0.448 z"
         id="path105"
         inkscape:connector-curvature="0"
         style="fill:#d0d1d3" /></g><g
       transform="matrix(0,-1.5805956,1.5805956,0,-457.44471,451.09288)"
       id="g107"><path
         d="m 207.464,914.973 c -0.019,0.944 -0.038,1.888 -0.057,2.825 l 86.019,0 c -0.021,-0.938 -0.043,-1.881 -0.063,-2.825 l -85.899,0 z"
         id="path109"
         inkscape:connector-curvature="0"
         style="fill:#bbbcbf" /><path
         d="m 206.897,943.062 c -0.019,0.945 -0.038,1.888 -0.057,2.825 l 87.212,0 c -0.021,-0.938 -0.042,-1.88 -0.063,-2.825 l -87.092,0 z"
         id="path111"
         inkscape:connector-curvature="0"
         style="fill:#bbbcbf" /><path
         d="m 208.069,885.316 c -0.02,0.944 -0.039,1.885 -0.058,2.825 l 84.747,0 c -0.021,-0.938 -0.042,-1.882 -0.063,-2.825 l -84.626,0 z"
         id="path113"
         inkscape:connector-curvature="0"
         style="fill:#bbbcbf" /><path
         d="m 208.709,854.094 c -0.019,0.943 -0.039,1.886 -0.058,2.825 l 83.4,0 c -0.021,-0.939 -0.043,-1.882 -0.064,-2.825 l -83.278,0 z"
         id="path115"
         inkscape:connector-curvature="0"
         style="fill:#bbbcbf" /><path
         d="m 206.369,969.462 c -0.019,0.947 -0.038,1.89 -0.056,2.826 l 88.324,0 c -0.021,-0.937 -0.041,-1.879 -0.062,-2.826 l -88.206,0 z"
         id="path117"
         inkscape:connector-curvature="0"
         style="fill:#bbbcbf" /><path
         d="m 296.491,1064.148 c -10e-4,-0.626 -0.011,-1.577 -0.027,-2.825 l -91.787,0 c -0.014,1.185 -0.022,2.13 -0.024,2.825 l 91.838,0 z"
         id="path119"
         inkscape:connector-curvature="0"
         style="fill:#bbbcbf" /><path
         d="m 205.01,1040.468 c -0.018,0.969 -0.034,1.909 -0.05,2.826 l 91.183,0 c -0.018,-0.917 -0.035,-1.856 -0.056,-2.826 l -91.077,0 z"
         id="path121"
         inkscape:connector-curvature="0"
         style="fill:#bbbcbf" /><path
         d="m 205.421,1018.165 c -0.018,0.955 -0.036,1.896 -0.054,2.826 l 90.32,0 c -0.02,-0.93 -0.039,-1.871 -0.06,-2.826 l -90.206,0 z"
         id="path123"
         inkscape:connector-curvature="0"
         style="fill:#bbbcbf" /><path
         d="m 205.88,994.296 c -0.019,0.95 -0.037,1.892 -0.055,2.825 l 89.353,0 c -0.02,-0.934 -0.04,-1.876 -0.061,-2.825 l -89.237,0 z"
         id="path125"
         inkscape:connector-curvature="0"
         style="fill:#bbbcbf" /><path
         d="m 209.393,820.941 c -0.02,0.943 -0.039,1.885 -0.059,2.825 l 81.962,0 c -0.021,-0.94 -0.043,-1.882 -0.064,-2.825 l -81.839,0 z"
         id="path127"
         inkscape:connector-curvature="0"
         style="fill:#bbbcbf" /><path
         d="m 210.907,747.95 c -0.02,0.942 -0.039,1.884 -0.059,2.825 l 78.775,0 c -0.021,-0.941 -0.043,-1.883 -0.064,-2.825 l -78.652,0 z"
         id="path129"
         inkscape:connector-curvature="0"
         style="fill:#bbbcbf" /><path
         d="m 215.576,524.907 c -0.02,0.94 -0.04,1.882 -0.059,2.825 l 68.94,0 c -0.022,-0.943 -0.045,-1.884 -0.066,-2.825 l -68.815,0 z"
         id="path131"
         inkscape:connector-curvature="0"
         style="fill:#bbbcbf" /><path
         d="m 216.687,471.975 c -0.02,0.94 -0.04,1.882 -0.059,2.825 l 66.595,0 c -0.023,-0.943 -0.045,-1.886 -0.066,-2.825 l -66.47,0 z"
         id="path133"
         inkscape:connector-curvature="0"
         style="fill:#bbbcbf" /><path
         d="m 217.863,415.937 c -0.02,0.938 -0.04,1.879 -0.06,2.825 l 64.109,0 c -0.022,-0.946 -0.045,-1.886 -0.066,-2.825 l -63.983,0 z"
         id="path135"
         inkscape:connector-curvature="0"
         style="fill:#bbbcbf" /><path
         d="m 210.128,785.379 c -0.019,0.943 -0.039,1.885 -0.059,2.825 l 80.414,0 c -0.022,-0.94 -0.044,-1.882 -0.065,-2.825 l -80.29,0 z"
         id="path137"
         inkscape:connector-curvature="0"
         style="fill:#bbbcbf" /><path
         d="m 219.102,356.603 c -0.02,0.935 -0.04,1.876 -0.059,2.825 l 61.479,0 c -0.021,-0.949 -0.044,-1.891 -0.066,-2.825 l -61.354,0 z"
         id="path139"
         inkscape:connector-curvature="0"
         style="fill:#bbbcbf" /><path
         d="m 212.609,666.382 c -0.02,0.941 -0.039,1.883 -0.059,2.825 l 75.192,0 c -0.021,-0.941 -0.044,-1.884 -0.065,-2.825 l -75.068,0 z"
         id="path141"
         inkscape:connector-curvature="0"
         style="fill:#bbbcbf" /><path
         d="m 211.73,708.429 c -0.02,0.942 -0.04,1.884 -0.059,2.825 l 77.042,0 c -0.022,-0.941 -0.044,-1.883 -0.065,-2.825 l -76.918,0 z"
         id="path143"
         inkscape:connector-curvature="0"
         style="fill:#bbbcbf" /><path
         d="m 213.535,622.163 c -0.02,0.942 -0.04,1.883 -0.06,2.826 l 73.242,0 c -0.021,-0.942 -0.044,-1.884 -0.065,-2.826 l -73.117,0 z"
         id="path145"
         inkscape:connector-curvature="0"
         style="fill:#bbbcbf" /><path
         d="m 214.53,574.718 c -0.02,0.941 -0.04,1.883 -0.059,2.826 l 71.146,0 c -0.022,-0.942 -0.044,-1.885 -0.065,-2.826 l -71.022,0 z"
         id="path147"
         inkscape:connector-curvature="0"
         style="fill:#bbbcbf" /></g><g
       transform="matrix(0,-1.5805956,1.5805956,0,-457.44471,451.09288)"
       id="g149"><path
         d="m 206.381,968.873 c -0.019,0.947 -0.038,1.89 -0.056,2.825 l 88.299,0 c -0.021,-0.937 -0.041,-1.877 -0.062,-2.825 l -88.181,0 z"
         id="path151"
         inkscape:connector-curvature="0"
         style="fill:#ededed" /><path
         d="m 206.909,942.473 c -0.019,0.945 -0.038,1.888 -0.057,2.825 l 87.188,0 c -0.021,-0.938 -0.042,-1.879 -0.063,-2.825 l -87.068,0 z"
         id="path153"
         inkscape:connector-curvature="0"
         style="fill:#ededed" /><path
         d="m 209.405,820.353 c -0.02,0.942 -0.039,1.885 -0.059,2.825 l 81.936,0 c -0.021,-0.94 -0.043,-1.883 -0.064,-2.825 l -81.813,0 z"
         id="path155"
         inkscape:connector-curvature="0"
         style="fill:#ededed" /><path
         d="m 208.721,853.505 c -0.02,0.942 -0.039,1.885 -0.058,2.825 l 83.375,0 c -0.021,-0.939 -0.044,-1.883 -0.064,-2.825 l -83.253,0 z"
         id="path157"
         inkscape:connector-curvature="0"
         style="fill:#ededed" /><path
         d="m 208.081,884.728 c -0.02,0.944 -0.039,1.885 -0.058,2.825 l 84.722,0 c -0.021,-0.938 -0.043,-1.882 -0.064,-2.825 l -84.6,0 z"
         id="path159"
         inkscape:connector-curvature="0"
         style="fill:#ededed" /><path
         d="m 207.477,914.384 c -0.02,0.945 -0.039,1.887 -0.058,2.825 l 85.993,0 c -0.021,-0.939 -0.042,-1.879 -0.063,-2.825 l -85.872,0 z"
         id="path161"
         inkscape:connector-curvature="0"
         style="fill:#ededed" /><path
         d="m 296.487,1063.56 c -0.004,-0.703 -0.016,-1.645 -0.031,-2.825 l -91.771,0 c -0.014,1.137 -0.023,2.083 -0.029,2.825 l 91.831,0 z"
         id="path163"
         inkscape:connector-curvature="0"
         style="fill:#ededed" /><path
         d="m 205.02,1039.879 c -0.017,0.966 -0.034,1.909 -0.05,2.825 l 91.162,0 c -0.019,-0.915 -0.037,-1.859 -0.056,-2.825 l -91.056,0 z"
         id="path165"
         inkscape:connector-curvature="0"
         style="fill:#ededed" /><path
         d="m 205.432,1017.576 c -0.018,0.955 -0.036,1.896 -0.053,2.825 l 90.297,0 c -0.021,-0.928 -0.04,-1.871 -0.06,-2.825 l -90.184,0 z"
         id="path167"
         inkscape:connector-curvature="0"
         style="fill:#ededed" /><path
         d="m 205.892,993.707 c -0.019,0.95 -0.037,1.891 -0.055,2.825 l 89.329,0 c -0.02,-0.934 -0.04,-1.876 -0.061,-2.825 l -89.213,0 z"
         id="path169"
         inkscape:connector-curvature="0"
         style="fill:#ededed" /><path
         d="m 219.114,356.013 c -0.02,0.936 -0.039,1.877 -0.059,2.826 l 61.453,0 c -0.022,-0.949 -0.044,-1.891 -0.065,-2.826 l -61.329,0 z"
         id="path171"
         inkscape:connector-curvature="0"
         style="fill:#ededed" /><path
         d="m 216.7,471.386 c -0.02,0.938 -0.04,1.882 -0.06,2.825 l 66.568,0 c -0.021,-0.944 -0.044,-1.886 -0.065,-2.825 l -66.443,0 z"
         id="path173"
         inkscape:connector-curvature="0"
         style="fill:#ededed" /><path
         d="m 214.542,574.129 c -0.02,0.941 -0.04,1.883 -0.06,2.826 l 71.12,0 c -0.021,-0.942 -0.044,-1.885 -0.065,-2.826 l -70.995,0 z"
         id="path175"
         inkscape:connector-curvature="0"
         style="fill:#ededed" /><path
         d="m 215.588,524.318 c -0.02,0.94 -0.04,1.882 -0.059,2.825 l 68.914,0 c -0.021,-0.944 -0.043,-1.885 -0.065,-2.825 l -68.79,0 z"
         id="path177"
         inkscape:connector-curvature="0"
         style="fill:#ededed" /><path
         d="m 210.141,784.79 c -0.02,0.942 -0.04,1.885 -0.059,2.825 l 80.387,0 c -0.022,-0.94 -0.043,-1.883 -0.065,-2.825 l -80.263,0 z"
         id="path179"
         inkscape:connector-curvature="0"
         style="fill:#ededed" /><path
         d="m 217.875,415.348 c -0.02,0.939 -0.04,1.88 -0.06,2.826 l 64.082,0 c -0.021,-0.945 -0.043,-1.888 -0.065,-2.826 l -63.957,0 z"
         id="path181"
         inkscape:connector-curvature="0"
         style="fill:#ededed" /><path
         d="m 211.743,707.839 c -0.02,0.942 -0.039,1.884 -0.059,2.826 l 77.016,0 c -0.022,-0.942 -0.044,-1.883 -0.065,-2.826 l -76.892,0 z"
         id="path183"
         inkscape:connector-curvature="0"
         style="fill:#ededed" /><path
         d="m 213.547,621.574 c -0.02,0.941 -0.04,1.884 -0.059,2.825 l 73.216,0 c -0.022,-0.942 -0.043,-1.884 -0.065,-2.825 l -73.092,0 z"
         id="path185"
         inkscape:connector-curvature="0"
         style="fill:#ededed" /><path
         d="m 210.919,747.361 c -0.02,0.942 -0.04,1.885 -0.059,2.826 l 78.75,0 c -0.021,-0.941 -0.044,-1.883 -0.065,-2.826 l -78.626,0 z"
         id="path187"
         inkscape:connector-curvature="0"
         style="fill:#ededed" /><path
         d="m 212.622,665.792 c -0.02,0.941 -0.04,1.883 -0.059,2.826 l 75.166,0 c -0.021,-0.942 -0.044,-1.884 -0.065,-2.826 l -75.042,0 z"
         id="path189"
         inkscape:connector-curvature="0"
         style="fill:#ededed" /></g><path
       d="m 7.8494421,10.116191 c -1.5616284,0.03635 -3.0505495,0.07271 -4.4651825,0.104319 l 0,92.45378 c 1.4162136,0.0285 2.9003929,0.0569 4.4651825,0.0885 l 0,-92.646609 z"
       id="path191"
       inkscape:connector-curvature="0"
       style="fill:#bbbcbf" /><path
       d="m 6.9184713,10.13832 c -2.4609873,0.05848 -4.737045,0.110641 -6.8155282,0.16122 l 0,92.31311 c 2.075322,0.0411 4.3497991,0.0853 6.8155282,0.13435 l 0,-92.60868 z"
       id="path193"
       inkscape:connector-curvature="0"
       style="fill:#ffffff" /><circle
       transform="matrix(0,-1,1,0,0,0)"
       cx="163.32889"
       cy="1673.0858"
       r="5.2902532"
       id="circle195"
       style="fill:#c1c1c1" /><circle
       transform="matrix(0,-1,1,0,0,0)"
       cx="116.02798"
       cy="1833.97"
       r="5.2902532"
       id="circle197"
       style="fill:#c1c1c1" /><circle
       transform="matrix(0,-1,1,0,0,0)"
       cx="215.91846"
       cy="1759.2837"
       r="5.2902532"
       id="circle199"
       style="fill:#c1c1c1" /><circle
       transform="matrix(0,-1,1,0,0,0)"
       cx="218.40791"
       cy="1596.8444"
       r="5.2902532"
       id="circle201"
       style="fill:#c1c1c1" /><circle
       transform="matrix(0,-1,1,0,0,0)"
       cx="175.77766"
       cy="1223.7306"
       r="5.2902532"
       id="circle203"
       style="fill:#c1c1c1" /><circle
       transform="matrix(0,-1,1,0,0,0)"
       cx="176.71021"
       cy="1112.9497"
       r="5.2902532"
       id="circle205"
       style="fill:#c1c1c1" /><g
       transform="matrix(0,-1.5805956,1.5805956,0,-457.44471,451.09288)"
       id="g207"><path
         d="m 401.671,1297.094 c 8.397,-0.161 13.08,10.254 13.322,18.327 0.194,6.463 -11.706,6.54 -11.706,6.54 0,0 -6.48,2.855 -8.559,0.969 -2.358,-2.142 -4.764,-10.692 -4.764,-14.129 10e-4,-6.466 5.243,-11.583 11.707,-11.707 z"
         id="path209"
         inkscape:connector-curvature="0"
         style="fill:#b8b8b8" /><circle
         cx="403.853"
         cy="1316.208"
         r="11.377"
         id="circle211"
         style="fill:#ebebeb" /><path
         d="m 393.081,1319.871 0,0 c 2.021,5.948 8.484,9.132 14.434,7.109 5.948,-2.022 9.131,-8.484 7.108,-14.433 l 0,-10e-4 -21.542,7.325 z"
         id="path213"
         inkscape:connector-curvature="0"
         style="fill:#d7d7d7" /><circle
         cx="403.853"
         cy="1316.209"
         r="10.103"
         id="circle215"
         style="fill:#c9c9c9" /></g><g
       transform="matrix(0,-1.5805956,1.5805956,0,-457.44471,451.09288)"
       id="g217"><path
         d="m 410.314,1365.051 c 8.397,-0.161 13.08,10.254 13.322,18.327 0.194,6.463 -11.706,6.54 -11.706,6.54 0,0 -6.48,2.855 -8.559,0.969 -2.358,-2.142 -4.764,-10.692 -4.764,-14.129 10e-4,-6.466 5.245,-11.582 11.707,-11.707 z"
         id="path219"
         inkscape:connector-curvature="0"
         style="fill:#b8b8b8" /><circle
         cx="412.49701"
         cy="1384.166"
         r="11.377"
         id="circle221"
         style="fill:#ebebeb" /><path
         d="m 401.725,1387.827 0,0 c 2.022,5.949 8.484,9.133 14.434,7.11 5.948,-2.021 9.131,-8.483 7.108,-14.433 l 0,0 -21.542,7.323 z"
         id="path223"
         inkscape:connector-curvature="0"
         style="fill:#d7d7d7" /><circle
         cx="412.496"
         cy="1384.166"
         r="10.103"
         id="circle225"
         style="fill:#c9c9c9" /></g><g
       transform="matrix(0,-1.5805956,1.5805956,0,-457.44471,451.09288)"
       id="g227"><circle
         cx="377.01599"
         cy="1436.223"
         r="10.466"
         id="circle229"
         style="fill:#808183" /><circle
         cx="377.367"
         cy="1435.8409"
         r="10.342"
         id="circle231"
         style="fill:#bbbcbf" /><polygon
         points="381.805,1428.254 386.043,1436.074 381.612,1443.636 372.697,1443.581 368.343,1435.956 372.843,1428.22 "
         id="polygon233"
         style="fill:#a6a8aa" /><polygon
         points="381.792,1428.258 386.146,1435.882 381.72,1443.466 372.94,1443.423 368.586,1435.799 373.012,1428.217 "
         id="polygon235"
         style="fill:#d0d1d3" /><circle
         cx="377.366"
         cy="1435.8409"
         r="4.0279999"
         id="circle237"
         style="fill:#272525" /></g><path
       d="m 1070.6546,-184.16904 c 2.2223,3.11061 8.042,-25.85064 88.3711,-28.86484 106.5795,-3.99574 142.5555,52.37936 204.7203,51.06905 42.1861,-0.8883 61.7254,-18.65261 171.4108,-66.1669 109.6855,-47.51428 196.7241,-29.30898 196.7241,-29.30898 0,0 -35.5254,-14.6537 -111.462,-2.6633 -107.2339,16.93134 -196.2815,89.70196 -257.1186,91.92111 -65.2723,2.38196 -86.1504,-50.17916 -204.2746,-51.06904 -69.7185,-0.52318 -90.5903,31.97387 -88.3711,35.0829 z"
       id="path239"
       inkscape:connector-curvature="0"
       style="opacity:0.7;fill:#ffffff" /><g
       transform="matrix(0,-1.5805956,1.5805956,0,-457.44471,451.09288)"
       id="g241"><path
         d="m 242.843,1495.319 c -0.771,1.047 -1.358,1.603 -0.13,2.973 1.16,1.296 6.312,1.629 7.622,1.694 l 0,0.014 c 0,0 0.063,0 0.153,-0.01 0.088,0 0.153,0.01 0.153,0.01 l 0,-0.014 c 1.309,-0.065 6.462,-0.398 7.622,-1.694 1.228,-1.37 0.641,-1.926 -0.13,-2.973 -0.945,-1.283 -3.457,-3.433 -3.457,-3.433 l -4.035,0 -0.306,0 -4.034,0 c 0,10e-4 -2.515,2.15 -3.458,3.433 z"
         id="path243"
         inkscape:connector-curvature="0"
         style="fill:#e6e6e7" /><rect
         x="246.29601"
         y="1490.432"
         width="8.3839998"
         height="1.455"
         id="rect245"
         style="fill:#bbbcbf" /><path
         d="m 249.323,1487.883 c -1.778,0.037 -3.528,0.063 -5.265,0.087 0.106,0.605 0.473,2.077 1.56,2.386 1.406,0.399 4.503,0.363 4.87,0.357 0.368,0.01 3.462,0.042 4.871,-0.357 1.284,-0.364 1.563,-2.356 1.596,-2.62 -2.537,0.047 -5.081,0.096 -7.632,0.147 z"
         id="path247"
         inkscape:connector-curvature="0"
         style="fill:#d0d1d3" /></g><circle
       transform="matrix(0,-1,1,0,0,0)"
       cx="-55.269062"
       cy="562.67963"
       r="6.6353402"
       id="circle249"
       style="fill:#e8e8e8" /><circle
       transform="matrix(0,-1,1,0,0,0)"
       cx="-55.273815"
       cy="413.29282"
       r="6.6353402"
       id="circle251"
       style="fill:#e8e8e8" /><circle
       transform="matrix(0,-1,1,0,0,0)"
       cx="-55.273815"
       cy="245.61369"
       r="6.6353402"
       id="circle253"
       style="fill:#e8e8e8" /><g
       transform="matrix(0,-1.5805956,1.5805956,0,-457.44471,451.09288)"
       id="g255"><path
         d="m 336.431,210.141 c 11.06,-2.174 10.155,-15.092 10.155,-15.092 0,0 8.359,-4.739 7.006,-13.586 -1.352,-8.845 -10.743,-10.874 -10.743,-10.874 0,0 -2.997,-12.597 -14.2,-11.368 -12.485,1.369 -10.635,11.473 -12.987,17.218 -1.91,4.66 -7.736,6.087 -7.736,6.087 l 1.788,11.565 c 0,0 5.965,-0.381 9.182,3.5 3.958,4.776 5.21,14.972 17.535,12.55 z"
         id="path257"
         inkscape:connector-curvature="0"
         style="fill:#a6a8aa" /><path
         d="m 336.979,210.505 c 11.061,-2.175 10.157,-15.093 10.157,-15.093 0,0 8.357,-4.74 7.006,-13.585 -1.352,-8.847 -10.744,-10.874 -10.744,-10.874 0,0 -2.996,-12.598 -14.201,-11.368 -12.484,1.37 -10.634,11.473 -12.986,17.215 -1.909,4.664 -8.211,6.179 -8.211,6.179 l 1.763,11.531 c 0,0 6.467,-0.437 9.682,3.442 3.959,4.78 5.211,14.975 17.534,12.553 z"
         id="path259"
         inkscape:connector-curvature="0"
         style="fill:#c1c1c1" /><path
         d="m 319.739,190.708 c 0.294,-0.045 1.244,-1.438 0.874,-3.858 -0.371,-2.424 -1.665,-3.547 -1.999,-3.497 -0.333,0.053 -10.312,1.615 -10.312,1.615 l 1.124,7.351 c 0.001,0 10.017,-1.566 10.313,-1.611 z"
         id="path261"
         inkscape:connector-curvature="0"
         style="fill:#59595b" /><path
         d="m 320.314,185.566 -11.647,1.78 0.396,2.594 11.644,-1.779 c 0,-0.4 -0.021,-0.83 -0.094,-1.311 -0.075,-0.485 -0.18,-0.902 -0.299,-1.284 z"
         id="path263"
         inkscape:connector-curvature="0"
         style="fill:#e6e6e7" /></g><path
       d="m -68.333685,158.74276 c 11.528864,2.18754 39.317315,-3.83453 42.769336,-22.41285 4.066873,-21.88967 7.915623,-33.79787 7.915623,-33.79787 L -37.371398,13.996553 c 0,0 -31.515496,-16.2674895 -41.2409,-31.134572 -9.723825,-14.865501 -10.643731,-25.940735 -10.643731,-25.940735 l -11.236451,0.373021 -143.59711,39.5812748 c 0,0 -51.61435,0.4330832 -58.63536,0.2955714 -12.22749,-0.2418311 -11.91453,-4.2597051 -29.44175,-23.3153652 -17.52723,-19.055661 -45.03907,-17.683704 -45.03907,-17.683704 l 66.39133,50.7102486 c 0,0 235.451846,150.5264374 242.480755,151.8604674 z"
       id="path265"
       inkscape:connector-curvature="0"
       style="fill:#cca871" /><path
       d="m -15.276252,104.80493 c 0.526338,-0.40147 -15.319133,11.32181 -17.844924,27.86274 -3.048969,19.98979 -16.942405,29.47811 -39.982747,25.41282 C -96.144265,154.0152 -356.59639,98.239138 -407.53582,87.941557 -449.6745,79.423728 -462.38249,35.361464 -455.81195,3.6578776 c 4.03368,-19.4681956 29.02447,-45.1038756 55.39355,-48.2018436 31.60717,-3.712819 50.372,8.389802 60.65219,20.669449 10.99779,13.13791 13.98827,19.9913729 44.38787,19.9913729 25.33062,-0.00158 39.01068,-5.6142755 76.91652,-19.9913729 44.81621,-16.999306 121.980888,-18.97505 121.980888,-18.97505 0,0 -0.812426,4.063711 6.202257,18.620996 7.014684,14.5557053 29.656716,33.5244331 55.246559,34.803135 7.014683,0.352473 19.531419,0.07113 19.531419,0.07113 l 0.224445,94.159239 z"
       id="path267"
       inkscape:connector-curvature="0"
       style="fill:#e8be80" /><circle
       transform="matrix(0,-1,1,0,0,0)"
       cx="-107.74958"
       cy="-91.860855"
       r="22.306946"
       id="circle277"
       style="fill:#e6e6e7" /><circle
       transform="matrix(0,-1,1,0,0,0)"
       cx="-87.818268"
       cy="-181.67662"
       r="22.306946"
       id="circle279"
       style="fill:#e6e6e7" /><circle
       transform="matrix(0,-1,1,0,0,0)"
       cx="-66.628799"
       cy="-275.78687"
       r="22.306946"
       id="circle281"
       style="fill:#e6e6e7" /><circle
       transform="matrix(0,-1,1,0,0,0)"
       cx="-46.231236"
       cy="-370.86127"
       r="22.306946"
       id="circle283"
       style="fill:#e6e6e7" /><circle
       transform="matrix(0,-1,1,0,0,0)"
       cx="-108.15421"
       cy="-93.278656"
       r="18.07095"
       id="circle285"
       style="fill:#6d6e70" /><circle
       transform="matrix(0,-1,1,0,0,0)"
       cx="-88.221329"
       cy="-183.09441"
       r="18.07095"
       id="circle287"
       style="fill:#6d6e70" /><circle
       transform="matrix(0,-1,1,0,0,0)"
       cx="-67.03186"
       cy="-277.20624"
       r="18.07095"
       id="circle289"
       style="fill:#6d6e70" /><circle
       transform="matrix(0,-1,1,0,0,0)"
       cx="-46.635841"
       cy="-372.27905"
       r="18.07095"
       id="circle291"
       style="fill:#6d6e70" /><g
       transform="matrix(0,-1.5805956,1.5805956,0,-457.44471,451.09288)"
       id="g293"><path
         d="m 173.184,183.522 c -11.123,-1.823 -14.785,10.598 -14.785,10.598 0,0 -9.487,1.523 -11.308,10.286 -1.821,8.762 6.273,13.939 6.273,13.939 0,0 -1.59,12.852 9.339,15.611 12.177,3.075 13.969,-7.04 18.179,-11.602 3.417,-3.702 9.375,-3.004 9.375,-3.004 l 2.36,-11.463 c 0,0 -5.723,-1.724 -7.381,-6.483 -2.044,-5.859 0.342,-15.85 -12.052,-17.882 z"
         id="path295"
         inkscape:connector-curvature="0"
         style="fill:#a6a8aa" /><path
         d="m 172.797,182.989 c -11.124,-1.823 -14.786,10.599 -14.786,10.599 0,0 -9.487,1.524 -11.307,10.286 -1.822,8.762 6.272,13.939 6.272,13.939 0,0 -1.589,12.851 9.339,15.61 12.177,3.075 13.969,-7.039 18.179,-11.6 3.417,-3.703 9.851,-2.924 9.851,-2.924 l 2.373,-11.42 c 0,0 -6.211,-1.848 -7.871,-6.606 -2.042,-5.861 0.344,-15.852 -12.05,-17.884 z"
         id="path297"
         inkscape:connector-curvature="0"
         style="fill:#c1c1c1" /><path
         d="m 182.043,207.56 c -0.292,-0.06 -1.668,0.914 -2.167,3.311 -0.498,2.399 0.323,3.904 0.653,3.973 0.331,0.067 10.226,2.087 10.226,2.087 l 1.513,-7.281 c 0.001,-0.001 -9.933,-2.03 -10.225,-2.09 z"
         id="path299"
         inkscape:connector-curvature="0"
         style="fill:#59595b" /><path
         d="m 179.708,212.176 11.537,2.397 0.534,-2.568 -11.533,-2.397 c -0.14,0.375 -0.271,0.784 -0.37,1.262 -0.098,0.481 -0.144,0.908 -0.168,1.306 z"
         id="path301"
         inkscape:connector-curvature="0"
         style="fill:#e6e6e7" /></g><g
       transform="matrix(0,-1.5805956,1.5805956,0,-457.44471,451.09288)"
       id="g303"><path
         d="m 185.67,124.123 c -11.123,-1.823 -14.785,10.598 -14.785,10.598 0,0 -9.487,1.523 -11.307,10.286 -1.821,8.762 6.272,13.939 6.272,13.939 0,0 -1.589,12.852 9.34,15.61 12.177,3.075 13.969,-7.04 18.179,-11.602 3.417,-3.701 9.375,-3.004 9.375,-3.004 l 2.36,-11.463 c 0,0 -5.723,-1.724 -7.382,-6.483 -2.044,-5.859 0.342,-15.85 -12.052,-17.881 z"
         id="path305"
         inkscape:connector-curvature="0"
         style="fill:#a6a8aa" /><path
         d="m 185.283,123.588 c -11.124,-1.822 -14.786,10.599 -14.786,10.599 0,0 -9.486,1.524 -11.307,10.286 -1.822,8.762 6.272,13.939 6.272,13.939 0,0 -1.589,12.851 9.339,15.61 12.177,3.075 13.969,-7.039 18.179,-11.6 3.417,-3.704 9.851,-2.924 9.851,-2.924 l 2.373,-11.42 c 0,0 -6.211,-1.848 -7.871,-6.606 -2.042,-5.86 0.344,-15.851 -12.05,-17.884 z"
         id="path307"
         inkscape:connector-curvature="0"
         style="fill:#c1c1c1" /><path
         d="m 194.529,148.159 c -0.291,-0.06 -1.668,0.914 -2.167,3.311 -0.498,2.399 0.323,3.904 0.653,3.973 0.331,0.067 10.226,2.086 10.226,2.086 l 1.513,-7.281 c 0,0.001 -9.933,-2.028 -10.225,-2.089 z"
         id="path309"
         inkscape:connector-curvature="0"
         style="fill:#59595b" /><path
         d="m 192.194,152.776 11.537,2.397 0.534,-2.568 -11.532,-2.396 c -0.14,0.375 -0.271,0.784 -0.37,1.262 -0.099,0.479 -0.145,0.907 -0.169,1.305 z"
         id="path311"
         inkscape:connector-curvature="0"
         style="fill:#e6e6e7" /></g><g
       transform="matrix(0,-1.5805956,1.5805956,0,-457.44471,451.09288)"
       id="g313"><path
         d="m 198.173,65.376 c -11.118,-1.855 -14.815,10.556 -14.815,10.556 0,0 -9.491,1.496 -11.337,10.253 -1.846,8.757 6.233,13.958 6.233,13.958 0,0 -1.626,12.847 9.294,15.637 12.169,3.109 13.989,-7 18.212,-11.55 3.427,-3.691 9.383,-2.978 9.383,-2.978 l 2.393,-11.456 c 0,0 -5.718,-1.741 -7.363,-6.504 -2.027,-5.865 0.388,-15.849 -12,-17.916 z"
         id="path315"
         inkscape:connector-curvature="0"
         style="fill:#a6a8aa" /><path
         d="m 197.788,64.841 c -11.119,-1.854 -14.816,10.556 -14.816,10.556 0,0 -9.491,1.498 -11.335,10.254 -1.847,8.757 6.232,13.957 6.232,13.957 0,0 -1.626,12.846 9.294,15.636 12.168,3.11 13.989,-6.999 18.212,-11.548 3.427,-3.693 9.859,-2.896 9.859,-2.896 l 2.406,-11.414 c 0,0 -6.206,-1.866 -7.852,-6.628 -2.027,-5.864 0.388,-15.849 -12,-17.917 z"
         id="path317"
         inkscape:connector-curvature="0"
         style="fill:#c1c1c1" /><path
         d="m 206.963,89.439 c -0.291,-0.062 -1.67,0.909 -2.176,3.304 -0.505,2.398 0.312,3.905 0.642,3.975 0.331,0.068 10.22,2.116 10.22,2.116 l 1.534,-7.276 c 0,-0.001 -9.928,-2.058 -10.22,-2.119 z"
         id="path319"
         inkscape:connector-curvature="0"
         style="fill:#59595b" /><path
         d="m 204.615,94.048 11.53,2.43 0.541,-2.566 -11.525,-2.43 c -0.141,0.374 -0.273,0.783 -0.374,1.261 -0.099,0.48 -0.147,0.908 -0.172,1.305 z"
         id="path321"
         inkscape:connector-curvature="0"
         style="fill:#e6e6e7" /></g><g
       transform="matrix(0,-1.5805956,1.5805956,0,-457.44471,451.09288)"
       id="g323"><path
         d="m 210.648,5.756 c -11.123,-1.823 -14.785,10.599 -14.785,10.599 0,0 -9.487,1.523 -11.308,10.286 -1.821,8.762 6.273,13.939 6.273,13.939 0,0 -1.589,12.852 9.339,15.611 12.177,3.075 13.969,-7.04 18.179,-11.602 3.417,-3.702 9.375,-3.004 9.375,-3.004 l 2.36,-11.463 c 0,0 -5.723,-1.724 -7.382,-6.483 -2.043,-5.861 0.343,-15.851 -12.051,-17.883 z"
         id="path325"
         inkscape:connector-curvature="0"
         style="fill:#a6a8aa" /><path
         d="m 210.262,5.222 c -11.124,-1.823 -14.786,10.599 -14.786,10.599 0,0 -9.487,1.524 -11.307,10.286 -1.822,8.762 6.272,13.939 6.272,13.939 0,0 -1.589,12.851 9.339,15.61 12.177,3.075 13.969,-7.039 18.179,-11.6 3.417,-3.704 9.851,-2.925 9.851,-2.925 l 2.373,-11.42 c 0,0 -6.211,-1.848 -7.871,-6.606 -2.043,-5.859 0.343,-15.851 -12.05,-17.883 z"
         id="path327"
         inkscape:connector-curvature="0"
         style="fill:#c1c1c1" /><path
         d="m 219.507,29.793 c -0.292,-0.06 -1.668,0.914 -2.167,3.311 -0.498,2.399 0.323,3.904 0.653,3.973 0.331,0.067 10.226,2.087 10.226,2.087 l 1.513,-7.281 c 0.001,-10e-4 -9.933,-2.029 -10.225,-2.09 z"
         id="path329"
         inkscape:connector-curvature="0"
         style="fill:#59595b" /><path
         d="m 217.172,34.41 11.537,2.397 0.534,-2.568 -11.532,-2.397 c -0.14,0.375 -0.271,0.784 -0.37,1.262 -0.099,0.48 -0.145,0.908 -0.169,1.306 z"
         id="path331"
         inkscape:connector-curvature="0"
         style="fill:#e6e6e7" /></g><circle
       transform="matrix(0,-1,1,0,0,0)"
       cx="-2.5688274"
       cy="-135.3051"
       r="22.306946"
       id="circle333"
       style="fill:#e6e6e7" /><circle
       transform="matrix(0,-1,1,0,0,0)"
       cx="-2.9718871"
       cy="-136.72289"
       r="18.07095"
       id="circle335"
       style="fill:#6d6e70" /><g
       transform="matrix(0,-1.5805956,1.5805956,0,-457.44471,451.09288)"
       id="g337"><path
         d="m 199.375,1453.046 c 3.222,0 104.403,0 107.628,0 7.383,0 6.754,-4.084 6.754,-6.439 l -121.135,0 c 0,2.355 -0.629,6.439 6.753,6.439 z"
         id="path339"
         inkscape:connector-curvature="0"
         style="fill:#59595b" /><rect
         x="192.62199"
         y="1445.192"
         width="121.136"
         height="1.414"
         id="rect341"
         style="fill:#898988" /><path
         d="m 192.622,1400.435 0,44.758 121.136,0 0,-44.758 c 0,-3.979 -3.255,-7.233 -7.233,-7.233 l -106.67,0 c -3.978,-10e-4 -7.233,3.254 -7.233,7.233 z"
         id="path343"
         inkscape:connector-curvature="0"
         style="fill:#e0e0e0" /><g
         id="g345"><path
           d="m 210.145,1403.81 -1.036,52.435 c -0.023,1.193 0.934,2.17 2.127,2.17 l 1.447,0 c 1.193,0 2.15,-0.977 2.127,-2.17 l -1.036,-52.435 -3.629,0 z"
           id="path347"
           inkscape:connector-curvature="0"
           style="fill:#6d6e70" /><path
           d="m 211.236,1458.414 0.723,0 0,-54.604 -1.814,0 -1.036,52.435 c -0.024,1.193 0.933,2.169 2.127,2.169 z"
           id="path349"
           inkscape:connector-curvature="0"
           style="fill:#a6a8aa" /></g><g
         id="g351"><path
           d="m 231.673,1403.81 -1.036,52.435 c -0.023,1.193 0.934,2.17 2.128,2.17 l 1.446,0 c 1.194,0 2.15,-0.977 2.127,-2.17 l -1.037,-52.435 -3.628,0 z"
           id="path353"
           inkscape:connector-curvature="0"
           style="fill:#6d6e70" /><path
           d="m 232.766,1458.414 0.723,0 0,-54.604 -1.815,0 -1.036,52.435 c -0.023,1.193 0.934,2.169 2.128,2.169 z"
           id="path355"
           inkscape:connector-curvature="0"
           style="fill:#a6a8aa" /></g><g
         id="g357"><path
           d="m 255.867,1403.81 -1.036,52.435 c -0.022,1.193 0.934,2.17 2.127,2.17 l 1.447,0 c 1.193,0 2.149,-0.977 2.127,-2.17 l -1.036,-52.435 -3.629,0 z"
           id="path359"
           inkscape:connector-curvature="0"
           style="fill:#6d6e70" /><path
           d="m 256.958,1458.414 0.724,0 0,-54.604 -1.814,0 -1.036,52.435 c -0.023,1.193 0.933,2.169 2.126,2.169 z"
           id="path361"
           inkscape:connector-curvature="0"
           style="fill:#a6a8aa" /></g><g
         id="g363"><path
           d="m 279.342,1403.81 -1.036,52.435 c -0.023,1.193 0.934,2.17 2.127,2.17 l 1.447,0 c 1.193,0 2.149,-0.977 2.127,-2.17 l -1.036,-52.435 -3.629,0 z"
           id="path365"
           inkscape:connector-curvature="0"
           style="fill:#6d6e70" /><path
           d="m 280.433,1458.414 0.724,0 0,-54.604 -1.814,0 -1.036,52.435 c -0.025,1.193 0.932,2.169 2.126,2.169 z"
           id="path367"
           inkscape:connector-curvature="0"
           style="fill:#a6a8aa" /></g><g
         id="g369"><path
           d="m 302.487,1403.81 -1.036,52.435 c -0.022,1.193 0.934,2.17 2.128,2.17 l 1.446,0 c 1.194,0 2.15,-0.977 2.128,-2.17 l -1.036,-52.435 -3.63,0 z"
           id="path371"
           inkscape:connector-curvature="0"
           style="fill:#6d6e70" /><path
           d="m 303.579,1458.414 0.723,0 0,-54.604 -1.814,0 -1.036,52.435 c -0.023,1.193 0.933,2.169 2.127,2.169 z"
           id="path373"
           inkscape:connector-curvature="0"
           style="fill:#a6a8aa" /></g><g
         id="g375"><rect
           x="196.416"
           y="1429.061"
           width="21.823"
           height="9.2139997"
           id="rect377"
           style="fill:#f1f1f2" /><rect
           x="196.416"
           y="1433.668"
           width="21.823"
           height="4.6059999"
           id="rect379"
           style="fill:#bbbcbf" /><circle
           cx="199.425"
           cy="1433.667"
           r="1.761"
           id="circle381"
           style="fill:#a6a8aa" /><circle
           cx="215.23"
           cy="1433.667"
           r="1.761"
           id="circle383"
           style="fill:#a6a8aa" /><rect
           x="201.664"
           y="1433.261"
           width="11.329"
           height="0.81300002"
           id="rect385"
           style="fill:#434244" /></g><g
         id="g387"><rect
           x="219.347"
           y="1423.998"
           width="21.823"
           height="9.2130003"
           id="rect389"
           style="fill:#f1f1f2" /><rect
           x="219.347"
           y="1428.604"
           width="21.823"
           height="4.6059999"
           id="rect391"
           style="fill:#bbbcbf" /><circle
           cx="222.356"
           cy="1428.604"
           r="1.761"
           id="circle393"
           style="fill:#a6a8aa" /><circle
           cx="238.161"
           cy="1428.604"
           r="1.761"
           id="circle395"
           style="fill:#a6a8aa" /><rect
           x="224.59399"
           y="1428.198"
           width="11.329"
           height="0.81300002"
           id="rect397"
           style="fill:#434244" /></g><g
         id="g399"><rect
           x="242.278"
           y="1419.658"
           width="21.823999"
           height="9.2130003"
           id="rect401"
           style="fill:#f1f1f2" /><rect
           x="242.278"
           y="1424.265"
           width="21.823999"
           height="4.6059999"
           id="rect403"
           style="fill:#bbbcbf" /><circle
           cx="245.287"
           cy="1424.264"
           r="1.761"
           id="circle405"
           style="fill:#a6a8aa" /><circle
           cx="261.09299"
           cy="1424.264"
           r="1.761"
           id="circle407"
           style="fill:#a6a8aa" /><rect
           x="247.52499"
           y="1423.8571"
           width="11.329"
           height="0.81300002"
           id="rect409"
           style="fill:#434244" /></g><g
         id="g411"><rect
           x="265.20901"
           y="1415.318"
           width="21.823"
           height="9.2130003"
           id="rect413"
           style="fill:#f1f1f2" /><rect
           x="265.20901"
           y="1419.925"
           width="21.823"
           height="4.6059999"
           id="rect415"
           style="fill:#bbbcbf" /><circle
           cx="268.21899"
           cy="1419.924"
           r="1.761"
           id="circle417"
           style="fill:#a6a8aa" /><circle
           cx="284.02399"
           cy="1419.924"
           r="1.761"
           id="circle419"
           style="fill:#a6a8aa" /><rect
           x="270.45599"
           y="1419.5179"
           width="11.329"
           height="0.81300002"
           id="rect421"
           style="fill:#434244" /></g><g
         id="g423"><rect
           x="288.14099"
           y="1411.701"
           width="21.823"
           height="9.2130003"
           id="rect425"
           style="fill:#f1f1f2" /><rect
           x="288.14099"
           y="1416.309"
           width="21.823"
           height="4.605"
           id="rect427"
           style="fill:#bbbcbf" /><circle
           cx="291.14899"
           cy="1416.308"
           r="1.761"
           id="circle429"
           style="fill:#a6a8aa" /><circle
           cx="306.95499"
           cy="1416.308"
           r="1.761"
           id="circle431"
           style="fill:#a6a8aa" /><rect
           x="293.388"
           y="1415.901"
           width="11.328"
           height="0.81300002"
           id="rect433"
           style="fill:#434244" /></g><path
         d="m 199.375,1453.046 c -5.427,0 -6.523,-2.207 -6.724,-4.313 l -0.029,0 c 0,2.356 -0.629,6.441 6.753,6.441 3.286,0 104.342,0 107.628,0 7.383,0 6.754,-4.085 6.754,-6.441 l -0.029,0 c -0.201,2.105 -1.298,4.313 -6.725,4.313 -3.285,0 -104.341,0 -107.628,0 z"
         id="path435"
         inkscape:connector-curvature="0"
         style="fill:#d7d7d7" /></g><polygon
       transform="matrix(0,-1.5805956,1.5805956,0,-457.44471,451.09288)"
       points="273.4,200.783 295.64,1453.05 297.238,1453.03 274.998,200.761 "
       id="polygon437"
       style="fill:#bbbcbf" /><path
       sodipodi:nodetypes="ccccc"
       inkscape:connector-curvature="0"
       id="polygon439"
       d="M 262.25643,49.348426 271.748,1453.05 l 2.644,-0.01 -9.49257,-1403.701574 z"
       style="fill:#bbbcbf"
       transform="matrix(0,-1.5805956,1.5805956,0,-457.44471,451.09288)" /><path
       sodipodi:nodetypes="ccccc"
       inkscape:connector-curvature="0"
       id="polygon441"
       d="m 250.373,108.288 -1.74129,1344.75 3.135,-0.011 1.74229,-1344.751 z"
       style="fill:#bbbcbf"
       transform="matrix(0,-1.5805956,1.5805956,0,-457.44471,451.09288)" /><polygon
       transform="matrix(0,-1.5805956,1.5805956,0,-457.44471,451.09288)"
       points="237.215,169.822 226.089,1453.027 229.284,1453.044 240.411,169.839 "
       id="polygon443"
       style="fill:#bbbcbf" /><polygon
       transform="matrix(0,-1.5805956,1.5805956,0,-457.44471,451.09288)"
       points="223.669,226.63 205.073,1453.044 209.356,1453.044 227.972,226.695 "
       id="polygon445"
       style="fill:#bbbcbf" /><circle
       transform="matrix(0,-1,1,0,0,0)"
       cx="-67.156715"
       cy="-279.24045"
       r="18.07095"
       id="circle447"
       style="fill:#929496" /><circle
       transform="matrix(0,-1,1,0,0,0)"
       cx="-67.156715"
       cy="-282.67035"
       r="16.482452"
       id="circle449"
       style="fill:#bbbcbf" /><circle
       transform="matrix(0,-1,1,0,0,0)"
       cx="-67.156715"
       cy="-282.67035"
       r="14.495642"
       id="circle451"
       style="fill:#e6e6e7" /><path
       d="m -269.07881,72.013895 c 0.71759,-2.013678 1.00052,-4.171191 0.78872,-6.311318 l -28.1346,-3.225995 c -0.68598,2.026323 -0.92781,4.185417 -0.68282,6.325543 l 28.0287,3.21177 z"
       id="path453"
       inkscape:connector-curvature="0"
       style="fill:#929496" /><circle
       transform="matrix(0,-1,1,0,0,0)"
       cx="-46.760723"
       cy="-374.31485"
       r="18.07095"
       id="circle455"
       style="fill:#929496" /><circle
       transform="matrix(0,-1,1,0,0,0)"
       cx="-46.760723"
       cy="-377.74475"
       r="16.482452"
       id="circle457"
       style="fill:#bbbcbf" /><circle
       transform="matrix(0,-1,1,0,0,0)"
       cx="-46.760723"
       cy="-377.74475"
       r="14.495642"
       id="circle459"
       style="fill:#e6e6e7" /><path
       d="m -371.63417,59.904953 c 1.93781,-0.90094 3.6733,-2.212834 5.05,-3.867718 L -384.02921,33.73187 c -1.92516,0.930971 -3.6322,2.274477 -4.98519,3.949908 l 17.38023,22.223175 z"
       id="path461"
       inkscape:connector-curvature="0"
       style="fill:#929496" /><circle
       transform="matrix(0,-1,1,0,0,0)"
       cx="-59.887558"
       cy="-125.32522"
       r="18.712671"
       id="circle463"
       style="fill:#d0d1d3" /><circle
       transform="matrix(0,-1,1,0,0,0)"
       cx="-59.887558"
       cy="-125.32522"
       r="12.821793"
       id="circle465"
       style="fill:#929496" /><circle
       transform="matrix(0,-1,1,0,0,0)"
       cx="-59.887558"
       cy="-125.32522"
       r="11.667956"
       id="circle467"
       style="fill:#d0d1d3" /><circle
       transform="matrix(0,-1,1,0,0,0)"
       cx="-59.887558"
       cy="-125.32522"
       r="7.0478759"
       id="circle469"
       style="fill:#808183" /><rect
       x="78.473106"
       y="-112.74232"
       transform="matrix(-0.88288386,-0.4695914,0.4695914,-0.88288386,0,0)"
       width="8.0880556"
       height="2.0785213"
       id="rect471"
       style="fill:#d0d1d3" /><rect
       x="107.67137"
       y="81.510063"
       transform="matrix(-0.46939405,0.8829888,-0.8829888,-0.46939405,0,0)"
       width="8.0880108"
       height="2.0785096"
       id="rect473"
       style="fill:#d0d1d3" /><circle
       transform="matrix(0,-1,1,0,0,0)"
       cx="-23.303099"
       cy="-65.875854"
       r="18.712671"
       id="circle475"
       style="fill:#d0d1d3" /><circle
       transform="matrix(0,-1,1,0,0,0)"
       cx="-23.303099"
       cy="-65.875854"
       r="12.821793"
       id="circle477"
       style="fill:#929496" /><circle
       transform="matrix(0,-1,1,0,0,0)"
       cx="-23.303099"
       cy="-65.875854"
       r="11.667956"
       id="circle479"
       style="fill:#d0d1d3" /><circle
       transform="matrix(0,-1,1,0,0,0)"
       cx="-23.303099"
       cy="-65.875854"
       r="7.0478759"
       id="circle481"
       style="fill:#808183" /><rect
       x="43.197834"
       y="-52.556931"
       transform="matrix(-0.88288386,-0.4695914,0.4695914,-0.88288386,0,0)"
       width="8.0896368"
       height="2.0785213"
       id="rect483"
       style="fill:#d0d1d3" /><rect
       x="47.481152"
       y="46.171837"
       transform="matrix(-0.46939405,0.8829888,-0.8829888,-0.46939405,0,0)"
       width="8.0864296"
       height="2.0785096"
       id="rect485"
       style="fill:#d0d1d3" /><circle
       transform="matrix(0,-1,1,0,0,0)"
       cx="-108.27907"
       cy="-95.314453"
       r="18.07095"
       id="circle487"
       style="fill:#929496" /><circle
       transform="matrix(0,-1,1,0,0,0)"
       cx="-108.27907"
       cy="-98.744339"
       r="16.480871"
       id="circle489"
       style="fill:#bbbcbf" /><circle
       transform="matrix(0,-1,1,0,0,0)"
       cx="-108.27907"
       cy="-98.744339"
       r="14.495642"
       id="circle491"
       style="fill:#e6e6e7" /><path
       d="m -97.705893,122.7605 c 2.133804,-0.15174 4.221771,-0.75711 6.097938,-1.81136 l -8.337642,-27.062963 c -2.130643,0.183349 -4.205963,0.828232 -6.066323,1.91094 l 8.306027,26.963383 z"
       id="path493"
       inkscape:connector-curvature="0"
       style="fill:#929496" /><circle
       transform="matrix(0,-1,1,0,0,0)"
       cx="-88.346191"
       cy="-185.13022"
       r="18.07095"
       id="circle495"
       style="fill:#929496" /><circle
       transform="matrix(0,-1,1,0,0,0)"
       cx="-88.346191"
       cy="-188.56012"
       r="16.482452"
       id="circle497"
       style="fill:#bbbcbf" /><circle
       transform="matrix(0,-1,1,0,0,0)"
       cx="-88.346191"
       cy="-188.56012"
       r="14.495642"
       id="circle499"
       style="fill:#e6e6e7" /><path
       d="m -182.60917,101.56629 c 1.94888,-0.87881 3.6986,-2.168576 5.09742,-3.806073 l -17.17317,-22.515584 c -1.93623,0.907262 -3.66066,2.23022 -5.03261,3.889846 l 17.10836,22.431811 z"
       id="path501"
       inkscape:connector-curvature="0"
       style="fill:#929496" /><circle
       transform="matrix(0,-1,1,0,0,0)"
       cx="-3.09677"
       cy="-138.75871"
       r="18.07095"
       id="circle503"
       style="fill:#929496" /><circle
       transform="matrix(0,-1,1,0,0,0)"
       cx="-3.09677"
       cy="-142.1886"
       r="16.482452"
       id="circle505"
       style="fill:#bbbcbf" /><circle
       transform="matrix(0,-1,1,0,0,0)"
       cx="-3.09677"
       cy="-142.1886"
       r="14.495642"
       id="circle507"
       style="fill:#e6e6e7" /><path
       d="m -129.71295,10.386473 c 1.07638,-1.8492968 1.7513,-3.9151353 1.93939,-6.0584229 l -27.05822,-8.3518672 c -1.04951,1.8619417 -1.68333,3.94042487 -1.83823,6.0900349 l 26.95706,8.3202552 z"
       id="path509"
       inkscape:connector-curvature="0"
       style="fill:#929496" /></g></svg>