<?xml version="1.0" encoding="UTF-8" standalone="no"?>
<svg
   xmlns:dc="http://purl.org/dc/elements/1.1/"
   xmlns:cc="http://creativecommons.org/ns#"
   xmlns:rdf="http://www.w3.org/1999/02/22-rdf-syntax-ns#"
   xmlns:svg="http://www.w3.org/2000/svg"
   xmlns="http://www.w3.org/2000/svg"
   xmlns:sodipodi="http://sodipodi.sourceforge.net/DTD/sodipodi-0.dtd"
   xmlns:inkscape="http://www.inkscape.org/namespaces/inkscape"
   enable-background="new 0 0 512 512"
   height="115"
   id="bass2"
   version="1.1"
   viewBox="0 0 1044 115"
   width="1044"
   xml:space="preserve"
   inkscape:version="0.48.5 r10040"
   sodipodi:docname="jazz-bass-fretboard.svg"><metadata
     id="metadata553"><rdf:RDF><cc:Work
         rdf:about=""><dc:format>image/svg+xml</dc:format><dc:type
           rdf:resource="http://purl.org/dc/dcmitype/StillImage" /></cc:Work></rdf:RDF></metadata><defs
     id="defs551" /><sodipodi:namedview
     pagecolor="#ffffff"
     bordercolor="#666666"
     borderopacity="1"
     objecttolerance="10"
     gridtolerance="10"
     guidetolerance="10"
     inkscape:pageopacity="0"
     inkscape:pageshadow="2"
     inkscape:window-width="1920"
     inkscape:window-height="1058"
     id="namedview549"
     showgrid="false"
     inkscape:zoom="0.65186406"
     inkscape:cx="873.69023"
     inkscape:cy="-78.691415"
     inkscape:window-x="-8"
     inkscape:window-y="-8"
     inkscape:window-maximized="1"
     inkscape:current-layer="bass2" /><g
     id="g5571"><path
       d="m 870.53569,249.18571 c -10.60003,39.14216 45.38736,88.805 161.80561,89.37911 120.3484,0.59278 196.6957,-55.52063 266.0416,-52.41203 54.6385,2.4458 96.7772,39.77695 176.6859,72.57589 72.8466,29.90039 112.5348,44.85059 162.8278,43.76305 63.3201,-1.3676 99.1763,-20.6913 117.0064,-30.70788 60.4869,-33.98918 84.9543,-71.49769 101.2627,-104.11927 16.3085,-32.62158 50.559,-126.93897 62.2466,-229.690641 11.6876,-102.747005 10.8988,-154.860319 2.5952,-211.571169 -8.2989,-56.71553 -58.7039,-95.97438 -81.6683,-109.35627 -27.2072,-15.85571 -107.5079,-28.29942 -187.3139,9.15308 -83.9881,39.41288 -123.3823,90.92874 -187.2858,89.15974 -68.4965,-1.90437 -122.5702,-55.1799 -248.1742,-59.25935 -83.7174,-2.71652 -167.1594,32.8923 -159.3085,78.61105 4.3781,25.49888 29.1349,30.1011 52.4914,32.29485 40.5004,3.80406 77.1967,32.8923 79.3672,61.434431 2.9172,38.231987 -15.487,51.371169 -32.0709,57.891751 -7.1927,2.828541 -11.1508,8.4296136 -11.1508,8.4296136 L 1048.9485,115.70749 c 0,0 20.85,15.02021 14.5861,48.13188 -7.6128,40.2297 -118.20126,45.19132 -150.23939,48.76667 -8.77035,0.97552 -34.75465,7.02468 -42.75952,36.57967 z"
       id="path5"
       inkscape:connector-curvature="0"
       style="fill:#9a0c13;fill-opacity:1" /><path
       d="m 1111.9186,171.53618 c 14.5628,15.42162 47.231,-9.8859 126.2948,-17.16729 56.9349,-5.24634 150.4262,65.53721 225.3778,66.05531 56.9863,0.39675 71.9038,-47.36173 72.898,-54.09235 0.4901,-3.33731 5.293,-52.8928 15.3563,-108.189383 11.3235,-62.195241 28.9155,-101.603453 28.9155,-101.603453 0,0 -48.1552,-26.861809 -56.0481,-31.450021 -7.8928,-4.588212 -11.2721,-8.462287 -12.215,-14.469437 -0.9475,-6.011818 -8.3502,-69.985396 -8.3502,-69.985396 0,0 -34.6147,8.1729 -58.844,2.87055 -37.2098,-8.14023 -97.1086,-36.95775 -160.3727,-50.63837 -59.3013,-12.82178 -164.3401,-9.6105 -185.8436,31.73008 -1.7456,3.36064 110.8966,3.43999 130.4023,83.2226 13.9747,57.168278 -13.3445,84.7815652 -13.3445,84.7815652 0,0 -106.5978,163.3972848 -107.2979,164.8815648 -0.7095,1.49829 -2.8192,7.82283 3.0713,14.05403 z"
       id="path7"
       inkscape:connector-curvature="0"
       style="fill:#a6a8aa" /><path
       d="m 1109.9209,169.18373 c 14.5674,15.22091 47.231,-9.7552 126.2995,-16.94325 56.9349,-5.17632 150.4214,64.68772 225.3731,65.20115 56.9863,0.38741 71.9085,-46.75028 72.9026,-53.39222 0.4901,-3.2953 5.2977,-52.20666 15.361,-106.784444 11.3141,-61.3877535 26.7358,-99.087638 26.7358,-99.087638 0,0 -46.0128,-25.760265 -53.9057,-30.287799 -7.8928,-4.527533 -12.4017,-10.497343 -13.3492,-16.429812 -0.9382,-5.932469 -9.2371,-65.714577 -9.2371,-65.714577 0,0 -32.7569,5.74576 -56.9863,0.51343 -37.2144,-8.03754 -96.9172,-37.32648 -160.1766,-50.82973 -59.2967,-12.65376 -164.3448,-9.48449 -185.8436,31.31933 -1.7457,3.31396 110.8966,3.39798 130.4023,82.144389 13.9793,56.430804 -13.3492,83.6800209 -13.3492,83.6800209 0,0 -106.5931,161.2782101 -107.2932,162.7438201 -0.7142,1.47029 -2.8146,7.71081 3.0666,13.86733 z"
       id="path9"
       inkscape:connector-curvature="0"
       style="fill:#f7efd9;fill-opacity:1" /><path
       d="m 1581.3818,-43.106251 c 0,0 28.2901,-46.717611 71.9924,-75.049699 49.0094,-31.78609 141.6792,-105.30483 114.8687,-140.1435 -25.2142,-32.78028 -129.4221,29.48031 -165.4137,55.90804 -34.5213,25.33551 -100.7026,43.65102 -100.7026,43.65102 0,0 8.1589,60.020158 9.5732,67.390236 1.4049,7.370077 3.1879,12.000297 15.3142,18.763592 12.1217,6.75396 54.3678,29.480311 54.3678,29.480311 z"
       id="path11"
       inkscape:connector-curvature="0"
       style="fill:#efefef" /><g
       transform="matrix(0,-4.6675603,4.6675603,0,-454.22061,1251.9737)"
       id="g13"><g
         id="g15"><path
           d="m 245.52,405.906 c 0,0.102 0.009,0.199 0.021,0.297 h 4.887 c 0.012,-0.098 0.021,-0.195 0.021,-0.297 0,-1.317 -1.104,-2.385 -2.464,-2.385 -1.362,0 -2.465,1.068 -2.465,2.385 z"
           id="path17"
           inkscape:connector-curvature="0"
           style="fill:#434244" /><path
           d="m 245.306,406.119 c 0,0.102 0.009,0.2 0.021,0.298 h 4.887 c 0.013,-0.098 0.021,-0.196 0.021,-0.298 0,-1.316 -1.104,-2.385 -2.465,-2.385 -1.36,0 -2.464,1.069 -2.464,2.385 z"
           id="path19"
           inkscape:connector-curvature="0"
           style="fill:#292929" /><circle
           cx="247.771"
           cy="404.784"
           r="0.98500001"
           id="circle21"
           sodipodi:cx="247.771"
           sodipodi:cy="404.784"
           sodipodi:rx="0.98500001"
           sodipodi:ry="0.98500001"
           style="fill:#b4b4b4"
           d="m 248.756,404.784 c 0,0.544 -0.441,0.985 -0.985,0.985 -0.544,0 -0.985,-0.441 -0.985,-0.985 0,-0.544 0.441,-0.985 0.985,-0.985 0.544,0 0.985,0.441 0.985,0.985 z" /></g><g
         id="g23"><path
           d="m 261.709,405.906 c 0,0.102 0.009,0.199 0.021,0.297 h 4.888 c 0.012,-0.098 0.021,-0.195 0.021,-0.297 0,-1.317 -1.104,-2.385 -2.465,-2.385 -1.361,0 -2.465,1.068 -2.465,2.385 z"
           id="path25"
           inkscape:connector-curvature="0"
           style="fill:#434244" /><path
           d="m 261.495,406.119 c 0,0.102 0.009,0.2 0.021,0.298 h 4.887 c 0.013,-0.098 0.021,-0.196 0.021,-0.298 0,-1.316 -1.103,-2.385 -2.464,-2.385 -1.361,0 -2.465,1.069 -2.465,2.385 z"
           id="path27"
           inkscape:connector-curvature="0"
           style="fill:#292929" /><circle
           cx="263.95999"
           cy="404.784"
           r="0.98500001"
           id="circle29"
           sodipodi:cx="263.95999"
           sodipodi:cy="404.784"
           sodipodi:rx="0.98500001"
           sodipodi:ry="0.98500001"
           style="fill:#b4b4b4"
           d="m 264.94499,404.784 c 0,0.544 -0.441,0.985 -0.985,0.985 -0.544,0 -0.985,-0.441 -0.985,-0.985 0,-0.544 0.441,-0.985 0.985,-0.985 0.544,0 0.985,0.441 0.985,0.985 z" /></g><g
         id="g31"><path
           d="m 245.306,414.479 c 0,-0.101 0.009,-0.2 0.021,-0.298 h 4.887 c 0.013,0.098 0.021,0.197 0.021,0.298 0,1.317 -1.104,2.385 -2.465,2.385 -1.36,0 -2.464,-1.067 -2.464,-2.385 z"
           id="path33"
           inkscape:connector-curvature="0"
           style="fill:#292929" /><circle
           cx="247.771"
           cy="415.815"
           r="0.98500001"
           id="circle35"
           sodipodi:cx="247.771"
           sodipodi:cy="415.815"
           sodipodi:rx="0.98500001"
           sodipodi:ry="0.98500001"
           style="fill:#b4b4b4"
           d="m 248.756,415.815 c 0,0.544 -0.441,0.985 -0.985,0.985 -0.544,0 -0.985,-0.441 -0.985,-0.985 0,-0.544 0.441,-0.985 0.985,-0.985 0.544,0 0.985,0.441 0.985,0.985 z" /></g><g
         id="g37"><path
           d="m 261.495,414.479 c 0,-0.101 0.009,-0.2 0.021,-0.298 h 4.887 c 0.013,0.098 0.021,0.197 0.021,0.298 0,1.317 -1.103,2.385 -2.464,2.385 -1.361,0 -2.465,-1.067 -2.465,-2.385 z"
           id="path39"
           inkscape:connector-curvature="0"
           style="fill:#292929" /><circle
           cx="263.95999"
           cy="415.815"
           r="0.98500001"
           id="circle41"
           sodipodi:cx="263.95999"
           sodipodi:cy="415.815"
           sodipodi:rx="0.98500001"
           sodipodi:ry="0.98500001"
           style="fill:#b4b4b4"
           d="m 264.94499,415.815 c 0,0.544 -0.441,0.985 -0.985,0.985 -0.544,0 -0.985,-0.441 -0.985,-0.985 0,-0.544 0.441,-0.985 0.985,-0.985 0.544,0 0.985,0.441 0.985,0.985 z" /></g><path
         d="m 275.306,405.977 c 0.475,0 0.863,0.418 0.863,0.93 v 6.62 c 0,0.511 -0.389,0.929 -0.863,0.929 h -38.488 c -0.475,0 -0.863,-0.418 -0.863,-0.929 v -6.62 c 0,-0.512 0.389,-0.93 0.863,-0.93 h 38.488 z"
         id="path43"
         inkscape:connector-curvature="0" /><path
         d="m 274.888,406.831 c 0.47,0 0.854,0.384 0.854,0.854 v 6.085 c 0,0.47 -0.384,0.854 -0.854,0.854 h -38.08 c -0.47,0 -0.854,-0.385 -0.854,-0.854 v -6.085 c 0,-0.471 0.384,-0.854 0.854,-0.854 h 38.08 z"
         id="path45"
         inkscape:connector-curvature="0"
         style="fill:#292929" /><g
         id="g47"><circle
           cx="242.121"
           cy="410.80801"
           r="1.199"
           id="circle49"
           sodipodi:cx="242.121"
           sodipodi:cy="410.80801"
           sodipodi:rx="1.199"
           sodipodi:ry="1.199"
           style="fill:#6a6a6a"
           d="m 243.32,410.80801 c 0,0.66219 -0.53681,1.199 -1.199,1.199 -0.66219,0 -1.199,-0.53681 -1.199,-1.199 0,-0.66219 0.53681,-1.199 1.199,-1.199 0.66219,0 1.199,0.53681 1.199,1.199 z" /><circle
           cx="245.265"
           cy="410.80801"
           r="1.199"
           id="circle51"
           sodipodi:cx="245.265"
           sodipodi:cy="410.80801"
           sodipodi:rx="1.199"
           sodipodi:ry="1.199"
           style="fill:#6a6a6a"
           d="m 246.464,410.80801 c 0,0.66219 -0.53681,1.199 -1.199,1.199 -0.66219,0 -1.199,-0.53681 -1.199,-1.199 0,-0.66219 0.53681,-1.199 1.199,-1.199 0.66219,0 1.199,0.53681 1.199,1.199 z" /></g><g
         id="g53"><circle
           cx="250.354"
           cy="410.80801"
           r="1.199"
           id="circle55"
           sodipodi:cx="250.354"
           sodipodi:cy="410.80801"
           sodipodi:rx="1.199"
           sodipodi:ry="1.199"
           style="fill:#6a6a6a"
           d="m 251.553,410.80801 c 0,0.66219 -0.53681,1.199 -1.199,1.199 -0.66219,0 -1.199,-0.53681 -1.199,-1.199 0,-0.66219 0.53681,-1.199 1.199,-1.199 0.66219,0 1.199,0.53681 1.199,1.199 z" /><circle
           cx="253.49699"
           cy="410.80801"
           r="1.199"
           id="circle57"
           sodipodi:cx="253.49699"
           sodipodi:cy="410.80801"
           sodipodi:rx="1.199"
           sodipodi:ry="1.199"
           style="fill:#6a6a6a"
           d="m 254.69599,410.80801 c 0,0.66219 -0.53681,1.199 -1.199,1.199 -0.66219,0 -1.199,-0.53681 -1.199,-1.199 0,-0.66219 0.53681,-1.199 1.199,-1.199 0.66219,0 1.199,0.53681 1.199,1.199 z" /></g><g
         id="g59"><circle
           cx="258.586"
           cy="410.80801"
           r="1.199"
           id="circle61"
           sodipodi:cx="258.586"
           sodipodi:cy="410.80801"
           sodipodi:rx="1.199"
           sodipodi:ry="1.199"
           style="fill:#6a6a6a"
           d="m 259.785,410.80801 c 0,0.66219 -0.53681,1.199 -1.199,1.199 -0.66219,0 -1.199,-0.53681 -1.199,-1.199 0,-0.66219 0.53681,-1.199 1.199,-1.199 0.66219,0 1.199,0.53681 1.199,1.199 z" /><circle
           cx="261.729"
           cy="410.80801"
           r="1.199"
           id="circle63"
           sodipodi:cx="261.729"
           sodipodi:cy="410.80801"
           sodipodi:rx="1.199"
           sodipodi:ry="1.199"
           style="fill:#6a6a6a"
           d="m 262.928,410.80801 c 0,0.66219 -0.53681,1.199 -1.199,1.199 -0.66219,0 -1.199,-0.53681 -1.199,-1.199 0,-0.66219 0.53681,-1.199 1.199,-1.199 0.66219,0 1.199,0.53681 1.199,1.199 z" /></g><g
         id="g65"><circle
           cx="266.81799"
           cy="410.80801"
           r="1.199"
           id="circle67"
           sodipodi:cx="266.81799"
           sodipodi:cy="410.80801"
           sodipodi:rx="1.199"
           sodipodi:ry="1.199"
           style="fill:#6a6a6a"
           d="m 268.01699,410.80801 c 0,0.66219 -0.53681,1.199 -1.199,1.199 -0.66219,0 -1.199,-0.53681 -1.199,-1.199 0,-0.66219 0.53681,-1.199 1.199,-1.199 0.66219,0 1.199,0.53681 1.199,1.199 z" /><circle
           cx="269.96201"
           cy="410.80801"
           r="1.199"
           id="circle69"
           sodipodi:cx="269.96201"
           sodipodi:cy="410.80801"
           sodipodi:rx="1.199"
           sodipodi:ry="1.199"
           style="fill:#6a6a6a"
           d="m 271.16101,410.80801 c 0,0.66219 -0.53681,1.199 -1.199,1.199 -0.66219,0 -1.199,-0.53681 -1.199,-1.199 0,-0.66219 0.53681,-1.199 1.199,-1.199 0.66219,0 1.199,0.53681 1.199,1.199 z" /></g></g><g
       transform="matrix(0,-4.6675603,4.6675603,0,-454.22061,1251.9737)"
       id="g71"><g
         id="g73"><path
           d="m 245.52,445.988 c 0,0.1 0.009,0.199 0.021,0.297 h 4.887 c 0.012,-0.098 0.021,-0.197 0.021,-0.297 0,-1.318 -1.104,-2.385 -2.464,-2.385 -1.362,10e-4 -2.465,1.067 -2.465,2.385 z"
           id="path75"
           inkscape:connector-curvature="0"
           style="fill:#434244" /><path
           d="m 245.306,446.201 c 0,0.102 0.009,0.199 0.021,0.297 h 4.887 c 0.013,-0.098 0.021,-0.195 0.021,-0.297 0,-1.317 -1.104,-2.385 -2.465,-2.385 -1.36,0 -2.464,1.068 -2.464,2.385 z"
           id="path77"
           inkscape:connector-curvature="0"
           style="fill:#292929" /><circle
           cx="247.771"
           cy="444.866"
           r="0.986"
           id="circle79"
           sodipodi:cx="247.771"
           sodipodi:cy="444.866"
           sodipodi:rx="0.986"
           sodipodi:ry="0.986"
           style="fill:#b4b4b4"
           d="m 248.757,444.866 c 0,0.54455 -0.44145,0.986 -0.986,0.986 -0.54456,0 -0.986,-0.44145 -0.986,-0.986 0,-0.54456 0.44144,-0.986 0.986,-0.986 0.54455,0 0.986,0.44144 0.986,0.986 z" /></g><g
         id="g81"><path
           d="m 261.709,445.988 c 0,0.1 0.008,0.199 0.021,0.297 h 4.887 c 0.013,-0.098 0.021,-0.197 0.021,-0.297 0,-1.318 -1.104,-2.385 -2.465,-2.385 -1.361,0 -2.464,1.067 -2.464,2.385 z"
           id="path83"
           inkscape:connector-curvature="0"
           style="fill:#434244" /><path
           d="m 261.495,446.201 c 0,0.102 0.009,0.199 0.021,0.297 h 4.887 c 0.012,-0.098 0.021,-0.195 0.021,-0.297 0,-1.317 -1.103,-2.385 -2.464,-2.385 -1.361,0 -2.465,1.068 -2.465,2.385 z"
           id="path85"
           inkscape:connector-curvature="0"
           style="fill:#292929" /><circle
           cx="263.95999"
           cy="444.866"
           r="0.986"
           id="circle87"
           sodipodi:cx="263.95999"
           sodipodi:cy="444.866"
           sodipodi:rx="0.986"
           sodipodi:ry="0.986"
           style="fill:#b4b4b4"
           d="m 264.94599,444.866 c 0,0.54455 -0.44145,0.986 -0.986,0.986 -0.54455,0 -0.986,-0.44145 -0.986,-0.986 0,-0.54456 0.44145,-0.986 0.986,-0.986 0.54455,0 0.986,0.44144 0.986,0.986 z" /></g><g
         id="g89"><path
           d="m 245.306,454.561 c 0,-0.101 0.009,-0.199 0.021,-0.297 h 4.887 c 0.013,0.098 0.021,0.196 0.021,0.297 0,1.317 -1.104,2.385 -2.465,2.385 -1.36,-0.001 -2.464,-1.068 -2.464,-2.385 z"
           id="path91"
           inkscape:connector-curvature="0"
           style="fill:#292929" /><circle
           cx="247.771"
           cy="455.896"
           r="0.98500001"
           id="circle93"
           sodipodi:cx="247.771"
           sodipodi:cy="455.896"
           sodipodi:rx="0.98500001"
           sodipodi:ry="0.98500001"
           style="fill:#b4b4b4"
           d="m 248.756,455.896 c 0,0.544 -0.441,0.985 -0.985,0.985 -0.544,0 -0.985,-0.441 -0.985,-0.985 0,-0.544 0.441,-0.985 0.985,-0.985 0.544,0 0.985,0.441 0.985,0.985 z" /></g><g
         id="g95"><path
           d="m 261.495,454.561 c 0,-0.101 0.009,-0.199 0.021,-0.297 h 4.887 c 0.012,0.098 0.021,0.196 0.021,0.297 0,1.317 -1.103,2.385 -2.464,2.385 -1.361,0 -2.465,-1.068 -2.465,-2.385 z"
           id="path97"
           inkscape:connector-curvature="0"
           style="fill:#292929" /><circle
           cx="263.95999"
           cy="455.896"
           r="0.98500001"
           id="circle99"
           sodipodi:cx="263.95999"
           sodipodi:cy="455.896"
           sodipodi:rx="0.98500001"
           sodipodi:ry="0.98500001"
           style="fill:#b4b4b4"
           d="m 264.94499,455.896 c 0,0.544 -0.441,0.985 -0.985,0.985 -0.544,0 -0.985,-0.441 -0.985,-0.985 0,-0.544 0.441,-0.985 0.985,-0.985 0.544,0 0.985,0.441 0.985,0.985 z" /></g><path
         d="m 275.305,446.059 c 0.476,0 0.863,0.418 0.863,0.929 v 6.62 c 0,0.512 -0.388,0.93 -0.863,0.93 h -38.487 c -0.475,0 -0.863,-0.418 -0.863,-0.93 v -6.62 c 0,-0.511 0.389,-0.929 0.863,-0.929 h 38.487 z"
         id="path101"
         inkscape:connector-curvature="0" /><path
         d="m 274.888,446.912 c 0.47,0 0.854,0.385 0.854,0.854 v 6.085 c 0,0.47 -0.384,0.854 -0.854,0.854 h -38.08 c -0.47,0 -0.854,-0.385 -0.854,-0.854 v -6.085 c 0,-0.47 0.384,-0.854 0.854,-0.854 h 38.08 z"
         id="path103"
         inkscape:connector-curvature="0"
         style="fill:#292929" /><g
         id="g105"><circle
           cx="242.121"
           cy="450.88901"
           r="1.199"
           id="circle107"
           sodipodi:cx="242.121"
           sodipodi:cy="450.88901"
           sodipodi:rx="1.199"
           sodipodi:ry="1.199"
           style="fill:#6a6a6a"
           d="m 243.32,450.88901 c 0,0.66219 -0.53681,1.199 -1.199,1.199 -0.66219,0 -1.199,-0.53681 -1.199,-1.199 0,-0.66219 0.53681,-1.199 1.199,-1.199 0.66219,0 1.199,0.53681 1.199,1.199 z" /><circle
           cx="245.265"
           cy="450.88901"
           r="1.199"
           id="circle109"
           sodipodi:cx="245.265"
           sodipodi:cy="450.88901"
           sodipodi:rx="1.199"
           sodipodi:ry="1.199"
           style="fill:#6a6a6a"
           d="m 246.464,450.88901 c 0,0.66219 -0.53681,1.199 -1.199,1.199 -0.66219,0 -1.199,-0.53681 -1.199,-1.199 0,-0.66219 0.53681,-1.199 1.199,-1.199 0.66219,0 1.199,0.53681 1.199,1.199 z" /></g><g
         id="g111"><circle
           cx="250.354"
           cy="450.88901"
           r="1.199"
           id="circle113"
           sodipodi:cx="250.354"
           sodipodi:cy="450.88901"
           sodipodi:rx="1.199"
           sodipodi:ry="1.199"
           style="fill:#6a6a6a"
           d="m 251.553,450.88901 c 0,0.66219 -0.53681,1.199 -1.199,1.199 -0.66219,0 -1.199,-0.53681 -1.199,-1.199 0,-0.66219 0.53681,-1.199 1.199,-1.199 0.66219,0 1.199,0.53681 1.199,1.199 z" /><circle
           cx="253.49699"
           cy="450.88901"
           r="1.199"
           id="circle115"
           sodipodi:cx="253.49699"
           sodipodi:cy="450.88901"
           sodipodi:rx="1.199"
           sodipodi:ry="1.199"
           style="fill:#6a6a6a"
           d="m 254.69599,450.88901 c 0,0.66219 -0.53681,1.199 -1.199,1.199 -0.66219,0 -1.199,-0.53681 -1.199,-1.199 0,-0.66219 0.53681,-1.199 1.199,-1.199 0.66219,0 1.199,0.53681 1.199,1.199 z" /></g><g
         id="g117"><circle
           cx="258.586"
           cy="450.88901"
           r="1.199"
           id="circle119"
           sodipodi:cx="258.586"
           sodipodi:cy="450.88901"
           sodipodi:rx="1.199"
           sodipodi:ry="1.199"
           style="fill:#6a6a6a"
           d="m 259.785,450.88901 c 0,0.66219 -0.53681,1.199 -1.199,1.199 -0.66219,0 -1.199,-0.53681 -1.199,-1.199 0,-0.66219 0.53681,-1.199 1.199,-1.199 0.66219,0 1.199,0.53681 1.199,1.199 z" /><circle
           cx="261.729"
           cy="450.88901"
           r="1.199"
           id="circle121"
           sodipodi:cx="261.729"
           sodipodi:cy="450.88901"
           sodipodi:rx="1.199"
           sodipodi:ry="1.199"
           style="fill:#6a6a6a"
           d="m 262.928,450.88901 c 0,0.66219 -0.53681,1.199 -1.199,1.199 -0.66219,0 -1.199,-0.53681 -1.199,-1.199 0,-0.66219 0.53681,-1.199 1.199,-1.199 0.66219,0 1.199,0.53681 1.199,1.199 z" /></g><g
         id="g123"><circle
           cx="266.81799"
           cy="450.88901"
           r="1.199"
           id="circle125"
           sodipodi:cx="266.81799"
           sodipodi:cy="450.88901"
           sodipodi:rx="1.199"
           sodipodi:ry="1.199"
           style="fill:#6a6a6a"
           d="m 268.01699,450.88901 c 0,0.66219 -0.53681,1.199 -1.199,1.199 -0.66219,0 -1.199,-0.53681 -1.199,-1.199 0,-0.66219 0.53681,-1.199 1.199,-1.199 0.66219,0 1.199,0.53681 1.199,1.199 z" /><circle
           cx="269.96201"
           cy="450.88901"
           r="1.199"
           id="circle127"
           sodipodi:cx="269.96201"
           sodipodi:cy="450.88901"
           sodipodi:rx="1.199"
           sodipodi:ry="1.199"
           style="fill:#6a6a6a"
           d="m 271.16101,450.88901 c 0,0.66219 -0.53681,1.199 -1.199,1.199 -0.66219,0 -1.199,-0.53681 -1.199,-1.199 0,-0.66219 0.53681,-1.199 1.199,-1.199 0.66219,0 1.199,0.53681 1.199,1.199 z" /></g></g><circle
       transform="matrix(0,-4.6675603,4.6675603,0,-454.22061,1251.9737)"
       cx="228.87399"
       cy="391.836"
       r="1.1619999"
       id="circle129"
       sodipodi:cx="228.87399"
       sodipodi:cy="391.836"
       sodipodi:rx="1.1619999"
       sodipodi:ry="1.1619999"
       style="fill:#c1c1c1"
       d="m 230.03599,391.836 c 0,0.64175 -0.52024,1.162 -1.162,1.162 -0.64175,0 -1.162,-0.52025 -1.162,-1.162 0,-0.64176 0.52025,-1.162 1.162,-1.162 0.64176,0 1.162,0.52024 1.162,1.162 z" /><circle
       transform="matrix(0,-4.6675603,4.6675603,0,-454.22061,1251.9737)"
       cx="244.533"
       cy="425.125"
       r="1.1619999"
       id="circle131"
       sodipodi:cx="244.533"
       sodipodi:cy="425.125"
       sodipodi:rx="1.1619999"
       sodipodi:ry="1.1619999"
       style="fill:#c1c1c1"
       d="m 245.695,425.125 c 0,0.64175 -0.52024,1.162 -1.162,1.162 -0.64175,0 -1.162,-0.52025 -1.162,-1.162 0,-0.64175 0.52025,-1.162 1.162,-1.162 0.64176,0 1.162,0.52025 1.162,1.162 z" /><circle
       transform="matrix(0,-4.6675603,4.6675603,0,-454.22061,1251.9737)"
       cx="275.56299"
       cy="431.961"
       r="1.1619999"
       id="circle133"
       sodipodi:cx="275.56299"
       sodipodi:cy="431.961"
       sodipodi:rx="1.1619999"
       sodipodi:ry="1.1619999"
       style="fill:#c1c1c1"
       d="m 276.72499,431.961 c 0,0.64175 -0.52025,1.162 -1.162,1.162 -0.64176,0 -1.162,-0.52025 -1.162,-1.162 0,-0.64176 0.52024,-1.162 1.162,-1.162 0.64175,0 1.162,0.52024 1.162,1.162 z" /><circle
       transform="matrix(0,-4.6675603,4.6675603,0,-454.22061,1251.9737)"
       cx="298.198"
       cy="416.09399"
       r="1.1619999"
       id="circle135"
       sodipodi:cx="298.198"
       sodipodi:cy="416.09399"
       sodipodi:rx="1.1619999"
       sodipodi:ry="1.1619999"
       style="fill:#c1c1c1"
       d="m 299.36,416.09399 c 0,0.64176 -0.52025,1.162 -1.162,1.162 -0.64176,0 -1.162,-0.52024 -1.162,-1.162 0,-0.64175 0.52024,-1.162 1.162,-1.162 0.64175,0 1.162,0.52025 1.162,1.162 z" /><circle
       transform="matrix(0,-4.6675603,4.6675603,0,-454.22061,1251.9737)"
       cx="303.82501"
       cy="390.28101"
       r="1.1619999"
       id="circle137"
       sodipodi:cx="303.82501"
       sodipodi:cy="390.28101"
       sodipodi:rx="1.1619999"
       sodipodi:ry="1.1619999"
       style="fill:#c1c1c1"
       d="m 304.98701,390.28101 c 0,0.64175 -0.52024,1.162 -1.162,1.162 -0.64175,0 -1.162,-0.52025 -1.162,-1.162 0,-0.64176 0.52025,-1.162 1.162,-1.162 0.64176,0 1.162,0.52024 1.162,1.162 z" /><circle
       transform="matrix(0,-4.6675603,4.6675603,0,-454.22061,1251.9737)"
       cx="310.616"
       cy="364.07401"
       r="1.1619999"
       id="circle139"
       sodipodi:cx="310.616"
       sodipodi:cy="364.07401"
       sodipodi:rx="1.1619999"
       sodipodi:ry="1.1619999"
       style="fill:#c1c1c1"
       d="m 311.778,364.07401 c 0,0.64175 -0.52025,1.162 -1.162,1.162 -0.64176,0 -1.162,-0.52025 -1.162,-1.162 0,-0.64176 0.52024,-1.162 1.162,-1.162 0.64175,0 1.162,0.52024 1.162,1.162 z" /><circle
       transform="matrix(0,-4.6675603,4.6675603,0,-454.22061,1251.9737)"
       cx="307.20499"
       cy="338.16699"
       r="1.1619999"
       id="circle141"
       sodipodi:cx="307.20499"
       sodipodi:cy="338.16699"
       sodipodi:rx="1.1619999"
       sodipodi:ry="1.1619999"
       style="fill:#c1c1c1"
       d="m 308.36699,338.16699 c 0,0.64176 -0.52025,1.162 -1.162,1.162 -0.64176,0 -1.162,-0.52024 -1.162,-1.162 0,-0.64175 0.52024,-1.162 1.162,-1.162 0.64175,0 1.162,0.52025 1.162,1.162 z" /><circle
       transform="matrix(0,-4.6675603,4.6675603,0,-454.22061,1251.9737)"
       cx="273.15399"
       cy="362.61099"
       r="1.1619999"
       id="circle143"
       sodipodi:cx="273.15399"
       sodipodi:cy="362.61099"
       sodipodi:rx="1.1619999"
       sodipodi:ry="1.1619999"
       style="fill:#c1c1c1"
       d="m 274.31599,362.61099 c 0,0.64176 -0.52024,1.162 -1.162,1.162 -0.64175,0 -1.162,-0.52024 -1.162,-1.162 0,-0.64175 0.52025,-1.162 1.162,-1.162 0.64176,0 1.162,0.52025 1.162,1.162 z" /><circle
       transform="matrix(0,-4.6675603,4.6675603,0,-454.22061,1251.9737)"
       cx="233.925"
       cy="337.125"
       r="1.1619999"
       id="circle145"
       sodipodi:cx="233.925"
       sodipodi:cy="337.125"
       sodipodi:rx="1.1619999"
       sodipodi:ry="1.1619999"
       style="fill:#c1c1c1"
       d="m 235.087,337.125 c 0,0.64175 -0.52024,1.162 -1.162,1.162 -0.64175,0 -1.162,-0.52025 -1.162,-1.162 0,-0.64175 0.52025,-1.162 1.162,-1.162 0.64176,0 1.162,0.52025 1.162,1.162 z" /><circle
       transform="matrix(0,-4.6675603,4.6675603,0,-454.22061,1251.9737)"
       cx="237.854"
       cy="367.98401"
       r="1.1619999"
       id="circle147"
       sodipodi:cx="237.854"
       sodipodi:cy="367.98401"
       sodipodi:rx="1.1619999"
       sodipodi:ry="1.1619999"
       style="fill:#c1c1c1"
       d="m 239.016,367.98401 c 0,0.64175 -0.52024,1.162 -1.162,1.162 -0.64175,0 -1.162,-0.52025 -1.162,-1.162 0,-0.64176 0.52025,-1.162 1.162,-1.162 0.64176,0 1.162,0.52024 1.162,1.162 z" /><g
       transform="matrix(0,-4.6675603,4.6675603,0,-454.22061,1251.9737)"
       id="g149"><circle
         cx="290.42099"
         cy="428.646"
         r="5.506"
         id="circle151"
         sodipodi:cx="290.42099"
         sodipodi:cy="428.646"
         sodipodi:rx="5.506"
         sodipodi:ry="5.506"
         style="fill:#272525"
         d="m 295.92699,428.646 c 0,3.04088 -2.46512,5.506 -5.506,5.506 -3.04088,0 -5.506,-2.46512 -5.506,-5.506 0,-3.04088 2.46512,-5.506 5.506,-5.506 3.04088,0 5.506,2.46512 5.506,5.506 z" /><g
         id="g153"><path
           d="m 295.493,430.939 c 0.058,0.228 -0.011,0.567 -0.152,0.755 l -2.138,2.824 c -0.142,0.188 -0.45,0.346 -0.685,0.352 l -3.541,0.09 c -0.234,0.006 -0.551,-0.137 -0.701,-0.316 l -2.278,-2.713 c -0.15,-0.18 -0.236,-0.516 -0.189,-0.746 l 0.699,-3.471 c 0.047,-0.23 0.256,-0.507 0.465,-0.614 l 3.151,-1.616 c 0.209,-0.107 0.556,-0.116 0.77,-0.02 l 3.229,1.454 c 0.214,0.097 0.438,0.362 0.495,0.59 l 0.875,3.431 z"
           id="path155"
           inkscape:connector-curvature="0"
           style="fill:#424242" /></g></g><g
       transform="matrix(0,-4.6675603,4.6675603,0,-454.22061,1251.9737)"
       id="g157"><circle
         cx="299.104"
         cy="441.39801"
         r="5.506"
         id="circle159"
         sodipodi:cx="299.104"
         sodipodi:cy="441.39801"
         sodipodi:rx="5.506"
         sodipodi:ry="5.506"
         style="fill:#272525"
         d="m 304.61,441.39801 c 0,3.04088 -2.46512,5.506 -5.506,5.506 -3.04088,0 -5.506,-2.46512 -5.506,-5.506 0,-3.04088 2.46512,-5.506 5.506,-5.506 3.04088,0 5.506,2.46512 5.506,5.506 z" /><g
         id="g161"><path
           d="m 304.175,443.691 c 0.058,0.228 -0.011,0.567 -0.152,0.755 l -2.137,2.824 c -0.142,0.188 -0.45,0.346 -0.685,0.352 l -3.541,0.09 c -0.234,0.006 -0.551,-0.137 -0.701,-0.316 l -2.278,-2.712 c -0.15,-0.18 -0.236,-0.516 -0.19,-0.746 l 0.701,-3.471 c 0.046,-0.23 0.255,-0.507 0.464,-0.614 l 3.151,-1.616 c 0.209,-0.107 0.555,-0.116 0.77,-0.02 l 3.228,1.454 c 0.215,0.097 0.438,0.362 0.495,0.59 l 0.875,3.43 z"
           id="path163"
           inkscape:connector-curvature="0"
           style="fill:#424242" /></g></g><g
       transform="matrix(0,-4.6675603,4.6675603,0,-454.22061,1251.9737)"
       id="g165"><circle
         cx="307.69299"
         cy="453.77399"
         r="4.079"
         id="circle167"
         sodipodi:cx="307.69299"
         sodipodi:cy="453.77399"
         sodipodi:rx="4.079"
         sodipodi:ry="4.079"
         style="fill:#272525"
         d="m 311.77199,453.77399 c 0,2.25277 -1.82623,4.079 -4.079,4.079 -2.25277,0 -4.079,-1.82623 -4.079,-4.079 0,-2.25277 1.82623,-4.079 4.079,-4.079 2.25277,0 4.079,1.82623 4.079,4.079 z" /><g
         id="g169"><path
           d="m 311.45,455.473 c 0.043,0.169 -0.008,0.42 -0.112,0.559 l -1.584,2.094 c -0.104,0.139 -0.333,0.256 -0.507,0.26 l -2.623,0.066 c -0.174,0.004 -0.408,-0.102 -0.52,-0.234 l -1.688,-2.01 c -0.111,-0.133 -0.175,-0.382 -0.141,-0.553 l 0.52,-2.57 c 0.034,-0.171 0.189,-0.376 0.344,-0.455 l 2.335,-1.197 c 0.154,-0.079 0.411,-0.086 0.569,-0.015 l 2.393,1.078 c 0.158,0.071 0.323,0.268 0.366,0.437 l 0.648,2.54 z"
           id="path171"
           inkscape:connector-curvature="0"
           style="fill:#424242" /></g></g><circle
       transform="matrix(0,-4.6675603,4.6675603,0,-454.22061,1251.9737)"
       cx="281.79501"
       cy="435.39499"
       r="1.1619999"
       id="circle173"
       sodipodi:cx="281.79501"
       sodipodi:cy="435.39499"
       sodipodi:rx="1.1619999"
       sodipodi:ry="1.1619999"
       style="fill:#c1c1c1"
       d="m 282.95701,435.39499 c 0,0.64175 -0.52024,1.162 -1.162,1.162 -0.64175,0 -1.162,-0.52025 -1.162,-1.162 0,-0.64176 0.52025,-1.162 1.162,-1.162 0.64176,0 1.162,0.52024 1.162,1.162 z" /><circle
       transform="matrix(0,-4.6675603,4.6675603,0,-454.22061,1251.9737)"
       cx="321.57101"
       cy="474.01401"
       r="1.1619999"
       id="circle175"
       sodipodi:cx="321.57101"
       sodipodi:cy="474.01401"
       sodipodi:rx="1.1619999"
       sodipodi:ry="1.1619999"
       style="fill:#c1c1c1"
       d="m 322.73301,474.01401 c 0,0.64175 -0.52024,1.162 -1.162,1.162 -0.64175,0 -1.162,-0.52025 -1.162,-1.162 0,-0.64176 0.52025,-1.162 1.162,-1.162 0.64176,0 1.162,0.52024 1.162,1.162 z" /><circle
       transform="matrix(0,-4.6675603,4.6675603,0,-454.22061,1251.9737)"
       cx="299.841"
       cy="423.07599"
       r="1.1619999"
       id="circle177"
       sodipodi:cx="299.841"
       sodipodi:cy="423.07599"
       sodipodi:rx="1.1619999"
       sodipodi:ry="1.1619999"
       style="fill:#c1c1c1"
       d="m 301.003,423.07599 c 0,0.64175 -0.52024,1.162 -1.162,1.162 -0.64175,0 -1.162,-0.52025 -1.162,-1.162 0,-0.64176 0.52025,-1.162 1.162,-1.162 0.64176,0 1.162,0.52024 1.162,1.162 z" /><g
       transform="matrix(0,-4.6675603,4.6675603,0,-454.22061,1251.9737)"
       id="g179"
       style="opacity:0.7"><path
         d="m 187.168,464.401 c 0,0 -0.251,-0.669 -0.679,-1.951 -0.399,-1.285 -0.987,-3.177 -1.5,-5.646 -0.231,-1.239 -0.551,-2.603 -0.706,-4.12 -0.089,-0.757 -0.205,-1.543 -0.27,-2.364 -0.031,-0.825 -0.063,-1.68 -0.096,-2.563 -0.072,-0.884 0.013,-1.798 0.083,-2.74 0.034,-0.472 0.068,-0.95 0.103,-1.436 l 0.057,-0.743 0.117,-0.721 c 0.162,-0.967 0.304,-1.956 0.494,-2.973 0.212,-1.02 0.43,-2.063 0.652,-3.128 0.978,-4.233 2.509,-8.694 4.405,-13.253 1.885,-4.571 3.966,-9.328 6.237,-14.208 2.287,-4.889 4.897,-9.797 7.334,-14.854 2.421,-5.045 4.686,-10.318 5.401,-15.896 0.37,-2.776 0.336,-5.592 -0.007,-8.385 -0.334,-2.759 -1.058,-5.478 -1.946,-8.124 -1.824,-5.29 -3.828,-10.534 -5.155,-15.768 -1.38,-5.227 -2.361,-10.332 -3.09,-15.243 -0.724,-4.848 -1,-9.594 -0.949,-13.909 0.134,-4.331 0.636,-8.288 1.417,-11.729 0.805,-3.437 1.877,-6.337 2.939,-8.639 1.058,-2.309 2.142,-4 2.953,-5.101 0.387,-0.564 0.785,-0.926 1.098,-1.122 0.308,-0.202 0.517,-0.251 0.517,-0.251 l 0.045,0.045 c 0,0 -0.042,0.206 -0.185,0.532 -0.137,0.329 -0.395,0.766 -0.782,1.296 -0.766,1.068 -1.799,2.725 -2.8,4.989 -1.006,2.258 -2.017,5.105 -2.761,8.48 -0.707,3.383 -1.167,7.266 -1.307,11.523 -0.038,4.275 0.227,8.843 0.963,13.735 0.736,4.82 1.749,9.919 3.139,15.069 1.344,5.18 3.34,10.312 5.22,15.666 0.918,2.689 1.686,5.485 2.054,8.393 0.368,2.863 0.423,5.818 0.051,8.724 -0.721,5.841 -3.033,11.268 -5.443,16.366 -2.431,5.114 -5.006,10.023 -7.244,14.876 -2.234,4.868 -4.366,9.603 -6.242,14.129 -1.867,4.531 -3.517,8.85 -4.535,12.98 -0.236,1.033 -0.468,2.045 -0.694,3.033 -0.208,0.999 -0.371,1.996 -0.551,2.956 l -0.13,0.718 -0.073,0.69 c -0.048,0.465 -0.096,0.923 -0.143,1.375 -0.098,0.904 -0.211,1.783 -0.168,2.646 0.003,0.861 0.007,1.695 0.01,2.5 0.035,0.805 0.131,1.579 0.184,2.325 0.079,1.497 0.33,2.854 0.499,4.089 0.175,1.234 0.444,2.316 0.604,3.273 0.217,0.946 0.4,1.75 0.55,2.402 0.337,1.292 0.546,1.979 0.546,1.979 l -0.216,0.078 z"
         id="path181"
         inkscape:connector-curvature="0"
         style="fill:#ffffff" /></g><g
       transform="matrix(0,-4.6675603,4.6675603,0,-454.22061,1251.9737)"
       id="g183"
       style="opacity:0.7"><path
         d="m 329.021,480.193 c 0,0 -0.017,-0.627 -0.1,-1.801 -0.081,-1.173 -0.226,-2.893 -0.52,-5.065 -0.296,-2.171 -0.695,-4.805 -1.409,-7.765 -0.723,-2.953 -1.654,-6.264 -3.115,-9.689 -0.341,-0.867 -0.76,-1.718 -1.199,-2.578 -0.406,-0.879 -0.916,-1.718 -1.428,-2.575 -1.013,-1.715 -2.201,-3.49 -3.354,-5.304 -2.337,-3.637 -4.831,-7.469 -7.199,-11.583 -2.315,-4.135 -4.55,-8.58 -5.822,-13.477 -0.617,-2.436 -1.069,-4.992 -0.975,-7.546 l -0.021,-1.881 c 0.018,-0.633 0.119,-1.283 0.177,-1.924 l 0.206,-1.929 0.407,-1.876 c 1.121,-5.008 3.277,-9.607 4.96,-14.239 0.453,-1.149 0.849,-2.312 1.232,-3.472 0.382,-1.168 0.807,-2.29 1.124,-3.467 0.34,-1.165 0.677,-2.323 1.013,-3.474 0.297,-1.152 0.593,-2.298 0.886,-3.434 1.122,-4.559 1.809,-9.044 2.104,-13.335 0.295,-4.281 0.414,-8.392 0.344,-12.124 -0.107,-3.728 -0.742,-7.082 -1.59,-9.985 -0.841,-2.901 -1.911,-5.324 -2.926,-7.238 -1.023,-1.912 -1.952,-3.342 -2.589,-4.313 -0.646,-0.967 -1.01,-1.458 -1.01,-1.458 -0.104,-0.139 -0.076,-0.334 0.062,-0.438 0.118,-0.089 0.281,-0.079 0.39,0.012 0,0 0.501,0.427 1.27,1.349 0.774,0.916 1.81,2.349 2.867,4.317 1.063,1.963 2.187,4.448 3.08,7.432 0.889,2.973 1.508,6.48 1.604,10.301 0.051,3.813 -0.109,7.887 -0.439,12.229 -0.34,4.334 -1.06,8.889 -2.213,13.488 -0.302,1.147 -0.606,2.304 -0.913,3.469 -0.341,1.149 -0.684,2.306 -1.028,3.47 -0.328,1.164 -0.741,2.339 -1.115,3.507 -0.376,1.175 -0.765,2.351 -1.208,3.511 -1.654,4.683 -3.749,9.292 -4.778,14.138 l -0.378,1.814 -0.176,1.824 c -0.048,0.61 -0.144,1.207 -0.155,1.827 l 0.039,1.882 c -0.07,2.468 0.388,4.883 1.004,7.23 1.27,4.702 3.491,9.036 5.816,13.094 2.338,4.065 4.816,7.885 7.153,11.524 1.159,1.841 2.333,3.552 3.36,5.356 0.517,0.899 1.029,1.78 1.433,2.693 0.438,0.897 0.854,1.782 1.189,2.679 1.437,3.548 2.353,6.936 2.938,9.969 0.594,3.033 0.932,5.705 1.09,7.912 0.336,4.414 0.17,6.943 0.17,6.943 -0.003,0.072 -0.063,0.128 -0.136,0.125 -0.065,-10e-4 -0.119,-0.058 -0.122,-0.125 z"
         id="path185"
         inkscape:connector-curvature="0"
         style="fill:#ffffff" /></g><path
       d="M 920.19386,317.27608 C 888.20241,299.39932 874.5778,275.2587 880.28156,254.166 c 8.00486,-29.55499 33.9845,-35.60415 42.76418,-36.58434 32.03347,-3.57535 142.62666,-8.53697 150.23946,-48.76667 6.2638,-33.11167 -14.5862,-48.13188 -14.5862,-48.13188 l 96.9499,-120.94582509 c 0,0 3.9535,-5.59640481 11.1462,-8.42961391 16.5838,-6.520582 38.1433,-25.643576 35.2261,-63.884898 -2.1705,-28.537463 -35.9636,-62.260583 -76.464,-66.064653 -23.3518,-2.19375 -56.3421,-2.91722 -60.6176,-28.43477 -2.0631,-12.30836 6.8426,-21.40077 24.598,-31.87944 0.8822,-0.64412 1.8204,-1.30692 2.8099,-1.98838 3.3606,-2.26843 7.3374,-4.7049 11.9256,-7.19738 4.5742,-2.49714 9.7552,-5.0643 15.5383,-7.53344 5.7831,-2.4598 12.187,-4.78892 19.1557,-6.86131 13.9373,-4.13079 30.1664,-7.04335 48.1085,-7.50077 l 1.6897,-0.0607 1.6616,0 c 1.1156,0 2.2311,0.005 3.356,0.005 l 1.6897,0 1.7503,0.0467 c 1.1296,0.028 2.2731,0.0607 3.4213,0.0933 4.5882,0.12136 9.2651,0.25205 14.026,0.37807 4.7563,0.14003 9.6012,0.44342 14.5115,0.66747 2.4551,0.13069 4.9336,0.21004 7.4307,0.39207 2.4879,0.20537 5.0037,0.41075 7.5288,0.62079 2.5298,0.21004 5.0783,0.42008 7.6408,0.63012 1.2789,0.084 2.5625,0.25671 3.8461,0.42008 1.2836,0.15869 2.5718,0.31739 3.8647,0.48542 5.167,0.68147 10.4227,1.1809 15.6597,2.21243 10.5487,1.66632 21.1767,4.0421 31.9354,6.65127 5.3584,1.40027 10.7588,2.81454 16.2011,4.23348 5.3584,1.57763 10.7681,3.16927 16.2011,4.77024 1.3583,0.40141 2.7166,0.80283 4.0842,1.20424 1.4142,0.42008 2.7351,0.85883 4.1167,1.28357 2.7259,0.87751 5.4751,1.70833 8.2009,2.61851 2.7259,0.92884 5.4564,1.85768 8.1916,2.7912 2.7305,0.94751 5.4471,1.9557 8.1776,2.93122 10.8987,3.9721 21.7461,8.28959 32.6636,12.36437 10.9174,4.05611 21.9468,7.82283 33.261,10.22663 11.2722,2.45513 22.8804,3.42132 34.2599,3.13193 2.8892,-0.14469 5.7831,-0.29406 8.6677,-0.43408 2.8332,-0.3314 5.6664,-0.66746 8.4856,-0.99886 5.6197,-0.92885 11.2021,-1.98838 16.6678,-3.54268 10.9455,-2.98724 21.5268,-7.02935 31.7021,-11.71091 10.1426,-4.76091 19.9398,-9.97924 29.4196,-15.44029 18.9643,-10.93609 36.7571,-22.55832 53.775,-33.41506 4.2568,-2.72119 8.4576,-5.40037 12.5884,-8.04688 4.1541,-2.6185 8.1589,-5.251 12.3784,-7.70147 8.3502,-4.90094 16.7939,-8.92438 25.0601,-12.30369 16.5885,-6.67461 32.4349,-10.83341 46.5776,-13.61994 14.1567,-2.82387 26.6518,-4.24281 36.9437,-5.05964 10.2967,-0.82149 18.4089,-0.95685 23.9353,-0.96151 5.5264,0.0327 8.4809,0.19603 8.4809,0.19603 l 0,0 c 0.1354,0.009 0.2567,0.0747 0.3547,0.15403 22.6284,-1.03153 42.6102,0.20538 55.5113,4.07478 -1.2835,-0.79815 -2.5064,-1.53562 -3.6547,-2.20775 -27.2072,-15.8557 -107.5079,-28.29942 -187.3138,9.15308 -83.9881,39.41288 -123.3823,90.92875 -187.2859,89.15974 -68.4964,-1.90436 -122.5701,-55.1799 -248.1742,-59.25935 -83.7173,-2.71652 -167.1593,32.8923 -159.3085,78.61106 4.3782,25.49888 29.135,30.10109 52.4914,32.29485 40.5004,3.80406 77.1968,32.89229 79.3672,61.434424 2.9172,38.231986 -15.4869,51.371168 -32.0708,57.89175 -7.1927,2.828542 -11.1508,8.4296141 -11.1508,8.4296141 L 1048.9532,115.70282 c 0,0 20.85,15.02021 14.5861,48.13188 -7.6128,40.2297 -118.20129,45.19132 -150.23942,48.76667 -8.77968,0.98019 -34.75932,7.02935 -42.76419,36.58434 -6.26387,23.12309 10.72139,49.91489 49.65817,68.09037 z"
       id="path187"
       inkscape:connector-curvature="0"
       style="opacity:0.3;fill:#272525" /><g
       transform="matrix(0,-4.6675603,4.6675603,0,-454.22061,1251.9737)"
       id="g189"
       style="opacity:0.7"><path
         d="m 293.703,350.865 c 0,0 0.199,-0.303 0.524,-0.825 0.171,-0.256 0.356,-0.588 0.579,-0.956 0.232,-0.362 0.438,-0.808 0.702,-1.265 0.271,-0.453 0.505,-0.978 0.774,-1.516 0.287,-0.531 0.528,-1.117 0.77,-1.724 0.128,-0.3 0.257,-0.604 0.388,-0.913 0.101,-0.318 0.203,-0.64 0.306,-0.964 0.106,-0.322 0.214,-0.646 0.321,-0.973 0.081,-0.331 0.139,-0.668 0.21,-1.001 0.141,-0.665 0.278,-1.327 0.365,-2.04 0.104,-0.695 0.205,-1.381 0.305,-2.044 0.205,-1.32 0.429,-2.564 0.671,-3.626 0.132,-0.533 0.249,-1.022 0.403,-1.452 0.156,-0.432 0.289,-0.804 0.463,-1.105 0.131,-0.307 0.319,-0.521 0.441,-0.663 0.119,-0.142 0.182,-0.217 0.182,-0.217 0.096,-0.114 0.267,-0.13 0.381,-0.034 0.096,0.081 0.122,0.214 0.07,0.322 l -0.031,0.067 c 0,0 -0.035,0.074 -0.101,0.213 -0.067,0.135 -0.166,0.323 -0.237,0.613 -0.1,0.266 -0.159,0.628 -0.229,1.039 -0.061,0.414 -0.119,0.895 -0.181,1.415 -0.11,1.062 -0.238,2.301 -0.377,3.628 -0.065,0.668 -0.164,1.354 -0.254,2.052 -0.064,0.689 -0.227,1.426 -0.402,2.156 -0.086,0.363 -0.159,0.731 -0.256,1.089 -0.128,0.347 -0.254,0.692 -0.38,1.034 -0.129,0.341 -0.257,0.679 -0.384,1.013 -0.154,0.318 -0.309,0.634 -0.459,0.943 -0.307,0.618 -0.612,1.207 -0.955,1.733 -0.328,0.535 -0.64,1.039 -0.969,1.476 -0.632,0.892 -1.228,1.577 -1.641,2.061 -0.431,0.475 -0.689,0.721 -0.689,0.721 -0.08,0.078 -0.209,0.076 -0.287,-0.004 -0.067,-0.068 -0.074,-0.175 -0.023,-0.253 z"
         id="path191"
         inkscape:connector-curvature="0"
         style="fill:#ffffff" /></g><g
       transform="matrix(0,-4.6675603,4.6675603,0,-454.22061,1251.9737)"
       id="g193"
       style="opacity:0.7"><path
         d="m 269.562,349.043 c 0,0 0.046,0.125 0.127,0.345 0.038,0.11 0.085,0.245 0.138,0.399 0.057,0.121 0.121,0.257 0.191,0.406 0.059,0.148 0.164,0.317 0.261,0.499 0.093,0.185 0.211,0.37 0.343,0.557 0.247,0.385 0.572,0.758 0.901,1.138 0.335,0.374 0.706,0.725 1.075,1.033 0.371,0.307 0.737,0.572 1.045,0.821 0.62,0.484 1.04,0.869 1.04,0.869 l -0.025,0.068 c 0,0 -0.589,0.018 -1.378,-0.266 -0.789,-0.278 -1.766,-0.833 -2.67,-1.529 -0.453,-0.349 -0.876,-0.746 -1.23,-1.163 -0.369,-0.411 -0.667,-0.816 -0.899,-1.229 -0.113,-0.208 -0.217,-0.398 -0.309,-0.567 -0.063,-0.15 -0.119,-0.281 -0.165,-0.389 -0.088,-0.217 -0.138,-0.341 -0.138,-0.341 l 1.693,-0.651 z"
         id="path195"
         inkscape:connector-curvature="0"
         style="fill:#ffffff" /></g><g
       transform="matrix(0,-4.6675603,4.6675603,0,-454.22061,1251.9737)"
       id="g197"
       style="opacity:0.7"><path
         d="m 227.871,326.691 c 0.005,-0.013 -0.167,-0.008 -0.435,-0.144 -0.139,-0.061 -0.312,-0.146 -0.516,-0.259 -0.182,-0.121 -0.374,-0.281 -0.603,-0.455 -0.479,-0.339 -0.884,-0.876 -1.378,-1.49 -0.495,-0.615 -0.838,-1.414 -1.319,-2.24 -0.254,-0.409 -0.401,-0.877 -0.601,-1.345 -0.187,-0.473 -0.38,-0.961 -0.579,-1.463 -0.096,-0.252 -0.193,-0.508 -0.292,-0.767 -0.075,-0.266 -0.151,-0.533 -0.228,-0.804 -0.152,-0.542 -0.307,-1.097 -0.464,-1.66 -0.151,-0.563 -0.305,-1.138 -0.46,-1.719 -0.113,-0.588 -0.227,-1.184 -0.342,-1.784 -0.231,-1.206 -0.483,-2.4 -0.704,-3.648 -0.179,-1.217 -0.359,-2.434 -0.536,-3.632 -0.114,-1.22 -0.258,-2.424 -0.336,-3.583 -0.07,-1.156 -0.138,-2.28 -0.168,-3.33 -0.026,-1.062 -0.106,-2.036 -0.151,-2.944 -0.013,-0.457 -0.114,-0.869 -0.161,-1.276 -0.07,-0.401 -0.087,-0.798 -0.203,-1.14 -0.213,-0.689 -0.3,-1.337 -0.544,-1.806 -0.412,-0.969 -0.639,-1.545 -0.639,-1.545 l 0.262,-0.16 c 0,0 0.338,0.516 0.917,1.459 0.161,0.229 0.283,0.507 0.397,0.821 0.124,0.312 0.256,0.648 0.399,1.008 0.171,0.356 0.219,0.765 0.321,1.186 0.08,0.423 0.216,0.87 0.262,1.335 0.265,1.869 0.353,4.02 0.524,6.303 0.09,1.141 0.224,2.305 0.334,3.495 0.176,1.198 0.355,2.414 0.534,3.631 0.227,1.171 0.518,2.376 0.769,3.543 0.132,0.585 0.264,1.165 0.394,1.738 0.173,0.56 0.344,1.112 0.512,1.655 0.165,0.544 0.327,1.079 0.485,1.603 0.078,0.262 0.155,0.521 0.232,0.776 0.098,0.247 0.195,0.49 0.291,0.73 0.404,0.948 0.685,1.899 1.077,2.701 0.408,0.788 0.716,1.566 1.087,2.178 0.372,0.607 0.617,1.218 0.919,1.629 0.132,0.227 0.261,0.424 0.359,0.613 0.118,0.166 0.218,0.307 0.299,0.421 0.162,0.254 0.284,0.369 0.285,0.369 z"
         id="path199"
         inkscape:connector-curvature="0"
         style="fill:#ffffff" /></g><g
       transform="matrix(0,-4.6675603,4.6675603,0,-454.22061,1251.9737)"
       id="g201"><path
         d="m 218.826,281.688 c 0.42,-0.309 0.709,-0.449 0.434,-1.131 -0.26,-0.644 -2.119,-1.414 -2.595,-1.602 l 0.002,-0.006 c 0,0 -0.023,-0.007 -0.058,-0.016 -0.032,-0.014 -0.055,-0.021 -0.055,-0.021 l -0.002,0.004 c -0.492,-0.137 -2.439,-0.648 -3.036,-0.293 -0.631,0.376 -0.486,0.664 -0.338,1.162 0.182,0.613 0.831,1.756 0.831,1.756 l 1.49,0.502 0.113,0.037 1.49,0.502 c 0.001,0 1.209,-0.518 1.724,-0.894 z"
         id="path203"
         inkscape:connector-curvature="0"
         style="fill:#e6e6e7" /><rect
         height="3.267"
         transform="matrix(-0.3194,0.9476,-0.9476,-0.3194,551.8381,168.3631)"
         width="0.59200001"
         x="215.16499"
         y="280.70901"
         id="rect205"
         style="fill:#bbbcbf" /><path
         d="m 212.317,283.568 c 0.855,-0.051 1.701,0.031 2.524,0.254 0.924,0.25 1.738,0.585 2.46,0.976 0.034,-0.445 0.093,-1.372 -0.146,-1.54 -0.467,-0.329 -1.617,-0.7 -1.753,-0.743 -0.135,-0.048 -1.273,-0.447 -1.845,-0.468 -0.352,-0.014 -0.923,0.945 -1.24,1.521 z"
         id="path207"
         inkscape:connector-curvature="0"
         style="fill:#d0d1d3" /></g><path
       d="m 1922.2397,70.119427 c 1.8017,1.638313 2.7119,2.828541 5.5731,0.938179 2.7025,-1.787675 4.5042,-11.006107 4.9243,-13.35389 l 0.028,0 c 0,0 0.01,-0.112021 0.019,-0.280053 0.028,-0.158697 0.051,-0.275386 0.051,-0.275386 l -0.023,-0.0047 c 0.1727,-2.380456 0.7048,-11.757584 -1.4702,-14.161378 -2.3058,-2.539153 -3.4867,-1.610308 -5.6338,-0.471423 -2.6278,1.404935 -7.2627,5.428372 -7.2627,5.428372 l -0.9102,7.281394 -0.07,0.55544 -0.9148,7.281394 c 0,0.0093 3.482,5.054968 5.6897,7.062019 z"
       id="path209"
       inkscape:connector-curvature="0"
       style="fill:#e6e6e7" /><path
       d="m 1915.1263,62.894043 1.419,0.182035 1.895,-15.13223 -1.2135,-0.15403 c -0.6488,5.064303 -1.3536,10.100601 -2.1005,15.104225 z"
       id="path211"
       inkscape:connector-curvature="0"
       style="fill:#bbbcbf" /><g
       transform="matrix(0,-4.6675603,4.6675603,0,-454.22061,1251.9737)"
       id="g213"><circle
         cx="316.50601"
         cy="466.638"
         r="3.2939999"
         id="circle215"
         sodipodi:cx="316.50601"
         sodipodi:cy="466.638"
         sodipodi:rx="3.2939999"
         sodipodi:ry="3.2939999"
         style="fill:#808183"
         d="m 319.80001,466.638 c 0,1.81923 -1.47477,3.294 -3.294,3.294 -1.81922,0 -3.294,-1.47477 -3.294,-3.294 0,-1.81923 1.47478,-3.294 3.294,-3.294 1.81923,0 3.294,1.47477 3.294,3.294 z" /><circle
         cx="316.616"
         cy="466.51801"
         r="3.2550001"
         id="circle217"
         sodipodi:cx="316.616"
         sodipodi:cy="466.51801"
         sodipodi:rx="3.2550001"
         sodipodi:ry="3.2550001"
         style="fill:#bbbcbf"
         d="m 319.871,466.51801 c 0,1.79768 -1.45732,3.255 -3.255,3.255 -1.79769,0 -3.255,-1.45732 -3.255,-3.255 0,-1.79769 1.45731,-3.255 3.255,-3.255 1.79768,0 3.255,1.45731 3.255,3.255 z" /><polygon
         points="319.348,466.591 317.953,468.971 315.146,468.953 313.776,466.554 315.192,464.119 318.014,464.129 "
         id="polygon219"
         style="fill:#a6a8aa" /><polygon
         points="319.38,466.531 317.986,468.917 315.224,468.904 313.853,466.504 315.246,464.117 318.01,464.131 "
         id="polygon221"
         style="fill:#d0d1d3" /><circle
         cx="316.616"
         cy="466.51801"
         r="1.268"
         id="circle223"
         sodipodi:cx="316.616"
         sodipodi:cy="466.51801"
         sodipodi:rx="1.268"
         sodipodi:ry="1.268"
         style="fill:#272525"
         d="m 317.884,466.51801 c 0,0.70029 -0.56771,1.268 -1.268,1.268 -0.7003,0 -1.268,-0.56771 -1.268,-1.268 0,-0.7003 0.5677,-1.268 1.268,-1.268 0.70029,0 1.268,0.5677 1.268,1.268 z" /></g><g
       transform="matrix(0,-4.6675603,4.6675603,0,-454.22061,1251.9737)"
       id="g225"><path
         d="m 238.821,476.485 v 15.122 h 34.706 v -15.122 c 0,-1.345 -1.1,-2.444 -2.444,-2.444 h -29.818 c -1.344,0 -2.444,1.1 -2.444,2.444 z"
         id="path227"
         inkscape:connector-curvature="0"
         style="fill:#e0e0e0" /><rect
         height="0.477"
         width="34.706001"
         x="238.821"
         y="491.60699"
         id="rect229"
         style="fill:#898988" /><path
         d="m 241.103,494.26 c 2.236,0 28.138,0 30.138,0 2.494,0 2.281,-1.379 2.281,-2.176 h -34.701 c 0,0.797 -0.212,2.176 2.282,2.176 z"
         id="path231"
         inkscape:connector-curvature="0"
         style="fill:#59595b" /><g
         id="g233"><path
           d="m 244.252,477.625 -0.35,17.716 c -0.008,0.403 0.315,0.733 0.719,0.733 h 0.488 c 0.403,0 0.727,-0.33 0.719,-0.733 l -0.35,-17.716 h -1.226 z"
           id="path235"
           inkscape:connector-curvature="0"
           style="fill:#6d6e70" /><path
           d="m 244.622,496.074 h 0.244 v -18.449 h -0.613 l -0.35,17.716 c -0.008,0.403 0.315,0.733 0.719,0.733 z"
           id="path237"
           inkscape:connector-curvature="0"
           style="fill:#a6a8aa" /></g><g
         id="g239"><path
           d="m 252.504,477.625 -0.35,17.716 c -0.008,0.403 0.315,0.733 0.719,0.733 h 0.489 c 0.403,0 0.727,-0.33 0.719,-0.733 l -0.351,-17.716 h -1.226 z"
           id="path241"
           inkscape:connector-curvature="0"
           style="fill:#6d6e70" /><path
           d="m 252.873,496.074 h 0.245 v -18.449 h -0.613 l -0.35,17.716 c -0.009,0.403 0.314,0.733 0.718,0.733 z"
           id="path243"
           inkscape:connector-curvature="0"
           style="fill:#a6a8aa" /></g><g
         id="g245"><path
           d="m 258.234,477.625 -0.351,17.716 c -0.007,0.403 0.315,0.733 0.719,0.733 h 0.489 c 0.403,0 0.727,-0.33 0.719,-0.733 l -0.351,-17.716 h -1.225 z"
           id="path247"
           inkscape:connector-curvature="0"
           style="fill:#6d6e70" /><path
           d="m 258.603,496.074 h 0.244 v -18.449 h -0.612 l -0.351,17.716 c -0.007,0.403 0.315,0.733 0.719,0.733 z"
           id="path249"
           inkscape:connector-curvature="0"
           style="fill:#a6a8aa" /></g><g
         id="g251"><path
           d="m 266.653,477.625 -0.35,17.716 c -0.008,0.403 0.315,0.733 0.719,0.733 h 0.489 c 0.403,0 0.726,-0.33 0.719,-0.733 l -0.351,-17.716 h -1.226 z"
           id="path253"
           inkscape:connector-curvature="0"
           style="fill:#6d6e70" /><path
           d="m 267.022,496.074 h 0.244 v -18.449 h -0.613 l -0.35,17.716 c -0.007,0.403 0.316,0.733 0.719,0.733 z"
           id="path255"
           inkscape:connector-curvature="0"
           style="fill:#a6a8aa" /></g><path
         d="m 271.241,494.26 c -2,0 -27.902,0 -30.138,0 -1.833,0 -2.204,-0.745 -2.272,-1.456 h -0.01 c 0,0.796 -0.212,2.176 2.282,2.176 2.236,0 28.138,0 30.138,0 2.494,0 2.281,-1.38 2.281,-2.176 h -0.01 c -0.067,0.711 -0.438,1.456 -2.271,1.456 z"
         id="path257"
         inkscape:connector-curvature="0"
         style="fill:#d7d7d7" /><g
         id="g259"><rect
           height="3.1129999"
           width="8.3769999"
           x="239.272"
           y="485.547"
           id="rect261"
           style="fill:#f1f1f2" /><rect
           height="1.557"
           width="8.3769999"
           x="239.272"
           y="487.104"
           id="rect263"
           style="fill:#bbbcbf" /><circle
           cx="240.302"
           cy="487.104"
           r="0.59500003"
           id="circle265"
           sodipodi:cx="240.302"
           sodipodi:cy="487.104"
           sodipodi:rx="0.59500003"
           sodipodi:ry="0.59500003"
           style="fill:#a6a8aa"
           d="m 240.897,487.104 c 0,0.32861 -0.26639,0.595 -0.595,0.595 -0.32861,0 -0.595,-0.26639 -0.595,-0.595 0,-0.32861 0.26639,-0.595 0.595,-0.595 0.32861,0 0.595,0.26639 0.595,0.595 z" /><circle
           cx="246.619"
           cy="487.104"
           r="0.59500003"
           id="circle267"
           sodipodi:cx="246.619"
           sodipodi:cy="487.104"
           sodipodi:rx="0.59500003"
           sodipodi:ry="0.59500003"
           style="fill:#a6a8aa"
           d="m 247.214,487.104 c 0,0.32861 -0.26639,0.595 -0.595,0.595 -0.32861,0 -0.595,-0.26639 -0.595,-0.595 0,-0.32861 0.26639,-0.595 0.595,-0.595 0.32861,0 0.595,0.26639 0.595,0.595 z" /><rect
           height="0.27399999"
           width="4.349"
           x="241.286"
           y="486.96701"
           id="rect269"
           style="fill:#434244" /></g><g
         id="g271"><rect
           height="3.1129999"
           width="8.3769999"
           x="247.717"
           y="484.677"
           id="rect273"
           style="fill:#f1f1f2" /><rect
           height="1.557"
           width="8.3769999"
           x="247.717"
           y="486.233"
           id="rect275"
           style="fill:#bbbcbf" /><circle
           cx="248.74699"
           cy="486.233"
           r="0.59500003"
           id="circle277"
           sodipodi:cx="248.74699"
           sodipodi:cy="486.233"
           sodipodi:rx="0.59500003"
           sodipodi:ry="0.59500003"
           style="fill:#a6a8aa"
           d="m 249.34199,486.233 c 0,0.32861 -0.26639,0.595 -0.595,0.595 -0.32861,0 -0.595,-0.26639 -0.595,-0.595 0,-0.32861 0.26639,-0.595 0.595,-0.595 0.32861,0 0.595,0.26639 0.595,0.595 z" /><circle
           cx="255.064"
           cy="486.233"
           r="0.59500003"
           id="circle279"
           sodipodi:cx="255.064"
           sodipodi:cy="486.233"
           sodipodi:rx="0.59500003"
           sodipodi:ry="0.59500003"
           style="fill:#a6a8aa"
           d="m 255.659,486.233 c 0,0.32861 -0.2664,0.595 -0.595,0.595 -0.32861,0 -0.595,-0.26639 -0.595,-0.595 0,-0.32861 0.26639,-0.595 0.595,-0.595 0.3286,0 0.595,0.26639 0.595,0.595 z" /><rect
           height="0.27500001"
           width="4.349"
           x="249.731"
           y="486.09601"
           id="rect281"
           style="fill:#434244" /></g><g
         id="g283"><rect
           height="3.112"
           width="8.3769999"
           x="256.16101"
           y="483.29901"
           id="rect285"
           style="fill:#f1f1f2" /><rect
           height="1.556"
           width="8.3769999"
           x="256.16101"
           y="484.85501"
           id="rect287"
           style="fill:#bbbcbf" /><circle
           cx="257.19101"
           cy="484.854"
           r="0.59500003"
           id="circle289"
           sodipodi:cx="257.19101"
           sodipodi:cy="484.854"
           sodipodi:rx="0.59500003"
           sodipodi:ry="0.59500003"
           style="fill:#a6a8aa"
           d="m 257.78601,484.854 c 0,0.32861 -0.26639,0.595 -0.595,0.595 -0.32861,0 -0.595,-0.26639 -0.595,-0.595 0,-0.32861 0.26639,-0.595 0.595,-0.595 0.32861,0 0.595,0.26639 0.595,0.595 z" /><circle
           cx="263.509"
           cy="484.854"
           r="0.59500003"
           id="circle291"
           sodipodi:cx="263.509"
           sodipodi:cy="484.854"
           sodipodi:rx="0.59500003"
           sodipodi:ry="0.59500003"
           style="fill:#a6a8aa"
           d="m 264.104,484.854 c 0,0.32861 -0.26639,0.595 -0.595,0.595 -0.32861,0 -0.595,-0.26639 -0.595,-0.595 0,-0.32861 0.26639,-0.595 0.595,-0.595 0.32861,0 0.595,0.26639 0.595,0.595 z" /><rect
           height="0.27500001"
           width="4.3499999"
           x="258.17499"
           y="484.71701"
           id="rect293"
           style="fill:#434244" /></g><g
         id="g295"><rect
           height="3.112"
           width="8.3769999"
           x="264.548"
           y="482.035"
           id="rect297"
           style="fill:#f1f1f2" /><rect
           height="1.556"
           width="8.3769999"
           x="264.548"
           y="483.59201"
           id="rect299"
           style="fill:#bbbcbf" /><circle
           cx="265.577"
           cy="483.591"
           r="0.59500003"
           id="circle301"
           sodipodi:cx="265.577"
           sodipodi:cy="483.591"
           sodipodi:rx="0.59500003"
           sodipodi:ry="0.59500003"
           style="fill:#a6a8aa"
           d="m 266.172,483.591 c 0,0.32861 -0.26639,0.595 -0.595,0.595 -0.32861,0 -0.595,-0.26639 -0.595,-0.595 0,-0.32861 0.26639,-0.595 0.595,-0.595 0.32861,0 0.595,0.26639 0.595,0.595 z" /><circle
           cx="271.89499"
           cy="483.591"
           r="0.59500003"
           id="circle303"
           sodipodi:cx="271.89499"
           sodipodi:cy="483.591"
           sodipodi:rx="0.59500003"
           sodipodi:ry="0.59500003"
           style="fill:#a6a8aa"
           d="m 272.48999,483.591 c 0,0.32861 -0.26639,0.595 -0.595,0.595 -0.32861,0 -0.595,-0.26639 -0.595,-0.595 0,-0.32861 0.26639,-0.595 0.595,-0.595 0.32861,0 0.595,0.26639 0.595,0.595 z" /><rect
           height="0.27500001"
           width="4.349"
           x="266.56201"
           y="483.453"
           id="rect305"
           style="fill:#434244" /></g></g><g
       transform="matrix(0,-4.6675603,4.6675603,0,-454.22061,1251.9737)"
       id="g307"><path
         d="m 247.139,95.427 c 0,0 -5.42,262.985 -5.234,265.403 0.22,2.868 2.895,3.651 4.117,3.843 0.87,0.137 6.314,0.967 9.635,0.962 3.32,-0.006 10.248,-0.787 11.387,-1.311 1.139,-0.524 2.541,-1.398 2.716,-3.67 0.176,-2.271 -2.278,-119.328 -2.278,-119.328 L 247.139,95.427 z"
         id="path309"
         inkscape:connector-curvature="0"
         style="fill:#2d1912" /><path
         d="m 246.292,94.202 c 0,0 0.919,1.033 0.88,3.035 -0.57,29.455 -5.043,260.866 -4.871,263.122 0.218,2.856 2.876,3.637 4.089,3.828 0.864,0.135 6.273,0.962 9.571,0.957 3.298,-0.006 10.181,-0.783 11.312,-1.306 1.131,-0.521 2.523,-1.392 2.696,-3.654 0.175,-2.263 -5.062,-266.092 -5.062,-266.092 l -18.615,0.11 z"
         id="path311"
         inkscape:connector-curvature="0"
         style="fill:#412d26" /><path
         d="M 248.327,364.47 V 92.611 h -1.082 v 271.52 c 0.305,0.099 0.67,0.215 1.082,0.339 z"
         id="path313"
         inkscape:connector-curvature="0"
         style="fill:#3a2924" /><path
         d="M 258.312,364.986 V 92.439 h -1.082 v 272.674 c 0.343,-0.032 0.706,-0.075 1.082,-0.127 z"
         id="path315"
         inkscape:connector-curvature="0"
         style="fill:#3a2924" /><path
         d="M 254.939,365.123 V 92.943 h -0.612 v 272.115 c 0.208,0.026 0.412,0.047 0.612,0.065 z"
         id="path317"
         inkscape:connector-curvature="0"
         style="fill:#53372e" /><path
         d="M 263.407,364.477 V 93.141 h -0.612 v 271.502 c 0.208,-0.054 0.411,-0.11 0.612,-0.166 z"
         id="path319"
         inkscape:connector-curvature="0"
         style="fill:#53372e" /><path
         d="M 250.192,364.71 V 93.259 h -0.693 v 271.264 c 0.225,0.062 0.456,0.124 0.693,0.187 z"
         id="path321"
         inkscape:connector-curvature="0"
         style="fill:#46322d" /><circle
         cx="249.933"
         cy="283.45001"
         r="1.423"
         id="circle323"
         sodipodi:cx="249.933"
         sodipodi:cy="283.45001"
         sodipodi:rx="1.423"
         sodipodi:ry="1.423"
         style="fill:#e8e8e8"
         d="m 251.356,283.45001 c 0,0.7859 -0.6371,1.423 -1.423,1.423 -0.7859,0 -1.423,-0.6371 -1.423,-1.423 0,-0.7859 0.6371,-1.423 1.423,-1.423 0.7859,0 1.423,0.6371 1.423,1.423 z" /><circle
         cx="262.33801"
         cy="283.45001"
         r="1.423"
         id="circle325"
         sodipodi:cx="262.33801"
         sodipodi:cy="283.45001"
         sodipodi:rx="1.423"
         sodipodi:ry="1.423"
         style="fill:#e8e8e8"
         d="m 263.76101,283.45001 c 0,0.7859 -0.6371,1.423 -1.423,1.423 -0.7859,0 -1.423,-0.6371 -1.423,-1.423 0,-0.7859 0.6371,-1.423 1.423,-1.423 0.7859,0 1.423,0.6371 1.423,1.423 z" /><circle
         cx="256.13501"
         cy="246.438"
         r="1.4220001"
         id="circle327"
         sodipodi:cx="256.13501"
         sodipodi:cy="246.438"
         sodipodi:rx="1.4220001"
         sodipodi:ry="1.4220001"
         style="fill:#e8e8e8"
         d="m 257.55701,246.438 c 0,0.78535 -0.63665,1.422 -1.422,1.422 -0.78535,0 -1.422,-0.63665 -1.422,-1.422 0,-0.78535 0.63665,-1.422 1.422,-1.422 0.78535,0 1.422,0.63665 1.422,1.422 z" /><circle
         cx="256.13501"
         cy="314.60999"
         r="1.4220001"
         id="circle329"
         sodipodi:cx="256.13501"
         sodipodi:cy="314.60999"
         sodipodi:rx="1.4220001"
         sodipodi:ry="1.4220001"
         style="fill:#e8e8e8"
         d="m 257.55701,314.60999 c 0,0.78534 -0.63665,1.422 -1.422,1.422 -0.78535,0 -1.422,-0.63666 -1.422,-1.422 0,-0.78535 0.63665,-1.422 1.422,-1.422 0.78535,0 1.422,0.63665 1.422,1.422 z" /><circle
         cx="256.13501"
         cy="332.414"
         r="1.4220001"
         id="circle331"
         sodipodi:cx="256.13501"
         sodipodi:cy="332.414"
         sodipodi:rx="1.4220001"
         sodipodi:ry="1.4220001"
         style="fill:#e8e8e8"
         d="m 257.55701,332.414 c 0,0.78535 -0.63665,1.422 -1.422,1.422 -0.78535,0 -1.422,-0.63665 -1.422,-1.422 0,-0.78535 0.63665,-1.422 1.422,-1.422 0.78535,0 1.422,0.63665 1.422,1.422 z" /><circle
         cx="256.13501"
         cy="348.43201"
         r="1.4220001"
         id="circle333"
         sodipodi:cx="256.13501"
         sodipodi:cy="348.43201"
         sodipodi:rx="1.4220001"
         sodipodi:ry="1.4220001"
         style="fill:#e8e8e8"
         d="m 257.55701,348.43201 c 0,0.78535 -0.63665,1.422 -1.422,1.422 -0.78535,0 -1.422,-0.63665 -1.422,-1.422 0,-0.78535 0.63665,-1.422 1.422,-1.422 0.78535,0 1.422,0.63665 1.422,1.422 z" /><g
         id="g335"><path
           d="m 243.146,309.361 c -0.006,0.319 -0.012,0.639 -0.018,0.957 h 25.987 c -0.006,-0.318 -0.013,-0.638 -0.018,-0.957 h -25.951 z"
           id="path337"
           inkscape:connector-curvature="0"
           style="fill:#bbbcbf" /><path
           d="m 243.331,299.316 c -0.006,0.319 -0.012,0.639 -0.018,0.957 h 25.613 c -0.006,-0.318 -0.012,-0.639 -0.018,-0.957 h -25.577 z"
           id="path339"
           inkscape:connector-curvature="0"
           style="fill:#bbbcbf" /><path
           d="m 243.526,288.74 c -0.006,0.32 -0.012,0.639 -0.018,0.957 h 25.218 c -0.006,-0.318 -0.013,-0.637 -0.019,-0.957 h -25.181 z"
           id="path341"
           inkscape:connector-curvature="0"
           style="fill:#bbbcbf" /><path
           d="m 243.735,277.512 c -0.006,0.318 -0.012,0.639 -0.018,0.957 h 24.794 c -0.006,-0.318 -0.012,-0.639 -0.019,-0.957 h -24.757 z"
           id="path343"
           inkscape:connector-curvature="0"
           style="fill:#bbbcbf" /><path
           d="m 242.974,318.875 c -0.006,0.32 -0.012,0.639 -0.017,0.957 h 26.337 c -0.007,-0.318 -0.013,-0.637 -0.019,-0.957 h -26.301 z"
           id="path345"
           inkscape:connector-curvature="0"
           style="fill:#bbbcbf" /><path
           d="m 269.976,359.889 c 0,-0.213 -0.003,-0.534 -0.007,-0.957 h -27.666 c -0.004,0.401 -0.006,0.722 -0.006,0.957 h 27.679 z"
           id="path347"
           inkscape:connector-curvature="0"
           style="fill:#bbbcbf" /><path
           d="m 242.402,351.867 c -0.005,0.328 -0.01,0.646 -0.015,0.957 h 27.495 c -0.005,-0.311 -0.011,-0.628 -0.016,-0.957 h -27.464 z"
           id="path349"
           inkscape:connector-curvature="0"
           style="fill:#bbbcbf" /><path
           d="m 242.526,344.313 c -0.006,0.323 -0.011,0.642 -0.017,0.957 h 27.245 c -0.006,-0.315 -0.011,-0.634 -0.016,-0.957 h -27.212 z"
           id="path351"
           inkscape:connector-curvature="0"
           style="fill:#bbbcbf" /><path
           d="m 242.813,327.816 c -0.005,0.321 -0.011,0.641 -0.017,0.958 h 26.662 c -0.006,-0.317 -0.011,-0.637 -0.017,-0.958 h -26.628 z"
           id="path353"
           inkscape:connector-curvature="0"
           style="fill:#bbbcbf" /><path
           d="m 242.665,336.229 c -0.005,0.322 -0.011,0.641 -0.017,0.957 h 26.963 c -0.006,-0.316 -0.012,-0.635 -0.017,-0.957 h -26.929 z"
           id="path355"
           inkscape:connector-curvature="0"
           style="fill:#bbbcbf" /><path
           d="m 244.198,252.788 c -0.005,0.319 -0.012,0.639 -0.018,0.957 h 23.856 c -0.006,-0.318 -0.012,-0.638 -0.018,-0.957 h -23.82 z"
           id="path357"
           inkscape:connector-curvature="0"
           style="fill:#bbbcbf" /><path
           d="m 246.341,140.331 c -0.006,0.318 -0.013,0.637 -0.019,0.957 h 19.519 c -0.006,-0.32 -0.013,-0.639 -0.019,-0.957 h -19.481 z"
           id="path359"
           inkscape:connector-curvature="0"
           style="fill:#bbbcbf" /><path
           d="m 245.633,177.241 c -0.006,0.318 -0.012,0.637 -0.019,0.956 h 20.951 c -0.006,-0.319 -0.013,-0.638 -0.019,-0.956 h -20.913 z"
           id="path361"
           inkscape:connector-curvature="0"
           style="fill:#bbbcbf" /><path
           d="m 245.976,159.313 c -0.006,0.317 -0.012,0.637 -0.018,0.957 h 20.256 c -0.006,-0.32 -0.013,-0.64 -0.019,-0.957 h -20.219 z"
           id="path363"
           inkscape:connector-curvature="0"
           style="fill:#bbbcbf" /><path
           d="m 246.728,120.233 c -0.006,0.317 -0.012,0.637 -0.019,0.957 h 18.735 c -0.007,-0.32 -0.013,-0.64 -0.019,-0.957 h -18.697 z"
           id="path365"
           inkscape:connector-curvature="0"
           style="fill:#bbbcbf" /><path
           d="m 243.96,265.466 c -0.006,0.319 -0.012,0.638 -0.018,0.957 h 24.338 c -0.006,-0.319 -0.012,-0.638 -0.018,-0.957 H 243.96 z"
           id="path367"
           inkscape:connector-curvature="0"
           style="fill:#bbbcbf" /><path
           d="m 245.311,194.112 c -0.006,0.319 -0.012,0.638 -0.019,0.957 h 21.604 c -0.007,-0.319 -0.013,-0.638 -0.02,-0.957 h -21.565 z"
           id="path369"
           inkscape:connector-curvature="0"
           style="fill:#bbbcbf" /><path
           d="m 244.72,225.16 c -0.006,0.319 -0.012,0.638 -0.019,0.956 H 267.5 c -0.006,-0.318 -0.012,-0.637 -0.019,-0.956 H 244.72 z"
           id="path371"
           inkscape:connector-curvature="0"
           style="fill:#bbbcbf" /><path
           d="m 244.451,239.401 c -0.006,0.319 -0.012,0.639 -0.018,0.957 h 23.345 c -0.006,-0.318 -0.012,-0.638 -0.018,-0.957 h -23.309 z"
           id="path373"
           inkscape:connector-curvature="0"
           style="fill:#bbbcbf" /><path
           d="m 245.004,210.183 c -0.006,0.318 -0.012,0.638 -0.019,0.957 h 22.223 c -0.006,-0.319 -0.012,-0.639 -0.018,-0.957 h -22.186 z"
           id="path375"
           inkscape:connector-curvature="0"
           style="fill:#bbbcbf" /></g><g
         id="g377"><path
           d="m 242.978,318.676 c -0.006,0.32 -0.012,0.639 -0.018,0.957 h 26.33 c -0.006,-0.318 -0.012,-0.637 -0.018,-0.957 h -26.294 z"
           id="path379"
           inkscape:connector-curvature="0"
           style="fill:#ededed" /><path
           d="m 243.15,309.161 c -0.006,0.32 -0.011,0.64 -0.017,0.957 h 25.979 c -0.006,-0.317 -0.013,-0.636 -0.018,-0.957 H 243.15 z"
           id="path381"
           inkscape:connector-curvature="0"
           style="fill:#ededed" /><path
           d="m 243.334,299.116 c -0.006,0.319 -0.012,0.639 -0.018,0.957 h 25.606 c -0.006,-0.317 -0.012,-0.638 -0.019,-0.957 h -25.569 z"
           id="path383"
           inkscape:connector-curvature="0"
           style="fill:#ededed" /><path
           d="m 243.53,288.541 c -0.006,0.319 -0.012,0.639 -0.018,0.957 h 25.21 c -0.006,-0.318 -0.013,-0.638 -0.019,-0.957 H 243.53 z"
           id="path385"
           inkscape:connector-curvature="0"
           style="fill:#ededed" /><path
           d="m 242.668,336.029 c -0.005,0.322 -0.011,0.641 -0.017,0.957 h 26.956 c -0.006,-0.316 -0.012,-0.636 -0.017,-0.957 h -26.922 z"
           id="path387"
           inkscape:connector-curvature="0"
           style="fill:#ededed" /><path
           d="m 269.974,359.689 c -10e-4,-0.238 -0.004,-0.557 -0.008,-0.957 h -27.661 c -0.004,0.385 -0.006,0.705 -0.007,0.957 h 27.676 z"
           id="path389"
           inkscape:connector-curvature="0"
           style="fill:#ededed" /><path
           d="m 243.738,277.312 c -0.006,0.319 -0.011,0.639 -0.018,0.957 h 24.787 c -0.006,-0.318 -0.012,-0.638 -0.019,-0.957 h -24.75 z"
           id="path391"
           inkscape:connector-curvature="0"
           style="fill:#ededed" /><path
           d="m 242.405,351.668 c -0.005,0.328 -0.01,0.646 -0.015,0.957 h 27.489 c -0.006,-0.31 -0.011,-0.629 -0.016,-0.957 h -27.458 z"
           id="path393"
           inkscape:connector-curvature="0"
           style="fill:#ededed" /><path
           d="m 242.529,344.114 c -0.006,0.323 -0.011,0.642 -0.017,0.956 h 27.237 c -0.005,-0.314 -0.01,-0.633 -0.016,-0.956 h -27.204 z"
           id="path395"
           inkscape:connector-curvature="0"
           style="fill:#ededed" /><path
           d="m 242.817,327.617 c -0.006,0.321 -0.012,0.641 -0.017,0.957 h 26.655 c -0.006,-0.316 -0.012,-0.636 -0.018,-0.957 h -26.62 z"
           id="path397"
           inkscape:connector-curvature="0"
           style="fill:#ededed" /><path
           d="m 245.98,159.112 c -0.006,0.318 -0.012,0.638 -0.019,0.957 h 20.249 c -0.006,-0.319 -0.012,-0.639 -0.019,-0.957 H 245.98 z"
           id="path399"
           inkscape:connector-curvature="0"
           style="fill:#ededed" /><path
           d="m 245.636,177.041 c -0.006,0.318 -0.012,0.639 -0.018,0.957 h 20.943 c -0.006,-0.319 -0.013,-0.639 -0.019,-0.957 h -20.906 z"
           id="path401"
           inkscape:connector-curvature="0"
           style="fill:#ededed" /><path
           d="m 246.345,140.132 c -0.006,0.318 -0.013,0.636 -0.019,0.957 h 19.511 c -0.006,-0.32 -0.012,-0.64 -0.019,-0.957 h -19.473 z"
           id="path403"
           inkscape:connector-curvature="0"
           style="fill:#ededed" /><path
           d="m 243.964,265.267 c -0.006,0.319 -0.012,0.638 -0.018,0.956 h 24.332 c -0.007,-0.318 -0.013,-0.637 -0.019,-0.956 h -24.295 z"
           id="path405"
           inkscape:connector-curvature="0"
           style="fill:#ededed" /><path
           d="m 246.731,120.034 c -0.006,0.316 -0.012,0.636 -0.018,0.957 h 18.728 c -0.007,-0.321 -0.013,-0.641 -0.019,-0.957 h -18.691 z"
           id="path407"
           inkscape:connector-curvature="0"
           style="fill:#ededed" /><path
           d="m 245.314,193.913 c -0.006,0.318 -0.012,0.638 -0.018,0.956 h 21.597 c -0.007,-0.318 -0.013,-0.638 -0.02,-0.956 h -21.559 z"
           id="path409"
           inkscape:connector-curvature="0"
           style="fill:#ededed" /><path
           d="m 245.008,209.982 c -0.006,0.319 -0.012,0.638 -0.018,0.958 h 22.216 c -0.006,-0.32 -0.012,-0.639 -0.019,-0.958 h -22.179 z"
           id="path411"
           inkscape:connector-curvature="0"
           style="fill:#ededed" /><path
           d="m 244.455,239.202 c -0.006,0.319 -0.012,0.639 -0.019,0.957 h 23.337 c -0.006,-0.318 -0.012,-0.638 -0.018,-0.957 h -23.3 z"
           id="path413"
           inkscape:connector-curvature="0"
           style="fill:#ededed" /><path
           d="m 244.202,252.589 c -0.006,0.318 -0.012,0.639 -0.018,0.957 h 23.848 c -0.006,-0.318 -0.012,-0.639 -0.018,-0.957 h -23.812 z"
           id="path415"
           inkscape:connector-curvature="0"
           style="fill:#ededed" /><path
           d="m 244.724,224.96 c -0.006,0.319 -0.012,0.639 -0.018,0.958 h 22.792 c -0.006,-0.319 -0.012,-0.639 -0.019,-0.958 h -22.755 z"
           id="path417"
           inkscape:connector-curvature="0"
           style="fill:#ededed" /></g><path
         d="m 265.009,99.157 c -0.007,-0.334 -0.013,-0.653 -0.02,-0.957 h -17.836 c -0.006,0.304 -0.012,0.622 -0.019,0.957 h 17.875 z"
         id="path419"
         inkscape:connector-curvature="0"
         style="fill:#bbbcbf" /><path
         d="m 265.005,98.958 c -0.011,-0.527 -0.02,-1.015 -0.028,-1.46 h -17.81 c -0.008,0.444 -0.018,0.933 -0.028,1.46 h 17.866 z"
         id="path421"
         inkscape:connector-curvature="0"
         style="fill:#ffffff" /><circle
         cx="256.13501"
         cy="218.05499"
         r="1.4220001"
         id="circle423"
         sodipodi:cx="256.13501"
         sodipodi:cy="218.05499"
         sodipodi:rx="1.4220001"
         sodipodi:ry="1.4220001"
         style="fill:#e8e8e8"
         d="m 257.55701,218.05499 c 0,0.78535 -0.63665,1.422 -1.422,1.422 -0.78535,0 -1.422,-0.63665 -1.422,-1.422 0,-0.78535 0.63665,-1.422 1.422,-1.422 0.78535,0 1.422,0.63665 1.422,1.422 z" /><circle
         cx="256.134"
         cy="186.04201"
         r="1.4220001"
         id="circle425"
         sodipodi:cx="256.134"
         sodipodi:cy="186.04201"
         sodipodi:rx="1.4220001"
         sodipodi:ry="1.4220001"
         style="fill:#e8e8e8"
         d="m 257.556,186.04201 c 0,0.78535 -0.63665,1.422 -1.422,1.422 -0.78535,0 -1.422,-0.63665 -1.422,-1.422 0,-0.78535 0.63665,-1.422 1.422,-1.422 0.78535,0 1.422,0.63665 1.422,1.422 z" /><circle
         cx="256.134"
         cy="150.10899"
         r="1.4220001"
         id="circle427"
         sodipodi:cx="256.134"
         sodipodi:cy="150.10899"
         sodipodi:rx="1.4220001"
         sodipodi:ry="1.4220001"
         style="fill:#e8e8e8"
         d="m 257.556,150.10899 c 0,0.78535 -0.63665,1.422 -1.422,1.422 -0.78535,0 -1.422,-0.63665 -1.422,-1.422 0,-0.78535 0.63665,-1.422 1.422,-1.422 0.78535,0 1.422,0.63665 1.422,1.422 z" /><path
         d="m 233.903,82.846 c -0.469,2.471 0.88,8.412 4.861,9.151 4.691,0.872 7.277,1.596 7.277,1.596 l 18.938,-6.331 c 0,0 3.486,-4.548 6.672,-6.632 3.187,-2.084 5.313,-2.214 5.313,-2.214 l 0.12,-2.505 -8.436,-30.742 c 0,0 -0.094,-11.061 -0.063,-12.565 0.052,-2.621 0.913,-2.553 4.996,-6.31 4.083,-3.756 3.789,-9.651 3.789,-9.651 L 266.504,30.87 c 0,0 -32.315,50.47 -32.601,51.976 z"
         id="path429"
         inkscape:connector-curvature="0"
         style="fill:#cca871" /><path
         d="m 246.255,94.202 c 0,0 -2.422,-3.17 -6.706,-3.824 -4.284,-0.652 -6.317,-3.63 -5.446,-8.567 0.872,-4.938 12.824,-60.751 15.031,-71.667 1.825,-9.03 11.267,-11.754 18.061,-10.346 4.172,0.865 9.666,6.22 10.329,11.87 0.796,6.773 -1.797,10.795 -4.429,12.999 -2.815,2.355 -4.284,2.996 -4.283,9.51 0,5.429 1.201,8.361 4.283,16.483 3.643,9.604 4.065,26.14 4.065,26.14 0,0 -0.87,-0.174 -3.99,1.33 -3.119,1.504 -7.919,6.355 -8.192,11.839 -0.076,1.503 -0.016,4.186 -0.016,4.186 l -18.707,0.047 z"
         id="path431"
         inkscape:connector-curvature="0"
         style="fill:#e8be80" /><path
         d="m 240.249,52.326 c -0.438,2.071 -0.87,4.113 -1.289,6.095 v 31.848 c 0.192,0.041 0.387,0.079 0.589,0.109 0.24,0.037 0.472,0.082 0.7,0.135 V 52.326 z"
         id="path433"
         inkscape:connector-curvature="0"
         style="fill:#e3b77a" /><path
         d="M 254.657,94.193 V 1.978 c -0.405,0.263 -0.795,0.546 -1.171,0.852 v 91.369 l 1.171,-0.006 z"
         id="path435"
         inkscape:connector-curvature="0"
         style="fill:#d9ac6d" /><path
         d="M 260.982,94.17 V -0.348 c -0.234,0.035 -0.469,0.076 -0.703,0.12 v 94.4 l 0.703,-0.002 z"
         id="path437"
         inkscape:connector-curvature="0"
         style="fill:#d6ac6b" /><path
         d="m 265.668,-0.441 v 87.137 c 0.229,-0.625 0.506,-1.231 0.82,-1.815 V -0.331 c -0.269,-0.044 -0.545,-0.079 -0.82,-0.11 z"
         id="path439"
         inkscape:connector-curvature="0"
         style="fill:#daac6b" /><circle
         cx="246.35899"
         cy="81.221001"
         r="4.7800002"
         id="circle441"
         sodipodi:cx="246.35899"
         sodipodi:cy="81.221001"
         sodipodi:rx="4.7800002"
         sodipodi:ry="4.7800002"
         style="fill:#e6e6e7"
         d="m 251.13899,81.221001 c 0,2.639921 -2.14008,4.78 -4.78,4.78 -2.63992,0 -4.78,-2.140079 -4.78,-4.78 0,-2.639922 2.14008,-4.780001 4.78,-4.780001 2.63992,0 4.78,2.140079 4.78,4.780001 z" /><circle
         cx="250.63"
         cy="60.749001"
         r="4.7800002"
         id="circle443"
         sodipodi:cx="250.63"
         sodipodi:cy="60.749001"
         sodipodi:rx="4.7800002"
         sodipodi:ry="4.7800002"
         style="fill:#e6e6e7"
         d="m 255.41001,60.749001 c 0,2.639921 -2.14008,4.78 -4.78001,4.78 -2.63992,0 -4.78,-2.140079 -4.78,-4.78 0,-2.639922 2.14008,-4.780001 4.78,-4.780001 2.63993,0 4.78001,2.140079 4.78001,4.780001 z" /><circle
         cx="254.92599"
         cy="40.335999"
         r="4.7800002"
         id="circle445"
         sodipodi:cx="254.92599"
         sodipodi:cy="40.335999"
         sodipodi:rx="4.7800002"
         sodipodi:ry="4.7800002"
         style="fill:#e6e6e7"
         d="m 259.706,40.335999 c 0,2.639921 -2.14008,4.78 -4.78001,4.78 -2.63992,0 -4.78,-2.140079 -4.78,-4.78 0,-2.639922 2.14008,-4.780001 4.78,-4.780001 2.63993,0 4.78001,2.140079 4.78001,4.780001 z" /><circle
         cx="259.052"
         cy="19.962"
         r="4.7800002"
         id="circle447"
         sodipodi:cx="259.052"
         sodipodi:cy="19.962"
         sodipodi:rx="4.7800002"
         sodipodi:ry="4.7800002"
         style="fill:#e6e6e7"
         d="m 263.832,19.962 c 0,2.639921 -2.14008,4.78 -4.78,4.78 -2.63992,0 -4.78,-2.140079 -4.78,-4.78 0,-2.639921 2.14008,-4.78 4.78,-4.78 2.63992,0 4.78,2.140079 4.78,4.78 z" /><circle
         cx="246.272"
         cy="80.917"
         r="3.8729999"
         id="circle449"
         sodipodi:cx="246.272"
         sodipodi:cy="80.917"
         sodipodi:rx="3.8729999"
         sodipodi:ry="3.8729999"
         style="fill:#6d6e70"
         d="m 250.145,80.917 c 0,2.138999 -1.734,3.873 -3.873,3.873 -2.139,0 -3.873,-1.734001 -3.873,-3.873 0,-2.138999 1.734,-3.873 3.873,-3.873 2.139,0 3.873,1.734001 3.873,3.873 z" /><circle
         cx="250.54401"
         cy="60.445"
         r="3.8729999"
         id="circle451"
         sodipodi:cx="250.54401"
         sodipodi:cy="60.445"
         sodipodi:rx="3.8729999"
         sodipodi:ry="3.8729999"
         style="fill:#6d6e70"
         d="m 254.41701,60.445 c 0,2.138998 -1.734,3.873 -3.873,3.873 -2.139,0 -3.873,-1.734002 -3.873,-3.873 0,-2.138999 1.734,-3.873 3.873,-3.873 2.139,0 3.873,1.734001 3.873,3.873 z" /><circle
         cx="254.84"
         cy="40.033001"
         r="3.8729999"
         id="circle453"
         sodipodi:cx="254.84"
         sodipodi:cy="40.033001"
         sodipodi:rx="3.8729999"
         sodipodi:ry="3.8729999"
         style="fill:#6d6e70"
         d="m 258.713,40.033001 c 0,2.138999 -1.734,3.873 -3.873,3.873 -2.139,0 -3.873,-1.734001 -3.873,-3.873 0,-2.138999 1.734,-3.873 3.873,-3.873 2.139,0 3.873,1.734001 3.873,3.873 z" /><circle
         cx="258.966"
         cy="19.659"
         r="3.8729999"
         id="circle455"
         sodipodi:cx="258.966"
         sodipodi:cy="19.659"
         sodipodi:rx="3.8729999"
         sodipodi:ry="3.8729999"
         style="fill:#6d6e70"
         d="m 262.839,19.659 c 0,2.138999 -1.734,3.873 -3.873,3.873 -2.139,0 -3.873,-1.734001 -3.873,-3.873 0,-2.138998 1.734,-3.873 3.873,-3.873 2.139,0 3.873,1.734002 3.873,3.873 z" /><rect
         height="472.21701"
         transform="matrix(-0.9999,0.0126,-0.0126,-0.9999,534.1145,507.6824)"
         width="0.54100001"
         x="265.18301"
         y="19.42"
         id="rect457"
         style="fill:#bbbcbf" /><rect
         height="452.82101"
         width="0.89600003"
         x="258.67899"
         y="38.799"
         id="rect459"
         style="fill:#bbbcbf" /><rect
         height="431.09601"
         width="1.0829999"
         x="252.263"
         y="60.522999"
         id="rect461"
         style="fill:#bbbcbf" /><rect
         height="412.09601"
         transform="matrix(-0.9999,-0.0154,0.0154,-0.9999,487.9629,574.9296)"
         width="1.4579999"
         x="245.467"
         y="79.537003"
         id="rect463"
         style="fill:#bbbcbf" /><g
         id="g465"><path
           d="m 229.055,65.964 c -3.767,-0.616 -5.008,3.59 -5.008,3.59 0,0 -3.213,0.517 -3.83,3.484 -0.617,2.968 2.125,4.721 2.125,4.721 0,0 -0.539,4.354 3.163,5.288 4.125,1.042 4.731,-2.384 6.157,-3.929 1.158,-1.255 3.176,-1.019 3.176,-1.019 l 0.799,-3.883 c 0,0 -1.938,-0.583 -2.5,-2.196 -0.692,-1.984 0.116,-5.368 -4.082,-6.056 z"
           id="path467"
           inkscape:connector-curvature="0"
           style="fill:#a6a8aa" /><path
           d="m 228.924,65.783 c -3.768,-0.617 -5.008,3.591 -5.008,3.591 0,0 -3.213,0.516 -3.83,3.483 -0.617,2.968 2.125,4.722 2.125,4.722 0,0 -0.538,4.353 3.164,5.287 4.125,1.041 4.731,-2.384 6.158,-3.93 1.157,-1.253 3.336,-0.99 3.336,-0.99 l 0.804,-3.868 c 0,0 -2.104,-0.625 -2.666,-2.237 -0.693,-1.985 0.115,-5.368 -4.083,-6.058 z"
           id="path469"
           inkscape:connector-curvature="0"
           style="fill:#c1c1c1" /><path
           d="m 232.056,74.106 c -0.098,-0.021 -0.565,0.309 -0.733,1.121 -0.169,0.813 0.109,1.322 0.221,1.346 0.112,0.022 3.463,0.707 3.463,0.707 l 0.513,-2.467 c 0,0 -3.365,-0.686 -3.464,-0.707 z"
           id="path471"
           inkscape:connector-curvature="0"
           style="fill:#59595b" /><path
           d="m 231.265,75.67 3.908,0.813 0.181,-0.87 -3.906,-0.813 c -0.047,0.127 -0.092,0.266 -0.125,0.428 -0.034,0.162 -0.05,0.307 -0.058,0.442 z"
           id="path473"
           inkscape:connector-curvature="0"
           style="fill:#e6e6e7" /></g><g
         id="g475"><path
           d="m 233.285,45.845 c -3.768,-0.617 -5.008,3.59 -5.008,3.59 0,0 -3.213,0.517 -3.83,3.484 -0.617,2.967 2.125,4.722 2.125,4.722 0,0 -0.539,4.353 3.164,5.287 4.125,1.042 4.731,-2.385 6.157,-3.93 1.157,-1.254 3.175,-1.018 3.175,-1.018 l 0.8,-3.883 c 0,0 -1.938,-0.584 -2.5,-2.195 -0.694,-1.985 0.114,-5.369 -4.083,-6.057 z"
           id="path477"
           inkscape:connector-curvature="0"
           style="fill:#a6a8aa" /><path
           d="m 233.153,45.664 c -3.768,-0.616 -5.008,3.589 -5.008,3.589 0,0 -3.213,0.518 -3.83,3.485 -0.617,2.968 2.125,4.722 2.125,4.722 0,0 -0.539,4.352 3.163,5.287 4.125,1.041 4.731,-2.385 6.158,-3.93 1.157,-1.254 3.336,-0.99 3.336,-0.99 l 0.804,-3.868 c 0,0 -2.104,-0.626 -2.666,-2.237 -0.692,-1.985 0.116,-5.369 -4.082,-6.058 z"
           id="path479"
           inkscape:connector-curvature="0"
           style="fill:#c1c1c1" /><path
           d="m 236.285,53.986 c -0.099,-0.02 -0.565,0.311 -0.734,1.121 -0.168,0.813 0.109,1.323 0.221,1.347 0.112,0.022 3.464,0.706 3.464,0.706 l 0.512,-2.466 c 0.001,0 -3.364,-0.687 -3.463,-0.708 z"
           id="path481"
           inkscape:connector-curvature="0"
           style="fill:#59595b" /><path
           d="m 235.495,55.55 3.907,0.813 0.181,-0.87 -3.906,-0.812 c -0.047,0.127 -0.092,0.266 -0.125,0.427 -0.034,0.163 -0.05,0.308 -0.057,0.442 z"
           id="path483"
           inkscape:connector-curvature="0"
           style="fill:#e6e6e7" /></g><g
         id="g485"><path
           d="m 237.52,25.946 c -3.766,-0.628 -5.018,3.576 -5.018,3.576 0,0 -3.215,0.507 -3.84,3.473 -0.625,2.966 2.111,4.729 2.111,4.729 0,0 -0.551,4.351 3.148,5.296 4.122,1.053 4.738,-2.371 6.168,-3.912 1.161,-1.25 3.179,-1.009 3.179,-1.009 l 0.811,-3.88 c 0,0 -1.937,-0.59 -2.494,-2.203 -0.688,-1.987 0.13,-5.369 -4.065,-6.07 z"
           id="path487"
           inkscape:connector-curvature="0"
           style="fill:#a6a8aa" /><path
           d="m 237.389,25.766 c -3.766,-0.628 -5.019,3.575 -5.019,3.575 0,0 -3.215,0.508 -3.84,3.474 -0.625,2.966 2.111,4.728 2.111,4.728 0,0 -0.551,4.351 3.148,5.296 4.122,1.054 4.738,-2.37 6.169,-3.911 1.161,-1.251 3.339,-0.98 3.339,-0.98 l 0.814,-3.866 c 0,0 -2.102,-0.632 -2.659,-2.245 -0.685,-1.988 0.133,-5.371 -4.063,-6.071 z"
           id="path489"
           inkscape:connector-curvature="0"
           style="fill:#c1c1c1" /><path
           d="m 240.497,34.098 c -0.099,-0.021 -0.566,0.308 -0.737,1.118 -0.171,0.813 0.105,1.323 0.217,1.347 0.112,0.023 3.462,0.717 3.462,0.717 l 0.52,-2.464 c -0.001,-0.001 -3.363,-0.698 -3.462,-0.718 z"
           id="path491"
           inkscape:connector-curvature="0"
           style="fill:#59595b" /><path
           d="m 239.702,35.658 3.905,0.824 0.183,-0.87 -3.904,-0.823 c -0.047,0.127 -0.092,0.266 -0.126,0.427 -0.034,0.163 -0.05,0.308 -0.058,0.442 z"
           id="path493"
           inkscape:connector-curvature="0"
           style="fill:#e6e6e7" /></g><g
         id="g495"><path
           d="m 241.745,5.753 c -3.768,-0.618 -5.008,3.59 -5.008,3.59 0,0 -3.213,0.516 -3.83,3.483 -0.617,2.968 2.125,4.722 2.125,4.722 0,0 -0.539,4.354 3.164,5.287 4.125,1.042 4.731,-2.384 6.157,-3.929 1.157,-1.254 3.176,-1.019 3.176,-1.019 l 0.799,-3.882 c 0,0 -1.938,-0.585 -2.5,-2.196 -0.693,-1.985 0.115,-5.368 -4.083,-6.056 z"
           id="path497"
           inkscape:connector-curvature="0"
           style="fill:#a6a8aa" /><path
           d="m 241.614,5.571 c -3.768,-0.617 -5.008,3.59 -5.008,3.59 0,0 -3.213,0.517 -3.83,3.484 -0.617,2.968 2.125,4.721 2.125,4.721 0,0 -0.539,4.354 3.163,5.288 4.125,1.042 4.731,-2.384 6.158,-3.929 1.157,-1.255 3.336,-0.99 3.336,-0.99 l 0.804,-3.869 c 0,0 -2.104,-0.626 -2.666,-2.237 -0.692,-1.983 0.116,-5.368 -4.082,-6.058 z"
           id="path499"
           inkscape:connector-curvature="0"
           style="fill:#c1c1c1" /><path
           d="m 244.746,13.894 c -0.099,-0.02 -0.565,0.31 -0.734,1.122 -0.168,0.812 0.11,1.322 0.221,1.346 0.112,0.022 3.464,0.707 3.464,0.707 l 0.512,-2.467 c 0,0 -3.364,-0.687 -3.463,-0.708 z"
           id="path501"
           inkscape:connector-curvature="0"
           style="fill:#59595b" /><path
           d="m 243.955,15.458 3.908,0.813 0.181,-0.87 -3.906,-0.812 c -0.047,0.127 -0.092,0.265 -0.125,0.427 -0.034,0.163 -0.05,0.307 -0.058,0.442 z"
           id="path503"
           inkscape:connector-curvature="0"
           style="fill:#e6e6e7" /></g><circle
         cx="246.246"
         cy="80.481003"
         r="3.8729999"
         id="circle505"
         sodipodi:cx="246.246"
         sodipodi:cy="80.481003"
         sodipodi:rx="3.8729999"
         sodipodi:ry="3.8729999"
         style="fill:#929496"
         d="m 250.119,80.481003 c 0,2.138999 -1.734,3.873 -3.873,3.873 -2.139,0 -3.873,-1.734001 -3.873,-3.873 0,-2.138999 1.734,-3.873 3.873,-3.873 2.139,0 3.873,1.734001 3.873,3.873 z" /><circle
         cx="246.246"
         cy="79.746002"
         r="3.5320001"
         id="circle507"
         sodipodi:cx="246.246"
         sodipodi:cy="79.746002"
         sodipodi:rx="3.5320001"
         sodipodi:ry="3.5320001"
         style="fill:#bbbcbf"
         d="m 249.778,79.746002 c 0,1.95067 -1.58133,3.532 -3.532,3.532 -1.95067,0 -3.532,-1.58133 -3.532,-3.532 0,-1.95067 1.58133,-3.532 3.532,-3.532 1.95067,0 3.532,1.58133 3.532,3.532 z" /><circle
         cx="246.246"
         cy="79.745003"
         r="3.1059999"
         id="circle509"
         sodipodi:cx="246.246"
         sodipodi:cy="79.745003"
         sodipodi:rx="3.1059999"
         sodipodi:ry="3.1059999"
         style="fill:#e6e6e7"
         d="m 249.352,79.745003 c 0,1.715396 -1.3906,3.106 -3.106,3.106 -1.71539,0 -3.106,-1.390604 -3.106,-3.106 0,-1.715397 1.39061,-3.106 3.106,-3.106 1.7154,0 3.106,1.390603 3.106,3.106 z" /><path
         d="m 243.747,81.586 c 0.272,0.369 0.622,0.677 1.028,0.896 l 3.941,-4.615 c -0.278,-0.363 -0.633,-0.665 -1.042,-0.877 l -3.927,4.596 z"
         id="path511"
         inkscape:connector-curvature="0"
         style="fill:#929496" /><circle
         cx="250.51801"
         cy="60.008999"
         r="3.872"
         id="circle513"
         sodipodi:cx="250.51801"
         sodipodi:cy="60.008999"
         sodipodi:rx="3.872"
         sodipodi:ry="3.872"
         style="fill:#929496"
         d="m 254.39001,60.008999 c 0,2.138446 -1.73356,3.872 -3.872,3.872 -2.13845,0 -3.872,-1.733554 -3.872,-3.872 0,-2.138447 1.73355,-3.872 3.872,-3.872 2.13844,0 3.872,1.733553 3.872,3.872 z" /><circle
         cx="250.51801"
         cy="59.273998"
         r="3.5320001"
         id="circle515"
         sodipodi:cx="250.51801"
         sodipodi:cy="59.273998"
         sodipodi:rx="3.5320001"
         sodipodi:ry="3.5320001"
         style="fill:#bbbcbf"
         d="m 254.05001,59.273998 c 0,1.95067 -1.58133,3.532 -3.532,3.532 -1.95067,0 -3.532,-1.58133 -3.532,-3.532 0,-1.95067 1.58133,-3.532 3.532,-3.532 1.95067,0 3.532,1.58133 3.532,3.532 z" /><circle
         cx="250.51801"
         cy="59.273998"
         r="3.1059999"
         id="circle517"
         sodipodi:cx="250.51801"
         sodipodi:cy="59.273998"
         sodipodi:rx="3.1059999"
         sodipodi:ry="3.1059999"
         style="fill:#e6e6e7"
         d="m 253.62401,59.273998 c 0,1.715397 -1.39061,3.106 -3.106,3.106 -1.7154,0 -3.106,-1.390603 -3.106,-3.106 0,-1.715396 1.3906,-3.106 3.106,-3.106 1.71539,0 3.106,1.390604 3.106,3.106 z" /><path
         d="m 249.347,62.138 c 0.425,0.172 0.883,0.254 1.344,0.229 l 0.96,-5.992 c -0.427,-0.166 -0.887,-0.239 -1.347,-0.207 l -0.957,5.97 z"
         id="path519"
         inkscape:connector-curvature="0"
         style="fill:#929496" /><circle
         cx="254.813"
         cy="39.596001"
         r="3.8729999"
         id="circle521"
         sodipodi:cx="254.813"
         sodipodi:cy="39.596001"
         sodipodi:rx="3.8729999"
         sodipodi:ry="3.8729999"
         style="fill:#929496"
         d="m 258.686,39.596001 c 0,2.138998 -1.734,3.873 -3.873,3.873 -2.139,0 -3.873,-1.734002 -3.873,-3.873 0,-2.138999 1.734,-3.873 3.873,-3.873 2.139,0 3.873,1.734001 3.873,3.873 z" /><circle
         cx="254.813"
         cy="38.861"
         r="3.5309999"
         id="circle523"
         sodipodi:cx="254.813"
         sodipodi:cy="38.861"
         sodipodi:rx="3.5309999"
         sodipodi:ry="3.5309999"
         style="fill:#bbbcbf"
         d="m 258.344,38.861 c 0,1.950117 -1.58088,3.531 -3.531,3.531 -1.95011,0 -3.531,-1.580883 -3.531,-3.531 0,-1.950117 1.58089,-3.531 3.531,-3.531 1.95012,0 3.531,1.580883 3.531,3.531 z" /><circle
         cx="254.813"
         cy="38.862"
         r="3.1070001"
         id="circle525"
         sodipodi:cx="254.813"
         sodipodi:cy="38.862"
         sodipodi:rx="3.1070001"
         sodipodi:ry="3.1070001"
         style="fill:#e6e6e7"
         d="m 257.92,38.862 c 0,1.715948 -1.39105,3.107 -3.107,3.107 -1.71595,0 -3.107,-1.391052 -3.107,-3.107 0,-1.715949 1.39105,-3.107001 3.107,-3.107001 1.71595,0 3.107,1.391052 3.107,3.107001 z" /><path
         d="m 251.735,39.313 c 0.067,0.453 0.229,0.891 0.484,1.273 l 5.65,-2.214 c -0.073,-0.452 -0.244,-0.885 -0.505,-1.266 l -5.629,2.207 z"
         id="path527"
         inkscape:connector-curvature="0"
         style="fill:#929496" /><circle
         cx="258.93799"
         cy="19.222"
         r="3.8729999"
         id="circle529"
         sodipodi:cx="258.93799"
         sodipodi:cy="19.222"
         sodipodi:rx="3.8729999"
         sodipodi:ry="3.8729999"
         style="fill:#929496"
         d="m 262.81099,19.222 c 0,2.138999 -1.734,3.873 -3.873,3.873 -2.139,0 -3.873,-1.734001 -3.873,-3.873 0,-2.138999 1.734,-3.873 3.873,-3.873 2.139,0 3.873,1.734001 3.873,3.873 z" /><circle
         cx="258.93799"
         cy="18.487"
         r="3.5320001"
         id="circle531"
         sodipodi:cx="258.93799"
         sodipodi:cy="18.487"
         sodipodi:rx="3.5320001"
         sodipodi:ry="3.5320001"
         style="fill:#bbbcbf"
         d="m 262.46999,18.487 c 0,1.950669 -1.58133,3.532 -3.532,3.532 -1.95067,0 -3.532,-1.581331 -3.532,-3.532 0,-1.95067 1.58133,-3.532001 3.532,-3.532001 1.95067,0 3.532,1.581331 3.532,3.532001 z" /><circle
         cx="258.93799"
         cy="18.487"
         r="3.1070001"
         id="circle533"
         sodipodi:cx="258.93799"
         sodipodi:cy="18.487"
         sodipodi:rx="3.1070001"
         sodipodi:ry="3.1070001"
         style="fill:#e6e6e7"
         d="m 262.04499,18.487 c 0,1.715948 -1.39105,3.107 -3.107,3.107 -1.71595,0 -3.107,-1.391052 -3.107,-3.107 0,-1.715949 1.39105,-3.107001 3.107,-3.107001 1.71595,0 3.107,1.391052 3.107,3.107001 z" /><path
         d="m 257.874,21.392 c 0.43,0.156 0.892,0.222 1.351,0.18 l 0.742,-6.023 c -0.433,-0.149 -0.896,-0.205 -1.354,-0.156 l -0.739,5.999 z"
         id="path535"
         inkscape:connector-curvature="0"
         style="fill:#929496" /><circle
         cx="260.53601"
         cy="66.455002"
         r="4.0100002"
         id="circle537"
         sodipodi:cx="260.53601"
         sodipodi:cy="66.455002"
         sodipodi:rx="4.0100002"
         sodipodi:ry="4.0100002"
         style="fill:#d0d1d3"
         d="m 264.54601,66.455002 c 0,2.214662 -1.79534,4.01 -4.01,4.01 -2.21466,0 -4.01,-1.795338 -4.01,-4.01 0,-2.214662 1.79534,-4.01 4.01,-4.01 2.21466,0 4.01,1.795338 4.01,4.01 z" /><circle
         cx="260.53601"
         cy="66.455002"
         r="2.7479999"
         id="circle539"
         sodipodi:cx="260.53601"
         sodipodi:cy="66.455002"
         sodipodi:rx="2.7479999"
         sodipodi:ry="2.7479999"
         style="fill:#929496"
         d="m 263.28401,66.455002 c 0,1.517678 -1.23032,2.748 -2.748,2.748 -1.51768,0 -2.748,-1.230322 -2.748,-2.748 0,-1.517679 1.23032,-2.748 2.748,-2.748 1.51768,0 2.748,1.230321 2.748,2.748 z" /><circle
         cx="260.53601"
         cy="66.455002"
         r="2.5"
         id="circle541"
         sodipodi:cx="260.53601"
         sodipodi:cy="66.455002"
         sodipodi:rx="2.5"
         sodipodi:ry="2.5"
         style="fill:#d0d1d3"
         d="m 263.03601,66.455002 c 0,1.380712 -1.11929,2.5 -2.5,2.5 -1.38071,0 -2.5,-1.119288 -2.5,-2.5 0,-1.380712 1.11929,-2.5 2.5,-2.5 1.38071,0 2.5,1.119288 2.5,2.5 z" /><circle
         cx="260.53601"
         cy="66.454002"
         r="1.51"
         id="circle543"
         sodipodi:cx="260.53601"
         sodipodi:cy="66.454002"
         sodipodi:rx="1.51"
         sodipodi:ry="1.51"
         style="fill:#808183"
         d="m 262.04601,66.454002 c 0,0.83395 -0.67605,1.51 -1.51,1.51 -0.83395,0 -1.51,-0.67605 -1.51,-1.51 0,-0.83395 0.67605,-1.51 1.51,-1.51 0.83395,0 1.51,0.67605 1.51,1.51 z" /><rect
         height="0.44600001"
         transform="matrix(0.4701,-0.8826,0.8826,0.4701,79.4124,265.1746)"
         width="1.733"
         x="259.66901"
         y="66.232002"
         id="rect545"
         style="fill:#d0d1d3" /><rect
         height="0.44600001"
         transform="matrix(-0.8828,-0.4698,0.4698,-0.8828,459.3033,247.5248)"
         width="1.734"
         x="259.66901"
         y="66.232002"
         id="rect547"
         style="fill:#d0d1d3" /></g></g></svg>