<?xml version="1.0" encoding="UTF-8" standalone="no"?>
<!-- Generator: Adobe Illustrator 16.0.0, SVG Export Plug-In . SVG Version: 6.00 Build 0)  -->

<svg
   xmlns:dc="http://purl.org/dc/elements/1.1/"
   xmlns:cc="http://creativecommons.org/ns#"
   xmlns:rdf="http://www.w3.org/1999/02/22-rdf-syntax-ns#"
   xmlns:svg="http://www.w3.org/2000/svg"
   xmlns="http://www.w3.org/2000/svg"
   xmlns:sodipodi="http://sodipodi.sourceforge.net/DTD/sodipodi-0.dtd"
   xmlns:inkscape="http://www.inkscape.org/namespaces/inkscape"
   version="1.1"
   id="Layer_1"
   x="0px"
   y="0px"
   width="1000"
   height="115"
   viewBox="0 0 1000 115"
   enable-background="new 0 0 500 1500"
   xml:space="preserve"
   inkscape:version="0.48.5 r10040"
   sodipodi:docname="tam100-8-fretboard.svg"><metadata
   id="metadata775"><rdf:RDF><cc:Work
       rdf:about=""><dc:format>image/svg+xml</dc:format><dc:type
         rdf:resource="http://purl.org/dc/dcmitype/StillImage" /></cc:Work></rdf:RDF></metadata><defs
   id="defs773" /><sodipodi:namedview
   pagecolor="#ffffff"
   bordercolor="#666666"
   borderopacity="1"
   objecttolerance="10"
   gridtolerance="10"
   guidetolerance="10"
   inkscape:pageopacity="0"
   inkscape:pageshadow="2"
   inkscape:window-width="1920"
   inkscape:window-height="1058"
   id="namedview771"
   showgrid="false"
   inkscape:zoom="0.89001173"
   inkscape:cx="395.19145"
   inkscape:cy="-22.121773"
   inkscape:window-x="-8"
   inkscape:window-y="-8"
   inkscape:window-maximized="1"
   inkscape:current-layer="Layer_1" />
<g
   id="g3"
   transform="matrix(0,-1.5824355,1.5824355,0,-507.50699,455.05918)"
   style="opacity:1">
	<path
   d="m 102.065,849.896 c -9.205,-3.214 -37.094,20.416 -42.092,73.431 -6.214,65.914 34.971,153.799 34.241,200.376 -0.717,45.683 -37.652,103.618 -55.326,164.258 -24.19,83.002 8.877,144.922 58.146,172.441 48.795,27.254 101.44,29.953 147.493,30.577 46.053,0.625 100.261,2.355 144.642,-11.344 85.104,-26.271 82.221,-108.764 78.712,-145.957 -5.924,-62.803 -68.354,-159.089 -62.809,-194.857 8.013,-51.674 29.566,-69.624 37.521,-114.492 10.195,-57.504 -25.103,-82.522 -25.103,-82.522 0,0 13.147,65.946 -40.602,105.287 -53.751,39.341 -81.714,-22.06 -81.714,-22.06 L 202.2,970.005 c 0,0 -13.881,38.81 -52.682,15.595 C 89.283,949.561 117.009,855.115 102.065,849.896 z"
   id="path5"
   inkscape:connector-curvature="0"
   style="fill:#aad1d6" />
	<path
   d="m 102.065,849.896 c -1.117,-0.39 -2.512,-0.381 -4.105,0.024 -5.247,31.766 -4.01,64.326 6.651,94.006 9.238,25.718 32.97,58.969 57.241,60.536 37.385,2.416 51.241,-27.443 51.241,-27.443 l -0.765,-1.02 -10.129,-5.995 c 0,0 -13.881,38.81 -52.682,15.595 C 89.283,949.561 117.009,855.115 102.065,849.896 z"
   id="path7"
   inkscape:connector-curvature="0"
   style="opacity:0.40000000000000002;fill:#434244" />
	<path
   d="m 137.661,1287.295 c 4.51,-17.627 23.567,-77.085 29.925,-139.782 5.746,-56.67 -7.679,-116.361 -22.546,-139.373 -1.118,-1.73 -0.637,-4.06 3.279,-2.869 3.917,1.19 16.68,6.15 31.154,4.509 14.474,-1.641 19.676,-8.608 19.676,-8.608 l 106.169,56.57 c 0,0 21.968,24.689 71.326,2.049 49.359,-22.641 48.493,-91.239 47.961,-96.741 -0.532,-5.502 2.137,-2.943 3.689,0 1.552,2.943 17.216,29.514 8.198,68.047 -9.019,38.532 -37.303,84.853 -39.763,116.417 -2.459,31.563 32.107,93.227 40.582,113.548 11.089,26.588 20.147,65.569 20.496,81.983 0.41,19.267 -19.266,31.975 -36.072,15.987 -13.233,-12.588 -16.397,-22.956 -50.42,-48.78 -37.688,-28.605 -119.596,-15.164 -119.596,-15.164 0,0 -74.723,0.936 -92.054,3.594 -5.011,0.768 -26.513,6.239 -22.004,-11.387 z"
   id="path9"
   inkscape:connector-curvature="0"
   style="fill:#2a0b09" />
	<g
   id="g11">
		
			<rect
   x="299.702"
   y="203.439"
   transform="matrix(0.9783,-0.2071,0.2071,0.9783,-36.5178,68.629)"
   width="19.698"
   height="10.609"
   id="rect13"
   style="fill:#f4df84" />
		
			<rect
   x="313.04199"
   y="202.442"
   transform="matrix(0.9783,-0.2074,0.2074,0.9783,-36.2545,69.6944)"
   width="2.418"
   height="10.611"
   id="rect15"
   style="fill:#434244" />
		<path
   d="m 317.869,194.755 c 0.229,-0.285 4.54,-1.156 6.158,-1.497 1.612,-0.34 5.904,-1.29 6.231,-1.125 0.325,0.163 5.896,9.025 6.409,11.447 0.512,2.421 -0.989,12.779 -1.221,13.061 -0.231,0.287 -4.541,1.157 -6.156,1.498 -1.615,0.343 -5.909,1.292 -6.235,1.126 -0.324,-0.166 -5.87,-8.91 -6.407,-11.447 -0.536,-2.538 0.989,-12.781 1.221,-13.063 z"
   id="path17"
   inkscape:connector-curvature="0"
   style="fill:#6d8686" />
		<path
   d="m 317.798,194.423 c 0.232,-0.279 4.542,-1.151 6.158,-1.493 1.614,-0.342 5.907,-1.289 6.232,-1.129 0.324,0.161 5.859,8.851 6.361,11.226 0.505,2.379 -1.034,12.564 -1.268,12.844 -0.23,0.279 -4.54,1.152 -6.154,1.494 -1.616,0.342 -5.91,1.289 -6.234,1.129 -0.325,-0.162 -5.834,-8.736 -6.361,-11.228 -0.526,-2.492 1.035,-12.563 1.266,-12.843 z"
   id="path19"
   inkscape:connector-curvature="0"
   style="fill:#bbd7d3" />
		<path
   d="m 329.128,217.365 c 1.614,-0.341 5.924,-1.215 6.154,-1.494 0.233,-0.279 1.772,-10.464 1.268,-12.844 l -20.018,4.238 c 0.527,2.492 6.036,11.066 6.361,11.228 0.325,0.16 4.619,-0.786 6.235,-1.128 z"
   id="path21"
   inkscape:connector-curvature="0"
   style="opacity:0.29999999999999999;fill:#434244" />
	</g>
	<g
   id="g23">
		
			<rect
   x="179.733"
   y="233.028"
   transform="matrix(-0.9702,-0.2423,0.2423,-0.9702,315.7628,515.5006)"
   width="19.697001"
   height="10.609"
   id="rect25"
   style="fill:#f4df84" />
		
			<rect
   x="183.713"
   y="231.86301"
   transform="matrix(-0.9703,-0.2418,0.2418,-0.9703,307.0152,512.0096)"
   width="2.4170001"
   height="10.611"
   id="rect27"
   style="fill:#434244" />
		<path
   d="m 181.775,224.052 c -0.219,-0.293 -4.496,-1.32 -6.101,-1.719 -1.599,-0.398 -5.854,-1.502 -6.188,-1.349 -0.329,0.151 -6.219,8.806 -6.818,11.208 -0.599,2.402 0.527,12.809 0.748,13.097 0.22,0.295 4.495,1.32 6.097,1.719 1.602,0.402 5.859,1.505 6.19,1.351 0.33,-0.153 6.189,-8.692 6.818,-11.207 0.627,-2.517 -0.524,-12.81 -0.746,-13.1 z"
   id="path29"
   inkscape:connector-curvature="0"
   style="fill:#6d8686" />
		<path
   d="m 181.858,223.723 c -0.224,-0.287 -4.498,-1.314 -6.102,-1.715 -1.6,-0.4 -5.855,-1.5 -6.187,-1.353 -0.33,0.15 -6.177,8.633 -6.764,10.988 -0.59,2.36 0.579,12.594 0.802,12.881 0.22,0.287 4.496,1.316 6.097,1.715 1.604,0.402 5.859,1.502 6.189,1.354 0.33,-0.148 6.146,-8.518 6.763,-10.989 0.618,-2.472 -0.579,-12.592 -0.798,-12.881 z"
   id="path31"
   inkscape:connector-curvature="0"
   style="fill:#bbd7d3" />
		<path
   d="m 169.705,246.239 c -1.601,-0.398 -5.877,-1.428 -6.097,-1.715 -0.223,-0.287 -1.392,-10.521 -0.802,-12.881 l 19.851,4.96 c -0.616,2.471 -6.433,10.84 -6.763,10.989 -0.33,0.149 -4.585,-0.951 -6.189,-1.353 z"
   id="path33"
   inkscape:connector-curvature="0"
   style="opacity:0.29999999999999999;fill:#434244" />
	</g>
	<g
   id="g35">
		
			<rect
   x="187.979"
   y="185.683"
   transform="matrix(-0.9702,-0.2423,0.2423,-0.9702,343.4863,424.2157)"
   width="19.697001"
   height="10.609"
   id="rect37"
   style="fill:#f4df84" />
		
			<rect
   x="191.95799"
   y="184.51801"
   transform="matrix(-0.9703,-0.2418,0.2418,-0.9703,334.7076,420.7177)"
   width="2.4170001"
   height="10.61"
   id="rect39"
   style="fill:#434244" />
		<path
   d="m 190.021,176.707 c -0.22,-0.293 -4.497,-1.32 -6.101,-1.719 -1.6,-0.399 -5.854,-1.502 -6.188,-1.349 -0.329,0.151 -6.219,8.806 -6.817,11.208 -0.6,2.402 0.526,12.809 0.747,13.097 0.22,0.295 4.496,1.32 6.097,1.72 1.602,0.401 5.859,1.504 6.191,1.351 0.33,-0.153 6.188,-8.692 6.817,-11.208 0.628,-2.518 -0.525,-12.81 -0.746,-13.1 z"
   id="path41"
   inkscape:connector-curvature="0"
   style="fill:#6d8686" />
		<path
   d="m 190.104,176.377 c -0.223,-0.286 -4.498,-1.313 -6.102,-1.714 -1.6,-0.4 -5.854,-1.501 -6.187,-1.354 -0.33,0.15 -6.176,8.634 -6.763,10.989 -0.591,2.36 0.579,12.594 0.801,12.881 0.221,0.287 4.496,1.316 6.098,1.714 1.602,0.401 5.859,1.503 6.188,1.354 0.33,-0.149 6.147,-8.519 6.764,-10.99 0.617,-2.47 -0.58,-12.59 -0.799,-12.88 z"
   id="path43"
   inkscape:connector-curvature="0"
   style="fill:#bbd7d3" />
		<path
   d="m 177.951,198.894 c -1.602,-0.398 -5.877,-1.428 -6.098,-1.714 -0.222,-0.287 -1.392,-10.521 -0.801,-12.881 l 19.851,4.96 c -0.616,2.471 -6.434,10.84 -6.764,10.99 -0.328,0.147 -4.586,-0.954 -6.188,-1.355 z"
   id="path45"
   inkscape:connector-curvature="0"
   style="opacity:0.29999999999999999;fill:#434244" />
	</g>
	<g
   id="g47">
		
			<rect
   x="196.22501"
   y="138.245"
   transform="matrix(-0.9702,-0.2423,0.2423,-0.9702,371.2211,332.755)"
   width="19.697001"
   height="10.609"
   id="rect49"
   style="fill:#f4df84" />
		
			<rect
   x="200.20399"
   y="137.07899"
   transform="matrix(-0.9702,-0.2422,0.2422,-0.9702,362.3514,329.305)"
   width="2.418"
   height="10.611"
   id="rect51"
   style="fill:#434244" />
		<path
   d="m 198.267,129.269 c -0.219,-0.293 -4.495,-1.32 -6.101,-1.72 -1.599,-0.398 -5.854,-1.502 -6.187,-1.349 -0.33,0.151 -6.219,8.806 -6.819,11.207 -0.599,2.401 0.527,12.808 0.748,13.097 0.22,0.295 4.496,1.321 6.098,1.72 1.602,0.402 5.858,1.504 6.19,1.351 0.33,-0.154 6.188,-8.692 6.817,-11.208 0.628,-2.515 -0.525,-12.808 -0.746,-13.098 z"
   id="path53"
   inkscape:connector-curvature="0"
   style="fill:#6d8686" />
		<path
   d="m 198.35,128.939 c -0.223,-0.287 -4.498,-1.314 -6.102,-1.714 -1.6,-0.401 -5.854,-1.501 -6.187,-1.354 -0.33,0.15 -6.176,8.634 -6.764,10.988 -0.59,2.36 0.58,12.595 0.803,12.881 0.22,0.288 4.495,1.316 6.097,1.716 1.603,0.401 5.859,1.502 6.189,1.354 0.33,-0.15 6.146,-8.519 6.764,-10.989 0.617,-2.472 -0.581,-12.593 -0.8,-12.882 z"
   id="path55"
   inkscape:connector-curvature="0"
   style="fill:#bbd7d3" />
		<path
   d="m 186.197,151.456 c -1.602,-0.399 -5.877,-1.428 -6.097,-1.716 -0.223,-0.286 -1.393,-10.521 -0.803,-12.881 l 19.853,4.961 c -0.618,2.47 -6.434,10.839 -6.764,10.989 -0.329,0.149 -4.586,-0.952 -6.189,-1.353 z"
   id="path57"
   inkscape:connector-curvature="0"
   style="opacity:0.29999999999999999;fill:#434244" />
	</g>
	<g
   id="g59">
		
			<rect
   x="205.332"
   y="89.168999"
   transform="matrix(-0.9702,-0.2423,0.2423,-0.9702,401.0598,238.2676)"
   width="19.697001"
   height="10.609"
   id="rect61"
   style="fill:#f4df84" />
		
			<rect
   x="209.311"
   y="88.003998"
   transform="matrix(-0.9703,-0.242,0.242,-0.9703,392.2059,234.7834)"
   width="2.418"
   height="10.61"
   id="rect63"
   style="fill:#434244" />
		<path
   d="m 207.374,80.192 c -0.219,-0.294 -4.496,-1.32 -6.101,-1.719 -1.598,-0.399 -5.854,-1.502 -6.188,-1.35 -0.33,0.152 -6.219,8.806 -6.818,11.208 -0.6,2.401 0.527,12.808 0.748,13.096 0.22,0.295 4.495,1.32 6.097,1.72 1.602,0.401 5.859,1.504 6.19,1.35 0.331,-0.153 6.189,-8.692 6.818,-11.207 0.628,-2.515 -0.525,-12.808 -0.746,-13.098 z"
   id="path65"
   inkscape:connector-curvature="0"
   style="fill:#6d8686" />
		<path
   d="m 207.457,79.863 c -0.224,-0.287 -4.498,-1.314 -6.101,-1.714 -1.601,-0.401 -5.856,-1.501 -6.188,-1.354 -0.33,0.15 -6.176,8.634 -6.764,10.987 -0.59,2.361 0.579,12.595 0.802,12.882 0.221,0.288 4.496,1.317 6.098,1.715 1.602,0.401 5.859,1.502 6.188,1.354 0.33,-0.15 6.146,-8.52 6.763,-10.99 0.618,-2.47 -0.579,-12.591 -0.798,-12.88 z"
   id="path67"
   inkscape:connector-curvature="0"
   style="fill:#bbd7d3" />
		<path
   d="m 195.305,102.379 c -1.602,-0.398 -5.877,-1.428 -6.098,-1.715 -0.223,-0.287 -1.392,-10.521 -0.802,-12.882 l 19.851,4.961 c -0.616,2.47 -6.433,10.84 -6.763,10.99 -0.329,0.148 -4.587,-0.952 -6.188,-1.354 z"
   id="path69"
   inkscape:connector-curvature="0"
   style="opacity:0.29999999999999999;fill:#434244" />
	</g>
	<g
   id="g71">
		
			<rect
   x="288.90302"
   y="156.41"
   transform="matrix(0.9919,-0.1272,0.1272,0.9919,-18.1458,39.321)"
   width="19.697001"
   height="10.609"
   id="rect73"
   style="fill:#f4df84" />
		
			<rect
   x="302.30801"
   y="155.797"
   transform="matrix(0.9918,-0.1275,0.1275,0.9918,-18.0592,40.0018)"
   width="2.4170001"
   height="10.61"
   id="rect75"
   style="fill:#434244" />
		<path
   d="m 308.174,148.445 c 0.252,-0.265 4.619,-0.785 6.26,-0.994 1.635,-0.208 5.989,-0.808 6.303,-0.617 0.31,0.188 5.146,9.472 5.462,11.929 0.313,2.454 -2.021,12.657 -2.274,12.919 -0.253,0.267 -4.619,0.785 -6.256,0.995 -1.638,0.211 -5.994,0.809 -6.307,0.618 -0.31,-0.191 -5.13,-9.355 -5.46,-11.927 -0.33,-2.575 2.018,-12.661 2.272,-12.923 z"
   id="path77"
   inkscape:connector-curvature="0"
   style="fill:#6d8686" />
		<path
   d="m 308.13,148.108 c 0.255,-0.259 4.621,-0.779 6.26,-0.989 1.637,-0.21 5.991,-0.807 6.303,-0.622 0.311,0.187 5.125,9.295 5.433,11.704 0.31,2.413 -2.048,12.439 -2.302,12.699 -0.253,0.259 -4.619,0.781 -6.256,0.991 -1.639,0.21 -5.995,0.807 -6.305,0.621 -0.312,-0.187 -5.109,-9.18 -5.433,-11.706 -0.324,-2.526 2.048,-12.437 2.3,-12.698 z"
   id="path79"
   inkscape:connector-curvature="0"
   style="fill:#bbd7d3" />
		<path
   d="m 317.567,171.891 c 1.637,-0.209 6.003,-0.731 6.256,-0.991 0.254,-0.26 2.611,-10.287 2.302,-12.699 l -20.295,2.605 c 0.323,2.526 5.121,11.519 5.433,11.706 0.309,0.186 4.666,-0.411 6.304,-0.621 z"
   id="path81"
   inkscape:connector-curvature="0"
   style="opacity:0.29999999999999999;fill:#434244" />
	</g>
	<g
   id="g83">
		
			<rect
   x="279.35001"
   y="109.872"
   transform="matrix(0.9967,-0.0817,0.0817,0.9967,-8.4435,24.0137)"
   width="19.698"
   height="10.61"
   id="rect85"
   style="fill:#f4df84" />
		
			<rect
   x="292.77802"
   y="109.479"
   transform="matrix(0.9966,-0.082,0.082,0.9966,-8.4231,24.4962)"
   width="2.4170001"
   height="10.611"
   id="rect87"
   style="fill:#434244" />
		<path
   d="m 299.22,102.353 c 0.263,-0.253 4.65,-0.572 6.297,-0.706 1.644,-0.134 6.021,-0.534 6.325,-0.328 0.302,0.203 4.708,9.698 4.91,12.166 0.201,2.466 -2.598,12.552 -2.863,12.802 -0.265,0.254 -4.65,0.573 -6.295,0.707 -1.646,0.136 -6.025,0.534 -6.328,0.329 -0.301,-0.206 -4.696,-9.581 -4.908,-12.165 -0.212,-2.586 2.595,-12.555 2.862,-12.805 z"
   id="path89"
   inkscape:connector-curvature="0"
   style="fill:#6d8686" />
		<path
   d="m 299.19,102.015 c 0.267,-0.247 4.651,-0.567 6.299,-0.702 1.645,-0.135 6.021,-0.531 6.324,-0.333 0.302,0.202 4.693,9.521 4.892,11.94 0.199,2.424 -2.615,12.333 -2.882,12.581 -0.264,0.248 -4.649,0.569 -6.294,0.703 -1.647,0.135 -6.026,0.531 -6.327,0.331 -0.302,-0.201 -4.683,-9.403 -4.891,-11.942 -0.207,-2.537 2.616,-12.33 2.879,-12.578 z"
   id="path91"
   inkscape:connector-curvature="0"
   style="fill:#bbd7d3" />
		<path
   d="m 307.529,126.205 c 1.645,-0.134 6.03,-0.456 6.294,-0.703 0.267,-0.248 3.081,-10.157 2.882,-12.581 l -20.394,1.673 c 0.208,2.539 4.589,11.741 4.891,11.942 0.301,0.2 4.68,-0.196 6.327,-0.331 z"
   id="path93"
   inkscape:connector-curvature="0"
   style="opacity:0.29999999999999999;fill:#434244" />
	</g>
	<g
   id="g95">
		
			<rect
   x="273.94101"
   y="63.272999"
   transform="matrix(0.9992,-0.0391,0.0391,0.9992,-2.4655,11.1539)"
   width="19.697001"
   height="10.61"
   id="rect97"
   style="fill:#f4df84" />
		
			<rect
   x="287.38101"
   y="63.084"
   transform="matrix(0.9992,-0.0396,0.0396,0.9992,-2.4817,11.4809)"
   width="2.4170001"
   height="10.612"
   id="rect99"
   style="fill:#434244" />
		<path
   d="m 294.348,56.193 c 0.274,-0.242 4.671,-0.374 6.322,-0.437 1.647,-0.064 6.038,-0.276 6.333,-0.058 0.292,0.216 4.29,9.891 4.387,12.364 0.096,2.473 -3.131,12.429 -3.407,12.668 -0.275,0.242 -4.67,0.375 -6.32,0.438 -1.649,0.065 -6.043,0.276 -6.335,0.058 -0.292,-0.218 -4.284,-9.772 -4.386,-12.364 -0.1,-2.59 3.129,-12.43 3.406,-12.669 z"
   id="path101"
   inkscape:connector-curvature="0"
   style="fill:#6d8686" />
		<path
   d="m 294.334,55.855 c 0.275,-0.236 4.671,-0.369 6.321,-0.433 1.649,-0.064 6.04,-0.274 6.333,-0.063 0.294,0.214 4.284,9.712 4.378,12.139 0.096,2.43 -3.139,12.21 -3.416,12.446 -0.273,0.236 -4.669,0.37 -6.318,0.434 -1.65,0.064 -6.042,0.274 -6.335,0.061 -0.293,-0.214 -4.277,-9.595 -4.376,-12.14 -0.099,-2.545 3.139,-12.209 3.413,-12.444 z"
   id="path103"
   inkscape:connector-curvature="0"
   style="fill:#bbd7d3" />
		<path
   d="m 301.632,80.378 c 1.649,-0.064 6.045,-0.197 6.318,-0.434 0.277,-0.236 3.512,-10.016 3.416,-12.446 l -20.445,0.801 c 0.099,2.544 4.083,11.926 4.376,12.14 0.293,0.213 4.684,0.003 6.335,-0.061 z"
   id="path105"
   inkscape:connector-curvature="0"
   style="opacity:0.29999999999999999;fill:#434244" />
	</g>
	<path
   d="m 422.229,945.987 c -2.816,-2.818 -4.738,-4.181 -4.738,-4.181 0,0 13.147,65.946 -40.602,105.287 -39.158,28.659 -64.625,3.856 -75.569,-11.725 2.122,9.105 4.97,17.016 10.722,20.885 20.883,14.052 63.037,12.687 90.555,-27.907 19.669,-29.015 21.505,-58.216 19.632,-82.359 z"
   id="path107"
   inkscape:connector-curvature="0"
   style="opacity:0.40000000000000002;fill:#434244" />
	<path
   d="m 289.33,299.709 c 0,0 2.97,-29.006 6.861,-39.063 4.125,-10.658 18.161,-19.755 18.415,-20.972 0.255,-1.217 -17.473,-71.31 -23.582,-93.785 C 281.942,112.478 277.771,3.081 277.676,2.068 c -0.235,-2.512 -7.96,-2.396 -8.975,-1.435 -1.121,1.06 -15.754,14.608 -19.747,15.437 -3.876,0.804 -4.52,-0.308 -7.897,-2.154 -4.088,-2.234 -8.617,-2.454 -10.052,2.154 -1.434,4.608 -44.225,250.38 -43.93,251.481 0.294,1.1 10.325,5.231 16.529,14.067 6.203,8.836 7.562,18.09 7.562,18.09 h 78.164 z"
   id="path109"
   inkscape:connector-curvature="0"
   style="fill:#6b8e91" />
	<path
   d="m 289.33,299.709 c 0,0 1.694,-29.585 5.586,-39.641 4.126,-10.658 18.236,-23.436 18.49,-24.652 0.255,-1.217 -16.272,-67.051 -22.382,-89.526 C 281.942,112.479 277.771,3.082 277.676,2.069 c -0.235,-2.512 -7.96,-2.396 -8.975,-1.435 -1.121,1.06 -15.754,14.608 -19.747,15.437 -3.876,0.804 -4.52,-0.308 -7.897,-2.154 -4.088,-2.234 -8.617,-2.454 -10.052,2.154 -1.434,4.608 -44.224,246.637 -43.929,247.738 0.295,1.1 11.785,7.21 17.988,16.046 6.203,8.836 6.102,19.854 6.102,19.854 h 78.164 z"
   id="path111"
   inkscape:connector-curvature="0"
   style="fill:#a7cacd" />
	<path
   d="m 223.421,299.709 c 0,0 17.975,-55.571 18.244,-55.688 0.271,-0.117 20.378,6.319 20.701,6.819 0.323,0.5 20.033,48.869 20.033,48.869 h -58.978 z"
   id="path113"
   inkscape:connector-curvature="0"
   style="fill:#1a1a1b" />
	<polygon
   points="289.33,299.709 211.167,299.709 195.067,1081.228 308.291,1081.228 "
   id="polygon115"
   style="fill:#121312" />
	<rect
   x="221.771"
   y="299.70901"
   width="3.299"
   height="781.51898"
   id="rect117"
   style="fill:#1e211f" />
	<rect
   x="245.548"
   y="299.70901"
   width="5.1560001"
   height="781.51898"
   id="rect119"
   style="fill:#181916" />
	<rect
   x="277.39801"
   y="299.70901"
   width="2.5769999"
   height="781.51898"
   id="rect121"
   style="fill:#1a1a16" />
	<rect
   x="236.44701"
   y="299.70901"
   width="2.5769999"
   height="781.51898"
   id="rect123"
   style="fill:#2a2b24" />
	<rect
   x="258.091"
   y="299.70901"
   width="3.063"
   height="781.51898"
   id="rect125"
   style="fill:#151817" />
	<g
   id="g127">
		<polygon
   points="304.608,929.447 304.508,925.286 198.28,925.286 198.194,929.447 "
   id="polygon129"
   style="fill:#b1aea3" />
		<polygon
   points="305.112,950.209 305.011,946.048 197.853,946.048 197.767,950.209 "
   id="polygon131"
   style="fill:#b1aea3" />
		<polygon
   points="302.791,854.533 302.689,850.373 199.823,850.373 199.737,854.533 "
   id="polygon133"
   style="fill:#b1aea3" />
		<polygon
   points="304.018,905.072 303.916,900.912 198.782,900.912 198.696,905.072 "
   id="polygon135"
   style="fill:#b1aea3" />
		<polygon
   points="303.418,880.371 303.316,876.21 199.291,876.21 199.205,880.371 "
   id="polygon137"
   style="fill:#b1aea3" />
		<polygon
   points="305.608,970.675 305.508,966.514 197.431,966.514 197.346,970.675 "
   id="polygon139"
   style="fill:#b1aea3" />
		<polygon
   points="195.321,1068.901 195.235,1073.063 308.093,1073.063 307.991,1068.901 "
   id="polygon141"
   style="fill:#b1aea3" />
		<polygon
   points="307.742,1058.604 307.641,1054.442 195.619,1054.442 195.533,1058.604 "
   id="polygon143"
   style="fill:#b1aea3" />
		<polygon
   points="306.081,990.136 305.979,985.975 197.03,985.975 196.944,990.136 "
   id="polygon145"
   style="fill:#b1aea3" />
		<polygon
   points="306.976,1027.013 306.874,1022.852 196.271,1022.852 196.185,1027.013 "
   id="polygon147"
   style="fill:#b1aea3" />
		<polygon
   points="306.532,1008.711 306.431,1004.55 196.647,1004.55 196.562,1008.711 "
   id="polygon149"
   style="fill:#b1aea3" />
		<polygon
   points="307.354,1042.642 307.254,1038.48 195.948,1038.48 195.862,1042.642 "
   id="polygon151"
   style="fill:#b1aea3" />
		<polygon
   points="295,533.406 294.898,529.245 206.438,529.245 206.354,533.406 "
   id="polygon153"
   style="fill:#b1aea3" />
		<polygon
   points="293.851,486.026 293.75,481.864 207.415,481.864 207.329,486.026 "
   id="polygon155"
   style="fill:#b1aea3" />
		<polygon
   points="296.086,578.192 295.985,574.033 205.516,574.033 205.431,578.192 "
   id="polygon157"
   style="fill:#b1aea3" />
		<polygon
   points="292.611,434.947 292.51,430.786 208.467,430.786 208.382,434.947 "
   id="polygon159"
   style="fill:#b1aea3" />
		<polygon
   points="297.109,620.339 297.008,616.177 204.647,616.177 204.563,620.339 "
   id="polygon161"
   style="fill:#b1aea3" />
		<polygon
   points="291.337,382.441 291.236,378.281 209.549,378.281 209.463,382.441 "
   id="polygon163"
   style="fill:#b1aea3" />
		<polygon
   points="298.069,659.908 297.968,655.747 203.833,655.747 203.747,659.908 "
   id="polygon165"
   style="fill:#b1aea3" />
		<polygon
   points="300.646,766.129 300.546,761.969 201.645,761.969 201.559,766.129 "
   id="polygon167"
   style="fill:#b1aea3" />
		<polygon
   points="301.401,797.291 301.302,793.132 201.003,793.132 200.917,797.291 "
   id="polygon169"
   style="fill:#b1aea3" />
		<polygon
   points="302.121,826.92 302.02,822.759 200.393,822.759 200.307,826.92 "
   id="polygon171"
   style="fill:#b1aea3" />
		<polygon
   points="298.961,696.665 298.859,692.502 203.075,692.502 202.99,696.665 "
   id="polygon173"
   style="fill:#b1aea3" />
		<polygon
   points="299.849,733.227 299.747,729.067 202.322,729.067 202.236,733.227 "
   id="polygon175"
   style="fill:#b1aea3" />
	</g>
	<g
   id="g177">
		<polygon
   points="302.77,853.667 302.669,849.506 199.841,849.506 199.755,853.667 "
   id="polygon179"
   style="fill:#cac7bc" />
		<polygon
   points="305.588,969.808 305.486,965.646 197.449,965.646 197.363,969.808 "
   id="polygon181"
   style="fill:#cac7bc" />
		<polygon
   points="306.06,989.269 305.959,985.107 197.048,985.107 196.962,989.269 "
   id="polygon183"
   style="fill:#cac7bc" />
		<polygon
   points="303.996,904.205 303.895,900.044 198.8,900.044 198.714,904.205 "
   id="polygon185"
   style="fill:#cac7bc" />
		<polygon
   points="303.396,879.503 303.296,875.344 199.31,875.344 199.224,879.503 "
   id="polygon187"
   style="fill:#cac7bc" />
		<polygon
   points="304.569,927.829 304.468,923.667 198.313,923.667 198.228,927.829 "
   id="polygon189"
   style="fill:#cac7bc" />
		<polygon
   points="195.34,1068.034 195.254,1072.195 308.071,1072.195 307.971,1068.034 "
   id="polygon191"
   style="fill:#cac7bc" />
		<polygon
   points="306.511,1007.844 306.409,1003.683 196.665,1003.683 196.579,1007.844 "
   id="polygon193"
   style="fill:#cac7bc" />
		<polygon
   points="307.721,1057.736 307.62,1053.575 195.637,1053.575 195.552,1057.736 "
   id="polygon195"
   style="fill:#cac7bc" />
		<polygon
   points="307.334,1041.774 307.232,1037.614 195.966,1037.614 195.881,1041.774 "
   id="polygon197"
   style="fill:#cac7bc" />
		<polygon
   points="306.954,1026.146 306.854,1021.985 196.288,1021.985 196.202,1026.146 "
   id="polygon199"
   style="fill:#cac7bc" />
		<polygon
   points="305.091,949.342 304.99,945.181 197.87,945.181 197.784,949.342 "
   id="polygon201"
   style="fill:#cac7bc" />
		<polygon
   points="293.829,485.158 293.729,480.998 207.433,480.998 207.347,485.158 "
   id="polygon203"
   style="fill:#cac7bc" />
		<polygon
   points="297.088,619.472 296.986,615.311 204.666,615.311 204.58,619.472 "
   id="polygon205"
   style="fill:#cac7bc" />
		<polygon
   points="296.065,577.326 295.965,573.165 205.534,573.165 205.448,577.326 "
   id="polygon207"
   style="fill:#cac7bc" />
		<polygon
   points="294.979,532.54 294.878,528.379 206.456,528.379 206.371,532.54 "
   id="polygon209"
   style="fill:#cac7bc" />
		<polygon
   points="302.1,826.053 301.999,821.892 200.41,821.892 200.324,826.053 "
   id="polygon211"
   style="fill:#cac7bc" />
		<polygon
   points="291.316,381.574 291.216,377.414 209.566,377.414 209.48,381.574 "
   id="polygon213"
   style="fill:#cac7bc" />
		<polygon
   points="292.59,434.08 292.489,429.918 208.485,429.918 208.399,434.08 "
   id="polygon215"
   style="fill:#cac7bc" />
		<polygon
   points="300.625,765.262 300.524,761.102 201.662,761.102 201.577,765.262 "
   id="polygon217"
   style="fill:#cac7bc" />
		<polygon
   points="301.381,796.425 301.28,792.264 201.021,792.264 200.935,796.425 "
   id="polygon219"
   style="fill:#cac7bc" />
		<polygon
   points="299.827,732.361 299.726,728.2 202.34,728.2 202.255,732.361 "
   id="polygon221"
   style="fill:#cac7bc" />
		<polygon
   points="298.939,695.797 298.839,691.637 203.094,691.637 203.008,695.797 "
   id="polygon223"
   style="fill:#cac7bc" />
		<polygon
   points="298.048,659.041 297.947,654.881 203.851,654.881 203.765,659.041 "
   id="polygon225"
   style="fill:#cac7bc" />
	</g>
	<g
   id="g227">
		<circle
   cx="290.535"
   cy="214.899"
   r="9.842"
   id="circle229"
   sodipodi:cx="290.535"
   sodipodi:cy="214.899"
   sodipodi:rx="9.842"
   sodipodi:ry="9.842"
   style="fill:#d3bb46"
   d="m 300.377,214.899 c 0,5.43559 -4.40641,9.842 -9.842,9.842 -5.43558,0 -9.842,-4.40641 -9.842,-9.842 0,-5.43558 4.40642,-9.842 9.842,-9.842 5.43559,0 9.842,4.40642 9.842,9.842 z" />
		<polygon
   points="298.342,214.604 294.438,221.364 286.632,221.364 282.729,214.604 "
   id="polygon231"
   style="opacity:0.50000000000000000;fill:#272525" />
		<polygon
   points="297.521,214.519 294.029,220.57 287.042,220.57 283.549,214.519 "
   id="polygon233"
   style="fill:#f3de77" />
		<path
   d="m 290.536,224.742 c 5.435,0 9.841,-4.407 9.841,-9.842 h -19.684 c 0,5.435 4.406,9.842 9.843,9.842 z"
   id="path235"
   inkscape:connector-curvature="0"
   style="opacity:0.10000000000000001;fill:#272525" />
	</g>
	<g
   id="g237">
		<circle
   cx="209.313"
   cy="244.638"
   r="9.842"
   id="circle239"
   sodipodi:cx="209.313"
   sodipodi:cy="244.638"
   sodipodi:rx="9.842"
   sodipodi:ry="9.842"
   style="fill:#d3bb46"
   d="m 219.155,244.638 c 0,5.43559 -4.40641,9.842 -9.842,9.842 -5.43558,0 -9.842,-4.40641 -9.842,-9.842 0,-5.43559 4.40642,-9.842 9.842,-9.842 5.43559,0 9.842,4.40641 9.842,9.842 z" />
		<polygon
   points="217.121,244.343 213.217,251.103 205.41,251.103 201.507,244.343 "
   id="polygon241"
   style="opacity:0.50000000000000000;fill:#272525" />
		<polygon
   points="216.3,244.257 212.807,250.309 205.82,250.309 202.326,244.257 "
   id="polygon243"
   style="fill:#f3de77" />
		<path
   d="m 209.314,254.48 c 5.435,0 9.841,-4.407 9.841,-9.842 h -19.684 c 0.001,5.436 4.406,9.842 9.843,9.842 z"
   id="path245"
   inkscape:connector-curvature="0"
   style="opacity:0.10000000000000001;fill:#272525" />
	</g>
	<g
   id="g247">
		<circle
   cx="218.19901"
   cy="195.88901"
   r="9.842"
   id="circle249"
   sodipodi:cx="218.19901"
   sodipodi:cy="195.88901"
   sodipodi:rx="9.842"
   sodipodi:ry="9.842"
   style="fill:#d3bb46"
   d="m 228.04101,195.88901 c 0,5.43558 -4.40642,9.842 -9.842,9.842 -5.43559,0 -9.842,-4.40642 -9.842,-9.842 0,-5.43559 4.40641,-9.842 9.842,-9.842 5.43558,0 9.842,4.40641 9.842,9.842 z" />
		<polygon
   points="226.007,195.593 222.103,202.354 214.296,202.354 210.393,195.593 "
   id="polygon251"
   style="opacity:0.50000000000000000;fill:#272525" />
		<polygon
   points="225.187,195.508 221.692,201.559 214.706,201.559 211.213,195.508 "
   id="polygon253"
   style="fill:#f3de77" />
		<path
   d="m 218.2,205.731 c 5.435,0 9.841,-4.407 9.841,-9.842 h -19.684 c 0,5.435 4.406,9.842 9.843,9.842 z"
   id="path255"
   inkscape:connector-curvature="0"
   style="opacity:0.10000000000000001;fill:#272525" />
	</g>
	<g
   id="g257">
		<path
   d="m 235.848,146.836 c 0,5.435 -4.406,9.842 -9.84,9.842 -5.438,0 -9.844,-4.407 -9.844,-9.842 0,-5.436 4.405,-9.842 9.844,-9.842 5.433,0 9.84,4.407 9.84,9.842 z"
   id="path259"
   inkscape:connector-curvature="0"
   style="fill:#d3bb46" />
		<polygon
   points="233.813,146.541 229.909,153.301 222.104,153.301 218.199,146.541 "
   id="polygon261"
   style="opacity:0.50000000000000000;fill:#272525" />
		<polygon
   points="232.993,146.456 229.5,152.506 222.513,152.506 219.02,146.456 "
   id="polygon263"
   style="fill:#f3de77" />
		<path
   d="m 226.008,156.678 c 5.434,0 9.84,-4.407 9.84,-9.842 h -19.684 c 0,5.435 4.405,9.842 9.844,9.842 z"
   id="path265"
   inkscape:connector-curvature="0"
   style="opacity:0.10000000000000001;fill:#272525" />
	</g>
	<g
   id="g267">
		<path
   d="m 244.241,99.235 c 0,5.435 -4.406,9.842 -9.84,9.842 -5.438,0 -9.844,-4.407 -9.844,-9.842 0,-5.435 4.405,-9.842 9.844,-9.842 5.434,0 9.84,4.407 9.84,9.842 z"
   id="path269"
   inkscape:connector-curvature="0"
   style="fill:#d3bb46" />
		<polygon
   points="242.207,98.939 238.303,105.7 230.497,105.7 226.593,98.939 "
   id="polygon271"
   style="opacity:0.50000000000000000;fill:#272525" />
		<polygon
   points="241.387,98.854 237.894,104.905 230.906,104.905 227.413,98.854 "
   id="polygon273"
   style="fill:#f3de77" />
		<path
   d="m 234.401,109.078 c 5.434,0 9.84,-4.407 9.84,-9.842 h -19.684 c 0.001,5.434 4.406,9.842 9.844,9.842 z"
   id="path275"
   inkscape:connector-curvature="0"
   style="opacity:0.10000000000000001;fill:#272525" />
	</g>
	<g
   id="g277">
		<path
   d="m 288.872,167.433 c 0,5.435 -4.407,9.842 -9.841,9.842 -5.438,0 -9.843,-4.407 -9.843,-9.842 0,-5.436 4.404,-9.842 9.843,-9.842 5.434,0 9.841,4.407 9.841,9.842 z"
   id="path279"
   inkscape:connector-curvature="0"
   style="fill:#d3bb46" />
		<polygon
   points="286.837,167.137 282.934,173.898 275.127,173.898 271.224,167.137 "
   id="polygon281"
   style="opacity:0.50000000000000000;fill:#272525" />
		<polygon
   points="286.017,167.052 282.524,173.103 275.536,173.103 272.043,167.052 "
   id="polygon283"
   style="fill:#f3de77" />
		<path
   d="m 279.031,177.275 c 5.434,0 9.841,-4.407 9.841,-9.842 h -19.684 c 0,5.435 4.405,9.842 9.843,9.842 z"
   id="path285"
   inkscape:connector-curvature="0"
   style="opacity:0.10000000000000001;fill:#272525" />
	</g>
	<g
   id="g287">
		<path
   d="m 278.949,119.242 c 0,5.436 -4.407,9.842 -9.841,9.842 -5.438,0 -9.843,-4.407 -9.843,-9.842 0,-5.435 4.404,-9.842 9.843,-9.842 5.434,-0.001 9.841,4.407 9.841,9.842 z"
   id="path289"
   inkscape:connector-curvature="0"
   style="fill:#d3bb46" />
		<polygon
   points="276.914,118.946 273.011,125.707 265.204,125.707 261.301,118.946 "
   id="polygon291"
   style="opacity:0.50000000000000000;fill:#272525" />
		<polygon
   points="276.094,118.861 272.601,124.912 265.613,124.912 262.12,118.861 "
   id="polygon293"
   style="fill:#f3de77" />
		<path
   d="m 269.108,129.084 c 5.434,0 9.841,-4.407 9.841,-9.842 h -19.684 c 0.001,5.435 4.405,9.842 9.843,9.842 z"
   id="path295"
   inkscape:connector-curvature="0"
   style="opacity:0.10000000000000001;fill:#272525" />
	</g>
	<g
   id="g297">
		<path
   d="m 273.243,70.04 c 0,5.435 -4.407,9.842 -9.841,9.842 -5.438,0 -9.843,-4.407 -9.843,-9.842 0,-5.435 4.404,-9.842 9.843,-9.842 5.434,-10e-4 9.841,4.406 9.841,9.842 z"
   id="path299"
   inkscape:connector-curvature="0"
   style="fill:#d3bb46" />
		<polygon
   points="271.208,69.744 267.305,76.504 259.498,76.504 255.595,69.744 "
   id="polygon301"
   style="opacity:0.50000000000000000;fill:#272525" />
		<polygon
   points="270.388,69.659 266.895,75.709 259.907,75.709 256.414,69.659 "
   id="polygon303"
   style="fill:#f3de77" />
		<path
   d="m 263.402,79.882 c 5.434,0 9.841,-4.407 9.841,-9.842 H 253.56 c 0,5.435 4.404,9.842 9.842,9.842 z"
   id="path305"
   inkscape:connector-curvature="0"
   style="opacity:0.10000000000000001;fill:#272525" />
	</g>
	<polygon
   points="211.094,303.29 210.721,321.363 289.855,321.363 289.417,303.29 "
   id="polygon307"
   style="fill:#a78a29" />
	<polygon
   points="211.141,301.035 210.768,319.108 289.801,319.108 289.362,301.035 "
   id="polygon309"
   style="fill:#d0be5e" />
	<g
   id="g311">
		<circle
   cx="290.53601"
   cy="211.33"
   r="4.5419998"
   id="circle313"
   sodipodi:cx="290.53601"
   sodipodi:cy="211.33"
   sodipodi:rx="4.5419998"
   sodipodi:ry="4.5419998"
   style="fill:#e8dc79"
   d="m 295.07801,211.33 c 0,2.50848 -2.03352,4.542 -4.542,4.542 -2.50848,0 -4.542,-2.03352 -4.542,-4.542 0,-2.50848 2.03352,-4.542 4.542,-4.542 2.50848,0 4.542,2.03352 4.542,4.542 z" />
		<path
   d="m 290.536,215.874 c 2.508,0 4.542,-2.034 4.542,-4.543 h -9.085 c 0,2.509 2.033,4.543 4.543,4.543 z"
   id="path315"
   inkscape:connector-curvature="0"
   style="opacity:0.10000000000000001;fill:#272525" />
	</g>
	<g
   id="g317">
		<circle
   cx="209.314"
   cy="241.069"
   r="4.5419998"
   id="circle319"
   sodipodi:cx="209.314"
   sodipodi:cy="241.069"
   sodipodi:rx="4.5419998"
   sodipodi:ry="4.5419998"
   style="fill:#e8dc79"
   d="m 213.856,241.069 c 0,2.50848 -2.03353,4.542 -4.542,4.542 -2.50848,0 -4.542,-2.03352 -4.542,-4.542 0,-2.50848 2.03352,-4.542 4.542,-4.542 2.50847,0 4.542,2.03352 4.542,4.542 z" />
		<path
   d="m 209.314,245.612 c 2.508,0 4.542,-2.034 4.542,-4.543 h -9.085 c 0,2.51 2.034,4.543 4.543,4.543 z"
   id="path321"
   inkscape:connector-curvature="0"
   style="opacity:0.10000000000000001;fill:#272525" />
	</g>
	<g
   id="g323">
		<circle
   cx="218.2"
   cy="192.319"
   r="4.5419998"
   id="circle325"
   sodipodi:cx="218.2"
   sodipodi:cy="192.319"
   sodipodi:rx="4.5419998"
   sodipodi:ry="4.5419998"
   style="fill:#e8dc79"
   d="m 222.742,192.319 c 0,2.50848 -2.03353,4.542 -4.542,4.542 -2.50848,0 -4.542,-2.03352 -4.542,-4.542 0,-2.50848 2.03352,-4.542 4.542,-4.542 2.50847,0 4.542,2.03352 4.542,4.542 z" />
		<path
   d="m 218.2,196.863 c 2.508,0 4.542,-2.034 4.542,-4.543 h -9.085 c 0,2.509 2.033,4.543 4.543,4.543 z"
   id="path327"
   inkscape:connector-curvature="0"
   style="opacity:0.10000000000000001;fill:#272525" />
	</g>
	<g
   id="g329">
		<circle
   cx="226.006"
   cy="143.267"
   r="4.5419998"
   id="circle331"
   sodipodi:cx="226.006"
   sodipodi:cy="143.267"
   sodipodi:rx="4.5419998"
   sodipodi:ry="4.5419998"
   style="fill:#e8dc79"
   d="m 230.548,143.267 c 0,2.50848 -2.03353,4.542 -4.542,4.542 -2.50848,0 -4.542,-2.03352 -4.542,-4.542 0,-2.50848 2.03352,-4.542 4.542,-4.542 2.50847,0 4.542,2.03352 4.542,4.542 z" />
		<path
   d="m 226.008,147.81 c 2.507,0 4.541,-2.034 4.541,-4.543 h -9.085 c 0,2.509 2.033,4.543 4.544,4.543 z"
   id="path333"
   inkscape:connector-curvature="0"
   style="opacity:0.10000000000000001;fill:#272525" />
	</g>
	<g
   id="g335">
		<circle
   cx="234.39999"
   cy="95.666"
   r="4.5419998"
   id="circle337"
   sodipodi:cx="234.39999"
   sodipodi:cy="95.666"
   sodipodi:rx="4.5419998"
   sodipodi:ry="4.5419998"
   style="fill:#e8dc79"
   d="m 238.94199,95.666 c 0,2.508478 -2.03352,4.542 -4.542,4.542 -2.50847,0 -4.542,-2.033522 -4.542,-4.542 0,-2.508477 2.03353,-4.541999 4.542,-4.541999 2.50848,0 4.542,2.033522 4.542,4.541999 z" />
		<path
   d="m 234.401,100.209 c 2.507,0 4.541,-2.034 4.541,-4.543 h -9.085 c 0,2.509 2.034,4.543 4.544,4.543 z"
   id="path339"
   inkscape:connector-curvature="0"
   style="opacity:0.10000000000000001;fill:#272525" />
	</g>
	<g
   id="g341">
		<circle
   cx="279.03"
   cy="163.86301"
   r="4.5419998"
   id="circle343"
   sodipodi:cx="279.03"
   sodipodi:cy="163.86301"
   sodipodi:rx="4.5419998"
   sodipodi:ry="4.5419998"
   style="fill:#e8dc79"
   d="m 283.572,163.86301 c 0,2.50847 -2.03352,4.542 -4.542,4.542 -2.50848,0 -4.542,-2.03353 -4.542,-4.542 0,-2.50848 2.03352,-4.542 4.542,-4.542 2.50848,0 4.542,2.03352 4.542,4.542 z" />
		<path
   d="m 279.031,168.407 c 2.507,0 4.541,-2.034 4.541,-4.543 h -9.084 c 0,2.509 2.033,4.543 4.543,4.543 z"
   id="path345"
   inkscape:connector-curvature="0"
   style="opacity:0.10000000000000001;fill:#272525" />
	</g>
	<g
   id="g347">
		<circle
   cx="269.10699"
   cy="115.672"
   r="4.5419998"
   id="circle349"
   sodipodi:cx="269.10699"
   sodipodi:cy="115.672"
   sodipodi:rx="4.5419998"
   sodipodi:ry="4.5419998"
   style="fill:#e8dc79"
   d="m 273.64899,115.672 c 0,2.50847 -2.03352,4.542 -4.542,4.542 -2.50847,0 -4.542,-2.03353 -4.542,-4.542 0,-2.50848 2.03353,-4.542 4.542,-4.542 2.50848,0 4.542,2.03352 4.542,4.542 z" />
		<path
   d="m 269.108,120.216 c 2.507,0 4.541,-2.034 4.541,-4.543 h -9.085 c 0,2.509 2.035,4.543 4.544,4.543 z"
   id="path351"
   inkscape:connector-curvature="0"
   style="opacity:0.10000000000000001;fill:#272525" />
	</g>
	<g
   id="g353">
		<circle
   cx="263.401"
   cy="66.470001"
   r="4.5419998"
   id="circle355"
   sodipodi:cx="263.401"
   sodipodi:cy="66.470001"
   sodipodi:rx="4.5419998"
   sodipodi:ry="4.5419998"
   style="fill:#e8dc79"
   d="m 267.943,66.470001 c 0,2.508477 -2.03352,4.542 -4.542,4.542 -2.50848,0 -4.542,-2.033523 -4.542,-4.542 0,-2.508477 2.03352,-4.542 4.542,-4.542 2.50848,0 4.542,2.033523 4.542,4.542 z" />
		<path
   d="m 263.402,71.014 c 2.507,0 4.541,-2.034 4.541,-4.544 h -9.085 c 0,2.51 2.035,4.544 4.544,4.544 z"
   id="path357"
   inkscape:connector-curvature="0"
   style="opacity:0.10000000000000001;fill:#272525" />
	</g>
	<g
   id="g359">
		<g
   id="g361">
			<path
   d="m 305.01,1087.651 c 7.44,0 13.527,5.677 13.527,12.616 0,6.938 -6.087,12.615 -13.527,12.615 H 203.1 c -7.44,0 -13.527,-5.677 -13.527,-12.615 0,-6.939 6.087,-12.616 13.527,-12.616 h 101.91 z"
   id="path363"
   inkscape:connector-curvature="0"
   style="fill:#b2c3bf" />
		</g>
		<g
   id="g365">
			<path
   d="m 304.768,1112.886 c 7.44,0 13.527,5.677 13.527,12.615 0,6.938 -6.087,12.615 -13.527,12.615 h -101.91 c -7.44,0 -13.527,-5.677 -13.527,-12.615 0,-6.938 6.087,-12.615 13.527,-12.615 h 101.91 z"
   id="path367"
   inkscape:connector-curvature="0"
   style="fill:#b2c3bf" />
		</g>
		<g
   id="g369">
			<path
   d="m 305.01,1227.431 c 7.44,0 13.527,5.677 13.527,12.616 0,6.938 -6.087,12.615 -13.527,12.615 H 203.1 c -7.44,0 -13.527,-5.677 -13.527,-12.615 0,-6.939 6.087,-12.616 13.527,-12.616 h 101.91 z"
   id="path371"
   inkscape:connector-curvature="0"
   style="fill:#b2c3bf" />
		</g>
		<g
   id="g373">
			<path
   d="m 304.768,1252.665 c 7.44,0 13.527,5.677 13.527,12.616 0,6.938 -6.087,12.615 -13.527,12.615 h -101.91 c -7.44,0 -13.527,-5.677 -13.527,-12.615 0,-6.939 6.087,-12.616 13.527,-12.616 h 101.91 z"
   id="path375"
   inkscape:connector-curvature="0"
   style="fill:#b2c3bf" />
		</g>
		<g
   id="g377">
			<path
   d="m 304.889,1166.56 c 7.44,0 13.527,5.677 13.527,12.615 0,6.938 -6.087,12.615 -13.527,12.615 h -101.91 c -7.44,0 -13.527,-5.677 -13.527,-12.615 0,-6.938 6.087,-12.615 13.527,-12.615 h 101.91 z"
   id="path379"
   inkscape:connector-curvature="0"
   style="fill:#b2c3bf" />
		</g>
	</g>
	<g
   id="g381">
		<g
   id="g383">
			<path
   d="m 302.755,1086.148 c 7.44,0 13.527,5.677 13.527,12.615 0,6.939 -6.087,12.616 -13.527,12.616 H 200.846 c -7.44,0 -13.527,-5.677 -13.527,-12.616 0,-6.938 6.087,-12.615 13.527,-12.615 h 101.909 z"
   id="path385"
   inkscape:connector-curvature="0"
   style="fill:#daece7" />
		</g>
		<g
   id="g387">
			<circle
   cx="200.32201"
   cy="1098.764"
   r="3.451"
   id="circle389"
   sodipodi:cx="200.32201"
   sodipodi:cy="1098.764"
   sodipodi:rx="3.451"
   sodipodi:ry="3.451"
   style="fill:#d8d8a1"
   d="m 203.77301,1098.764 c 0,1.906 -1.54507,3.451 -3.451,3.451 -1.90594,0 -3.451,-1.545 -3.451,-3.451 0,-1.9059 1.54506,-3.451 3.451,-3.451 1.90593,0 3.451,1.5451 3.451,3.451 z" />
			<circle
   cx="215.03"
   cy="1098.764"
   r="3.451"
   id="circle391"
   sodipodi:cx="215.03"
   sodipodi:cy="1098.764"
   sodipodi:rx="3.451"
   sodipodi:ry="3.451"
   style="fill:#d8d8a1"
   d="m 218.481,1098.764 c 0,1.906 -1.54507,3.451 -3.451,3.451 -1.90594,0 -3.451,-1.545 -3.451,-3.451 0,-1.9059 1.54506,-3.451 3.451,-3.451 1.90593,0 3.451,1.5451 3.451,3.451 z" />
			<circle
   cx="229.737"
   cy="1098.764"
   r="3.451"
   id="circle393"
   sodipodi:cx="229.737"
   sodipodi:cy="1098.764"
   sodipodi:rx="3.451"
   sodipodi:ry="3.451"
   style="fill:#d8d8a1"
   d="m 233.188,1098.764 c 0,1.906 -1.54507,3.451 -3.451,3.451 -1.90594,0 -3.451,-1.545 -3.451,-3.451 0,-1.9059 1.54506,-3.451 3.451,-3.451 1.90593,0 3.451,1.5451 3.451,3.451 z" />
			<circle
   cx="244.44501"
   cy="1098.764"
   r="3.451"
   id="circle395"
   sodipodi:cx="244.44501"
   sodipodi:cy="1098.764"
   sodipodi:rx="3.451"
   sodipodi:ry="3.451"
   style="fill:#d8d8a1"
   d="m 247.89601,1098.764 c 0,1.906 -1.54507,3.451 -3.451,3.451 -1.90594,0 -3.451,-1.545 -3.451,-3.451 0,-1.9059 1.54506,-3.451 3.451,-3.451 1.90593,0 3.451,1.5451 3.451,3.451 z" />
			<circle
   cx="259.15399"
   cy="1098.764"
   r="3.451"
   id="circle397"
   sodipodi:cx="259.15399"
   sodipodi:cy="1098.764"
   sodipodi:rx="3.451"
   sodipodi:ry="3.451"
   style="fill:#d8d8a1"
   d="m 262.60499,1098.764 c 0,1.906 -1.54506,3.451 -3.451,3.451 -1.90593,0 -3.451,-1.545 -3.451,-3.451 0,-1.9059 1.54507,-3.451 3.451,-3.451 1.90594,0 3.451,1.5451 3.451,3.451 z" />
			<circle
   cx="273.862"
   cy="1098.764"
   r="3.451"
   id="circle399"
   sodipodi:cx="273.862"
   sodipodi:cy="1098.764"
   sodipodi:rx="3.451"
   sodipodi:ry="3.451"
   style="fill:#d8d8a1"
   d="m 277.313,1098.764 c 0,1.906 -1.54507,3.451 -3.451,3.451 -1.90594,0 -3.451,-1.545 -3.451,-3.451 0,-1.9059 1.54506,-3.451 3.451,-3.451 1.90593,0 3.451,1.5451 3.451,3.451 z" />
			<circle
   cx="288.57001"
   cy="1098.764"
   r="3.451"
   id="circle401"
   sodipodi:cx="288.57001"
   sodipodi:cy="1098.764"
   sodipodi:rx="3.451"
   sodipodi:ry="3.451"
   style="fill:#d8d8a1"
   d="m 292.02101,1098.764 c 0,1.906 -1.54507,3.451 -3.451,3.451 -1.90594,0 -3.451,-1.545 -3.451,-3.451 0,-1.9059 1.54506,-3.451 3.451,-3.451 1.90593,0 3.451,1.5451 3.451,3.451 z" />
			<circle
   cx="303.27802"
   cy="1098.764"
   r="3.451"
   id="circle403"
   sodipodi:cx="303.27802"
   sodipodi:cy="1098.764"
   sodipodi:rx="3.451"
   sodipodi:ry="3.451"
   style="fill:#d8d8a1"
   d="m 306.72902,1098.764 c 0,1.906 -1.54507,3.451 -3.451,3.451 -1.90594,0 -3.451,-1.545 -3.451,-3.451 0,-1.9059 1.54506,-3.451 3.451,-3.451 1.90593,0 3.451,1.5451 3.451,3.451 z" />
		</g>
		<g
   id="g405">
			<path
   d="m 302.514,1111.382 c 7.44,0 13.527,5.677 13.527,12.616 0,6.938 -6.087,12.615 -13.527,12.615 h -101.91 c -7.44,0 -13.527,-5.677 -13.527,-12.615 0,-6.939 6.087,-12.616 13.527,-12.616 h 101.91 z"
   id="path407"
   inkscape:connector-curvature="0"
   style="fill:#daece7" />
		</g>
		<g
   id="g409">
			<circle
   cx="200.08"
   cy="1123.998"
   r="3.451"
   id="circle411"
   sodipodi:cx="200.08"
   sodipodi:cy="1123.998"
   sodipodi:rx="3.451"
   sodipodi:ry="3.451"
   style="fill:#d8d8a1"
   d="m 203.531,1123.998 c 0,1.906 -1.54506,3.451 -3.451,3.451 -1.90593,0 -3.451,-1.545 -3.451,-3.451 0,-1.9059 1.54507,-3.451 3.451,-3.451 1.90594,0 3.451,1.5451 3.451,3.451 z" />
			<circle
   cx="214.78799"
   cy="1123.998"
   r="3.451"
   id="circle413"
   sodipodi:cx="214.78799"
   sodipodi:cy="1123.998"
   sodipodi:rx="3.451"
   sodipodi:ry="3.451"
   style="fill:#d8d8a1"
   d="m 218.23899,1123.998 c 0,1.906 -1.54506,3.451 -3.451,3.451 -1.90593,0 -3.451,-1.545 -3.451,-3.451 0,-1.9059 1.54507,-3.451 3.451,-3.451 1.90594,0 3.451,1.5451 3.451,3.451 z" />
			<circle
   cx="229.496"
   cy="1123.998"
   r="3.451"
   id="circle415"
   sodipodi:cx="229.496"
   sodipodi:cy="1123.998"
   sodipodi:rx="3.451"
   sodipodi:ry="3.451"
   style="fill:#d8d8a1"
   d="m 232.947,1123.998 c 0,1.906 -1.54506,3.451 -3.451,3.451 -1.90593,0 -3.451,-1.545 -3.451,-3.451 0,-1.9059 1.54507,-3.451 3.451,-3.451 1.90594,0 3.451,1.5451 3.451,3.451 z" />
			<circle
   cx="244.20399"
   cy="1123.998"
   r="3.451"
   id="circle417"
   sodipodi:cx="244.20399"
   sodipodi:cy="1123.998"
   sodipodi:rx="3.451"
   sodipodi:ry="3.451"
   style="fill:#d8d8a1"
   d="m 247.65499,1123.998 c 0,1.906 -1.54506,3.451 -3.451,3.451 -1.90593,0 -3.451,-1.545 -3.451,-3.451 0,-1.9059 1.54507,-3.451 3.451,-3.451 1.90594,0 3.451,1.5451 3.451,3.451 z" />
			<circle
   cx="258.91299"
   cy="1123.998"
   r="3.451"
   id="circle419"
   sodipodi:cx="258.91299"
   sodipodi:cy="1123.998"
   sodipodi:rx="3.451"
   sodipodi:ry="3.451"
   style="fill:#d8d8a1"
   d="m 262.36399,1123.998 c 0,1.906 -1.54506,3.451 -3.451,3.451 -1.90593,0 -3.451,-1.545 -3.451,-3.451 0,-1.9059 1.54507,-3.451 3.451,-3.451 1.90594,0 3.451,1.5451 3.451,3.451 z" />
			<circle
   cx="273.62"
   cy="1123.998"
   r="3.451"
   id="circle421"
   sodipodi:cx="273.62"
   sodipodi:cy="1123.998"
   sodipodi:rx="3.451"
   sodipodi:ry="3.451"
   style="fill:#d8d8a1"
   d="m 277.071,1123.998 c 0,1.906 -1.54507,3.451 -3.451,3.451 -1.90594,0 -3.451,-1.545 -3.451,-3.451 0,-1.9059 1.54506,-3.451 3.451,-3.451 1.90593,0 3.451,1.5451 3.451,3.451 z" />
			<circle
   cx="288.32901"
   cy="1123.998"
   r="3.451"
   id="circle423"
   sodipodi:cx="288.32901"
   sodipodi:cy="1123.998"
   sodipodi:rx="3.451"
   sodipodi:ry="3.451"
   style="fill:#d8d8a1"
   d="m 291.78001,1123.998 c 0,1.906 -1.54507,3.451 -3.451,3.451 -1.90593,0 -3.451,-1.545 -3.451,-3.451 0,-1.9059 1.54507,-3.451 3.451,-3.451 1.90593,0 3.451,1.5451 3.451,3.451 z" />
			<circle
   cx="303.03601"
   cy="1123.998"
   r="3.451"
   id="circle425"
   sodipodi:cx="303.03601"
   sodipodi:cy="1123.998"
   sodipodi:rx="3.451"
   sodipodi:ry="3.451"
   style="fill:#d8d8a1"
   d="m 306.48701,1123.998 c 0,1.906 -1.54506,3.451 -3.451,3.451 -1.90593,0 -3.451,-1.545 -3.451,-3.451 0,-1.9059 1.54507,-3.451 3.451,-3.451 1.90594,0 3.451,1.5451 3.451,3.451 z" />
		</g>
	</g>
	<g
   id="g427">
		<g
   id="g429">
			<path
   d="m 302.755,1225.929 c 7.44,0 13.527,5.677 13.527,12.615 0,6.938 -6.087,12.615 -13.527,12.615 H 200.846 c -7.44,0 -13.527,-5.677 -13.527,-12.615 0,-6.938 6.087,-12.615 13.527,-12.615 h 101.909 z"
   id="path431"
   inkscape:connector-curvature="0"
   style="fill:#daece7" />
		</g>
		<g
   id="g433">
			<circle
   cx="200.32201"
   cy="1238.5439"
   r="3.451"
   id="circle435"
   sodipodi:cx="200.32201"
   sodipodi:cy="1238.5439"
   sodipodi:rx="3.451"
   sodipodi:ry="3.451"
   style="fill:#d8d8a1"
   d="m 203.77301,1238.5439 c 0,1.906 -1.54507,3.451 -3.451,3.451 -1.90594,0 -3.451,-1.545 -3.451,-3.451 0,-1.9059 1.54506,-3.451 3.451,-3.451 1.90593,0 3.451,1.5451 3.451,3.451 z" />
			<circle
   cx="215.03"
   cy="1238.5439"
   r="3.451"
   id="circle437"
   sodipodi:cx="215.03"
   sodipodi:cy="1238.5439"
   sodipodi:rx="3.451"
   sodipodi:ry="3.451"
   style="fill:#d8d8a1"
   d="m 218.481,1238.5439 c 0,1.906 -1.54507,3.451 -3.451,3.451 -1.90594,0 -3.451,-1.545 -3.451,-3.451 0,-1.9059 1.54506,-3.451 3.451,-3.451 1.90593,0 3.451,1.5451 3.451,3.451 z" />
			<circle
   cx="229.737"
   cy="1238.5439"
   r="3.451"
   id="circle439"
   sodipodi:cx="229.737"
   sodipodi:cy="1238.5439"
   sodipodi:rx="3.451"
   sodipodi:ry="3.451"
   style="fill:#d8d8a1"
   d="m 233.188,1238.5439 c 0,1.906 -1.54507,3.451 -3.451,3.451 -1.90594,0 -3.451,-1.545 -3.451,-3.451 0,-1.9059 1.54506,-3.451 3.451,-3.451 1.90593,0 3.451,1.5451 3.451,3.451 z" />
			<circle
   cx="244.44501"
   cy="1238.5439"
   r="3.451"
   id="circle441"
   sodipodi:cx="244.44501"
   sodipodi:cy="1238.5439"
   sodipodi:rx="3.451"
   sodipodi:ry="3.451"
   style="fill:#d8d8a1"
   d="m 247.89601,1238.5439 c 0,1.906 -1.54507,3.451 -3.451,3.451 -1.90594,0 -3.451,-1.545 -3.451,-3.451 0,-1.9059 1.54506,-3.451 3.451,-3.451 1.90593,0 3.451,1.5451 3.451,3.451 z" />
			<circle
   cx="259.15399"
   cy="1238.5439"
   r="3.451"
   id="circle443"
   sodipodi:cx="259.15399"
   sodipodi:cy="1238.5439"
   sodipodi:rx="3.451"
   sodipodi:ry="3.451"
   style="fill:#d8d8a1"
   d="m 262.60499,1238.5439 c 0,1.906 -1.54506,3.451 -3.451,3.451 -1.90593,0 -3.451,-1.545 -3.451,-3.451 0,-1.9059 1.54507,-3.451 3.451,-3.451 1.90594,0 3.451,1.5451 3.451,3.451 z" />
			<circle
   cx="273.862"
   cy="1238.5439"
   r="3.451"
   id="circle445"
   sodipodi:cx="273.862"
   sodipodi:cy="1238.5439"
   sodipodi:rx="3.451"
   sodipodi:ry="3.451"
   style="fill:#d8d8a1"
   d="m 277.313,1238.5439 c 0,1.906 -1.54507,3.451 -3.451,3.451 -1.90594,0 -3.451,-1.545 -3.451,-3.451 0,-1.9059 1.54506,-3.451 3.451,-3.451 1.90593,0 3.451,1.5451 3.451,3.451 z" />
			<circle
   cx="288.57001"
   cy="1238.5439"
   r="3.451"
   id="circle447"
   sodipodi:cx="288.57001"
   sodipodi:cy="1238.5439"
   sodipodi:rx="3.451"
   sodipodi:ry="3.451"
   style="fill:#d8d8a1"
   d="m 292.02101,1238.5439 c 0,1.906 -1.54507,3.451 -3.451,3.451 -1.90594,0 -3.451,-1.545 -3.451,-3.451 0,-1.9059 1.54506,-3.451 3.451,-3.451 1.90593,0 3.451,1.5451 3.451,3.451 z" />
			<circle
   cx="303.27802"
   cy="1238.5439"
   r="3.451"
   id="circle449"
   sodipodi:cx="303.27802"
   sodipodi:cy="1238.5439"
   sodipodi:rx="3.451"
   sodipodi:ry="3.451"
   style="fill:#d8d8a1"
   d="m 306.72902,1238.5439 c 0,1.906 -1.54507,3.451 -3.451,3.451 -1.90594,0 -3.451,-1.545 -3.451,-3.451 0,-1.9059 1.54506,-3.451 3.451,-3.451 1.90593,0 3.451,1.5451 3.451,3.451 z" />
		</g>
		<g
   id="g451">
			<path
   d="m 302.514,1251.162 c 7.44,0 13.527,5.677 13.527,12.615 0,6.939 -6.087,12.616 -13.527,12.616 h -101.91 c -7.44,0 -13.527,-5.677 -13.527,-12.616 0,-6.938 6.087,-12.615 13.527,-12.615 h 101.91 z"
   id="path453"
   inkscape:connector-curvature="0"
   style="fill:#daece7" />
		</g>
		<g
   id="g455">
			<circle
   cx="200.08"
   cy="1263.778"
   r="3.451"
   id="circle457"
   sodipodi:cx="200.08"
   sodipodi:cy="1263.778"
   sodipodi:rx="3.451"
   sodipodi:ry="3.451"
   style="fill:#d8d8a1"
   d="m 203.531,1263.778 c 0,1.9059 -1.54506,3.451 -3.451,3.451 -1.90593,0 -3.451,-1.5451 -3.451,-3.451 0,-1.906 1.54507,-3.451 3.451,-3.451 1.90594,0 3.451,1.545 3.451,3.451 z" />
			<circle
   cx="214.78799"
   cy="1263.778"
   r="3.451"
   id="circle459"
   sodipodi:cx="214.78799"
   sodipodi:cy="1263.778"
   sodipodi:rx="3.451"
   sodipodi:ry="3.451"
   style="fill:#d8d8a1"
   d="m 218.23899,1263.778 c 0,1.9059 -1.54506,3.451 -3.451,3.451 -1.90593,0 -3.451,-1.5451 -3.451,-3.451 0,-1.906 1.54507,-3.451 3.451,-3.451 1.90594,0 3.451,1.545 3.451,3.451 z" />
			<circle
   cx="229.496"
   cy="1263.778"
   r="3.451"
   id="circle461"
   sodipodi:cx="229.496"
   sodipodi:cy="1263.778"
   sodipodi:rx="3.451"
   sodipodi:ry="3.451"
   style="fill:#d8d8a1"
   d="m 232.947,1263.778 c 0,1.9059 -1.54506,3.451 -3.451,3.451 -1.90593,0 -3.451,-1.5451 -3.451,-3.451 0,-1.906 1.54507,-3.451 3.451,-3.451 1.90594,0 3.451,1.545 3.451,3.451 z" />
			<circle
   cx="244.20399"
   cy="1263.778"
   r="3.451"
   id="circle463"
   sodipodi:cx="244.20399"
   sodipodi:cy="1263.778"
   sodipodi:rx="3.451"
   sodipodi:ry="3.451"
   style="fill:#d8d8a1"
   d="m 247.65499,1263.778 c 0,1.9059 -1.54506,3.451 -3.451,3.451 -1.90593,0 -3.451,-1.5451 -3.451,-3.451 0,-1.906 1.54507,-3.451 3.451,-3.451 1.90594,0 3.451,1.545 3.451,3.451 z" />
			<circle
   cx="258.91299"
   cy="1263.778"
   r="3.451"
   id="circle465"
   sodipodi:cx="258.91299"
   sodipodi:cy="1263.778"
   sodipodi:rx="3.451"
   sodipodi:ry="3.451"
   style="fill:#d8d8a1"
   d="m 262.36399,1263.778 c 0,1.9059 -1.54506,3.451 -3.451,3.451 -1.90593,0 -3.451,-1.5451 -3.451,-3.451 0,-1.906 1.54507,-3.451 3.451,-3.451 1.90594,0 3.451,1.545 3.451,3.451 z" />
			<circle
   cx="273.62"
   cy="1263.778"
   r="3.451"
   id="circle467"
   sodipodi:cx="273.62"
   sodipodi:cy="1263.778"
   sodipodi:rx="3.451"
   sodipodi:ry="3.451"
   style="fill:#d8d8a1"
   d="m 277.071,1263.778 c 0,1.9059 -1.54507,3.451 -3.451,3.451 -1.90594,0 -3.451,-1.5451 -3.451,-3.451 0,-1.906 1.54506,-3.451 3.451,-3.451 1.90593,0 3.451,1.545 3.451,3.451 z" />
			<circle
   cx="288.32901"
   cy="1263.778"
   r="3.451"
   id="circle469"
   sodipodi:cx="288.32901"
   sodipodi:cy="1263.778"
   sodipodi:rx="3.451"
   sodipodi:ry="3.451"
   style="fill:#d8d8a1"
   d="m 291.78001,1263.778 c 0,1.9059 -1.54507,3.451 -3.451,3.451 -1.90593,0 -3.451,-1.5451 -3.451,-3.451 0,-1.906 1.54507,-3.451 3.451,-3.451 1.90593,0 3.451,1.545 3.451,3.451 z" />
			<circle
   cx="303.03601"
   cy="1263.778"
   r="3.451"
   id="circle471"
   sodipodi:cx="303.03601"
   sodipodi:cy="1263.778"
   sodipodi:rx="3.451"
   sodipodi:ry="3.451"
   style="fill:#d8d8a1"
   d="m 306.48701,1263.778 c 0,1.9059 -1.54506,3.451 -3.451,3.451 -1.90593,0 -3.451,-1.5451 -3.451,-3.451 0,-1.906 1.54507,-3.451 3.451,-3.451 1.90594,0 3.451,1.545 3.451,3.451 z" />
		</g>
	</g>
	<g
   id="g473">
		<path
   d="m 302.634,1165.057 c 7.44,0 13.527,5.677 13.527,12.615 0,6.938 -6.087,12.615 -13.527,12.615 H 200.725 c -7.44,0 -13.527,-5.677 -13.527,-12.615 0,-6.938 6.087,-12.615 13.527,-12.615 h 101.909 z"
   id="path475"
   inkscape:connector-curvature="0"
   style="fill:#daece7" />
	</g>
	<g
   id="g477">
		<circle
   cx="200.439"
   cy="1177.672"
   r="3.451"
   id="circle479"
   sodipodi:cx="200.439"
   sodipodi:cy="1177.672"
   sodipodi:rx="3.451"
   sodipodi:ry="3.451"
   style="fill:#d8d8a1"
   d="m 203.89,1177.672 c 0,1.9059 -1.54507,3.451 -3.451,3.451 -1.90594,0 -3.451,-1.5451 -3.451,-3.451 0,-1.9059 1.54506,-3.451 3.451,-3.451 1.90593,0 3.451,1.5451 3.451,3.451 z" />
		<circle
   cx="215.147"
   cy="1177.672"
   r="3.451"
   id="circle481"
   sodipodi:cx="215.147"
   sodipodi:cy="1177.672"
   sodipodi:rx="3.451"
   sodipodi:ry="3.451"
   style="fill:#d8d8a1"
   d="m 218.598,1177.672 c 0,1.9059 -1.54506,3.451 -3.451,3.451 -1.90593,0 -3.451,-1.5451 -3.451,-3.451 0,-1.9059 1.54507,-3.451 3.451,-3.451 1.90594,0 3.451,1.5451 3.451,3.451 z" />
		<circle
   cx="229.855"
   cy="1177.672"
   r="3.451"
   id="circle483"
   sodipodi:cx="229.855"
   sodipodi:cy="1177.672"
   sodipodi:rx="3.451"
   sodipodi:ry="3.451"
   style="fill:#d8d8a1"
   d="m 233.306,1177.672 c 0,1.9059 -1.54507,3.451 -3.451,3.451 -1.90594,0 -3.451,-1.5451 -3.451,-3.451 0,-1.9059 1.54506,-3.451 3.451,-3.451 1.90593,0 3.451,1.5451 3.451,3.451 z" />
		<circle
   cx="244.563"
   cy="1177.672"
   r="3.451"
   id="circle485"
   sodipodi:cx="244.563"
   sodipodi:cy="1177.672"
   sodipodi:rx="3.451"
   sodipodi:ry="3.451"
   style="fill:#d8d8a1"
   d="m 248.014,1177.672 c 0,1.9059 -1.54506,3.451 -3.451,3.451 -1.90593,0 -3.451,-1.5451 -3.451,-3.451 0,-1.9059 1.54507,-3.451 3.451,-3.451 1.90594,0 3.451,1.5451 3.451,3.451 z" />
		<circle
   cx="259.272"
   cy="1177.672"
   r="3.451"
   id="circle487"
   sodipodi:cx="259.272"
   sodipodi:cy="1177.672"
   sodipodi:rx="3.451"
   sodipodi:ry="3.451"
   style="fill:#d8d8a1"
   d="m 262.723,1177.672 c 0,1.9059 -1.54506,3.451 -3.451,3.451 -1.90593,0 -3.451,-1.5451 -3.451,-3.451 0,-1.9059 1.54507,-3.451 3.451,-3.451 1.90594,0 3.451,1.5451 3.451,3.451 z" />
		<circle
   cx="273.979"
   cy="1177.672"
   r="3.451"
   id="circle489"
   sodipodi:cx="273.979"
   sodipodi:cy="1177.672"
   sodipodi:rx="3.451"
   sodipodi:ry="3.451"
   style="fill:#d8d8a1"
   d="m 277.43,1177.672 c 0,1.9059 -1.54506,3.451 -3.451,3.451 -1.90593,0 -3.451,-1.5451 -3.451,-3.451 0,-1.9059 1.54507,-3.451 3.451,-3.451 1.90594,0 3.451,1.5451 3.451,3.451 z" />
		<circle
   cx="288.68799"
   cy="1177.672"
   r="3.451"
   id="circle491"
   sodipodi:cx="288.68799"
   sodipodi:cy="1177.672"
   sodipodi:rx="3.451"
   sodipodi:ry="3.451"
   style="fill:#d8d8a1"
   d="m 292.13899,1177.672 c 0,1.9059 -1.54507,3.451 -3.451,3.451 -1.90594,0 -3.451,-1.5451 -3.451,-3.451 0,-1.9059 1.54506,-3.451 3.451,-3.451 1.90593,0 3.451,1.5451 3.451,3.451 z" />
		<circle
   cx="303.396"
   cy="1177.672"
   r="3.451"
   id="circle493"
   sodipodi:cx="303.396"
   sodipodi:cy="1177.672"
   sodipodi:rx="3.451"
   sodipodi:ry="3.451"
   style="fill:#d8d8a1"
   d="m 306.847,1177.672 c 0,1.9059 -1.54507,3.451 -3.451,3.451 -1.90594,0 -3.451,-1.5451 -3.451,-3.451 0,-1.9059 1.54506,-3.451 3.451,-3.451 1.90593,0 3.451,1.5451 3.451,3.451 z" />
	</g>
	<path
   d="m 184.259,1291.739 c 0,5.336 0.866,9.513 -3.833,9.513 -9.938,0 -12.492,0.878 -12.492,7.239 0,6.361 0,15.522 0,24.094 0,8.57 6.752,8.623 11.645,8.623 3.697,0 3.916,14.213 3.916,38.612 0,4.918 0.319,9.438 7.716,9.438 5.996,0 114.768,0 120.939,0 7.396,0 7.715,-4.521 7.715,-9.438 0,-24.399 0.218,-38.612 3.917,-38.612 4.892,0 11.644,-0.053 11.644,-8.623 0,-8.571 0,-17.732 0,-24.094 0,-6.362 -2.554,-7.239 -12.491,-7.239 -4.7,0 -3.834,-4.177 -3.834,-9.513 0,-5.336 -2.099,-6.201 -9.806,-6.201 -6.393,0 -109.034,0 -115.229,0 -7.708,0 -9.807,0.865 -9.807,6.201 z"
   id="path495"
   inkscape:connector-curvature="0"
   style="fill:#363112" />
	<path
   d="m 185.729,1294.686 c 0,4.999 0.848,8.913 -3.749,8.913 -9.722,0 -12.22,0.823 -12.22,6.782 0,5.959 0,14.542 0,22.572 0,8.03 6.604,8.079 11.391,8.079 3.617,0 3.83,13.315 3.83,36.175 0,4.607 0.313,8.843 7.548,8.843 5.865,0 112.264,0 118.3,0 7.235,0 7.548,-4.235 7.548,-8.843 0,-22.859 0.213,-36.175 3.831,-36.175 4.785,0 11.39,-0.049 11.39,-8.079 0,-8.03 0,-16.613 0,-22.572 0,-5.959 -2.498,-6.782 -12.22,-6.782 -4.597,0 -3.75,-3.914 -3.75,-8.913 0,-4.998 -2.053,-5.809 -9.591,-5.809 -6.254,0 -106.655,0 -112.715,0 -7.539,0 -9.593,0.811 -9.593,5.809 z"
   id="path497"
   inkscape:connector-curvature="0"
   style="fill:#d6c15d" />
	<path
   d="m 318.372,1377.87 c 0.003,-0.22 0.005,-0.44 0.005,-0.663 0,-1.474 10e-4,-2.905 0.004,-4.298 H 184.978 c 0.003,1.393 0.004,2.824 0.004,4.298 0,0.223 0.002,0.443 0.004,0.663 h 133.386 z"
   id="path499"
   inkscape:connector-curvature="0"
   style="fill:#f7e896" />
	<path
   d="m 318.472,1361.635 c 0.055,-3.079 0.142,-5.839 0.275,-8.265 H 184.611 c 0.134,2.426 0.22,5.186 0.275,8.265 h 133.586 z"
   id="path501"
   inkscape:connector-curvature="0"
   style="fill:#391e00" />
	<g
   id="g503">
		<rect
   x="192.145"
   y="1298.443"
   width="11.604"
   height="25.377001"
   id="rect505"
   style="fill:#cca636" />
		<rect
   x="192.145"
   y="1324.123"
   width="11.604"
   height="22.493999"
   id="rect507"
   style="fill:#ffec81" />
		<rect
   x="193.722"
   y="1324.123"
   width="8.4490004"
   height="22.169001"
   id="rect509"
   style="fill:#cca636" />
		<rect
   x="194.903"
   y="1353.486"
   width="6.0869999"
   height="12.657"
   id="rect511"
   style="fill:#fbc44f" />
		<rect
   x="194.903"
   y="1346.6169"
   width="6.0869999"
   height="6.869"
   id="rect513"
   style="fill:#272525" />
		<rect
   x="193.722"
   y="1341.494"
   width="8.4490004"
   height="5.1230001"
   id="rect515"
   style="fill:#9b8528" />
		<rect
   x="195.69299"
   y="1325.599"
   width="4.507"
   height="5.6589999"
   id="rect517"
   style="fill:#0a0c04" />
		<circle
   cx="197.94701"
   cy="1386.771"
   r="5.2719998"
   id="circle519"
   sodipodi:cx="197.94701"
   sodipodi:cy="1386.771"
   sodipodi:rx="5.2719998"
   sodipodi:ry="5.2719998"
   style="fill:#393838"
   d="m 203.21901,1386.771 c 0,2.9116 -2.36036,5.272 -5.272,5.272 -2.91165,0 -5.272,-2.3604 -5.272,-5.272 0,-2.9116 2.36035,-5.272 5.272,-5.272 2.91164,0 5.272,2.3604 5.272,5.272 z" />
	</g>
	<g
   id="g521">
		<rect
   x="207.496"
   y="1297.692"
   width="11.605"
   height="25.377001"
   id="rect523"
   style="fill:#cca636" />
		<rect
   x="207.496"
   y="1323.3719"
   width="11.605"
   height="22.493999"
   id="rect525"
   style="fill:#ffec81" />
		<rect
   x="209.073"
   y="1323.3719"
   width="8.4499998"
   height="22.169001"
   id="rect527"
   style="fill:#cca636" />
		<rect
   x="210.255"
   y="1352.734"
   width="6.0869999"
   height="13.409"
   id="rect529"
   style="fill:#fbc44f" />
		<rect
   x="210.255"
   y="1345.866"
   width="6.0869999"
   height="6.868"
   id="rect531"
   style="fill:#272525" />
		<rect
   x="209.073"
   y="1340.743"
   width="8.4499998"
   height="5.1230001"
   id="rect533"
   style="fill:#9b8528" />
		<rect
   x="211.04601"
   y="1324.847"
   width="4.507"
   height="5.6599998"
   id="rect535"
   style="fill:#0a0c04" />
		<circle
   cx="213.3"
   cy="1386.771"
   r="5.2719998"
   id="circle537"
   sodipodi:cx="213.3"
   sodipodi:cy="1386.771"
   sodipodi:rx="5.2719998"
   sodipodi:ry="5.2719998"
   style="fill:#393838"
   d="m 218.572,1386.771 c 0,2.9116 -2.36035,5.272 -5.272,5.272 -2.91164,0 -5.272,-2.3604 -5.272,-5.272 0,-2.9116 2.36036,-5.272 5.272,-5.272 2.91165,0 5.272,2.3604 5.272,5.272 z" />
	</g>
	<g
   id="g539">
		<rect
   x="222.84801"
   y="1294.686"
   width="11.606"
   height="25.378"
   id="rect541"
   style="fill:#cca636" />
		<rect
   x="222.84801"
   y="1320.365"
   width="11.606"
   height="22.495001"
   id="rect543"
   style="fill:#ffec81" />
		<rect
   x="224.42599"
   y="1320.365"
   width="8.4490004"
   height="22.17"
   id="rect545"
   style="fill:#cca636" />
		<rect
   x="225.60699"
   y="1349.729"
   width="6.086"
   height="16.415001"
   id="rect547"
   style="fill:#fbc44f" />
		<rect
   x="225.60699"
   y="1342.86"
   width="6.086"
   height="6.868"
   id="rect549"
   style="fill:#272525" />
		<rect
   x="224.42599"
   y="1337.736"
   width="8.4490004"
   height="5.1240001"
   id="rect551"
   style="fill:#9b8528" />
		<rect
   x="226.397"
   y="1321.8409"
   width="4.507"
   height="5.6589999"
   id="rect553"
   style="fill:#0a0c04" />
		<circle
   cx="228.651"
   cy="1386.771"
   r="5.2719998"
   id="circle555"
   sodipodi:cx="228.651"
   sodipodi:cy="1386.771"
   sodipodi:rx="5.2719998"
   sodipodi:ry="5.2719998"
   style="fill:#393838"
   d="m 233.923,1386.771 c 0,2.9116 -2.36035,5.272 -5.272,5.272 -2.91164,0 -5.272,-2.3604 -5.272,-5.272 0,-2.9116 2.36036,-5.272 5.272,-5.272 2.91165,0 5.272,2.3604 5.272,5.272 z" />
	</g>
	<g
   id="g557">
		<rect
   x="238.2"
   y="1295.438"
   width="11.605"
   height="25.377001"
   id="rect559"
   style="fill:#cca636" />
		<rect
   x="238.2"
   y="1321.1169"
   width="11.605"
   height="22.493999"
   id="rect561"
   style="fill:#ffec81" />
		<rect
   x="239.778"
   y="1321.1169"
   width="8.4490004"
   height="22.169001"
   id="rect563"
   style="fill:#cca636" />
		<rect
   x="240.96001"
   y="1350.479"
   width="6.086"
   height="15.664"
   id="rect565"
   style="fill:#fbc44f" />
		<rect
   x="240.96001"
   y="1343.611"
   width="6.086"
   height="6.868"
   id="rect567"
   style="fill:#272525" />
		<rect
   x="239.778"
   y="1338.488"
   width="8.4490004"
   height="5.1230001"
   id="rect569"
   style="fill:#9b8528" />
		<rect
   x="241.74899"
   y="1322.592"
   width="4.5079999"
   height="5.6599998"
   id="rect571"
   style="fill:#0a0c04" />
		<circle
   cx="244.00301"
   cy="1386.771"
   r="5.2719998"
   id="circle573"
   sodipodi:cx="244.00301"
   sodipodi:cy="1386.771"
   sodipodi:rx="5.2719998"
   sodipodi:ry="5.2719998"
   style="fill:#393838"
   d="m 249.27501,1386.771 c 0,2.9116 -2.36036,5.272 -5.272,5.272 -2.91165,0 -5.272,-2.3604 -5.272,-5.272 0,-2.9116 2.36035,-5.272 5.272,-5.272 2.91164,0 5.272,2.3604 5.272,5.272 z" />
	</g>
	<g
   id="g575">
		<rect
   x="253.55299"
   y="1296.188"
   width="11.605"
   height="25.378"
   id="rect577"
   style="fill:#cca636" />
		<rect
   x="253.55299"
   y="1321.868"
   width="11.605"
   height="22.495001"
   id="rect579"
   style="fill:#ffec81" />
		<rect
   x="255.131"
   y="1321.868"
   width="8.4490004"
   height="22.17"
   id="rect581"
   style="fill:#cca636" />
		<rect
   x="256.31299"
   y="1351.231"
   width="6.086"
   height="14.912"
   id="rect583"
   style="fill:#fbc44f" />
		<rect
   x="256.31299"
   y="1344.363"
   width="6.086"
   height="6.868"
   id="rect585"
   style="fill:#272525" />
		<rect
   x="255.131"
   y="1339.239"
   width="8.4490004"
   height="5.1240001"
   id="rect587"
   style="fill:#9b8528" />
		<rect
   x="257.10199"
   y="1323.344"
   width="4.5079999"
   height="5.6589999"
   id="rect589"
   style="fill:#0a0c04" />
		<circle
   cx="259.35501"
   cy="1386.771"
   r="5.2719998"
   id="circle591"
   sodipodi:cx="259.35501"
   sodipodi:cy="1386.771"
   sodipodi:rx="5.2719998"
   sodipodi:ry="5.2719998"
   style="fill:#393838"
   d="m 264.62701,1386.771 c 0,2.9116 -2.36035,5.272 -5.272,5.272 -2.91164,0 -5.272,-2.3604 -5.272,-5.272 0,-2.9116 2.36036,-5.272 5.272,-5.272 2.91165,0 5.272,2.3604 5.272,5.272 z" />
	</g>
	<g
   id="g593">
		<rect
   x="268.905"
   y="1294.686"
   width="11.605"
   height="25.378"
   id="rect595"
   style="fill:#cca636" />
		<rect
   x="268.905"
   y="1320.365"
   width="11.605"
   height="22.495001"
   id="rect597"
   style="fill:#ffec81" />
		<rect
   x="270.483"
   y="1320.365"
   width="8.4490004"
   height="22.17"
   id="rect599"
   style="fill:#cca636" />
		<rect
   x="271.66501"
   y="1349.729"
   width="6.086"
   height="16.415001"
   id="rect601"
   style="fill:#fbc44f" />
		<rect
   x="271.66501"
   y="1342.86"
   width="6.086"
   height="6.868"
   id="rect603"
   style="fill:#272525" />
		<rect
   x="270.483"
   y="1337.736"
   width="8.4490004"
   height="5.1240001"
   id="rect605"
   style="fill:#9b8528" />
		<rect
   x="272.45401"
   y="1321.8409"
   width="4.5079999"
   height="5.6589999"
   id="rect607"
   style="fill:#0a0c04" />
		<circle
   cx="274.70801"
   cy="1386.771"
   r="5.2719998"
   id="circle609"
   sodipodi:cx="274.70801"
   sodipodi:cy="1386.771"
   sodipodi:rx="5.2719998"
   sodipodi:ry="5.2719998"
   style="fill:#393838"
   d="m 279.98001,1386.771 c 0,2.9116 -2.36036,5.272 -5.272,5.272 -2.91165,0 -5.272,-2.3604 -5.272,-5.272 0,-2.9116 2.36035,-5.272 5.272,-5.272 2.91164,0 5.272,2.3604 5.272,5.272 z" />
	</g>
	<g
   id="g611">
		<rect
   x="284.258"
   y="1292.432"
   width="11.605"
   height="25.377001"
   id="rect613"
   style="fill:#cca636" />
		<rect
   x="284.258"
   y="1318.11"
   width="11.605"
   height="22.495001"
   id="rect615"
   style="fill:#ffec81" />
		<rect
   x="285.83499"
   y="1318.11"
   width="8.4490004"
   height="22.17"
   id="rect617"
   style="fill:#cca636" />
		<rect
   x="287.017"
   y="1347.474"
   width="6.086"
   height="18.67"
   id="rect619"
   style="fill:#fbc44f" />
		<rect
   x="287.017"
   y="1340.605"
   width="6.086"
   height="6.868"
   id="rect621"
   style="fill:#272525" />
		<rect
   x="285.83499"
   y="1335.4821"
   width="8.4490004"
   height="5.1230001"
   id="rect623"
   style="fill:#9b8528" />
		<rect
   x="287.80701"
   y="1319.5861"
   width="4.5079999"
   height="5.6599998"
   id="rect625"
   style="fill:#0a0c04" />
		<circle
   cx="290.061"
   cy="1386.771"
   r="5.2719998"
   id="circle627"
   sodipodi:cx="290.061"
   sodipodi:cy="1386.771"
   sodipodi:rx="5.2719998"
   sodipodi:ry="5.2719998"
   style="fill:#393838"
   d="m 295.333,1386.771 c 0,2.9116 -2.36035,5.272 -5.272,5.272 -2.91164,0 -5.272,-2.3604 -5.272,-5.272 0,-2.9116 2.36036,-5.272 5.272,-5.272 2.91165,0 5.272,2.3604 5.272,5.272 z" />
	</g>
	<g
   id="g629">
		<rect
   x="299.60901"
   y="1293.183"
   width="11.606"
   height="25.377001"
   id="rect631"
   style="fill:#cca636" />
		<rect
   x="299.60901"
   y="1318.8621"
   width="11.606"
   height="22.493999"
   id="rect633"
   style="fill:#ffec81" />
		<rect
   x="301.18799"
   y="1318.8621"
   width="8.4490004"
   height="22.17"
   id="rect635"
   style="fill:#cca636" />
		<rect
   x="302.36899"
   y="1348.226"
   width="6.086"
   height="17.917999"
   id="rect637"
   style="fill:#fbc44f" />
		<rect
   x="302.36899"
   y="1341.356"
   width="6.086"
   height="6.869"
   id="rect639"
   style="fill:#272525" />
		<rect
   x="301.18799"
   y="1336.233"
   width="8.4490004"
   height="5.1230001"
   id="rect641"
   style="fill:#9b8528" />
		<rect
   x="303.159"
   y="1320.338"
   width="4.507"
   height="5.6589999"
   id="rect643"
   style="fill:#0a0c04" />
		<circle
   cx="305.41199"
   cy="1386.771"
   r="5.2719998"
   id="circle645"
   sodipodi:cx="305.41199"
   sodipodi:cy="1386.771"
   sodipodi:rx="5.2719998"
   sodipodi:ry="5.2719998"
   style="fill:#393838"
   d="m 310.68399,1386.771 c 0,2.9116 -2.36036,5.272 -5.272,5.272 -2.91165,0 -5.272,-2.3604 -5.272,-5.272 0,-2.9116 2.36035,-5.272 5.272,-5.272 2.91164,0 5.272,2.3604 5.272,5.272 z" />
	</g>
	<circle
   cx="251.679"
   cy="1375.202"
   r="5.1680002"
   id="circle647"
   sodipodi:cx="251.679"
   sodipodi:cy="1375.202"
   sodipodi:rx="5.1680002"
   sodipodi:ry="5.1680002"
   style="fill:#272525"
   d="m 256.847,1375.202 c 0,2.8542 -2.31379,5.168 -5.168,5.168 -2.85421,0 -5.168,-2.3138 -5.168,-5.168 0,-2.8542 2.31379,-5.168 5.168,-5.168 2.85421,0 5.168,2.3138 5.168,5.168 z" />
	<g
   id="g649">
		<g
   id="g651">
			<circle
   cx="178.032"
   cy="1321.666"
   r="10.335"
   id="circle653"
   sodipodi:cx="178.032"
   sodipodi:cy="1321.666"
   sodipodi:rx="10.335"
   sodipodi:ry="10.335"
   style="fill:#f1df97"
   d="m 188.367,1321.666 c 0,5.7079 -4.62714,10.335 -10.335,10.335 -5.70787,0 -10.335,-4.6271 -10.335,-10.335 0,-5.7078 4.62713,-10.335 10.335,-10.335 5.70786,0 10.335,4.6272 10.335,10.335 z" />
			<path
   d="m 178.032,1332.001 c 5.708,0 10.335,-4.629 10.335,-10.336 h -20.671 c 0,5.707 4.627,10.336 10.336,10.336 z"
   id="path655"
   inkscape:connector-curvature="0"
   style="opacity:0.20000000000000001;fill:#272525" />
		</g>
		<g
   id="g657">
			<circle
   cx="325.327"
   cy="1321.666"
   r="10.335"
   id="circle659"
   sodipodi:cx="325.327"
   sodipodi:cy="1321.666"
   sodipodi:rx="10.335"
   sodipodi:ry="10.335"
   style="fill:#f1df97"
   d="m 335.662,1321.666 c 0,5.7079 -4.62714,10.335 -10.335,10.335 -5.70787,0 -10.335,-4.6271 -10.335,-10.335 0,-5.7078 4.62713,-10.335 10.335,-10.335 5.70786,0 10.335,4.6272 10.335,10.335 z" />
			<path
   d="m 325.327,1332.001 c 5.709,0 10.335,-4.629 10.335,-10.336 h -20.671 c 0,5.707 4.628,10.336 10.336,10.336 z"
   id="path661"
   inkscape:connector-curvature="0"
   style="opacity:0.20000000000000001;fill:#272525" />
		</g>
	</g>
	<g
   id="g663">
		<rect
   x="221.804"
   y="331.60001"
   width="59.750999"
   height="28.620001"
   id="rect665"
   style="fill:#acd0cf" />
		<rect
   x="221.05099"
   y="444.233"
   width="61.257"
   height="26.611"
   id="rect667"
   style="fill:#acd0cf" />
		<rect
   x="219.04201"
   y="539.547"
   width="65.274002"
   height="26.611"
   id="rect669"
   style="fill:#acd0cf" />
		<rect
   x="217.284"
   y="625.12598"
   width="68.790001"
   height="24.101"
   id="rect671"
   style="fill:#acd0cf" />
		<rect
   x="215.52699"
   y="700.953"
   width="72.304001"
   height="22.091"
   id="rect673"
   style="fill:#acd0cf" />
		<rect
   x="214.021"
   y="800.62299"
   width="75.316002"
   height="17.07"
   id="rect675"
   style="fill:#acd0cf" />
		<rect
   x="212.51401"
   y="883.49902"
   width="78.330002"
   height="12.551"
   id="rect677"
   style="fill:#acd0cf" />
		<rect
   x="211.259"
   y="931.48297"
   width="80.839996"
   height="10.042"
   id="rect679"
   style="fill:#acd0cf" />
		<rect
   x="211.259"
   y="973.18903"
   width="80.839996"
   height="8.5349998"
   id="rect681"
   style="fill:#acd0cf" />
		<rect
   x="210.506"
   y="1011.148"
   width="82.347"
   height="7.5310001"
   id="rect683"
   style="fill:#acd0cf" />
		<rect
   x="208.748"
   y="1060.062"
   width="85.861"
   height="5.6469998"
   id="rect685"
   style="fill:#acd0cf" />
	</g>
	<polygon
   points="213.722,241.069 216.884,301.035 199.101,1329.426 196.176,1329.426 213.959,301.035 210.797,241.069 "
   id="polygon687"
   style="fill:#bbbcbf" />
	<polygon
   points="222.417,193.23 226.77,301.035 214.219,1329.865 211.83,1329.865 224.381,301.035 220.028,193.23 "
   id="polygon689"
   style="fill:#bbbcbf" />
	<polygon
   points="230.142,144.306 236.647,301.035 229.257,1326.184 227.189,1326.184 234.579,301.035 228.073,144.306 "
   id="polygon691"
   style="fill:#bbbcbf" />
	<polygon
   points="238.518,96.033 246.761,301.035 244.24,1325.837 242.493,1325.837 245.014,301.035 236.771,96.033 "
   id="polygon693"
   style="fill:#bbbcbf" />
	<polygon
   points="261.125,68.418 256.688,301.035 259.729,1325.778 258.41,1325.778 255.368,301.035 259.807,68.418 "
   id="polygon695"
   style="fill:#bbbcbf" />
	<polygon
   points="265.896,116.039 266.606,301.035 274.468,1325.086 273.542,1325.086 265.68,301.035 264.97,116.039 "
   id="polygon697"
   style="fill:#bbbcbf" />
	<polygon
   points="275.853,164.746 276.648,301.035 290.646,1323.975 289.835,1323.975 275.838,301.035 275.042,164.746 "
   id="polygon699"
   style="fill:#bbbcbf" />
	<polygon
   points="287.436,211.713 286.435,301.035 305.129,1323.975 304.385,1323.975 285.69,301.035 286.691,211.713 "
   id="polygon701"
   style="fill:#bbbcbf" />
	<g
   id="g703">
		<path
   d="m 363.957,1252.373 c 6.223,-1.688 13.423,3.9 15.781,12.315 0.609,2.176 -0.145,0.591 -0.427,2.295 -0.537,3.269 -3.219,5.299 -7.311,6.409 -2.675,0.727 -6.799,5.089 -9.163,4.019 -3.136,-1.417 -6.035,-6.826 -7.019,-10.452 -1.728,-6.366 1.917,-12.896 8.139,-14.586 z"
   id="path705"
   inkscape:connector-curvature="0"
   style="fill:#3c3603" />
		
			<ellipse
   transform="matrix(-0.2619,-0.9651,0.9651,-0.2619,-758.2017,1956.5565)"
   cx="369.082"
   cy="1268.213"
   rx="11.943"
   ry="11.412"
   id="ellipse707"
   sodipodi:cx="369.082"
   sodipodi:cy="1268.213"
   sodipodi:rx="11.943"
   sodipodi:ry="11.412"
   style="fill:#fce081"
   d="m 381.025,1268.213 c 0,6.3027 -5.34706,11.412 -11.943,11.412 -6.59594,0 -11.943,-5.1093 -11.943,-11.412 0,-6.3027 5.34706,-11.412 11.943,-11.412 6.59594,0 11.943,5.1093 11.943,11.412 z" />
		<path
   d="m 366.667,1259.314 c 4.697,-1.275 9.584,1.677 10.92,6.591 1.332,4.915 -1.391,9.934 -6.09,11.207 -4.693,1.275 -9.582,-1.676 -10.917,-6.592 -1.332,-4.914 1.393,-9.931 6.087,-11.206 z"
   id="path709"
   inkscape:connector-curvature="0"
   style="fill:#d6c15d" />
	</g>
	<g
   id="g711">
		<path
   d="m 421.206,1315.74 c 6.224,-1.688 13.424,3.899 15.781,12.315 0.61,2.175 -0.145,0.59 -0.426,2.295 -0.537,3.268 -3.219,5.299 -7.312,6.408 -2.674,0.727 -6.799,5.089 -9.162,4.02 -3.136,-1.418 -6.036,-6.826 -7.02,-10.453 -1.728,-6.365 1.918,-12.896 8.139,-14.585 z"
   id="path713"
   inkscape:connector-curvature="0"
   style="fill:#3c3603" />
		
			<ellipse
   transform="matrix(-0.2619,-0.9651,0.9651,-0.2619,-747.1353,2091.7363)"
   cx="426.332"
   cy="1331.58"
   rx="11.943"
   ry="11.412"
   id="ellipse715"
   sodipodi:cx="426.332"
   sodipodi:cy="1331.58"
   sodipodi:rx="11.943"
   sodipodi:ry="11.412"
   style="fill:#fce081"
   d="m 438.275,1331.58 c 0,6.3026 -5.34706,11.412 -11.943,11.412 -6.59594,0 -11.943,-5.1094 -11.943,-11.412 0,-6.3027 5.34706,-11.412 11.943,-11.412 6.59594,0 11.943,5.1093 11.943,11.412 z" />
		<path
   d="m 423.916,1322.682 c 4.698,-1.275 9.585,1.677 10.92,6.591 1.333,4.915 -1.39,9.933 -6.089,11.207 -4.693,1.274 -9.583,-1.676 -10.918,-6.592 -1.332,-4.914 1.394,-9.932 6.087,-11.206 z"
   id="path717"
   inkscape:connector-curvature="0"
   style="fill:#d6c15d" />
	</g>
	<g
   id="g719">
		<path
   d="m 401.233,1232.913 c 0.535,0.574 0.503,1.479 -0.07,2.016 -0.575,0.534 -1.481,0.503 -2.018,-0.071 l -24.318,-26.1 c -0.533,-0.573 -0.502,-1.48 0.07,-2.015 0.575,-0.535 1.482,-0.503 2.016,0.07 l 24.32,26.1 z"
   id="path721"
   inkscape:connector-curvature="0"
   style="fill:#272525" />
		<ellipse
   cx="389.11899"
   cy="1223.886"
   rx="6.6139998"
   ry="6.7329998"
   id="ellipse723"
   sodipodi:cx="389.11899"
   sodipodi:cy="1223.886"
   sodipodi:rx="6.6139998"
   sodipodi:ry="6.7329998"
   style="fill:#a7c5c3"
   d="m 395.73299,1223.886 c 0,3.7185 -2.96119,6.733 -6.614,6.733 -3.65281,0 -6.614,-3.0145 -6.614,-6.733 0,-3.7185 2.96119,-6.733 6.614,-6.733 3.65281,0 6.614,3.0145 6.614,6.733 z" />
		<circle
   cx="389.31299"
   cy="1222.9969"
   r="6.566"
   id="circle725"
   sodipodi:cx="389.31299"
   sodipodi:cy="1222.9969"
   sodipodi:rx="6.566"
   sodipodi:ry="6.566"
   style="fill:#d4e9e7"
   d="m 395.87899,1222.9969 c 0,3.6263 -2.9397,6.566 -6.566,6.566 -3.6263,0 -6.566,-2.9397 -6.566,-6.566 0,-3.6263 2.9397,-6.566 6.566,-6.566 3.6263,0 6.566,2.9397 6.566,6.566 z" />
		<path
   d="m 386.351,1224.8 c 0,2.002 1.526,3.952 3.356,4.725 2.811,-0.17 5.124,-2.092 5.885,-4.698 -0.49,-2.138 -2.339,-4.231 -4.598,-4.231 -2.631,-10e-4 -4.643,1.573 -4.643,4.204 z"
   id="path727"
   inkscape:connector-curvature="0"
   style="fill:#ebf0ef" />
	</g>
	<circle
   cx="408.03799"
   cy="1241.973"
   r="4.2529998"
   id="circle729"
   sodipodi:cx="408.03799"
   sodipodi:cy="1241.973"
   sodipodi:rx="4.2529998"
   sodipodi:ry="4.2529998"
   style="fill:#272525"
   d="m 412.29099,1241.973 c 0,2.3489 -1.90413,4.253 -4.253,4.253 -2.34886,0 -4.253,-1.9041 -4.253,-4.253 0,-2.3488 1.90414,-4.253 4.253,-4.253 2.34887,0 4.253,1.9042 4.253,4.253 z" />
	<circle
   cx="368.37799"
   cy="1199.75"
   r="4.2529998"
   id="circle731"
   sodipodi:cx="368.37799"
   sodipodi:cy="1199.75"
   sodipodi:rx="4.2529998"
   sodipodi:ry="4.2529998"
   style="fill:#272525"
   d="m 372.63099,1199.75 c 0,2.3489 -1.90413,4.253 -4.253,4.253 -2.34887,0 -4.253,-1.9041 -4.253,-4.253 0,-2.3489 1.90413,-4.253 4.253,-4.253 2.34887,0 4.253,1.9041 4.253,4.253 z" />
	<circle
   cx="426.53601"
   cy="1261.29"
   r="5.0209999"
   id="circle733"
   sodipodi:cx="426.53601"
   sodipodi:cy="1261.29"
   sodipodi:rx="5.0209999"
   sodipodi:ry="5.0209999"
   style="fill:#272525"
   d="m 431.55701,1261.29 c 0,2.7731 -2.24798,5.021 -5.021,5.021 -2.77302,0 -5.021,-2.2479 -5.021,-5.021 0,-2.773 2.24798,-5.021 5.021,-5.021 2.77302,0 5.021,2.248 5.021,5.021 z" />
	<circle
   cx="442.83099"
   cy="1355.47"
   r="5.0209999"
   id="circle735"
   sodipodi:cx="442.83099"
   sodipodi:cy="1355.47"
   sodipodi:rx="5.0209999"
   sodipodi:ry="5.0209999"
   style="fill:#272525"
   d="m 447.85199,1355.47 c 0,2.773 -2.24797,5.021 -5.021,5.021 -2.77302,0 -5.021,-2.248 -5.021,-5.021 0,-2.7731 2.24798,-5.021 5.021,-5.021 2.77303,0 5.021,2.2479 5.021,5.021 z" />
	<circle
   cx="330.20401"
   cy="1286.501"
   r="5.0209999"
   id="circle737"
   sodipodi:cx="330.20401"
   sodipodi:cy="1286.501"
   sodipodi:rx="5.0209999"
   sodipodi:ry="5.0209999"
   style="fill:#272525"
   d="m 335.22501,1286.501 c 0,2.773 -2.24798,5.021 -5.021,5.021 -2.77302,0 -5.021,-2.248 -5.021,-5.021 0,-2.773 2.24798,-5.021 5.021,-5.021 2.77302,0 5.021,2.248 5.021,5.021 z" />
	<circle
   cx="149.228"
   cy="1289.5081"
   r="5.0209999"
   id="circle739"
   sodipodi:cx="149.228"
   sodipodi:cy="1289.5081"
   sodipodi:rx="5.0209999"
   sodipodi:ry="5.0209999"
   style="fill:#272525"
   d="m 154.249,1289.5081 c 0,2.773 -2.24798,5.021 -5.021,5.021 -2.77302,0 -5.021,-2.248 -5.021,-5.021 0,-2.7731 2.24798,-5.021 5.021,-5.021 2.77302,0 5.021,2.2479 5.021,5.021 z" />
	<circle
   cx="179.39101"
   cy="1147.746"
   r="5.0219998"
   id="circle741"
   sodipodi:cx="179.39101"
   sodipodi:cy="1147.746"
   sodipodi:rx="5.0219998"
   sodipodi:ry="5.0219998"
   style="fill:#272525"
   d="m 184.41301,1147.746 c 0,2.7735 -2.24843,5.022 -5.022,5.022 -2.77358,0 -5.022,-2.2485 -5.022,-5.022 0,-2.7736 2.24842,-5.022 5.022,-5.022 2.77357,0 5.022,2.2484 5.022,5.022 z" />
	<circle
   cx="167.537"
   cy="1022.346"
   r="5.0219998"
   id="circle743"
   sodipodi:cx="167.537"
   sodipodi:cy="1022.346"
   sodipodi:rx="5.0219998"
   sodipodi:ry="5.0219998"
   style="fill:#272525"
   d="m 172.559,1022.346 c 0,2.7736 -2.24842,5.022 -5.022,5.022 -2.77357,0 -5.022,-2.2484 -5.022,-5.022 0,-2.7736 2.24843,-5.022 5.022,-5.022 2.77358,0 5.022,2.2484 5.022,5.022 z" />
	<circle
   cx="320.57101"
   cy="1074.441"
   r="5.0209999"
   id="circle745"
   sodipodi:cx="320.57101"
   sodipodi:cy="1074.441"
   sodipodi:rx="5.0209999"
   sodipodi:ry="5.0209999"
   style="fill:#272525"
   d="m 325.59201,1074.441 c 0,2.7731 -2.24797,5.021 -5.021,5.021 -2.77302,0 -5.021,-2.2479 -5.021,-5.021 0,-2.773 2.24798,-5.021 5.021,-5.021 2.77303,0 5.021,2.248 5.021,5.021 z" />
	<circle
   cx="430.565"
   cy="993.27698"
   r="5.0219998"
   id="circle747"
   sodipodi:cx="430.565"
   sodipodi:cy="993.27698"
   sodipodi:rx="5.0219998"
   sodipodi:ry="5.0219998"
   style="fill:#272525"
   d="m 435.587,993.27698 c 0,2.77357 -2.24842,5.022 -5.022,5.022 -2.77357,0 -5.022,-2.24843 -5.022,-5.022 0,-2.77358 2.24843,-5.022 5.022,-5.022 2.77358,0 5.022,2.24842 5.022,5.022 z" />
	<circle
   cx="402.383"
   cy="1086.842"
   r="5.0219998"
   id="circle749"
   sodipodi:cx="402.383"
   sodipodi:cy="1086.842"
   sodipodi:rx="5.0219998"
   sodipodi:ry="5.0219998"
   style="fill:#272525"
   d="m 407.405,1086.842 c 0,2.7736 -2.24843,5.022 -5.022,5.022 -2.77358,0 -5.022,-2.2484 -5.022,-5.022 0,-2.7735 2.24842,-5.022 5.022,-5.022 2.77357,0 5.022,2.2485 5.022,5.022 z" />
	<circle
   cx="389.77802"
   cy="1177.397"
   r="5.0219998"
   id="circle751"
   sodipodi:cx="389.77802"
   sodipodi:cy="1177.397"
   sodipodi:rx="5.0219998"
   sodipodi:ry="5.0219998"
   style="fill:#272525"
   d="m 394.80001,1177.397 c 0,2.7735 -2.24842,5.022 -5.02199,5.022 -2.77358,0 -5.022,-2.2485 -5.022,-5.022 0,-2.7736 2.24842,-5.022 5.022,-5.022 2.77357,0 5.02199,2.2484 5.02199,5.022 z" />
	<path
   d="m 240.508,1494.984 c -1.015,1.146 -1.791,1.756 -0.134,3.233 1.566,1.398 8.451,1.711 10.203,1.768 V 1500 c 0,0 0.086,0 0.206,-0.01 0.12,0.01 0.204,0.01 0.204,0.01 v -0.015 c 1.746,-0.083 8.628,-0.501 10.161,-1.921 1.618,-1.502 0.826,-2.101 -0.214,-3.23 -1.282,-1.389 -4.665,-3.701 -4.665,-3.701 l -5.391,0.041 -0.409,0 -5.39,0.041 c 0.001,0 -3.327,2.365 -4.571,3.77 z"
   id="path753"
   inkscape:connector-curvature="0"
   style="fill:#d6c15d" />
	<path
   d="m 245.063,1490.256 0.01,0.958 11.201,-0.084 -0.012,-0.924 c -3.73,0.026 -7.463,0.044 -11.199,0.05 z"
   id="path755"
   inkscape:connector-curvature="0"
   style="fill:#9b8528" />
	<g
   id="g757">
		<path
   d="m 117.148,847.504 c 1.669,-0.803 2.772,-1.112 2.249,-3.673 -0.494,-2.42 -6.502,-6.315 -8.046,-7.278 l 0.01,-0.017 c 0,0 -0.079,-0.039 -0.19,-0.096 -0.105,-0.064 -0.182,-0.112 -0.182,-0.112 l -0.009,0.018 c -1.632,-0.8 -8.114,-3.845 -10.431,-2.986 -2.451,0.908 -2.129,2.008 -1.934,3.85 0.244,2.263 1.776,6.677 1.776,6.677 l 4.889,2.717 0.372,0.207 4.889,2.717 c 0.001,-0.002 4.561,-1.033 6.607,-2.024 z"
   id="path759"
   inkscape:connector-curvature="0"
   style="fill:#d6c15d" />
		
			<rect
   x="103.901"
   y="841.81403"
   transform="matrix(-0.4859,0.874,-0.874,-0.4859,896.7993,1167.7371)"
   width="2.108"
   height="11.625"
   id="rect761"
   style="fill:#9b8528" />
		<path
   d="m 99.939,854.477 c 1.577,0.877 4.228,2.298 8.356,4.775 0.293,-0.815 3.112,-6.19 1.999,-7.328 -1.425,-1.453 -5.204,-3.493 -5.653,-3.731 -0.44,-0.255 -4.166,-2.387 -6.155,-2.828 -1.318,-0.294 -4.417,4.41 -5.103,5.183 3.215,1.945 5.464,3.322 6.556,3.929 z"
   id="path763"
   inkscape:connector-curvature="0"
   style="fill:#d6c15d" />
	</g>
	<rect
   x="210.627"
   y="281.32501"
   width="78.429001"
   height="6.1919999"
   id="rect765"
   style="fill:#d0be5e" />
	<circle
   cx="218.278"
   cy="284.42001"
   r="2.7539999"
   id="circle767"
   sodipodi:cx="218.278"
   sodipodi:cy="284.42001"
   sodipodi:rx="2.7539999"
   sodipodi:ry="2.7539999"
   style="fill:#272525"
   d="m 221.032,284.42001 c 0,1.521 -1.23301,2.754 -2.754,2.754 -1.52099,0 -2.754,-1.233 -2.754,-2.754 0,-1.52099 1.23301,-2.754 2.754,-2.754 1.52099,0 2.754,1.23301 2.754,2.754 z" />
	<circle
   cx="281.40399"
   cy="284.42001"
   r="2.7539999"
   id="circle769"
   sodipodi:cx="281.40399"
   sodipodi:cy="284.42001"
   sodipodi:rx="2.7539999"
   sodipodi:ry="2.7539999"
   style="fill:#272525"
   d="m 284.15799,284.42001 c 0,1.521 -1.23301,2.754 -2.754,2.754 -1.52099,0 -2.754,-1.233 -2.754,-2.754 0,-1.52099 1.23301,-2.754 2.754,-2.754 1.52099,0 2.754,1.23301 2.754,2.754 z" />
</g>
</svg>