<?xml version="1.0" ?><!DOCTYPE svg  PUBLIC '-//W3C//DTD SVG 1.1//EN'  'http://www.w3.org/Graphics/SVG/1.1/DTD/svg11.dtd'><svg height="512px" id="Layer_1" style="enable-background:new 0 0 512 512;" version="1.1" viewBox="0 0 512 512" width="512px" xml:space="preserve" xmlns="http://www.w3.org/2000/svg" xmlns:xlink="http://www.w3.org/1999/xlink"><circle cx="256" cy="256" id="background_43_" r="256" style="fill:#45B39C;"/><path d="M138.57,433h234.52C392.434,433,408,415.76,408,396.415V113.943C408,94.6,392.434,80,373.091,80  H188.91L103,164.281v232.134C103,415.76,119.227,433,138.57,433z" style="fill:#334D5C;"/><polygon points="188.91,149.016 274.274,80 188.91,80 150.972,148.988 " style="fill:#1B2930;"/><path d="M172.805,163.389c8.693,0,15.195-5.779,15.195-14.473V79.359l-85.194,84.922L172.805,163.389z" style="fill:#4F788F;"/><path d="M338,166.217c0-3.823-3.19-6.313-6.775-5.49c-40.49,9.277-81.272,18.557-121.76,27.834  c-2.453,0.564-4.465,3.041-4.465,5.489c0,38.219,0,76.434,0,114.65c-5-3.472-11.512-5.561-18.885-5.561  c-16.758,0-30.09,10.788-30.09,24.096c0,13.31,13.708,24.101,30.465,24.101c29.01,0,28.51-27.285,28.51-28.22  c0-30.622,0-61.242,0-91.863l111-25.299c0,25.814,0,51.627,0,77.44c-5-3.47-11.279-5.562-18.65-5.562  c-16.756,0-29.973,10.786-29.973,24.098c0,13.311,13.768,24.1,30.524,24.1c15.82,0,28.469-9.619,29.873-21.888  c0.351-0.722,0.226-1.56,0.226-2.536C338,256.472,338,211.344,338,166.217z" style="fill:#FFFFFF;"/><g/><g/><g/><g/><g/><g/><g/><g/><g/><g/><g/><g/><g/><g/><g/></svg>