<?xml version="1.0" encoding="UTF-8" standalone="no"?>
<!-- Created with Inkscape (http://www.inkscape.org/) -->

<svg
   xmlns:dc="http://purl.org/dc/elements/1.1/"
   xmlns:cc="http://creativecommons.org/ns#"
   xmlns:rdf="http://www.w3.org/1999/02/22-rdf-syntax-ns#"
   xmlns:svg="http://www.w3.org/2000/svg"
   xmlns="http://www.w3.org/2000/svg"
   xmlns:sodipodi="http://sodipodi.sourceforge.net/DTD/sodipodi-0.dtd"
   xmlns:inkscape="http://www.inkscape.org/namespaces/inkscape"
   width="744.09448819"
   height="1052.3622047"
   id="svg2"
   version="1.1"
   inkscape:version="0.48.5 r10040"
   sodipodi:docname="New document 1">
  <defs
     id="defs4">
    <inkscape:path-effect
       effect="gears"
       id="path-effect4101"
       is_visible="true"
       teeth="15"
       phi="5" />
  </defs>
  <sodipodi:namedview
     id="base"
     pagecolor="#ffffff"
     bordercolor="#666666"
     borderopacity="1.0"
     inkscape:pageopacity="0.0"
     inkscape:pageshadow="2"
     inkscape:zoom="0.49497475"
     inkscape:cx="109.07001"
     inkscape:cy="508.64059"
     inkscape:document-units="px"
     inkscape:current-layer="layer1"
     showgrid="false"
     inkscape:window-width="1680"
     inkscape:window-height="988"
     inkscape:window-x="-8"
     inkscape:window-y="-8"
     inkscape:window-maximized="1" />
  <metadata
     id="metadata7">
    <rdf:RDF>
      <cc:Work
         rdf:about="">
        <dc:format>image/svg+xml</dc:format>
        <dc:type
           rdf:resource="http://purl.org/dc/dcmitype/StillImage" />
        <dc:title></dc:title>
      </cc:Work>
    </rdf:RDF>
  </metadata>
  <g
     inkscape:label="Layer 1"
     inkscape:groupmode="layer"
     id="layer1">
    <path
       style="fill:none;stroke:#e97c15;stroke-width:15;stroke-linecap:butt;stroke-linejoin:miter;stroke-opacity:1;stroke-miterlimit:4;stroke-dasharray:none"
       d="m 156.45501,377.71355 c 0,0 -2.78614,-1.79525 -7.12672,-6.64777 -4.34058,-4.85253 -10.22197,-12.77296 -15.98555,-24.44908 6.91633,-9.78656 14.41577,-19.16097 22.44531,-28.05698 12.65655,3.0598 21.67488,7.05901 27.3619,10.22847 5.68702,3.16945 8.05011,5.49353 8.05011,5.49353 l 24.54829,24.269 c 11.31241,-11.44259 23.82451,-21.69842 37.26484,-30.54496 l -18.97886,-28.83411 c 0,0 -1.81508,-2.77327 -3.80669,-8.97175 -1.99162,-6.19847 -4.14301,-15.82632 -4.65919,-28.83725 10.29893,-6.12734 20.96293,-11.641 31.91661,-16.50199 10.3178,7.94315 16.92983,15.26469 20.83604,20.47325 3.90622,5.20856 5.11972,8.29287 5.11972,8.29287 l 12.55489,32.15553 c 14.98852,-5.85216 30.59032,-10.1322 46.46688,-12.74724 l -5.61016,-34.06067 c 0,0 -0.53017,-3.27176 0.17155,-9.74442 0.70172,-6.47265 2.65232,-16.14318 7.47278,-28.2392 11.90076,-1.40865 23.88542,-2.10819 35.86924,-2.09367 6.19501,11.45306 9.25746,20.83098 10.70746,27.17804 1.45,6.34706 1.30408,9.65828 1.30408,9.65828 l -1.60937,34.48207 c 16.07298,0.75017 32.06678,3.18599 47.63438,7.25461 l 8.72858,-33.39783 c 0,0 0.84642,-3.20455 4.12013,-8.8322 3.27372,-5.62765 8.98904,-13.66873 18.31265,-22.75834 11.44483,3.55361 22.67789,7.78915 33.61975,12.67668 1.00105,12.98262 -0.0156,22.79539 -1.27255,29.18348 -1.25695,6.3881 -2.73705,9.3537 -2.73705,9.3537 l -15.49535,30.84635 c 14.37828,7.22279 27.99861,15.95328 40.56546,26.00206 l 21.55807,-26.9602 c 0,0 2.07665,-2.58323 7.35631,-6.39281 5.27966,-3.80957 13.77147,-8.83083 25.98609,-13.34235 9.00999,7.90142 17.54914,16.33967 25.5571,25.25511 -4.36601,12.26738 -9.28598,20.81827 -13.03253,26.14284 -3.74655,5.32457 -6.30491,7.43177 -6.30491,7.43177 l -26.70205,21.87702 c 10.19745,12.44651 19.08922,25.9621 26.4824,40.25352 L 615.80464,398.948 c 0,0 2.9478,-1.51525 9.32051,-2.84804 6.3727,-1.33279 16.17268,-2.46601 29.16629,-1.61935 5.01724,10.883 9.386,22.06491 13.0754,33.46669 -8.97814,9.431 -16.95072,15.2415 -22.53906,18.58187 -5.58834,3.34038 -8.7826,4.22483 -8.7826,4.22483 l -33.29171,9.12495 c 4.25337,15.51813 6.87913,31.48184 7.82029,47.54478 l 34.4605,-2.01913 c 0,0 3.30926,-0.18526 9.67311,1.18919 6.36385,1.37445 15.7775,4.32521 27.30339,10.38365 0.15696,11.9828 -0.40007,23.97493 -1.66716,35.89159 -12.03787,4.9639 -21.68453,7.02931 -28.14838,7.80792 -6.46386,0.7786 -9.7417,0.28737 -9.7417,0.28737 l -34.12494,-5.20491 c -2.42615,15.90652 -6.52043,31.55809 -12.19401,46.61511 l 32.30248,12.17179 c 0,0 3.09852,1.17675 8.35314,5.02078 5.25463,3.84404 12.65424,10.36857 20.71948,20.59123 -4.73045,11.01068 -10.11696,21.73946 -16.12146,32.1105 -13.01614,-0.36149 -22.66888,-2.39829 -28.89059,-4.31609 -6.22171,-1.91779 -9.01636,-3.69977 -9.01636,-3.69977 l -29.05767,-18.63479 c -8.68615,13.54453 -18.79253,26.17766 -30.09985,37.62528 l 24.55907,24.25808 c 0,0 2.35201,2.3353 5.58884,7.98424 3.23683,5.64895 7.34295,14.6191 10.55298,27.23839 -8.79993,8.13471 -18.08454,15.74505 -27.7882,22.77722 -11.74381,-5.62438 -19.73358,-11.41121 -24.63736,-15.6938 -4.90378,-4.2826 -6.73202,-7.04721 -6.73202,-7.04721 L 506.901,713.91783 c -13.44425,8.84057 -27.81525,16.27087 -42.80117,22.12969 l 12.56918,32.14994 c 0,0 1.19882,3.09004 1.85818,9.56715 0.65936,6.47711 0.76199,16.34186 -1.43823,29.17579 -11.34782,3.85217 -22.92514,7.02817 -34.65011,9.50555 -8.44086,-9.91477 -13.38616,-18.45103 -16.1241,-24.35792 -2.73794,-5.9069 -3.28365,-9.1761 -3.28365,-9.1761 l -5.59503,-34.06316 c -15.87772,2.60798 -32.02845,3.55069 -48.10177,2.80767 l -1.59404,34.48278 c 0,0 -0.16166,3.3105 -2.19378,9.49581 -2.03213,6.18532 -5.95072,15.23897 -13.18075,26.06843 -11.93357,-1.09644 -23.80178,-2.90393 -35.52071,-5.40972 -3.67841,-12.49079 -4.72416,-22.3005 -4.82284,-28.81033 -0.0987,-6.50983 0.73249,-9.71837 0.73249,-9.71837 l 8.74342,-33.39394 c -15.56578,-4.07554 -30.70364,-9.78342 -45.08513,-16.99982 l -15.48164,30.85323 c 0,0 -1.49418,2.95854 -5.86642,7.78257 -4.37223,4.82403 -11.63449,11.50111 -22.64419,18.4536 -10.4559,-5.85547 -20.56287,-12.33393 -30.24945,-19.3896 1.72007,-12.90705 4.75469,-22.29401 7.31233,-28.28117 2.55764,-5.98717 4.62198,-8.58024 4.62198,-8.58024 l 21.57005,-26.95062 c -12.56238,-10.05436 -24.06989,-21.42589 -34.27287,-33.86788 l -26.69232,21.88888 c 0,0 -2.56835,2.09502 -8.52469,4.72364 -5.95634,2.62863 -15.30656,5.77462 -28.19226,7.64798 -7.17031,-9.60203 -13.76845,-19.63128 -19.74779,-30.01684 6.82114,-11.09156 13.41142,-18.43268 18.18314,-22.86194 4.77172,-4.42926 7.71229,-5.95851 7.71229,-5.95851 l 30.66703,-15.84728 c -7.38683,-14.2947 -13.27425,-29.36364 -17.53452,-44.87988 l -33.28766,9.13974 c 0,0 -3.19843,0.86925 -9.70897,0.84795 -6.51055,-0.0213 -16.33199,-0.95036 -28.865626,-4.48004 -2.644903,-11.68832 -4.593346,-23.5342 -5.831553,-35.4539 10.742761,-7.35824 19.749189,-11.38418 25.909909,-13.48968 6.16073,-2.1055 9.46907,-2.3065 9.46907,-2.3065 l 34.4614,-2.0038 c -0.93403,-16.06335 -0.18336,-32.22415 2.23571,-48.13175 l -34.12726,-5.18974 c 0,0 -3.27546,-0.50681 -9.21448,-3.17435 -5.93902,-2.66753 -14.533461,-7.51102 -24.547858,-15.83343 2.337829,-11.75359 5.375991,-23.36784 9.09301,-34.76065 12.806868,-2.35262 22.672148,-2.36725 29.156628,-1.78492 6.48449,0.58232 9.58856,1.74432 9.58856,1.74432 l 32.29708,12.18614 c 5.68027,-15.0545 12.93923,-29.5128 21.61937,-43.06118 l -29.06595,-18.62188"
       id="path4099"
       inkscape:connector-curvature="0"
       inkscape:path-effect="#path-effect4101"
       inkscape:original-d="m 376.49144,518.1268 3.50853,2.80679 231.56189,131.92014" />
    <path
       sodipodi:type="arc"
       style="fill:none;stroke:#e97c15;stroke-width:15;stroke-linecap:round;stroke-linejoin:round;stroke-miterlimit:4;stroke-opacity:1;stroke-dasharray:none;stroke-dashoffset:6.2"
       id="path4871"
       sodipodi:cx="365.67523"
       sodipodi:cy="499.80875"
       sodipodi:rx="31.31473"
       sodipodi:ry="31.31473"
       d="m 396.98996,499.80875 a 31.31473,31.31473 0 1 1 -62.62946,0 31.31473,31.31473 0 1 1 62.62946,0 z"
       transform="translate(16,14)" />
  </g>
</svg>
