<?xml version="1.0" encoding="UTF-8" standalone="no"?>
<!-- Created with Inkscape (http://www.inkscape.org/) -->
<svg id="svg5622" xmlns:rdf="http://www.w3.org/1999/02/22-rdf-syntax-ns#" xmlns="http://www.w3.org/2000/svg" viewBox="0 0 744.09 1052.4" version="1.1" xmlns:cc="http://creativecommons.org/ns#" xmlns:xlink="http://www.w3.org/1999/xlink" xmlns:dc="http://purl.org/dc/elements/1.1/">
 <defs id="defs5624"></defs>
 <metadata id="metadata5627">
  <rdf:RDF>
   <cc:Work rdf:about="">
    <dc:format>image/svg+xml</dc:format>
    <dc:type rdf:resource="http://purl.org/dc/dcmitype/StillImage"/>
    <dc:title/>
   </cc:Work>
  </rdf:RDF>
 </metadata>
 <g id="layer1" stroke-linejoin="round" stroke="#e97c15" stroke-linecap="round" stroke-dasharray="none" stroke-miterlimit="4">
  <path id="rect6140-7-2-3" d="m630.26,112.38,103.28,0,0,800-103.28,0zm-103.04-0.0298,103.28,0,0,800-103.28,0zm-103,0,103.28,0,0,800-103.28,0zm-103.36-0.0613,103.28,0,0,800-103.28,0zm-103,0,103.28,0,0,800-103.28,0zm-103.14,0.0745,103.28,0,0,800-103.28,0zm-103,0,103.28,0,0,800-103.28,0z" stroke-dashoffset="6.20000000000000020" stroke-width="15" fill="none"/>
  <rect id="rect6216-9" fill-rule="nonzero" stroke-dashoffset="6.2" height="457.14" width="52.984" y="114.81" x="196.61" stroke-width="3.0938" fill="#e97c15"/>
  <rect id="rect6216-9-8" fill-rule="nonzero" stroke-dashoffset="6.2" height="457.14" width="52.984" y="114.35" x="87.481" stroke-width="3.0938" fill="#e97c15"/>
  <rect id="rect6216-9-2" fill-rule="nonzero" stroke-dashoffset="6.2" height="457.14" width="52.984" y="114.43" x="501.03" stroke-width="3.0938" fill="#e97c15"/>
  <rect id="rect6216-9-8-4" fill-rule="nonzero" stroke-dashoffset="6.2" height="457.14" width="52.984" y="114.97" x="396.91" stroke-width="3.0938" fill="#e97c15"/>
  <rect id="rect6216-9-2-5" fill-rule="nonzero" stroke-dashoffset="6.2" height="457.14" width="52.984" y="114.23" x="602.67" stroke-width="3.0938" fill="#e97c15"/>
 </g>
</svg>
