<?xml version="1.0" encoding="UTF-8" standalone="no"?>
<!-- Created with Inkscape (http://www.inkscape.org/) -->

<svg
   xmlns:dc="http://purl.org/dc/elements/1.1/"
   xmlns:cc="http://creativecommons.org/ns#"
   xmlns:rdf="http://www.w3.org/1999/02/22-rdf-syntax-ns#"
   xmlns:svg="http://www.w3.org/2000/svg"
   xmlns="http://www.w3.org/2000/svg"
   xmlns:sodipodi="http://sodipodi.sourceforge.net/DTD/sodipodi-0.dtd"
   xmlns:inkscape="http://www.inkscape.org/namespaces/inkscape"
   width="744.09448819"
   height="1052.3622047"
   id="svg2"
   version="1.1"
   inkscape:version="0.48.5 r10040"
   sodipodi:docname="bass_headstock.svg">
  <defs
     id="defs4" />
  <sodipodi:namedview
     id="base"
     pagecolor="#ffffff"
     bordercolor="#666666"
     borderopacity="1.0"
     inkscape:pageopacity="0.0"
     inkscape:pageshadow="2"
     inkscape:zoom="0.49497475"
     inkscape:cx="141.47955"
     inkscape:cy="292.29101"
     inkscape:document-units="px"
     inkscape:current-layer="layer1"
     showgrid="false"
     inkscape:window-width="1680"
     inkscape:window-height="988"
     inkscape:window-x="-8"
     inkscape:window-y="-8"
     inkscape:window-maximized="1" />
  <metadata
     id="metadata7">
    <rdf:RDF>
      <cc:Work
         rdf:about="">
        <dc:format>image/svg+xml</dc:format>
        <dc:type
           rdf:resource="http://purl.org/dc/dcmitype/StillImage" />
        <dc:title />
      </cc:Work>
    </rdf:RDF>
  </metadata>
  <g
     inkscape:label="Layer 1"
     inkscape:groupmode="layer"
     id="layer1">
    <path
       style="fill:none;stroke:#e97c15;stroke-width:15;stroke-linecap:butt;stroke-linejoin:miter;stroke-opacity:1;stroke-miterlimit:4;stroke-dasharray:none"
       d="m 360.83683,953.7041 c -2.0203,-15.65736 0.63635,-25.94452 -11.99056,-39.58158 C 331.87916,897.15541 303.93682,893.77763 273.29044,885.56596 250.15673,879.3673 241.01015,844.6276 244.04061,823.91947 248.5482,807.09693 371.21056,189.2869 381.51523,171.43869 447.68022,15.370118 651.73856,76.59663 634.19906,238.9133 c -15.65737,68.18529 -61.39884,64.78825 -73.01559,106.2045 -20.70812,62.62946 32.89919,175.37997 52.09209,235.48405 17.67767,63.63961 32.12183,187.47462 32.12183,187.47462 0,0 -73.76577,10.84915 -101.54496,66.40754 -24.74874,54.04316 -17.63306,65.85531 -18.13814,117.87817 z"
       id="path2996"
       inkscape:connector-curvature="0"
       sodipodi:nodetypes="cccccccccccc" />
    <path
       style="fill:none;stroke:#e97c15;stroke-width:15;stroke-linecap:butt;stroke-linejoin:miter;stroke-opacity:1;stroke-miterlimit:4;stroke-dasharray:none"
       d="M 360.67817 230.15374 L 358.57143 239.1479 L 358.57143 239.1479 C 350.49021 237.38013 332.08441 236.70634 318.21428 250.57647 C 300.97978 267.81097 298.75532 279.86218 271.78571 279.86218 C 246.13768 279.86218 228.92857 260.36063 228.92857 231.6479 C 228.92857 231.6479 207.85714 221.29075 210 193.79075 C 211.07143 165.21932 242.5 156.29075 242.5 156.29075 C 260.49768 110.57222 319.00279 113.72948 328.92857 161.29076 C 336.53415 189.67518 348.15918 191.9289 367.85715 199.50504 L 366.23263 206.44049 "
       id="path3899" />
    <path
       sodipodi:type="arc"
       style="fill:none;stroke:#e97c15;stroke-width:15;stroke-linecap:round;stroke-linejoin:round;stroke-miterlimit:4;stroke-opacity:1;stroke-dasharray:none;stroke-dashoffset:6.20000000000000020"
       id="path3838"
       sodipodi:cx="470"
       sodipodi:cy="258.79074"
       sodipodi:rx="25.714285"
       sodipodi:ry="25.714285"
       d="m 495.71428,258.79074 a 25.714285,25.714285 0 1 1 -51.42856,0 25.714285,25.714285 0 1 1 51.42856,0 z"
       transform="translate(-8,-2)" />
    <path
       transform="translate(-45.765646,184.68995)"
       sodipodi:type="arc"
       style="fill:none;stroke:#e97c15;stroke-width:15;stroke-linecap:round;stroke-linejoin:round;stroke-miterlimit:4;stroke-opacity:1;stroke-dasharray:none;stroke-dashoffset:6.20000000000000020"
       id="path3838-8"
       sodipodi:cx="470"
       sodipodi:cy="258.79074"
       sodipodi:rx="25.714285"
       sodipodi:ry="25.714285"
       d="m 495.71428,258.79074 a 25.714285,25.714285 0 1 1 -51.42856,0 25.714285,25.714285 0 1 1 51.42856,0 z" />
    <path
       transform="translate(-79.571426,366.57144)"
       sodipodi:type="arc"
       style="fill:none;stroke:#e97c15;stroke-width:15;stroke-linecap:round;stroke-linejoin:round;stroke-miterlimit:4;stroke-opacity:1;stroke-dasharray:none;stroke-dashoffset:6.20000000000000020"
       id="path3838-82"
       sodipodi:cx="470"
       sodipodi:cy="258.79074"
       sodipodi:rx="25.714285"
       sodipodi:ry="25.714285"
       d="m 495.71428,258.79074 a 25.714285,25.714285 0 1 1 -51.42856,0 25.714285,25.714285 0 1 1 51.42856,0 z" />
    <path
       transform="translate(-121.71428,549.42858)"
       sodipodi:type="arc"
       style="fill:none;stroke:#e97c15;stroke-width:15;stroke-linecap:round;stroke-linejoin:round;stroke-miterlimit:4;stroke-opacity:1;stroke-dasharray:none;stroke-dashoffset:6.20000000000000020"
       id="path3838-4"
       sodipodi:cx="470"
       sodipodi:cy="258.79074"
       sodipodi:rx="25.714285"
       sodipodi:ry="25.714285"
       d="m 495.71428,258.79074 a 25.714285,25.714285 0 1 1 -51.42856,0 25.714285,25.714285 0 1 1 51.42856,0 z" />
    <path
       style="fill:none;stroke:#e97c15;stroke-width:15;stroke-linecap:butt;stroke-linejoin:miter;stroke-opacity:1;stroke-miterlimit:4;stroke-dasharray:none"
       d="m 371.96429,208.16575 -48.30357,-10.35714 c -18.75,-3.75 -23.66072,20 -6.16072,23.75 l 49.01786,9.91071"
       id="path3901"
       inkscape:connector-curvature="0"
       sodipodi:nodetypes="cccc" />
    <path
       inkscape:connector-curvature="0"
       style="fill:none;stroke:#e97c15;stroke-width:15;stroke-linecap:butt;stroke-linejoin:miter;stroke-opacity:1;stroke-miterlimit:4;stroke-dasharray:none"
       d="m 322.23882,409.83529 -2.10674,8.99416 0,0 c -8.08122,-1.76777 -26.48702,-2.44156 -40.35715,11.42857 -17.2345,17.2345 -19.45896,29.28571 -46.42857,29.28571 -25.64803,0 -42.85714,-19.50155 -42.85714,-48.21428 0,0 -21.07143,-10.35714 -18.92857,-37.85714 1.07143,-28.57143 32.5,-37.5 32.5,-37.5 17.99768,-45.71853 76.50279,-42.56127 86.42857,5.00001 7.60558,28.38442 19.23061,30.63814 38.92858,38.21428 l -1.62452,6.93545"
       id="path3899-5" />
    <path
       style="fill:none;stroke:#e97c15;stroke-width:15;stroke-linecap:butt;stroke-linejoin:miter;stroke-opacity:1;stroke-miterlimit:4;stroke-dasharray:none"
       d="m 333.52494,387.84731 -48.30357,-10.35714 c -18.75,-3.75 -23.66072,20 -6.16072,23.75 l 49.01786,9.9107"
       id="path3901-5"
       inkscape:connector-curvature="0"
       sodipodi:nodetypes="cccc" />
    <path
       inkscape:connector-curvature="0"
       style="fill:none;stroke:#e97c15;stroke-width:15;stroke-linecap:butt;stroke-linejoin:miter;stroke-opacity:1;stroke-miterlimit:4;stroke-dasharray:none"
       d="m 285.66539,588.30212 -2.10674,8.99416 0,0 c -8.08122,-1.76777 -26.48702,-2.44156 -40.35715,11.42857 -17.2345,17.2345 -19.45896,29.28571 -46.42857,29.28571 -25.64803,0 -42.85714,-19.50155 -42.85714,-48.21428 0,0 -21.07143,-10.35715 -18.92857,-37.85715 1.07143,-28.57143 32.5,-37.5 32.5,-37.5 17.99768,-45.71853 76.50279,-42.56127 86.42857,5.00001 7.60558,28.38442 19.23061,30.63814 38.92858,38.21428 l -1.62452,6.93545"
       id="path3899-1" />
    <path
       style="fill:none;stroke:#e97c15;stroke-width:15;stroke-linecap:butt;stroke-linejoin:miter;stroke-opacity:1;stroke-miterlimit:4;stroke-dasharray:none"
       d="m 296.95151,566.31413 -48.30357,-10.35714 c -18.75,-3.75 -23.66072,20 -6.16072,23.75 l 49.01786,9.91071"
       id="path3901-7"
       inkscape:connector-curvature="0"
       sodipodi:nodetypes="cccc" />
    <path
       inkscape:connector-curvature="0"
       style="fill:none;stroke:#e97c15;stroke-width:15;stroke-linecap:butt;stroke-linejoin:miter;stroke-opacity:1;stroke-miterlimit:4;stroke-dasharray:none"
       d="m 249.11953,767.68609 -2.10674,8.99416 0,0 c -8.08122,-1.76777 -26.48702,-2.44156 -40.35715,11.42857 -17.2345,17.2345 -19.45896,29.28571 -46.42857,29.28571 -25.64803,0 -42.85714,-19.50155 -42.85714,-48.21428 0,0 -21.071436,-10.35714 -18.928576,-37.85714 1.071433,-28.57143 32.500006,-37.5 32.500006,-37.5 17.99768,-45.71853 76.50279,-42.56127 86.42857,5.00001 7.60558,28.38442 19.23061,30.63814 38.92858,38.21428 l -1.62452,6.93545"
       id="path3899-11"
       sodipodi:nodetypes="cccsscccccc" />
    <path
       style="fill:none;stroke:#e97c15;stroke-width:15;stroke-linecap:butt;stroke-linejoin:miter;stroke-opacity:1;stroke-miterlimit:4;stroke-dasharray:none"
       d="m 259.90057,745.57184 -47.79849,-10.23087 c -18.75,-3.75 -23.66072,20 -6.16072,23.75 l 49.01786,9.9107"
       id="path3901-52"
       inkscape:connector-curvature="0"
       sodipodi:nodetypes="cccc" />
  </g>
</svg>
