<?xml version="1.0" encoding="UTF-8" standalone="no"?>
<!-- Created with Inkscape (http://www.inkscape.org/) -->
<svg id="svg2" xmlns:rdf="http://www.w3.org/1999/02/22-rdf-syntax-ns#" xmlns="http://www.w3.org/2000/svg" viewBox="0 0 744.09 1052.4" version="1.1" xmlns:cc="http://creativecommons.org/ns#" xmlns:dc="http://purl.org/dc/elements/1.1/">
 <metadata id="metadata7">
  <rdf:RDF>
   <cc:Work rdf:about="">
    <dc:format>image/svg+xml</dc:format>
    <dc:type rdf:resource="http://purl.org/dc/dcmitype/StillImage"/>
    <dc:title/>
   </cc:Work>
  </rdf:RDF>
 </metadata>
 <g id="layer1" stroke="#e97c15" stroke-miterlimit="4" stroke-dasharray="none" stroke-width="15" fill="none">
  <path id="path2996" stroke-linejoin="miter" d="m360.84,953.7c-2.0203-15.657,0.63635-25.945-11.991-39.582-16.97-16.96-44.91-20.34-75.56-28.55-23.13-6.2-32.28-40.94-29.25-61.65,4.51-16.82,127.17-634.63,137.48-652.48,66.16-156.07,270.22-94.843,252.68,67.47-15.657,68.185-61.399,64.788-73.016,106.2-20.708,62.629,32.899,175.38,52.092,235.48,17.678,63.64,32.122,187.47,32.122,187.47s-73.766,10.849-101.54,66.408c-24.749,54.043-17.633,65.855-18.138,117.88z" stroke-linecap="butt"/>
  <path id="path3899" stroke-linejoin="miter" d="M360.68,230.15l-2.11,9c-8.08-1.77-26.49-2.44-40.36,11.43-17.23,17.23-19.45,29.28-46.42,29.28-25.65,0-42.86-19.5-42.86-48.21,0,0-21.07-10.36-18.93-37.86,1.07-28.57,32.5-37.5,32.5-37.5,18-45.72,76.5-42.56,86.43,5,7.6,28.39,19.23,30.64,38.93,38.22l-1.63,6.93" stroke-linecap="butt"/>
  <path id="path3838" stroke-linejoin="round" d="m495.71,258.79a25.714,25.714,0,1,1,-51.429,0,25.714,25.714,0,1,1,51.429,0z" transform="translate(-8,-2)" stroke-dashoffset="6.20000000000000020" stroke-linecap="round"/>
  <path id="path3838-8" stroke-linejoin="round" d="m495.71,258.79a25.714,25.714,0,1,1,-51.429,0,25.714,25.714,0,1,1,51.429,0z" transform="translate(-45.765646,184.68995)" stroke-dashoffset="6.20000000000000020" stroke-linecap="round"/>
  <path id="path3838-82" stroke-linejoin="round" d="m495.71,258.79a25.714,25.714,0,1,1,-51.429,0,25.714,25.714,0,1,1,51.429,0z" transform="translate(-79.571426,366.57144)" stroke-dashoffset="6.20000000000000020" stroke-linecap="round"/>
  <path id="path3838-4" stroke-linejoin="round" d="m495.71,258.79a25.714,25.714,0,1,1,-51.429,0,25.714,25.714,0,1,1,51.429,0z" transform="translate(-121.71428,549.42858)" stroke-dashoffset="6.20000000000000020" stroke-linecap="round"/>
  <path id="path3901" stroke-linejoin="miter" d="m371.96,208.17-48.304-10.357c-18.75-3.75-23.661,20-6.1607,23.75l49.018,9.9107" stroke-linecap="butt"/>
  <path id="path3899-5" stroke-linejoin="miter" d="m322.24,409.84-2.1067,8.9942,0,0c-8.0812-1.7678-26.487-2.4416-40.357,11.429-17.234,17.234-19.459,29.286-46.429,29.286-25.648,0-42.857-19.502-42.857-48.214,0,0-21.071-10.357-18.929-37.857,1.0714-28.571,32.5-37.5,32.5-37.5,17.998-45.719,76.503-42.561,86.429,5,7.6056,28.384,19.231,30.638,38.929,38.214l-1.6245,6.9354" stroke-linecap="butt"/>
  <path id="path3901-5" stroke-linejoin="miter" d="m333.52,387.85-48.304-10.357c-18.75-3.75-23.661,20-6.1607,23.75l49.018,9.9107" stroke-linecap="butt"/>
  <path id="path3899-1" stroke-linejoin="miter" d="m285.67,588.3-2.1067,8.9942,0,0c-8.0812-1.7678-26.487-2.4416-40.357,11.429-17.234,17.234-19.459,29.286-46.429,29.286-25.648,0-42.857-19.502-42.857-48.214,0,0-21.071-10.357-18.929-37.857,1.0714-28.571,32.5-37.5,32.5-37.5,17.998-45.719,76.503-42.561,86.429,5,7.6056,28.384,19.231,30.638,38.929,38.214l-1.6245,6.9354" stroke-linecap="butt"/>
  <path id="path3901-7" stroke-linejoin="miter" d="m296.95,566.31-48.304-10.357c-18.75-3.75-23.661,20-6.1607,23.75l49.018,9.9107" stroke-linecap="butt"/>
  <path id="path3899-11" stroke-linejoin="miter" d="m249.12,767.69-2.1067,8.9942,0,0c-8.0812-1.7678-26.487-2.4416-40.357,11.429-17.234,17.234-19.459,29.286-46.429,29.286-25.648,0-42.857-19.502-42.857-48.214,0,0-21.071-10.357-18.929-37.857,1.0714-28.571,32.5-37.5,32.5-37.5,17.998-45.719,76.503-42.561,86.429,5,7.6056,28.384,19.231,30.638,38.929,38.214l-1.6245,6.9354" stroke-linecap="butt"/>
  <path id="path3901-52" stroke-linejoin="miter" d="m259.9,745.57-47.798-10.231c-18.75-3.75-23.661,20-6.1607,23.75l49.018,9.9107" stroke-linecap="butt"/>
 </g>
</svg>
