<?xml version="1.0" encoding="UTF-8" standalone="no"?>
<!-- Generator: Adobe Illustrator 16.0.0, SVG Export Plug-In . SVG Version: 6.00 Build 0)  -->

<svg
   xmlns:dc="http://purl.org/dc/elements/1.1/"
   xmlns:cc="http://creativecommons.org/ns#"
   xmlns:rdf="http://www.w3.org/1999/02/22-rdf-syntax-ns#"
   xmlns:svg="http://www.w3.org/2000/svg"
   xmlns="http://www.w3.org/2000/svg"
   xmlns:sodipodi="http://sodipodi.sourceforge.net/DTD/sodipodi-0.dtd"
   xmlns:inkscape="http://www.inkscape.org/namespaces/inkscape"
   version="1.1"
   id="Layer_1"
   x="0px"
   y="0px"
   width="512"
   height="150"
   viewBox="0 0 512 150"
   enable-background="new 0 0 500 1500"
   xml:space="preserve"
   inkscape:version="0.91 r13725"
   sodipodi:docname="stiletto-6.svg"><metadata
     id="metadata523"><rdf:RDF><cc:Work
         rdf:about=""><dc:format>image/svg+xml</dc:format><dc:type
           rdf:resource="http://purl.org/dc/dcmitype/StillImage" /><dc:title></dc:title></cc:Work></rdf:RDF></metadata><defs
     id="defs521" /><sodipodi:namedview
     pagecolor="#ffffff"
     bordercolor="#666666"
     borderopacity="1"
     objecttolerance="10"
     gridtolerance="10"
     guidetolerance="10"
     inkscape:pageopacity="0"
     inkscape:pageshadow="2"
     inkscape:window-width="1920"
     inkscape:window-height="1058"
     id="namedview519"
     showgrid="false"
     inkscape:zoom="10.069333"
     inkscape:cx="53.092847"
     inkscape:cy="30.889051"
     inkscape:window-x="-8"
     inkscape:window-y="-8"
     inkscape:window-maximized="1"
     inkscape:current-layer="g3" /><g
     id="g3"
     transform="matrix(0,0.34084531,-0.34084531,0,511.63391,-10.21149)"><g
       id="g3737"><path
         d="m 120.915,849.242 c 0,0 -0.681,-1.253 -0.376,-2.871 0.306,-1.619 0.704,-2.063 1.245,-2.207 0.541,-0.145 5.884,0.846 6.79,-2.162 1.274,-4.225 -7.388,-6.965 -9.074,-7.251 -1.685,-0.288 -10.808,-0.577 -11.004,3.833 -0.14,3.138 5.23,3.972 5.692,4.286 0.463,0.315 0.691,0.866 0.445,2.495 -0.248,1.63 -1.307,2.583 -1.307,2.583 l 7.589,1.294 z"
         id="path7"
         inkscape:connector-curvature="0"
         style="fill:#a28750" /><path
         d="m 117.093,848.59 3.822,0.652 c 0,0 -0.681,-1.253 -0.376,-2.871 0.306,-1.619 0.704,-2.063 1.245,-2.207 0.541,-0.145 5.884,0.846 6.79,-2.162 1.274,-4.225 -7.388,-6.965 -9.074,-7.251 0,0 -0.002,-10e-4 -0.003,-10e-4 l -2.404,13.84 z"
         id="path9"
         inkscape:connector-curvature="0"
         style="opacity:0.1;fill:#272525" /><path
         d="m 183.149,1485.134 c 0,0 0.609,1.289 0.211,2.888 -0.397,1.6 -0.82,2.02 -1.368,2.132 -0.548,0.113 -5.827,-1.18 -6.902,1.771 -1.513,4.146 6.979,7.375 8.645,7.758 1.667,0.382 10.758,1.192 11.206,-3.2 0.318,-3.125 -4.995,-4.264 -5.438,-4.604 -0.444,-0.342 -0.641,-0.904 -0.302,-2.517 0.34,-1.612 1.452,-2.505 1.452,-2.505 l -7.504,-1.723 z"
         id="path13"
         inkscape:connector-curvature="0"
         style="fill:#a28750" /><path
         d="m 186.928,1486.002 -3.779,-0.868 c 0,0 0.609,1.289 0.211,2.888 -0.397,1.6 -0.82,2.02 -1.368,2.132 -0.548,0.113 -5.827,-1.18 -6.902,1.771 -1.513,4.146 6.979,7.375 8.645,7.758 10e-4,0 0.002,0 0.003,0 l 3.19,-13.681 z"
         id="path15"
         inkscape:connector-curvature="0"
         style="opacity:0.1;fill:#272525" /><path
         style="fill:#843622"
         inkscape:connector-curvature="0"
         id="path17"
         d="m 115.436,849.394 c -30.866,2.059 -36.926,53.512 -38.067,64.817 -5.659,56.072 46.439,145.096 44.24,211.428 -3.51,105.865 -85.001,149.689 -86.599,227.502 -1.262,61.46 92.297,131.271 205.43,138.252 82.524,5.091 149.396,-9.547 190.037,-43.621 6.123,-5.133 30.201,-50.112 33.067,-61.608 14.572,-58.429 -84.833,-141.315 -84.211,-195.193 0.504,-43.58 26.608,-78.213 36.528,-105.362 9.92,-27.15 -11.95,-37.423 -22.638,-36.104 -18.958,2.34 -50.283,31.752 -68.933,31.38 -17.206,-0.344 -24.179,-27.265 -24.179,-27.265 L 200.543,943.478 c 0,0 -11.376,32.715 -40.746,24.936 -36.356,-9.631 -13.496,-121.077 -44.361,-119.02 z" /><path
         style="fill:#a7542a"
         inkscape:connector-curvature="0"
         id="path19"
         d="m 113.792,845.467 c -31.243,2.083 -37.377,54.164 -38.532,65.609 -5.728,56.757 47.007,146.867 44.781,214.01 -3.553,107.159 -86.04,151.519 -87.657,230.281 -1.278,62.21 93.425,132.875 207.939,139.94 83.533,5.154 151.376,-9.478 192.359,-44.153 19.70441,-20.3924 24.74164,-34.9921 33.471,-62.361 14.75,-59.142 -85.869,-143.042 -85.239,-197.577 0.51,-44.113 26.934,-79.169 36.975,-106.651 10.041,-27.48 -12.097,-37.879 -22.915,-36.543 -19.189,2.368 -50.897,32.14 -69.774,31.763 -17.415,-0.347 -24.474,-27.598 -24.474,-27.598 L 199.94,940.699 c 0,0 -6.953,33.445 -36.681,25.571 -36.802,-9.747 -18.225,-122.885 -49.467,-120.803 z m 81.855,108.328 104.595,104.596 c 0,0 16.81,37.731 37.356,35.113 20.547,-2.617 37.727,-20.542 51.55,-26.148 13.824,-5.605 19.423,4.486 11.581,22.414 -7.843,17.927 -29.888,39.973 -35.488,96.75 -5.6,56.777 107.955,143.821 78.82,226.375 -20.015,56.708 -132.425,78.008 -197.239,72.468 -56.781,-4.853 -199.854,-33.989 -208.443,-124.765 -5.543,-58.586 91.871,-130.436 96.75,-225.627 3.734,-72.842 -45.949,-165.11 -43.706,-214.794 2.243,-49.685 16.435,-54.911 18.677,-53.419 2.243,1.493 3.111,99.952 47.814,108.333 23.909,4.482 37.733,-21.296 37.733,-21.296 z"
         sodipodi:nodetypes="csscsccsccccccccccccscssssccc" /><path
         style="fill:#ba6e34"
         inkscape:connector-curvature="0"
         id="path21"
         d="m 265.175,1486.193 c -6.427,-0.062 -12.581,-0.337 -18.353,-0.831 -4.609,-0.394 -9.795,-0.95 -15.424,-1.685 l 0,10.938 c 2.962,0.27 5.935,0.508 8.924,0.692 8.454,0.521 16.735,0.828 24.853,0.94 l 0,-10.054 z" /><path
         style="fill:#b0642a"
         inkscape:connector-curvature="0"
         id="path23"
         d="m 265.175,1120.12 -33.776,0 0,363.558 c 5.629,0.734 10.814,1.291 15.424,1.685 5.771,0.494 11.926,0.77 18.353,0.831 l 0,-366.074 z" /><path
         style="fill:#ba6e34"
         inkscape:connector-curvature="0"
         id="path25"
         d="m 225.779,1494.052 0,-11.146 c -10.229,-1.477 -21.69,-3.513 -33.776,-6.211 l 0,11.74 c 10.964,2.456 22.249,4.353 33.776,5.617 z" /><path
         style="fill:#b0642a"
         inkscape:connector-curvature="0"
         id="path27"
         d="m 225.779,1482.906 0,-362.786 -33.776,0 0,356.575 c 12.086,2.699 23.548,4.735 33.776,6.211 z" /><path
         style="fill:#ba6e34"
         inkscape:connector-curvature="0"
         id="path29"
         d="m 270.795,1486.191 0,10.112 c 11.643,0.026 22.905,-0.387 33.776,-1.217 l 0,-11.002 c -11.639,1.309 -23.039,2.002 -33.776,2.107 z" /><path
         style="fill:#b0642a"
         inkscape:connector-curvature="0"
         id="path31"
         d="m 304.571,1484.085 0,-363.965 -33.776,0 0,366.071 c 10.737,-0.105 22.137,-0.798 33.776,-2.106 z" /><polygon
         style="fill:#11130e"
         id="polygon33"
         points="191.357,1123.521 305.223,1123.521 285.75,215.234 216.125,215.234 " /><polygon
         style="fill:#bbbcbf"
         id="polygon35"
         points="199,843.236 198.907,846.656 299.286,846.656 299.214,843.236 " /><polygon
         style="fill:#bbbcbf"
         id="polygon37"
         points="195.881,957.631 195.788,961.051 301.739,961.051 301.666,957.631 " /><polygon
         style="fill:#bbbcbf"
         id="polygon39"
         points="195.213,982.144 195.12,985.563 302.266,985.563 302.191,982.144 " /><polygon
         style="fill:#bbbcbf"
         id="polygon41"
         points="197.357,903.498 197.264,906.918 300.578,906.918 300.506,903.498 " /><polygon
         style="fill:#bbbcbf"
         id="polygon43"
         points="196.582,931.951 196.488,935.37 301.188,935.37 301.115,931.951 " /><polygon
         style="fill:#bbbcbf"
         id="polygon45"
         points="198.141,874.754 198.048,878.174 299.963,878.174 299.89,874.754 " /><polygon
         style="fill:#bbbcbf"
         id="polygon47"
         points="194.572,1005.636 194.479,1009.056 302.769,1009.056 302.695,1005.636 " /><polygon
         style="fill:#bbbcbf"
         id="polygon49"
         points="304.905,1108.712 304.832,1105.292 191.854,1105.292 191.761,1108.712 " /><polygon
         style="fill:#bbbcbf"
         id="polygon51"
         points="192.356,1086.907 192.262,1090.327 304.511,1090.327 304.438,1086.907 " /><polygon
         style="fill:#bbbcbf"
         id="polygon53"
         points="192.857,1068.522 192.764,1071.942 304.117,1071.942 304.044,1068.522 " /><polygon
         style="fill:#bbbcbf"
         id="polygon55"
         points="193.406,1048.387 193.313,1051.807 303.686,1051.807 303.611,1048.387 " /><polygon
         style="fill:#bbbcbf"
         id="polygon57"
         points="193.955,1028.252 193.862,1031.672 303.254,1031.672 303.18,1028.252 " /><polygon
         style="fill:#bbbcbf"
         id="polygon59"
         points="202.938,698.862 202.844,702.282 296.191,702.282 296.118,698.862 " /><polygon
         style="fill:#bbbcbf"
         id="polygon61"
         points="209.32,464.797 209.227,468.217 291.174,468.217 291.101,464.797 " /><polygon
         style="fill:#bbbcbf"
         id="polygon63"
         points="199.912,809.824 199.818,813.243 298.571,813.243 298.497,809.824 " /><polygon
         style="fill:#bbbcbf"
         id="polygon65"
         points="210.828,409.484 210.735,412.904 289.988,412.904 289.915,409.484 " /><polygon
         style="fill:#bbbcbf"
         id="polygon67"
         points="212.439,350.414 212.346,353.834 288.722,353.834 288.648,350.414 " /><polygon
         style="fill:#bbbcbf"
         id="polygon69"
         points="214.135,288.229 214.042,291.648 287.389,291.648 287.314,288.229 " /><polygon
         style="fill:#bbbcbf"
         id="polygon71"
         points="207.891,517.207 207.798,520.627 292.298,520.627 292.224,517.207 " /><polygon
         style="fill:#bbbcbf"
         id="polygon73"
         points="200.862,774.951 200.77,778.37 297.823,778.37 297.749,774.951 " /><polygon
         style="fill:#bbbcbf"
         id="polygon75"
         points="201.845,738.911 201.752,742.331 297.05,742.331 296.978,738.911 " /><polygon
         style="fill:#bbbcbf"
         id="polygon77"
         points="205.271,613.269 205.178,616.688 294.357,616.688 294.283,613.269 " /><polygon
         style="fill:#bbbcbf"
         id="polygon79"
         points="206.54,566.752 206.447,570.171 293.359,570.171 293.286,566.752 " /><polygon
         style="fill:#bbbcbf"
         id="polygon81"
         points="204.075,657.156 203.981,660.575 295.298,660.575 295.225,657.156 " /><polygon
         style="fill:#ededed"
         id="polygon83"
         points="196.601,931.237 196.507,934.657 301.174,934.657 301.1,931.237 " /><polygon
         style="fill:#ededed"
         id="polygon85"
         points="195.9,956.918 195.807,960.338 301.724,960.338 301.65,956.918 " /><polygon
         style="fill:#ededed"
         id="polygon87"
         points="195.232,981.431 195.139,984.851 302.25,984.851 302.177,981.431 " /><polygon
         style="fill:#ededed"
         id="polygon89"
         points="198.161,874.041 198.067,877.461 299.947,877.461 299.874,874.041 " /><polygon
         style="fill:#ededed"
         id="polygon91"
         points="197.376,902.785 197.283,906.205 300.563,906.205 300.49,902.785 " /><polygon
         style="fill:#ededed"
         id="polygon93"
         points="193.425,1047.674 193.332,1051.094 303.67,1051.094 303.597,1047.674 " /><polygon
         style="fill:#ededed"
         id="polygon95"
         points="194.591,1004.923 194.498,1008.343 302.753,1008.343 302.68,1004.923 " /><polygon
         style="fill:#ededed"
         id="polygon97"
         points="304.89,1107.999 304.816,1104.579 191.874,1104.579 191.78,1107.999 " /><polygon
         style="fill:#ededed"
         id="polygon99"
         points="192.375,1086.194 192.282,1089.614 304.496,1089.614 304.422,1086.194 " /><polygon
         style="fill:#ededed"
         id="polygon101"
         points="192.876,1067.81 192.783,1071.229 304.102,1071.229 304.028,1067.81 " /><polygon
         style="fill:#ededed"
         id="polygon103"
         points="199.02,842.523 198.927,845.943 299.272,845.943 299.198,842.523 " /><polygon
         style="fill:#ededed"
         id="polygon105"
         points="193.975,1027.539 193.881,1030.958 303.238,1030.958 303.165,1027.539 " /><polygon
         style="fill:#ededed"
         id="polygon107"
         points="200.882,774.237 200.789,777.657 297.808,777.657 297.734,774.237 " /><polygon
         style="fill:#ededed"
         id="polygon109"
         points="207.91,516.494 207.817,519.913 292.282,519.913 292.209,516.494 " /><polygon
         style="fill:#ededed"
         id="polygon111"
         points="209.34,464.084 209.246,467.504 291.159,467.504 291.085,464.084 " /><polygon
         style="fill:#ededed"
         id="polygon113"
         points="210.848,408.771 210.755,412.191 289.973,412.191 289.899,408.771 " /><polygon
         style="fill:#ededed"
         id="polygon115"
         points="214.154,287.516 214.061,290.936 287.373,290.936 287.3,287.516 " /><polygon
         style="fill:#ededed"
         id="polygon117"
         points="212.458,349.701 212.365,353.121 288.707,353.121 288.633,349.701 " /><polygon
         style="fill:#ededed"
         id="polygon119"
         points="204.094,656.443 204,659.862 295.282,659.862 295.209,656.443 " /><polygon
         style="fill:#ededed"
         id="polygon121"
         points="206.56,566.039 206.466,569.458 293.344,569.458 293.271,566.039 " /><polygon
         style="fill:#ededed"
         id="polygon123"
         points="202.957,698.149 202.864,701.569 296.177,701.569 296.104,698.149 " /><polygon
         style="fill:#ededed"
         id="polygon125"
         points="201.865,738.198 201.771,741.618 297.035,741.618 296.962,738.198 " /><polygon
         style="fill:#ededed"
         id="polygon127"
         points="199.931,809.11 199.838,812.53 298.556,812.53 298.482,809.11 " /><polygon
         style="fill:#ededed"
         id="polygon129"
         points="205.291,612.556 205.198,615.975 294.342,615.975 294.269,612.556 " /><g
         id="g133"><path
           d="m 320.18,1189.017 c 2.47,0 4.49,2.021 4.49,4.491 l 0,43.506 c 0,2.47 -2.021,4.49 -4.49,4.49 l -144.768,0 c -2.47,0 -4.491,-2.021 -4.491,-4.49 l 0,-43.506 c 0,-2.471 2.021,-4.491 4.491,-4.491 l 144.768,0 z"
           id="path135"
           inkscape:connector-curvature="0"
           style="fill:#2a2929" /></g><g
         id="g137"><path
           d="m 318.718,1189.016 c 2.407,0 4.377,1.97 4.377,4.377 l 0,41.633 c 0,2.407 -1.97,4.377 -4.377,4.377 l -143.419,0 c -2.408,0 -4.377,-1.97 -4.377,-4.377 l 0,-41.633 c 0,-2.407 1.97,-4.377 4.377,-4.377 l 143.419,0 z"
           id="path139"
           inkscape:connector-curvature="0"
           style="fill:#191d1e" /></g><circle
         cx="175.22"
         cy="1214.208"
         r="3.5439999"
         id="circle141"
         style="fill:#796b48" /><circle
         cx="318.79599"
         cy="1214.208"
         r="3.5439999"
         id="circle143"
         style="fill:#796b48" /><g
         id="g147"><path
           d="m 320.18,1303.702 c 2.47,0 4.49,2.021 4.49,4.491 l 0,43.506 c 0,2.47 -2.021,4.49 -4.49,4.49 l -144.768,0 c -2.47,0 -4.491,-2.021 -4.491,-4.49 l 0,-43.506 c 0,-2.471 2.021,-4.491 4.491,-4.491 l 144.768,0 z"
           id="path149"
           inkscape:connector-curvature="0"
           style="fill:#2a2929" /></g><g
         id="g151"><path
           d="m 318.718,1303.701 c 2.407,0 4.377,1.97 4.377,4.377 l 0,41.633 c 0,2.407 -1.97,4.377 -4.377,4.377 l -143.419,0 c -2.408,0 -4.377,-1.97 -4.377,-4.377 l 0,-41.633 c 0,-2.407 1.97,-4.377 4.377,-4.377 l 143.419,0 z"
           id="path153"
           inkscape:connector-curvature="0"
           style="fill:#191d1e" /></g><circle
         cx="175.22"
         cy="1328.894"
         r="3.5439999"
         id="circle155"
         style="fill:#796b48" /><circle
         cx="318.79599"
         cy="1328.894"
         r="3.5439999"
         id="circle157"
         style="fill:#796b48" /><circle
         cx="352.492"
         cy="1359.046"
         r="12.152"
         id="circle161"
         style="fill:#e3c292" /><circle
         cx="352.492"
         cy="1359.046"
         r="8.9569998"
         id="circle163"
         style="fill:#caaa6d" /><circle
         cx="378.34201"
         cy="1412.6949"
         r="12.151"
         id="circle167"
         style="fill:#e3c292" /><circle
         cx="378.34201"
         cy="1412.6949"
         r="8.9569998"
         id="circle169"
         style="fill:#caaa6d" /><circle
         cx="387.81"
         cy="1322.636"
         r="10.217"
         id="circle173"
         style="fill:#e3c292" /><circle
         cx="387.811"
         cy="1322.636"
         r="7.1900001"
         id="circle175"
         style="fill:#caaa6d" /><circle
         cx="369.38599"
         cy="1285.082"
         r="10.217"
         id="circle179"
         style="fill:#e3c292" /><circle
         cx="369.38699"
         cy="1285.082"
         r="7.1900001"
         id="circle181"
         style="fill:#caaa6d" /><circle
         cx="406.09399"
         cy="1359.859"
         r="10.218"
         id="circle185"
         style="fill:#e3c292" /><circle
         cx="406.095"
         cy="1359.858"
         r="7.1900001"
         id="circle187"
         style="fill:#caaa6d" /><path
         d="m 164.175,89.199 c 1.632,6.213 1.846,9.715 1.846,13.478 0,3.762 -0.214,7.264 -1.846,13.477 -2.105,8.014 6.557,10.28 9.683,6.209 3.635,-4.734 6.012,-9.334 9.375,-11.05 3.363,-1.716 10.061,-3.549 10.967,-3.6 2.516,-0.141 16.396,0.02 16.396,0.02 l 0,-10.113 c 0,0 -13.88,0.16 -16.396,0.02 -0.906,-0.05 -7.603,-1.883 -10.967,-3.599 -3.364,-1.717 -5.74,-6.315 -9.375,-11.051 -3.126,-4.071 -11.788,-1.804 -9.683,6.209 z"
         id="path191"
         inkscape:connector-curvature="0"
         style="fill:#d8c799" /><path
         d="m 173.858,122.362 c 3.635,-4.734 6.012,-9.334 9.375,-11.05 3.363,-1.716 10.061,-3.549 10.967,-3.6 2.516,-0.141 2.475,0.02 2.475,0.02 l 0,-5.056 -30.654,0 c 0,3.762 -0.214,7.264 -1.846,13.477 -2.105,8.014 6.557,10.281 9.683,6.209 z"
         id="path193"
         inkscape:connector-curvature="0"
         style="fill:#a28750" /><path
         d="m 194.953,107.687 c 0.662,-0.017 1.569,-0.025 2.622,-0.028 l 0,-9.964 c -1.052,-0.003 -1.96,-0.012 -2.622,-0.028 l 0,10.02 z"
         id="path195"
         inkscape:connector-curvature="0"
         style="fill:#59595b" /><path
         d="m 194.481,107.7 c 0.581,-0.021 1.504,-0.034 2.621,-0.04 l 0,-9.967 c -1.117,-0.007 -2.041,-0.02 -2.621,-0.041 l 0,10.048 z"
         id="path197"
         inkscape:connector-curvature="0"
         style="fill:#272525" /><path
         d="m 338.087,89.199 c -1.632,6.213 -1.846,9.715 -1.846,13.478 0,3.762 0.214,7.264 1.846,13.477 2.105,8.014 -6.556,10.28 -9.683,6.209 -3.635,-4.734 -6.012,-9.334 -9.376,-11.05 -3.363,-1.716 -10.06,-3.549 -10.966,-3.6 -2.517,-0.141 -16.396,0.02 -16.396,0.02 l 0,-10.113 c 0,0 13.879,0.16 16.396,0.02 0.906,-0.05 7.603,-1.883 10.966,-3.599 3.364,-1.717 5.741,-6.315 9.376,-11.051 3.127,-4.071 11.788,-1.804 9.683,6.209 z"
         id="path201"
         inkscape:connector-curvature="0"
         style="fill:#d8c799" /><path
         d="m 328.404,122.362 c -3.635,-4.734 -6.012,-9.334 -9.376,-11.05 -3.363,-1.716 -10.06,-3.549 -10.966,-3.6 -2.517,-0.141 -2.475,0.02 -2.475,0.02 l 0,-5.056 30.653,0 c 0,3.762 0.214,7.264 1.846,13.477 2.106,8.014 -6.555,10.281 -9.682,6.209 z"
         id="path203"
         inkscape:connector-curvature="0"
         style="fill:#a28750" /><path
         d="m 307.31,107.687 c -0.661,-0.017 -1.569,-0.025 -2.621,-0.028 l 0,-9.964 c 1.052,-0.003 1.96,-0.012 2.621,-0.028 l 0,10.02 z"
         id="path205"
         inkscape:connector-curvature="0"
         style="fill:#59595b" /><path
         d="m 307.781,107.7 c -0.58,-0.021 -1.505,-0.034 -2.621,-0.04 l 0,-9.967 c 1.116,-0.007 2.041,-0.02 2.621,-0.041 l 0,10.048 z"
         id="path207"
         inkscape:connector-curvature="0"
         style="fill:#272525" /><path
         d="m 172.054,36.434 c 1.632,6.213 1.846,9.715 1.846,13.478 0,3.763 -0.214,7.265 -1.846,13.478 -2.104,8.013 6.557,10.279 9.683,6.208 3.635,-4.734 6.012,-9.334 9.376,-11.05 3.364,-1.716 10.06,-3.549 10.966,-3.6 2.516,-0.14 16.396,0.02 16.396,0.02 l 0,-10.114 c 0,0 -13.88,0.16 -16.396,0.02 -0.906,-0.05 -7.603,-1.883 -10.966,-3.599 -3.363,-1.716 -5.741,-6.315 -9.376,-11.051 -3.126,-4.071 -11.788,-1.804 -9.683,6.21 z"
         id="path211"
         inkscape:connector-curvature="0"
         style="fill:#d8c799" /><path
         d="m 181.737,69.597 c 3.635,-4.734 6.012,-9.334 9.376,-11.05 3.364,-1.716 10.06,-3.549 10.966,-3.6 2.516,-0.14 2.475,0.02 2.475,0.02 l 0,-5.056 -30.654,0 c 0,3.763 -0.214,7.265 -1.846,13.478 -2.105,8.012 6.557,10.279 9.683,6.208 z"
         id="path213"
         inkscape:connector-curvature="0"
         style="fill:#a28750" /><path
         d="m 202.832,54.921 c 0.661,-0.017 1.569,-0.024 2.621,-0.028 l 0,-9.964 c -1.052,-0.003 -1.96,-0.012 -2.621,-0.027 l 0,10.019 z"
         id="path215"
         inkscape:connector-curvature="0"
         style="fill:#59595b" /><path
         d="m 202.36,54.935 c 0.581,-0.021 1.505,-0.034 2.622,-0.04 l 0,-9.967 c -1.117,-0.006 -2.041,-0.02 -2.622,-0.04 l 0,10.047 z"
         id="path217"
         inkscape:connector-curvature="0"
         style="fill:#272525" /><path
         d="m 330.208,36.434 c -1.632,6.213 -1.846,9.715 -1.846,13.478 0,3.763 0.214,7.265 1.846,13.478 2.105,8.013 -6.557,10.279 -9.683,6.208 -3.636,-4.734 -6.013,-9.334 -9.376,-11.05 -3.364,-1.716 -10.06,-3.549 -10.966,-3.6 -2.517,-0.14 -16.396,0.02 -16.396,0.02 l 0,-10.114 c 0,0 13.88,0.16 16.396,0.02 0.906,-0.05 7.602,-1.883 10.966,-3.599 3.363,-1.716 5.74,-6.315 9.376,-11.051 3.126,-4.071 11.788,-1.804 9.683,6.21 z"
         id="path221"
         inkscape:connector-curvature="0"
         style="fill:#d8c799" /><path
         d="m 320.525,69.597 c -3.636,-4.734 -6.013,-9.334 -9.376,-11.05 -3.364,-1.716 -10.06,-3.549 -10.966,-3.6 -2.517,-0.14 -2.476,0.02 -2.476,0.02 l 0,-5.056 30.654,0 c 0,3.763 0.214,7.265 1.846,13.478 2.106,8.012 -6.556,10.279 -9.682,6.208 z"
         id="path223"
         inkscape:connector-curvature="0"
         style="fill:#a28750" /><path
         d="m 299.431,54.921 c -0.661,-0.017 -1.569,-0.024 -2.622,-0.028 l 0,-9.964 c 1.053,-0.003 1.961,-0.012 2.622,-0.027 l 0,10.019 z"
         id="path225"
         inkscape:connector-curvature="0"
         style="fill:#59595b" /><path
         d="m 299.902,54.935 c -0.581,-0.021 -1.505,-0.034 -2.621,-0.04 l 0,-9.967 c 1.116,-0.006 2.04,-0.02 2.621,-0.04 l 0,10.047 z"
         id="path227"
         inkscape:connector-curvature="0"
         style="fill:#272525" /><path
         d="m 154.981,140.835 c 1.632,6.213 1.846,9.715 1.846,13.478 0,3.763 -0.213,7.265 -1.846,13.478 -2.104,8.013 6.557,10.279 9.683,6.208 3.635,-4.734 6.012,-9.334 9.376,-11.05 3.364,-1.716 10.06,-3.549 10.966,-3.6 2.516,-0.14 16.396,0.02 16.396,0.02 l 0,-10.112 c 0,0 -13.88,0.16 -16.396,0.021 -0.906,-0.051 -7.603,-1.884 -10.966,-3.6 -3.363,-1.716 -5.741,-6.315 -9.376,-11.051 -3.125,-4.071 -11.787,-1.806 -9.683,6.208 z"
         id="path231"
         inkscape:connector-curvature="0"
         style="fill:#d8c799" /><path
         d="m 164.665,173.998 c 3.635,-4.734 6.012,-9.334 9.376,-11.05 3.364,-1.716 10.06,-3.549 10.966,-3.6 2.516,-0.14 2.475,0.02 2.475,0.02 l 0,-5.056 -30.654,0 c 0,3.763 -0.213,7.265 -1.846,13.478 -2.105,8.013 6.557,10.279 9.683,6.208 z"
         id="path233"
         inkscape:connector-curvature="0"
         style="fill:#a28750" /><path
         d="m 185.76,159.322 c 0.661,-0.017 1.569,-0.024 2.621,-0.028 l 0,-9.963 c -1.052,-0.004 -1.96,-0.013 -2.621,-0.028 l 0,10.019 z"
         id="path235"
         inkscape:connector-curvature="0"
         style="fill:#59595b" /><path
         d="m 185.288,159.336 c 0.581,-0.021 1.505,-0.034 2.621,-0.04 l 0,-9.967 c -1.116,-0.006 -2.041,-0.019 -2.621,-0.04 l 0,10.047 z"
         id="path237"
         inkscape:connector-curvature="0"
         style="fill:#272525" /><path
         d="m 347.28,140.835 c -1.633,6.213 -1.847,9.715 -1.847,13.478 0,3.763 0.214,7.265 1.847,13.478 2.105,8.013 -6.557,10.279 -9.683,6.208 -3.636,-4.734 -6.012,-9.334 -9.376,-11.05 -3.364,-1.716 -10.061,-3.549 -10.967,-3.6 -2.516,-0.14 -16.396,0.02 -16.396,0.02 l 0,-10.112 c 0,0 13.881,0.16 16.396,0.021 0.906,-0.051 7.603,-1.884 10.967,-3.6 3.364,-1.716 5.74,-6.315 9.376,-11.051 3.127,-4.071 11.789,-1.806 9.683,6.208 z"
         id="path241"
         inkscape:connector-curvature="0"
         style="fill:#d8c799" /><path
         d="m 337.598,173.998 c -3.636,-4.734 -6.012,-9.334 -9.376,-11.05 -3.364,-1.716 -10.061,-3.549 -10.967,-3.6 -2.516,-0.14 -2.475,0.02 -2.475,0.02 l 0,-5.056 30.653,0 c 0,3.763 0.214,7.265 1.847,13.478 2.106,8.013 -6.556,10.279 -9.682,6.208 z"
         id="path243"
         inkscape:connector-curvature="0"
         style="fill:#a28750" /><path
         d="m 316.503,159.322 c -0.662,-0.017 -1.57,-0.024 -2.621,-0.028 l 0,-9.963 c 1.051,-0.004 1.959,-0.013 2.621,-0.028 l 0,10.019 z"
         id="path245"
         inkscape:connector-curvature="0"
         style="fill:#59595b" /><path
         d="m 316.975,159.336 c -0.581,-0.021 -1.505,-0.034 -2.621,-0.04 l 0,-9.967 c 1.116,-0.006 2.04,-0.019 2.621,-0.04 l 0,10.047 z"
         id="path247"
         inkscape:connector-curvature="0"
         style="fill:#272525" /><path
         style="fill:#76391c"
         inkscape:connector-curvature="0"
         id="path249"
         d="m 285.75,215.234 c 0,0 2.155,-13.003 9.06,-23.393 6.903,-10.39 15.479,-14.793 15.942,-18.502 0.464,-3.709 -13.241,-43.29 -17.167,-83.067 -3.924,-39.776 0.888,-81.566 1.575,-88.125 0.688,-6.558 -24.649,3.526 -35.029,8.603 -2.432,1.189 -6.95,-2.742 -9.024,-2.742 -2.074,0 -6.544,3.932 -8.976,2.742 -10.38,-5.076 -35.717,-15.16 -35.029,-8.603 0.688,6.559 5.5,48.349 1.575,88.125 -3.925,39.777 -17.631,79.358 -17.167,83.067 0.464,3.709 9.04,8.112 15.943,18.502 6.903,10.39 8.672,23.393 8.672,23.393 l 69.625,0 z" /><path
         style="fill:#272525"
         inkscape:connector-curvature="0"
         id="path251"
         d="m 252.388,159.614 c -1.104,0 -13.482,8.581 -21.021,23.146 -8.248,15.936 -10.067,34.601 -10.067,34.601 l 62.176,0 c 0,0 -1.819,-18.665 -10.067,-34.601 -7.539,-14.565 -19.918,-23.146 -21.021,-23.146 z" /><polygon
         style="fill:#434244"
         id="polygon253"
         points="285.948,224.489 285.794,217.267 216.07,217.267 215.873,224.489 " /><polygon
         style="fill:#59595b"
         id="polygon255"
         points="285.93,223.614 285.775,216.392 216.094,216.392 215.897,223.614 " /><circle
         cx="216.98801"
         cy="157.60899"
         r="12.177"
         id="circle259"
         style="fill:#d0b77f" /><polygon
         points="226.646,157.242 221.817,165.607 212.158,165.607 207.329,157.242 "
         id="polygon261"
         style="opacity:0.5;fill:#272525" /><polygon
         points="225.632,157.14 221.311,164.624 212.666,164.624 208.344,157.14 "
         id="polygon263"
         style="fill:#caaa6d" /><path
         d="m 216.988,169.786 c 6.724,0 12.177,-5.453 12.177,-12.177 l -24.354,0 c 0,6.724 5.452,12.177 12.177,12.177 z"
         id="path265"
         inkscape:connector-curvature="0"
         style="opacity:0.1;fill:#272525" /><ellipse
         cx="216.98801"
         cy="155.509"
         rx="5.6199999"
         ry="6.1459999"
         id="ellipse267"
         style="opacity:0.5;fill:#272525" /><circle
         cx="285.27399"
         cy="157.60899"
         r="12.177"
         id="circle271"
         style="fill:#d0b77f" /><polygon
         points="294.933,157.242 290.104,165.607 280.444,165.607 275.616,157.242 "
         id="polygon273"
         style="opacity:0.5;fill:#272525" /><polygon
         points="293.918,157.14 289.597,164.624 280.951,164.624 276.63,157.14 "
         id="polygon275"
         style="fill:#caaa6d" /><path
         d="m 285.275,169.786 c 6.723,0 12.176,-5.453 12.176,-12.177 l -24.354,0 c 0,6.724 5.452,12.177 12.178,12.177 z"
         id="path277"
         inkscape:connector-curvature="0"
         style="opacity:0.1;fill:#272525" /><ellipse
         cx="285.27399"
         cy="155.509"
         rx="5.6199999"
         ry="6.1459999"
         id="ellipse279"
         style="opacity:0.5;fill:#272525" /><circle
         cx="226.17999"
         cy="105.771"
         r="12.177"
         id="circle283"
         style="fill:#d0b77f" /><polygon
         points="235.839,105.403 231.01,113.769 221.351,113.769 216.521,105.403 "
         id="polygon285"
         style="opacity:0.5;fill:#272525" /><polygon
         points="234.824,105.301 230.503,112.785 221.857,112.785 217.537,105.301 "
         id="polygon287"
         style="fill:#caaa6d" /><path
         d="m 226.181,117.947 c 6.724,0 12.177,-5.453 12.177,-12.177 l -24.354,0 c -0.001,6.724 5.451,12.177 12.177,12.177 z"
         id="path289"
         inkscape:connector-curvature="0"
         style="opacity:0.1;fill:#272525" /><ellipse
         cx="226.17999"
         cy="103.67"
         rx="5.619"
         ry="6.1459999"
         id="ellipse291"
         style="opacity:0.5;fill:#272525" /><circle
         cx="276.08099"
         cy="105.771"
         r="12.177"
         id="circle295"
         style="fill:#d0b77f" /><polygon
         points="285.74,105.403 280.91,113.769 271.251,113.769 266.423,105.403 "
         id="polygon297"
         style="opacity:0.5;fill:#272525" /><polygon
         points="284.726,105.301 280.404,112.785 271.759,112.785 267.438,105.301 "
         id="polygon299"
         style="fill:#caaa6d" /><path
         d="m 276.082,117.947 c 6.724,0 12.176,-5.453 12.176,-12.177 l -24.354,0 c 0,6.724 5.452,12.177 12.178,12.177 z"
         id="path301"
         inkscape:connector-curvature="0"
         style="opacity:0.1;fill:#272525" /><ellipse
         cx="276.08099"
         cy="103.67"
         rx="5.6199999"
         ry="6.1459999"
         id="ellipse303"
         style="opacity:0.5;fill:#272525" /><circle
         cx="233.62199"
         cy="55.388"
         r="12.177"
         id="circle307"
         style="fill:#d0b77f" /><polygon
         points="243.28,55.021 238.451,63.386 228.792,63.386 223.963,55.021 "
         id="polygon309"
         style="opacity:0.5;fill:#272525" /><polygon
         points="242.266,54.918 237.944,62.402 229.299,62.402 224.978,54.918 "
         id="polygon311"
         style="fill:#caaa6d" /><path
         d="m 233.622,67.564 c 6.724,0 12.177,-5.452 12.177,-12.177 l -24.354,0 c -0.001,6.725 5.451,12.177 12.177,12.177 z"
         id="path313"
         inkscape:connector-curvature="0"
         style="opacity:0.1;fill:#272525" /><ellipse
         cx="233.621"
         cy="53.286999"
         rx="5.619"
         ry="6.1459999"
         id="ellipse315"
         style="opacity:0.5;fill:#272525" /><circle
         cx="268.64001"
         cy="55.388"
         r="12.177"
         id="circle319"
         style="fill:#d0b77f" /><polygon
         points="278.299,55.021 273.47,63.386 263.811,63.386 258.982,55.021 "
         id="polygon321"
         style="opacity:0.5;fill:#272525" /><polygon
         points="277.284,54.918 272.963,62.402 264.317,62.402 259.996,54.918 "
         id="polygon323"
         style="fill:#caaa6d" /><path
         d="m 268.642,67.564 c 6.723,0 12.176,-5.452 12.176,-12.177 l -24.354,0 c -10e-4,6.725 5.451,12.177 12.178,12.177 z"
         id="path325"
         inkscape:connector-curvature="0"
         style="opacity:0.1;fill:#272525" /><ellipse
         cx="268.64001"
         cy="53.286999"
         rx="5.6199999"
         ry="6.1459999"
         id="ellipse327"
         style="opacity:0.5;fill:#272525" /><circle
         style="fill:#929496"
         id="circle329"
         r="4.0370002"
         cy="380.94699"
         cx="224.48399" /><circle
         style="fill:#929496"
         id="circle331"
         r="4.0359998"
         cy="491.99899"
         cx="222.73399" /><circle
         style="fill:#929496"
         id="circle333"
         r="4.0370002"
         cy="591.00598"
         cx="220.983" /><circle
         style="fill:#929496"
         id="circle335"
         r="4.0359998"
         cy="679.00598"
         cx="219.23199" /><circle
         style="fill:#929496"
         id="circle337"
         r="4.0359998"
         cy="793.38397"
         cx="216.606" /><circle
         style="fill:#929496"
         id="circle339"
         r="4.0359998"
         cy="793.38397"
         cx="234.99001" /><circle
         style="fill:#929496"
         id="circle341"
         r="4.0359998"
         cy="890.12299"
         cx="215.73" /><circle
         style="fill:#929496"
         id="circle343"
         r="4.0359998"
         cy="945.78802"
         cx="214.855" /><circle
         style="fill:#929496"
         id="circle345"
         r="4.0359998"
         cy="994.88702"
         cx="213.979" /><circle
         style="fill:#929496"
         id="circle347"
         r="4.0359998"
         cy="1039.316"
         cx="213.104" /><circle
         style="fill:#929496"
         id="circle349"
         r="4.0359998"
         cy="1097.097"
         cx="212.229" /><circle
         style="fill:#929496"
         id="circle351"
         r="4.0359998"
         cy="1097.097"
         cx="232.364" /><circle
         style="fill:#929496"
         id="circle353"
         r="4.0359998"
         cy="1097.097"
         cx="250.74899" /><rect
         x="184.558"
         y="1393.797"
         width="16.538"
         height="32.48"
         id="rect357"
         style="fill:#594017" /><rect
         x="184.558"
         y="1406.658"
         width="16.538"
         height="1.575"
         id="rect359"
         style="fill:#b3a274" /><rect
         x="184.558"
         y="1426.1429"
         width="16.538"
         height="23.368999"
         id="rect361"
         style="fill:#2e2916" /><rect
         x="184.558"
         y="1423.516"
         width="16.538"
         height="2.777"
         id="rect363"
         style="fill:#f8e3b6" /><rect
         x="184.558"
         y="1415.254"
         width="16.538"
         height="8.4119997"
         id="rect365"
         style="fill:#b18f4f" /><rect
         x="184.558"
         y="1410.877"
         width="16.538"
         height="4.7280002"
         id="rect367"
         style="fill:#2d2f2c" /><circle
         cx="192.827"
         cy="1435.028"
         r="5.8520002"
         id="circle369"
         style="fill:#a3894c" /><rect
         x="205.744"
         y="1393.797"
         width="16.538"
         height="32.48"
         id="rect371"
         style="fill:#594017" /><rect
         x="205.744"
         y="1409.2841"
         width="16.538"
         height="1.576"
         id="rect373"
         style="fill:#b3a274" /><rect
         x="205.744"
         y="1426.1429"
         width="16.538"
         height="23.368999"
         id="rect375"
         style="fill:#2e2916" /><rect
         x="205.744"
         y="1426.1429"
         width="16.538"
         height="2.776"
         id="rect377"
         style="fill:#f8e3b6" /><rect
         x="205.744"
         y="1417.88"
         width="16.538"
         height="8.4130001"
         id="rect379"
         style="fill:#b18f4f" /><rect
         x="205.744"
         y="1413.5031"
         width="16.538"
         height="4.7280002"
         id="rect381"
         style="fill:#2d2f2c" /><circle
         cx="214.013"
         cy="1435.028"
         r="5.8520002"
         id="circle383"
         style="fill:#a3894c" /><rect
         x="226.92999"
         y="1393.797"
         width="16.538"
         height="32.48"
         id="rect385"
         style="fill:#594017" /><rect
         x="226.92999"
         y="1397.903"
         width="16.538"
         height="1.576"
         id="rect387"
         style="fill:#b3a274" /><rect
         x="226.92999"
         y="1426.1429"
         width="16.538"
         height="23.368999"
         id="rect389"
         style="fill:#2e2916" /><rect
         x="226.92999"
         y="1414.762"
         width="16.538"
         height="2.776"
         id="rect391"
         style="fill:#f8e3b6" /><rect
         x="226.92999"
         y="1406.499"
         width="16.538"
         height="8.4130001"
         id="rect393"
         style="fill:#b18f4f" /><rect
         x="226.92999"
         y="1402.1219"
         width="16.538"
         height="4.7280002"
         id="rect395"
         style="fill:#2d2f2c" /><circle
         cx="235.19901"
         cy="1435.028"
         r="5.8520002"
         id="circle397"
         style="fill:#a3894c" /><rect
         x="248.116"
         y="1393.797"
         width="16.537001"
         height="32.48"
         id="rect399"
         style="fill:#594017" /><rect
         x="248.116"
         y="1396.152"
         width="16.537001"
         height="1.576"
         id="rect401"
         style="fill:#b3a274" /><rect
         x="248.116"
         y="1426.1429"
         width="16.537001"
         height="23.368999"
         id="rect403"
         style="fill:#2e2916" /><rect
         x="248.116"
         y="1413.011"
         width="16.537001"
         height="2.776"
         id="rect405"
         style="fill:#f8e3b6" /><rect
         x="248.116"
         y="1404.748"
         width="16.537001"
         height="8.4130001"
         id="rect407"
         style="fill:#b18f4f" /><rect
         x="248.116"
         y="1400.371"
         width="16.537001"
         height="4.7280002"
         id="rect409"
         style="fill:#2d2f2c" /><circle
         cx="256.38501"
         cy="1435.028"
         r="5.8520002"
         id="circle411"
         style="fill:#a3894c" /><rect
         x="269.302"
         y="1393.797"
         width="16.538"
         height="32.48"
         id="rect413"
         style="fill:#594017" /><rect
         x="269.302"
         y="1394.401"
         width="16.538"
         height="1.576"
         id="rect415"
         style="fill:#b3a274" /><rect
         x="269.302"
         y="1426.1429"
         width="16.538"
         height="23.368999"
         id="rect417"
         style="fill:#2e2916" /><rect
         x="269.302"
         y="1411.26"
         width="16.538"
         height="2.776"
         id="rect419"
         style="fill:#f8e3b6" /><rect
         x="269.302"
         y="1402.9969"
         width="16.538"
         height="8.4130001"
         id="rect421"
         style="fill:#b18f4f" /><rect
         x="269.302"
         y="1398.62"
         width="16.538"
         height="4.7280002"
         id="rect423"
         style="fill:#2d2f2c" /><circle
         cx="277.57101"
         cy="1435.028"
         r="5.8520002"
         id="circle425"
         style="fill:#a3894c" /><rect
         x="290.48801"
         y="1393.797"
         width="16.538"
         height="32.48"
         id="rect427"
         style="fill:#594017" /><rect
         x="290.48801"
         y="1397.028"
         width="16.538"
         height="1.575"
         id="rect429"
         style="fill:#b3a274" /><rect
         x="290.48801"
         y="1426.1429"
         width="16.538"
         height="23.368999"
         id="rect431"
         style="fill:#2e2916" /><rect
         x="290.48801"
         y="1413.886"
         width="16.538"
         height="2.777"
         id="rect433"
         style="fill:#f8e3b6" /><rect
         x="290.48801"
         y="1405.624"
         width="16.538"
         height="8.4119997"
         id="rect435"
         style="fill:#b18f4f" /><rect
         x="290.48801"
         y="1401.246"
         width="16.538"
         height="4.7290001"
         id="rect437"
         style="fill:#2d2f2c" /><circle
         cx="298.758"
         cy="1435.028"
         r="5.8520002"
         id="circle439"
         style="fill:#a3894c" /><rect
         x="185.492"
         y="1448.759"
         width="119.382"
         height="8.0629997"
         id="rect441"
         style="fill:#756238" /><g
         id="g443"><path
           d="m 253.648,1439.701 c -3.214,-0.993 -5.566,-3.999 -5.566,-7.529 l 0,-38.397 -4.578,0 0,38.397 c 0,3.53 -2.353,6.536 -5.567,7.529 l 0,20.508 15.712,0 0,-20.508 z"
           id="path445"
           inkscape:connector-curvature="0"
           style="fill:#a28750" /><path
           d="m 274.835,1439.701 c -3.214,-0.993 -5.567,-3.999 -5.567,-7.529 l 0,-38.397 -4.577,0 0,38.397 c 0,3.53 -2.353,6.536 -5.568,7.529 l 0,20.508 15.713,0 0,-20.508 z"
           id="path447"
           inkscape:connector-curvature="0"
           style="fill:#a28750" /><path
           d="m 195.564,1439.701 0,20.508 15.713,0 0,-20.508 c -3.215,-0.993 -5.568,-3.999 -5.568,-7.529 l 0,-38.397 -4.577,0 0,38.397 c 0,3.53 -2.353,6.536 -5.568,7.529 z"
           id="path449"
           inkscape:connector-curvature="0"
           style="fill:#a28750" /><path
           d="m 232.463,1439.701 c -3.215,-0.993 -5.567,-3.999 -5.567,-7.529 l 0,-38.397 -4.577,0 0,38.397 c 0,3.53 -2.353,6.536 -5.567,7.529 l 0,20.508 15.712,0 0,-20.508 z"
           id="path451"
           inkscape:connector-curvature="0"
           style="fill:#a28750" /><path
           d="m 307.063,1432.172 c 0,3.53 -2.354,6.536 -5.568,7.529 l 0,20.508 9.512,0 c 2.889,0 5.253,-2.363 5.253,-5.253 l 0,-55.929 c 0,-2.889 -2.364,-5.253 -5.253,-5.253 l -3.943,0 0,38.398 z"
           id="path453"
           inkscape:connector-curvature="0"
           style="fill:#a28750" /><path
           d="m 296.021,1439.701 c -3.215,-0.993 -5.567,-3.999 -5.567,-7.529 l 0,-38.397 -4.577,0 0,38.397 c 0,3.53 -2.353,6.536 -5.568,7.529 l 0,20.508 15.713,0 0,-20.508 z"
           id="path455"
           inkscape:connector-curvature="0"
           style="fill:#a28750" /><path
           d="m 190.091,1439.701 c -3.215,-0.993 -5.568,-3.999 -5.568,-7.529 l 0,-38.397 -4.184,0 c -2.889,0 -5.253,2.364 -5.253,5.253 l 0,55.929 c 0,2.89 2.364,5.253 5.253,5.253 l 9.751,0 0,-20.509 z"
           id="path457"
           inkscape:connector-curvature="0"
           style="fill:#a28750" /></g><polygon
         style="fill:#bbbcbf"
         id="polygon459"
         points="194.98,1447.291 191.479,1447.291 221.865,216.393 218.81,151.662 222.312,151.662 225.366,216.393 " /><polygon
         style="fill:#bbbcbf"
         id="polygon461"
         points="215.828,1448.816 212.659,1448.816 234.485,217.917 228.002,97.535 231.171,99.06 237.655,217.918 " /><polygon
         style="fill:#bbbcbf"
         id="polygon463"
         points="236.589,1447.24 233.823,1447.24 246.81,216.392 236.271,48.588 239.038,48.588 249.574,216.393 " /><polygon
         style="fill:#bbbcbf"
         id="polygon465"
         points="257.601,1447.24 255.333,1447.24 258.69,216.392 264.089,49.644 266.355,49.644 260.958,216.392 " /><polygon
         style="fill:#bbbcbf"
         id="polygon467"
         points="278.611,1447.24 276.625,1447.24 270.219,216.392 271.216,103.908 273.203,103.908 272.206,216.392 " /><polygon
         style="fill:#bbbcbf"
         id="polygon469"
         points="298.747,1447.24 297.134,1447.24 280.232,216.392 280.232,153.192 281.846,153.192 281.185,216.392 " /><polyline
         style="fill:none"
         id="polyline471"
         points="234.47,217.267 237.639,217.267 246.799,217.267 249.565,217.267 258.688,217.267 260.955,217.267    270.223,217.267 272.21,217.267  " /><circle
         cx="216.98801"
         cy="153.192"
         r="5.6199999"
         id="circle475"
         style="fill:#efd9aa" /><path
         d="m 216.988,158.813 c 3.103,0 5.619,-2.516 5.619,-5.621 l -11.239,0 c 0,3.106 2.516,5.621 5.62,5.621 z"
         id="path477"
         inkscape:connector-curvature="0"
         style="opacity:0.1;fill:#272525" /><circle
         cx="285.27399"
         cy="153.192"
         r="5.6199999"
         id="circle481"
         style="fill:#efd9aa" /><path
         d="m 285.275,158.813 c 3.102,0 5.618,-2.516 5.618,-5.621 l -11.239,0 c 0,3.106 2.516,5.621 5.621,5.621 z"
         id="path483"
         inkscape:connector-curvature="0"
         style="opacity:0.1;fill:#272525" /><circle
         cx="226.17999"
         cy="101.354"
         r="5.619"
         id="circle487"
         style="fill:#efd9aa" /><path
         d="m 226.181,106.975 c 3.103,0 5.618,-2.516 5.618,-5.621 l -11.238,0 c 0,3.105 2.515,5.621 5.62,5.621 z"
         id="path489"
         inkscape:connector-curvature="0"
         style="opacity:0.1;fill:#272525" /><circle
         cx="276.08099"
         cy="101.354"
         r="5.6199999"
         id="circle493"
         style="fill:#efd9aa" /><path
         d="m 276.082,106.975 c 3.103,0 5.618,-2.516 5.618,-5.621 l -11.239,0 c 0,3.105 2.517,5.621 5.621,5.621 z"
         id="path495"
         inkscape:connector-curvature="0"
         style="opacity:0.1;fill:#272525" /><circle
         cx="233.621"
         cy="50.971001"
         r="5.619"
         id="circle499"
         style="fill:#efd9aa" /><path
         d="m 233.622,56.593 c 3.103,0 5.618,-2.517 5.618,-5.622 l -11.238,0 c 0,3.105 2.516,5.622 5.62,5.622 z"
         id="path501"
         inkscape:connector-curvature="0"
         style="opacity:0.1;fill:#272525" /><circle
         cx="268.64001"
         cy="50.971001"
         r="5.6199999"
         id="circle505"
         style="fill:#efd9aa" /><path
         d="m 268.642,56.593 c 3.102,0 5.618,-2.517 5.618,-5.622 l -11.239,0 c 0,3.105 2.515,5.622 5.621,5.622 z"
         id="path507"
         inkscape:connector-curvature="0"
         style="opacity:0.1;fill:#272525" /><path
         style="opacity:0.2;fill:#ffffff"
         inkscape:connector-curvature="0"
         id="path509"
         d="m 123.507,1138.603 c -10.527,89.989 -88.151,172.994 -83.707,203.199 12.378,-55.048 90.959,-121.576 95.33,-206.831 3.734,-72.842 -45.949,-165.11 -43.706,-214.794 1.917,-42.465 12.561,-52.451 17.015,-53.525 0.093,-0.866 0.143,-1.626 0.143,-2.26 0,-10.066 -7.138,-9.414 -13.884,1.041 -8.329,12.908 -15.443,56.318 -8.518,87.787 6.046,27.474 44.601,123.208 37.327,185.383 z" /><path
         style="opacity:0.1;fill:#ffffff"
         inkscape:connector-curvature="0"
         id="path511"
         d="m 120.665,861.154 c -0.523,-8.109 -6.802,-1.176 -7.979,4.317 -0.424,1.979 -0.877,6.728 -1.209,10.745 0.654,6.177 1.589,14.874 3.166,24.588 l 4.088,20.189 c 5.8,23.258 16.046,46.558 34.832,52.947 -5.607,-7.769 -13.479,-20.26 -19.686,-36.266 -10.857,-27.99 -12.361,-63.324 -13.212,-76.52 z" /><path
         style="opacity:0.1;fill:#ffffff"
         inkscape:connector-curvature="0"
         id="path513"
         d="m 372.345,1148.956 c -3.112,10.558 -5.657,22.9 -7.104,37.563 -5.17,52.409 91.185,130.607 83.127,207.256 0,0 2.926,-10.07 2.516,-23.504 -0.954,-31.237 -64.456,-127.195 -74.417,-157.33 -5.734,-17.345 -5.195,-44.171 -4.122,-63.985 z" /><path
         style="opacity:0.2;fill:#ffffff"
         inkscape:connector-curvature="0"
         id="path515"
         d="m 302.646,1062.604 0.369,1.316 c 5.285,9.816 17.581,29.3 32.075,29.702 -11.147,-5.813 -19.123,-12.388 -22.81,-17.016 -1.833,-2.3 -9.634,-14.002 -9.634,-14.002 z" /><path
         style="opacity:0.2;fill:#ffffff"
         inkscape:connector-curvature="0"
         id="path517"
         d="m 133.66,1459.01 c 24.093,14.398 93.005,28.142 111.926,28.99 142.913,6.415 186.427,-54.937 186.427,-54.937 -36.151,41.577 -128.728,57.125 -185.19,52.299 -26.442,-2.259 -71.592,-9.79 -113.163,-26.352 z" /></g></g></svg>