<?xml version="1.0" encoding="UTF-8" standalone="no"?>
<!-- Created with Inkscape (http://www.inkscape.org/) -->

<svg
   xmlns:dc="http://purl.org/dc/elements/1.1/"
   xmlns:cc="http://creativecommons.org/ns#"
   xmlns:rdf="http://www.w3.org/1999/02/22-rdf-syntax-ns#"
   xmlns:svg="http://www.w3.org/2000/svg"
   xmlns="http://www.w3.org/2000/svg"
   xmlns:sodipodi="http://sodipodi.sourceforge.net/DTD/sodipodi-0.dtd"
   xmlns:inkscape="http://www.inkscape.org/namespaces/inkscape"
   width="744.09448819"
   height="1052.3622047"
   id="svg2"
   version="1.1"
   inkscape:version="0.48.5 r10040"
   sodipodi:docname="guitar_headstock.svg">
  <defs
     id="defs4" />
  <sodipodi:namedview
     id="base"
     pagecolor="#ffffff"
     bordercolor="#666666"
     borderopacity="1.0"
     inkscape:pageopacity="0.0"
     inkscape:pageshadow="2"
     inkscape:zoom="0.7"
     inkscape:cx="277.83012"
     inkscape:cy="546.92793"
     inkscape:document-units="px"
     inkscape:current-layer="layer1"
     showgrid="false"
     inkscape:window-width="1680"
     inkscape:window-height="988"
     inkscape:window-x="-8"
     inkscape:window-y="-8"
     inkscape:window-maximized="1" />
  <metadata
     id="metadata7">
    <rdf:RDF>
      <cc:Work
         rdf:about="">
        <dc:format>image/svg+xml</dc:format>
        <dc:type
           rdf:resource="http://purl.org/dc/dcmitype/StillImage" />
        <dc:title />
      </cc:Work>
    </rdf:RDF>
  </metadata>
  <g
     inkscape:label="Layer 1"
     inkscape:groupmode="layer"
     id="layer1">
    <path
       style="fill:none;stroke:#e97c15;stroke-width:15;stroke-linecap:butt;stroke-linejoin:miter;stroke-opacity:1;stroke-miterlimit:4;stroke-dasharray:none"
       d="m 244.82143,956.46933 c 0,0 3.66988,-27.76923 -16.42857,-58.57143 -16.44405,-20.58553 -25.16029,-28.01744 -46.96429,-49.82144 -7.35619,-6.34604 -6.81634,-18.1889 -6.63777,-23.1889 C 174.96937,817.56613 372.14286,151.6479 372.14286,151.6479 410,45.933611 631.4123,25.923004 634.28571,238.07646 c -9.59645,93.43911 -117.12798,105.13488 -125.71428,152.10697 -9.59645,30.80965 53.70586,127.31024 94.17187,278.33143 9.22183,48.12642 0.17398,99.51458 -1.06962,101.66857 0,0 -70.74103,-3.3031 -125.51034,52.08159 -36.46356,36.46356 -47.08683,75.56379 -46.58176,133.64756 z"
       id="path2996"
       inkscape:connector-curvature="0"
       sodipodi:nodetypes="cccccccccccc" />
    <path
       sodipodi:type="arc"
       style="fill:none;stroke:#e97c15;stroke-opacity:1;stroke-width:37.81105739000000200;stroke-miterlimit:4;stroke-dasharray:none"
       id="path3774"
       sodipodi:cx="415.71429"
       sodipodi:cy="273.07648"
       sodipodi:rx="38.57143"
       sodipodi:ry="38.57143"
       d="m 454.28572,273.07648 a 38.57143,38.57143 0 1 1 -77.14286,0 38.57143,38.57143 0 1 1 77.14286,0 z"
       transform="matrix(0.39670935,0,0,0.39670935,174.36798,364.0302)" />
    <path
       sodipodi:type="arc"
       style="fill:none;stroke:#e97c15;stroke-width:37.81105739000000200;stroke-miterlimit:4;stroke-opacity:1;stroke-dasharray:none"
       id="path3774-5"
       sodipodi:cx="415.71429"
       sodipodi:cy="273.07648"
       sodipodi:rx="38.57143"
       sodipodi:ry="38.57143"
       d="m 454.28572,273.07648 a 38.57143,38.57143 0 1 1 -77.14286,0 38.57143,38.57143 0 1 1 77.14286,0 z"
       transform="matrix(0.39670935,0,0,0.39670935,142.22511,471.17305)" />
    <path
       sodipodi:type="arc"
       style="fill:none;stroke:#e97c15;stroke-width:37.81105739000000200;stroke-miterlimit:4;stroke-opacity:1;stroke-dasharray:none"
       id="path3774-2"
       sodipodi:cx="415.71429"
       sodipodi:cy="273.07648"
       sodipodi:rx="38.57143"
       sodipodi:ry="38.57143"
       d="m 454.28572,273.07648 a 38.57143,38.57143 0 1 1 -77.14286,0 38.57143,38.57143 0 1 1 77.14286,0 z"
       transform="matrix(0.39670935,0,0,0.39670935,109.36797,575.45876)" />
    <path
       sodipodi:type="arc"
       style="fill:none;stroke:#e97c15;stroke-width:37.81105739000000200;stroke-miterlimit:4;stroke-opacity:1;stroke-dasharray:none"
       id="path3774-3"
       sodipodi:cx="415.71429"
       sodipodi:cy="273.07648"
       sodipodi:rx="38.57143"
       sodipodi:ry="38.57143"
       d="m 454.28572,273.07648 a 38.57143,38.57143 0 1 1 -77.14286,0 38.57143,38.57143 0 1 1 77.14286,0 z"
       transform="matrix(0.39670935,0,0,0.39670935,80.082252,679.03019)" />
    <path
       sodipodi:type="arc"
       style="fill:none;stroke:#e97c15;stroke-width:37.81105739000000200;stroke-miterlimit:4;stroke-opacity:1;stroke-dasharray:none"
       id="path3774-1"
       sodipodi:cx="415.71429"
       sodipodi:cy="273.07648"
       sodipodi:rx="38.57143"
       sodipodi:ry="38.57143"
       d="m 454.28572,273.07648 a 38.57143,38.57143 0 1 1 -77.14286,0 38.57143,38.57143 0 1 1 77.14286,0 z"
       transform="matrix(0.39670935,0,0,0.39670935,203.65368,256.88733)" />
    <path
       sodipodi:type="arc"
       style="fill:none;stroke:#e97c15;stroke-width:37.81105739000000200;stroke-miterlimit:4;stroke-opacity:1;stroke-dasharray:none"
       id="path3774-6"
       sodipodi:cx="415.71429"
       sodipodi:cy="273.07648"
       sodipodi:rx="38.57143"
       sodipodi:ry="38.57143"
       d="m 454.28572,273.07648 a 38.57143,38.57143 0 1 1 -77.14286,0 38.57143,38.57143 0 1 1 77.14286,0 z"
       transform="matrix(0.39670935,0,0,0.39670935,235.08225,147.60162)" />
    <path
       sodipodi:type="arc"
       style="fill:none;stroke:#e97c15;stroke-width:14.39439486999999900;stroke-linecap:round;stroke-linejoin:round;stroke-miterlimit:4;stroke-opacity:1;stroke-dasharray:none;stroke-dashoffset:6.20000000000000020"
       id="path3830"
       sodipodi:cx="254.05336"
       sodipodi:cy="284.39371"
       sodipodi:rx="26.263966"
       sodipodi:ry="40.658642"
       d="m 280.31733,284.39371 a 26.263966,40.658642 0 1 1 -52.52794,0 26.263966,40.658642 0 1 1 52.52794,0 z"
       transform="matrix(1.0851636,0.17838852,-0.24506616,0.96040603,60.958908,-25.978707)" />
    <path
       style="fill:none;stroke:#e97c15;stroke-width:15;stroke-linecap:butt;stroke-linejoin:miter;stroke-opacity:1;stroke-miterlimit:4;stroke-dasharray:none"
       d="m 292.32143,305.57647 30.89286,10.35714"
       id="path3850"
       inkscape:connector-curvature="0" />
    <path
       style="fill:none;stroke:#e97c15;stroke-width:15;stroke-linecap:butt;stroke-linejoin:miter;stroke-opacity:1;stroke-miterlimit:4;stroke-dasharray:none"
       d="m 296.25,292.18361 31.42857,8.75"
       id="path3852"
       inkscape:connector-curvature="0" />
    <path
       sodipodi:type="arc"
       style="fill:none;stroke:#e97c15;stroke-width:14.39439486999999900;stroke-linecap:round;stroke-linejoin:round;stroke-miterlimit:4;stroke-opacity:1;stroke-dasharray:none;stroke-dashoffset:6.20000000000000020"
       id="path3830-8"
       sodipodi:cx="254.05336"
       sodipodi:cy="284.39371"
       sodipodi:rx="26.263966"
       sodipodi:ry="40.658642"
       d="m 280.31733,284.39371 a 26.263966,40.658642 0 1 1 -52.52794,0 26.263966,40.658642 0 1 1 52.52794,0 z"
       transform="matrix(1.0851636,0.17838852,-0.24506616,0.96040603,92.462036,-132.16963)" />
    <path
       style="fill:none;stroke:#e97c15;stroke-width:15;stroke-linecap:butt;stroke-linejoin:miter;stroke-opacity:1;stroke-miterlimit:4;stroke-dasharray:none"
       d="m 323.82456,199.38555 30.89286,10.35714"
       id="path3850-2"
       inkscape:connector-curvature="0" />
    <path
       style="fill:none;stroke:#e97c15;stroke-width:15;stroke-linecap:butt;stroke-linejoin:miter;stroke-opacity:1;stroke-miterlimit:4;stroke-dasharray:none"
       d="m 327.75313,185.99269 31.42857,8.75"
       id="path3852-7"
       inkscape:connector-curvature="0" />
    <path
       sodipodi:type="arc"
       style="fill:none;stroke:#e97c15;stroke-width:14.39439486999999900;stroke-linecap:round;stroke-linejoin:round;stroke-miterlimit:4;stroke-opacity:1;stroke-dasharray:none;stroke-dashoffset:6.20000000000000020"
       id="path3830-7"
       sodipodi:cx="254.05336"
       sodipodi:cy="284.39371"
       sodipodi:rx="26.263966"
       sodipodi:ry="40.658642"
       d="m 280.31733,284.39371 a 26.263966,40.658642 0 1 1 -52.52794,0 26.263966,40.658642 0 1 1 52.52794,0 z"
       transform="matrix(1.0851636,0.17838852,-0.24506616,0.96040603,31.281456,77.309391)" />
    <path
       style="fill:none;stroke:#e97c15;stroke-width:15;stroke-linecap:butt;stroke-linejoin:miter;stroke-opacity:1;stroke-miterlimit:4;stroke-dasharray:none"
       d="m 262.64397,408.86457 30.89286,10.35714"
       id="path3850-1"
       inkscape:connector-curvature="0" />
    <path
       style="fill:none;stroke:#e97c15;stroke-width:15;stroke-linecap:butt;stroke-linejoin:miter;stroke-opacity:1;stroke-miterlimit:4;stroke-dasharray:none"
       d="m 266.57254,395.47171 31.42857,8.75"
       id="path3852-2"
       inkscape:connector-curvature="0" />
    <path
       sodipodi:type="arc"
       style="fill:none;stroke:#e97c15;stroke-width:14.39439486999999900;stroke-linecap:round;stroke-linejoin:round;stroke-miterlimit:4;stroke-opacity:1;stroke-dasharray:none;stroke-dashoffset:6.20000000000000020"
       id="path3830-6"
       sodipodi:cx="254.05336"
       sodipodi:cy="284.39371"
       sodipodi:rx="26.263966"
       sodipodi:ry="40.658642"
       d="m 280.31733,284.39371 a 26.263966,40.658642 0 1 1 -52.52794,0 26.263966,40.658642 0 1 1 52.52794,0 z"
       transform="matrix(1.0851636,0.17838852,-0.24506616,0.96040603,-0.03327299,181.10257)" />
    <path
       style="fill:none;stroke:#e97c15;stroke-width:15;stroke-linecap:butt;stroke-linejoin:miter;stroke-opacity:1;stroke-miterlimit:4;stroke-dasharray:none"
       d="m 231.32925,512.65775 30.89286,10.35714"
       id="path3850-0"
       inkscape:connector-curvature="0" />
    <path
       style="fill:none;stroke:#e97c15;stroke-width:15;stroke-linecap:butt;stroke-linejoin:miter;stroke-opacity:1;stroke-miterlimit:4;stroke-dasharray:none"
       d="m 235.25782,499.26489 31.42857,8.75"
       id="path3852-4"
       inkscape:connector-curvature="0" />
    <path
       sodipodi:type="arc"
       style="fill:none;stroke:#e97c15;stroke-width:14.39439486999999900;stroke-linecap:round;stroke-linejoin:round;stroke-miterlimit:4;stroke-opacity:1;stroke-dasharray:none;stroke-dashoffset:6.20000000000000020"
       id="path3830-9"
       sodipodi:cx="254.05336"
       sodipodi:cy="284.39371"
       sodipodi:rx="26.263966"
       sodipodi:ry="40.658642"
       d="m 280.31733,284.39371 a 26.263966,40.658642 0 1 1 -52.52794,0 26.263966,40.658642 0 1 1 52.52794,0 z"
       transform="matrix(1.0851636,0.17838852,-0.24506616,0.96040603,-30.337849,283.63305)" />
    <path
       style="fill:none;stroke:#e97c15;stroke-width:15;stroke-linecap:butt;stroke-linejoin:miter;stroke-opacity:1;stroke-miterlimit:4;stroke-dasharray:none"
       d="m 201.02467,615.18824 30.89286,10.35714"
       id="path3850-4"
       inkscape:connector-curvature="0" />
    <path
       style="fill:none;stroke:#e97c15;stroke-width:15;stroke-linecap:butt;stroke-linejoin:miter;stroke-opacity:1;stroke-miterlimit:4;stroke-dasharray:none"
       d="m 204.95324,601.79538 31.42857,8.75"
       id="path3852-6"
       inkscape:connector-curvature="0" />
    <path
       sodipodi:type="arc"
       style="fill:none;stroke:#e97c15;stroke-width:14.39439486999999900;stroke-linecap:round;stroke-linejoin:round;stroke-miterlimit:4;stroke-opacity:1;stroke-dasharray:none;stroke-dashoffset:6.20000000000000020"
       id="path3830-0"
       sodipodi:cx="254.05336"
       sodipodi:cy="284.39371"
       sodipodi:rx="26.263966"
       sodipodi:ry="40.658642"
       d="m 280.31733,284.39371 a 26.263966,40.658642 0 1 1 -52.52794,0 26.263966,40.658642 0 1 1 52.52794,0 z"
       transform="matrix(1.0851636,0.17838852,-0.24506616,0.96040603,-59.632273,386.92115)" />
    <path
       style="fill:none;stroke:#e97c15;stroke-width:15;stroke-linecap:butt;stroke-linejoin:miter;stroke-opacity:1;stroke-miterlimit:4;stroke-dasharray:none"
       d="m 171.73024,718.47633 30.89286,10.35714"
       id="path3850-3"
       inkscape:connector-curvature="0" />
    <path
       style="fill:none;stroke:#e97c15;stroke-width:15;stroke-linecap:butt;stroke-linejoin:miter;stroke-opacity:1;stroke-miterlimit:4;stroke-dasharray:none"
       d="m 175.65881,705.08347 31.42857,8.75"
       id="path3852-62"
       inkscape:connector-curvature="0" />
  </g>
</svg>
