<?xml version="1.0" ?><!DOCTYPE svg  PUBLIC '-//W3C//DTD SVG 1.1//EN'  'http://www.w3.org/Graphics/SVG/1.1/DTD/svg11.dtd'><svg enable-background="new 0 0 512 512" height="512px" id="bass2" version="1.1" viewBox="0 0 512 512" width="512px" xml:space="preserve" xmlns="http://www.w3.org/2000/svg" xmlns:xlink="http://www.w3.org/1999/xlink"><g><path d="M214.842,283.822c-8.386-2.271-19.026,9.724-19.149,34.666c-0.127,25.784,11.895,42.141,11.229,56.998   c-0.524,11.706-8.522,20.734-15.549,37.854c-6.406,15.607-9.609,24.11-9.376,34.885c0.293,13.566,4.433,21.248,6.579,25.068   c7.282,12.959,15.318,18.201,22.307,21.695s27.196,10.832,49.21,13.336c22.013,2.504,33.178,2.335,45.328,0.556   c12.151-1.778,20.562-12.577,23.429-17.497c3.397-5.829,6.063-23.033-1.961-40.131c-8.444-17.994-19.481-26.434-19.102-40.125   c0.408-14.675,11.822-26.26,12.696-53.17c0.582-17.936-7.047-35.813-16.842-34.131c-5.463,0.938-6.449,6.242-6.919,11.246   c-0.815,8.677-7.047,16.539-13.162,17.004c-8.191,0.625-11.006-3.318-12.403-6.871c-0.606-1.541-1.806-2.389-1.806-2.389   l-25.912-20.77c0,0-3.218,4.467-10.312,3.125c-8.619-1.631-9.682-25.324-10.448-32.188   C222.47,291.104,221.174,285.537,214.842,283.822z" fill="#2C6E9F"/><path d="M231.478,335.537c-3.304,3.12,2.118,10.119,3.678,27.058c1.124,12.198-14.041,32.228-14.152,48.286   c-0.085,12.209,10.147,15.405,11.589,15.618c0.715,0.105,11.332,1.134,23.179,3.29c13.325,2.426,21.768,6.195,21.768,6.195   s5.755-10.317,6.738-12.008c0.983-1.691,1.813-2.415,3.1-2.617c1.288-0.203,14.994-1.789,14.994-1.789s-1.751-7.416-0.615-12.607   c1.744-7.972,7.918-20.805,10.849-34.359c2.747-12.705,2.059-35.209-6.798-39.816c-0.72-0.374-0.737,23.759-17.83,27.938   c-12.248,2.994-18.164-2.859-18.164-2.859s-35.007-22.838-35.325-22.988C234.168,334.727,232.813,334.275,231.478,335.537z" fill="#A6A8AA"/><path d="M231.982,335.109c-3.261,3.121,2.09,10.119,3.63,27.059c1.109,12.198-13.859,32.227-13.969,48.285   c-0.083,12.209,10.016,15.406,11.439,15.619c0.706,0.105,11.185,1.135,22.878,3.291c13.152,2.424,21.229,5.728,21.229,5.728   s5.519-9.858,6.489-11.549s2.249-2.657,3.52-2.86c1.271-0.201,14.079-1.979,14.079-1.979s-1.231-7.018-0.11-12.209   c1.722-7.973,7.997-20.764,10.89-34.317c2.711-12.704,2.032-35.21-6.71-39.816c-0.71-0.374-0.728,23.759-17.599,27.938   c-12.09,2.995-17.928-2.86-17.928-2.86s-34.553-22.837-34.867-22.987C234.638,334.299,233.301,333.849,231.982,335.109z" fill="#F3F3F3"/><path d="M277.464,436.117c0,0,10.009,6.061,16.079,15.424c6.81,10.5,22.561,30.354,30.025,24.61   c7.023-5.402-6.316-27.728-11.978-35.439c-5.428-7.396-9.352-21.575-9.352-21.575s-12.859,1.748-14.438,2.051   c-1.579,0.301-2.571,0.683-4.02,3.281C282.333,427.066,277.464,436.117,277.464,436.117z" fill="#EFEFEF"/><g><g><path d="M245.52,405.906c0,0.102,0.009,0.199,0.021,0.297h4.887c0.012-0.098,0.021-0.195,0.021-0.297     c0-1.317-1.104-2.385-2.464-2.385C246.623,403.521,245.52,404.589,245.52,405.906z" fill="#434244"/><path d="M245.306,406.119c0,0.102,0.009,0.2,0.021,0.298h4.887c0.013-0.098,0.021-0.196,0.021-0.298     c0-1.316-1.104-2.385-2.465-2.385C246.41,403.734,245.306,404.803,245.306,406.119z" fill="#292929"/><circle cx="247.771" cy="404.784" fill="#B4B4B4" r="0.985"/></g><g><path d="M261.709,405.906c0,0.102,0.009,0.199,0.021,0.297h4.888c0.012-0.098,0.021-0.195,0.021-0.297     c0-1.317-1.104-2.385-2.465-2.385C262.813,403.521,261.709,404.589,261.709,405.906z" fill="#434244"/><path d="M261.495,406.119c0,0.102,0.009,0.2,0.021,0.298h4.887c0.013-0.098,0.021-0.196,0.021-0.298     c0-1.316-1.103-2.385-2.464-2.385S261.495,404.803,261.495,406.119z" fill="#292929"/><circle cx="263.96" cy="404.784" fill="#B4B4B4" r="0.985"/></g><g><path d="M245.306,414.479c0-0.101,0.009-0.2,0.021-0.298h4.887c0.013,0.098,0.021,0.197,0.021,0.298     c0,1.317-1.104,2.385-2.465,2.385C246.41,416.864,245.306,415.797,245.306,414.479z" fill="#292929"/><circle cx="247.771" cy="415.815" fill="#B4B4B4" r="0.985"/></g><g><path d="M261.495,414.479c0-0.101,0.009-0.2,0.021-0.298h4.887c0.013,0.098,0.021,0.197,0.021,0.298     c0,1.317-1.103,2.385-2.464,2.385S261.495,415.797,261.495,414.479z" fill="#292929"/><circle cx="263.96" cy="415.815" fill="#B4B4B4" r="0.985"/></g><path d="M275.306,405.977c0.475,0,0.863,0.418,0.863,0.93v6.62c0,0.511-0.389,0.929-0.863,0.929h-38.488    c-0.475,0-0.863-0.418-0.863-0.929v-6.62c0-0.512,0.389-0.93,0.863-0.93H275.306z"/><path d="M274.888,406.831c0.47,0,0.854,0.384,0.854,0.854v6.085c0,0.47-0.384,0.854-0.854,0.854h-38.08    c-0.47,0-0.854-0.385-0.854-0.854v-6.085c0-0.471,0.384-0.854,0.854-0.854H274.888z" fill="#292929"/><g><circle cx="242.121" cy="410.808" fill="#6A6A6A" r="1.199"/><circle cx="245.265" cy="410.808" fill="#6A6A6A" r="1.199"/></g><g><circle cx="250.354" cy="410.808" fill="#6A6A6A" r="1.199"/><circle cx="253.497" cy="410.808" fill="#6A6A6A" r="1.199"/></g><g><circle cx="258.586" cy="410.808" fill="#6A6A6A" r="1.199"/><circle cx="261.729" cy="410.808" fill="#6A6A6A" r="1.199"/></g><g><circle cx="266.818" cy="410.808" fill="#6A6A6A" r="1.199"/><circle cx="269.962" cy="410.808" fill="#6A6A6A" r="1.199"/></g></g><g><g><path d="M245.52,445.988c0,0.1,0.009,0.199,0.021,0.297h4.887c0.012-0.098,0.021-0.197,0.021-0.297     c0-1.318-1.104-2.385-2.464-2.385C246.623,443.604,245.52,444.67,245.52,445.988z" fill="#434244"/><path d="M245.306,446.201c0,0.102,0.009,0.199,0.021,0.297h4.887c0.013-0.098,0.021-0.195,0.021-0.297     c0-1.317-1.104-2.385-2.465-2.385C246.41,443.816,245.306,444.884,245.306,446.201z" fill="#292929"/><circle cx="247.771" cy="444.866" fill="#B4B4B4" r="0.986"/></g><g><path d="M261.709,445.988c0,0.1,0.008,0.199,0.021,0.297h4.887c0.013-0.098,0.021-0.197,0.021-0.297     c0-1.318-1.104-2.385-2.465-2.385S261.709,444.67,261.709,445.988z" fill="#434244"/><path d="M261.495,446.201c0,0.102,0.009,0.199,0.021,0.297h4.887c0.012-0.098,0.021-0.195,0.021-0.297     c0-1.317-1.103-2.385-2.464-2.385S261.495,444.884,261.495,446.201z" fill="#292929"/><circle cx="263.96" cy="444.866" fill="#B4B4B4" r="0.986"/></g><g><path d="M245.306,454.561c0-0.101,0.009-0.199,0.021-0.297h4.887c0.013,0.098,0.021,0.196,0.021,0.297     c0,1.317-1.104,2.385-2.465,2.385C246.41,456.945,245.306,455.878,245.306,454.561z" fill="#292929"/><circle cx="247.771" cy="455.896" fill="#B4B4B4" r="0.985"/></g><g><path d="M261.495,454.561c0-0.101,0.009-0.199,0.021-0.297h4.887c0.012,0.098,0.021,0.196,0.021,0.297     c0,1.317-1.103,2.385-2.464,2.385S261.495,455.878,261.495,454.561z" fill="#292929"/><circle cx="263.96" cy="455.896" fill="#B4B4B4" r="0.985"/></g><path d="M275.305,446.059c0.476,0,0.863,0.418,0.863,0.929v6.62c0,0.512-0.388,0.93-0.863,0.93h-38.487    c-0.475,0-0.863-0.418-0.863-0.93v-6.62c0-0.511,0.389-0.929,0.863-0.929H275.305z"/><path d="M274.888,446.912c0.47,0,0.854,0.385,0.854,0.854v6.085c0,0.47-0.384,0.854-0.854,0.854h-38.08    c-0.47,0-0.854-0.385-0.854-0.854v-6.085c0-0.47,0.384-0.854,0.854-0.854H274.888z" fill="#292929"/><g><circle cx="242.121" cy="450.889" fill="#6A6A6A" r="1.199"/><circle cx="245.265" cy="450.889" fill="#6A6A6A" r="1.199"/></g><g><circle cx="250.354" cy="450.889" fill="#6A6A6A" r="1.199"/><circle cx="253.497" cy="450.889" fill="#6A6A6A" r="1.199"/></g><g><circle cx="258.586" cy="450.889" fill="#6A6A6A" r="1.199"/><circle cx="261.729" cy="450.889" fill="#6A6A6A" r="1.199"/></g><g><circle cx="266.818" cy="450.889" fill="#6A6A6A" r="1.199"/><circle cx="269.962" cy="450.889" fill="#6A6A6A" r="1.199"/></g></g><circle cx="228.874" cy="391.836" fill="#C1C1C1" r="1.162"/><circle cx="244.533" cy="425.125" fill="#C1C1C1" r="1.162"/><circle cx="275.563" cy="431.961" fill="#C1C1C1" r="1.162"/><circle cx="298.198" cy="416.094" fill="#C1C1C1" r="1.162"/><circle cx="303.825" cy="390.281" fill="#C1C1C1" r="1.162"/><circle cx="310.616" cy="364.074" fill="#C1C1C1" r="1.162"/><circle cx="307.205" cy="338.167" fill="#C1C1C1" r="1.162"/><circle cx="273.154" cy="362.611" fill="#C1C1C1" r="1.162"/><circle cx="233.925" cy="337.125" fill="#C1C1C1" r="1.162"/><circle cx="237.854" cy="367.984" fill="#C1C1C1" r="1.162"/><g><circle cx="290.421" cy="428.646" fill="#272525" r="5.506"/><g><path d="M295.493,430.939c0.058,0.228-0.011,0.567-0.152,0.755l-2.138,2.824c-0.142,0.188-0.45,0.346-0.685,0.352     l-3.541,0.09c-0.234,0.006-0.551-0.137-0.701-0.316l-2.278-2.713c-0.15-0.18-0.236-0.516-0.189-0.746l0.699-3.471     c0.047-0.23,0.256-0.507,0.465-0.614l3.151-1.616c0.209-0.107,0.556-0.116,0.77-0.02l3.229,1.454     c0.214,0.097,0.438,0.362,0.495,0.59L295.493,430.939z" fill="#424242"/></g></g><g><circle cx="299.104" cy="441.398" fill="#272525" r="5.506"/><g><path d="M304.175,443.691c0.058,0.228-0.011,0.567-0.152,0.755l-2.137,2.824c-0.142,0.188-0.45,0.346-0.685,0.352     l-3.541,0.09c-0.234,0.006-0.551-0.137-0.701-0.316l-2.278-2.712c-0.15-0.18-0.236-0.516-0.19-0.746l0.701-3.471     c0.046-0.23,0.255-0.507,0.464-0.614l3.151-1.616c0.209-0.107,0.555-0.116,0.77-0.02l3.228,1.454     c0.215,0.097,0.438,0.362,0.495,0.59L304.175,443.691z" fill="#424242"/></g></g><g><circle cx="307.693" cy="453.774" fill="#272525" r="4.079"/><g><path d="M311.45,455.473c0.043,0.169-0.008,0.42-0.112,0.559l-1.584,2.094c-0.104,0.139-0.333,0.256-0.507,0.26     l-2.623,0.066c-0.174,0.004-0.408-0.102-0.52-0.234l-1.688-2.01c-0.111-0.133-0.175-0.382-0.141-0.553l0.52-2.57     c0.034-0.171,0.189-0.376,0.344-0.455l2.335-1.197c0.154-0.079,0.411-0.086,0.569-0.015l2.393,1.078     c0.158,0.071,0.323,0.268,0.366,0.437L311.45,455.473z" fill="#424242"/></g></g><circle cx="281.795" cy="435.395" fill="#C1C1C1" r="1.162"/><circle cx="321.571" cy="474.014" fill="#C1C1C1" r="1.162"/><circle cx="299.841" cy="423.076" fill="#C1C1C1" r="1.162"/><g opacity="0.7"><path d="M187.168,464.401c0,0-0.251-0.669-0.679-1.951c-0.399-1.285-0.987-3.177-1.5-5.646    c-0.231-1.239-0.551-2.603-0.706-4.12c-0.089-0.757-0.205-1.543-0.27-2.364c-0.031-0.825-0.063-1.68-0.096-2.563    c-0.072-0.884,0.013-1.798,0.083-2.74c0.034-0.472,0.068-0.95,0.103-1.436l0.057-0.743l0.117-0.721    c0.162-0.967,0.304-1.956,0.494-2.973c0.212-1.02,0.43-2.063,0.652-3.128c0.978-4.233,2.509-8.694,4.405-13.253    c1.885-4.571,3.966-9.328,6.237-14.208c2.287-4.889,4.897-9.797,7.334-14.854c2.421-5.045,4.686-10.318,5.401-15.896    c0.37-2.776,0.336-5.592-0.007-8.385c-0.334-2.759-1.058-5.478-1.946-8.124c-1.824-5.29-3.828-10.534-5.155-15.768    c-1.38-5.227-2.361-10.332-3.09-15.243c-0.724-4.848-1-9.594-0.949-13.909c0.134-4.331,0.636-8.288,1.417-11.729    c0.805-3.437,1.877-6.337,2.939-8.639c1.058-2.309,2.142-4,2.953-5.101c0.387-0.564,0.785-0.926,1.098-1.122    c0.308-0.202,0.517-0.251,0.517-0.251l0.045,0.045c0,0-0.042,0.206-0.185,0.532c-0.137,0.329-0.395,0.766-0.782,1.296    c-0.766,1.068-1.799,2.725-2.8,4.989c-1.006,2.258-2.017,5.105-2.761,8.48c-0.707,3.383-1.167,7.266-1.307,11.523    c-0.038,4.275,0.227,8.843,0.963,13.735c0.736,4.82,1.749,9.919,3.139,15.069c1.344,5.18,3.34,10.312,5.22,15.666    c0.918,2.689,1.686,5.485,2.054,8.393c0.368,2.863,0.423,5.818,0.051,8.724c-0.721,5.841-3.033,11.268-5.443,16.366    c-2.431,5.114-5.006,10.023-7.244,14.876c-2.234,4.868-4.366,9.603-6.242,14.129c-1.867,4.531-3.517,8.85-4.535,12.98    c-0.236,1.033-0.468,2.045-0.694,3.033c-0.208,0.999-0.371,1.996-0.551,2.956l-0.13,0.718l-0.073,0.69    c-0.048,0.465-0.096,0.923-0.143,1.375c-0.098,0.904-0.211,1.783-0.168,2.646c0.003,0.861,0.007,1.695,0.01,2.5    c0.035,0.805,0.131,1.579,0.184,2.325c0.079,1.497,0.33,2.854,0.499,4.089c0.175,1.234,0.444,2.316,0.604,3.273    c0.217,0.946,0.4,1.75,0.55,2.402c0.337,1.292,0.546,1.979,0.546,1.979L187.168,464.401z" fill="#FFFFFF"/></g><g opacity="0.7"><path d="M329.021,480.193c0,0-0.017-0.627-0.1-1.801c-0.081-1.173-0.226-2.893-0.52-5.065    c-0.296-2.171-0.695-4.805-1.409-7.765c-0.723-2.953-1.654-6.264-3.115-9.689c-0.341-0.867-0.76-1.718-1.199-2.578    c-0.406-0.879-0.916-1.718-1.428-2.575c-1.013-1.715-2.201-3.49-3.354-5.304c-2.337-3.637-4.831-7.469-7.199-11.583    c-2.315-4.135-4.55-8.58-5.822-13.477c-0.617-2.436-1.069-4.992-0.975-7.546l-0.021-1.881c0.018-0.633,0.119-1.283,0.177-1.924    l0.206-1.929l0.407-1.876c1.121-5.008,3.277-9.607,4.96-14.239c0.453-1.149,0.849-2.312,1.232-3.472    c0.382-1.168,0.807-2.29,1.124-3.467c0.34-1.165,0.677-2.323,1.013-3.474c0.297-1.152,0.593-2.298,0.886-3.434    c1.122-4.559,1.809-9.044,2.104-13.335c0.295-4.281,0.414-8.392,0.344-12.124c-0.107-3.728-0.742-7.082-1.59-9.985    c-0.841-2.901-1.911-5.324-2.926-7.238c-1.023-1.912-1.952-3.342-2.589-4.313c-0.646-0.967-1.01-1.458-1.01-1.458    c-0.104-0.139-0.076-0.334,0.062-0.438c0.118-0.089,0.281-0.079,0.39,0.012c0,0,0.501,0.427,1.27,1.349    c0.774,0.916,1.81,2.349,2.867,4.317c1.063,1.963,2.187,4.448,3.08,7.432c0.889,2.973,1.508,6.48,1.604,10.301    c0.051,3.813-0.109,7.887-0.439,12.229c-0.34,4.334-1.06,8.889-2.213,13.488c-0.302,1.147-0.606,2.304-0.913,3.469    c-0.341,1.149-0.684,2.306-1.028,3.47c-0.328,1.164-0.741,2.339-1.115,3.507c-0.376,1.175-0.765,2.351-1.208,3.511    c-1.654,4.683-3.749,9.292-4.778,14.138l-0.378,1.814l-0.176,1.824c-0.048,0.61-0.144,1.207-0.155,1.827l0.039,1.882    c-0.07,2.468,0.388,4.883,1.004,7.23c1.27,4.702,3.491,9.036,5.816,13.094c2.338,4.065,4.816,7.885,7.153,11.524    c1.159,1.841,2.333,3.552,3.36,5.356c0.517,0.899,1.029,1.78,1.433,2.693c0.438,0.897,0.854,1.782,1.189,2.679    c1.437,3.548,2.353,6.936,2.938,9.969c0.594,3.033,0.932,5.705,1.09,7.912c0.336,4.414,0.17,6.943,0.17,6.943    c-0.003,0.072-0.063,0.128-0.136,0.125C329.078,480.317,329.024,480.26,329.021,480.193z" fill="#FFFFFF"/></g><path d="M200.254,294.461c3.83-6.854,9.002-9.773,13.521-8.551c6.332,1.715,7.628,7.281,7.838,9.162   c0.766,6.863,1.829,30.557,10.448,32.188c7.094,1.342,10.312-3.125,10.312-3.125l25.912,20.771c0,0,1.199,0.847,1.806,2.388   c1.397,3.553,5.494,8.172,13.687,7.547c6.114-0.465,13.339-7.705,14.154-16.382c0.47-5.003,0.625-12.071,6.092-12.987   c2.637-0.442,4.585,1.466,6.83,5.27c0.138,0.189,0.28,0.39,0.426,0.602c0.486,0.72,1.008,1.572,1.542,2.555   c0.535,0.98,1.085,2.09,1.614,3.329c0.527,1.239,1.026,2.611,1.47,4.104c0.885,2.986,1.509,6.463,1.607,10.307l0.013,0.362v0.356   c0,0.239-0.001,0.478-0.001,0.719v0.362l-0.01,0.375c-0.006,0.242-0.013,0.487-0.02,0.733c-0.026,0.983-0.054,1.985-0.081,3.005   c-0.03,1.019-0.095,2.057-0.143,3.109c-0.028,0.526-0.045,1.057-0.084,1.592c-0.044,0.533-0.088,1.072-0.133,1.613   c-0.045,0.542-0.09,1.088-0.135,1.637c-0.018,0.274-0.055,0.549-0.09,0.824c-0.034,0.275-0.068,0.551-0.104,0.828   c-0.146,1.107-0.253,2.233-0.474,3.355c-0.357,2.26-0.866,4.537-1.425,6.842c-0.3,1.148-0.603,2.305-0.907,3.471   c-0.338,1.148-0.679,2.307-1.022,3.471c-0.086,0.291-0.172,0.582-0.258,0.875c-0.09,0.303-0.184,0.586-0.275,0.882   c-0.188,0.584-0.366,1.173-0.561,1.757c-0.199,0.584-0.398,1.169-0.598,1.755c-0.203,0.585-0.419,1.167-0.628,1.752   c-0.851,2.335-1.776,4.659-2.649,6.998c-0.869,2.339-1.676,4.702-2.191,7.126c-0.526,2.415-0.733,4.902-0.671,7.34   c0.031,0.619,0.063,1.239,0.093,1.857c0.071,0.607,0.143,1.214,0.214,1.818c0.199,1.204,0.426,2.4,0.759,3.571   c0.64,2.345,1.506,4.612,2.509,6.792c1.02,2.173,2.138,4.272,3.308,6.303c2.343,4.063,4.833,7.875,7.159,11.521   c0.583,0.912,1.157,1.812,1.724,2.697c0.561,0.89,1.125,1.748,1.65,2.652c1.05,1.789,1.912,3.598,2.636,5.369   c1.43,3.554,2.321,6.949,2.918,9.979c0.605,3.033,0.909,5.71,1.084,7.915c0.176,2.206,0.205,3.944,0.206,5.128   c-0.007,1.184-0.042,1.817-0.042,1.817v0.001c-0.002,0.029-0.016,0.055-0.033,0.076c0.221,4.848-0.044,9.129-0.873,11.893   c0.171-0.275,0.329-0.537,0.473-0.783c3.397-5.829,6.063-23.033-1.961-40.131c-8.444-17.994-19.481-26.434-19.102-40.125   c0.408-14.675,11.822-26.26,12.696-53.17c0.582-17.936-7.047-35.813-16.842-34.131c-5.463,0.938-6.449,6.242-6.919,11.246   c-0.815,8.677-7.047,16.539-13.162,17.004c-8.191,0.625-11.006-3.318-12.403-6.871c-0.606-1.541-1.806-2.389-1.806-2.389   l-25.912-20.77c0,0-3.218,4.467-10.312,3.125c-8.619-1.631-9.682-25.324-10.448-32.188c-0.21-1.881-1.506-7.447-7.838-9.162   C209.888,282.48,204.148,286.119,200.254,294.461z" fill="#272525" opacity="0.3"/><g opacity="0.7"><path d="M293.703,350.865c0,0,0.199-0.303,0.524-0.825c0.171-0.256,0.356-0.588,0.579-0.956    c0.232-0.362,0.438-0.808,0.702-1.265c0.271-0.453,0.505-0.978,0.774-1.516c0.287-0.531,0.528-1.117,0.77-1.724    c0.128-0.3,0.257-0.604,0.388-0.913c0.101-0.318,0.203-0.64,0.306-0.964c0.106-0.322,0.214-0.646,0.321-0.973    c0.081-0.331,0.139-0.668,0.21-1.001c0.141-0.665,0.278-1.327,0.365-2.04c0.104-0.695,0.205-1.381,0.305-2.044    c0.205-1.32,0.429-2.564,0.671-3.626c0.132-0.533,0.249-1.022,0.403-1.452c0.156-0.432,0.289-0.804,0.463-1.105    c0.131-0.307,0.319-0.521,0.441-0.663c0.119-0.142,0.182-0.217,0.182-0.217c0.096-0.114,0.267-0.13,0.381-0.034    c0.096,0.081,0.122,0.214,0.07,0.322l-0.031,0.067c0,0-0.035,0.074-0.101,0.213c-0.067,0.135-0.166,0.323-0.237,0.613    c-0.1,0.266-0.159,0.628-0.229,1.039c-0.061,0.414-0.119,0.895-0.181,1.415c-0.11,1.062-0.238,2.301-0.377,3.628    c-0.065,0.668-0.164,1.354-0.254,2.052c-0.064,0.689-0.227,1.426-0.402,2.156c-0.086,0.363-0.159,0.731-0.256,1.089    c-0.128,0.347-0.254,0.692-0.38,1.034c-0.129,0.341-0.257,0.679-0.384,1.013c-0.154,0.318-0.309,0.634-0.459,0.943    c-0.307,0.618-0.612,1.207-0.955,1.733c-0.328,0.535-0.64,1.039-0.969,1.476c-0.632,0.892-1.228,1.577-1.641,2.061    c-0.431,0.475-0.689,0.721-0.689,0.721c-0.08,0.078-0.209,0.076-0.287-0.004C293.659,351.05,293.652,350.943,293.703,350.865z" fill="#FFFFFF"/></g><g opacity="0.7"><path d="M269.562,349.043c0,0,0.046,0.125,0.127,0.345c0.038,0.11,0.085,0.245,0.138,0.399    c0.057,0.121,0.121,0.257,0.191,0.406c0.059,0.148,0.164,0.317,0.261,0.499c0.093,0.185,0.211,0.37,0.343,0.557    c0.247,0.385,0.572,0.758,0.901,1.138c0.335,0.374,0.706,0.725,1.075,1.033c0.371,0.307,0.737,0.572,1.045,0.821    c0.62,0.484,1.04,0.869,1.04,0.869l-0.025,0.068c0,0-0.589,0.018-1.378-0.266c-0.789-0.278-1.766-0.833-2.67-1.529    c-0.453-0.349-0.876-0.746-1.23-1.163c-0.369-0.411-0.667-0.816-0.899-1.229c-0.113-0.208-0.217-0.398-0.309-0.567    c-0.063-0.15-0.119-0.281-0.165-0.389c-0.088-0.217-0.138-0.341-0.138-0.341L269.562,349.043z" fill="#FFFFFF"/></g><g opacity="0.7"><path d="M227.871,326.691c0.005-0.013-0.167-0.008-0.435-0.144c-0.139-0.061-0.312-0.146-0.516-0.259    c-0.182-0.121-0.374-0.281-0.603-0.455c-0.479-0.339-0.884-0.876-1.378-1.49c-0.495-0.615-0.838-1.414-1.319-2.24    c-0.254-0.409-0.401-0.877-0.601-1.345c-0.187-0.473-0.38-0.961-0.579-1.463c-0.096-0.252-0.193-0.508-0.292-0.767    c-0.075-0.266-0.151-0.533-0.228-0.804c-0.152-0.542-0.307-1.097-0.464-1.66c-0.151-0.563-0.305-1.138-0.46-1.719    c-0.113-0.588-0.227-1.184-0.342-1.784c-0.231-1.206-0.483-2.4-0.704-3.648c-0.179-1.217-0.359-2.434-0.536-3.632    c-0.114-1.22-0.258-2.424-0.336-3.583c-0.07-1.156-0.138-2.28-0.168-3.33c-0.026-1.062-0.106-2.036-0.151-2.944    c-0.013-0.457-0.114-0.869-0.161-1.276c-0.07-0.401-0.087-0.798-0.203-1.14c-0.213-0.689-0.3-1.337-0.544-1.806    c-0.412-0.969-0.639-1.545-0.639-1.545l0.262-0.16c0,0,0.338,0.516,0.917,1.459c0.161,0.229,0.283,0.507,0.397,0.821    c0.124,0.312,0.256,0.648,0.399,1.008c0.171,0.356,0.219,0.765,0.321,1.186c0.08,0.423,0.216,0.87,0.262,1.335    c0.265,1.869,0.353,4.02,0.524,6.303c0.09,1.141,0.224,2.305,0.334,3.495c0.176,1.198,0.355,2.414,0.534,3.631    c0.227,1.171,0.518,2.376,0.769,3.543c0.132,0.585,0.264,1.165,0.394,1.738c0.173,0.56,0.344,1.112,0.512,1.655    c0.165,0.544,0.327,1.079,0.485,1.603c0.078,0.262,0.155,0.521,0.232,0.776c0.098,0.247,0.195,0.49,0.291,0.73    c0.404,0.948,0.685,1.899,1.077,2.701c0.408,0.788,0.716,1.566,1.087,2.178c0.372,0.607,0.617,1.218,0.919,1.629    c0.132,0.227,0.261,0.424,0.359,0.613c0.118,0.166,0.218,0.307,0.299,0.421C227.748,326.576,227.87,326.691,227.871,326.691z" fill="#FFFFFF"/></g><g><path d="M218.826,281.688c0.42-0.309,0.709-0.449,0.434-1.131c-0.26-0.644-2.119-1.414-2.595-1.602l0.002-0.006    c0,0-0.023-0.007-0.058-0.016c-0.032-0.014-0.055-0.021-0.055-0.021l-0.002,0.004c-0.492-0.137-2.439-0.648-3.036-0.293    c-0.631,0.376-0.486,0.664-0.338,1.162c0.182,0.613,0.831,1.756,0.831,1.756l1.49,0.502l0.113,0.037l1.49,0.502    C217.103,282.582,218.311,282.064,218.826,281.688z" fill="#E6E6E7"/><rect fill="#BBBCBF" height="3.267" transform="matrix(-0.3194 0.9476 -0.9476 -0.3194 551.8381 168.3631)" width="0.592" x="215.165" y="280.709"/><path d="M212.317,283.568c0.855-0.051,1.701,0.031,2.524,0.254c0.924,0.25,1.738,0.585,2.46,0.976    c0.034-0.445,0.093-1.372-0.146-1.54c-0.467-0.329-1.617-0.7-1.753-0.743c-0.135-0.048-1.273-0.447-1.845-0.468    C213.205,282.033,212.634,282.992,212.317,283.568z" fill="#D0D1D3"/></g><path d="M253.206,509.144c-0.351,0.386-0.606,0.581-0.201,1.194c0.383,0.579,2.358,0.965,2.861,1.055l0,0.006   c0,0,0.024,0.002,0.06,0.004c0.034,0.006,0.059,0.011,0.059,0.011l0.001-0.005c0.51,0.037,2.519,0.151,3.034-0.315   c0.544-0.494,0.345-0.747,0.101-1.207c-0.301-0.563-1.163-1.556-1.163-1.556l-1.56-0.195l-0.119-0.015l-1.56-0.196   C254.717,507.924,253.636,508.671,253.206,509.144z" fill="#E6E6E7"/><path d="M254.754,507.62l-0.039,0.304l3.242,0.406l0.033-0.26C256.905,507.931,255.826,507.78,254.754,507.62z" fill="#BBBCBF"/><g><circle cx="316.506" cy="466.638" fill="#808183" r="3.294"/><circle cx="316.616" cy="466.518" fill="#BBBCBF" r="3.255"/><polygon fill="#A6A8AA" points="319.348,466.591 317.953,468.971 315.146,468.953 313.776,466.554 315.192,464.119     318.014,464.129   "/><polygon fill="#D0D1D3" points="319.38,466.531 317.986,468.917 315.224,468.904 313.853,466.504 315.246,464.117 318.01,464.131       "/><circle cx="316.616" cy="466.518" fill="#272525" r="1.268"/></g><g><path d="M238.821,476.485v15.122h34.706v-15.122c0-1.345-1.1-2.444-2.444-2.444h-29.818    C239.921,474.041,238.821,475.141,238.821,476.485z" fill="#E0E0E0"/><rect fill="#898988" height="0.477" width="34.706" x="238.821" y="491.607"/><path d="M241.103,494.26c2.236,0,28.138,0,30.138,0c2.494,0,2.281-1.379,2.281-2.176h-34.701    C238.821,492.881,238.609,494.26,241.103,494.26z" fill="#59595B"/><g><path d="M244.252,477.625l-0.35,17.716c-0.008,0.403,0.315,0.733,0.719,0.733h0.488     c0.403,0,0.727-0.33,0.719-0.733l-0.35-17.716H244.252z" fill="#6D6E70"/><path d="M244.622,496.074h0.244v-18.449h-0.613l-0.35,17.716C243.895,495.744,244.218,496.074,244.622,496.074z" fill="#A6A8AA"/></g><g><path d="M252.504,477.625l-0.35,17.716c-0.008,0.403,0.315,0.733,0.719,0.733h0.489     c0.403,0,0.727-0.33,0.719-0.733l-0.351-17.716H252.504z" fill="#6D6E70"/><path d="M252.873,496.074h0.245v-18.449h-0.613l-0.35,17.716C252.146,495.744,252.469,496.074,252.873,496.074z" fill="#A6A8AA"/></g><g><path d="M258.234,477.625l-0.351,17.716c-0.007,0.403,0.315,0.733,0.719,0.733h0.489     c0.403,0,0.727-0.33,0.719-0.733l-0.351-17.716H258.234z" fill="#6D6E70"/><path d="M258.603,496.074h0.244v-18.449h-0.612l-0.351,17.716C257.877,495.744,258.199,496.074,258.603,496.074z" fill="#A6A8AA"/></g><g><path d="M266.653,477.625l-0.35,17.716c-0.008,0.403,0.315,0.733,0.719,0.733h0.489     c0.403,0,0.726-0.33,0.719-0.733l-0.351-17.716H266.653z" fill="#6D6E70"/><path d="M267.022,496.074h0.244v-18.449h-0.613l-0.35,17.716C266.296,495.744,266.619,496.074,267.022,496.074z" fill="#A6A8AA"/></g><path d="M271.241,494.26c-2,0-27.902,0-30.138,0c-1.833,0-2.204-0.745-2.272-1.456h-0.01    c0,0.796-0.212,2.176,2.282,2.176c2.236,0,28.138,0,30.138,0c2.494,0,2.281-1.38,2.281-2.176h-0.01    C273.445,493.515,273.074,494.26,271.241,494.26z" fill="#D7D7D7"/><g><rect fill="#F1F1F2" height="3.113" width="8.377" x="239.272" y="485.547"/><rect fill="#BBBCBF" height="1.557" width="8.377" x="239.272" y="487.104"/><circle cx="240.302" cy="487.104" fill="#A6A8AA" r="0.595"/><circle cx="246.619" cy="487.104" fill="#A6A8AA" r="0.595"/><rect fill="#434244" height="0.274" width="4.349" x="241.286" y="486.967"/></g><g><rect fill="#F1F1F2" height="3.113" width="8.377" x="247.717" y="484.677"/><rect fill="#BBBCBF" height="1.557" width="8.377" x="247.717" y="486.233"/><circle cx="248.747" cy="486.233" fill="#A6A8AA" r="0.595"/><circle cx="255.064" cy="486.233" fill="#A6A8AA" r="0.595"/><rect fill="#434244" height="0.275" width="4.349" x="249.731" y="486.096"/></g><g><rect fill="#F1F1F2" height="3.112" width="8.377" x="256.161" y="483.299"/><rect fill="#BBBCBF" height="1.556" width="8.377" x="256.161" y="484.855"/><circle cx="257.191" cy="484.854" fill="#A6A8AA" r="0.595"/><circle cx="263.509" cy="484.854" fill="#A6A8AA" r="0.595"/><rect fill="#434244" height="0.275" width="4.35" x="258.175" y="484.717"/></g><g><rect fill="#F1F1F2" height="3.112" width="8.377" x="264.548" y="482.035"/><rect fill="#BBBCBF" height="1.556" width="8.377" x="264.548" y="483.592"/><circle cx="265.577" cy="483.591" fill="#A6A8AA" r="0.595"/><circle cx="271.895" cy="483.591" fill="#A6A8AA" r="0.595"/><rect fill="#434244" height="0.275" width="4.349" x="266.562" y="483.453"/></g></g><g><path d="M247.139,95.427c0,0-5.42,262.985-5.234,265.403c0.22,2.868,2.895,3.651,4.117,3.843    c0.87,0.137,6.314,0.967,9.635,0.962c3.32-0.006,10.248-0.787,11.387-1.311c1.139-0.524,2.541-1.398,2.716-3.67    c0.176-2.271-2.278-119.328-2.278-119.328L247.139,95.427z" fill="#2D1912"/><path d="M246.292,94.202c0,0,0.919,1.033,0.88,3.035c-0.57,29.455-5.043,260.866-4.871,263.122    c0.218,2.856,2.876,3.637,4.089,3.828c0.864,0.135,6.273,0.962,9.571,0.957c3.298-0.006,10.181-0.783,11.312-1.306    c1.131-0.521,2.523-1.392,2.696-3.654c0.175-2.263-5.062-266.092-5.062-266.092L246.292,94.202z" fill="#412D26"/><path d="M248.327,364.47V92.611h-1.082v271.52C247.55,364.23,247.915,364.346,248.327,364.47z" fill="#3A2924"/><path d="M258.312,364.986V92.439h-1.082v272.674C257.573,365.081,257.936,365.038,258.312,364.986z" fill="#3A2924"/><path d="M254.939,365.123V92.943h-0.612v272.115C254.535,365.084,254.739,365.105,254.939,365.123z" fill="#53372E"/><path d="M263.407,364.477V93.141h-0.612v271.502C263.003,364.589,263.206,364.533,263.407,364.477z" fill="#53372E"/><path d="M250.192,364.71V93.259h-0.693v271.264C249.724,364.585,249.955,364.647,250.192,364.71z" fill="#46322D"/><circle cx="249.933" cy="283.45" fill="#E8E8E8" r="1.423"/><circle cx="262.338" cy="283.45" fill="#E8E8E8" r="1.423"/><circle cx="256.135" cy="246.438" fill="#E8E8E8" r="1.422"/><circle cx="256.135" cy="314.61" fill="#E8E8E8" r="1.422"/><circle cx="256.135" cy="332.414" fill="#E8E8E8" r="1.422"/><circle cx="256.135" cy="348.432" fill="#E8E8E8" r="1.422"/><g><path d="M243.146,309.361c-0.006,0.319-0.012,0.639-0.018,0.957h25.987c-0.006-0.318-0.013-0.638-0.018-0.957     H243.146z" fill="#BBBCBF"/><path d="M243.331,299.316c-0.006,0.319-0.012,0.639-0.018,0.957h25.613c-0.006-0.318-0.012-0.639-0.018-0.957     H243.331z" fill="#BBBCBF"/><path d="M243.526,288.74c-0.006,0.32-0.012,0.639-0.018,0.957h25.218c-0.006-0.318-0.013-0.637-0.019-0.957     H243.526z" fill="#BBBCBF"/><path d="M243.735,277.512c-0.006,0.318-0.012,0.639-0.018,0.957h24.794c-0.006-0.318-0.012-0.639-0.019-0.957     H243.735z" fill="#BBBCBF"/><path d="M242.974,318.875c-0.006,0.32-0.012,0.639-0.017,0.957h26.337c-0.007-0.318-0.013-0.637-0.019-0.957     H242.974z" fill="#BBBCBF"/><path d="M269.976,359.889c0-0.213-0.003-0.534-0.007-0.957h-27.666c-0.004,0.401-0.006,0.722-0.006,0.957H269.976     z" fill="#BBBCBF"/><path d="M242.402,351.867c-0.005,0.328-0.01,0.646-0.015,0.957h27.495c-0.005-0.311-0.011-0.628-0.016-0.957     H242.402z" fill="#BBBCBF"/><path d="M242.526,344.313c-0.006,0.323-0.011,0.642-0.017,0.957h27.245c-0.006-0.315-0.011-0.634-0.016-0.957     H242.526z" fill="#BBBCBF"/><path d="M242.813,327.816c-0.005,0.321-0.011,0.641-0.017,0.958h26.662c-0.006-0.317-0.011-0.637-0.017-0.958     H242.813z" fill="#BBBCBF"/><path d="M242.665,336.229c-0.005,0.322-0.011,0.641-0.017,0.957h26.963c-0.006-0.316-0.012-0.635-0.017-0.957     H242.665z" fill="#BBBCBF"/><path d="M244.198,252.788c-0.005,0.319-0.012,0.639-0.018,0.957h23.856c-0.006-0.318-0.012-0.638-0.018-0.957     H244.198z" fill="#BBBCBF"/><path d="M246.341,140.331c-0.006,0.318-0.013,0.637-0.019,0.957h19.519c-0.006-0.32-0.013-0.639-0.019-0.957     H246.341z" fill="#BBBCBF"/><path d="M245.633,177.241c-0.006,0.318-0.012,0.637-0.019,0.956h20.951c-0.006-0.319-0.013-0.638-0.019-0.956     H245.633z" fill="#BBBCBF"/><path d="M245.976,159.313c-0.006,0.317-0.012,0.637-0.018,0.957h20.256c-0.006-0.32-0.013-0.64-0.019-0.957     H245.976z" fill="#BBBCBF"/><path d="M246.728,120.233c-0.006,0.317-0.012,0.637-0.019,0.957h18.735c-0.007-0.32-0.013-0.64-0.019-0.957     H246.728z" fill="#BBBCBF"/><path d="M243.96,265.466c-0.006,0.319-0.012,0.638-0.018,0.957h24.338c-0.006-0.319-0.012-0.638-0.018-0.957     H243.96z" fill="#BBBCBF"/><path d="M245.311,194.112c-0.006,0.319-0.012,0.638-0.019,0.957h21.604c-0.007-0.319-0.013-0.638-0.02-0.957     H245.311z" fill="#BBBCBF"/><path d="M244.72,225.16c-0.006,0.319-0.012,0.638-0.019,0.956h22.799c-0.006-0.318-0.012-0.637-0.019-0.956     H244.72z" fill="#BBBCBF"/><path d="M244.451,239.401c-0.006,0.319-0.012,0.639-0.018,0.957h23.345c-0.006-0.318-0.012-0.638-0.018-0.957     H244.451z" fill="#BBBCBF"/><path d="M245.004,210.183c-0.006,0.318-0.012,0.638-0.019,0.957h22.223c-0.006-0.319-0.012-0.639-0.018-0.957     H245.004z" fill="#BBBCBF"/></g><g><path d="M242.978,318.676c-0.006,0.32-0.012,0.639-0.018,0.957h26.33c-0.006-0.318-0.012-0.637-0.018-0.957     H242.978z" fill="#EDEDED"/><path d="M243.15,309.161c-0.006,0.32-0.011,0.64-0.017,0.957h25.979c-0.006-0.317-0.013-0.636-0.018-0.957H243.15     z" fill="#EDEDED"/><path d="M243.334,299.116c-0.006,0.319-0.012,0.639-0.018,0.957h25.606c-0.006-0.317-0.012-0.638-0.019-0.957     H243.334z" fill="#EDEDED"/><path d="M243.53,288.541c-0.006,0.319-0.012,0.639-0.018,0.957h25.21c-0.006-0.318-0.013-0.638-0.019-0.957     H243.53z" fill="#EDEDED"/><path d="M242.668,336.029c-0.005,0.322-0.011,0.641-0.017,0.957h26.956c-0.006-0.316-0.012-0.636-0.017-0.957     H242.668z" fill="#EDEDED"/><path d="M269.974,359.689c-0.001-0.238-0.004-0.557-0.008-0.957h-27.661c-0.004,0.385-0.006,0.705-0.007,0.957     H269.974z" fill="#EDEDED"/><path d="M243.738,277.312c-0.006,0.319-0.011,0.639-0.018,0.957h24.787c-0.006-0.318-0.012-0.638-0.019-0.957     H243.738z" fill="#EDEDED"/><path d="M242.405,351.668c-0.005,0.328-0.01,0.646-0.015,0.957h27.489c-0.006-0.31-0.011-0.629-0.016-0.957     H242.405z" fill="#EDEDED"/><path d="M242.529,344.114c-0.006,0.323-0.011,0.642-0.017,0.956h27.237c-0.005-0.314-0.01-0.633-0.016-0.956     H242.529z" fill="#EDEDED"/><path d="M242.817,327.617c-0.006,0.321-0.012,0.641-0.017,0.957h26.655c-0.006-0.316-0.012-0.636-0.018-0.957     H242.817z" fill="#EDEDED"/><path d="M245.98,159.112c-0.006,0.318-0.012,0.638-0.019,0.957h20.249c-0.006-0.319-0.012-0.639-0.019-0.957     H245.98z" fill="#EDEDED"/><path d="M245.636,177.041c-0.006,0.318-0.012,0.639-0.018,0.957h20.943c-0.006-0.319-0.013-0.639-0.019-0.957     H245.636z" fill="#EDEDED"/><path d="M246.345,140.132c-0.006,0.318-0.013,0.636-0.019,0.957h19.511c-0.006-0.32-0.012-0.64-0.019-0.957     H246.345z" fill="#EDEDED"/><path d="M243.964,265.267c-0.006,0.319-0.012,0.638-0.018,0.956h24.332c-0.007-0.318-0.013-0.637-0.019-0.956     H243.964z" fill="#EDEDED"/><path d="M246.731,120.034c-0.006,0.316-0.012,0.636-0.018,0.957h18.728c-0.007-0.321-0.013-0.641-0.019-0.957     H246.731z" fill="#EDEDED"/><path d="M245.314,193.913c-0.006,0.318-0.012,0.638-0.018,0.956h21.597c-0.007-0.318-0.013-0.638-0.02-0.956     H245.314z" fill="#EDEDED"/><path d="M245.008,209.982c-0.006,0.319-0.012,0.638-0.018,0.958h22.216c-0.006-0.32-0.012-0.639-0.019-0.958     H245.008z" fill="#EDEDED"/><path d="M244.455,239.202c-0.006,0.319-0.012,0.639-0.019,0.957h23.337c-0.006-0.318-0.012-0.638-0.018-0.957     H244.455z" fill="#EDEDED"/><path d="M244.202,252.589c-0.006,0.318-0.012,0.639-0.018,0.957h23.848c-0.006-0.318-0.012-0.639-0.018-0.957     H244.202z" fill="#EDEDED"/><path d="M244.724,224.96c-0.006,0.319-0.012,0.639-0.018,0.958h22.792c-0.006-0.319-0.012-0.639-0.019-0.958     H244.724z" fill="#EDEDED"/></g><path d="M265.009,99.157c-0.007-0.334-0.013-0.653-0.02-0.957h-17.836c-0.006,0.304-0.012,0.622-0.019,0.957    H265.009z" fill="#BBBCBF"/><path d="M265.005,98.958c-0.011-0.527-0.02-1.015-0.028-1.46h-17.81c-0.008,0.444-0.018,0.933-0.028,1.46H265.005z    " fill="#FFFFFF"/><circle cx="256.135" cy="218.055" fill="#E8E8E8" r="1.422"/><circle cx="256.134" cy="186.042" fill="#E8E8E8" r="1.422"/><circle cx="256.134" cy="150.109" fill="#E8E8E8" r="1.422"/><path d="M233.903,82.846c-0.469,2.471,0.88,8.412,4.861,9.151c4.691,0.872,7.277,1.596,7.277,1.596l18.938-6.331    c0,0,3.486-4.548,6.672-6.632c3.187-2.084,5.313-2.214,5.313-2.214l0.12-2.505l-8.436-30.742c0,0-0.094-11.061-0.063-12.565    c0.052-2.621,0.913-2.553,4.996-6.31c4.083-3.756,3.789-9.651,3.789-9.651L266.504,30.87    C266.504,30.87,234.189,81.34,233.903,82.846z" fill="#CCA871"/><path d="M246.255,94.202c0,0-2.422-3.17-6.706-3.824c-4.284-0.652-6.317-3.63-5.446-8.567    c0.872-4.938,12.824-60.751,15.031-71.667c1.825-9.03,11.267-11.754,18.061-10.346c4.172,0.865,9.666,6.22,10.329,11.87    c0.796,6.773-1.797,10.795-4.429,12.999c-2.815,2.355-4.284,2.996-4.283,9.51c0,5.429,1.201,8.361,4.283,16.483    c3.643,9.604,4.065,26.14,4.065,26.14s-0.87-0.174-3.99,1.33c-3.119,1.504-7.919,6.355-8.192,11.839    c-0.076,1.503-0.016,4.186-0.016,4.186L246.255,94.202z" fill="#E8BE80"/><path d="M240.249,52.326c-0.438,2.071-0.87,4.113-1.289,6.095v31.848c0.192,0.041,0.387,0.079,0.589,0.109    c0.24,0.037,0.472,0.082,0.7,0.135V52.326z" fill="#E3B77A"/><path d="M254.657,94.193V1.978c-0.405,0.263-0.795,0.546-1.171,0.852v91.369L254.657,94.193z" fill="#D9AC6D"/><path d="M260.982,94.17V-0.348c-0.234,0.035-0.469,0.076-0.703,0.12v94.4L260.982,94.17z" fill="#D6AC6B"/><path d="M265.668-0.441v87.137c0.229-0.625,0.506-1.231,0.82-1.815V-0.331    C266.219-0.375,265.943-0.41,265.668-0.441z" fill="#DAAC6B"/><circle cx="246.359" cy="81.221" fill="#E6E6E7" r="4.78"/><circle cx="250.63" cy="60.749" fill="#E6E6E7" r="4.78"/><circle cx="254.926" cy="40.336" fill="#E6E6E7" r="4.78"/><circle cx="259.052" cy="19.962" fill="#E6E6E7" r="4.78"/><circle cx="246.272" cy="80.917" fill="#6D6E70" r="3.873"/><circle cx="250.544" cy="60.445" fill="#6D6E70" r="3.873"/><circle cx="254.84" cy="40.033" fill="#6D6E70" r="3.873"/><circle cx="258.966" cy="19.659" fill="#6D6E70" r="3.873"/><rect fill="#BBBCBF" height="472.217" transform="matrix(-0.9999 0.0126 -0.0126 -0.9999 534.1145 507.6824)" width="0.541" x="265.183" y="19.42"/><rect fill="#BBBCBF" height="452.821" width="0.896" x="258.679" y="38.799"/><rect fill="#BBBCBF" height="431.096" width="1.083" x="252.263" y="60.523"/><rect fill="#BBBCBF" height="412.096" transform="matrix(-0.9999 -0.0154 0.0154 -0.9999 487.9629 574.9296)" width="1.458" x="245.467" y="79.537"/><g><path d="M229.055,65.964c-3.767-0.616-5.008,3.59-5.008,3.59s-3.213,0.517-3.83,3.484     c-0.617,2.968,2.125,4.721,2.125,4.721s-0.539,4.354,3.163,5.288c4.125,1.042,4.731-2.384,6.157-3.929     c1.158-1.255,3.176-1.019,3.176-1.019l0.799-3.883c0,0-1.938-0.583-2.5-2.196C232.445,70.036,233.253,66.652,229.055,65.964z" fill="#A6A8AA"/><path d="M228.924,65.783c-3.768-0.617-5.008,3.591-5.008,3.591s-3.213,0.516-3.83,3.483     c-0.617,2.968,2.125,4.722,2.125,4.722s-0.538,4.353,3.164,5.287c4.125,1.041,4.731-2.384,6.158-3.93     c1.157-1.253,3.336-0.99,3.336-0.99l0.804-3.868c0,0-2.104-0.625-2.666-2.237C232.314,69.856,233.122,66.473,228.924,65.783z" fill="#C1C1C1"/><path d="M232.056,74.106c-0.098-0.021-0.565,0.309-0.733,1.121c-0.169,0.813,0.109,1.322,0.221,1.346     c0.112,0.022,3.463,0.707,3.463,0.707l0.513-2.467C235.52,74.813,232.155,74.127,232.056,74.106z" fill="#59595B"/><path d="M231.265,75.67l3.908,0.813l0.181-0.87l-3.906-0.813c-0.047,0.127-0.092,0.266-0.125,0.428     C231.289,75.39,231.273,75.535,231.265,75.67z" fill="#E6E6E7"/></g><g><path d="M233.285,45.845c-3.768-0.617-5.008,3.59-5.008,3.59s-3.213,0.517-3.83,3.484s2.125,4.722,2.125,4.722     s-0.539,4.353,3.164,5.287c4.125,1.042,4.731-2.385,6.157-3.93c1.157-1.254,3.175-1.018,3.175-1.018l0.8-3.883     c0,0-1.938-0.584-2.5-2.195C236.674,49.917,237.482,46.533,233.285,45.845z" fill="#A6A8AA"/><path d="M233.153,45.664c-3.768-0.616-5.008,3.589-5.008,3.589s-3.213,0.518-3.83,3.485     c-0.617,2.968,2.125,4.722,2.125,4.722s-0.539,4.352,3.163,5.287c4.125,1.041,4.731-2.385,6.158-3.93     c1.157-1.254,3.336-0.99,3.336-0.99l0.804-3.868c0,0-2.104-0.626-2.666-2.237C236.543,49.737,237.351,46.353,233.153,45.664z" fill="#C1C1C1"/><path d="M236.285,53.986c-0.099-0.02-0.565,0.311-0.734,1.121c-0.168,0.813,0.109,1.323,0.221,1.347     c0.112,0.022,3.464,0.706,3.464,0.706l0.512-2.466C239.749,54.694,236.384,54.007,236.285,53.986z" fill="#59595B"/><path d="M235.495,55.55l3.907,0.813l0.181-0.87l-3.906-0.812c-0.047,0.127-0.092,0.266-0.125,0.427     C235.518,55.271,235.502,55.416,235.495,55.55z" fill="#E6E6E7"/></g><g><path d="M237.52,25.946c-3.766-0.628-5.018,3.576-5.018,3.576s-3.215,0.507-3.84,3.473     c-0.625,2.966,2.111,4.729,2.111,4.729s-0.551,4.351,3.148,5.296c4.122,1.053,4.738-2.371,6.168-3.912     c1.161-1.25,3.179-1.009,3.179-1.009l0.811-3.88c0,0-1.937-0.59-2.494-2.203C240.897,30.029,241.715,26.647,237.52,25.946z" fill="#A6A8AA"/><path d="M237.389,25.766c-3.766-0.628-5.019,3.575-5.019,3.575s-3.215,0.508-3.84,3.474s2.111,4.728,2.111,4.728     s-0.551,4.351,3.148,5.296c4.122,1.054,4.738-2.37,6.169-3.911c1.161-1.251,3.339-0.98,3.339-0.98l0.814-3.866     c0,0-2.102-0.632-2.659-2.245C240.767,29.849,241.585,26.466,237.389,25.766z" fill="#C1C1C1"/><path d="M240.497,34.098c-0.099-0.021-0.566,0.308-0.737,1.118c-0.171,0.813,0.105,1.323,0.217,1.347     c0.112,0.023,3.462,0.717,3.462,0.717l0.52-2.464C243.958,34.815,240.596,34.118,240.497,34.098z" fill="#59595B"/><path d="M239.702,35.658l3.905,0.824l0.183-0.87l-3.904-0.823c-0.047,0.127-0.092,0.266-0.126,0.427     C239.726,35.379,239.71,35.524,239.702,35.658z" fill="#E6E6E7"/></g><g><path d="M241.745,5.753c-3.768-0.618-5.008,3.59-5.008,3.59s-3.213,0.516-3.83,3.483     c-0.617,2.968,2.125,4.722,2.125,4.722s-0.539,4.354,3.164,5.287c4.125,1.042,4.731-2.384,6.157-3.929     c1.157-1.254,3.176-1.019,3.176-1.019l0.799-3.882c0,0-1.938-0.585-2.5-2.196C245.135,9.824,245.943,6.441,241.745,5.753z" fill="#A6A8AA"/><path d="M241.614,5.571c-3.768-0.617-5.008,3.59-5.008,3.59s-3.213,0.517-3.83,3.484     c-0.617,2.968,2.125,4.721,2.125,4.721s-0.539,4.354,3.163,5.288c4.125,1.042,4.731-2.384,6.158-3.929     c1.157-1.255,3.336-0.99,3.336-0.99l0.804-3.869c0,0-2.104-0.626-2.666-2.237C245.004,9.646,245.812,6.261,241.614,5.571z" fill="#C1C1C1"/><path d="M244.746,13.894c-0.099-0.02-0.565,0.31-0.734,1.122c-0.168,0.812,0.11,1.322,0.221,1.346     c0.112,0.022,3.464,0.707,3.464,0.707l0.512-2.467C248.209,14.602,244.845,13.915,244.746,13.894z" fill="#59595B"/><path d="M243.955,15.458l3.908,0.813l0.181-0.87l-3.906-0.812c-0.047,0.127-0.092,0.265-0.125,0.427     C243.979,15.179,243.963,15.323,243.955,15.458z" fill="#E6E6E7"/></g><circle cx="246.246" cy="80.481" fill="#929496" r="3.873"/><circle cx="246.246" cy="79.746" fill="#BBBCBF" r="3.532"/><circle cx="246.246" cy="79.745" fill="#E6E6E7" r="3.106"/><path d="M243.747,81.586c0.272,0.369,0.622,0.677,1.028,0.896l3.941-4.615c-0.278-0.363-0.633-0.665-1.042-0.877    L243.747,81.586z" fill="#929496"/><circle cx="250.518" cy="60.009" fill="#929496" r="3.872"/><circle cx="250.518" cy="59.274" fill="#BBBCBF" r="3.532"/><circle cx="250.518" cy="59.274" fill="#E6E6E7" r="3.106"/><path d="M249.347,62.138c0.425,0.172,0.883,0.254,1.344,0.229l0.96-5.992c-0.427-0.166-0.887-0.239-1.347-0.207    L249.347,62.138z" fill="#929496"/><circle cx="254.813" cy="39.596" fill="#929496" r="3.873"/><circle cx="254.813" cy="38.861" fill="#BBBCBF" r="3.531"/><circle cx="254.813" cy="38.862" fill="#E6E6E7" r="3.107"/><path d="M251.735,39.313c0.067,0.453,0.229,0.891,0.484,1.273l5.65-2.214c-0.073-0.452-0.244-0.885-0.505-1.266    L251.735,39.313z" fill="#929496"/><circle cx="258.938" cy="19.222" fill="#929496" r="3.873"/><circle cx="258.938" cy="18.487" fill="#BBBCBF" r="3.532"/><circle cx="258.938" cy="18.487" fill="#E6E6E7" r="3.107"/><path d="M257.874,21.392c0.43,0.156,0.892,0.222,1.351,0.18l0.742-6.023c-0.433-0.149-0.896-0.205-1.354-0.156    L257.874,21.392z" fill="#929496"/><circle cx="260.536" cy="66.455" fill="#D0D1D3" r="4.01"/><circle cx="260.536" cy="66.455" fill="#929496" r="2.748"/><circle cx="260.536" cy="66.455" fill="#D0D1D3" r="2.5"/><circle cx="260.536" cy="66.454" fill="#808183" r="1.51"/><rect fill="#D0D1D3" height="0.446" transform="matrix(0.4701 -0.8826 0.8826 0.4701 79.4124 265.1746)" width="1.733" x="259.669" y="66.232"/><rect fill="#D0D1D3" height="0.446" transform="matrix(-0.8828 -0.4698 0.4698 -0.8828 459.3033 247.5248)" width="1.734" x="259.669" y="66.232"/></g></g></svg>