<?xml version="1.0" ?><!DOCTYPE svg  PUBLIC '-//W3C//DTD SVG 1.1//EN'  'http://www.w3.org/Graphics/SVG/1.1/DTD/svg11.dtd'><svg enable-background="new 0 0 512 512" height="512px" id="guitar3" version="1.1" viewBox="0 0 512 512" width="512px" xml:space="preserve" xmlns="http://www.w3.org/2000/svg" xmlns:xlink="http://www.w3.org/1999/xlink"><path d="M223.986,288.613c0,0-0.445-0.324-0.606-0.939c-0.161-0.616-0.096-0.837,0.069-0.977  c0.165-0.141,2.195-0.679,2.014-1.879c-0.254-1.687-3.732-1.21-4.369-1.031c-0.636,0.179-3.87,1.587-3.208,3.16  c0.47,1.118,2.483,0.521,2.697,0.555c0.214,0.033,0.385,0.188,0.568,0.798c0.183,0.609-0.028,1.118-0.028,1.118L223.986,288.613z" fill="#EDC897"/><path d="M254.501,506.576c0,0,0.343,0.432,0.333,1.068c-0.009,0.637-0.131,0.832-0.328,0.922  c-0.196,0.091-2.296,0.067-2.442,1.272c-0.206,1.693,3.273,2.163,3.934,2.161c0.661-0.002,4.153-0.495,3.936-2.188  c-0.154-1.204-2.254-1.166-2.45-1.256c-0.197-0.089-0.321-0.283-0.335-0.92s0.327-1.07,0.327-1.07L254.501,506.576z" fill="#EDC897"/><path d="M208.164,359.364c0,0,1.36,5.9-1.798,12.38c-5.325,10.927-18.949,19.709-27.248,36.444  c-4.379,8.831-6.432,21.508-6.432,21.508l46.958-38.863L208.164,359.364z" fill="#EBDEC9"/><path d="M316.081,321.006c0,0-0.914-11.171-5.688-11.882c-3.964-0.591-5.383,2.844-6.499,4.367  c-1.117,1.523-4.367,8.632-15.843,8.124c-19.315-0.854-17.874-22.85-17.874-22.85l1.422,30.162L316.081,321.006z" fill="#EBDEC9"/><path d="M243.977,286.07c0,0-19.893-1.71-34.63,9.343c-17.468,13.101-13.913,33.311-13.913,33.311L243.977,286.07z" fill="#EBDEC9"/><path d="M242.841,288.591c0,0-10.23-1.279-26.488,5.571c-16.258,6.851-21.139,24.19-21.099,31.237  c0.091,16.076,18.713,32.525,12.604,46.218c-5.297,11.875-9.865,11.597-19.546,24.843s-19.065,29.433-15.621,50.871  c3.655,22.749,14.077,61.253,84.2,60.103c66.6-1.092,77.013-37.262,80.667-48.131c5.77-17.167,1.461-44.208-12.879-61.563  c-12.322-14.913-15.805-17.078-20.46-26.578c-4.476-9.134,4.22-23.329,5.938-26.579c5.114-9.682,6.303-13.52,5.937-23.109  c-0.365-9.59-6.679-11.463-10.139-6.85c-3.562,4.75-6.72,9.769-17.08,10.23c-12.33,0.549-16.806-11.966-18.998-19.09  C268.05,299.827,242.841,288.591,242.841,288.591z" fill="#EDE2D2"/><g><path d="M279.297,352.837c0,1.27-1.039,2.309-2.309,2.309h-41.866c-1.27,0-2.309-1.039-2.309-2.309v-17.98   c0-1.27,1.039-2.309,2.309-2.309h41.866c1.27,0,2.309,1.039,2.309,2.309V352.837z" fill="#272525"/><circle cx="235.713" cy="343.847" fill="#F7D68F" r="1.269"/><circle cx="276.398" cy="343.847" fill="#F7D68F" r="1.269"/><circle cx="235.167" cy="334.532" fill="#434244" r="1.269"/><circle cx="235.167" cy="353.161" fill="#434244" r="1.269"/><circle cx="276.944" cy="334.532" fill="#434244" r="1.269"/><circle cx="276.944" cy="353.161" fill="#434244" r="1.269"/><path d="M273.979,351.848c0,1.009-0.826,1.834-1.835,1.834h-32.16c-1.009,0-1.834-0.825-1.834-1.834v-15.835   c0-1.009,0.826-1.835,1.834-1.835h32.16c1.009,0,1.835,0.826,1.835,1.835V351.848z" fill="#434244"/><path d="M273.96,351.681c0,1.009-0.825,1.835-1.834,1.835h-32.16c-1.009,0-1.834-0.826-1.834-1.835v-15.835   c0-1.009,0.826-1.835,1.834-1.835h32.16c1.009,0,1.834,0.826,1.834,1.835V351.681z" fill="#9C7D5D"/><path d="M272.145,334.011h-0.834c1.009,0,1.835,0.826,1.835,1.835v15.835   c0,1.009-0.826,1.835-1.835,1.835h0.834c1.009,0,1.835-0.826,1.835-1.835v-15.835C273.979,334.837,273.153,334.011,272.145,334.011   z" fill="#FFFFFF" opacity="0.5"/><path d="M239.015,335.024h33.933c-0.304-0.599-0.924-1.014-1.638-1.014h-30.659   C239.938,334.011,239.318,334.426,239.015,335.024z" fill="#272525" opacity="0.3"/><path d="M238.817,351.681v-15.835c0-1.009,0.826-1.835,1.834-1.835h-0.667   c-1.009,0-1.834,0.826-1.834,1.835v15.835c0,1.009,0.826,1.835,1.834,1.835h0.667C239.643,353.516,238.817,352.689,238.817,351.681   z" fill="#FFFFFF" opacity="0.2"/><g><circle cx="243.345" cy="339.262" fill="#F4CFA6" r="1.587"/><circle cx="248.426" cy="339.262" fill="#F4CFA6" r="1.587"/><circle cx="253.506" cy="339.262" fill="#F4CFA6" r="1.588"/><circle cx="258.586" cy="339.262" fill="#F4CFA6" r="1.587"/><circle cx="263.667" cy="339.262" fill="#F4CFA6" r="1.587"/><circle cx="268.748" cy="339.262" fill="#F4CFA6" r="1.587"/></g><path d="M238.132,343.764v7.917c0,1.009,0.826,1.835,1.834,1.835h32.16   c1.009,0,1.834-0.826,1.834-1.835v-7.917H238.132z" fill="#272525" opacity="0.1"/></g><path d="M273.917,39.342c0.244-9.011,3.427-34.338,3.427-34.338s-4.286,0.487-7.776-0.568  c-3.767-1.139-7.314-3.86-9.588-3.942c-1.934-0.069-3.031,0.519-3.32,0.71c-0.289-0.191-1.388-1.268-3.321-1.199  c-2.273,0.081-6.138,2.677-9.904,3.815c-3.491,1.056-8.524,0.163-8.524,0.163s2.841,26.303,3.085,35.314  c0.243,9.012-1.624,30.525-1.624,30.525s5.521,3.734,7.631,9.174c2.111,5.439,1.948,9.66,1.948,9.66l-4.303,243.876h30.041  l-4.271-240.28c0,0-0.381-1.767-0.373-2.095c0.028-1.276-2.104-7.731-0.426-12.056c2.11-5.44,8.824-8.647,8.824-8.647  S273.674,48.354,273.917,39.342z" fill="#593226"/><path d="M275.009,39.298c0.244-9.012,3.085-35.314,3.085-35.314s-5.033,0.893-8.523-0.163  c-3.767-1.139-7.632-3.734-9.904-3.815c-1.934-0.069-3.042,0.565-3.331,0.756c-0.289-0.191-1.396-0.825-3.33-0.756  c-2.273,0.081-6.138,2.677-9.904,3.815c-3.491,1.056-8.524,0.163-8.524,0.163s2.842,26.303,3.085,35.314  c0.244,9.012-1.624,30.525-1.624,30.525s5.521,3.734,7.631,9.174c2.11,5.439,1.948,9.66,1.948,9.66l-4.303,243.876h30.041  l-4.303-243.876c0,0-0.162-4.221,1.948-9.66c2.111-5.44,7.632-9.174,7.632-9.174S274.766,48.31,275.009,39.298z" fill="#724335"/><rect fill="#5C3A31" height="241.154" opacity="0.7" width="0.633" x="246.328" y="91.379"/><rect fill="#5C3A31" height="241.154" opacity="0.8" width="0.633" x="250.997" y="91.379"/><rect fill="#5F3D37" height="240.195" opacity="0.8" width="0.633" x="253.181" y="92.338"/><rect fill="#55342A" height="242.824" opacity="0.7" width="0.73" x="260.958" y="89.709"/><rect fill="#55342A" height="242.824" opacity="0.4" width="0.73" x="262.792" y="89.709"/><rect fill="#513530" height="246.849" opacity="0.8" width="0.682" x="265.806" y="85.684"/><rect fill="#513530" height="246.849" opacity="0.7" width="0.681" x="256.634" y="85.684"/><polygon fill="#D3D1CC" points="246.875,320.729 265.796,320.729 267.069,317.7 245.602,317.7 "/><polygon fill="#D3D1CC" points="246.875,308.293 265.796,308.293 267.069,305.266 245.602,305.266 "/><polygon fill="#D3D1CC" points="246.875,294.529 265.796,294.529 267.069,291.502 245.602,291.502 "/><polygon fill="#D3D1CC" points="248.848,280.126 263.823,280.126 265.975,275.217 246.696,275.217 "/><polygon fill="#D3D1CC" points="248.848,253.574 263.823,253.574 265.975,248.665 246.696,248.665 "/><path d="M247.22,216.065c0,0,1.211,2.009,1.496,3.41c0.284,1.4,0.692,3.41,0.692,3.41h13.854  c0,0,0.408-2.009,0.692-3.41s1.495-3.41,1.495-3.41H247.22z" fill="#D3D1CC"/><path d="M247.221,191.505c0,0,1.211,2.009,1.496,3.41c0.284,1.4,0.692,3.409,0.692,3.409h13.854  c0,0,0.408-2.009,0.693-3.409c0.283-1.401,1.494-3.41,1.494-3.41H247.221z" fill="#D3D1CC"/><path d="M264.236,163.216c0,0-1.371,3.1-1.465,4.459c-0.092,1.359-0.263,3.853-0.263,3.853h-12.347  c0,0-0.17-2.494-0.263-3.853c-0.093-1.36-1.464-4.459-1.464-4.459H264.236z" fill="#D3D1CC"/><path d="M264.235,133.334c0,0-1.371,3.1-1.463,4.459c-0.093,1.359-0.264,3.853-0.264,3.853h-12.347  c0,0-0.17-2.494-0.263-3.853c-0.092-1.359-1.463-4.459-1.463-4.459H264.235z" fill="#D3D1CC"/><polygon fill="#F1F1F2" points="267.078,90.081 245.593,90.081 245.547,92.647 267.123,92.647 "/><g><g><path d="M236.549,17.446l-0.58-0.001v0.284h-1.702c0,0-1.36-1.061-3.043-1.754    c-1.015-0.418-4.462-1.463-4.849-1.264c-0.449,0.231-0.849,2.892-0.954,3.533c-0.072,0.441-0.103,0.821-0.103,1.059    c0,0.237,0.031,0.617,0.103,1.058c0.105,0.642,0.505,3.302,0.954,3.534c0.387,0.199,3.834-0.846,4.849-1.264    c1.684-0.693,3.043-1.754,3.043-1.754h1.702v0.284l0.58-0.001V17.446z" fill="#B88F5F"/><path d="M226.375,23.896c0.387,0.199,3.834-0.846,4.849-1.264c1.684-0.693,3.043-1.754,3.043-1.754    h1.702v0.284l0.58-0.001v-1.857h-11.232c0,0.237,0.031,0.617,0.103,1.058C225.526,21.004,225.925,23.664,226.375,23.896z" fill="#929496" opacity="0.3"/></g><g><path d="M237.763,37.435l-0.581,0v0.284h-1.702c0,0-1.359-1.061-3.043-1.754c-1.015-0.418-4.461-1.463-4.849-1.264    c-0.45,0.231-0.849,2.892-0.955,3.533c-0.072,0.441-0.103,0.821-0.103,1.059s0.031,0.617,0.103,1.059    c0.106,0.642,0.505,3.302,0.955,3.533c0.387,0.199,3.833-0.846,4.849-1.264c1.684-0.693,3.043-1.754,3.043-1.754h1.702v0.284    l0.581,0V37.435z" fill="#B88F5F"/><path d="M227.588,43.884c0.387,0.199,3.833-0.846,4.849-1.264c1.684-0.693,3.043-1.754,3.043-1.754    h1.702v0.284l0.581,0v-1.857H226.53c0,0.237,0.031,0.617,0.103,1.059C226.739,40.992,227.138,43.652,227.588,43.884z" fill="#929496" opacity="0.3"/></g><g><path d="M237.012,58.059l-0.581-0.001v0.284h-1.702c0,0-1.359-1.062-3.043-1.754    c-1.015-0.418-4.461-1.463-4.849-1.264c-0.45,0.231-0.849,2.892-0.955,3.533c-0.072,0.441-0.103,0.821-0.103,1.059    c0,0.237,0.031,0.617,0.103,1.058c0.106,0.642,0.505,3.302,0.955,3.534c0.387,0.199,3.833-0.846,4.849-1.264    c1.684-0.693,3.043-1.754,3.043-1.754h1.702v0.284l0.581-0.001V58.059z" fill="#B88F5F"/><path d="M226.837,64.508c0.387,0.199,3.833-0.846,4.849-1.264c1.684-0.693,3.043-1.754,3.043-1.754    h1.702v0.284l0.581-0.001v-1.857h-11.232c0,0.237,0.031,0.617,0.103,1.058C225.988,61.616,226.387,64.276,226.837,64.508z" fill="#929496" opacity="0.3"/></g></g><g><g><path d="M276.149,17.129l0.58-0.001v0.284h1.702c0,0,1.359-1.061,3.044-1.754c1.015-0.417,4.461-1.463,4.849-1.264    c0.449,0.231,0.849,2.892,0.954,3.533c0.072,0.441,0.104,0.821,0.104,1.059c0,0.237-0.031,0.617-0.104,1.058    c-0.105,0.642-0.505,3.302-0.954,3.534c-0.388,0.199-3.834-0.846-4.849-1.264c-1.685-0.693-3.044-1.754-3.044-1.754h-1.702v0.284    l-0.58-0.001V17.129z" fill="#B88F5F"/><path d="M286.324,23.578c-0.388,0.199-3.834-0.846-4.849-1.264    c-1.685-0.693-3.044-1.754-3.044-1.754h-1.702v0.284l-0.58-0.001v-1.857h11.232c0,0.237-0.031,0.617-0.104,1.058    C287.173,20.686,286.773,23.346,286.324,23.578z" fill="#929496" opacity="0.3"/></g><g><path d="M274.937,37.117l0.58-0.001V37.4h1.702c0,0,1.359-1.061,3.043-1.754c1.016-0.417,4.462-1.463,4.85-1.264    c0.449,0.231,0.849,2.892,0.954,3.534c0.072,0.441,0.103,0.821,0.103,1.058c0,0.237-0.03,0.617-0.103,1.059    c-0.105,0.642-0.505,3.302-0.954,3.533c-0.388,0.2-3.834-0.846-4.85-1.264c-1.684-0.693-3.043-1.754-3.043-1.754h-1.702v0.284    l-0.58,0V37.117z" fill="#B88F5F"/><path d="M285.111,43.566c-0.388,0.2-3.834-0.846-4.85-1.264c-1.684-0.693-3.043-1.754-3.043-1.754    h-1.702v0.284l-0.58,0v-1.857h11.231c0,0.237-0.03,0.617-0.103,1.059C285.96,40.674,285.561,43.334,285.111,43.566z" fill="#929496" opacity="0.3"/></g><g><path d="M275.687,57.741l0.581,0v0.284h1.702c0,0,1.359-1.061,3.043-1.754c1.016-0.417,4.462-1.463,4.85-1.264    c0.449,0.231,0.849,2.892,0.954,3.533c0.072,0.441,0.103,0.821,0.103,1.059c0,0.237-0.03,0.617-0.103,1.058    c-0.105,0.642-0.505,3.302-0.954,3.534c-0.388,0.199-3.834-0.846-4.85-1.264c-1.684-0.693-3.043-1.754-3.043-1.754h-1.702v0.284    l-0.581-0.001V57.741z" fill="#B88F5F"/><path d="M285.862,64.19c-0.388,0.199-3.834-0.846-4.85-1.264c-1.684-0.693-3.043-1.754-3.043-1.754    h-1.702v0.284l-0.581-0.001v-1.857h11.232c0,0.237-0.03,0.617-0.103,1.058C286.711,61.298,286.312,63.958,285.862,64.19z" fill="#929496" opacity="0.3"/></g></g><path d="M278.094,3.983c0,0-5.033,0.893-8.523-0.163c-3.767-1.139-7.632-3.734-9.904-3.815  c-1.934-0.069-3.042,0.565-3.331,0.756c-0.289-0.191-1.396-0.825-3.33-0.756c-2.273,0.081-6.138,2.677-9.904,3.815  c-3.491,1.056-8.524,0.163-8.524,0.163s2.842,26.303,3.085,35.314c0.244,9.012-1.624,30.525-1.624,30.525s5.521,3.734,7.631,9.174  c2.11,5.439,1.948,9.66,1.948,9.66l-0.032,1.831h21.5l-0.032-1.831c0,0-0.162-4.221,1.948-9.66c2.111-5.44,7.632-9.174,7.632-9.174  s-1.867-21.514-1.624-30.525C275.253,30.286,278.094,3.983,278.094,3.983z" fill="#1D1B1B"/><path d="M278.094,3.983c0,0-5.033,0.893-8.523-0.163c-3.767-1.139-7.632-3.734-9.904-3.815  c-1.934-0.069-3.042,0.565-3.331,0.756v89.726h10.75l-0.032-1.831c0,0-0.162-4.221,1.948-9.66c2.111-5.44,7.632-9.174,7.632-9.174  s-1.867-21.514-1.624-30.525C275.253,30.286,278.094,3.983,278.094,3.983z" fill="#141414"/><g><polygon fill="#BBBCBF" points="244.349,160.545 268.321,160.545 268.31,159.882 244.361,159.882  "/><polygon fill="#BBBCBF" points="243.021,235.854 243.009,236.518 269.662,236.518 269.65,235.854  "/><polygon fill="#BBBCBF" points="243.214,224.892 243.203,225.555 269.468,225.555 269.457,224.892  "/><polygon fill="#BBBCBF" points="269.831,246.084 242.84,246.084 242.829,246.748 269.842,246.748  "/><polygon fill="#BBBCBF" points="243.418,213.324 243.407,213.987 269.265,213.987 269.253,213.324  "/><polygon fill="#BBBCBF" points="242.07,289.753 270.601,289.753 270.589,289.09 242.082,289.09  "/><polygon fill="#BBBCBF" points="243.621,201.839 269.05,201.839 269.038,201.175 243.632,201.175  "/><polygon fill="#BBBCBF" points="241.818,304.04 270.853,304.04 270.841,303.377 241.83,303.377  "/><polygon fill="#BBBCBF" points="244.91,128.75 267.761,128.75 267.749,128.087 244.922,128.087  "/><polygon fill="#BBBCBF" points="268.566,174.446 244.104,174.446 244.092,175.109 268.578,175.109  "/><polygon fill="#BBBCBF" points="268.823,189.003 268.812,188.339 243.859,188.339 243.847,189.003  "/><polygon fill="#BBBCBF" points="241.953,296.389 241.941,297.053 270.729,297.053 270.718,296.389  "/><polygon fill="#BBBCBF" points="270.001,255.746 242.67,255.746 242.658,256.41 270.013,256.41  "/><polygon fill="#BBBCBF" points="242.214,281.572 242.203,282.235 270.469,282.235 270.457,281.572  "/><polygon fill="#BBBCBF" points="242.511,264.745 242.5,265.408 270.172,265.408 270.16,264.745  "/><polygon fill="#BBBCBF" points="242.359,273.366 242.347,274.03 270.323,274.03 270.312,273.366  "/><polygon fill="#BBBCBF" points="241.719,309.619 241.708,310.283 270.963,310.283 270.951,309.619  "/><polygon fill="#BBBCBF" points="245.216,111.401 267.454,111.401 267.442,110.738 245.228,110.738  "/><polygon fill="#BBBCBF" points="244.624,145.009 268.047,145.009 268.035,144.346 244.635,144.346  "/><polygon fill="#BBBCBF" points="271.257,326.948 241.414,326.948 241.402,327.611 271.269,327.611  "/><polygon fill="#BBBCBF" points="241.508,321.59 241.497,322.254 271.175,322.254 271.163,321.59  "/><polygon fill="#BBBCBF" points="241.612,315.69 241.601,316.354 271.07,316.354 271.059,315.69  "/></g><g><polygon fill="#EDEDED" points="243.023,235.716 243.011,236.379 269.659,236.379 269.647,235.716  "/><polygon fill="#EDEDED" points="243.217,224.753 243.205,225.417 269.466,225.417 269.454,224.753  "/><polygon fill="#EDEDED" points="268.821,188.864 268.81,188.201 243.861,188.201 243.85,188.864  "/><polygon fill="#EDEDED" points="243.421,213.186 243.409,213.849 269.262,213.849 269.25,213.186  "/><polygon fill="#EDEDED" points="269.828,245.946 242.843,245.946 242.831,246.609 269.84,246.609  "/><polygon fill="#EDEDED" points="244.352,160.407 268.319,160.407 268.308,159.744 244.364,159.744  "/><polygon fill="#EDEDED" points="242.072,289.615 270.599,289.615 270.587,288.951 242.084,288.951  "/><polygon fill="#EDEDED" points="241.82,303.901 270.851,303.901 270.839,303.238 241.832,303.238  "/><polygon fill="#EDEDED" points="268.564,174.308 244.106,174.308 244.095,174.971 268.576,174.971  "/><polygon fill="#EDEDED" points="243.624,201.7 269.048,201.7 269.036,201.037 243.635,201.037  "/><polygon fill="#EDEDED" points="244.913,128.612 267.758,128.612 267.746,127.949 244.924,127.949  "/><polygon fill="#EDEDED" points="244.626,144.871 268.045,144.871 268.033,144.208 244.638,144.208  "/><polygon fill="#EDEDED" points="242.217,281.434 242.205,282.097 270.466,282.097 270.454,281.434  "/><polygon fill="#EDEDED" points="241.722,309.481 241.71,310.145 270.961,310.145 270.949,309.481  "/><polygon fill="#EDEDED" points="241.955,296.251 241.943,296.914 270.728,296.914 270.716,296.251  "/><polygon fill="#EDEDED" points="242.361,273.229 242.35,273.892 270.321,273.892 270.31,273.229  "/><polygon fill="#EDEDED" points="242.513,264.606 242.502,265.271 270.169,265.271 270.157,264.606  "/><polygon fill="#EDEDED" points="269.999,255.608 242.672,255.608 242.661,256.271 270.011,256.271  "/><polygon fill="#EDEDED" points="271.255,326.811 241.416,326.811 241.404,327.474 271.267,327.474  "/><polygon fill="#EDEDED" points="241.615,315.553 241.603,316.216 271.067,316.216 271.056,315.553  "/><polygon fill="#EDEDED" points="245.219,111.263 267.452,111.263 267.44,110.6 245.23,110.6  "/><polygon fill="#EDEDED" points="241.511,321.452 241.499,322.115 271.172,322.115 271.16,321.452  "/></g><g><path d="M279.223,405.913c0,1.27-1.039,2.309-2.309,2.309h-41.866c-1.27,0-2.309-1.039-2.309-2.309v-17.98   c0-1.27,1.039-2.308,2.309-2.308h41.866c1.27,0,2.309,1.038,2.309,2.308V405.913z" fill="#272525"/><circle cx="235.639" cy="396.923" fill="#F7D68F" r="1.269"/><circle cx="276.324" cy="396.923" fill="#F7D68F" r="1.269"/><circle cx="235.093" cy="387.609" fill="#434244" r="1.269"/><circle cx="235.093" cy="406.237" fill="#434244" r="1.269"/><circle cx="276.87" cy="387.609" fill="#434244" r="1.269"/><circle cx="276.87" cy="406.237" fill="#434244" r="1.269"/><path d="M273.905,404.924c0,1.009-0.826,1.835-1.835,1.835h-32.16c-1.009,0-1.834-0.826-1.834-1.835v-15.835   c0-1.009,0.825-1.835,1.834-1.835h32.16c1.009,0,1.835,0.826,1.835,1.835V404.924z" fill="#434244"/><path d="M273.887,404.758c0,1.009-0.825,1.834-1.835,1.834h-32.16c-1.009,0-1.834-0.825-1.834-1.834v-15.836   c0-1.009,0.825-1.834,1.834-1.834h32.16c1.01,0,1.835,0.825,1.835,1.834V404.758z" fill="#9C7D5D"/><path d="M272.07,387.088h-0.834c1.01,0,1.835,0.825,1.835,1.834v15.836   c0,1.009-0.825,1.834-1.835,1.834h0.834c1.009,0,1.835-0.825,1.835-1.834v-15.836C273.905,387.913,273.079,387.088,272.07,387.088z   " fill="#FFFFFF" opacity="0.5"/><path d="M238.941,388.101h33.933c-0.303-0.599-0.924-1.013-1.638-1.013h-30.659   C239.864,387.088,239.244,387.502,238.941,388.101z" fill="#272525" opacity="0.3"/><path d="M238.744,404.758v-15.836c0-1.009,0.825-1.834,1.834-1.834h-0.667   c-1.009,0-1.834,0.825-1.834,1.834v15.836c0,1.009,0.825,1.834,1.834,1.834h0.667C239.569,406.592,238.744,405.767,238.744,404.758   z" fill="#FFFFFF" opacity="0.2"/><g><circle cx="243.271" cy="392.338" fill="#F4CFA6" r="1.587"/><circle cx="248.352" cy="392.338" fill="#F4CFA6" r="1.587"/><circle cx="253.432" cy="392.338" fill="#F4CFA6" r="1.587"/><circle cx="258.512" cy="392.338" fill="#F4CFA6" r="1.587"/><circle cx="263.592" cy="392.338" fill="#F4CFA6" r="1.587"/><circle cx="268.673" cy="392.338" fill="#F4CFA6" r="1.587"/></g><path d="M238.058,396.84v7.918c0,1.009,0.825,1.834,1.834,1.834h32.16   c1.01,0,1.835-0.825,1.835-1.834v-7.918H238.058z" fill="#272525" opacity="0.1"/></g><g><circle cx="217.12" cy="320.893" fill="#272525" r="8.4"/><circle cx="217.12" cy="320.893" fill="#EDC897" r="4.096"/><circle cx="217.12" cy="320.893" fill="#C8A781" r="3.613"/><circle cx="217.12" cy="320.893" fill="#EDC897" r="2.808"/><circle cx="217.12" cy="320.893" fill="#272525" r="1.979"/><path d="M218.011,321.02c-0.15-0.364-0.616-0.539-0.945-0.539s-0.794,0.175-0.945,0.539   c-0.181,0.437-0.754,3.415-0.754,3.415h1.668h0.062h1.667C218.765,324.435,218.192,321.456,218.011,321.02z" fill="#EDC897"/><circle cx="217.097" cy="324.891" fill="#B98F58" r="1.789"/></g><g><circle cx="296.632" cy="440.518" fill="#272525" opacity="0.6" r="6.094"/><circle cx="296.632" cy="440.013" fill="#434244" r="6.094"/><circle cx="296.632" cy="439.76" fill="#272525" r="4.479"/><circle cx="296.632" cy="439.508" fill="#343333" r="3.495"/><path d="M290.544,439.76c-0.004,0.084-0.006,0.168-0.006,0.253c0,3.365,2.728,6.094,6.094,6.094   s6.094-2.729,6.094-6.094c0-0.085-0.003-0.169-0.006-0.253H290.544z" fill="#272525" opacity="0.2"/></g><g><circle cx="319.987" cy="426.697" fill="#272525" opacity="0.6" r="6.094"/><circle cx="319.987" cy="426.192" fill="#434244" r="6.094"/><circle cx="319.987" cy="425.939" fill="#272525" r="4.479"/><circle cx="319.987" cy="425.688" fill="#343333" r="3.495"/><path d="M313.899,425.939c-0.004,0.084-0.007,0.168-0.007,0.253c0,3.366,2.729,6.094,6.095,6.094   s6.094-2.728,6.094-6.094c0-0.085-0.003-0.169-0.006-0.253H313.899z" fill="#272525" opacity="0.2"/></g><g><circle cx="295.784" cy="469.382" fill="#272525" opacity="0.6" r="6.094"/><circle cx="295.784" cy="468.877" fill="#434244" r="6.094"/><circle cx="295.784" cy="468.625" fill="#272525" r="4.479"/><circle cx="295.784" cy="468.372" fill="#343333" r="3.495"/><path d="M289.696,468.625c-0.004,0.083-0.007,0.167-0.007,0.252c0,3.366,2.729,6.094,6.094,6.094   c3.366,0,6.095-2.728,6.095-6.094c0-0.085-0.003-0.169-0.007-0.252H289.696z" fill="#272525" opacity="0.2"/></g><g><circle cx="317.59" cy="455.85" fill="#272525" opacity="0.6" r="6.094"/><circle cx="317.59" cy="455.345" fill="#434244" r="6.094"/><circle cx="317.591" cy="455.092" fill="#272525" r="4.479"/><circle cx="317.59" cy="454.84" fill="#343333" r="3.495"/><path d="M311.503,455.092c-0.004,0.084-0.007,0.168-0.007,0.253c0,3.366,2.729,6.094,6.094,6.094   c3.366,0,6.095-2.728,6.095-6.094c0-0.085-0.003-0.169-0.007-0.253H311.503z" fill="#272525" opacity="0.2"/></g><g><path d="M244.025,414.406c0.011,0.268-0.165,0.493-0.39,0.502l-1.432,0.059c-0.226,0.01-0.418-0.202-0.429-0.469   l-0.022-0.548c-0.011-0.268,0.165-0.493,0.39-0.502l1.432-0.059c0.226-0.009,0.419,0.202,0.43,0.469L244.025,414.406z" fill="#ECD3AF"/><path d="M249.264,414.193c0.011,0.268-0.165,0.493-0.39,0.502l-1.432,0.059c-0.226,0.009-0.418-0.201-0.429-0.469   l-0.022-0.548c-0.011-0.267,0.165-0.493,0.39-0.502l1.432-0.059c0.225-0.009,0.418,0.202,0.43,0.469L249.264,414.193z" fill="#ECD3AF"/><path d="M254.503,413.98c0.011,0.268-0.165,0.493-0.39,0.503l-1.432,0.058c-0.225,0.01-0.418-0.201-0.429-0.469   l-0.022-0.548c-0.011-0.267,0.165-0.492,0.39-0.502l1.432-0.058c0.226-0.01,0.418,0.201,0.43,0.469L254.503,413.98z" fill="#ECD3AF"/><path d="M259.74,413.769c0.011,0.267-0.164,0.492-0.39,0.502l-1.432,0.058c-0.226,0.01-0.419-0.201-0.43-0.469   l-0.022-0.548c-0.011-0.267,0.165-0.492,0.39-0.501l1.432-0.059c0.227-0.01,0.419,0.201,0.43,0.469L259.74,413.769z" fill="#ECD3AF"/><path d="M264.979,413.556c0.011,0.267-0.165,0.493-0.39,0.502l-1.432,0.058c-0.226,0.01-0.419-0.201-0.43-0.469   l-0.022-0.547c-0.011-0.268,0.164-0.493,0.39-0.502l1.433-0.059c0.225-0.009,0.418,0.201,0.429,0.469L264.979,413.556z" fill="#ECD3AF"/><path d="M270.218,413.343c0.011,0.267-0.164,0.493-0.39,0.502l-1.432,0.059c-0.226,0.009-0.419-0.202-0.43-0.469   l-0.022-0.548c-0.011-0.268,0.165-0.493,0.391-0.502l1.432-0.059c0.225-0.009,0.419,0.201,0.43,0.469L270.218,413.343z" fill="#ECD3AF"/><path d="M275.206,412.497c-0.705,0.028-1.359,0.24-1.921,0.585l-34.604,1.405   c-0.586-0.296-1.252-0.452-1.955-0.424c-2.196,0.089-3.905,1.942-3.815,4.139c0.089,2.195,1.942,3.904,4.139,3.815   c0.798-0.033,1.531-0.299,2.137-0.729l34.16-1.387c0.638,0.377,1.388,0.581,2.184,0.549c2.196-0.09,3.904-1.942,3.815-4.139   C279.255,414.116,277.402,412.407,275.206,412.497z" fill="#272525" opacity="0.5"/><circle cx="236.874" cy="417.707" fill="#C8A781" r="3.98"/><circle cx="275.354" cy="416.141" fill="#C8A781" r="3.98"/><path d="M278.519,416.074c0.074,1.803-1.342,3.338-3.145,3.411l-38.24,1.554c-1.803,0.072-3.338-1.343-3.412-3.146   l-0.01-0.254c-0.073-1.803,1.342-3.338,3.146-3.411l38.239-1.553c1.804-0.073,3.339,1.342,3.412,3.146L278.519,416.074z" fill="#EDC897"/><circle cx="236.874" cy="417.708" fill="#ECD3AF" r="1.578"/><circle cx="275.354" cy="416.141" fill="#ECD3AF" r="1.578"/><rect fill="#9C7D5D" height="5.536" transform="matrix(0.9992 -0.0406 0.0406 0.9992 -16.7361 10.2089)" width="4.667" x="240.678" y="414.438"/><rect fill="#352618" height="5.536" transform="matrix(0.9992 -0.0407 0.0407 0.9992 -16.769 10.2299)" width="2.425" x="241.799" y="414.438"/><rect fill="#E5BF91" height="1.007" transform="matrix(0.9992 -0.0406 0.0406 0.9992 -16.7905 10.2165)" width="3.751" x="241.184" y="417.865"/><rect fill="#E2C1A4" height="1.007" transform="matrix(0.9992 -0.0406 0.0406 0.9992 -16.7517 10.2108)" width="4.666" x="240.692" y="417.045"/><rect fill="#9C7D5D" height="5.536" transform="matrix(0.9992 -0.0406 0.0406 0.9992 -16.7231 10.4214)" width="4.667" x="245.917" y="414.225"/><rect fill="#352618" height="5.536" transform="matrix(0.9992 -0.0407 0.0407 0.9992 -16.756 10.4428)" width="2.425" x="247.038" y="414.225"/><rect fill="#E5BF91" height="1.007" transform="matrix(0.9992 -0.0406 0.0406 0.9992 -16.7775 10.429)" width="3.751" x="246.422" y="417.652"/><rect fill="#E2C1A4" height="1.007" transform="matrix(0.9992 -0.0406 0.0406 0.9992 -16.737 10.4223)" width="4.667" x="245.931" y="416.833"/><rect fill="#9C7D5D" height="5.536" transform="matrix(0.9992 -0.0406 0.0406 0.9992 -16.7101 10.6339)" width="4.667" x="251.155" y="414.012"/><rect fill="#352618" height="5.536" transform="matrix(0.9992 -0.0411 0.0411 0.9992 -16.9064 10.7645)" width="2.425" x="252.277" y="414.012"/><rect fill="#E5BF91" height="1.008" transform="matrix(0.9992 -0.0406 0.0406 0.9992 -16.7624 10.6402)" width="3.752" x="251.66" y="417.439"/><rect fill="#E2C1A4" height="1.007" transform="matrix(0.9992 -0.0406 0.0406 0.9992 -16.7241 10.6347)" width="4.667" x="251.169" y="416.62"/><rect fill="#9C7D5D" height="5.536" transform="matrix(0.9992 -0.0406 0.0406 0.9992 -16.6972 10.8464)" width="4.667" x="256.394" y="413.799"/><rect fill="#352618" height="5.536" transform="matrix(0.9992 -0.0407 0.0407 0.9992 -16.7367 10.8731)" width="2.424" x="257.515" y="413.8"/><rect fill="#E5BF91" height="1.007" transform="matrix(0.9992 -0.0406 0.0406 0.9992 -16.7559 10.8571)" width="3.75" x="256.899" y="417.227"/><rect fill="#E2C1A4" height="1.007" transform="matrix(0.9992 -0.0406 0.0406 0.9992 -16.7128 10.8484)" width="4.666" x="256.408" y="416.407"/><rect fill="#9C7D5D" height="5.536" transform="matrix(0.9992 -0.0406 0.0406 0.9992 -16.6877 11.0612)" width="4.666" x="261.632" y="413.587"/><rect fill="#352618" height="5.536" transform="matrix(0.9992 -0.0407 0.0407 0.9992 -16.717 11.0815)" width="2.425" x="262.753" y="413.587"/><rect fill="#E5BF91" height="1.007" transform="matrix(0.9992 -0.0406 0.0406 0.9992 -16.7386 11.0667)" width="3.751" x="262.137" y="417.014"/><rect fill="#E2C1A4" height="1.007" transform="matrix(0.9992 -0.0404 0.0404 0.9992 -16.6133 11.001)" width="4.667" x="261.646" y="416.194"/><rect fill="#9C7D5D" height="5.536" transform="matrix(0.9992 -0.0404 0.0404 0.9992 -16.5901 11.214)" width="4.666" x="266.871" y="413.374"/><rect fill="#352618" height="5.536" transform="matrix(0.9992 -0.0407 0.0407 0.9992 -16.7041 11.2944)" width="2.425" x="267.991" y="413.374"/><rect fill="#E5BF91" height="1.007" transform="matrix(0.9992 -0.0406 0.0406 0.9992 -16.7257 11.2793)" width="3.751" x="267.375" y="416.801"/><rect fill="#E2C1A4" height="1.006" transform="matrix(0.9992 -0.0404 0.0404 0.9992 -16.6039 11.2148)" width="4.666" x="266.885" y="415.982"/><path d="M232.896,417.8c0,0.022,0,0.046,0.001,0.068c0.089,2.196,1.942,3.905,4.139,3.816   c0.798-0.032,1.531-0.299,2.137-0.729l34.16-1.387c0.638,0.377,1.388,0.582,2.184,0.55c2.196-0.09,3.904-1.942,3.815-4.139   c-0.001-0.022-0.004-0.044-0.005-0.065L232.896,417.8z" fill="#272525" opacity="0.2"/></g><g><path d="M279.704,441.013c0,0,1.93-1.771,1.93-4.528c0-2.914-2.993-4.41-2.993-4.41H233.6   c0,0-2.992,1.496-2.992,4.41c0,2.757,1.929,4.528,1.929,4.528H279.704z" fill="#272525" opacity="0.5"/><path d="M279.704,440.679c0,0,1.93-1.771,1.93-4.527c0-2.914-2.993-4.41-2.993-4.41H233.6   c0,0-2.992,1.496-2.992,4.41c0,2.756,1.929,4.527,1.929,4.527H279.704z" fill="#EDC897"/><path d="M230.608,436.151c0,2.756,1.929,4.527,1.929,4.527h6.476c0.6-1.262,1.124-2.83,1.124-4.469   c0-1.542-0.439-3.126-0.964-4.469H233.6C233.6,431.741,230.608,433.237,230.608,436.151z" fill="#E5BF91"/><circle cx="235.549" cy="436.694" fill="#272525" opacity="0.3" r="3.465"/><circle cx="235.549" cy="436.171" fill="#F9C98F" r="3.465"/><rect fill="#B98F58" height="0.984" width="5.552" x="232.773" y="435.679"/><path d="M281.634,436.151c0,2.756-1.93,4.527-1.93,4.527h-6.476c-0.601-1.262-1.124-2.83-1.124-4.469   c0-1.542,0.438-3.126,0.964-4.469h5.572C278.641,431.741,281.634,433.237,281.634,436.151z" fill="#E5BF91"/><circle cx="276.691" cy="436.694" fill="#272525" opacity="0.3" r="3.465"/><circle cx="276.691" cy="436.171" fill="#F9C98F" r="3.465"/><rect fill="#B98F58" height="0.984" width="5.552" x="273.916" y="435.679"/><path d="M230.609,436.21c0.027,2.722,1.928,4.469,1.928,4.469h47.167c0,0,1.9-1.747,1.928-4.469   H230.609z" fill="#272525" opacity="0.1"/></g><g><circle cx="243.597" cy="19.199" fill="#EDC897" r="3.739"/><polygon fill="#272525" opacity="0.5" points="242.114,21.654 240.632,19.086 246.563,19.086 245.08,21.654  "/><polygon fill="#EDC897" points="242.27,21.353 240.943,19.055 246.251,19.055 244.924,21.353  "/><path d="M243.598,22.938c2.064,0,3.738-1.674,3.738-3.739h-7.477   C239.859,21.264,241.533,22.938,243.598,22.938z" fill="#272525" opacity="0.1"/><ellipse cx="243.597" cy="18.554" fill="#272525" opacity="0.5" rx="1.725" ry="1.888"/></g><g><circle cx="269.074" cy="19.199" fill="#EDC897" r="3.739"/><polygon fill="#272525" opacity="0.5" points="267.591,21.654 266.108,19.086 272.039,19.086 270.557,21.654  "/><polygon fill="#EDC897" points="267.746,21.353 266.42,19.055 271.728,19.055 270.4,21.353  "/><path d="M269.074,22.938c2.064,0,3.738-1.674,3.738-3.739h-7.478   C265.335,21.264,267.009,22.938,269.074,22.938z" fill="#272525" opacity="0.1"/><ellipse cx="269.074" cy="18.554" fill="#272525" opacity="0.5" rx="1.725" ry="1.888"/></g><g><circle cx="243.681" cy="39.271" fill="#EDC897" r="3.739"/><polygon fill="#272525" opacity="0.5" points="242.198,41.728 240.715,39.159 246.646,39.159 245.164,41.728  "/><polygon fill="#EDC897" points="242.354,41.425 241.027,39.127 246.334,39.127 245.008,41.425  "/><path d="M243.681,43.01c2.064,0,3.739-1.674,3.739-3.739h-7.478   C239.942,41.336,241.616,43.01,243.681,43.01z" fill="#272525" opacity="0.1"/><ellipse cx="243.681" cy="38.627" fill="#272525" opacity="0.5" rx="1.725" ry="1.887"/></g><g><circle cx="268.991" cy="39.271" fill="#EDC897" r="3.739"/><polygon fill="#272525" opacity="0.5" points="267.508,41.728 266.024,39.159 271.956,39.159 270.474,41.728  "/><polygon fill="#EDC897" points="267.663,41.425 266.337,39.127 271.645,39.127 270.317,41.425  "/><path d="M268.99,43.01c2.064,0,3.739-1.674,3.739-3.739h-7.478   C265.252,41.336,266.926,43.01,268.99,43.01z" fill="#272525" opacity="0.1"/><ellipse cx="268.99" cy="38.627" fill="#272525" opacity="0.5" rx="1.726" ry="1.887"/></g><g><circle cx="243.929" cy="59.693" fill="#EDC897" r="3.739"/><polygon fill="#272525" opacity="0.5" points="242.446,62.149 240.963,59.581 246.895,59.581 245.412,62.149  "/><polygon fill="#EDC897" points="242.602,61.848 241.275,59.549 246.583,59.549 245.256,61.848  "/><path d="M243.929,63.432c2.064,0,3.738-1.674,3.738-3.739h-7.478   C240.19,61.758,241.864,63.432,243.929,63.432z" fill="#272525" opacity="0.1"/><ellipse cx="243.929" cy="59.049" fill="#272525" opacity="0.5" rx="1.725" ry="1.887"/></g><g><circle cx="268.742" cy="59.693" fill="#EDC897" r="3.739"/><polygon fill="#272525" opacity="0.5" points="267.259,62.149 265.776,59.581 271.708,59.581 270.225,62.149  "/><polygon fill="#EDC897" points="267.415,61.848 266.088,59.549 271.396,59.549 270.069,61.848  "/><path d="M268.742,63.432c2.064,0,3.738-1.674,3.738-3.739h-7.478   C265.003,61.758,266.677,63.432,268.742,63.432z" fill="#272525" opacity="0.1"/><ellipse cx="268.742" cy="59.049" fill="#272525" opacity="0.5" rx="1.726" ry="1.887"/></g><path d="M262.582,79.549  c-0.228-2.624-0.195-5.833-0.195-5.833s0.234-7.047-0.235-8.378c-0.379-1.075-1.79-3.069-3.445-3.954  c-0.232-0.124-0.522-0.97-0.846-1.241c-0.325-0.272-0.557-0.437-1.108-0.437c-0.552,0-0.784,0.165-1.108,0.437  c-0.324,0.271-0.614,1.117-0.846,1.241c-1.656,0.885-3.066,2.879-3.445,3.954c-0.47,1.331-0.235,8.378-0.235,8.378  s0.032,3.209-0.195,5.833c-0.387,4.462-1.886,7.77-1.64,8.103c0.385,0.521,1.793,0.721,2.419,0.643  c0.626-0.079,2.241-0.688,2.515-0.492c0.274,0.196,1.574,1.808,2.547,1.808c0.971,0,2.25-1.612,2.525-1.808  c0.273-0.195,1.888,0.414,2.514,0.492c0.627,0.078,2.035-0.121,2.42-0.643C264.468,87.319,262.969,84.011,262.582,79.549z" fill="none" stroke="#E1DCD8" stroke-miterlimit="10" stroke-width="0.3335"/><polygon fill="#BBBCBF" points="246.222,90.479 242.615,432.556 243.45,432.564 247.056,90.488 245.492,58.464 244.658,58.505 "/><polygon fill="#BBBCBF" points="250.854,90.506 244.649,38.278 245.381,38.191 251.591,90.492 248.528,432.137 247.792,432.13 "/><polygon fill="#BBBCBF" points="254.61,90.518 244.734,17.687 245.282,17.613 255.159,90.487 253.793,432.47 253.241,432.468 "/><polygon fill="#BBBCBF" points="266.168,90.495 268.937,432.669 269.232,432.667 266.464,90.493 267.361,58.541 267.065,58.532 "/><polygon fill="#BBBCBF" points="258.952,90.521 267.831,17.682 267.386,17.628 258.508,90.488 258.498,431.799 258.946,431.799 "/><polygon fill="#BBBCBF" points="262.394,90.498 267.641,38.067 267.278,38.031 262.03,90.482 263.971,432.896 264.335,432.895 "/><g><circle cx="243.597" cy="17.843" fill="#ECD3AF" r="1.725"/><path d="M243.598,19.568c0.953,0,1.725-0.772,1.725-1.726h-3.451   C241.872,18.796,242.645,19.568,243.598,19.568z" fill="#272525" opacity="0.1"/></g><g><circle cx="269.074" cy="17.843" fill="#ECD3AF" r="1.725"/><path d="M269.074,19.568c0.952,0,1.725-0.772,1.725-1.726h-3.45   C267.349,18.796,268.121,19.568,269.074,19.568z" fill="#272525" opacity="0.1"/></g><g><circle cx="243.681" cy="37.916" fill="#ECD3AF" r="1.725"/><path d="M243.681,39.642c0.953,0,1.725-0.772,1.725-1.726h-3.45   C241.956,38.869,242.728,39.642,243.681,39.642z" fill="#272525" opacity="0.1"/></g><g><circle cx="268.99" cy="37.916" fill="#ECD3AF" r="1.726"/><path d="M268.99,39.642c0.953,0,1.726-0.772,1.726-1.726h-3.451   C267.265,38.869,268.037,39.642,268.99,39.642z" fill="#272525" opacity="0.1"/></g><g><circle cx="243.929" cy="58.338" fill="#ECD3AF" r="1.725"/><path d="M243.929,60.063c0.952,0,1.725-0.772,1.725-1.726h-3.451   C242.204,59.291,242.976,60.063,243.929,60.063z" fill="#272525" opacity="0.1"/></g><g><circle cx="268.742" cy="58.338" fill="#ECD3AF" r="1.726"/><path d="M268.742,60.063c0.953,0,1.726-0.772,1.726-1.726h-3.451   C267.017,59.291,267.789,60.063,268.742,60.063z" fill="#272525" opacity="0.1"/></g><g><circle cx="256.752" cy="61.147" fill="#EDC897" r="1.1"/><path d="M256.752,62.248c0.607,0,1.1-0.493,1.1-1.101h-2.201   C255.652,61.755,256.145,62.248,256.752,62.248z" fill="#272525" opacity="0.2"/></g><g><circle cx="256.752" cy="87.223" fill="#EDC897" r="1.101"/><path d="M256.752,88.323c0.607,0,1.1-0.493,1.1-1.101h-2.201   C255.651,87.831,256.145,88.323,256.752,88.323z" fill="#272525" opacity="0.2"/></g></svg>