<?xml version="1.0" encoding="UTF-8" standalone="no"?>
<!-- Created with Inkscape (http://www.inkscape.org/) -->

<svg
   xmlns:dc="http://purl.org/dc/elements/1.1/"
   xmlns:cc="http://creativecommons.org/ns#"
   xmlns:rdf="http://www.w3.org/1999/02/22-rdf-syntax-ns#"
   xmlns:svg="http://www.w3.org/2000/svg"
   xmlns="http://www.w3.org/2000/svg"
   xmlns:sodipodi="http://sodipodi.sourceforge.net/DTD/sodipodi-0.dtd"
   xmlns:inkscape="http://www.inkscape.org/namespaces/inkscape"
   width="560mm"
   height="560mm"
   viewBox="0 0 1984.2519 1984.2519"
   id="svg2"
   version="1.1"
   inkscape:version="0.91 r13725"
   sodipodi:docname="foreground2.svg">
  <defs
     id="defs4" />
  <sodipodi:namedview
     id="base"
     pagecolor="#ffffff"
     bordercolor="#666666"
     borderopacity="1.0"
     inkscape:pageopacity="0.0"
     inkscape:pageshadow="2"
     inkscape:zoom="0.35"
     inkscape:cx="972.78345"
     inkscape:cy="1121.2784"
     inkscape:document-units="px"
     inkscape:current-layer="layer1"
     showgrid="false"
     inkscape:window-width="1920"
     inkscape:window-height="1018"
     inkscape:window-x="1912"
     inkscape:window-y="-8"
     inkscape:window-maximized="1" />
  <metadata
     id="metadata7">
    <rdf:RDF>
      <cc:Work
         rdf:about="">
        <dc:format>image/svg+xml</dc:format>
        <dc:type
           rdf:resource="http://purl.org/dc/dcmitype/StillImage" />
        <dc:title></dc:title>
      </cc:Work>
    </rdf:RDF>
  </metadata>
  <g
     inkscape:label="Layer 1"
     inkscape:groupmode="layer"
     id="layer1"
     transform="translate(0,931.88986)">
    <path
       style="fill:none;fill-opacity:1;stroke:#000000;stroke-width:3;stroke-miterlimit:4;stroke-dasharray:none;stroke-opacity:1"
       d="M 994.78662 480.62049 A 511.51242 511.51242 0 0 1 1503.6384 992.12599 L 1503.6384 992.12599 A 511.51242 511.51242 0 0 1 992.12598 1503.6384 A 511.51242 511.51242 0 0 1 737.82772 1435.9473 "
       id="path6337"
       transform="translate(0,-931.88986)" />
    <path
       style="fill:#e24939;fill-opacity:1;fill-rule:evenodd;stroke:#fde136;stroke-width:2.14285707;stroke-miterlimit:4;stroke-dasharray:none;stroke-opacity:1"
       d="m 996.22994,63.736275 c 0.34135,138.406885 1.71244,276.809695 2.14286,415.216235 69.461,1.12175 139.0328,16.07613 202.6016,44.4913 15.0097,6.56952 29.4021,14.46572 44.0097,21.8159 2.1605,-0.23079 2.5492,-4.0529 4.0644,-5.47019 68.8367,-117.43847 136.4372,-235.60065 204.6466,-353.40536 -80.3808,-46.34764 -168.3067,-80.12967 -258.9105,-100.60966 -64.271,-14.594033 -130.1295,-21.863664 -196.02553,-22.190277 -0.76466,0.1907 -1.92027,-0.406701 -2.52913,0.152052 z"
       id="path4532"
       inkscape:connector-curvature="0"
       transform="translate(0,-931.88986)" />
    <path
       style="fill:#e24939;fill-opacity:1;fill-rule:evenodd;stroke:#fde136;stroke-width:2.14285707;stroke-miterlimit:4;stroke-dasharray:none;stroke-opacity:1"
       d="m 1460.3971,190.99213 c -14.8438,24.66413 -29.0241,50.06185 -43.6006,75.01463 -54.6481,94.60126 -109.2775,189.21336 -163.9106,283.82327 19.7263,12.49831 39.6374,25.39153 57.9168,40.18213 49.7711,39.58095 92.2215,88.33468 124.3837,143.20095 65.2831,-37.38453 130.6114,-75.38824 195.9164,-113.00193 54.4514,-31.54024 109.1346,-62.81974 163.4,-94.59432 -2.9373,-7.78633 -8.3836,-14.57782 -12.4358,-21.86663 -78.743,-127.17627 -188.5084,-235.14812 -317.4644,-311.03288 -1.351,-0.62702 -2.6854,-1.60984 -4.2055,-1.72522 z"
       id="path4534"
       inkscape:connector-curvature="0"
       transform="translate(0,-931.88986)" />
    <path
       style="fill:#e24939;fill-opacity:1;fill-rule:evenodd;stroke:#fde136;stroke-width:2.14285707;stroke-miterlimit:4;stroke-dasharray:none;stroke-opacity:1"
       d="m 1796.7517,533.7014 c -118.6421,68.67202 -237.6279,136.75993 -355.9068,206.05329 -2.5075,1.19838 1.3466,4.17842 1.4913,5.96959 38.53,70.81111 60.476,150.61793 62.6036,231.25053 0.2677,4.26201 0.3092,8.67946 0.9037,12.8329 138.3645,0 276.729,0 415.0935,0 -0.8949,-103.48098 -17.871,-207.26723 -52.4842,-304.99387 -17.5649,-50.5357 -40.0912,-99.23668 -65.8576,-146.08855 -1.8679,-1.76607 -2.4964,-8.78206 -5.8435,-5.02389 z"
       id="path4536"
       inkscape:connector-curvature="0"
       transform="translate(0,-931.88986)" />
    <path
       style="fill:#ac9393;fill-opacity:1;fill-rule:evenodd;stroke:#800000;stroke-width:2.14285707;stroke-miterlimit:4;stroke-dasharray:none;stroke-opacity:1"
       d="m 998.80832,482.59004 c 0.0932,46.21083 -0.33532,92.5407 1.04492,138.67187 34.63746,0.34631 69.19426,6.23323 102.29336,16.3268 24.5716,7.42427 47.9332,18.20693 70.6852,29.97901 3.5543,2.36954 4.2928,-3.33906 5.92,-5.19126 21.6868,-37.70757 43.6512,-75.35721 65.2002,-113.08022 -11.307,-7.44975 -23.9583,-12.7027 -36.0076,-18.85239 -65.173,-30.67626 -137.017,-47.09928 -209.03563,-47.95425 l -0.10045,0.10044 z"
       id="path4546"
       inkscape:connector-curvature="0"
       transform="translate(0,-931.88986)" />
    <path
       style="fill:#ac9393;fill-opacity:1;fill-rule:evenodd;stroke:#800000;stroke-width:2.14285707;stroke-miterlimit:4;stroke-dasharray:none;stroke-opacity:1"
       d="m 1251.0279,553.70472 c -23.2449,39.35561 -45.9928,79.14629 -68.6398,118.89509 11.2659,8.42208 23.6899,15.57163 34.7447,24.42522 38.3356,29.07136 70.56,65.96073 95.3683,107.05218 39.7138,-23.11412 79.7606,-45.82592 119.3164,-69.10575 -5.2051,-10.97387 -12.7904,-20.76877 -19.3941,-30.96183 -41.2444,-60.52047 -95.8635,-111.94382 -158.8576,-149.30164 -0.8147,-0.36016 -1.6238,-0.95795 -2.5379,-1.00327 z"
       id="path4548"
       inkscape:connector-curvature="0"
       transform="translate(0,-931.88986)" />
    <path
       style="fill:#ac9393;fill-opacity:1;fill-rule:evenodd;stroke:#800000;stroke-width:2.14285707;stroke-miterlimit:4;stroke-dasharray:none;stroke-opacity:1"
       d="m 1435.8242,742.50076 c -39.7976,22.58991 -79.6715,45.27638 -119.0681,68.43889 9.0159,18.78013 18.558,37.39784 25.286,57.17634 14.0434,38.9333 20.9057,80.2661 21.2751,121.6197 46.1633,0.15811 92.6173,0.17206 138.7724,-0.007 -0.9557,-59.80197 -11.2146,-119.61414 -32.3731,-175.64216 -9.2225,-24.20541 -19.7522,-48.03068 -32.7567,-70.45159 -0.339,-0.33658 -0.5888,-1.07933 -1.1356,-1.1342 z"
       id="path4550"
       inkscape:connector-curvature="0"
       transform="translate(0,-931.88986)" />
    <path
       style="fill:#ac9393;fill-opacity:1;fill-rule:evenodd;stroke:#800000;stroke-width:2.14285707;stroke-miterlimit:4;stroke-dasharray:none;stroke-opacity:1"
       d="m 1363.094,997.59004 c -0.1143,37.59466 -6.6685,75.13726 -18.3063,110.84686 -7.2004,22.5445 -17.5956,43.857 -28.1501,64.9693 -2.1949,3.1613 2.3341,4.1398 4.2626,5.4188 37.8543,21.7357 75.4421,44.1226 113.6029,65.2118 7.2802,-10.2339 12.3054,-22.0115 17.9986,-33.2005 30.9576,-64.8414 47.5346,-136.2739 49.355,-208.0578 2.205,-6.08535 -2.4673,-5.73068 -7.0355,-5.2889 -43.895,0.0671 -87.9015,-0.13385 -131.7272,0.10044 z"
       id="path4552"
       inkscape:connector-curvature="0"
       transform="translate(0,-931.88986)" />
    <path
       style="fill:#ac9393;fill-opacity:1;fill-rule:evenodd;stroke:#800000;stroke-width:2.14285707;stroke-miterlimit:4;stroke-dasharray:none;stroke-opacity:1"
       d="m 1310.8898,1183.5847 c -4.4529,5.2968 -7.929,11.811 -12.0443,17.5206 -29.9764,44.4445 -69.9919,81.7961 -115.7345,109.6506 -3.0695,0.8437 -1.7939,2.9394 -0.385,4.7823 22.3102,38.8291 44.6578,77.771 67.2026,116.3822 51.8607,-30.5076 98.1008,-70.3483 136.4132,-116.7034 15.8345,-19.5993 30.7248,-40.0965 43.3245,-61.9322 2.2538,-2.8456 -2.9936,-3.2857 -4.3025,-4.7879 -36.8064,-21.1725 -73.2555,-43.0027 -110.4938,-63.4027 -1.2812,-0.566 -2.5583,-1.3895 -3.9802,-1.5095 z"
       id="path4554"
       inkscape:connector-curvature="0"
       transform="translate(0,-931.88986)" />
    <path
       style="fill:#ac9393;fill-opacity:1;fill-rule:evenodd;stroke:#800000;stroke-width:2.14285707;stroke-miterlimit:4;stroke-dasharray:none;stroke-opacity:1"
       d="m 1161.4395,1322.5426 c -50.9491,26.3259 -108.0786,40.1971 -165.39206,40.8859 -0.15485,46.1541 -0.1716,92.5946 0.008,138.7388 59.61846,-1.5697 119.34506,-11.3774 175.15706,-32.815 24.356,-9.3441 48.3269,-20.1431 70.8809,-33.1852 -18.4604,-34.5853 -38.7309,-68.2167 -58.1523,-102.2835 -3.4492,-5.8444 -6.7258,-11.9079 -10.2811,-17.6175 -4.0736,2.0922 -8.1473,4.1843 -12.2209,6.2765 z"
       id="path4556"
       inkscape:connector-curvature="0"
       transform="translate(0,-931.88986)" />
    <path
       style="fill:#ac9393;fill-opacity:1;fill-rule:evenodd;stroke:#800000;stroke-width:2.14285707;stroke-miterlimit:4;stroke-dasharray:none;stroke-opacity:1"
       d="m 809.00084,1314.8543 c -22.92621,39.886 -46.404,79.533 -68.85882,119.6428 5.218,4.6674 12.29386,7.0297 18.3197,10.576 70.73263,36.5694 150.27346,56.2618 229.8332,56.8027 -0.067,-46.2101 0.13393,-92.5312 -0.10044,-138.6719 -58.15348,-0.4428 -115.99384,-15.5348 -167.59486,-42.168 -3.90072,-1.9729 -7.71776,-4.3143 -11.59878,-6.1816 z"
       id="path4558"
       inkscape:connector-curvature="0"
       transform="translate(0,-931.88986)" />
    <path
       style="fill:#6ec7e5;fill-opacity:1;fill-rule:evenodd;stroke:#00bbff;stroke-width:2.14285707;stroke-miterlimit:4;stroke-dasharray:none;stroke-opacity:1"
       d="m 1505.202,997.58725 c -0.6426,78.07755 -19.7367,155.80605 -54.7831,225.53295 -3.5008,7.8861 -8.5992,15.0687 -11.7431,23.0706 67.3729,39.7757 135.3532,78.6367 203.0747,117.8618 52.0015,29.9154 103.915,60.1675 156.0185,89.7916 76.2945,-132.6885 118.6551,-284.5644 122.6962,-437.545 0.1421,-6.2551 0.5403,-12.6222 0.493,-18.8096 -138.5722,0.0651 -277.2501,-0.13019 -415.7562,0.0977 z"
       id="path4560"
       inkscape:connector-curvature="0"
       transform="translate(0,-931.88986)" />
    <path
       style="fill:#6ec7e5;fill-opacity:1;fill-rule:evenodd;stroke:#00bbff;stroke-width:2.14285707;stroke-miterlimit:4;stroke-dasharray:none;stroke-opacity:1"
       d="m 1433.945,1253.4592 c -43.0191,72.2785 -103.7568,133.886 -175.6654,177.5572 -1.8608,1.5137 -4.5883,2.5577 -5.6948,4.7447 54.8711,96.5261 110.6357,192.5531 166.2459,288.659 13.656,23.1866 26.8447,46.8985 40.9319,69.685 33.1143,-18.6838 64.5965,-40.2523 94.8946,-63.2133 35.6414,-27.1139 69.29,-56.8107 100.5052,-88.924 47.3695,-47.5851 88.7176,-101.0417 124.4475,-157.837 4.3964,-7.5263 9.8634,-14.9004 13.3237,-22.7336 -79.4167,-46.9837 -159.5519,-92.7595 -239.403,-139.0057 -39.8667,-22.943 -79.6946,-46.1613 -119.5856,-68.9323 z"
       id="path4562"
       inkscape:connector-curvature="0"
       transform="translate(0,-931.88986)" />
    <path
       style="fill:#6ec7e5;fill-opacity:1;fill-rule:evenodd;stroke:#00bbff;stroke-width:2.14285707;stroke-miterlimit:4;stroke-dasharray:none;stroke-opacity:1"
       d="m 1236.0402,1443.7386 c -67.298,36.4738 -142.8548,57.2593 -219.2824,60.9262 -6.7896,0.3891 -13.6587,0.5736 -20.39808,1.0618 0.0484,138.3241 -0.0967,276.7294 0.0725,415.0028 68.64478,-0.4943 137.26198,-8.1807 204.13338,-23.7776 74.771,-17.3329 147.535,-43.6082 215.679,-78.9899 12.1262,-6.1259 24.2462,-12.4398 35.9632,-19.2247 -69.0869,-119.9192 -138.3154,-239.8417 -207.5962,-359.5968 -2.8571,1.5327 -5.7143,3.0655 -8.5715,4.5982 z"
       id="path4564"
       inkscape:connector-curvature="0"
       transform="translate(0,-931.88986)" />
    <path
       style="fill:#c7f386;fill-opacity:1;fill-rule:evenodd;stroke:#bbff55;stroke-width:3.03045774;stroke-miterlimit:4;stroke-dasharray:none;stroke-opacity:1"
       d="m 737.54369,1438.6711 c -68.96184,118.6789 -137.6885,237.5761 -206.12834,356.568 4.13123,5.3556 11.6419,7.5039 17.20144,11.254 55.98577,30.1388 114.57219,55.6193 175.55706,73.7986 85.30493,25.7214 174.41638,40.0023 263.51083,40.086 -0.0671,-138.4105 0.13413,-276.9322 -0.10062,-415.2733 -83.82801,0.066 -167.06367,-22.4591 -240.79821,-62.017 -3.07167,-1.4693 -6.07374,-3.185 -9.24216,-4.4163 z"
       id="path4566"
       inkscape:connector-curvature="0"
       transform="translate(0,-931.88986)" />
    <g
       id="g4568"
       transform="translate(2000.6635,-188.88832)">
      <path
         id="path6206-4"
         d="m -1008.9923,-683.37689 a 932.88135,932.88135 0 0 0 -0.1777,0.01 l 3.1875,565.95703 a 367.06561,367.06561 0 0 1 364.05663,366.91578 367.06561,367.06561 0 0 1 -367.06643,367.06449 367.06561,367.06561 0 0 1 -184.623,-50.2344 l -283.1015,488.99219 a 932.88135,932.88135 0 0 0 467.7265,127.0586 932.88135,932.88135 0 0 0 932.880847,-932.88088 932.88135,932.88135 0 0 0 -932.882847,-932.88281 z"
         style="fill:none;fill-opacity:1;stroke:#000000;stroke-width:8;stroke-miterlimit:4;stroke-dasharray:none;stroke-opacity:1"
         inkscape:connector-curvature="0" />
      <path
         id="path6337-6"
         d="m -1006.3307,-262.00054 a 511.51242,511.51242 0 0 1 508.85183,511.5055 l 0,0 a 511.51242,511.51242 0 0 1 -511.51243,511.51245 511.51242,511.51242 0 0 1 -254.2982,-67.6911"
         style="fill:none;fill-opacity:1;stroke:#000000;stroke-width:3;stroke-miterlimit:4;stroke-dasharray:none;stroke-opacity:1"
         inkscape:connector-curvature="0" />
      <path
         style="fill:none;fill-rule:evenodd;stroke:#000000;stroke-width:7.52164745;stroke-linecap:butt;stroke-linejoin:miter;stroke-miterlimit:4;stroke-dasharray:none;stroke-opacity:1"
         d="M -824.80987,-67.987706 -543.15197,-555.8335"
         id="use6246-5"
         inkscape:connector-curvature="0"
         inkscape:transform-center-y="281.84464"
         inkscape:tile-x0="986.50635"
         inkscape:tile-y0="61.96625" />
      <path
         style="fill:none;fill-rule:evenodd;stroke:#000000;stroke-width:7.52164745;stroke-linecap:butt;stroke-linejoin:miter;stroke-miterlimit:4;stroke-dasharray:none;stroke-opacity:1"
         d="M -689.97977,66.842424 -202.13396,-214.81549"
         id="use6248-5"
         inkscape:connector-curvature="0"
         inkscape:transform-center-y="281.84464"
         inkscape:tile-x0="986.50635"
         inkscape:tile-y0="61.96625" />
      <path
         style="fill:none;fill-rule:evenodd;stroke:#000000;stroke-width:7.52164745;stroke-linecap:butt;stroke-linejoin:miter;stroke-miterlimit:4;stroke-dasharray:none;stroke-opacity:1"
         d="m -640.62847,251.02382 563.315817,0"
         id="use6250-8"
         inkscape:connector-curvature="0"
         inkscape:transform-center-y="281.84464"
         inkscape:tile-x0="986.50635"
         inkscape:tile-y0="61.96625" />
      <path
         style="fill:none;fill-rule:evenodd;stroke:#000000;stroke-width:7.52164745;stroke-linecap:butt;stroke-linejoin:miter;stroke-miterlimit:4;stroke-dasharray:none;stroke-opacity:1"
         d="m -689.97967,435.20521 487.84581,281.6579"
         id="use6252-9"
         inkscape:connector-curvature="0"
         inkscape:transform-center-y="281.84464"
         inkscape:tile-x0="986.50635"
         inkscape:tile-y0="61.96625" />
      <path
         style="fill:none;fill-rule:evenodd;stroke:#000000;stroke-width:7.52164745;stroke-linecap:butt;stroke-linejoin:miter;stroke-miterlimit:4;stroke-dasharray:none;stroke-opacity:1"
         d="m -824.80987,570.03531 281.6579,487.84579"
         id="use6254-1"
         inkscape:connector-curvature="0"
         inkscape:transform-center-y="281.84464"
         inkscape:tile-x0="986.50635"
         inkscape:tile-y0="61.96625" />
      <path
         style="fill:none;fill-rule:evenodd;stroke:#000000;stroke-width:7.52164745;stroke-linecap:butt;stroke-linejoin:miter;stroke-miterlimit:4;stroke-dasharray:none;stroke-opacity:1"
         d="m -1008.9913,619.38661 0,563.31579"
         id="use6256-6"
         inkscape:connector-curvature="0"
         inkscape:transform-center-y="281.84464"
         inkscape:tile-x0="986.50635"
         inkscape:tile-y0="61.96625" />
    </g>
  </g>
</svg>
