<?xml version="1.0" encoding="UTF-8" standalone="no"?>
<!-- Generator: Adobe Illustrator 16.0.0, SVG Export Plug-In . SVG Version: 6.00 Build 0)  -->

<svg
   xmlns:dc="http://purl.org/dc/elements/1.1/"
   xmlns:cc="http://creativecommons.org/ns#"
   xmlns:rdf="http://www.w3.org/1999/02/22-rdf-syntax-ns#"
   xmlns:svg="http://www.w3.org/2000/svg"
   xmlns="http://www.w3.org/2000/svg"
   xmlns:sodipodi="http://sodipodi.sourceforge.net/DTD/sodipodi-0.dtd"
   xmlns:inkscape="http://www.inkscape.org/namespaces/inkscape"
   version="1.1"
   id="Layer_1"
   x="0px"
   y="0px"
   width="1500"
   height="500"
   viewBox="0 0 1500 500"
   enable-background="new 0 0 500 1500"
   xml:space="preserve"
   inkscape:version="0.48.5 r10040"
   sodipodi:docname="jbm27-7.svg"><metadata
   id="metadata605"><rdf:RDF><cc:Work
       rdf:about=""><dc:format>image/svg+xml</dc:format><dc:type
         rdf:resource="http://purl.org/dc/dcmitype/StillImage" /></cc:Work></rdf:RDF></metadata><defs
   id="defs603" /><sodipodi:namedview
   pagecolor="#ffffff"
   bordercolor="#666666"
   borderopacity="1"
   objecttolerance="10"
   gridtolerance="10"
   guidetolerance="10"
   inkscape:pageopacity="0"
   inkscape:pageshadow="2"
   inkscape:window-width="1920"
   inkscape:window-height="1058"
   id="namedview601"
   showgrid="false"
   inkscape:zoom="0.15733333"
   inkscape:cx="-509.5339"
   inkscape:cy="750"
   inkscape:window-x="-8"
   inkscape:window-y="-8"
   inkscape:window-maximized="1"
   inkscape:current-layer="Layer_1" />
<g
   id="g3"
   transform="matrix(0,1,-1,0,1499.9992,8.258021e-4)">
	<g
   id="g5">
		<path
   d="m 239.032,1494.188 c -0.917,1.328 -1.618,2.036 -0.121,3.748 1.416,1.62 7.636,1.982 9.218,2.049 V 1500 c 0,0 0.078,0 0.186,-0.01 0.109,0.01 0.186,0.01 0.186,0.01 v -0.019 c 1.577,-0.096 7.794,-0.578 9.18,-2.225 1.462,-1.742 0.746,-2.436 -0.194,-3.745 -1.158,-1.608 -4.214,-4.289 -4.214,-4.289 l -4.87,0.047 -0.37,0 -4.869,0.047 c -0.002,0 -3.008,2.743 -4.132,4.371 z"
   id="path7"
   inkscape:connector-curvature="0"
   style="fill:#272525" />
		<path
   d="m 243.147,1488.707 0.009,1.11 10.12,-0.098 -0.011,-1.07 c -3.369,0.031 -6.743,0.051 -10.118,0.058 z"
   id="path9"
   inkscape:connector-curvature="0"
   style="fill:#191a19" />
	</g>
	<g
   id="g11">
		<path
   d="m 112.322,838.877 c 1.485,-0.892 2.486,-1.274 1.779,-3.614 -0.668,-2.212 -6.597,-5.323 -8.117,-6.089 l 0.007,-0.017 c 0,0 -0.076,-0.029 -0.186,-0.073 -0.104,-0.05 -0.178,-0.088 -0.178,-0.088 l -0.007,0.018 c -1.588,-0.605 -7.886,-2.886 -9.97,-1.889 -2.205,1.057 -1.81,2.054 -1.471,3.751 0.422,2.087 2.227,6.066 2.227,6.066 l 4.786,2.11 0.364,0.161 4.787,2.111 c 10e-4,0.001 4.157,-1.349 5.979,-2.447 z"
   id="path13"
   inkscape:connector-curvature="0"
   style="fill:#272525" />
		
			<rect
   x="99.991997"
   y="834.599"
   transform="matrix(-0.4035,0.915,-0.915,-0.4035,910.3384,1086.5918)"
   width="1.971"
   height="10.872"
   id="rect15"
   style="fill:#151515" />
		<path
   d="m 96.893,846.845 c 1.544,0.681 4.135,1.778 8.191,3.73 0.204,-0.784 2.369,-6.031 1.233,-6.996 -1.451,-1.23 -5.145,-2.808 -5.584,-2.99 -0.432,-0.199 -4.085,-1.866 -5.975,-2.106 -1.253,-0.16 -3.735,4.487 -4.308,5.264 3.161,1.537 5.373,2.626 6.443,3.098 z"
   id="path17"
   inkscape:connector-curvature="0"
   style="fill:#1e1e1e" />
	</g>
	<path
   d="m 100.449,840.761 c -9.232,-3.225 -39.487,23.311 -42.736,76.61 -3.547,58.196 40.018,157.69 36.263,203.354 -3.755,45.662 -40.877,108.269 -60.438,168.513 -22.523,69.369 3.88,138.351 51.905,168.514 47.463,29.811 113.087,30.658 159.27,31.285 46.182,0.627 100.543,2.361 145.05,-11.377 85.344,-26.344 87.419,-111.307 83.899,-148.604 -5.94,-62.979 -70.976,-157.53 -65.414,-193.398 6.666,-42.988 31.806,-60.939 41.871,-114.586 9.551,-50.904 -21.962,-86.636 -21.962,-86.636 0,0 9.973,79.055 -43.929,118.507 -53.9,39.452 -88.725,-22.121 -88.725,-22.121 l -85.637,-64.228 c 0,0 -21.522,48.716 -60.432,25.436 C 89.031,955.89 115.435,845.993 100.449,840.761 z"
   id="path19"
   inkscape:connector-curvature="0"
   style="fill:#494a4d" />
	<path
   d="m 102.581,842.589 c -1.219,5.86 -2.621,12.995 -4.188,21.614 -6.011,33.059 -5.109,76.936 6.01,107.891 9.264,25.79 33.059,59.205 57.402,60.707 33.295,2.056 47.183,-64.013 47.183,-64.013 l 0.017,-0.416 c -4.359,8.546 -25.166,44.24 -59.569,23.657 -57.047,-34.132 -36.675,-134.028 -46.855,-149.44 z"
   id="path21"
   inkscape:connector-curvature="0"
   style="fill:#434244" />
	<path
   d="m 384.229,1052.942 c -38.958,28.515 -67.946,4.257 -81.027,-11.386 6.889,17.468 20.212,44.034 33.508,50.451 17.438,8.415 41.173,7.513 72.428,-37.267 27.825,-39.864 26.698,-87.984 23.037,-115.024 -2.391,-3.43 -4.017,-5.281 -4.017,-5.281 0,0 9.973,79.055 -43.929,118.507 z"
   id="path23"
   inkscape:connector-curvature="0"
   style="fill:#434244" />
	<g
   id="g25">
		
			<rect
   x="301.047"
   y="227.291"
   transform="matrix(0.9592,-0.2826,0.2826,0.9592,-53.0221,97.2397)"
   width="18.92"
   height="10.19"
   id="rect27"
   style="fill:#f1dca4" />
		
			<rect
   x="313.772"
   y="225.987"
   transform="matrix(0.9593,-0.2824,0.2824,0.9593,-52.4396,98.3448)"
   width="2.322"
   height="10.19"
   id="rect29"
   style="fill:#434244" />
		<path
   d="m 317.426,218.37 c 0.199,-0.289 4.261,-1.446 5.783,-1.894 1.519,-0.447 5.558,-1.678 5.884,-1.543 0.324,0.133 6.321,8.202 6.994,10.482 0.671,2.28 0.008,12.311 -0.192,12.599 -0.2,0.29 -4.262,1.446 -5.782,1.894 -1.521,0.449 -5.562,1.678 -5.885,1.544 -0.324,-0.134 -6.289,-8.093 -6.993,-10.481 -0.703,-2.391 -0.01,-12.314 0.191,-12.601 z"
   id="path31"
   inkscape:connector-curvature="0"
   style="fill:#d7c8a9" />
		<path
   d="m 317.333,218.058 c 0.201,-0.284 4.262,-1.441 5.785,-1.891 1.52,-0.448 5.56,-1.676 5.883,-1.547 0.323,0.129 6.272,8.036 6.931,10.273 0.661,2.239 -0.05,12.108 -0.252,12.393 -0.2,0.284 -4.263,1.442 -5.782,1.891 -1.521,0.448 -5.563,1.676 -5.885,1.547 -0.323,-0.129 -6.24,-7.928 -6.931,-10.275 -0.691,-2.345 0.05,-12.107 0.251,-12.391 z"
   id="path33"
   inkscape:connector-curvature="0"
   style="fill:#f1dca4" />
		<path
   d="m 329.897,239.177 c 1.52,-0.448 5.582,-1.606 5.782,-1.891 0.202,-0.284 0.913,-10.153 0.252,-12.393 l -18.85,5.555 c 0.69,2.347 6.607,10.146 6.931,10.275 0.323,0.13 4.364,-1.098 5.885,-1.546 z"
   id="path35"
   inkscape:connector-curvature="0"
   style="opacity:0.3;fill:#434244" />
	</g>
	<g
   id="g37">
		
			<rect
   x="291.133"
   y="194.05701"
   transform="matrix(0.9592,-0.2827,0.2827,0.9592,-44.0345,93.0872)"
   width="18.919001"
   height="10.191"
   id="rect39"
   style="fill:#f1dca4" />
		
			<rect
   x="303.85699"
   y="192.754"
   transform="matrix(0.9593,-0.2824,0.2824,0.9593,-43.4578,94.192)"
   width="2.322"
   height="10.19"
   id="rect41"
   style="fill:#434244" />
		<path
   d="m 307.511,185.136 c 0.199,-0.289 4.262,-1.446 5.783,-1.894 1.52,-0.447 5.559,-1.678 5.884,-1.543 0.324,0.133 6.321,8.202 6.994,10.482 0.671,2.28 0.008,12.311 -0.192,12.599 -0.199,0.29 -4.262,1.446 -5.782,1.894 -1.521,0.449 -5.562,1.679 -5.885,1.544 -0.324,-0.134 -6.288,-8.093 -6.993,-10.481 -0.703,-2.391 -0.009,-12.314 0.191,-12.601 z"
   id="path43"
   inkscape:connector-curvature="0"
   style="fill:#d7c8a9" />
		<path
   d="m 307.418,184.824 c 0.201,-0.284 4.263,-1.441 5.785,-1.891 1.52,-0.448 5.56,-1.676 5.883,-1.547 0.323,0.13 6.272,8.036 6.931,10.274 0.661,2.239 -0.05,12.108 -0.252,12.392 -0.2,0.284 -4.263,1.442 -5.781,1.891 -1.522,0.448 -5.563,1.676 -5.886,1.547 -0.323,-0.129 -6.24,-7.928 -6.931,-10.275 -0.691,-2.345 0.051,-12.107 0.251,-12.391 z"
   id="path45"
   inkscape:connector-curvature="0"
   style="fill:#f1dca4" />
		<path
   d="m 319.983,205.943 c 1.519,-0.448 5.581,-1.606 5.781,-1.891 0.202,-0.284 0.913,-10.153 0.252,-12.392 l -18.85,5.555 c 0.69,2.347 6.607,10.146 6.931,10.275 0.323,0.129 4.364,-1.099 5.886,-1.547 z"
   id="path47"
   inkscape:connector-curvature="0"
   style="opacity:0.3;fill:#434244" />
	</g>
	<g
   id="g49">
		
			<rect
   x="281.21899"
   y="160.71899"
   transform="matrix(0.9592,-0.2827,0.2827,0.9592,-35.0154,88.9253)"
   width="18.919001"
   height="10.191"
   id="rect51"
   style="fill:#f1dca4" />
		
			<rect
   x="293.944"
   y="159.416"
   transform="matrix(0.9594,-0.2822,0.2822,0.9594,-34.4315,89.969)"
   width="2.322"
   height="10.19"
   id="rect53"
   style="fill:#434244" />
		<path
   d="m 297.597,151.797 c 0.199,-0.289 4.262,-1.446 5.783,-1.894 1.52,-0.447 5.559,-1.677 5.884,-1.543 0.324,0.133 6.321,8.202 6.994,10.482 0.672,2.28 0.008,12.311 -0.192,12.598 -0.199,0.29 -4.262,1.446 -5.782,1.894 -1.521,0.449 -5.562,1.679 -5.885,1.545 -0.324,-0.134 -6.288,-8.093 -6.993,-10.481 -0.703,-2.39 -0.01,-12.313 0.191,-12.601 z"
   id="path55"
   inkscape:connector-curvature="0"
   style="fill:#d7c8a9" />
		<path
   d="m 297.504,151.486 c 0.202,-0.284 4.263,-1.441 5.785,-1.891 1.52,-0.448 5.56,-1.676 5.883,-1.547 0.323,0.129 6.272,8.036 6.932,10.273 0.661,2.239 -0.051,12.108 -0.252,12.393 -0.201,0.285 -4.263,1.442 -5.782,1.891 -1.521,0.448 -5.563,1.676 -5.885,1.547 -0.323,-0.13 -6.24,-7.928 -6.932,-10.275 -0.69,-2.346 0.051,-12.107 0.251,-12.391 z"
   id="path57"
   inkscape:connector-curvature="0"
   style="fill:#f1dca4" />
		<path
   d="m 310.069,172.605 c 1.52,-0.448 5.581,-1.606 5.782,-1.891 0.201,-0.285 0.913,-10.153 0.252,-12.393 l -18.851,5.555 c 0.691,2.347 6.608,10.145 6.932,10.275 0.322,0.13 4.364,-1.098 5.885,-1.546 z"
   id="path59"
   inkscape:connector-curvature="0"
   style="opacity:0.3;fill:#434244" />
	</g>
	<g
   id="g61">
		
			<rect
   x="271.30399"
   y="128.007"
   transform="matrix(0.9592,-0.2827,0.2827,0.9592,-26.1732,84.7887)"
   width="18.919001"
   height="10.191"
   id="rect63"
   style="fill:#f1dca4" />
		
			<rect
   x="284.02899"
   y="126.703"
   transform="matrix(0.9594,-0.2822,0.2822,0.9594,-25.6026,85.8411)"
   width="2.322"
   height="10.19"
   id="rect65"
   style="fill:#434244" />
		<path
   d="m 287.682,119.085 c 0.199,-0.289 4.262,-1.446 5.783,-1.894 1.52,-0.447 5.559,-1.677 5.884,-1.543 0.324,0.133 6.322,8.202 6.994,10.482 0.672,2.28 0.008,12.311 -0.192,12.598 -0.199,0.29 -4.261,1.446 -5.782,1.894 -1.521,0.449 -5.562,1.679 -5.885,1.545 -0.324,-0.134 -6.288,-8.093 -6.993,-10.481 -0.703,-2.39 -0.01,-12.313 0.191,-12.601 z"
   id="path67"
   inkscape:connector-curvature="0"
   style="fill:#d7c8a9" />
		<path
   d="m 287.589,118.773 c 0.202,-0.284 4.263,-1.441 5.785,-1.891 1.52,-0.448 5.56,-1.676 5.883,-1.547 0.323,0.129 6.272,8.036 6.932,10.273 0.661,2.239 -0.051,12.108 -0.252,12.393 -0.201,0.285 -4.263,1.442 -5.782,1.891 -1.521,0.448 -5.563,1.676 -5.885,1.547 -0.323,-0.13 -6.24,-7.928 -6.932,-10.275 -0.691,-2.345 0.051,-12.106 0.251,-12.391 z"
   id="path69"
   inkscape:connector-curvature="0"
   style="fill:#f1dca4" />
		<path
   d="m 300.154,139.893 c 1.52,-0.448 5.581,-1.606 5.782,-1.891 0.201,-0.285 0.913,-10.153 0.252,-12.393 l -18.851,5.555 c 0.691,2.347 6.608,10.145 6.932,10.275 0.323,0.13 4.364,-1.099 5.885,-1.546 z"
   id="path71"
   inkscape:connector-curvature="0"
   style="opacity:0.3;fill:#434244" />
	</g>
	<g
   id="g73">
		
			<rect
   x="261.38901"
   y="95.399002"
   transform="matrix(0.9592,-0.2827,0.2827,0.9592,-17.3605,80.6563)"
   width="18.919001"
   height="10.191"
   id="rect75"
   style="fill:#f1dca4" />
		
			<rect
   x="274.11301"
   y="94.095001"
   transform="matrix(0.9594,-0.2822,0.2822,0.9594,-16.8033,81.7176)"
   width="2.322"
   height="10.19"
   id="rect77"
   style="fill:#434244" />
		<path
   d="m 277.767,86.477 c 0.2,-0.289 4.262,-1.446 5.783,-1.894 1.52,-0.447 5.559,-1.678 5.884,-1.543 0.324,0.133 6.322,8.202 6.994,10.482 0.672,2.28 0.009,12.311 -0.192,12.599 -0.199,0.29 -4.261,1.446 -5.781,1.894 -1.521,0.449 -5.563,1.679 -5.886,1.544 -0.324,-0.134 -6.288,-8.093 -6.993,-10.481 -0.703,-2.39 -0.01,-12.313 0.191,-12.601 z"
   id="path79"
   inkscape:connector-curvature="0"
   style="fill:#d7c8a9" />
		<path
   d="m 277.674,86.166 c 0.202,-0.284 4.263,-1.442 5.786,-1.891 1.519,-0.448 5.56,-1.677 5.882,-1.547 0.323,0.129 6.272,8.036 6.932,10.273 0.661,2.239 -0.051,12.108 -0.252,12.392 -0.2,0.284 -4.263,1.442 -5.782,1.891 -1.521,0.448 -5.563,1.676 -5.885,1.547 -0.323,-0.129 -6.24,-7.928 -6.932,-10.275 -0.691,-2.345 0.051,-12.106 0.251,-12.39 z"
   id="path81"
   inkscape:connector-curvature="0"
   style="fill:#f1dca4" />
		<path
   d="m 290.239,107.284 c 1.52,-0.448 5.582,-1.606 5.782,-1.891 0.201,-0.284 0.913,-10.153 0.252,-12.392 l -18.851,5.555 c 0.691,2.347 6.608,10.146 6.932,10.275 0.323,0.129 4.364,-1.099 5.885,-1.547 z"
   id="path83"
   inkscape:connector-curvature="0"
   style="opacity:0.3;fill:#434244" />
	</g>
	<g
   id="g85">
		
			<rect
   x="251.47501"
   y="62.582001"
   transform="matrix(0.9592,-0.2826,0.2826,0.9592,-8.4889,76.512)"
   width="18.92"
   height="10.191"
   id="rect87"
   style="fill:#f1dca4" />
		
			<rect
   x="264.19901"
   y="61.278"
   transform="matrix(0.9594,-0.2822,0.2822,0.9594,-7.945,77.5858)"
   width="2.322"
   height="10.19"
   id="rect89"
   style="fill:#434244" />
		<path
   d="m 267.854,53.66 c 0.199,-0.289 4.261,-1.446 5.783,-1.894 1.519,-0.447 5.558,-1.677 5.884,-1.543 0.324,0.133 6.321,8.202 6.994,10.482 0.671,2.28 0.008,12.311 -0.192,12.598 -0.2,0.29 -4.262,1.446 -5.782,1.894 -1.521,0.449 -5.562,1.679 -5.885,1.545 -0.324,-0.134 -6.289,-8.093 -6.993,-10.481 -0.703,-2.39 -0.011,-12.313 0.191,-12.601 z"
   id="path91"
   inkscape:connector-curvature="0"
   style="fill:#d7c8a9" />
		<path
   d="m 267.761,53.349 c 0.201,-0.284 4.263,-1.441 5.785,-1.891 1.52,-0.448 5.56,-1.676 5.883,-1.547 0.323,0.129 6.272,8.036 6.931,10.273 0.661,2.239 -0.05,12.108 -0.252,12.392 -0.2,0.284 -4.263,1.443 -5.782,1.891 -1.521,0.448 -5.563,1.677 -5.885,1.547 -0.323,-0.129 -6.24,-7.928 -6.931,-10.274 -0.692,-2.346 0.05,-12.107 0.251,-12.391 z"
   id="path93"
   inkscape:connector-curvature="0"
   style="fill:#f1dca4" />
		<path
   d="m 280.325,74.467 c 1.52,-0.448 5.582,-1.606 5.782,-1.891 0.202,-0.284 0.913,-10.153 0.252,-12.392 l -18.85,5.555 c 0.69,2.347 6.607,10.145 6.931,10.274 0.323,0.131 4.364,-1.097 5.885,-1.546 z"
   id="path95"
   inkscape:connector-curvature="0"
   style="opacity:0.3;fill:#434244" />
	</g>
	<g
   id="g97">
		
			<rect
   x="241.56"
   y="29.035999"
   transform="matrix(0.9592,-0.2827,0.2827,0.9592,0.5886,72.3436)"
   width="18.919001"
   height="10.191"
   id="rect99"
   style="fill:#f1dca4" />
		
			<rect
   x="254.284"
   y="27.733"
   transform="matrix(0.9594,-0.2822,0.2822,0.9594,1.1189,73.4241)"
   width="2.322"
   height="10.19"
   id="rect101"
   style="fill:#434244" />
		<path
   d="m 257.938,20.115 c 0.199,-0.289 4.262,-1.446 5.783,-1.894 1.52,-0.447 5.559,-1.677 5.884,-1.543 0.324,0.133 6.321,8.202 6.994,10.482 0.671,2.28 0.008,12.311 -0.192,12.599 -0.199,0.29 -4.262,1.446 -5.782,1.894 -1.521,0.449 -5.562,1.679 -5.885,1.544 -0.324,-0.134 -6.288,-8.093 -6.993,-10.481 -0.702,-2.391 -0.009,-12.314 0.191,-12.601 z"
   id="path103"
   inkscape:connector-curvature="0"
   style="fill:#d7c8a9" />
		<path
   d="m 257.846,19.803 c 0.201,-0.284 4.263,-1.441 5.785,-1.891 1.52,-0.448 5.56,-1.676 5.883,-1.547 0.323,0.129 6.272,8.036 6.931,10.273 0.661,2.239 -0.05,12.108 -0.252,12.392 -0.2,0.284 -4.263,1.443 -5.781,1.891 -1.522,0.448 -5.563,1.677 -5.886,1.547 -0.323,-0.129 -6.24,-7.928 -6.931,-10.274 -0.692,-2.345 0.051,-12.107 0.251,-12.391 z"
   id="path105"
   inkscape:connector-curvature="0"
   style="fill:#f1dca4" />
		<path
   d="m 270.411,40.922 c 1.519,-0.448 5.581,-1.606 5.781,-1.891 0.202,-0.284 0.913,-10.153 0.252,-12.392 l -18.85,5.555 c 0.69,2.347 6.607,10.145 6.931,10.274 0.323,0.131 4.364,-1.098 5.886,-1.546 z"
   id="path107"
   inkscape:connector-curvature="0"
   style="opacity:0.3;fill:#434244" />
	</g>
	<path
   d="m 218.164,294.287 c 0,0 -6.206,-21.56 -13.79,-30.39 -7.585,-8.83 -19.621,-17.81 -19.888,-19.027 -0.267,-1.217 8.924,-48.813 10.507,-71.078 1.583,-22.265 -5.728,-169.864 -5.628,-170.876 0.247,-2.513 9.566,-3.333 10.627,-2.373 1.171,1.061 15.219,15.545 19.391,16.374 4.051,0.804 4.724,-0.309 8.254,-2.154 4.274,-2.234 9.008,-2.455 10.506,2.154 1.499,4.607 76.856,240.495 76.546,241.594 -0.309,1.102 -10.767,8.767 -17.249,17.603 -6.483,8.835 -10.226,18.301 -10.226,18.301 l -69.05,-0.128 z"
   id="path109"
   inkscape:connector-curvature="0"
   style="fill:#272525" />
	<path
   d="m 218.106,294.409 c 0,0 -4.604,-21.746 -11.881,-30.601 -7.276,-8.855 -18.825,-17.861 -19.081,-19.082 -0.255,-1.22 8.562,-48.955 10.081,-71.284 1.52,-22.329 -5.495,-170.354 -5.4,-171.369 0.237,-2.52 7.982,-2.403 9,-1.439 1.124,1.063 15.798,14.649 19.801,15.48 3.887,0.807 4.533,-0.308 7.92,-2.16 4.101,-2.241 8.643,-2.461 10.081,2.16 1.438,4.621 73.739,241.189 73.444,242.292 -0.296,1.104 -10.33,8.792 -16.551,17.653 -6.221,8.861 -6.671,18.348 -6.671,18.348 h -70.743 z"
   id="path111"
   inkscape:connector-curvature="0"
   style="fill:#4c4d4f" />
	<path
   d="m 224.136,294.125 c 0,0 17.436,-55.443 17.707,-55.56 0.271,-0.117 20.435,6.336 20.759,6.838 0.324,0.501 19.659,48.111 19.659,48.111 l -58.125,0.611 z"
   id="path113"
   inkscape:connector-curvature="0"
   style="fill:#1a1a1b" />
	<g
   id="g115">
		<circle
   cx="289.82001"
   cy="241.897"
   r="10.817"
   id="circle117"
   sodipodi:cx="289.82001"
   sodipodi:cy="241.897"
   sodipodi:rx="10.817"
   sodipodi:ry="10.817"
   style="fill:#dcb762"
   d="m 300.63701,241.897 c 0,5.97407 -4.84294,10.817 -10.817,10.817 -5.97407,0 -10.817,-4.84293 -10.817,-10.817 0,-5.97406 4.84293,-10.817 10.817,-10.817 5.97406,0 10.817,4.84294 10.817,10.817 z" />
		<polygon
   points="281.24,241.571 298.4,241.571 294.11,249.002 285.53,249.002 "
   id="polygon119"
   style="opacity:0.5;fill:#272525" />
		<polygon
   points="282.142,241.479 297.498,241.479 293.66,248.129 285.98,248.129 "
   id="polygon121"
   style="fill:#edcc78" />
		<path
   d="m 289.821,252.713 c 5.972,0 10.815,-4.843 10.815,-10.816 h -21.634 c 10e-4,5.973 4.843,10.816 10.819,10.816 z"
   id="path123"
   inkscape:connector-curvature="0"
   style="opacity:0.1;fill:#272525" />
	</g>
	<ellipse
   cx="289.82001"
   cy="240.03"
   rx="4.9920001"
   ry="5.461"
   id="ellipse125"
   sodipodi:cx="289.82001"
   sodipodi:cy="240.03"
   sodipodi:rx="4.9920001"
   sodipodi:ry="5.461"
   style="opacity:0.5;fill:#272525"
   d="m 294.81201,240.03 c 0,3.01603 -2.235,5.461 -4.992,5.461 -2.75701,0 -4.992,-2.44497 -4.992,-5.461 0,-3.01603 2.23499,-5.461 4.992,-5.461 2.757,0 4.992,2.44497 4.992,5.461 z" />
	<g
   id="g127">
		<path
   d="m 290.947,208.247 c 0,5.973 -4.843,10.817 -10.815,10.817 -5.977,0 -10.817,-4.844 -10.817,-10.817 0,-5.973 4.841,-10.816 10.817,-10.816 5.972,0 10.815,4.843 10.815,10.816 z"
   id="path129"
   inkscape:connector-curvature="0"
   style="fill:#dcb762" />
		<polygon
   points="271.551,207.922 288.711,207.922 284.421,215.353 275.841,215.353 "
   id="polygon131"
   style="opacity:0.5;fill:#272525" />
		<polygon
   points="272.453,207.829 287.81,207.829 283.971,214.479 276.291,214.479 "
   id="polygon133"
   style="fill:#edcc78" />
		<path
   d="m 280.132,219.064 c 5.973,0 10.815,-4.844 10.815,-10.817 h -21.633 c 0,5.973 4.841,10.817 10.818,10.817 z"
   id="path135"
   inkscape:connector-curvature="0"
   style="opacity:0.1;fill:#272525" />
	</g>
	<ellipse
   cx="280.13101"
   cy="206.38"
   rx="4.9920001"
   ry="5.461"
   id="ellipse137"
   sodipodi:cx="280.13101"
   sodipodi:cy="206.38"
   sodipodi:rx="4.9920001"
   sodipodi:ry="5.461"
   style="opacity:0.5;fill:#272525"
   d="m 285.12301,206.38 c 0,3.01603 -2.23499,5.461 -4.992,5.461 -2.757,0 -4.992,-2.44497 -4.992,-5.461 0,-3.01602 2.235,-5.461 4.992,-5.461 2.75701,0 4.992,2.44498 4.992,5.461 z" />
	<g
   id="g139">
		<path
   d="m 280.843,174.493 c 0,5.973 -4.844,10.816 -10.815,10.816 -5.978,0 -10.818,-4.843 -10.818,-10.816 0,-5.973 4.841,-10.817 10.818,-10.817 5.971,0 10.815,4.844 10.815,10.817 z"
   id="path141"
   inkscape:connector-curvature="0"
   style="fill:#dcb762" />
		<polygon
   points="261.445,174.167 278.605,174.167 274.315,181.599 265.735,181.599 "
   id="polygon143"
   style="opacity:0.5;fill:#272525" />
		<polygon
   points="262.348,174.075 277.704,174.075 273.865,180.725 266.187,180.725 "
   id="polygon145"
   style="fill:#edcc78" />
		<path
   d="m 270.027,185.31 c 5.972,0 10.815,-4.843 10.815,-10.816 h -21.634 c 10e-4,5.972 4.842,10.816 10.819,10.816 z"
   id="path147"
   inkscape:connector-curvature="0"
   style="opacity:0.1;fill:#272525" />
	</g>
	<ellipse
   cx="270.026"
   cy="172.62601"
   rx="4.993"
   ry="5.461"
   id="ellipse149"
   sodipodi:cx="270.026"
   sodipodi:cy="172.62601"
   sodipodi:rx="4.993"
   sodipodi:ry="5.461"
   style="opacity:0.5;fill:#272525"
   d="m 275.019,172.62601 c 0,3.01602 -2.23544,5.461 -4.993,5.461 -2.75756,0 -4.993,-2.44498 -4.993,-5.461 0,-3.01603 2.23544,-5.461 4.993,-5.461 2.75756,0 4.993,2.44497 4.993,5.461 z" />
	<g
   id="g151">
		<circle
   cx="259.504"
   cy="141.573"
   r="10.817"
   id="circle153"
   sodipodi:cx="259.504"
   sodipodi:cy="141.573"
   sodipodi:rx="10.817"
   sodipodi:ry="10.817"
   style="fill:#dcb762"
   d="m 270.321,141.573 c 0,5.97406 -4.84294,10.817 -10.817,10.817 -5.97407,0 -10.817,-4.84294 -10.817,-10.817 0,-5.97407 4.84293,-10.817 10.817,-10.817 5.97406,0 10.817,4.84293 10.817,10.817 z" />
		<polygon
   points="250.924,141.248 268.084,141.248 263.794,148.679 255.214,148.679 "
   id="polygon155"
   style="opacity:0.5;fill:#272525" />
		<polygon
   points="251.825,141.155 267.182,141.155 263.343,147.806 255.664,147.806 "
   id="polygon157"
   style="fill:#edcc78" />
		<path
   d="m 259.505,152.39 c 5.972,0 10.815,-4.844 10.815,-10.817 h -21.633 c 0,5.973 4.841,10.817 10.818,10.817 z"
   id="path159"
   inkscape:connector-curvature="0"
   style="opacity:0.1;fill:#272525" />
	</g>
	<ellipse
   cx="259.50299"
   cy="139.707"
   rx="4.993"
   ry="5.461"
   id="ellipse161"
   sodipodi:cx="259.50299"
   sodipodi:cy="139.707"
   sodipodi:rx="4.993"
   sodipodi:ry="5.461"
   style="opacity:0.5;fill:#272525"
   d="m 264.49599,139.707 c 0,3.01603 -2.23544,5.461 -4.993,5.461 -2.75756,0 -4.993,-2.44497 -4.993,-5.461 0,-3.01603 2.23544,-5.461 4.993,-5.461 2.75756,0 4.993,2.44497 4.993,5.461 z" />
	<g
   id="g163">
		<circle
   cx="249.19"
   cy="108.131"
   r="10.817"
   id="circle165"
   sodipodi:cx="249.19"
   sodipodi:cy="108.131"
   sodipodi:rx="10.817"
   sodipodi:ry="10.817"
   style="fill:#dcb762"
   d="m 260.007,108.131 c 0,5.97406 -4.84293,10.817 -10.817,10.817 -5.97406,0 -10.817,-4.84294 -10.817,-10.817 0,-5.97407 4.84294,-10.817004 10.817,-10.817004 5.97407,0 10.817,4.842934 10.817,10.817004 z" />
		<polygon
   points="240.61,107.806 257.77,107.806 253.479,115.236 244.9,115.236 "
   id="polygon167"
   style="opacity:0.5;fill:#272525" />
		<polygon
   points="241.512,107.713 256.868,107.713 253.029,114.363 245.35,114.363 "
   id="polygon169"
   style="fill:#edcc78" />
		<path
   d="m 249.191,118.948 c 5.972,0 10.816,-4.844 10.816,-10.817 h -21.634 c 0,5.973 4.841,10.817 10.818,10.817 z"
   id="path171"
   inkscape:connector-curvature="0"
   style="opacity:0.1;fill:#272525" />
	</g>
	<ellipse
   cx="249.19"
   cy="106.264"
   rx="4.993"
   ry="5.461"
   id="ellipse173"
   sodipodi:cx="249.19"
   sodipodi:cy="106.264"
   sodipodi:rx="4.993"
   sodipodi:ry="5.461"
   style="opacity:0.5;fill:#272525"
   d="m 254.183,106.264 c 0,3.01603 -2.23544,5.461 -4.993,5.461 -2.75756,0 -4.993,-2.44497 -4.993,-5.461 0,-3.01603 2.23544,-5.461 4.993,-5.461 2.75756,0 4.993,2.44497 4.993,5.461 z" />
	<g
   id="g175">
		<path
   d="m 250.631,75.524 c 0,5.973 -4.845,10.817 -10.816,10.817 -5.977,0 -10.818,-4.844 -10.818,-10.817 0,-5.973 4.841,-10.817 10.818,-10.817 5.972,0 10.816,4.844 10.816,10.817 z"
   id="path177"
   inkscape:connector-curvature="0"
   style="fill:#dcb762" />
		<polygon
   points="231.234,75.199 248.395,75.199 244.104,82.629 235.524,82.629 "
   id="polygon179"
   style="opacity:0.5;fill:#272525" />
		<polygon
   points="232.136,75.105 247.492,75.105 243.654,81.756 235.975,81.756 "
   id="polygon181"
   style="fill:#edcc78" />
		<path
   d="m 239.815,86.341 c 5.971,0 10.816,-4.844 10.816,-10.817 h -21.634 c 10e-4,5.973 4.841,10.817 10.818,10.817 z"
   id="path183"
   inkscape:connector-curvature="0"
   style="opacity:0.1;fill:#272525" />
	</g>
	<ellipse
   cx="239.814"
   cy="73.656998"
   rx="4.9920001"
   ry="5.461"
   id="ellipse185"
   sodipodi:cx="239.814"
   sodipodi:cy="73.656998"
   sodipodi:rx="4.9920001"
   sodipodi:ry="5.461"
   style="opacity:0.5;fill:#272525"
   d="m 244.806,73.656998 c 0,3.016027 -2.235,5.461 -4.992,5.461 -2.75701,0 -4.992,-2.444973 -4.992,-5.461 0,-3.016027 2.23499,-5.461 4.992,-5.461 2.757,0 4.992,2.444973 4.992,5.461 z" />
	<g
   id="g187">
		<circle
   cx="231.168"
   cy="41.562"
   r="10.817"
   id="circle189"
   sodipodi:cx="231.168"
   sodipodi:cy="41.562"
   sodipodi:rx="10.817"
   sodipodi:ry="10.817"
   style="fill:#dcb762"
   d="m 241.985,41.562 c 0,5.974065 -4.84294,10.817001 -10.817,10.817001 -5.97407,0 -10.817,-4.842936 -10.817,-10.817001 0,-5.974064 4.84293,-10.817 10.817,-10.817 5.97406,0 10.817,4.842936 10.817,10.817 z" />
		<polygon
   points="222.588,41.236 239.748,41.236 235.458,48.667 226.877,48.667 "
   id="polygon191"
   style="opacity:0.5;fill:#272525" />
		<polygon
   points="223.489,41.143 238.846,41.143 235.007,47.793 227.328,47.793 "
   id="polygon193"
   style="fill:#edcc78" />
		<path
   d="m 231.169,52.378 c 5.972,0 10.815,-4.843 10.815,-10.816 h -21.633 c 0,5.973 4.841,10.816 10.818,10.816 z"
   id="path195"
   inkscape:connector-curvature="0"
   style="opacity:0.1;fill:#272525" />
	</g>
	<ellipse
   cx="231.168"
   cy="39.695"
   rx="4.9920001"
   ry="5.461"
   id="ellipse197"
   sodipodi:cx="231.168"
   sodipodi:cy="39.695"
   sodipodi:rx="4.9920001"
   sodipodi:ry="5.461"
   style="opacity:0.5;fill:#272525"
   d="m 236.16,39.695 c 0,3.016027 -2.235,5.461 -4.992,5.461 -2.75701,0 -4.992,-2.444973 -4.992,-5.461 0,-3.016027 2.23499,-5.461 4.992,-5.461 2.757,0 4.992,2.444973 4.992,5.461 z" />
	<polygon
   points="301.291,1078.129 288.85,294.409 218.106,294.409 205.664,1078.129 "
   id="polygon199"
   style="fill:#69463b" />
	<rect
   x="221.89301"
   y="294.409"
   width="3.309"
   height="783.71997"
   id="rect201"
   style="fill:#634238" />
	<rect
   x="245.73599"
   y="294.409"
   width="5.1700001"
   height="783.71997"
   id="rect203"
   style="fill:#5c4139" />
	<rect
   x="277.677"
   y="294.409"
   width="2.585"
   height="783.71997"
   id="rect205"
   style="fill:#775043" />
	<rect
   x="236.61"
   y="294.409"
   width="2.585"
   height="783.71997"
   id="rect207"
   style="fill:#936856" />
	<rect
   x="258.314"
   y="294.409"
   width="3.0699999"
   height="783.71997"
   id="rect209"
   style="fill:#6c4a40" />
	<g
   id="g211">
		<polygon
   points="207.762,945.988 299.193,945.988 299.127,941.816 207.828,941.816 "
   id="polygon213"
   style="fill:#b1aea3" />
		<polygon
   points="207.437,966.511 299.52,966.511 299.453,962.338 207.503,962.338 "
   id="polygon215"
   style="fill:#b1aea3" />
		<polygon
   points="209.285,850.044 297.67,850.044 297.604,845.871 209.352,845.871 "
   id="polygon217"
   style="fill:#b1aea3" />
		<polygon
   points="208.874,875.953 298.081,875.953 298.015,871.78 208.94,871.78 "
   id="polygon219"
   style="fill:#b1aea3" />
		<polygon
   points="207.126,986.027 299.829,986.027 299.763,981.854 207.193,981.854 "
   id="polygon221"
   style="fill:#b1aea3" />
		<polygon
   points="208.116,923.66 298.839,923.66 298.772,919.488 208.183,919.488 "
   id="polygon223"
   style="fill:#b1aea3" />
		<polygon
   points="206.843,1003.901 300.113,1003.901 300.047,999.728 206.909,999.728 "
   id="polygon225"
   style="fill:#b1aea3" />
		<polygon
   points="206.06,1053.181 300.895,1053.181 300.829,1049.008 206.126,1049.008 "
   id="polygon227"
   style="fill:#b1aea3" />
		<polygon
   points="301.071,1064.261 205.884,1064.261 205.818,1068.435 301.138,1068.435 "
   id="polygon229"
   style="fill:#b1aea3" />
		<polygon
   points="206.563,1021.501 300.392,1021.501 300.326,1017.328 206.629,1017.328 "
   id="polygon231"
   style="fill:#b1aea3" />
		<polygon
   points="206.302,1037.928 300.652,1037.928 300.586,1033.755 206.369,1033.755 "
   id="polygon233"
   style="fill:#b1aea3" />
		<polygon
   points="208.493,899.97 298.463,899.97 298.396,895.798 208.559,895.798 "
   id="polygon235"
   style="fill:#b1aea3" />
		<polygon
   points="214.398,528.012 292.558,528.012 292.492,523.839 214.464,523.839 "
   id="polygon237"
   style="fill:#b1aea3" />
		<polygon
   points="213.685,572.924 293.271,572.924 293.205,568.752 213.751,568.752 "
   id="polygon239"
   style="fill:#b1aea3" />
		<polygon
   points="215.164,479.744 291.792,479.744 291.726,475.57 215.23,475.57 "
   id="polygon241"
   style="fill:#b1aea3" />
		<polygon
   points="209.725,822.352 297.23,822.352 297.165,818.179 209.791,818.179 "
   id="polygon243"
   style="fill:#b1aea3" />
		<polygon
   points="216.825,375.114 290.131,375.114 290.064,370.942 216.891,370.942 "
   id="polygon245"
   style="fill:#b1aea3" />
		<polygon
   points="213.026,614.435 293.931,614.435 293.863,610.262 213.092,610.262 "
   id="polygon247"
   style="fill:#b1aea3" />
		<polygon
   points="215.978,428.521 290.979,428.521 290.912,424.348 216.043,424.348 "
   id="polygon249"
   style="fill:#b1aea3" />
		<polygon
   points="210.693,761.39 296.263,761.39 296.196,757.218 210.759,757.218 "
   id="polygon251"
   style="fill:#b1aea3" />
		<polygon
   points="210.197,792.64 296.759,792.64 296.692,788.468 210.263,788.468 "
   id="polygon253"
   style="fill:#b1aea3" />
		<polygon
   points="212.372,655.623 294.583,655.623 294.518,651.45 212.438,651.45 "
   id="polygon255"
   style="fill:#b1aea3" />
		<polygon
   points="211.787,692.482 295.169,692.482 295.103,688.31 211.853,688.31 "
   id="polygon257"
   style="fill:#b1aea3" />
		<polygon
   points="211.229,727.641 295.727,727.641 295.66,723.469 211.295,723.469 "
   id="polygon259"
   style="fill:#b1aea3" />
	</g>
	<g
   id="g261">
		<polygon
   points="208.13,922.791 298.825,922.791 298.759,918.617 208.197,918.617 "
   id="polygon263"
   style="fill:#cac7bc" />
		<polygon
   points="207.45,965.643 299.506,965.643 299.439,961.47 207.517,961.47 "
   id="polygon265"
   style="fill:#cac7bc" />
		<polygon
   points="207.776,945.118 299.18,945.118 299.112,940.945 207.842,940.945 "
   id="polygon267"
   style="fill:#cac7bc" />
		<polygon
   points="208.888,875.083 298.067,875.083 298.001,870.912 208.954,870.912 "
   id="polygon269"
   style="fill:#cac7bc" />
		<polygon
   points="208.506,899.102 298.449,899.102 298.383,894.929 208.572,894.929 "
   id="polygon271"
   style="fill:#cac7bc" />
		<polygon
   points="206.577,1020.631 300.378,1020.631 300.313,1016.458 206.644,1016.458 "
   id="polygon273"
   style="fill:#cac7bc" />
		<polygon
   points="207.14,985.157 299.815,985.157 299.749,980.985 207.207,980.985 "
   id="polygon275"
   style="fill:#cac7bc" />
		<polygon
   points="206.074,1052.312 300.881,1052.312 300.814,1048.138 206.14,1048.138 "
   id="polygon277"
   style="fill:#cac7bc" />
		<polygon
   points="301.058,1063.392 205.898,1063.392 205.832,1067.564 301.124,1067.564 "
   id="polygon279"
   style="fill:#cac7bc" />
		<polygon
   points="206.316,1037.058 300.639,1037.058 300.572,1032.885 206.383,1032.885 "
   id="polygon281"
   style="fill:#cac7bc" />
		<polygon
   points="206.856,1003.031 300.1,1003.031 300.033,998.858 206.923,998.858 "
   id="polygon283"
   style="fill:#cac7bc" />
		<polygon
   points="209.299,849.173 297.656,849.173 297.59,845.001 209.365,845.001 "
   id="polygon285"
   style="fill:#cac7bc" />
		<polygon
   points="215.178,478.874 291.778,478.874 291.712,474.702 215.244,474.702 "
   id="polygon287"
   style="fill:#cac7bc" />
		<polygon
   points="213.04,613.565 293.916,613.565 293.85,609.394 213.106,609.394 "
   id="polygon289"
   style="fill:#cac7bc" />
		<polygon
   points="213.698,572.054 293.258,572.054 293.191,567.882 213.765,567.882 "
   id="polygon291"
   style="fill:#cac7bc" />
		<polygon
   points="214.412,527.142 292.544,527.142 292.479,522.97 214.478,522.97 "
   id="polygon293"
   style="fill:#cac7bc" />
		<polygon
   points="216.839,374.244 290.117,374.244 290.051,370.072 216.905,370.072 "
   id="polygon295"
   style="fill:#cac7bc" />
		<polygon
   points="215.991,427.651 290.965,427.651 290.898,423.479 216.057,423.479 "
   id="polygon297"
   style="fill:#cac7bc" />
		<polygon
   points="210.707,760.52 296.249,760.52 296.183,756.348 210.773,756.348 "
   id="polygon299"
   style="fill:#cac7bc" />
		<polygon
   points="212.386,654.754 294.569,654.754 294.504,650.582 212.452,650.582 "
   id="polygon301"
   style="fill:#cac7bc" />
		<polygon
   points="209.739,821.481 297.217,821.481 297.15,817.31 209.805,817.31 "
   id="polygon303"
   style="fill:#cac7bc" />
		<polygon
   points="210.21,791.771 296.745,791.771 296.679,787.599 210.277,787.599 "
   id="polygon305"
   style="fill:#cac7bc" />
		<polygon
   points="211.242,726.773 295.713,726.773 295.646,722.6 211.309,722.6 "
   id="polygon307"
   style="fill:#cac7bc" />
		<polygon
   points="211.8,691.613 295.155,691.613 295.089,687.441 211.867,687.441 "
   id="polygon309"
   style="fill:#cac7bc" />
	</g>
	<g
   id="g311">
		<path
   d="m 194.82,1094.99 c -8.773,1.364 -15.298,6.452 -15.298,12.536 0,6.084 6.525,11.171 15.298,12.536 v -25.072 z"
   id="path313"
   inkscape:connector-curvature="0"
   style="fill:#272525" />
		<path
   d="m 313.281,1094.99 c 8.772,1.364 15.299,6.452 15.299,12.536 0,6.084 -6.526,11.171 -15.299,12.536 v -25.072 z"
   id="path315"
   inkscape:connector-curvature="0"
   style="fill:#272525" />
	</g>
	<g
   id="g317">
		<path
   d="m 194.82,1232.271 c -8.773,1.364 -15.298,6.452 -15.298,12.536 0,6.083 6.525,11.171 15.298,12.536 v -25.072 z"
   id="path319"
   inkscape:connector-curvature="0"
   style="fill:#272525" />
		<path
   d="m 313.281,1232.271 c 8.772,1.364 15.299,6.452 15.299,12.536 0,6.083 -6.526,11.171 -15.299,12.536 v -25.072 z"
   id="path321"
   inkscape:connector-curvature="0"
   style="fill:#272525" />
	</g>
	<g
   id="g323">
		<g
   id="g325">
			<path
   d="m 308.714,1080.065 c 3.307,0 6.012,2.705 6.012,6.012 v 44.819 c 0,3.307 -2.705,6.012 -6.012,6.012 H 201.095 c -3.306,0 -6.011,-2.705 -6.011,-6.012 v -44.819 c 0,-3.307 2.705,-6.012 6.011,-6.012 h 107.619 z"
   id="path327"
   inkscape:connector-curvature="0"
   style="fill:#d2be96" />
		</g>
		<g
   id="g329">
			<path
   d="m 307.151,1080.065 c 3.227,0 5.866,2.64 5.866,5.866 v 43.189 c 0,3.227 -2.64,5.866 -5.866,5.866 H 200.95 c -3.227,0 -5.867,-2.64 -5.867,-5.866 v -43.189 c 0,-3.227 2.64,-5.866 5.867,-5.866 h 106.201 z"
   id="path331"
   inkscape:connector-curvature="0"
   style="fill:#fae6b4" />
		</g>
		<circle
   cx="208.87801"
   cy="1094.62"
   r="4.257"
   id="circle333"
   sodipodi:cx="208.87801"
   sodipodi:cy="1094.62"
   sodipodi:rx="4.257"
   sodipodi:ry="4.257"
   style="fill:#434244"
   d="m 213.13501,1094.62 c 0,2.3511 -1.90593,4.257 -4.257,4.257 -2.35108,0 -4.257,-1.9059 -4.257,-4.257 0,-2.3511 1.90592,-4.257 4.257,-4.257 2.35107,0 4.257,1.9059 4.257,4.257 z" />
		<circle
   cx="223.936"
   cy="1094.62"
   r="4.257"
   id="circle335"
   sodipodi:cx="223.936"
   sodipodi:cy="1094.62"
   sodipodi:rx="4.257"
   sodipodi:ry="4.257"
   style="fill:#434244"
   d="m 228.193,1094.62 c 0,2.3511 -1.90592,4.257 -4.257,4.257 -2.35107,0 -4.257,-1.9059 -4.257,-4.257 0,-2.3511 1.90593,-4.257 4.257,-4.257 2.35108,0 4.257,1.9059 4.257,4.257 z" />
		<circle
   cx="238.993"
   cy="1094.62"
   r="4.257"
   id="circle337"
   sodipodi:cx="238.993"
   sodipodi:cy="1094.62"
   sodipodi:rx="4.257"
   sodipodi:ry="4.257"
   style="fill:#434244"
   d="m 243.25,1094.62 c 0,2.3511 -1.90593,4.257 -4.257,4.257 -2.35108,0 -4.257,-1.9059 -4.257,-4.257 0,-2.3511 1.90592,-4.257 4.257,-4.257 2.35107,0 4.257,1.9059 4.257,4.257 z" />
		<circle
   cx="254.05099"
   cy="1094.62"
   r="4.257"
   id="circle339"
   sodipodi:cx="254.05099"
   sodipodi:cy="1094.62"
   sodipodi:rx="4.257"
   sodipodi:ry="4.257"
   style="fill:#434244"
   d="m 258.30799,1094.62 c 0,2.3511 -1.90592,4.257 -4.257,4.257 -2.35107,0 -4.257,-1.9059 -4.257,-4.257 0,-2.3511 1.90593,-4.257 4.257,-4.257 2.35108,0 4.257,1.9059 4.257,4.257 z" />
		<path
   d="m 269.109,1090.362 c 2.351,0 4.255,1.905 4.255,4.257 0,2.353 -1.904,4.258 -4.255,4.258 -2.354,0 -4.258,-1.905 -4.258,-4.258 10e-4,-2.351 1.905,-4.257 4.258,-4.257 z"
   id="path341"
   inkscape:connector-curvature="0"
   style="fill:#434244" />
		<path
   d="m 284.168,1090.362 c 2.351,0 4.255,1.905 4.255,4.257 0,2.353 -1.904,4.258 -4.255,4.258 -2.354,0 -4.258,-1.905 -4.258,-4.258 0,-2.351 1.904,-4.257 4.258,-4.257 z"
   id="path343"
   inkscape:connector-curvature="0"
   style="fill:#434244" />
		<circle
   cx="299.224"
   cy="1094.62"
   r="4.257"
   id="circle345"
   sodipodi:cx="299.224"
   sodipodi:cy="1094.62"
   sodipodi:rx="4.257"
   sodipodi:ry="4.257"
   style="fill:#434244"
   d="m 303.481,1094.62 c 0,2.3511 -1.90592,4.257 -4.257,4.257 -2.35108,0 -4.257,-1.9059 -4.257,-4.257 0,-2.3511 1.90592,-4.257 4.257,-4.257 2.35108,0 4.257,1.9059 4.257,4.257 z" />
		<circle
   cx="208.87801"
   cy="1120.433"
   r="4.257"
   id="circle347"
   sodipodi:cx="208.87801"
   sodipodi:cy="1120.433"
   sodipodi:rx="4.257"
   sodipodi:ry="4.257"
   style="fill:#434244"
   d="m 213.13501,1120.433 c 0,2.3511 -1.90593,4.257 -4.257,4.257 -2.35108,0 -4.257,-1.9059 -4.257,-4.257 0,-2.3511 1.90592,-4.257 4.257,-4.257 2.35107,0 4.257,1.9059 4.257,4.257 z" />
		<circle
   cx="223.936"
   cy="1120.433"
   r="4.257"
   id="circle349"
   sodipodi:cx="223.936"
   sodipodi:cy="1120.433"
   sodipodi:rx="4.257"
   sodipodi:ry="4.257"
   style="fill:#434244"
   d="m 228.193,1120.433 c 0,2.3511 -1.90592,4.257 -4.257,4.257 -2.35107,0 -4.257,-1.9059 -4.257,-4.257 0,-2.3511 1.90593,-4.257 4.257,-4.257 2.35108,0 4.257,1.9059 4.257,4.257 z" />
		<circle
   cx="238.993"
   cy="1120.433"
   r="4.257"
   id="circle351"
   sodipodi:cx="238.993"
   sodipodi:cy="1120.433"
   sodipodi:rx="4.257"
   sodipodi:ry="4.257"
   style="fill:#434244"
   d="m 243.25,1120.433 c 0,2.3511 -1.90593,4.257 -4.257,4.257 -2.35108,0 -4.257,-1.9059 -4.257,-4.257 0,-2.3511 1.90592,-4.257 4.257,-4.257 2.35107,0 4.257,1.9059 4.257,4.257 z" />
		<circle
   cx="254.05099"
   cy="1120.433"
   r="4.257"
   id="circle353"
   sodipodi:cx="254.05099"
   sodipodi:cy="1120.433"
   sodipodi:rx="4.257"
   sodipodi:ry="4.257"
   style="fill:#434244"
   d="m 258.30799,1120.433 c 0,2.3511 -1.90592,4.257 -4.257,4.257 -2.35107,0 -4.257,-1.9059 -4.257,-4.257 0,-2.3511 1.90593,-4.257 4.257,-4.257 2.35108,0 4.257,1.9059 4.257,4.257 z" />
		<path
   d="m 269.109,1116.176 c 2.351,0 4.255,1.905 4.255,4.257 0,2.352 -1.904,4.258 -4.255,4.258 -2.354,0 -4.258,-1.906 -4.258,-4.258 0,-2.352 1.905,-4.257 4.258,-4.257 z"
   id="path355"
   inkscape:connector-curvature="0"
   style="fill:#434244" />
		<path
   d="m 284.168,1116.176 c 2.351,0 4.255,1.905 4.255,4.257 0,2.352 -1.904,4.258 -4.255,4.258 -2.354,0 -4.258,-1.906 -4.258,-4.258 0,-2.352 1.904,-4.257 4.258,-4.257 z"
   id="path357"
   inkscape:connector-curvature="0"
   style="fill:#434244" />
		<circle
   cx="299.224"
   cy="1120.433"
   r="4.257"
   id="circle359"
   sodipodi:cx="299.224"
   sodipodi:cy="1120.433"
   sodipodi:rx="4.257"
   sodipodi:ry="4.257"
   style="fill:#434244"
   d="m 303.481,1120.433 c 0,2.3511 -1.90592,4.257 -4.257,4.257 -2.35108,0 -4.257,-1.9059 -4.257,-4.257 0,-2.3511 1.90592,-4.257 4.257,-4.257 2.35108,0 4.257,1.9059 4.257,4.257 z" />
	</g>
	<g
   id="g361">
		<g
   id="g363">
			<path
   d="m 308.714,1217.346 c 3.307,0 6.012,2.705 6.012,6.012 v 44.819 c 0,3.307 -2.705,6.012 -6.012,6.012 H 201.095 c -3.306,0 -6.011,-2.705 -6.011,-6.012 v -44.819 c 0,-3.307 2.705,-6.012 6.011,-6.012 h 107.619 z"
   id="path365"
   inkscape:connector-curvature="0"
   style="fill:#d2be96" />
		</g>
		<g
   id="g367">
			<path
   d="m 307.151,1217.346 c 3.227,0 5.866,2.64 5.866,5.867 v 43.188 c 0,3.228 -2.64,5.867 -5.866,5.867 H 200.95 c -3.227,0 -5.867,-2.64 -5.867,-5.867 v -43.188 c 0,-3.228 2.64,-5.867 5.867,-5.867 h 106.201 z"
   id="path369"
   inkscape:connector-curvature="0"
   style="fill:#fae6b4" />
		</g>
		<circle
   cx="208.87801"
   cy="1231.9"
   r="4.257"
   id="circle371"
   sodipodi:cx="208.87801"
   sodipodi:cy="1231.9"
   sodipodi:rx="4.257"
   sodipodi:ry="4.257"
   style="fill:#434244"
   d="m 213.13501,1231.9 c 0,2.3511 -1.90593,4.257 -4.257,4.257 -2.35108,0 -4.257,-1.9059 -4.257,-4.257 0,-2.3511 1.90592,-4.257 4.257,-4.257 2.35107,0 4.257,1.9059 4.257,4.257 z" />
		<circle
   cx="223.936"
   cy="1231.9"
   r="4.257"
   id="circle373"
   sodipodi:cx="223.936"
   sodipodi:cy="1231.9"
   sodipodi:rx="4.257"
   sodipodi:ry="4.257"
   style="fill:#434244"
   d="m 228.193,1231.9 c 0,2.3511 -1.90592,4.257 -4.257,4.257 -2.35107,0 -4.257,-1.9059 -4.257,-4.257 0,-2.3511 1.90593,-4.257 4.257,-4.257 2.35108,0 4.257,1.9059 4.257,4.257 z" />
		<circle
   cx="238.993"
   cy="1231.9"
   r="4.257"
   id="circle375"
   sodipodi:cx="238.993"
   sodipodi:cy="1231.9"
   sodipodi:rx="4.257"
   sodipodi:ry="4.257"
   style="fill:#434244"
   d="m 243.25,1231.9 c 0,2.3511 -1.90593,4.257 -4.257,4.257 -2.35108,0 -4.257,-1.9059 -4.257,-4.257 0,-2.3511 1.90592,-4.257 4.257,-4.257 2.35107,0 4.257,1.9059 4.257,4.257 z" />
		<circle
   cx="254.05099"
   cy="1231.9"
   r="4.257"
   id="circle377"
   sodipodi:cx="254.05099"
   sodipodi:cy="1231.9"
   sodipodi:rx="4.257"
   sodipodi:ry="4.257"
   style="fill:#434244"
   d="m 258.30799,1231.9 c 0,2.3511 -1.90592,4.257 -4.257,4.257 -2.35107,0 -4.257,-1.9059 -4.257,-4.257 0,-2.3511 1.90593,-4.257 4.257,-4.257 2.35108,0 4.257,1.9059 4.257,4.257 z" />
		<path
   d="m 269.109,1227.643 c 2.351,0 4.255,1.905 4.255,4.257 0,2.352 -1.904,4.258 -4.255,4.258 -2.354,0 -4.258,-1.906 -4.258,-4.258 0,-2.352 1.905,-4.257 4.258,-4.257 z"
   id="path379"
   inkscape:connector-curvature="0"
   style="fill:#434244" />
		<path
   d="m 284.168,1227.643 c 2.351,0 4.255,1.905 4.255,4.257 0,2.352 -1.904,4.258 -4.255,4.258 -2.354,0 -4.258,-1.906 -4.258,-4.258 0,-2.352 1.904,-4.257 4.258,-4.257 z"
   id="path381"
   inkscape:connector-curvature="0"
   style="fill:#434244" />
		<circle
   cx="299.224"
   cy="1231.9"
   r="4.257"
   id="circle383"
   sodipodi:cx="299.224"
   sodipodi:cy="1231.9"
   sodipodi:rx="4.257"
   sodipodi:ry="4.257"
   style="fill:#434244"
   d="m 303.481,1231.9 c 0,2.3511 -1.90592,4.257 -4.257,4.257 -2.35108,0 -4.257,-1.9059 -4.257,-4.257 0,-2.3511 1.90592,-4.257 4.257,-4.257 2.35108,0 4.257,1.9059 4.257,4.257 z" />
		<circle
   cx="208.87801"
   cy="1257.713"
   r="4.257"
   id="circle385"
   sodipodi:cx="208.87801"
   sodipodi:cy="1257.713"
   sodipodi:rx="4.257"
   sodipodi:ry="4.257"
   style="fill:#434244"
   d="m 213.13501,1257.713 c 0,2.3511 -1.90593,4.257 -4.257,4.257 -2.35108,0 -4.257,-1.9059 -4.257,-4.257 0,-2.3511 1.90592,-4.257 4.257,-4.257 2.35107,0 4.257,1.9059 4.257,4.257 z" />
		<circle
   cx="223.936"
   cy="1257.713"
   r="4.257"
   id="circle387"
   sodipodi:cx="223.936"
   sodipodi:cy="1257.713"
   sodipodi:rx="4.257"
   sodipodi:ry="4.257"
   style="fill:#434244"
   d="m 228.193,1257.713 c 0,2.3511 -1.90592,4.257 -4.257,4.257 -2.35107,0 -4.257,-1.9059 -4.257,-4.257 0,-2.3511 1.90593,-4.257 4.257,-4.257 2.35108,0 4.257,1.9059 4.257,4.257 z" />
		<circle
   cx="238.993"
   cy="1257.713"
   r="4.257"
   id="circle389"
   sodipodi:cx="238.993"
   sodipodi:cy="1257.713"
   sodipodi:rx="4.257"
   sodipodi:ry="4.257"
   style="fill:#434244"
   d="m 243.25,1257.713 c 0,2.3511 -1.90593,4.257 -4.257,4.257 -2.35108,0 -4.257,-1.9059 -4.257,-4.257 0,-2.3511 1.90592,-4.257 4.257,-4.257 2.35107,0 4.257,1.9059 4.257,4.257 z" />
		<circle
   cx="254.05099"
   cy="1257.713"
   r="4.257"
   id="circle391"
   sodipodi:cx="254.05099"
   sodipodi:cy="1257.713"
   sodipodi:rx="4.257"
   sodipodi:ry="4.257"
   style="fill:#434244"
   d="m 258.30799,1257.713 c 0,2.3511 -1.90592,4.257 -4.257,4.257 -2.35107,0 -4.257,-1.9059 -4.257,-4.257 0,-2.3511 1.90593,-4.257 4.257,-4.257 2.35108,0 4.257,1.9059 4.257,4.257 z" />
		<path
   d="m 269.109,1253.456 c 2.351,0 4.255,1.905 4.255,4.256 0,2.353 -1.904,4.259 -4.255,4.259 -2.354,0 -4.258,-1.906 -4.258,-4.259 10e-4,-2.351 1.905,-4.256 4.258,-4.256 z"
   id="path393"
   inkscape:connector-curvature="0"
   style="fill:#434244" />
		<path
   d="m 284.168,1253.456 c 2.351,0 4.255,1.905 4.255,4.256 0,2.353 -1.904,4.259 -4.255,4.259 -2.354,0 -4.258,-1.906 -4.258,-4.259 0,-2.351 1.904,-4.256 4.258,-4.256 z"
   id="path395"
   inkscape:connector-curvature="0"
   style="fill:#434244" />
		<circle
   cx="299.224"
   cy="1257.713"
   r="4.257"
   id="circle397"
   sodipodi:cx="299.224"
   sodipodi:cy="1257.713"
   sodipodi:rx="4.257"
   sodipodi:ry="4.257"
   style="fill:#434244"
   d="m 303.481,1257.713 c 0,2.3511 -1.90592,4.257 -4.257,4.257 -2.35108,0 -4.257,-1.9059 -4.257,-4.257 0,-2.3511 1.90592,-4.257 4.257,-4.257 2.35108,0 4.257,1.9059 4.257,4.257 z" />
	</g>
	<circle
   cx="375.853"
   cy="1195.416"
   r="3.684"
   id="circle399"
   sodipodi:cx="375.853"
   sodipodi:cy="1195.416"
   sodipodi:rx="3.684"
   sodipodi:ry="3.684"
   style="fill:#434244"
   d="m 379.537,1195.416 c 0,2.0346 -1.64939,3.684 -3.684,3.684 -2.03462,0 -3.684,-1.6494 -3.684,-3.684 0,-2.0346 1.64938,-3.684 3.684,-3.684 2.03461,0 3.684,1.6494 3.684,3.684 z" />
	<circle
   cx="412.905"
   cy="1237.812"
   r="3.684"
   id="circle401"
   sodipodi:cx="412.905"
   sodipodi:cy="1237.812"
   sodipodi:rx="3.684"
   sodipodi:ry="3.684"
   style="fill:#434244"
   d="m 416.589,1237.812 c 0,2.0346 -1.64938,3.684 -3.684,3.684 -2.03462,0 -3.684,-1.6494 -3.684,-3.684 0,-2.0346 1.64938,-3.684 3.684,-3.684 2.03462,0 3.684,1.6494 3.684,3.684 z" />
	<g
   id="g403">
		<path
   d="m 409.306,1229.886 c 0.583,0.626 0.549,1.613 -0.077,2.197 -0.627,0.583 -1.614,0.548 -2.198,-0.077 l -26.513,-28.454 c -0.582,-0.625 -0.548,-1.615 0.077,-2.197 0.626,-0.583 1.615,-0.548 2.197,0.078 l 26.514,28.453 z"
   id="path405"
   inkscape:connector-curvature="0"
   style="fill:#272525" />
		<ellipse
   cx="396.099"
   cy="1220.0439"
   rx="7.211"
   ry="7.3410001"
   id="ellipse407"
   sodipodi:cx="396.099"
   sodipodi:cy="1220.0439"
   sodipodi:rx="7.211"
   sodipodi:ry="7.3410001"
   style="fill:#434244"
   d="m 403.31,1220.0439 c 0,4.0544 -3.22848,7.341 -7.211,7.341 -3.98253,0 -7.211,-3.2866 -7.211,-7.341 0,-4.0543 3.22847,-7.341 7.211,-7.341 3.98252,0 7.211,3.2867 7.211,7.341 z" />
		<circle
   cx="396.311"
   cy="1219.075"
   r="7.1589999"
   id="circle409"
   sodipodi:cx="396.311"
   sodipodi:cy="1219.075"
   sodipodi:rx="7.1589999"
   sodipodi:ry="7.1589999"
   style="fill:#59595b"
   d="m 403.47,1219.075 c 0,3.9538 -3.20519,7.159 -7.159,7.159 -3.9538,0 -7.159,-3.2052 -7.159,-7.159 0,-3.9539 3.2052,-7.159 7.159,-7.159 3.95381,0 7.159,3.2051 7.159,7.159 z" />
		<path
   d="m 393.08,1221.041 c 0,2.183 1.664,4.31 3.659,5.15 3.063,-0.186 5.586,-2.28 6.415,-5.123 -0.534,-2.329 -2.549,-4.611 -5.012,-4.611 -2.868,0 -5.062,1.715 -5.062,4.584 z"
   id="path411"
   inkscape:connector-curvature="0"
   style="fill:#6d6e70" />
	</g>
	<path
   d="m 170.455,1289.594 v 51.022 c 0,4.518 3.696,8.213 8.213,8.213 H 192.5 v 29.281 c 0,4.518 3.696,8.213 8.213,8.213 h 102.501 c 4.517,0 8.213,-3.695 8.213,-8.213 v -29.281 h 13.832 c 4.517,0 8.213,-3.695 8.213,-8.213 v -51.022 c 0,-4.518 -3.696,-8.213 -8.213,-8.213 h -146.59 c -4.518,0 -8.214,3.695 -8.214,8.213 z"
   id="path413"
   inkscape:connector-curvature="0"
   style="fill:#1d1a1a" />
	<g
   id="g415">
		<path
   d="m 321.175,1283.419 c 4.517,0 8.213,3.696 8.213,8.214 v 36.758 c 0,4.517 -3.696,8.213 -8.213,8.213 H 184.773 c -4.518,0 -8.213,-3.696 -8.213,-8.213 v -36.758 c 0,-4.518 3.696,-8.214 8.213,-8.214 h 136.402 z"
   id="path417"
   inkscape:connector-curvature="0"
   style="fill:#272525" />
	</g>
	<g
   id="g419">
		<rect
   x="199.957"
   y="1291.069"
   width="12.167"
   height="28.823"
   id="rect421"
   style="fill:#434244" />
		<rect
   x="199.957"
   y="1321.575"
   width="12.167"
   height="18.635"
   id="rect423"
   style="fill:#434244" />
		<rect
   x="199.957"
   y="1342.692"
   width="12.167"
   height="25.16"
   id="rect425"
   style="fill:#6d6e70" />
		<rect
   x="201.61099"
   y="1342.692"
   width="8.8599997"
   height="25.16"
   id="rect427"
   style="fill:#434244" />
		<rect
   x="201.61099"
   y="1359.229"
   width="8.8599997"
   height="8.6239996"
   id="rect429"
   style="fill:#272525" />
		<rect
   x="202.08299"
   y="1325.563"
   width="7.915"
   height="7.5599999"
   id="rect431"
   style="fill:#272525" />
		<circle
   cx="206.041"
   cy="1369.598"
   r="6.5149999"
   id="circle433"
   sodipodi:cx="206.041"
   sodipodi:cy="1369.598"
   sodipodi:rx="6.5149999"
   sodipodi:ry="6.5149999"
   style="fill:#393838"
   d="m 212.556,1369.598 c 0,3.5982 -2.91686,6.515 -6.515,6.515 -3.59813,0 -6.515,-2.9168 -6.515,-6.515 0,-3.5981 2.91687,-6.515 6.515,-6.515 3.59814,0 6.515,2.9169 6.515,6.515 z" />
	</g>
	<g
   id="g435">
		<rect
   x="215.60201"
   y="1288.722"
   width="12.167"
   height="28.823999"
   id="rect437"
   style="fill:#434244" />
		<rect
   x="215.60201"
   y="1319.229"
   width="12.167"
   height="18.635"
   id="rect439"
   style="fill:#434244" />
		<rect
   x="215.60201"
   y="1340.489"
   width="12.167"
   height="27.363001"
   id="rect441"
   style="fill:#6d6e70" />
		<rect
   x="217.255"
   y="1340.489"
   width="8.8599997"
   height="27.363001"
   id="rect443"
   style="fill:#434244" />
		<rect
   x="217.255"
   y="1359.229"
   width="8.8599997"
   height="8.6239996"
   id="rect445"
   style="fill:#272525" />
		<rect
   x="217.728"
   y="1323.2159"
   width="7.915"
   height="7.5609999"
   id="rect447"
   style="fill:#272525" />
		<circle
   cx="221.686"
   cy="1369.598"
   r="6.5149999"
   id="circle449"
   sodipodi:cx="221.686"
   sodipodi:cy="1369.598"
   sodipodi:rx="6.5149999"
   sodipodi:ry="6.5149999"
   style="fill:#393838"
   d="m 228.201,1369.598 c 0,3.5982 -2.91686,6.515 -6.515,6.515 -3.59813,0 -6.515,-2.9168 -6.515,-6.515 0,-3.5981 2.91687,-6.515 6.515,-6.515 3.59814,0 6.515,2.9169 6.515,6.515 z" />
	</g>
	<g
   id="g451">
		<rect
   x="231.246"
   y="1286.376"
   width="12.167"
   height="28.823"
   id="rect453"
   style="fill:#434244" />
		<rect
   x="231.246"
   y="1316.882"
   width="12.167"
   height="18.635"
   id="rect455"
   style="fill:#434244" />
		<rect
   x="231.246"
   y="1337.863"
   width="12.167"
   height="29.989"
   id="rect457"
   style="fill:#6d6e70" />
		<rect
   x="232.899"
   y="1337.863"
   width="8.8599997"
   height="29.989"
   id="rect459"
   style="fill:#434244" />
		<rect
   x="232.899"
   y="1359.229"
   width="8.8599997"
   height="8.6239996"
   id="rect461"
   style="fill:#272525" />
		<rect
   x="233.37199"
   y="1320.87"
   width="7.915"
   height="7.5599999"
   id="rect463"
   style="fill:#272525" />
		<circle
   cx="237.33"
   cy="1369.598"
   r="6.5149999"
   id="circle465"
   sodipodi:cx="237.33"
   sodipodi:cy="1369.598"
   sodipodi:rx="6.5149999"
   sodipodi:ry="6.5149999"
   style="fill:#393838"
   d="m 243.845,1369.598 c 0,3.5982 -2.91686,6.515 -6.515,6.515 -3.59813,0 -6.515,-2.9168 -6.515,-6.515 0,-3.5981 2.91687,-6.515 6.515,-6.515 3.59814,0 6.515,2.9169 6.515,6.515 z" />
	</g>
	<g
   id="g467">
		<rect
   x="246.89"
   y="1285.202"
   width="12.167"
   height="28.823"
   id="rect469"
   style="fill:#434244" />
		<rect
   x="246.89"
   y="1315.709"
   width="12.167"
   height="18.635"
   id="rect471"
   style="fill:#434244" />
		<rect
   x="246.89"
   y="1336.842"
   width="12.167"
   height="31.011"
   id="rect473"
   style="fill:#6d6e70" />
		<rect
   x="248.543"
   y="1336.842"
   width="8.8599997"
   height="31.011"
   id="rect475"
   style="fill:#434244" />
		<rect
   x="248.543"
   y="1359.229"
   width="8.8599997"
   height="8.6239996"
   id="rect477"
   style="fill:#272525" />
		<rect
   x="249.017"
   y="1319.696"
   width="7.915"
   height="7.5609999"
   id="rect479"
   style="fill:#272525" />
		<circle
   cx="252.97501"
   cy="1369.598"
   r="6.5149999"
   id="circle481"
   sodipodi:cx="252.97501"
   sodipodi:cy="1369.598"
   sodipodi:rx="6.5149999"
   sodipodi:ry="6.5149999"
   style="fill:#393838"
   d="m 259.49001,1369.598 c 0,3.5982 -2.91687,6.515 -6.515,6.515 -3.59814,0 -6.515,-2.9168 -6.515,-6.515 0,-3.5981 2.91686,-6.515 6.515,-6.515 3.59813,0 6.515,2.9169 6.515,6.515 z" />
	</g>
	<g
   id="g483">
		<rect
   x="262.534"
   y="1287.549"
   width="12.168"
   height="28.823"
   id="rect485"
   style="fill:#434244" />
		<rect
   x="262.534"
   y="1318.056"
   width="12.168"
   height="18.635"
   id="rect487"
   style="fill:#434244" />
		<rect
   x="262.534"
   y="1339.198"
   width="12.168"
   height="28.653999"
   id="rect489"
   style="fill:#6d6e70" />
		<rect
   x="264.18799"
   y="1339.198"
   width="8.8590002"
   height="28.653999"
   id="rect491"
   style="fill:#434244" />
		<rect
   x="264.18799"
   y="1359.229"
   width="8.8590002"
   height="8.6239996"
   id="rect493"
   style="fill:#272525" />
		<rect
   x="264.66101"
   y="1322.043"
   width="7.914"
   height="7.5609999"
   id="rect495"
   style="fill:#272525" />
		<circle
   cx="268.61899"
   cy="1369.598"
   r="6.5149999"
   id="circle497"
   sodipodi:cx="268.61899"
   sodipodi:cy="1369.598"
   sodipodi:rx="6.5149999"
   sodipodi:ry="6.5149999"
   style="fill:#393838"
   d="m 275.13399,1369.598 c 0,3.5982 -2.91687,6.515 -6.515,6.515 -3.59814,0 -6.515,-2.9168 -6.515,-6.515 0,-3.5981 2.91686,-6.515 6.515,-6.515 3.59813,0 6.515,2.9169 6.515,6.515 z" />
	</g>
	<g
   id="g499">
		<rect
   x="278.17999"
   y="1286.376"
   width="12.167"
   height="28.823"
   id="rect501"
   style="fill:#434244" />
		<rect
   x="278.17999"
   y="1316.882"
   width="12.167"
   height="18.635"
   id="rect503"
   style="fill:#434244" />
		<rect
   x="278.17999"
   y="1337.863"
   width="12.167"
   height="29.989"
   id="rect505"
   style="fill:#6d6e70" />
		<rect
   x="279.83301"
   y="1337.863"
   width="8.8590002"
   height="29.989"
   id="rect507"
   style="fill:#434244" />
		<rect
   x="279.83301"
   y="1359.229"
   width="8.8590002"
   height="8.6239996"
   id="rect509"
   style="fill:#272525" />
		<rect
   x="280.30701"
   y="1320.87"
   width="7.914"
   height="7.5599999"
   id="rect511"
   style="fill:#272525" />
		<circle
   cx="284.26401"
   cy="1369.598"
   r="6.5149999"
   id="circle513"
   sodipodi:cx="284.26401"
   sodipodi:cy="1369.598"
   sodipodi:rx="6.5149999"
   sodipodi:ry="6.5149999"
   style="fill:#393838"
   d="m 290.77901,1369.598 c 0,3.5982 -2.91687,6.515 -6.515,6.515 -3.59814,0 -6.515,-2.9168 -6.515,-6.515 0,-3.5981 2.91686,-6.515 6.515,-6.515 3.59813,0 6.515,2.9169 6.515,6.515 z" />
	</g>
	<g
   id="g515">
		<rect
   x="293.823"
   y="1285.202"
   width="12.168"
   height="28.823"
   id="rect517"
   style="fill:#434244" />
		<rect
   x="293.823"
   y="1315.709"
   width="12.168"
   height="18.635"
   id="rect519"
   style="fill:#434244" />
		<rect
   x="293.823"
   y="1336.842"
   width="12.168"
   height="31.011"
   id="rect521"
   style="fill:#6d6e70" />
		<rect
   x="295.478"
   y="1336.842"
   width="8.8590002"
   height="31.011"
   id="rect523"
   style="fill:#434244" />
		<rect
   x="295.478"
   y="1359.229"
   width="8.8590002"
   height="8.6239996"
   id="rect525"
   style="fill:#272525" />
		<rect
   x="295.95001"
   y="1319.696"
   width="7.914"
   height="7.5609999"
   id="rect527"
   style="fill:#272525" />
		<circle
   cx="299.90799"
   cy="1369.598"
   r="6.5149999"
   id="circle529"
   sodipodi:cx="299.90799"
   sodipodi:cy="1369.598"
   sodipodi:rx="6.5149999"
   sodipodi:ry="6.5149999"
   style="fill:#393838"
   d="m 306.42299,1369.598 c 0,3.5982 -2.91687,6.515 -6.515,6.515 -3.59814,0 -6.515,-2.9168 -6.515,-6.515 0,-3.5981 2.91686,-6.515 6.515,-6.515 3.59813,0 6.515,2.9169 6.515,6.515 z" />
	</g>
	<circle
   cx="186.681"
   cy="1290.873"
   r="5.994"
   id="circle531"
   sodipodi:cx="186.681"
   sodipodi:cy="1290.873"
   sodipodi:rx="5.994"
   sodipodi:ry="5.994"
   style="fill:#434244"
   d="m 192.675,1290.873 c 0,3.3104 -2.68361,5.994 -5.994,5.994 -3.3104,0 -5.994,-2.6836 -5.994,-5.994 0,-3.3103 2.6836,-5.994 5.994,-5.994 3.31039,0 5.994,2.6837 5.994,5.994 z" />
	<circle
   cx="319.267"
   cy="1290.873"
   r="5.994"
   id="circle533"
   sodipodi:cx="319.267"
   sodipodi:cy="1290.873"
   sodipodi:rx="5.994"
   sodipodi:ry="5.994"
   style="fill:#434244"
   d="m 325.261,1290.873 c 0,3.3104 -2.68361,5.994 -5.994,5.994 -3.3104,0 -5.994,-2.6836 -5.994,-5.994 0,-3.3103 2.6836,-5.994 5.994,-5.994 3.31039,0 5.994,2.6837 5.994,5.994 z" />
	<path
   d="m 427.429,1311.027 c 6.607,-3.104 15.733,1.712 20.014,10.632 1.107,2.307 -0.045,0.688 -0.024,2.644 0.043,3.749 -2.549,6.54 -6.894,8.582 -2.839,1.334 -6.581,7.008 -9.428,6.279 -3.774,-0.965 -8.068,-6.426 -9.878,-10.278 -3.178,-6.758 -0.396,-14.754 6.21,-17.859 z"
   id="path535"
   inkscape:connector-curvature="0"
   style="fill:#434244" />
	
		<ellipse
   transform="matrix(-0.4253,-0.9051,0.9051,-0.4253,-579.8326,2287.1758)"
   cx="436.25299"
   cy="1327.683"
   rx="13.521"
   ry="12.92"
   id="ellipse537"
   sodipodi:cx="436.25299"
   sodipodi:cy="1327.683"
   sodipodi:rx="13.521"
   sodipodi:ry="12.92"
   style="fill:#1e1a1c"
   d="m 449.77399,1327.683 c 0,7.1355 -6.05356,12.92 -13.521,12.92 -7.46744,0 -13.521,-5.7845 -13.521,-12.92 0,-7.1355 6.05356,-12.92 13.521,-12.92 7.46744,0 13.521,5.7845 13.521,12.92 z" />
	<path
   d="m 430.806,1316.089 c 6.119,-2.876 13.517,-0.015 16.525,6.387 3.008,6.403 0.491,13.925 -5.63,16.801 -6.115,2.874 -13.514,0.014 -16.523,-6.389 -3.007,-6.404 -0.489,-13.925 5.628,-16.799 z"
   id="path539"
   inkscape:connector-curvature="0"
   style="fill:#272525" />
	<polygon
   points="288.886,296.751 218.069,296.751 217.779,315.025 289.177,315.025 "
   id="polygon541"
   style="fill:#191919" />
	<polygon
   points="288.85,294.409 218.106,294.409 217.816,312.679 289.14,312.679 "
   id="polygon543"
   style="fill:#272525" />
	<polygon
   points="208.202,1330.392 205.269,1330.392 226.344,37.024 229.278,37.024 "
   id="polygon545"
   style="fill:#bbbcbf" />
	<polygon
   points="223.362,1327.468 220.966,1327.468 235.171,72.77 237.567,72.77 "
   id="polygon547"
   style="fill:#bbbcbf" />
	<polygon
   points="238.442,1324.876 236.369,1324.876 244.292,103.756 246.367,103.756 "
   id="polygon549"
   style="fill:#bbbcbf" />
	<polygon
   points="253.976,1323.429 252.224,1323.429 254.633,137.718 256.385,137.718 "
   id="polygon551"
   style="fill:#bbbcbf" />
	<polygon
   points="270.2,1324.876 268.878,1324.876 265.156,170.665 266.479,170.665 "
   id="polygon553"
   style="fill:#bbbcbf" />
	<polygon
   points="285.452,1323.429 284.522,1323.429 275.237,204.781 276.166,204.781 "
   id="polygon555"
   style="fill:#bbbcbf" />
	<polygon
   points="301.19,1322.313 300.378,1322.313 284.901,238.113 285.714,238.113 "
   id="polygon557"
   style="fill:#bbbcbf" />
	<g
   id="g559">
		<circle
   cx="289.82001"
   cy="237.974"
   r="4.9920001"
   id="circle561"
   sodipodi:cx="289.82001"
   sodipodi:cy="237.974"
   sodipodi:rx="4.9920001"
   sodipodi:ry="4.9920001"
   style="fill:#f1dca4"
   d="m 294.81201,237.974 c 0,2.757 -2.235,4.992 -4.992,4.992 -2.75701,0 -4.992,-2.235 -4.992,-4.992 0,-2.75701 2.23499,-4.992 4.992,-4.992 2.757,0 4.992,2.23499 4.992,4.992 z" />
		<path
   d="m 289.821,242.967 c 2.756,0 4.991,-2.235 4.991,-4.993 h -9.984 c 0,2.757 2.235,4.993 4.993,4.993 z"
   id="path563"
   inkscape:connector-curvature="0"
   style="opacity:0.1;fill:#272525" />
	</g>
	<g
   id="g565">
		<circle
   cx="280.13101"
   cy="204.32401"
   r="4.9920001"
   id="circle567"
   sodipodi:cx="280.13101"
   sodipodi:cy="204.32401"
   sodipodi:rx="4.9920001"
   sodipodi:ry="4.9920001"
   style="fill:#f1dca4"
   d="m 285.12301,204.32401 c 0,2.757 -2.23499,4.992 -4.992,4.992 -2.757,0 -4.992,-2.235 -4.992,-4.992 0,-2.75701 2.235,-4.992 4.992,-4.992 2.75701,0 4.992,2.23499 4.992,4.992 z" />
		<path
   d="m 280.132,209.317 c 2.756,0 4.991,-2.235 4.991,-4.994 h -9.984 c 0,2.759 2.235,4.994 4.993,4.994 z"
   id="path569"
   inkscape:connector-curvature="0"
   style="opacity:0.1;fill:#272525" />
	</g>
	<g
   id="g571">
		<circle
   cx="270.026"
   cy="170.57001"
   r="4.993"
   id="circle573"
   sodipodi:cx="270.026"
   sodipodi:cy="170.57001"
   sodipodi:rx="4.993"
   sodipodi:ry="4.993"
   style="fill:#f1dca4"
   d="m 275.019,170.57001 c 0,2.75756 -2.23544,4.993 -4.993,4.993 -2.75756,0 -4.993,-2.23544 -4.993,-4.993 0,-2.75756 2.23544,-4.993 4.993,-4.993 2.75756,0 4.993,2.23544 4.993,4.993 z" />
		<path
   d="m 270.027,175.563 c 2.755,0 4.991,-2.236 4.991,-4.994 h -9.985 c 0,2.759 2.236,4.994 4.994,4.994 z"
   id="path575"
   inkscape:connector-curvature="0"
   style="opacity:0.1;fill:#272525" />
	</g>
	<g
   id="g577">
		<circle
   cx="259.50299"
   cy="137.64999"
   r="4.993"
   id="circle579"
   sodipodi:cx="259.50299"
   sodipodi:cy="137.64999"
   sodipodi:rx="4.993"
   sodipodi:ry="4.993"
   style="fill:#f1dca4"
   d="m 264.49599,137.64999 c 0,2.75756 -2.23544,4.993 -4.993,4.993 -2.75756,0 -4.993,-2.23544 -4.993,-4.993 0,-2.75755 2.23544,-4.993 4.993,-4.993 2.75756,0 4.993,2.23545 4.993,4.993 z" />
		<path
   d="m 259.505,142.644 c 2.756,0 4.991,-2.235 4.991,-4.994 h -9.985 c 0,2.758 2.236,4.994 4.994,4.994 z"
   id="path581"
   inkscape:connector-curvature="0"
   style="opacity:0.1;fill:#272525" />
	</g>
	<g
   id="g583">
		<circle
   cx="249.19"
   cy="104.208"
   r="4.993"
   id="circle585"
   sodipodi:cx="249.19"
   sodipodi:cy="104.208"
   sodipodi:rx="4.993"
   sodipodi:ry="4.993"
   style="fill:#f1dca4"
   d="m 254.183,104.208 c 0,2.75756 -2.23544,4.993 -4.993,4.993 -2.75756,0 -4.993,-2.23544 -4.993,-4.993 0,-2.75756 2.23544,-4.993 4.993,-4.993 2.75756,0 4.993,2.23544 4.993,4.993 z" />
		<path
   d="m 249.191,109.201 c 2.756,0 4.992,-2.235 4.992,-4.994 h -9.985 c -0.001,2.759 2.235,4.994 4.993,4.994 z"
   id="path587"
   inkscape:connector-curvature="0"
   style="opacity:0.1;fill:#272525" />
	</g>
	<g
   id="g589">
		<circle
   cx="239.814"
   cy="71.600998"
   r="4.9920001"
   id="circle591"
   sodipodi:cx="239.814"
   sodipodi:cy="71.600998"
   sodipodi:rx="4.9920001"
   sodipodi:ry="4.9920001"
   style="fill:#f1dca4"
   d="m 244.806,71.600998 c 0,2.757005 -2.235,4.992 -4.992,4.992 -2.75701,0 -4.992,-2.234995 -4.992,-4.992 0,-2.757006 2.23499,-4.992 4.992,-4.992 2.757,0 4.992,2.234994 4.992,4.992 z" />
		<path
   d="m 239.815,76.594 c 2.755,0 4.991,-2.236 4.991,-4.994 h -9.985 c 0.001,2.758 2.236,4.994 4.994,4.994 z"
   id="path593"
   inkscape:connector-curvature="0"
   style="opacity:0.1;fill:#272525" />
	</g>
	<g
   id="g595">
		<circle
   cx="231.168"
   cy="37.638"
   r="4.9920001"
   id="circle597"
   sodipodi:cx="231.168"
   sodipodi:cy="37.638"
   sodipodi:rx="4.9920001"
   sodipodi:ry="4.9920001"
   style="fill:#f1dca4"
   d="m 236.16,37.638 c 0,2.757006 -2.235,4.992001 -4.992,4.992001 -2.75701,0 -4.992,-2.234995 -4.992,-4.992001 0,-2.757005 2.23499,-4.992 4.992,-4.992 2.757,0 4.992,2.234995 4.992,4.992 z" />
		<path
   d="m 231.169,42.632 c 2.755,0 4.991,-2.236 4.991,-4.994 h -9.985 c 0,2.758 2.236,4.994 4.994,4.994 z"
   id="path599"
   inkscape:connector-curvature="0"
   style="opacity:0.1;fill:#272525" />
	</g>
</g>
</svg>