<?xml version="1.0" encoding="UTF-8" standalone="no"?>
<!-- Generator: Adobe Illustrator 13.0.0, SVG Export Plug-In . SVG Version: 6.00 Build 14948)  -->

<svg
   xmlns:dc="http://purl.org/dc/elements/1.1/"
   xmlns:cc="http://creativecommons.org/ns#"
   xmlns:rdf="http://www.w3.org/1999/02/22-rdf-syntax-ns#"
   xmlns:svg="http://www.w3.org/2000/svg"
   xmlns="http://www.w3.org/2000/svg"
   xmlns:sodipodi="http://sodipodi.sourceforge.net/DTD/sodipodi-0.dtd"
   xmlns:inkscape="http://www.inkscape.org/namespaces/inkscape"
   version="1.1"
   id="guitar3"
   inkscape:version="0.48.5 r10040"
   sodipodi:docname="les-paul.svg"
   x="0px"
   y="0px"
   width="512"
   height="170"
   viewBox="0 0 512 170"
   enable-background="new 0 0 1000 115"
   xml:space="preserve"
   inkscape:export-filename="C:\wamp\www\q\svg\STORE\img\les-paul.png"
   inkscape:export-xdpi="90.163712"
   inkscape:export-ydpi="90.163712"><metadata
   id="metadata292"><rdf:RDF><cc:Work
       rdf:about=""><dc:format>image/svg+xml</dc:format><dc:type
         rdf:resource="http://purl.org/dc/dcmitype/StillImage" /><dc:title /></cc:Work></rdf:RDF></metadata><defs
   id="defs290" />
<sodipodi:namedview
   id="namedview571"
   inkscape:current-layer="guitar3"
   inkscape:window-y="-8"
   inkscape:window-x="1912"
   inkscape:window-height="1018"
   inkscape:window-width="1920"
   inkscape:pageshadow="2"
   inkscape:pageopacity="0"
   bordercolor="#666666"
   guidetolerance="10"
   inkscape:cy="61.132946"
   inkscape:cx="49.232615"
   gridtolerance="10"
   objecttolerance="10"
   inkscape:zoom="7.3749998"
   borderopacity="1"
   showgrid="false"
   pagecolor="#ffffff"
   inkscape:window-maximized="1">
	</sodipodi:namedview>
<g
   id="g4"
   transform="matrix(-0.22218291,0,0,-0.22218291,421.39256,98.382767)">
	<path
   id="path3"
   inkscape:connector-curvature="0"
   d="m 890.917,204.061 c 0,0 -1.456,1.998 -4.219,2.724 -2.77,0.724 -3.761,0.431 -4.392,-0.312 -0.633,-0.742 -3.05,-9.861 -8.439,-9.049 -7.579,1.143 -5.438,16.768 -4.632,19.629 0.804,2.857 7.13,17.387 14.194,14.412 5.023,-2.111 2.342,-11.154 2.494,-12.117 0.148,-0.961 0.846,-1.729 3.585,-2.551 2.735,-0.822 5.022,0.125 5.022,0.125 l -3.613,-12.861 z"
   style="fill:#edc897" />
	<path
   id="path5"
   inkscape:connector-curvature="0"
   d="m 1870.143,66.967 c 0,0 1.941,-1.541 4.799,-1.496 2.861,0.041 3.737,0.59 4.144,1.475 0.409,0.882 0.302,10.314 5.715,10.973 7.604,0.926 9.718,-14.705 9.709,-17.674 -0.01,-2.97 -2.226,-18.658 -9.83,-17.684 -5.409,0.692 -5.237,10.126 -5.643,11.007 -0.4,0.885 -1.271,1.442 -4.136,1.505 -2.859,0.063 -4.807,-1.469 -4.807,-1.469 l 0.049,13.363 0,0 z"
   style="fill:#edc897" />
	<path
   id="path7"
   inkscape:connector-curvature="0"
   d="m 1208.774,275.143 c 0,0 26.507,-6.108 55.618,8.078 49.092,23.922 88.546,85.131 163.729,122.414 39.674,19.673 96.627,28.896 96.627,28.896 l -174.597,-210.965 -141.377,51.577 0,0 z"
   style="fill:#ebdec9" />
	<path
   id="path9"
   inkscape:connector-curvature="0"
   d="m 1036.446,-209.688 c 0,0 -50.188,4.106 -53.382,25.554 -2.654,17.809 12.775,24.184 19.619,29.198 6.843,5.018 38.779,19.619 36.497,71.176 -3.834,86.775 -102.655,80.301 -102.655,80.301 l 135.507,-6.388 -35.586,-199.841 0,0 z"
   style="fill:#ebdec9" />
	<path
   id="path11"
   inkscape:connector-curvature="0"
   d="m 879.492,114.248 c 0,0 -7.685,89.371 41.975,155.579 58.857,78.478 149.653,62.506 149.653,62.506 L 879.492,114.248 z"
   style="fill:#ebdec9" />
	<path
   id="path13"
   inkscape:connector-curvature="0"
   d="m 890.818,119.352 c 0,0 -5.746,45.959 25.026,119 30.778,73.041 108.679,94.973 140.336,94.791 72.226,-0.41 146.122,-84.069 207.642,-56.625 53.351,23.797 52.102,44.318 111.608,87.813 59.511,43.493 132.231,85.651 228.545,70.179 102.202,-16.42 275.188,-63.242 270.021,-378.279 -4.906,-299.209 -167.404,-345.991 -216.235,-362.407 -77.124,-25.922 -198.607,-6.563 -276.579,57.86 -66.998,55.358 -76.725,71.006 -119.403,91.919 -41.035,20.109 -104.811,-18.959 -119.409,-26.677 -43.498,-22.976 -60.74,-28.317 -103.82,-26.673 -43.084,1.64 -51.499,30.006 -30.772,45.551 21.34,16.003 43.889,30.19 45.96,76.734 2.466,55.394 -53.759,75.503 -85.767,85.351 -26.674,8.208 -77.153,121.463 -77.153,121.463 l 0,0 z"
   style="fill:#ede2d2" />
	<g
   id="g15"
   transform="translate(0,-397)">
		<path
   id="path17"
   inkscape:connector-curvature="0"
   d="m 1179.451,352.568 c 5.705,0 10.373,4.667 10.373,10.373 v 188.088 c 0,5.705 -4.668,10.373 -10.373,10.373 h -80.777 c -5.706,0 -10.373,-4.668 -10.373,-10.373 V 362.941 c 0,-5.706 4.667,-10.373 10.373,-10.373 h 80.777 l 0,0 z"
   style="fill:#272525" />
		
			<circle
   id="circle19"
   sodipodi:cx="1139.063"
   sodipodi:cy="548.375"
   sodipodi:rx="5.7010002"
   sodipodi:ry="5.7010002"
   cx="1139.063"
   cy="548.375"
   r="5.7010002"
   d="m 1144.764,548.375 c 0,3.14858 -2.5524,5.701 -5.701,5.701 -3.1486,0 -5.701,-2.55242 -5.701,-5.701 0,-3.14858 2.5524,-5.701 5.701,-5.701 3.1486,0 5.701,2.55242 5.701,5.701 z"
   style="fill:#f7d68f">
		</circle>
		
			<circle
   id="circle21"
   sodipodi:cx="1139.063"
   sodipodi:cy="365.59201"
   sodipodi:rx="5.7010002"
   sodipodi:ry="5.7010002"
   cx="1139.063"
   cy="365.59201"
   r="5.7010002"
   d="m 1144.764,365.59201 c 0,3.14858 -2.5524,5.701 -5.701,5.701 -3.1486,0 -5.701,-2.55242 -5.701,-5.701 0,-3.14857 2.5524,-5.701 5.701,-5.701 3.1486,0 5.701,2.55243 5.701,5.701 z"
   style="fill:#f7d68f">
		</circle>
		
			<circle
   id="circle23"
   sodipodi:cx="1097.214"
   sodipodi:cy="550.828"
   sodipodi:rx="5.7010002"
   sodipodi:ry="5.7010002"
   cx="1097.214"
   cy="550.828"
   r="5.7010002"
   d="m 1102.915,550.828 c 0,3.14858 -2.5524,5.701 -5.701,5.701 -3.1486,0 -5.701,-2.55242 -5.701,-5.701 0,-3.14857 2.5524,-5.701 5.701,-5.701 3.1486,0 5.701,2.55243 5.701,5.701 z"
   style="fill:#434244">
		</circle>
		
			<circle
   id="circle25"
   sodipodi:cx="1180.907"
   sodipodi:cy="550.828"
   sodipodi:rx="5.7010002"
   sodipodi:ry="5.7010002"
   cx="1180.907"
   cy="550.828"
   r="5.7010002"
   d="m 1186.608,550.828 c 0,3.14858 -2.5524,5.701 -5.701,5.701 -3.1486,0 -5.701,-2.55242 -5.701,-5.701 0,-3.14857 2.5524,-5.701 5.701,-5.701 3.1486,0 5.701,2.55243 5.701,5.701 z"
   style="fill:#434244">
		</circle>
		
			<circle
   id="circle27"
   sodipodi:cx="1097.214"
   sodipodi:cy="363.13901"
   sodipodi:rx="5.7010002"
   sodipodi:ry="5.7010002"
   cx="1097.214"
   cy="363.13901"
   r="5.7010002"
   d="m 1102.915,363.13901 c 0,3.14857 -2.5524,5.701 -5.701,5.701 -3.1486,0 -5.701,-2.55243 -5.701,-5.701 0,-3.14858 2.5524,-5.701 5.701,-5.701 3.1486,0 5.701,2.55242 5.701,5.701 z"
   style="fill:#434244">
		</circle>
		
			<circle
   id="circle29"
   sodipodi:cx="1180.907"
   sodipodi:cy="363.13901"
   sodipodi:rx="5.7010002"
   sodipodi:ry="5.7010002"
   cx="1180.907"
   cy="363.13901"
   r="5.7010002"
   d="m 1186.608,363.13901 c 0,3.14857 -2.5524,5.701 -5.701,5.701 -3.1486,0 -5.701,-2.55243 -5.701,-5.701 0,-3.14858 2.5524,-5.701 5.701,-5.701 3.1486,0 5.701,2.55242 5.701,5.701 z"
   style="fill:#434244">
		</circle>
		<path
   id="path31"
   inkscape:connector-curvature="0"
   d="m 1175.008,376.46 c 4.533,0 8.239,3.711 8.239,8.244 v 144.483 c 0,4.533 -3.706,8.237 -8.239,8.237 h -71.141 c -4.533,0 -8.244,-3.711 -8.244,-8.237 V 384.704 c 0,-4.533 3.711,-8.244 8.244,-8.244 h 71.141 l 0,0 z"
   style="fill:#434244" />
		<path
   id="path33"
   inkscape:connector-curvature="0"
   d="m 1174.258,376.545 c 4.533,0 8.244,3.707 8.244,8.239 v 144.483 c 0,4.531 -3.711,8.238 -8.244,8.238 h -71.141 c -4.533,0 -8.244,-3.711 -8.244,-8.238 V 384.785 c 0,-4.533 3.711,-8.239 8.244,-8.239 l 71.141,-10e-4 0,0 z"
   style="fill:#9c7d5d" />
		<path
   id="path35"
   inkscape:connector-curvature="0"
   enable-background="new    "
   d="m 1094.873,384.699 v 3.747 c 0,-4.533 3.711,-8.244 8.244,-8.244 h 71.141 c 4.533,0 8.244,3.711 8.244,8.244 v -3.747 c 0,-4.533 -3.711,-8.244 -8.244,-8.244 h -71.141 c -4.533,0.005 -8.244,3.716 -8.244,8.244 z"
   style="opacity:0.5;fill:#ffffff" />
		<path
   id="path37"
   inkscape:connector-curvature="0"
   enable-background="new    "
   d="M 1099.424,533.54 V 381.092 c -2.691,1.366 -4.556,4.151 -4.556,7.359 v 137.738 c 0.01,3.206 1.869,5.991 4.556,7.351 z"
   style="opacity:0.3;fill:#272525" />
		<path
   id="path39"
   inkscape:connector-curvature="0"
   enable-background="new    "
   d="m 1174.258,534.43 h -71.141 c -4.533,0 -8.244,-3.711 -8.244,-8.24 v 2.998 c 0,4.533 3.711,8.238 8.244,8.238 h 71.141 c 4.533,0 8.244,-3.711 8.244,-8.238 v -2.998 c 0,4.529 -3.716,8.24 -8.244,8.24 z"
   style="opacity:0.2;fill:#ffffff" />
		<g
   id="g41">
			
				<circle
   id="circle43"
   sodipodi:cx="1118.464"
   sodipodi:cy="514.08698"
   sodipodi:rx="7.1300001"
   sodipodi:ry="7.1300001"
   cx="1118.464"
   cy="514.08698"
   r="7.1300001"
   d="m 1125.594,514.08698 c 0,3.93779 -3.1922,7.13 -7.13,7.13 -3.9378,0 -7.13,-3.19221 -7.13,-7.13 0,-3.9378 3.1922,-7.13001 7.13,-7.13001 3.9378,0 7.13,3.19221 7.13,7.13001 z"
   style="fill:#f4cfa6">
			</circle>
			
				<circle
   id="circle45"
   sodipodi:cx="1118.464"
   sodipodi:cy="491.26001"
   sodipodi:rx="7.1300001"
   sodipodi:ry="7.1300001"
   cx="1118.464"
   cy="491.26001"
   r="7.1300001"
   d="m 1125.594,491.26001 c 0,3.93779 -3.1922,7.13 -7.13,7.13 -3.9378,0 -7.13,-3.19221 -7.13,-7.13 0,-3.93779 3.1922,-7.13 7.13,-7.13 3.9378,0 7.13,3.19221 7.13,7.13 z"
   style="fill:#f4cfa6">
			</circle>
			
				<circle
   id="circle47"
   sodipodi:cx="1118.463"
   sodipodi:cy="468.43799"
   sodipodi:rx="7.1339998"
   sodipodi:ry="7.1339998"
   cx="1118.463"
   cy="468.43799"
   r="7.1339998"
   d="m 1125.597,468.43799 c 0,3.94 -3.194,7.134 -7.134,7.134 -3.94,0 -7.134,-3.194 -7.134,-7.134 0,-3.94 3.194,-7.134 7.134,-7.134 3.94,0 7.134,3.194 7.134,7.134 z"
   style="fill:#f4cfa6">
			</circle>
			
				<circle
   id="circle49"
   sodipodi:cx="1118.464"
   sodipodi:cy="445.61499"
   sodipodi:rx="7.1300001"
   sodipodi:ry="7.1300001"
   cx="1118.464"
   cy="445.61499"
   r="7.1300001"
   d="m 1125.594,445.61499 c 0,3.93779 -3.1922,7.13 -7.13,7.13 -3.9378,0 -7.13,-3.19221 -7.13,-7.13 0,-3.93779 3.1922,-7.13 7.13,-7.13 3.9378,0 7.13,3.19221 7.13,7.13 z"
   style="fill:#f4cfa6">
			</circle>
			
				<circle
   id="circle51"
   sodipodi:cx="1118.464"
   sodipodi:cy="422.78799"
   sodipodi:rx="7.1300001"
   sodipodi:ry="7.1300001"
   cx="1118.464"
   cy="422.78799"
   r="7.1300001"
   d="m 1125.594,422.78799 c 0,3.93779 -3.1922,7.13 -7.13,7.13 -3.9378,0 -7.13,-3.19221 -7.13,-7.13 0,-3.93779 3.1922,-7.13 7.13,-7.13 3.9378,0 7.13,3.19221 7.13,7.13 z"
   style="fill:#f4cfa6">
			</circle>
			
				<circle
   id="circle53"
   sodipodi:cx="1118.464"
   sodipodi:cy="399.961"
   sodipodi:rx="7.1300001"
   sodipodi:ry="7.1300001"
   cx="1118.464"
   cy="399.961"
   r="7.1300001"
   d="m 1125.594,399.961 c 0,3.93779 -3.1922,7.13 -7.13,7.13 -3.9378,0 -7.13,-3.19221 -7.13,-7.13 0,-3.93779 3.1922,-7.13 7.13,-7.13 3.9378,0 7.13,3.19221 7.13,7.13 z"
   style="fill:#f4cfa6">
			</circle>
		</g>
		<path
   id="path55"
   inkscape:connector-curvature="0"
   enable-background="new    "
   d="m 1138.689,537.507 h 35.566 c 4.533,0 8.244,-3.711 8.244,-8.239 V 384.785 c 0,-4.533 -3.711,-8.24 -8.244,-8.24 h -35.566 v 160.962 l 0,0 z"
   style="opacity:0.1;fill:#272525" />
	</g>
	<path
   id="path57"
   inkscape:connector-curvature="0"
   d="m -228.964,-20.262 c -40.483,-1.096 -154.268,-15.396 -154.268,-15.396 0,0 2.188,19.255 -2.552,34.935 -5.117,16.924 -17.341,32.859 -17.71,43.075 -0.31,8.689 2.332,13.617 3.19,14.916 -0.858,1.298 -5.697,6.236 -5.387,14.919 0.364,10.213 12.027,27.576 17.139,44.496 4.745,15.685 0.732,38.295 0.732,38.295 0,0 118.169,-12.765 158.653,-13.859 40.487,-1.092 137.137,7.296 137.137,7.296 0,0 16.775,-24.804 41.215,-34.283 24.436,-9.483 43.399,-8.752 43.399,-8.752 l 1095.645,19.332 V -10.252 L 8.74,8.936 c 0,0 -7.938,1.712 -9.412,1.676 -5.732,-0.126 -34.732,9.453 -54.163,1.914 -24.44,-9.479 -38.848,-39.643 -38.848,-39.643 0,0 -94.794,7.947 -135.281,6.855 z"
   style="fill:#593226" />
	<path
   id="path59"
   inkscape:connector-curvature="0"
   d="m -229.162,-25.167 c -40.488,-1.096 -158.653,-13.86 -158.653,-13.86 0,0 4.012,22.611 -0.732,38.291 -5.117,16.923 -16.775,34.288 -17.14,44.495 -0.31,8.689 2.539,13.667 3.396,14.964 -0.858,1.299 -3.707,6.272 -3.396,14.961 0.364,10.213 12.027,27.576 17.14,44.496 4.744,15.685 0.732,38.295 0.732,38.295 0,0 118.17,-12.769 158.653,-13.858 40.487,-1.099 137.137,7.296 137.137,7.296 0,0 16.775,-24.805 41.215,-34.283 24.436,-9.479 43.399,-8.752 43.399,-8.752 L 1088.235,126.21 V -8.756 L -7.411,10.576 c 0,0 -18.963,0.728 -43.399,-8.751 -24.44,-9.485 -41.215,-34.288 -41.215,-34.288 0,0 -96.65,8.387 -137.137,7.296 z"
   style="fill:#724335" />
	
		<rect
   id="rect61"
   x="4.8179998"
   y="100.842"
   enable-background="new    "
   width="1083.416"
   height="2.8440001"
   style="opacity:0.7;fill:#5c3a31" />
	
		<rect
   id="rect63"
   x="4.8179998"
   y="79.864998"
   enable-background="new    "
   width="1083.416"
   height="2.8440001"
   style="opacity:0.8;fill:#5c3a31" />
	
		<rect
   id="rect65"
   x="9.1269999"
   y="70.055"
   enable-background="new    "
   width="1079.105"
   height="2.8440001"
   style="opacity:0.8;fill:#5f3d37" />
	
		<rect
   id="rect67"
   x="-2.6849999"
   y="34.679001"
   enable-background="new    "
   width="1090.917"
   height="3.28"
   style="opacity:0.7;fill:#55342a" />
	
		<rect
   id="rect69"
   x="-2.6849999"
   y="26.438999"
   enable-background="new    "
   width="1090.917"
   height="3.279"
   style="opacity:0.4;fill:#55342a" />
	
		<rect
   id="rect71"
   x="-20.625"
   y="13.338"
   enable-background="new    "
   width="1108.858"
   height="3.0639999"
   style="opacity:0.8;fill:#513530" />
	<rect
   id="rect73"
   x="-20.767"
   y="54.325001"
   enable-background="new    "
   width="1109"
   height="3.059"
   style="opacity:0.7;fill:#513530" />
	<polygon
   id="polygon75"
   points="1021.594,10.504 1021.594,106.947 1035.202,101.229 1035.202,16.223 "
   style="fill:#d3d1cc" />
	<polygon
   id="polygon77"
   points="965.732,10.504 965.732,106.947 979.332,101.229 979.332,16.223 "
   style="fill:#d3d1cc" />
	<polygon
   id="polygon79"
   points="903.896,10.504 903.896,106.947 917.495,101.229 917.495,16.223 "
   style="fill:#d3d1cc" />
	<polygon
   id="polygon81"
   points="830.732,15.419 830.732,102.032 852.788,92.364 852.788,25.087 "
   style="fill:#d3d1cc" />
	<polygon
   id="polygon83"
   points="711.445,15.419 711.445,102.032 733.5,92.364 733.5,25.087 "
   style="fill:#d3d1cc" />
	<path
   id="path85"
   inkscape:connector-curvature="0"
   d="m 564.985,99.678 c 0,0 9.024,-5.438 15.318,-6.721 6.29,-1.275 15.32,-3.109 15.32,-3.109 v -62.24 c 0,0 -9.026,-1.833 -15.32,-3.109 -6.294,-1.276 -15.318,-6.716 -15.318,-6.716 v 81.895 z"
   style="fill:#d3d1cc" />
	<path
   id="path87"
   inkscape:connector-curvature="0"
   d="m 454.646,99.674 c 0,0 9.024,-5.441 15.318,-6.721 6.29,-1.276 15.315,-3.109 15.315,-3.109 V 27.603 c 0,0 -9.025,-1.833 -15.315,-3.114 -6.294,-1.271 -15.318,-6.712 -15.318,-6.712 v 81.897 l 0,0 z"
   style="fill:#d3d1cc" />
	<path
   id="path89"
   inkscape:connector-curvature="0"
   d="m 327.555,23.231 c 0,0 13.93,6.16 20.033,6.582 6.105,0.413 17.312,1.181 17.312,1.181 v 55.47 c 0,0 -11.204,0.765 -17.312,1.183 -6.109,0.418 -20.033,6.578 -20.033,6.578 V 23.231 z"
   style="fill:#d3d1cc" />
	<path
   id="path91"
   inkscape:connector-curvature="0"
   d="m 193.307,23.236 c 0,0 13.927,6.159 20.032,6.572 6.106,0.418 17.311,1.187 17.311,1.187 v 55.47 c 0,0 -11.205,0.764 -17.311,1.182 -6.105,0.414 -20.032,6.574 -20.032,6.574 V 23.236 l 0,0 z"
   style="fill:#d3d1cc" />
	<polygon
   id="polygon93"
   points="10.515,107.193 10.515,10.261 -1.013,10.463 -1.013,106.986 "
   style="fill:#f1f1f2" />
	<g
   id="g95"
   transform="translate(0,-397)">
		<g
   id="g97">
			<path
   id="path99"
   inkscape:connector-curvature="0"
   d="m -327.335,544.619 -0.004,2.605 h 1.276 v 7.646 c 0,0 -4.767,6.108 -7.88,13.671 -1.878,4.561 -6.573,20.046 -5.679,21.784 1.038,2.018 12.993,3.813 15.873,4.286 1.981,0.322 3.688,0.464 4.758,0.464 1.064,0 2.772,-0.142 4.753,-0.464 2.884,-0.473 14.835,-2.271 15.877,-4.286 0.894,-1.738 -3.801,-17.226 -5.679,-21.784 -3.113,-7.564 -7.88,-13.671 -7.88,-13.671 v -7.646 h 1.276 l -0.004,-2.605 h -16.687 l 0,0 z"
   style="fill:#b88f5f" />
			<path
   id="path101"
   inkscape:connector-curvature="0"
   enable-background="new    "
   d="m -298.357,590.326 c 0.894,-1.738 -3.801,-17.225 -5.679,-21.784 -3.114,-7.565 -7.88,-13.671 -7.88,-13.671 v -7.646 h 1.276 l -0.004,-2.604 h -8.343 v 50.461 c 1.065,0 2.772,-0.141 4.753,-0.463 2.884,-0.478 14.834,-2.269 15.877,-4.293 z"
   style="opacity:0.3;fill:#929496" />
		</g>
		<g
   id="g103">
			<path
   id="path105"
   inkscape:connector-curvature="0"
   d="m -237.532,539.165 v 2.61 h 1.276 v 7.646 c 0,0 -4.767,6.104 -7.88,13.67 -1.878,4.562 -6.573,20.043 -5.679,21.785 1.038,2.021 12.993,3.813 15.873,4.291 1.981,0.323 3.688,0.463 4.758,0.463 1.07,0 2.772,-0.14 4.758,-0.463 2.884,-0.478 14.834,-2.271 15.872,-4.291 0.894,-1.738 -3.801,-17.22 -5.679,-21.785 -3.113,-7.563 -7.88,-13.67 -7.88,-13.67 v -7.646 h 1.276 v -2.61 h -16.695 l 0,0 z"
   style="fill:#b88f5f" />
			<path
   id="path107"
   inkscape:connector-curvature="0"
   enable-background="new    "
   d="m -208.559,584.877 c 0.894,-1.738 -3.801,-17.22 -5.679,-21.784 -3.113,-7.565 -7.88,-13.671 -7.88,-13.671 v -7.646 h 1.276 v -2.608 h -8.343 v 50.466 c 1.064,0 2.772,-0.14 4.758,-0.463 2.875,-0.48 14.826,-2.273 15.868,-4.294 z"
   style="opacity:0.3;fill:#929496" />
		</g>
		<g
   id="g109">
			<path
   id="path111"
   inkscape:connector-curvature="0"
   d="m -144.876,542.539 -0.004,2.609 h 1.276 v 7.646 c 0,0 -4.771,6.104 -7.88,13.672 -1.878,4.56 -6.573,20.041 -5.679,21.784 1.038,2.021 12.993,3.814 15.873,4.29 1.981,0.323 3.688,0.463 4.758,0.463 1.065,0 2.772,-0.139 4.753,-0.463 2.884,-0.476 14.835,-2.269 15.877,-4.29 0.894,-1.738 -3.801,-17.22 -5.679,-21.784 -3.113,-7.565 -7.88,-13.672 -7.88,-13.672 v -7.646 h 1.276 l -0.004,-2.609 h -16.687 l 0,0 z"
   style="fill:#b88f5f" />
			<path
   id="path113"
   inkscape:connector-curvature="0"
   enable-background="new    "
   d="m -115.903,588.251 c 0.894,-1.737 -3.8,-17.22 -5.678,-21.784 -3.114,-7.566 -7.88,-13.672 -7.88,-13.672 v -7.646 h 1.276 l -0.004,-2.607 h -8.343 V 593 c 1.065,0 2.772,-0.139 4.753,-0.463 2.883,-0.473 14.834,-2.264 15.876,-4.286 l 0,0 z"
   style="opacity:0.3;fill:#929496" />
		</g>
	</g>
	<g
   id="g115"
   transform="translate(0,-397)">
		<g
   id="g117">
			<path
   id="path119"
   inkscape:connector-curvature="0"
   d="m -328.759,366.711 -0.004,-2.605 h 1.276 v -7.646 c 0,0 -4.767,-6.105 -7.88,-13.676 -1.874,-4.56 -6.573,-20.042 -5.679,-21.785 1.038,-2.017 12.993,-3.814 15.872,-4.286 1.981,-0.323 3.688,-0.467 4.758,-0.467 1.065,0 2.772,0.14 4.753,0.467 2.884,0.472 14.834,2.269 15.877,4.286 0.894,1.743 -3.801,17.225 -5.679,21.785 -3.113,7.57 -7.88,13.676 -7.88,13.676 v 7.646 h 1.276 l -0.005,2.605 h -16.685 l 0,0 z"
   style="fill:#b88f5f" />
			<path
   id="path121"
   inkscape:connector-curvature="0"
   enable-background="new    "
   d="m -299.786,320.999 c 0.894,1.743 -3.801,17.225 -5.679,21.785 -3.113,7.57 -7.88,13.675 -7.88,13.675 v 7.646 h 1.276 l -0.004,2.606 h -8.343 V 316.25 c 1.065,0 2.772,0.139 4.753,0.467 2.884,0.467 14.834,2.264 15.877,4.282 z"
   style="opacity:0.3;fill:#929496" />
		</g>
		<g
   id="g123">
			<path
   id="path125"
   inkscape:connector-curvature="0"
   d="m -238.96,372.156 -0.005,-2.605 h 1.276 v -7.646 c 0,0 -4.767,-6.105 -7.88,-13.671 -1.874,-4.564 -6.573,-20.046 -5.679,-21.79 1.038,-2.017 12.993,-3.814 15.877,-4.286 1.981,-0.323 3.688,-0.462 4.753,-0.462 1.064,0 2.772,0.135 4.757,0.462 2.884,0.472 14.835,2.269 15.873,4.286 0.898,1.743 -3.801,17.225 -5.679,21.79 -3.113,7.565 -7.88,13.671 -7.88,13.671 v 7.646 h 1.276 v 2.605 h -16.689 l 0,0 z"
   style="fill:#b88f5f" />
			<path
   id="path127"
   inkscape:connector-curvature="0"
   enable-background="new    "
   d="m -209.988,326.448 c 0.898,1.743 -3.801,17.225 -5.679,21.789 -3.113,7.565 -7.88,13.671 -7.88,13.671 v 7.646 h 1.276 v 2.605 h -8.343 v -50.457 c 1.065,0 2.772,0.135 4.758,0.463 2.876,0.469 14.826,2.261 15.868,4.283 l 0,0 z"
   style="opacity:0.3;fill:#929496" />
		</g>
		<g
   id="g129">
			<path
   id="path131"
   inkscape:connector-curvature="0"
   d="m -146.305,368.787 v -2.61 h 1.276 v -7.646 c 0,0 -4.767,-6.105 -7.88,-13.671 -1.874,-4.564 -6.573,-20.046 -5.679,-21.79 1.038,-2.017 12.993,-3.814 15.873,-4.286 1.981,-0.323 3.688,-0.462 4.757,-0.462 1.065,0 2.772,0.135 4.753,0.462 2.884,0.472 14.834,2.269 15.877,4.286 0.894,1.743 -3.801,17.225 -5.679,21.79 -3.113,7.565 -7.88,13.671 -7.88,13.671 v 7.646 h 1.276 l -0.004,2.61 h -16.69 l 0,0 z"
   style="fill:#b88f5f" />
			<path
   id="path133"
   inkscape:connector-curvature="0"
   enable-background="new    "
   d="m -117.332,323.074 c 0.894,1.743 -3.801,17.225 -5.679,21.789 -3.114,7.565 -7.88,13.671 -7.88,13.671 v 7.646 h 1.276 l -0.004,2.61 h -8.343 v -50.46 c 1.065,0 2.772,0.135 4.753,0.463 2.885,0.467 14.835,2.259 15.877,4.281 z"
   style="opacity:0.3;fill:#929496" />
		</g>
	</g>
	<path
   id="path135"
   inkscape:connector-curvature="0"
   d="m -387.819,-39.027 c 0,0 4.012,22.611 -0.732,38.291 -5.117,16.923 -16.775,34.288 -17.139,44.495 -0.31,8.689 2.539,13.667 3.396,14.964 -0.858,1.299 -3.707,6.272 -3.396,14.961 0.364,10.213 12.027,27.576 17.139,44.496 4.745,15.685 0.732,38.295 0.732,38.295 0,0 118.169,-12.769 158.653,-13.858 40.487,-1.099 137.137,7.296 137.137,7.296 0,0 16.775,-24.805 41.215,-34.283 24.436,-9.479 43.399,-8.752 43.399,-8.752 l 8.226,0.146 V 10.428 l -8.226,0.144 c 0,0 -18.963,0.728 -43.399,-8.751 -24.44,-9.484 -41.215,-34.288 -41.215,-34.288 0,0 -96.654,8.388 -137.137,7.296 -40.484,-1.093 -158.653,-13.856 -158.653,-13.856 z"
   style="fill:#1d1b1b" />
	<path
   id="path137"
   inkscape:connector-curvature="0"
   d="m -387.819,-39.027 c 0,0 4.012,22.611 -0.732,38.291 -5.117,16.923 -16.775,34.288 -17.139,44.495 -0.31,8.689 2.539,13.667 3.396,14.964 H 0.811 V 10.428 l -8.226,0.144 c 0,0 -18.963,0.728 -43.399,-8.751 -24.44,-9.484 -41.215,-34.288 -41.215,-34.288 0,0 -96.654,8.388 -137.137,7.296 -40.484,-1.093 -158.653,-13.856 -158.653,-13.856 z"
   style="fill:#141414" />
	<g
   id="g139"
   transform="translate(0,-397)">
		<polygon
   id="polygon141"
   points="312.576,401.929 312.576,509.521 315.556,509.576 315.556,401.879 "
   style="fill:#bbbcbf" />
		<polygon
   id="polygon143"
   points="656.873,395.854 653.891,395.909 653.891,515.543 656.873,515.598 "
   style="fill:#bbbcbf" />
		<polygon
   id="polygon145"
   points="607.621,396.726 604.643,396.775 604.643,514.676 607.621,514.725 "
   style="fill:#bbbcbf" />
		<polygon
   id="polygon147"
   points="702.833,516.405 702.833,395.046 699.85,395.095 699.85,516.355 "
   style="fill:#bbbcbf" />
		<polygon
   id="polygon149"
   points="555.65,397.638 552.672,397.692 552.672,513.759 555.65,513.809 "
   style="fill:#bbbcbf" />
		<polygon
   id="polygon151"
   points="893.061,391.69 893.061,519.762 896.038,519.814 896.038,391.636 "
   style="fill:#bbbcbf" />
		<polygon
   id="polygon153"
   points="498.091,398.658 498.091,512.797 501.074,512.848 501.074,398.604 "
   style="fill:#bbbcbf" />
		<polygon
   id="polygon155"
   points="957.246,390.558 957.246,520.893 960.225,520.947 960.225,390.504 "
   style="fill:#bbbcbf" />
		<polygon
   id="polygon157"
   points="169.733,404.449 169.733,507.002 172.712,507.057 172.712,404.395 "
   style="fill:#bbbcbf" />
		<polygon
   id="polygon159"
   points="380.985,510.73 380.985,400.725 378.007,400.778 378.007,510.678 "
   style="fill:#bbbcbf" />
		<polygon
   id="polygon161"
   points="440.423,511.777 443.406,511.832 443.406,399.624 440.423,399.673 "
   style="fill:#bbbcbf" />
		<polygon
   id="polygon163"
   points="928.835,391.061 925.852,391.11 925.852,520.341 928.835,520.395 "
   style="fill:#bbbcbf" />
		<polygon
   id="polygon165"
   points="746.241,517.174 746.241,394.278 743.258,394.332 743.258,517.119 "
   style="fill:#bbbcbf" />
		<polygon
   id="polygon167"
   points="862.263,392.229 859.284,392.283 859.284,519.168 862.263,519.218 "
   style="fill:#bbbcbf" />
		<polygon
   id="polygon169"
   points="786.665,393.563 783.688,393.617 783.688,517.834 786.665,517.883 "
   style="fill:#bbbcbf" />
		<polygon
   id="polygon171"
   points="825.4,392.885 822.418,392.934 822.418,518.518 825.4,518.57 "
   style="fill:#bbbcbf" />
		<polygon
   id="polygon173"
   points="988.271,390.01 985.289,390.063 985.289,521.393 988.271,521.441 "
   style="fill:#bbbcbf" />
		<polygon
   id="polygon175"
   points="91.791,405.828 91.791,505.627 94.77,505.682 94.77,405.774 "
   style="fill:#bbbcbf" />
		<polygon
   id="polygon177"
   points="242.779,403.164 242.779,508.291 245.758,508.341 245.758,403.11 "
   style="fill:#bbbcbf" />
		<polygon
   id="polygon179"
   points="1066.12,522.816 1066.12,388.635 1063.142,388.689 1063.142,522.762 "
   style="fill:#bbbcbf" />
		<polygon
   id="polygon181"
   points="1042.053,389.057 1039.07,389.111 1039.07,522.34 1042.053,522.389 "
   style="fill:#bbbcbf" />
		<polygon
   id="polygon183"
   points="1015.547,389.529 1012.563,389.578 1012.563,521.873 1015.547,521.922 "
   style="fill:#bbbcbf" />
	</g>
	<g
   id="g185"
   transform="translate(0,-397)">
		<polygon
   id="polygon187"
   points="656.249,395.868 653.271,395.922 653.271,515.533 656.249,515.588 "
   style="fill:#ededed" />
		<polygon
   id="polygon189"
   points="607.001,396.735 604.018,396.789 604.018,514.662 607.001,514.716 "
   style="fill:#ededed" />
		<polygon
   id="polygon191"
   points="439.804,511.77 442.782,511.818 442.782,399.633 439.804,399.682 "
   style="fill:#ededed" />
		<polygon
   id="polygon193"
   points="555.03,397.651 552.052,397.706 552.052,513.746 555.03,513.799 "
   style="fill:#ededed" />
		<polygon
   id="polygon195"
   points="702.209,516.396 702.209,395.055 699.229,395.109 699.229,516.342 "
   style="fill:#ededed" />
		<polygon
   id="polygon197"
   points="311.957,401.938 311.957,509.509 314.936,509.563 314.936,401.888 "
   style="fill:#ededed" />
		<polygon
   id="polygon199"
   points="892.436,391.699 892.436,519.752 895.418,519.807 895.418,391.645 "
   style="fill:#ededed" />
		<polygon
   id="polygon201"
   points="956.621,390.567 956.621,520.885 959.6,520.938 959.6,390.513 "
   style="fill:#ededed" />
		<polygon
   id="polygon203"
   points="380.366,510.717 380.366,400.733 377.387,400.788 377.387,510.668 "
   style="fill:#ededed" />
		<polygon
   id="polygon205"
   points="497.471,398.667 497.471,512.784 500.449,512.834 500.449,398.613 "
   style="fill:#ededed" />
		<polygon
   id="polygon207"
   points="169.114,404.462 169.114,506.993 172.092,507.043 172.092,404.409 "
   style="fill:#ededed" />
		<polygon
   id="polygon209"
   points="242.159,403.173 242.159,508.277 245.138,508.332 245.138,403.119 "
   style="fill:#ededed" />
		<polygon
   id="polygon211"
   points="861.643,392.243 858.664,392.296 858.664,519.154 861.643,519.209 "
   style="fill:#ededed" />
		<polygon
   id="polygon213"
   points="987.652,390.019 984.669,390.072 984.669,521.379 987.652,521.434 "
   style="fill:#ededed" />
		<polygon
   id="polygon215"
   points="928.21,391.065 925.23,391.119 925.23,520.332 928.21,520.386 "
   style="fill:#ededed" />
		<polygon
   id="polygon217"
   points="824.781,392.894 821.803,392.943 821.803,518.508 824.781,518.557 "
   style="fill:#ededed" />
		<polygon
   id="polygon219"
   points="786.05,393.577 783.063,393.631 783.063,517.824 786.05,517.874 "
   style="fill:#ededed" />
		<polygon
   id="polygon221"
   points="745.616,517.16 745.616,394.287 742.638,394.34 742.638,517.109 "
   style="fill:#ededed" />
		<polygon
   id="polygon223"
   points="1065.505,522.807 1065.505,388.644 1062.526,388.698 1062.526,522.754 "
   style="fill:#ededed" />
		<polygon
   id="polygon225"
   points="1014.927,389.542 1011.948,389.592 1011.948,521.859 1014.927,521.913 "
   style="fill:#ededed" />
		<polygon
   id="polygon227"
   points="91.171,405.837 91.171,505.618 94.149,505.668 94.149,405.783 "
   style="fill:#ededed" />
		<polygon
   id="polygon229"
   points="1041.429,389.071 1038.45,389.125 1038.45,522.326 1041.429,522.381 "
   style="fill:#ededed" />
	</g>
	<g
   id="g231"
   transform="translate(0,-397)">
		<path
   id="path233"
   inkscape:connector-curvature="0"
   d="m 1417.901,352.9 c 5.706,0 10.374,4.668 10.374,10.374 v 188.087 c 0,5.707 -4.668,10.375 -10.374,10.375 h -80.777 c -5.705,0 -10.369,-4.668 -10.369,-10.375 V 363.274 c 0,-5.706 4.664,-10.374 10.369,-10.374 h 80.777 z"
   style="fill:#272525" />
		
			<circle
   id="circle235"
   sodipodi:cx="1377.5129"
   sodipodi:cy="548.70697"
   sodipodi:rx="5.7020001"
   sodipodi:ry="5.7020001"
   cx="1377.5129"
   cy="548.70697"
   r="5.7020001"
   d="m 1383.2149,548.70697 c 0,3.14913 -2.5528,5.702 -5.702,5.702 -3.1491,0 -5.702,-2.55287 -5.702,-5.702 0,-3.14913 2.5529,-5.702 5.702,-5.702 3.1492,0 5.702,2.55287 5.702,5.702 z"
   style="fill:#f7d68f">
		</circle>
		
			<circle
   id="circle237"
   sodipodi:cx="1377.5129"
   sodipodi:cy="365.92499"
   sodipodi:rx="5.7020001"
   sodipodi:ry="5.7020001"
   cx="1377.5129"
   cy="365.92499"
   r="5.7020001"
   d="m 1383.2149,365.92499 c 0,3.14913 -2.5528,5.702 -5.702,5.702 -3.1491,0 -5.702,-2.55287 -5.702,-5.702 0,-3.14913 2.5529,-5.702 5.702,-5.702 3.1492,0 5.702,2.55287 5.702,5.702 z"
   style="fill:#f7d68f">
		</circle>
		
			<circle
   id="circle239"
   sodipodi:cx="1335.6689"
   sodipodi:cy="551.15997"
   sodipodi:rx="5.7010002"
   sodipodi:ry="5.7010002"
   cx="1335.6689"
   cy="551.15997"
   r="5.7010002"
   d="m 1341.3699,551.15997 c 0,3.14858 -2.5524,5.701 -5.701,5.701 -3.1485,0 -5.701,-2.55242 -5.701,-5.701 0,-3.14857 2.5525,-5.701 5.701,-5.701 3.1486,0 5.701,2.55243 5.701,5.701 z"
   style="fill:#434244">
		</circle>
		
			<circle
   id="circle241"
   sodipodi:cx="1419.3571"
   sodipodi:cy="551.15997"
   sodipodi:rx="5.7010002"
   sodipodi:ry="5.7010002"
   cx="1419.3571"
   cy="551.15997"
   r="5.7010002"
   d="m 1425.0581,551.15997 c 0,3.14858 -2.5525,5.701 -5.701,5.701 -3.1486,0 -5.701,-2.55242 -5.701,-5.701 0,-3.14857 2.5524,-5.701 5.701,-5.701 3.1485,0 5.701,2.55243 5.701,5.701 z"
   style="fill:#434244">
		</circle>
		
			<circle
   id="circle243"
   sodipodi:cx="1335.6689"
   sodipodi:cy="363.47198"
   sodipodi:rx="5.7010002"
   sodipodi:ry="5.7010002"
   cx="1335.6689"
   cy="363.47198"
   r="5.7010002"
   d="m 1341.3699,363.47198 c 0,3.14858 -2.5524,5.70101 -5.701,5.70101 -3.1485,0 -5.701,-2.55243 -5.701,-5.70101 0,-3.14857 2.5525,-5.701 5.701,-5.701 3.1486,0 5.701,2.55243 5.701,5.701 z"
   style="fill:#434244">
		</circle>
		
			<circle
   id="circle245"
   sodipodi:cx="1419.3571"
   sodipodi:cy="363.47198"
   sodipodi:rx="5.7010002"
   sodipodi:ry="5.7010002"
   cx="1419.3571"
   cy="363.47198"
   r="5.7010002"
   d="m 1425.0581,363.47198 c 0,3.14858 -2.5525,5.70101 -5.701,5.70101 -3.1486,0 -5.701,-2.55243 -5.701,-5.70101 0,-3.14857 2.5524,-5.701 5.701,-5.701 3.1485,0 5.701,2.55243 5.701,5.701 z"
   style="fill:#434244">
		</circle>
		<path
   id="path247"
   inkscape:connector-curvature="0"
   d="m 1413.459,376.792 c 4.533,0 8.243,3.71 8.243,8.244 V 529.52 c 0,4.533 -3.71,8.239 -8.243,8.239 h -71.141 c -4.533,0 -8.244,-3.706 -8.244,-8.239 V 385.036 c 0,-4.533 3.711,-8.244 8.244,-8.244 h 71.141 l 0,0 z"
   style="fill:#434244" />
		<path
   id="path249"
   inkscape:connector-curvature="0"
   d="m 1412.713,376.873 c 4.533,0 8.239,3.707 8.239,8.244 V 529.6 c 0,4.533 -3.706,8.24 -8.239,8.24 h -71.146 c -4.533,0 -8.239,-3.707 -8.239,-8.24 V 385.117 c 0,-4.538 3.706,-8.244 8.239,-8.244 h 71.146 l 0,0 z"
   style="fill:#9c7d5d" />
		<path
   id="path251"
   inkscape:connector-curvature="0"
   enable-background="new    "
   d="m 1333.328,385.036 v 3.747 c 0,-4.538 3.707,-8.244 8.239,-8.244 h 71.146 c 4.533,0 8.239,3.707 8.239,8.244 v -3.747 c 0,-4.533 -3.706,-8.244 -8.239,-8.244 h -71.146 c -4.532,0 -8.239,3.711 -8.239,8.244 z"
   style="opacity:0.5;fill:#ffffff" />
		<path
   id="path253"
   inkscape:connector-curvature="0"
   enable-background="new    "
   d="M 1337.879,533.873 V 381.424 c -2.688,1.361 -4.551,4.151 -4.551,7.359 v 137.738 c 0,3.206 1.86,5.991 4.551,7.352 z"
   style="opacity:0.3;fill:#272525" />
		<path
   id="path255"
   inkscape:connector-curvature="0"
   enable-background="new    "
   d="m 1412.713,534.758 h -71.146 c -4.533,0 -8.239,-3.707 -8.239,-8.24 v 2.998 c 0,4.532 3.706,8.238 8.239,8.238 h 71.146 c 4.533,0 8.239,-3.706 8.239,-8.238 v -2.998 c 0,4.533 -3.706,8.24 -8.239,8.24 z"
   style="opacity:0.2;fill:#ffffff" />
		<g
   id="g257">
			
				<circle
   id="circle259"
   sodipodi:cx="1356.915"
   sodipodi:cy="514.41998"
   sodipodi:rx="7.1290002"
   sodipodi:ry="7.1290002"
   cx="1356.915"
   cy="514.41998"
   r="7.1290002"
   d="m 1364.044,514.41998 c 0,3.93724 -3.1917,7.129 -7.129,7.129 -3.9372,0 -7.129,-3.19176 -7.129,-7.129 0,-3.93724 3.1918,-7.129 7.129,-7.129 3.9373,0 7.129,3.19176 7.129,7.129 z"
   style="fill:#f4cfa6">
			</circle>
			
				<circle
   id="circle261"
   sodipodi:cx="1356.915"
   sodipodi:cy="491.59201"
   sodipodi:rx="7.1290002"
   sodipodi:ry="7.1290002"
   cx="1356.915"
   cy="491.59201"
   r="7.1290002"
   d="m 1364.044,491.59201 c 0,3.93724 -3.1917,7.129 -7.129,7.129 -3.9372,0 -7.129,-3.19176 -7.129,-7.129 0,-3.93724 3.1918,-7.129 7.129,-7.129 3.9373,0 7.129,3.19176 7.129,7.129 z"
   style="fill:#f4cfa6">
			</circle>
			
				<circle
   id="circle263"
   sodipodi:cx="1356.915"
   sodipodi:cy="468.76999"
   sodipodi:rx="7.1290002"
   sodipodi:ry="7.1290002"
   cx="1356.915"
   cy="468.76999"
   r="7.1290002"
   d="m 1364.044,468.76999 c 0,3.93724 -3.1917,7.129 -7.129,7.129 -3.9372,0 -7.129,-3.19176 -7.129,-7.129 0,-3.93724 3.1918,-7.129 7.129,-7.129 3.9373,0 7.129,3.19176 7.129,7.129 z"
   style="fill:#f4cfa6">
			</circle>
			
				<circle
   id="circle265"
   sodipodi:cx="1356.915"
   sodipodi:cy="445.94699"
   sodipodi:rx="7.1290002"
   sodipodi:ry="7.1290002"
   cx="1356.915"
   cy="445.94699"
   r="7.1290002"
   d="m 1364.044,445.94699 c 0,3.93724 -3.1917,7.129 -7.129,7.129 -3.9372,0 -7.129,-3.19176 -7.129,-7.129 0,-3.93724 3.1918,-7.129 7.129,-7.129 3.9373,0 7.129,3.19176 7.129,7.129 z"
   style="fill:#f4cfa6">
			</circle>
			
				<circle
   id="circle267"
   sodipodi:cx="1356.915"
   sodipodi:cy="423.125"
   sodipodi:rx="7.1290002"
   sodipodi:ry="7.1290002"
   cx="1356.915"
   cy="423.125"
   r="7.1290002"
   d="m 1364.044,423.125 c 0,3.93724 -3.1917,7.129 -7.129,7.129 -3.9372,0 -7.129,-3.19176 -7.129,-7.129 0,-3.93724 3.1918,-7.129 7.129,-7.129 3.9373,0 7.129,3.19176 7.129,7.129 z"
   style="fill:#f4cfa6">
			</circle>
			
				<circle
   id="circle269"
   sodipodi:cx="1356.915"
   sodipodi:cy="400.298"
   sodipodi:rx="7.1290002"
   sodipodi:ry="7.1290002"
   cx="1356.915"
   cy="400.298"
   r="7.1290002"
   d="m 1364.044,400.298 c 0,3.93724 -3.1917,7.129 -7.129,7.129 -3.9372,0 -7.129,-3.19176 -7.129,-7.129 0,-3.93723 3.1918,-7.129 7.129,-7.129 3.9373,0 7.129,3.19177 7.129,7.129 z"
   style="fill:#f4cfa6">
			</circle>
		</g>
		<path
   id="path271"
   inkscape:connector-curvature="0"
   enable-background="new    "
   d="m 1377.141,537.84 h 35.572 c 4.533,0 8.239,-3.707 8.239,-8.24 V 385.117 c 0,-4.538 -3.706,-8.244 -8.239,-8.244 h -35.572 V 537.84 z"
   style="opacity:0.1;fill:#272525" />
	</g>
	<g
   id="g273"
   transform="translate(0,-397)">
		
			<circle
   id="circle275"
   sodipodi:cx="1035.939"
   sodipodi:cy="631.90601"
   sodipodi:rx="37.737999"
   sodipodi:ry="37.737999"
   cx="1035.939"
   cy="631.90601"
   r="37.737999"
   d="m 1073.677,631.90601 c 0,20.84212 -16.8959,37.73799 -37.738,37.73799 -20.8422,0 -37.73803,-16.89587 -37.73803,-37.73799 0,-20.84213 16.89583,-37.738 37.73803,-37.738 20.8421,0 37.738,16.89587 37.738,37.738 z"
   style="fill:#272525">
		</circle>
		
			<circle
   id="circle277"
   sodipodi:cx="1035.939"
   sodipodi:cy="631.90601"
   sodipodi:rx="18.402"
   sodipodi:ry="18.402"
   cx="1035.939"
   cy="631.90601"
   r="18.402"
   d="m 1054.341,631.90601 c 0,10.16314 -8.2389,18.402 -18.402,18.402 -10.1632,0 -18.402,-8.23886 -18.402,-18.402 0,-10.16315 8.2388,-18.402 18.402,-18.402 10.1631,0 18.402,8.23885 18.402,18.402 z"
   style="fill:#edc897">
		</circle>
		
			<circle
   id="circle279"
   sodipodi:cx="1035.939"
   sodipodi:cy="631.90601"
   sodipodi:rx="16.232"
   sodipodi:ry="16.232"
   cx="1035.939"
   cy="631.90601"
   r="16.232"
   d="m 1052.171,631.90601 c 0,8.96468 -7.2673,16.232 -16.232,16.232 -8.9647,0 -16.232,-7.26732 -16.232,-16.232 0,-8.96469 7.2673,-16.232 16.232,-16.232 8.9647,0 16.232,7.26731 16.232,16.232 z"
   style="fill:#c8a781">
		</circle>
		
			<circle
   id="circle281"
   sodipodi:cx="1035.938"
   sodipodi:cy="631.90601"
   sodipodi:rx="12.615"
   sodipodi:ry="12.615"
   cx="1035.938"
   cy="631.90601"
   r="12.615"
   d="m 1048.553,631.90601 c 0,6.96707 -5.6479,12.615 -12.615,12.615 -6.9671,0 -12.615,-5.64793 -12.615,-12.615 0,-6.96708 5.6479,-12.615 12.615,-12.615 6.9671,0 12.615,5.64792 12.615,12.615 z"
   style="fill:#edc897">
		</circle>
		
			<circle
   id="circle283"
   sodipodi:cx="1035.939"
   sodipodi:cy="631.90601"
   sodipodi:rx="8.8909998"
   sodipodi:ry="8.8909998"
   cx="1035.939"
   cy="631.90601"
   r="8.8909998"
   d="m 1044.83,631.90601 c 0,4.91036 -3.9807,8.891 -8.891,8.891 -4.9104,0 -8.891,-3.98064 -8.891,-8.891 0,-4.91037 3.9806,-8.891 8.891,-8.891 4.9103,0 8.891,3.98063 8.891,8.891 z"
   style="fill:#272525">
		</circle>
		<path
   id="path285"
   inkscape:connector-curvature="0"
   d="m 1036.51,627.902 c -1.636,0.675 -2.422,2.768 -2.422,4.246 0,1.478 0.786,3.565 2.422,4.246 1.963,0.813 15.342,3.387 15.342,3.387 v -7.493 -0.278 -7.49 c 0,-0.004 -13.384,2.57 -15.342,3.382 l 0,0 z"
   style="fill:#edc897" />
		
			<circle
   id="circle287"
   sodipodi:cx="1053.9"
   sodipodi:cy="632.01001"
   sodipodi:rx="8.0369997"
   sodipodi:ry="8.0369997"
   cx="1053.9"
   cy="632.01001"
   r="8.0369997"
   d="m 1061.937,632.01001 c 0,4.43871 -3.5983,8.037 -8.037,8.037 -4.4387,0 -8.037,-3.59829 -8.037,-8.037 0,-4.43871 3.5983,-8.037 8.037,-8.037 4.4387,0 8.037,3.59829 8.037,8.037 z"
   style="fill:#b98f58">
		</circle>
	</g>
	<g
   id="g289"
   transform="translate(0,-397)">
		
			<circle
   id="circle291"
   sodipodi:cx="1573.369"
   sodipodi:cy="274.68799"
   sodipodi:rx="27.378"
   sodipodi:ry="27.378"
   enable-background="new    "
   cx="1573.369"
   cy="274.68799"
   r="27.378"
   d="m 1600.747,274.68799 c 0,15.12045 -12.2575,27.378 -27.378,27.378 -15.1204,0 -27.378,-12.25755 -27.378,-27.378 0,-15.12045 12.2576,-27.378 27.378,-27.378 15.1205,0 27.378,12.25755 27.378,27.378 z"
   style="opacity:0.6;fill:#272525">
		</circle>
		
			<circle
   id="circle293"
   sodipodi:cx="1571.101"
   sodipodi:cy="274.68799"
   sodipodi:rx="27.378"
   sodipodi:ry="27.378"
   cx="1571.101"
   cy="274.68799"
   r="27.378"
   d="m 1598.479,274.68799 c 0,15.12045 -12.2576,27.378 -27.378,27.378 -15.1205,0 -27.378,-12.25755 -27.378,-27.378 0,-15.12045 12.2575,-27.378 27.378,-27.378 15.1204,0 27.378,12.25755 27.378,27.378 z"
   style="fill:#434244">
		</circle>
		
			<circle
   id="circle295"
   sodipodi:cx="1569.963"
   sodipodi:cy="274.68799"
   sodipodi:rx="20.122999"
   sodipodi:ry="20.122999"
   cx="1569.963"
   cy="274.68799"
   r="20.122999"
   d="m 1590.086,274.68799 c 0,11.11362 -9.0094,20.123 -20.123,20.123 -11.1136,0 -20.123,-9.00938 -20.123,-20.123 0,-11.11363 9.0094,-20.123 20.123,-20.123 11.1136,0 20.123,9.00937 20.123,20.123 z"
   style="fill:#272525">
		</circle>
		
			<circle
   id="circle297"
   sodipodi:cx="1568.832"
   sodipodi:cy="274.68799"
   sodipodi:rx="15.702"
   sodipodi:ry="15.702"
   cx="1568.832"
   cy="274.68799"
   r="15.702"
   d="m 1584.534,274.68799 c 0,8.67197 -7.03,15.702 -15.702,15.702 -8.6719,0 -15.702,-7.03003 -15.702,-15.702 0,-8.67198 7.0301,-15.702 15.702,-15.702 8.672,0 15.702,7.03002 15.702,15.702 z"
   style="fill:#343333">
		</circle>
		<path
   id="path299"
   inkscape:connector-curvature="0"
   enable-background="new    "
   d="m 1569.964,302.04 c 0.377,0.018 0.755,0.027 1.137,0.027 15.117,0 27.378,-12.256 27.378,-27.378 0,-15.122 -12.261,-27.378 -27.378,-27.378 -0.382,0 -0.76,0.013 -1.137,0.027 v 54.702 l 0,0 z"
   style="opacity:0.2;fill:#272525" />
	</g>
	<g
   id="g301"
   transform="translate(0,-397)">
		
			<circle
   id="circle303"
   sodipodi:cx="1511.276"
   sodipodi:cy="169.763"
   sodipodi:rx="27.378"
   sodipodi:ry="27.378"
   enable-background="new    "
   cx="1511.276"
   cy="169.763"
   r="27.378"
   d="m 1538.654,169.763 c 0,15.12045 -12.2575,27.378 -27.378,27.378 -15.1205,0 -27.378,-12.25755 -27.378,-27.378 0,-15.12045 12.2575,-27.378 27.378,-27.378 15.1205,0 27.378,12.25755 27.378,27.378 z"
   style="opacity:0.6;fill:#272525">
		</circle>
		
			<circle
   id="circle305"
   sodipodi:cx="1509.0081"
   sodipodi:cy="169.763"
   sodipodi:rx="27.378"
   sodipodi:ry="27.378"
   cx="1509.0081"
   cy="169.763"
   r="27.378"
   d="m 1536.3861,169.763 c 0,15.12045 -12.2576,27.378 -27.378,27.378 -15.1205,0 -27.378,-12.25755 -27.378,-27.378 0,-15.12045 12.2575,-27.378 27.378,-27.378 15.1204,0 27.378,12.25755 27.378,27.378 z"
   style="fill:#434244">
		</circle>
		
			<circle
   id="circle307"
   sodipodi:cx="1507.871"
   sodipodi:cy="169.763"
   sodipodi:rx="20.122"
   sodipodi:ry="20.122"
   cx="1507.871"
   cy="169.763"
   r="20.122"
   d="m 1527.993,169.763 c 0,11.11307 -9.009,20.122 -20.122,20.122 -11.1131,0 -20.122,-9.00893 -20.122,-20.122 0,-11.11307 9.0089,-20.122 20.122,-20.122 11.113,0 20.122,9.00893 20.122,20.122 z"
   style="fill:#272525">
		</circle>
		
			<circle
   id="circle309"
   sodipodi:cx="1506.744"
   sodipodi:cy="169.763"
   sodipodi:rx="15.702"
   sodipodi:ry="15.702"
   cx="1506.744"
   cy="169.763"
   r="15.702"
   d="m 1522.446,169.763 c 0,8.67198 -7.03,15.702 -15.702,15.702 -8.672,0 -15.702,-7.03002 -15.702,-15.702 0,-8.67197 7.03,-15.702 15.702,-15.702 8.672,0 15.702,7.03003 15.702,15.702 z"
   style="fill:#343333">
		</circle>
		<path
   id="path311"
   inkscape:connector-curvature="0"
   enable-background="new    "
   d="m 1507.871,197.114 c 0.377,0.018 0.755,0.031 1.137,0.031 15.122,0 27.378,-12.26 27.378,-27.382 0,-15.122 -12.256,-27.378 -27.378,-27.378 -0.382,0 -0.76,0.013 -1.137,0.027 v 54.702 z"
   style="opacity:0.2;fill:#272525" />
	</g>
	<g
   id="g313"
   transform="translate(0,-397)">
		
			<circle
   id="circle315"
   sodipodi:cx="1703.0439"
   sodipodi:cy="278.49799"
   sodipodi:rx="27.378"
   sodipodi:ry="27.378"
   enable-background="new    "
   cx="1703.0439"
   cy="278.49799"
   r="27.378"
   d="m 1730.4219,278.49799 c 0,15.12045 -12.2575,27.378 -27.378,27.378 -15.1204,0 -27.378,-12.25755 -27.378,-27.378 0,-15.12046 12.2576,-27.378 27.378,-27.378 15.1205,0 27.378,12.25754 27.378,27.378 z"
   style="opacity:0.6;fill:#272525">
		</circle>
		
			<circle
   id="circle317"
   sodipodi:cx="1700.775"
   sodipodi:cy="278.49799"
   sodipodi:rx="27.378"
   sodipodi:ry="27.378"
   cx="1700.775"
   cy="278.49799"
   r="27.378"
   d="m 1728.153,278.49799 c 0,15.12045 -12.2575,27.378 -27.378,27.378 -15.1204,0 -27.378,-12.25755 -27.378,-27.378 0,-15.12046 12.2576,-27.378 27.378,-27.378 15.1205,0 27.378,12.25754 27.378,27.378 z"
   style="fill:#434244">
		</circle>
		
			<circle
   id="circle319"
   sodipodi:cx="1699.6429"
   sodipodi:cy="278.49799"
   sodipodi:rx="20.122999"
   sodipodi:ry="20.122999"
   cx="1699.6429"
   cy="278.49799"
   r="20.122999"
   d="m 1719.7659,278.49799 c 0,11.11362 -9.0093,20.123 -20.123,20.123 -11.1136,0 -20.123,-9.00938 -20.123,-20.123 0,-11.11363 9.0094,-20.123 20.123,-20.123 11.1137,0 20.123,9.00937 20.123,20.123 z"
   style="fill:#272525">
		</circle>
		
			<circle
   id="circle321"
   sodipodi:cx="1698.507"
   sodipodi:cy="278.49799"
   sodipodi:rx="15.702"
   sodipodi:ry="15.702"
   cx="1698.507"
   cy="278.49799"
   r="15.702"
   d="m 1714.209,278.49799 c 0,8.67197 -7.0301,15.702 -15.702,15.702 -8.672,0 -15.702,-7.03003 -15.702,-15.702 0,-8.67198 7.03,-15.702 15.702,-15.702 8.6719,0 15.702,7.03002 15.702,15.702 z"
   style="fill:#343333">
		</circle>
		<path
   id="path323"
   inkscape:connector-curvature="0"
   enable-background="new    "
   d="m 1699.645,305.849 c 0.373,0.018 0.75,0.032 1.133,0.032 15.121,0 27.378,-12.261 27.378,-27.378 0,-15.122 -12.256,-27.382 -27.378,-27.382 -0.383,0 -0.761,0.013 -1.133,0.031 v 54.697 l 0,0 z"
   style="opacity:0.2;fill:#272525" />
	</g>
	<g
   id="g325"
   transform="translate(0,-397)">
		
			<circle
   id="circle327"
   sodipodi:cx="1642.25"
   sodipodi:cy="180.532"
   sodipodi:rx="27.378"
   sodipodi:ry="27.378"
   enable-background="new    "
   cx="1642.25"
   cy="180.532"
   r="27.378"
   d="m 1669.628,180.532 c 0,15.12045 -12.2575,27.378 -27.378,27.378 -15.1205,0 -27.378,-12.25755 -27.378,-27.378 0,-15.12045 12.2575,-27.378 27.378,-27.378 15.1205,0 27.378,12.25755 27.378,27.378 z"
   style="opacity:0.6;fill:#272525">
		</circle>
		
			<circle
   id="circle329"
   sodipodi:cx="1639.98"
   sodipodi:cy="180.532"
   sodipodi:rx="27.378"
   sodipodi:ry="27.378"
   cx="1639.98"
   cy="180.532"
   r="27.378"
   d="m 1667.358,180.532 c 0,15.12045 -12.2576,27.378 -27.378,27.378 -15.1205,0 -27.378,-12.25755 -27.378,-27.378 0,-15.12045 12.2575,-27.378 27.378,-27.378 15.1204,0 27.378,12.25755 27.378,27.378 z"
   style="fill:#434244">
		</circle>
		
			<circle
   id="circle331"
   sodipodi:cx="1638.845"
   sodipodi:cy="180.52699"
   sodipodi:rx="20.122"
   sodipodi:ry="20.122"
   cx="1638.845"
   cy="180.52699"
   r="20.122"
   d="m 1658.967,180.52699 c 0,11.11308 -9.009,20.122 -20.122,20.122 -11.1131,0 -20.122,-9.00892 -20.122,-20.122 0,-11.11307 9.0089,-20.122 20.122,-20.122 11.113,0 20.122,9.00893 20.122,20.122 z"
   style="fill:#272525">
		</circle>
		
			<circle
   id="circle333"
   sodipodi:cx="1637.712"
   sodipodi:cy="180.532"
   sodipodi:rx="15.702"
   sodipodi:ry="15.702"
   cx="1637.712"
   cy="180.532"
   r="15.702"
   d="m 1653.414,180.532 c 0,8.67197 -7.03,15.702 -15.702,15.702 -8.6719,0 -15.702,-7.03003 -15.702,-15.702 0,-8.67198 7.0301,-15.702 15.702,-15.702 8.672,0 15.702,7.03002 15.702,15.702 z"
   style="fill:#343333">
		</circle>
		<path
   id="path335"
   inkscape:connector-curvature="0"
   enable-background="new    "
   d="m 1638.845,207.878 c 0.378,0.018 0.755,0.032 1.138,0.032 15.121,0 27.379,-12.261 27.379,-27.378 0,-15.123 -12.258,-27.383 -27.379,-27.383 -0.383,0 -0.761,0.014 -1.138,0.031 v 54.698 l 0,0 z"
   style="opacity:0.2;fill:#272525" />
	</g>
	<g
   id="g337"
   transform="translate(0,-397)">
		<path
   id="path339"
   inkscape:connector-curvature="0"
   d="m 1456.058,511.032 c 1.204,-0.05 2.216,0.741 2.255,1.752 l 0.268,6.434 c 0.045,1.015 -0.907,1.878 -2.107,1.927 l -2.462,0.102 c -1.204,0.049 -2.215,-0.742 -2.255,-1.752 l -0.266,-6.436 c -0.04,-1.016 0.906,-1.883 2.105,-1.932 l 2.462,-0.095 0,0 z"
   style="fill:#ecd3af" />
		<path
   id="path341"
   inkscape:connector-curvature="0"
   d="m 1455.101,487.495 c 1.204,-0.05 2.216,0.741 2.257,1.752 l 0.266,6.435 c 0.04,1.014 -0.903,1.877 -2.107,1.926 l -2.462,0.102 c -1.199,0.049 -2.215,-0.741 -2.255,-1.752 l -0.266,-6.436 c -0.04,-1.012 0.906,-1.877 2.105,-1.932 l 2.462,-0.095 0,0 z"
   style="fill:#ecd3af" />
		<path
   id="path343"
   inkscape:connector-curvature="0"
   d="m 1454.145,463.958 c 1.203,-0.05 2.216,0.741 2.261,1.753 l 0.261,6.434 c 0.045,1.01 -0.902,1.877 -2.105,1.929 l -2.463,0.099 c -1.198,0.051 -2.211,-0.74 -2.256,-1.752 l -0.261,-6.436 c -0.045,-1.016 0.903,-1.877 2.107,-1.932 l 2.456,-0.095 0,0 z"
   style="fill:#ecd3af" />
		<path
   id="path345"
   inkscape:connector-curvature="0"
   d="m 1453.196,440.431 c 1.198,-0.05 2.21,0.736 2.255,1.752 l 0.261,6.434 c 0.045,1.015 -0.903,1.882 -2.105,1.932 l -2.464,0.099 c -1.197,0.05 -2.209,-0.741 -2.25,-1.752 l -0.266,-6.434 c -0.045,-1.02 0.903,-1.882 2.107,-1.932 l 2.462,-0.099 0,0 z"
   style="fill:#ecd3af" />
		<path
   id="path347"
   inkscape:connector-curvature="0"
   d="m 1452.239,416.894 c 1.198,-0.049 2.215,0.741 2.255,1.752 l 0.261,6.434 c 0.045,1.016 -0.903,1.882 -2.104,1.932 l -2.458,0.099 c -1.204,0.049 -2.216,-0.737 -2.257,-1.752 l -0.266,-6.438 c -0.04,-1.011 0.903,-1.878 2.107,-1.927 l 2.462,-0.1 0,0 z"
   style="fill:#ecd3af" />
		<path
   id="path349"
   inkscape:connector-curvature="0"
   d="m 1451.282,393.356 c 1.198,-0.049 2.215,0.737 2.255,1.752 l 0.266,6.434 c 0.04,1.015 -0.908,1.882 -2.105,1.932 l -2.462,0.099 c -1.204,0.049 -2.216,-0.742 -2.257,-1.757 l -0.266,-6.434 c -0.04,-1.011 0.903,-1.882 2.107,-1.932 l 2.462,-0.094 0,0 z"
   style="fill:#ecd3af" />
		<path
   id="path351"
   inkscape:connector-curvature="0"
   enable-background="new    "
   d="m 1447.48,370.947 c 0.127,3.167 1.077,6.105 2.629,8.63 l 6.313,155.463 c -1.33,2.633 -2.031,5.625 -1.905,8.783 0.399,9.864 8.727,17.543 18.597,17.139 9.859,-0.399 17.537,-8.726 17.14,-18.595 -0.147,-3.585 -1.343,-6.878 -3.275,-9.602 l -6.229,-153.469 c 1.693,-2.866 2.609,-6.236 2.467,-9.812 -0.404,-9.866 -8.725,-17.539 -18.595,-17.139 -9.867,0.412 -17.545,8.737 -17.142,18.602 l 0,0 z"
   style="opacity:0.5;fill:#272525" />
		
			<circle
   id="circle353"
   sodipodi:cx="1470.8879"
   sodipodi:cy="543.15802"
   sodipodi:rx="17.881001"
   sodipodi:ry="17.881001"
   cx="1470.8879"
   cy="543.15802"
   r="17.881001"
   d="m 1488.7689,543.15802 c 0,9.8754 -8.0056,17.881 -17.881,17.881 -9.8754,0 -17.881,-8.0056 -17.881,-17.881 0,-9.8754 8.0056,-17.881 17.881,-17.881 9.8754,0 17.881,8.0056 17.881,17.881 z"
   style="fill:#c8a781">
		</circle>
		
			<circle
   id="circle355"
   sodipodi:cx="1463.854"
   sodipodi:cy="370.28299"
   sodipodi:rx="17.881001"
   sodipodi:ry="17.881001"
   cx="1463.854"
   cy="370.28299"
   r="17.881001"
   d="m 1481.735,370.28299 c 0,9.8754 -8.0056,17.881 -17.881,17.881 -9.8754,0 -17.881,-8.0056 -17.881,-17.881 0,-9.8754 8.0056,-17.881 17.881,-17.881 9.8754,0 17.881,8.0056 17.881,17.881 z"
   style="fill:#c8a781">
		</circle>
		<path
   id="path357"
   inkscape:connector-curvature="0"
   d="m 1463.552,356.063 c 8.102,-0.333 14.996,6.029 15.324,14.129 l 6.981,171.798 c 0.321,8.101 -6.033,14.996 -14.136,15.328 l -1.142,0.045 c -8.102,0.328 -14.996,-6.027 -15.324,-14.133 l -6.977,-171.793 c -0.328,-8.104 6.027,-15.001 14.134,-15.329 l 1.14,-0.045 0,0 z"
   style="fill:#edc897" />
		
			<circle
   id="circle359"
   sodipodi:cx="1470.892"
   sodipodi:cy="543.15802"
   sodipodi:rx="7.0890002"
   sodipodi:ry="7.0890002"
   cx="1470.892"
   cy="543.15802"
   r="7.0890002"
   d="m 1477.981,543.15802 c 0,3.91515 -3.1739,7.089 -7.089,7.089 -3.9152,0 -7.089,-3.17385 -7.089,-7.089 0,-3.91515 3.1738,-7.089 7.089,-7.089 3.9151,0 7.089,3.17385 7.089,7.089 z"
   style="fill:#ecd3af">
		</circle>
		
			<circle
   id="circle361"
   sodipodi:cx="1463.8521"
   sodipodi:cy="370.28299"
   sodipodi:rx="7.0890002"
   sodipodi:ry="7.0890002"
   cx="1463.8521"
   cy="370.28299"
   r="7.0890002"
   d="m 1470.9411,370.28299 c 0,3.91515 -3.1739,7.089 -7.089,7.089 -3.9152,0 -7.089,-3.17385 -7.089,-7.089 0,-3.91515 3.1738,-7.089 7.089,-7.089 3.9151,0 7.089,3.17385 7.089,7.089 z"
   style="fill:#ecd3af">
		</circle>
		
			<rect
   id="rect363"
   x="1458.196"
   y="503.11401"
   transform="matrix(0.0406,0.9992,-0.9992,0.0406,1924.157,-972.8564)"
   width="20.966999"
   height="24.872999"
   style="fill:#9c7d5d" />
		
			<rect
   id="rect365"
   x="1463.194"
   y="503.05899"
   transform="matrix(0.0409,0.9992,-0.9992,0.0409,1923.6904,-972.9856)"
   width="10.897"
   height="24.874001"
   style="fill:#352618" />
		
			<rect
   id="rect367"
   x="1465.5811"
   y="513.13098"
   transform="matrix(0.0406,0.9992,-0.9992,0.0406,1929.0959,-978.3339)"
   width="16.851999"
   height="4.5240002"
   style="fill:#e5bf91" />
		
			<rect
   id="rect369"
   x="1459.735"
   y="513.23297"
   transform="matrix(0.0406,0.9992,-0.9992,0.0406,1925.5681,-974.4478)"
   width="20.965"
   height="4.5240002"
   style="fill:#e2c1a4" />
		
			<rect
   id="rect371"
   x="1457.234"
   y="479.57401"
   transform="matrix(0.0406,0.9992,-0.9992,0.0406,1899.7172,-994.4785)"
   width="20.968"
   height="24.874001"
   style="fill:#9c7d5d" />
		
			<rect
   id="rect373"
   x="1462.25"
   y="479.535"
   transform="matrix(0.0407,0.9992,-0.9992,0.0407,1899.5461,-994.5287)"
   width="10.897"
   height="24.872999"
   style="fill:#352618" />
		
			<rect
   id="rect375"
   x="1464.447"
   y="489.54501"
   transform="matrix(0.0406,0.9992,-0.9992,0.0406,1904.4492,-999.8281)"
   width="16.854"
   height="4.5240002"
   style="fill:#e5bf91" />
		
			<rect
   id="rect377"
   x="1458.707"
   y="489.66501"
   transform="matrix(0.0406,0.9992,-0.9992,0.0406,1901.0457,-996.03)"
   width="20.968"
   height="4.5240002"
   style="fill:#e2c1a4" />
		
			<rect
   id="rect379"
   x="1456.2791"
   y="456.04199"
   transform="matrix(0.0406,0.9992,-0.9992,0.0406,1875.3568,-1016.0813)"
   width="20.968"
   height="24.872"
   style="fill:#9c7d5d" />
		
			<rect
   id="rect381"
   x="1461.326"
   y="455.98099"
   transform="matrix(0.0411,0.9992,-0.9992,0.0411,1874.4491,-1016.3857)"
   width="10.895"
   height="24.875"
   style="fill:#352618" />
		
			<rect
   id="rect383"
   x="1463.575"
   y="466.02399"
   transform="matrix(0.0406,0.9992,-0.9992,0.0406,1880.1262,-1021.5178)"
   width="16.857"
   height="4.5289998"
   style="fill:#e5bf91" />
		
			<rect
   id="rect385"
   x="1457.826"
   y="466.15399"
   transform="matrix(0.0406,0.9992,-0.9992,0.0406,1876.7028,-1017.7063)"
   width="20.966999"
   height="4.5240002"
   style="fill:#e2c1a4" />
		
			<rect
   id="rect387"
   x="1455.25"
   y="432.48801"
   transform="matrix(0.0406,0.9992,-0.9992,0.0406,1850.8361,-1037.6528)"
   width="20.969"
   height="24.872"
   style="fill:#9c7d5d" />
		
			<rect
   id="rect389"
   x="1460.368"
   y="432.49799"
   transform="matrix(0.0405,0.9992,-0.9992,0.0405,1850.9659,-1037.7096)"
   width="10.89"
   height="24.871"
   style="fill:#352618" />
		
			<rect
   id="rect391"
   x="1462.557"
   y="442.49899"
   transform="matrix(0.0406,0.9992,-0.9992,0.0406,1855.6066,-1043.0768)"
   width="16.848"
   height="4.5229998"
   style="fill:#e5bf91" />
		
			<rect
   id="rect393"
   x="1456.802"
   y="442.608"
   transform="matrix(0.0406,0.9992,-0.9992,0.0406,1852.1885,-1039.2732)"
   width="20.965"
   height="4.5229998"
   style="fill:#e2c1a4" />
		
			<rect
   id="rect395"
   x="1454.38"
   y="408.98999"
   transform="matrix(0.0406,0.9992,-0.9992,0.0406,1826.5082,-1059.3291)"
   width="20.965"
   height="24.872"
   style="fill:#9c7d5d" />
		
			<rect
   id="rect397"
   x="1459.387"
   y="408.931"
   transform="matrix(0.0409,0.9992,-0.9992,0.0409,1825.9802,-1059.4651)"
   width="10.895"
   height="24.874001"
   style="fill:#352618" />
		
			<rect
   id="rect399"
   x="1461.7581"
   y="418.98901"
   transform="matrix(0.0406,0.9992,-0.9992,0.0406,1831.4517,-1064.8109)"
   width="16.851999"
   height="4.5240002"
   style="fill:#e5bf91" />
		
			<rect
   id="rect401"
   x="1455.95"
   y="419.09299"
   transform="matrix(0.0404,0.9992,-0.9992,0.0404,1828.1606,-1060.9143)"
   width="20.966999"
   height="4.5240002"
   style="fill:#e2c1a4" />
		
			<rect
   id="rect403"
   x="1453.3979"
   y="385.44501"
   transform="matrix(0.0404,0.9992,-0.9992,0.0404,1802.3131,-1080.8726)"
   width="20.962999"
   height="24.874001"
   style="fill:#9c7d5d" />
		
			<rect
   id="rect405"
   x="1458.431"
   y="385.39999"
   transform="matrix(0.0407,0.9992,-0.9992,0.0407,1801.8159,-1081.0195)"
   width="10.895"
   height="24.872"
   style="fill:#352618" />
		
			<rect
   id="rect407"
   x="1460.629"
   y="395.41501"
   transform="matrix(0.0406,0.9992,-0.9992,0.0406,1806.7302,-1086.3203)"
   width="16.853001"
   height="4.5240002"
   style="fill:#e5bf91" />
		
			<rect
   id="rect409"
   x="1454.869"
   y="395.54501"
   transform="matrix(0.0404,0.9992,-0.9992,0.0404,1803.6464,-1082.418)"
   width="20.962999"
   height="4.5180001"
   style="fill:#e2c1a4" />
		<path
   id="path411"
   inkscape:connector-curvature="0"
   enable-background="new    "
   d="m 1471.306,561.03 c 0.101,0 0.206,0 0.308,-0.005 9.863,-0.399 17.543,-8.727 17.144,-18.596 -0.144,-3.584 -1.343,-6.878 -3.273,-9.602 l -6.231,-153.468 c 1.694,-2.867 2.615,-6.236 2.473,-9.812 -0.403,-9.866 -8.726,-17.539 -18.597,-17.14 -0.099,0.005 -0.196,0.018 -0.292,0.022 l 8.468,208.601 0,0 z"
   style="opacity:0.2;fill:#272525" />
	</g>
	<g
   id="g413"
   transform="translate(0,-397)">
		<path
   id="path415"
   inkscape:connector-curvature="0"
   enable-background="new    "
   d="m 1575.593,350.74 c 0,0 -7.956,-8.671 -20.343,-8.671 -13.091,0 -19.813,13.446 -19.813,13.446 v 202.352 c 0,0 6.722,13.441 19.813,13.441 12.387,0 20.343,-8.666 20.343,-8.666 V 350.74 z"
   style="opacity:0.5;fill:#272525" />
		<path
   id="path417"
   inkscape:connector-curvature="0"
   d="m 1574.093,350.74 c 0,0 -7.957,-8.671 -20.339,-8.671 -13.091,0 -19.813,13.446 -19.813,13.446 v 202.352 c 0,0 6.722,13.441 19.813,13.441 12.382,0 20.339,-8.666 20.339,-8.666 V 350.74 z"
   style="fill:#edc897" />
		<path
   id="path419"
   inkscape:connector-curvature="0"
   d="m 1553.75,571.311 c 12.382,0 20.338,-8.668 20.338,-8.668 v -29.094 c -5.67,-2.695 -12.714,-5.049 -20.077,-5.049 -6.928,0 -14.044,1.973 -20.078,4.33 v 25.037 c 0.01,0 6.725,13.444 19.817,13.444 l 0,0 z"
   style="fill:#e5bf91" />
		
			<circle
   id="circle421"
   sodipodi:cx="1556.189"
   sodipodi:cy="549.11102"
   sodipodi:rx="15.567"
   sodipodi:ry="15.567"
   enable-background="new    "
   cx="1556.189"
   cy="549.11102"
   r="15.567"
   d="m 1571.756,549.11102 c 0,8.59742 -6.9696,15.567 -15.567,15.567 -8.5975,0 -15.567,-6.96958 -15.567,-15.567 0,-8.59741 6.9695,-15.567 15.567,-15.567 8.5974,0 15.567,6.96959 15.567,15.567 z"
   style="opacity:0.3;fill:#272525">
		</circle>
		
			<circle
   id="circle423"
   sodipodi:cx="1553.839"
   sodipodi:cy="549.11102"
   sodipodi:rx="15.567"
   sodipodi:ry="15.567"
   cx="1553.839"
   cy="549.11102"
   r="15.567"
   d="m 1569.406,549.11102 c 0,8.59742 -6.9696,15.567 -15.567,15.567 -8.5974,0 -15.567,-6.96958 -15.567,-15.567 0,-8.59741 6.9696,-15.567 15.567,-15.567 8.5974,0 15.567,6.96959 15.567,15.567 z"
   style="fill:#f9c98f">
		</circle>
		<rect
   id="rect425"
   x="1551.629"
   y="536.64099"
   width="4.421"
   height="24.941999"
   style="fill:#b98f58" />
		<path
   id="path427"
   inkscape:connector-curvature="0"
   d="m 1553.75,342.069 c 12.382,0 20.338,8.671 20.338,8.671 v 29.094 c -5.67,2.7 -12.714,5.049 -20.077,5.049 -6.928,0 -14.044,-1.967 -20.078,-4.331 V 355.52 c 0.01,-0.005 6.725,-13.451 19.817,-13.451 l 0,0 z"
   style="fill:#e5bf91" />
		
			<circle
   id="circle429"
   sodipodi:cx="1556.189"
   sodipodi:cy="364.276"
   sodipodi:rx="15.567"
   sodipodi:ry="15.567"
   enable-background="new    "
   cx="1556.189"
   cy="364.276"
   r="15.567"
   d="m 1571.756,364.276 c 0,8.59742 -6.9696,15.567 -15.567,15.567 -8.5975,0 -15.567,-6.96958 -15.567,-15.567 0,-8.59742 6.9695,-15.567 15.567,-15.567 8.5974,0 15.567,6.96958 15.567,15.567 z"
   style="opacity:0.3;fill:#272525">
		</circle>
		
			<circle
   id="circle431"
   sodipodi:cx="1553.839"
   sodipodi:cy="364.276"
   sodipodi:rx="15.567"
   sodipodi:ry="15.567"
   cx="1553.839"
   cy="364.276"
   r="15.567"
   d="m 1569.406,364.276 c 0,8.59742 -6.9696,15.567 -15.567,15.567 -8.5974,0 -15.567,-6.96958 -15.567,-15.567 0,-8.59742 6.9696,-15.567 15.567,-15.567 8.5974,0 15.567,6.96958 15.567,15.567 z"
   style="fill:#f9c98f">
		</circle>
		<rect
   id="rect433"
   x="1551.629"
   y="351.79999"
   width="4.421"
   height="24.943001"
   style="fill:#b98f58" />
		<path
   id="path435"
   inkscape:connector-curvature="0"
   enable-background="new    "
   d="m 1554.015,571.305 c 12.229,-0.121 20.078,-8.66 20.078,-8.66 V 350.74 c 0,0 -7.849,-8.536 -20.078,-8.662 v 229.227 z"
   style="opacity:0.1;fill:#272525" />
	</g>
	<g
   id="g437"
   transform="translate(0,-397)">
		
			<circle
   id="circle439"
   sodipodi:cx="-319.45901"
   sodipodi:cy="512.95502"
   sodipodi:rx="16.798"
   sodipodi:ry="16.798"
   cx="-319.45901"
   cy="512.95502"
   r="16.798"
   d="m -302.66101,512.95502 c 0,9.27728 -7.52073,16.798 -16.798,16.798 -9.27728,0 -16.79801,-7.52072 -16.79801,-16.798 0,-9.27728 7.52073,-16.798 16.79801,-16.798 9.27727,0 16.798,7.52072 16.798,16.798 z"
   style="fill:#edc897">
		</circle>
		<polygon
   id="polygon441"
   enable-background="new    "
   points="-319.967,499.63 -308.43,506.293 -308.43,519.617 -319.967,526.275 "
   style="opacity:0.5;fill:#272525" />
		<polygon
   id="polygon443"
   points="-320.106,501.031 -309.782,506.993 -309.782,518.916 -320.106,524.879 "
   style="fill:#edc897" />
		<path
   id="path445"
   inkscape:connector-curvature="0"
   enable-background="new    "
   d="m -302.662,512.95 c 0,-9.272 -7.521,-16.794 -16.798,-16.794 v 33.592 c 9.278,0 16.798,-7.519 16.798,-16.798 z"
   style="opacity:0.1;fill:#272525" />
		
			<ellipse
   id="ellipse447"
   sodipodi:cx="-322.35699"
   sodipodi:cy="512.95502"
   sodipodi:rx="8.4820004"
   sodipodi:ry="7.75"
   enable-background="new    "
   cx="-322.35699"
   cy="512.95502"
   rx="8.4820004"
   ry="7.75"
   d="m -313.87499,512.95502 c 0,4.2802 -3.79753,7.75 -8.482,7.75 -4.68448,0 -8.482,-3.4698 -8.482,-7.75 0,-4.28021 3.79752,-7.75 8.482,-7.75 4.68447,0 8.482,3.46979 8.482,7.75 z"
   style="opacity:0.5;fill:#272525">
		</ellipse>
	</g>
	<g
   id="g449"
   transform="translate(0,-397)">
		
			<circle
   id="circle451"
   sodipodi:cx="-319.45901"
   sodipodi:cy="398.496"
   sodipodi:rx="16.798"
   sodipodi:ry="16.798"
   cx="-319.45901"
   cy="398.496"
   r="16.798"
   d="m -302.66101,398.496 c 0,9.27728 -7.52073,16.798 -16.798,16.798 -9.27728,0 -16.79801,-7.52072 -16.79801,-16.798 0,-9.27728 7.52073,-16.798 16.79801,-16.798 9.27727,0 16.798,7.52072 16.798,16.798 z"
   style="fill:#edc897">
		</circle>
		<polygon
   id="polygon453"
   enable-background="new    "
   points="-319.967,385.176 -308.43,391.833 -308.43,405.159 -319.967,411.821 "
   style="opacity:0.5;fill:#272525" />
		<polygon
   id="polygon455"
   points="-320.106,386.573 -309.782,392.539 -309.782,404.462 -320.106,410.419 "
   style="fill:#edc897" />
		<path
   id="path457"
   inkscape:connector-curvature="0"
   enable-background="new    "
   d="m -302.662,398.496 c 0,-9.272 -7.521,-16.793 -16.798,-16.793 v 33.596 c 9.278,-0.005 16.798,-7.526 16.798,-16.803 z"
   style="opacity:0.1;fill:#272525" />
		
			<ellipse
   id="ellipse459"
   sodipodi:cx="-322.35699"
   sodipodi:cy="398.496"
   sodipodi:rx="8.4820004"
   sodipodi:ry="7.75"
   enable-background="new    "
   cx="-322.35699"
   cy="398.496"
   rx="8.4820004"
   ry="7.75"
   d="m -313.87499,398.496 c 0,4.28021 -3.79753,7.75 -8.482,7.75 -4.68448,0 -8.482,-3.46979 -8.482,-7.75 0,-4.2802 3.79752,-7.75 8.482,-7.75 4.68447,0 8.482,3.4698 8.482,7.75 z"
   style="opacity:0.5;fill:#272525">
		</ellipse>
	</g>
	<g
   id="g461"
   transform="translate(0,-397)">
		
			<circle
   id="circle463"
   sodipodi:cx="-229.283"
   sodipodi:cy="512.578"
   sodipodi:rx="16.798"
   sodipodi:ry="16.798"
   cx="-229.283"
   cy="512.578"
   r="16.798"
   d="m -212.485,512.578 c 0,9.27728 -7.52073,16.798 -16.798,16.798 -9.27728,0 -16.79801,-7.52072 -16.79801,-16.798 0,-9.27728 7.52073,-16.798 16.79801,-16.798 9.27727,0 16.798,7.52072 16.798,16.798 z"
   style="fill:#edc897">
		</circle>
		<polygon
   id="polygon465"
   enable-background="new    "
   points="-229.787,499.257 -218.245,505.915 -218.245,519.24 -229.787,525.902 "
   style="opacity:0.5;fill:#272525" />
		<polygon
   id="polygon467"
   points="-229.931,500.658 -219.606,506.615 -219.606,518.539 -229.931,524.501 "
   style="fill:#edc897" />
		<path
   id="path469"
   inkscape:connector-curvature="0"
   enable-background="new    "
   d="m -212.485,512.578 c 0,-9.273 -7.521,-16.799 -16.798,-16.799 v 33.596 c 9.277,0 16.798,-7.521 16.798,-16.797 z"
   style="opacity:0.1;fill:#272525" />
		
			<ellipse
   id="ellipse471"
   sodipodi:cx="-232.177"
   sodipodi:cy="512.578"
   sodipodi:rx="8.4779997"
   sodipodi:ry="7.75"
   enable-background="new    "
   cx="-232.177"
   cy="512.578"
   rx="8.4779997"
   ry="7.75"
   d="m -223.699,512.578 c 0,4.28021 -3.79573,7.75 -8.478,7.75 -4.68227,0 -8.478,-3.46979 -8.478,-7.75 0,-4.2802 3.79573,-7.75 8.478,-7.75 4.68227,0 8.478,3.4698 8.478,7.75 z"
   style="opacity:0.5;fill:#272525">
		</ellipse>
	</g>
	<g
   id="g473"
   transform="translate(0,-397)">
		
			<circle
   id="circle475"
   sodipodi:cx="-229.283"
   sodipodi:cy="398.86899"
   sodipodi:rx="16.798"
   sodipodi:ry="16.798"
   cx="-229.283"
   cy="398.86899"
   r="16.798"
   d="m -212.485,398.86899 c 0,9.27728 -7.52073,16.798 -16.798,16.798 -9.27728,0 -16.79801,-7.52072 -16.79801,-16.798 0,-9.27728 7.52073,-16.798 16.79801,-16.798 9.27727,0 16.798,7.52072 16.798,16.798 z"
   style="fill:#edc897">
		</circle>
		<polygon
   id="polygon477"
   enable-background="new    "
   points="-229.787,385.548 -218.245,392.207 -218.245,405.532 -229.787,412.199 "
   style="opacity:0.5;fill:#272525" />
		<polygon
   id="polygon479"
   points="-229.931,386.946 -219.606,392.912 -219.606,404.835 -229.931,410.792 "
   style="fill:#edc897" />
		<path
   id="path481"
   inkscape:connector-curvature="0"
   enable-background="new    "
   d="m -212.485,398.874 c 0,-9.272 -7.521,-16.798 -16.798,-16.798 v 33.596 c 9.277,-0.005 16.798,-7.526 16.798,-16.798 l 0,0 z"
   style="opacity:0.1;fill:#272525" />
		
			<ellipse
   id="ellipse483"
   sodipodi:cx="-232.177"
   sodipodi:cy="398.87399"
   sodipodi:rx="8.4779997"
   sodipodi:ry="7.7540002"
   enable-background="new    "
   cx="-232.177"
   cy="398.87399"
   rx="8.4779997"
   ry="7.7540002"
   d="m -223.699,398.87399 c 0,4.28242 -3.79573,7.754 -8.478,7.754 -4.68227,0 -8.478,-3.47158 -8.478,-7.754 0,-4.28241 3.79573,-7.754 8.478,-7.754 4.68227,0 8.478,3.47159 8.478,7.754 z"
   style="opacity:0.5;fill:#272525">
		</ellipse>
	</g>
	<g
   id="g485"
   transform="translate(0,-397)">
		
			<circle
   id="circle487"
   sodipodi:cx="-137.535"
   sodipodi:cy="511.46301"
   sodipodi:rx="16.798"
   sodipodi:ry="16.798"
   cx="-137.535"
   cy="511.46301"
   r="16.798"
   d="m -120.737,511.46301 c 0,9.27728 -7.52072,16.798 -16.798,16.798 -9.27728,0 -16.798,-7.52072 -16.798,-16.798 0,-9.27728 7.52072,-16.798 16.798,-16.798 9.27728,0 16.798,7.52072 16.798,16.798 z"
   style="fill:#edc897">
		</circle>
		<polygon
   id="polygon489"
   enable-background="new    "
   points="-138.038,498.139 -126.501,504.801 -126.501,518.126 -138.038,524.789 "
   style="opacity:0.5;fill:#272525" />
		<polygon
   id="polygon491"
   points="-138.182,499.54 -127.854,505.502 -127.854,517.425 -138.182,523.387 "
   style="fill:#edc897" />
		<path
   id="path493"
   inkscape:connector-curvature="0"
   enable-background="new    "
   d="m -120.737,511.463 c 0,-9.271 -7.521,-16.793 -16.798,-16.793 v 33.596 c 9.277,-0.004 16.798,-7.526 16.798,-16.803 l 0,0 z"
   style="opacity:0.1;fill:#272525" />
		
			<ellipse
   id="ellipse495"
   sodipodi:cx="-140.42799"
   sodipodi:cy="511.46301"
   sodipodi:rx="8.4779997"
   sodipodi:ry="7.75"
   enable-background="new    "
   cx="-140.42799"
   cy="511.46301"
   rx="8.4779997"
   ry="7.75"
   d="m -131.94999,511.46301 c 0,4.28021 -3.79573,7.75 -8.478,7.75 -4.68227,0 -8.478,-3.46979 -8.478,-7.75 0,-4.2802 3.79573,-7.75 8.478,-7.75 4.68227,0 8.478,3.4698 8.478,7.75 z"
   style="opacity:0.5;fill:#272525">
		</ellipse>
	</g>
	<g
   id="g497"
   transform="translate(0,-397)">
		
			<circle
   id="circle499"
   sodipodi:cx="-137.535"
   sodipodi:cy="399.98801"
   sodipodi:rx="16.798"
   sodipodi:ry="16.798"
   cx="-137.535"
   cy="399.98801"
   r="16.798"
   d="m -120.737,399.98801 c 0,9.27728 -7.52072,16.798 -16.798,16.798 -9.27728,0 -16.798,-7.52072 -16.798,-16.798 0,-9.27728 7.52072,-16.798 16.798,-16.798 9.27728,0 16.798,7.52072 16.798,16.798 z"
   style="fill:#edc897">
		</circle>
		<polygon
   id="polygon501"
   enable-background="new    "
   points="-138.038,386.663 -126.501,393.325 -126.501,406.65 -138.038,413.313 "
   style="opacity:0.5;fill:#272525" />
		<polygon
   id="polygon503"
   points="-138.182,388.064 -127.854,394.026 -127.854,405.949 -138.182,411.911 "
   style="fill:#edc897" />
		<path
   id="path505"
   inkscape:connector-curvature="0"
   enable-background="new    "
   d="m -120.737,399.988 c 0,-9.273 -7.521,-16.793 -16.798,-16.793 v 33.596 c 9.277,-0.005 16.798,-7.526 16.798,-16.803 z"
   style="opacity:0.1;fill:#272525" />
		
			<ellipse
   id="ellipse507"
   sodipodi:cx="-140.42799"
   sodipodi:cy="399.98801"
   sodipodi:rx="8.4779997"
   sodipodi:ry="7.7540002"
   enable-background="new    "
   cx="-140.42799"
   cy="399.98801"
   rx="8.4779997"
   ry="7.7540002"
   d="m -131.94999,399.98801 c 0,4.28241 -3.79573,7.754 -8.478,7.754 -4.68227,0 -8.478,-3.47159 -8.478,-7.754 0,-4.28242 3.79573,-7.754 8.478,-7.754 4.68227,0 8.478,3.47158 8.478,7.754 z"
   style="opacity:0.5;fill:#272525">
		</ellipse>
	</g>
	
		<path
   id="path509"
   inkscape:connector-curvature="0"
   stroke-miterlimit="10"
   d="m -48.33,30.662 c -11.789,1.024 -26.206,0.876 -26.206,0.876 0,0 -31.659,-1.051 -37.639,1.056 -4.83,1.703 -13.788,8.042 -17.764,15.477 -0.557,1.042 -4.358,2.345 -5.575,3.801 -1.222,1.46 -1.963,2.502 -1.963,4.978 0,2.48 0.741,3.522 1.963,4.978 1.217,1.455 5.018,2.758 5.575,3.801 3.976,7.439 12.934,13.773 17.764,15.477 5.98,2.111 37.639,1.058 37.639,1.058 0,0 14.417,-0.146 26.206,0.876 20.046,1.736 34.908,8.475 36.404,7.368 2.341,-1.729 3.239,-8.058 2.889,-10.868 -0.355,-2.813 -3.091,-10.066 -2.21,-11.299 0.881,-1.23 8.123,-7.07 8.123,-11.442 0,-4.362 -7.242,-10.108 -8.123,-11.344 -0.876,-1.227 1.86,-8.482 2.21,-11.294 0.351,-2.817 -0.543,-9.143 -2.889,-10.872 -1.496,-1.1 -16.357,5.635 -36.404,7.373 z"
   style="fill:none;stroke:#e1dcd8;stroke-width:0.3335;stroke-miterlimit:10" />
	<polygon
   id="polygon511"
   points="-143.057,107.441 -142.873,111.188 1.334,101.372 1537.599,120.367 1537.635,116.615 1.375,97.625 "
   style="fill:#bbbcbf" />
	<polygon
   id="polygon513"
   points="1535.717,93.802 1535.686,97.107 1.187,84.061 -233.745,111.229 -234.136,107.939 1.125,80.75 "
   style="fill:#bbbcbf" />
	<polygon
   id="polygon515"
   points="1537.213,70.148 1537.203,72.628 1.014,66.092 -326.252,110.848 -326.585,108.385 0.875,63.625 "
   style="fill:#bbbcbf" />
	<polygon
   id="polygon517"
   points="-142.71,9.192 -142.751,10.522 0.875,16.25 1538.105,2.112 1538.098,0.786 0.866,14.92 "
   style="fill:#bbbcbf" />
	<polygon
   id="polygon519"
   points="1534.236,48.872 1534.236,46.86 1,46.833 -326.238,6.943 -326.481,8.942 0.852,48.827 "
   style="fill:#bbbcbf" />
	<polygon
   id="polygon521"
   points="1539.126,24.422 1539.122,22.787 1.071,30.865 -234.692,7.934 -234.854,9.565 1,32.5 "
   style="fill:#bbbcbf" />
	<g
   id="g523"
   transform="translate(0,-397)">
		
			<circle
   id="circle525"
   sodipodi:cx="-325.552"
   sodipodi:cy="512.95502"
   sodipodi:rx="7.75"
   sodipodi:ry="7.75"
   cx="-325.552"
   cy="512.95502"
   r="7.75"
   d="m -317.802,512.95502 c 0,4.2802 -3.4698,7.75 -7.75,7.75 -4.28021,0 -7.75,-3.4698 -7.75,-7.75 0,-4.28021 3.46979,-7.75 7.75,-7.75 4.2802,0 7.75,3.46979 7.75,7.75 z"
   style="fill:#ecd3af">
		</circle>
		<path
   id="path527"
   inkscape:connector-curvature="0"
   enable-background="new    "
   d="m -317.802,512.95 c 0,-4.281 -3.468,-7.749 -7.754,-7.749 v 15.504 c 4.286,0 7.754,-3.473 7.754,-7.755 z"
   style="opacity:0.1;fill:#272525" />
	</g>
	<g
   id="g529"
   transform="translate(0,-397)">
		
			<circle
   id="circle531"
   sodipodi:cx="-325.552"
   sodipodi:cy="398.496"
   sodipodi:rx="7.75"
   sodipodi:ry="7.75"
   cx="-325.552"
   cy="398.496"
   r="7.75"
   d="m -317.802,398.496 c 0,4.28021 -3.4698,7.75 -7.75,7.75 -4.28021,0 -7.75,-3.46979 -7.75,-7.75 0,-4.2802 3.46979,-7.75 7.75,-7.75 4.2802,0 7.75,3.4698 7.75,7.75 z"
   style="fill:#ecd3af">
		</circle>
		<path
   id="path533"
   inkscape:connector-curvature="0"
   enable-background="new    "
   d="m -317.802,398.496 c 0,-4.277 -3.468,-7.75 -7.754,-7.75 v 15.5 c 4.286,0 7.754,-3.468 7.754,-7.75 z"
   style="opacity:0.1;fill:#272525" />
	</g>
	<g
   id="g535"
   transform="translate(0,-397)">
		
			<circle
   id="circle537"
   sodipodi:cx="-235.371"
   sodipodi:cy="512.578"
   sodipodi:rx="7.75"
   sodipodi:ry="7.75"
   cx="-235.371"
   cy="512.578"
   r="7.75"
   d="m -227.621,512.578 c 0,4.28021 -3.4698,7.75 -7.75,7.75 -4.28021,0 -7.75,-3.46979 -7.75,-7.75 0,-4.2802 3.46979,-7.75 7.75,-7.75 4.2802,0 7.75,3.4698 7.75,7.75 z"
   style="fill:#ecd3af">
		</circle>
		<path
   id="path539"
   inkscape:connector-curvature="0"
   enable-background="new    "
   d="m -227.617,512.578 c 0,-4.282 -3.468,-7.75 -7.754,-7.75 v 15.499 c 4.282,0 7.754,-3.468 7.754,-7.749 l 0,0 z"
   style="opacity:0.1;fill:#272525" />
	</g>
	<g
   id="g541"
   transform="translate(0,-397)">
		
			<circle
   id="circle543"
   sodipodi:cx="-235.371"
   sodipodi:cy="398.87399"
   sodipodi:rx="7.7540002"
   sodipodi:ry="7.7540002"
   cx="-235.371"
   cy="398.87399"
   r="7.7540002"
   d="m -227.617,398.87399 c 0,4.28242 -3.47159,7.754 -7.754,7.754 -4.28242,0 -7.754,-3.47158 -7.754,-7.754 0,-4.28241 3.47158,-7.754 7.754,-7.754 4.28241,0 7.754,3.47159 7.754,7.754 z"
   style="fill:#ecd3af">
		</circle>
		<path
   id="path545"
   inkscape:connector-curvature="0"
   enable-background="new    "
   d="m -227.617,398.874 c 0,-4.281 -3.468,-7.754 -7.754,-7.754 v 15.504 c 4.282,-0.001 7.754,-3.469 7.754,-7.75 l 0,0 z"
   style="opacity:0.1;fill:#272525" />
	</g>
	<g
   id="g547"
   transform="translate(0,-397)">
		
			<circle
   id="circle549"
   sodipodi:cx="-143.623"
   sodipodi:cy="511.46301"
   sodipodi:rx="7.75"
   sodipodi:ry="7.75"
   cx="-143.623"
   cy="511.46301"
   r="7.75"
   d="m -135.873,511.46301 c 0,4.28021 -3.46979,7.75 -7.75,7.75 -4.28021,0 -7.75,-3.46979 -7.75,-7.75 0,-4.2802 3.46979,-7.75 7.75,-7.75 4.28021,0 7.75,3.4698 7.75,7.75 z"
   style="fill:#ecd3af">
		</circle>
		<path
   id="path551"
   inkscape:connector-curvature="0"
   enable-background="new    "
   d="m -135.873,511.463 c 0,-4.275 -3.468,-7.75 -7.754,-7.75 v 15.505 c 4.286,-0.005 7.754,-3.474 7.754,-7.755 z"
   style="opacity:0.1;fill:#272525" />
	</g>
	<g
   id="g553"
   transform="translate(0,-397)">
		
			<circle
   id="circle555"
   sodipodi:cx="-143.623"
   sodipodi:cy="399.98801"
   sodipodi:rx="7.7540002"
   sodipodi:ry="7.7540002"
   cx="-143.623"
   cy="399.98801"
   r="7.7540002"
   d="m -135.869,399.98801 c 0,4.28241 -3.47159,7.754 -7.754,7.754 -4.28242,0 -7.754,-3.47159 -7.754,-7.754 0,-4.28242 3.47158,-7.754 7.754,-7.754 4.28241,0 7.754,3.47158 7.754,7.754 z"
   style="fill:#ecd3af">
		</circle>
		<path
   id="path557"
   inkscape:connector-curvature="0"
   enable-background="new    "
   d="m -135.873,399.988 c 0,-4.282 -3.468,-7.754 -7.754,-7.754 v 15.504 c 4.286,-10e-4 7.754,-3.469 7.754,-7.75 l 0,0 z"
   style="opacity:0.1;fill:#272525" />
	</g>
	<g
   id="g559"
   transform="translate(0,-397)">
		
			<circle
   id="circle561"
   sodipodi:cx="-131.00301"
   sodipodi:cy="453.854"
   sodipodi:rx="4.9419999"
   sodipodi:ry="4.9419999"
   cx="-131.00301"
   cy="453.854"
   r="4.9419999"
   d="m -126.06101,453.854 c 0,2.7294 -2.2126,4.942 -4.942,4.942 -2.72939,0 -4.942,-2.2126 -4.942,-4.942 0,-2.72939 2.21261,-4.942 4.942,-4.942 2.7294,0 4.942,2.21261 4.942,4.942 z"
   style="fill:#edc897">
		</circle>
		<path
   id="path563"
   inkscape:connector-curvature="0"
   enable-background="new    "
   d="m -126.057,453.854 c 0,-2.727 -2.215,-4.942 -4.946,-4.942 v 9.889 c 2.732,-0.005 4.946,-2.22 4.946,-4.947 z"
   style="opacity:0.2;fill:#272525" />
	</g>
	<g
   id="g565"
   transform="translate(0,-397)">
		
			<circle
   id="circle567"
   sodipodi:cx="-13.853"
   sodipodi:cy="453.854"
   sodipodi:rx="4.9460001"
   sodipodi:ry="4.9460001"
   cx="-13.853"
   cy="453.854"
   r="4.9460001"
   d="m -8.9069996,453.854 c 0,2.7316 -2.2143994,4.946 -4.9460004,4.946 -2.7316,0 -4.946,-2.2144 -4.946,-4.946 0,-2.7316 2.2144,-4.946 4.946,-4.946 2.731601,0 4.9460004,2.2144 4.9460004,4.946 z"
   style="fill:#edc897">
		</circle>
		<path
   id="path569"
   inkscape:connector-curvature="0"
   enable-background="new    "
   d="m -8.911,453.854 c 0,-2.727 -2.215,-4.942 -4.946,-4.942 v 9.889 c 2.735,0 4.946,-2.22 4.946,-4.947 z"
   style="opacity:0.2;fill:#272525" />
	</g>
</g>
</svg>