<?xml version="1.0" encoding="UTF-8" standalone="no"?>
<!-- Generator: Adobe Illustrator 16.0.0, SVG Export Plug-In . SVG Version: 6.00 Build 0)  -->

<svg
   xmlns:dc="http://purl.org/dc/elements/1.1/"
   xmlns:cc="http://creativecommons.org/ns#"
   xmlns:rdf="http://www.w3.org/1999/02/22-rdf-syntax-ns#"
   xmlns:svg="http://www.w3.org/2000/svg"
   xmlns="http://www.w3.org/2000/svg"
   xmlns:sodipodi="http://sodipodi.sourceforge.net/DTD/sodipodi-0.dtd"
   xmlns:inkscape="http://www.inkscape.org/namespaces/inkscape"
   version="1.1"
   id="Layer_1"
   x="0px"
   y="0px"
   width="1500"
   height="500"
   viewBox="0 0 1500 500"
   enable-background="new 0 0 500 1500"
   xml:space="preserve"
   inkscape:version="0.48.5 r10040"
   sodipodi:docname="precision-bass-5.svg"><metadata
   id="metadata515"><rdf:RDF><cc:Work
       rdf:about=""><dc:format>image/svg+xml</dc:format><dc:type
         rdf:resource="http://purl.org/dc/dcmitype/StillImage" /></cc:Work></rdf:RDF></metadata><defs
   id="defs513" /><sodipodi:namedview
   pagecolor="#ffffff"
   bordercolor="#666666"
   borderopacity="1"
   objecttolerance="10"
   gridtolerance="10"
   guidetolerance="10"
   inkscape:pageopacity="0"
   inkscape:pageshadow="2"
   inkscape:window-width="640"
   inkscape:window-height="480"
   id="namedview511"
   showgrid="false"
   inkscape:zoom="0.15733333"
   inkscape:cx="-509.5339"
   inkscape:cy="750"
   inkscape:window-x="0"
   inkscape:window-y="0"
   inkscape:window-maximized="0"
   inkscape:current-layer="Layer_1" />
<g
   id="g3"
   transform="matrix(0,1,-1,0,1500.0001,-2.8950746e-4)">
	<path
   d="m 212.056,948.388 c 0,0 -5.623,19.239 -32.323,10.707 -19.596,-6.263 -28.591,-37.217 -31.313,-64.646 -2.626,-26.465 -4.946,-53.246 -26.262,-55.96 -40.34,-5.138 -53.692,61.319 -54.546,98.586 -1.818,79.393 38.045,125.658 35.638,192.952 -1.698,47.45 -11.597,58.966 -30.789,98.36 -16.704,34.286 -35.953,82.322 -31.033,125.401 5.174,45.305 22.13,72.543 53.068,99.024 22.207,19.008 58.152,36.967 154.828,35.015 82.327,-1.663 157.879,-0.454 195.86,-72.218 24.245,-45.81 10.794,-107.109 7.275,-122.172 -11.697,-50.07 -57.576,-119.192 -55.42,-145.356 3.707,-44.981 33.447,-55.038 33.197,-129.997 -0.202,-60.809 -38.683,-69.228 -50.158,-63.128 -26.407,14.037 -2.784,58.092 -48.226,77.472 -13.737,5.858 -30.078,4.575 -33.291,0.216 -1.94,-2.633 -3.679,-5.671 -5.093,-10.721 -1.039,-3.712 -4.755,-5.146 -4.755,-5.146 l -76.657,-68.389 z"
   id="path5"
   inkscape:connector-curvature="0"
   style="fill:#640000" />
	<path
   d="m 211.923,1002.173 c 0,0 -22.165,-27.926 -35.024,-14.564 -16.199,16.836 14.166,34.694 3.075,112.227 -11.459,80.104 -32.123,86.083 -31.86,138.108 0.26,51.54 34.482,58.496 37.889,58.496 3.407,0 103.154,0.193 143.298,0.193 23.028,0 45.051,18.545 47.838,55.511 2.563,33.994 -12.058,72.226 -28.468,86.726 -3.559,3.145 -5.236,10.854 -1.123,16.895 4.112,6.039 11.117,8.104 22.817,3.362 12.937,-5.241 72.021,-29.015 68.703,-107.285 -1.94,-45.765 -13.744,-76.252 -26.682,-102.982 -17.886,-36.953 -37.032,-69.996 -35.485,-97.541 0.774,-13.801 1.363,-23.885 10.132,-42.755 11.564,-24.884 24.056,-52.851 23.616,-81.636 -0.659,-43.244 -13.366,-51.81 -19.278,-49.464 -5.096,2.022 -1.925,11.771 -7.116,32.663 -4.342,17.472 -26.595,39.944 -46.785,45.755 -35.862,10.317 -48.712,-1.212 -48.712,-1.212 l -76.835,-52.497 z"
   id="path7"
   inkscape:connector-curvature="0"
   style="fill:#a6a8aa" />
	<path
   d="m 214.016,1001.792 c 0,0 -22.25,-27.862 -35.16,-14.529 -16.262,16.795 14.221,34.613 3.086,111.965 -11.503,79.919 -32.247,85.884 -31.983,137.788 0.261,51.421 34.036,57.646 37.456,57.646 3.42,0 100.563,0 140.861,0 26.841,0 48.789,21.18 50.641,57.414 1.736,33.969 -11.597,73.016 -28.07,87.481 -3.573,3.137 -4.945,9.91 -0.816,15.937 4.128,6.025 11.294,6.922 23.039,2.192 12.986,-5.229 72.298,-28.947 68.968,-107.036 -1.947,-45.659 -13.798,-76.075 -26.785,-102.744 -17.954,-36.867 -37.175,-69.834 -35.622,-97.314 0.777,-13.769 1.369,-23.829 10.172,-42.654 11.608,-24.828 24.147,-52.729 23.707,-81.446 -0.662,-43.146 -17.074,-52.493 -23.01,-50.153 -5.115,2.018 -3.155,12.538 -8.366,33.381 -4.358,17.431 -21.818,39.861 -42.087,45.657 -36,10.295 -48.899,-1.209 -48.899,-1.209 l -77.132,-52.376 z"
   id="path9"
   inkscape:connector-curvature="0"
   style="fill:#f3f3f3" />
	<g
   id="g11">
		<path
   d="m 189.314,1199.484 v 10.94 c -3.403,1.158 -5.859,4.426 -5.859,8.285 0,3.859 2.456,7.129 5.859,8.286 v 11.082 h 93.255 v -11.081 c 3.402,-1.158 5.858,-4.428 5.858,-8.287 0,-3.859 -2.456,-7.128 -5.858,-8.285 v -10.94 h -93.255 z"
   id="path13"
   inkscape:connector-curvature="0"
   style="fill:#6d6e70" />
		<path
   d="m 190.703,1199.484 v 10.005 c -3.403,1.136 -5.859,4.341 -5.859,8.127 0,3.785 2.456,6.99 5.859,8.126 v 10.868 h 93.255 v -10.868 c 3.402,-1.136 5.858,-4.341 5.858,-8.126 0,-3.786 -2.456,-6.991 -5.858,-8.127 v -10.005 h -93.255 z"
   id="path15"
   inkscape:connector-curvature="0"
   style="fill:#272727" />
		<circle
   cx="209.23599"
   cy="1219.152"
   r="3.0610001"
   id="circle17"
   sodipodi:cx="209.23599"
   sodipodi:cy="1219.152"
   sodipodi:rx="3.0610001"
   sodipodi:ry="3.0610001"
   style="fill:#5c5c5c"
   d="m 212.29699,1219.152 c 0,1.6905 -1.37045,3.061 -3.061,3.061 -1.69054,0 -3.061,-1.3705 -3.061,-3.061 0,-1.6906 1.37046,-3.061 3.061,-3.061 1.69055,0 3.061,1.3704 3.061,3.061 z" />
		<circle
   cx="220.474"
   cy="1219.152"
   r="3.0610001"
   id="circle19"
   sodipodi:cx="220.474"
   sodipodi:cy="1219.152"
   sodipodi:rx="3.0610001"
   sodipodi:ry="3.0610001"
   style="fill:#5c5c5c"
   d="m 223.535,1219.152 c 0,1.6905 -1.37046,3.061 -3.061,3.061 -1.69054,0 -3.061,-1.3705 -3.061,-3.061 0,-1.6906 1.37046,-3.061 3.061,-3.061 1.69054,0 3.061,1.3704 3.061,3.061 z" />
		<circle
   cx="231.711"
   cy="1219.152"
   r="3.0610001"
   id="circle21"
   sodipodi:cx="231.711"
   sodipodi:cy="1219.152"
   sodipodi:rx="3.0610001"
   sodipodi:ry="3.0610001"
   style="fill:#5c5c5c"
   d="m 234.772,1219.152 c 0,1.6905 -1.37046,3.061 -3.061,3.061 -1.69055,0 -3.061,-1.3705 -3.061,-3.061 0,-1.6906 1.37045,-3.061 3.061,-3.061 1.69054,0 3.061,1.3704 3.061,3.061 z" />
		<circle
   cx="242.94901"
   cy="1219.152"
   r="3.0610001"
   id="circle23"
   sodipodi:cx="242.94901"
   sodipodi:cy="1219.152"
   sodipodi:rx="3.0610001"
   sodipodi:ry="3.0610001"
   style="fill:#5c5c5c"
   d="m 246.01001,1219.152 c 0,1.6905 -1.37046,3.061 -3.061,3.061 -1.69055,0 -3.061,-1.3705 -3.061,-3.061 0,-1.6906 1.37045,-3.061 3.061,-3.061 1.69054,0 3.061,1.3704 3.061,3.061 z" />
		<circle
   cx="254.187"
   cy="1219.152"
   r="3.0610001"
   id="circle25"
   sodipodi:cx="254.187"
   sodipodi:cy="1219.152"
   sodipodi:rx="3.0610001"
   sodipodi:ry="3.0610001"
   style="fill:#5c5c5c"
   d="m 257.248,1219.152 c 0,1.6905 -1.37046,3.061 -3.061,3.061 -1.69055,0 -3.061,-1.3705 -3.061,-3.061 0,-1.6906 1.37045,-3.061 3.061,-3.061 1.69054,0 3.061,1.3704 3.061,3.061 z" />
		<circle
   cx="265.42401"
   cy="1219.152"
   r="3.0610001"
   id="circle27"
   sodipodi:cx="265.42401"
   sodipodi:cy="1219.152"
   sodipodi:rx="3.0610001"
   sodipodi:ry="3.0610001"
   style="fill:#5c5c5c"
   d="m 268.48501,1219.152 c 0,1.6905 -1.37046,3.061 -3.061,3.061 -1.69054,0 -3.061,-1.3705 -3.061,-3.061 0,-1.6906 1.37046,-3.061 3.061,-3.061 1.69054,0 3.061,1.3704 3.061,3.061 z" />
		<circle
   cx="188.54401"
   cy="1217.651"
   r="2.99"
   id="circle29"
   sodipodi:cx="188.54401"
   sodipodi:cy="1217.651"
   sodipodi:rx="2.99"
   sodipodi:ry="2.99"
   style="fill:#c7c7c7"
   d="m 191.53401,1217.651 c 0,1.6513 -1.33867,2.99 -2.99,2.99 -1.65134,0 -2.99,-1.3387 -2.99,-2.99 0,-1.6513 1.33866,-2.99 2.99,-2.99 1.65133,0 2.99,1.3387 2.99,2.99 z" />
		<circle
   cx="285.82501"
   cy="1217.651"
   r="2.99"
   id="circle31"
   sodipodi:cx="285.82501"
   sodipodi:cy="1217.651"
   sodipodi:rx="2.99"
   sodipodi:ry="2.99"
   style="fill:#c7c7c7"
   d="m 288.81501,1217.651 c 0,1.6513 -1.33867,2.99 -2.99,2.99 -1.65133,0 -2.99,-1.3387 -2.99,-2.99 0,-1.6513 1.33867,-2.99 2.99,-2.99 1.65133,0 2.99,1.3387 2.99,2.99 z" />
	</g>
	<g
   id="g33">
		<path
   d="m 235.849,1236.619 v 10.94 c -3.403,1.158 -5.859,4.427 -5.859,8.286 0,3.858 2.456,7.128 5.859,8.286 v 11.081 h 74.907 l -0.016,-13.079 c 3.403,-1.158 4.48,-2.43 4.48,-6.288 0,-3.859 -2.456,-7.128 -5.859,-8.286 v -10.94 h -73.512 z"
   id="path35"
   inkscape:connector-curvature="0"
   style="fill:#6d6e70" />
		<path
   d="m 237.237,1236.619 v 10.005 c -3.403,1.136 -5.859,4.342 -5.859,8.127 0,3.785 2.456,6.99 5.859,8.126 v 10.869 h 73.513 v -10.868 c 3.403,-1.136 5.859,-4.342 5.859,-8.127 0,-3.785 -2.456,-6.991 -5.859,-8.127 v -10.005 h -73.513 z"
   id="path37"
   inkscape:connector-curvature="0"
   style="fill:#272727" />
		<circle
   cx="255.345"
   cy="1256.288"
   r="3.0610001"
   id="circle39"
   sodipodi:cx="255.345"
   sodipodi:cy="1256.288"
   sodipodi:rx="3.0610001"
   sodipodi:ry="3.0610001"
   style="fill:#5c5c5c"
   d="m 258.406,1256.288 c 0,1.6905 -1.37046,3.061 -3.061,3.061 -1.69054,0 -3.061,-1.3705 -3.061,-3.061 0,-1.6906 1.37046,-3.061 3.061,-3.061 1.69054,0 3.061,1.3704 3.061,3.061 z" />
		<circle
   cx="267.80499"
   cy="1256.288"
   r="3.0610001"
   id="circle41"
   sodipodi:cx="267.80499"
   sodipodi:cy="1256.288"
   sodipodi:rx="3.0610001"
   sodipodi:ry="3.0610001"
   style="fill:#5c5c5c"
   d="m 270.86599,1256.288 c 0,1.6905 -1.37045,3.061 -3.061,3.061 -1.69054,0 -3.061,-1.3705 -3.061,-3.061 0,-1.6906 1.37046,-3.061 3.061,-3.061 1.69055,0 3.061,1.3704 3.061,3.061 z" />
		<circle
   cx="280.267"
   cy="1256.288"
   r="3.0610001"
   id="circle43"
   sodipodi:cx="280.267"
   sodipodi:cy="1256.288"
   sodipodi:rx="3.0610001"
   sodipodi:ry="3.0610001"
   style="fill:#5c5c5c"
   d="m 283.328,1256.288 c 0,1.6905 -1.37046,3.061 -3.061,3.061 -1.69055,0 -3.061,-1.3705 -3.061,-3.061 0,-1.6906 1.37045,-3.061 3.061,-3.061 1.69054,0 3.061,1.3704 3.061,3.061 z" />
		<circle
   cx="292.72699"
   cy="1256.288"
   r="3.0610001"
   id="circle45"
   sodipodi:cx="292.72699"
   sodipodi:cy="1256.288"
   sodipodi:rx="3.0610001"
   sodipodi:ry="3.0610001"
   style="fill:#5c5c5c"
   d="m 295.78799,1256.288 c 0,1.6905 -1.37046,3.061 -3.061,3.061 -1.69054,0 -3.061,-1.3705 -3.061,-3.061 0,-1.6906 1.37046,-3.061 3.061,-3.061 1.69054,0 3.061,1.3704 3.061,3.061 z" />
		<circle
   cx="235.078"
   cy="1254.787"
   r="2.9909999"
   id="circle47"
   sodipodi:cx="235.078"
   sodipodi:cy="1254.787"
   sodipodi:rx="2.9909999"
   sodipodi:ry="2.9909999"
   style="fill:#c7c7c7"
   d="m 238.069,1254.787 c 0,1.6519 -1.33911,2.991 -2.991,2.991 -1.65188,0 -2.991,-1.3391 -2.991,-2.991 0,-1.6519 1.33912,-2.991 2.991,-2.991 1.65189,0 2.991,1.3391 2.991,2.991 z" />
		<circle
   cx="312.82901"
   cy="1254.787"
   r="2.9909999"
   id="circle49"
   sodipodi:cx="312.82901"
   sodipodi:cy="1254.787"
   sodipodi:rx="2.9909999"
   sodipodi:ry="2.9909999"
   style="fill:#c7c7c7"
   d="m 315.82001,1254.787 c 0,1.6519 -1.33912,2.991 -2.991,2.991 -1.65188,0 -2.991,-1.3391 -2.991,-2.991 0,-1.6519 1.33912,-2.991 2.991,-2.991 1.65188,0 2.991,1.3391 2.991,2.991 z" />
	</g>
	<rect
   x="237.741"
   y="1233.1219"
   width="46.214001"
   height="8.1999998"
   id="rect51"
   style="fill:#272727" />
	<circle
   cx="186.13901"
   cy="994.867"
   r="3.3469999"
   id="circle53"
   sodipodi:cx="186.13901"
   sodipodi:cy="994.867"
   sodipodi:rx="3.3469999"
   sodipodi:ry="3.3469999"
   style="fill:#c1c1c1"
   d="m 189.48601,994.867 c 0,1.8485 -1.49851,3.347 -3.347,3.347 -1.8485,0 -3.347,-1.4985 -3.347,-3.347 0,-1.84849 1.4985,-3.347 3.347,-3.347 1.84849,0 3.347,1.49851 3.347,3.347 z" />
	<circle
   cx="188.895"
   cy="1133.47"
   r="3.3469999"
   id="circle55"
   sodipodi:cx="188.895"
   sodipodi:cy="1133.47"
   sodipodi:rx="3.3469999"
   sodipodi:ry="3.3469999"
   style="fill:#c1c1c1"
   d="m 192.242,1133.47 c 0,1.8485 -1.4985,3.347 -3.347,3.347 -1.84849,0 -3.347,-1.4985 -3.347,-3.347 0,-1.8485 1.49851,-3.347 3.347,-3.347 1.8485,0 3.347,1.4985 3.347,3.347 z" />
	<circle
   cx="165.269"
   cy="1264.788"
   r="3.3469999"
   id="circle57"
   sodipodi:cx="165.269"
   sodipodi:cy="1264.788"
   sodipodi:rx="3.3469999"
   sodipodi:ry="3.3469999"
   style="fill:#c1c1c1"
   d="m 168.616,1264.788 c 0,1.8485 -1.49851,3.347 -3.347,3.347 -1.8485,0 -3.347,-1.4985 -3.347,-3.347 0,-1.8485 1.4985,-3.347 3.347,-3.347 1.84849,0 3.347,1.4985 3.347,3.347 z" />
	<circle
   cx="249.336"
   cy="1285.264"
   r="3.3469999"
   id="circle59"
   sodipodi:cx="249.336"
   sodipodi:cy="1285.264"
   sodipodi:rx="3.3469999"
   sodipodi:ry="3.3469999"
   style="fill:#c1c1c1"
   d="m 252.683,1285.264 c 0,1.8485 -1.4985,3.347 -3.347,3.347 -1.8485,0 -3.347,-1.4985 -3.347,-3.347 0,-1.8485 1.4985,-3.347 3.347,-3.347 1.8485,0 3.347,1.4985 3.347,3.347 z" />
	<circle
   cx="339.11401"
   cy="1286.249"
   r="3.3469999"
   id="circle61"
   sodipodi:cx="339.11401"
   sodipodi:cy="1286.249"
   sodipodi:rx="3.3469999"
   sodipodi:ry="3.3469999"
   style="fill:#c1c1c1"
   d="m 342.46101,1286.249 c 0,1.8485 -1.4985,3.347 -3.347,3.347 -1.84849,0 -3.347,-1.4985 -3.347,-3.347 0,-1.8485 1.49851,-3.347 3.347,-3.347 1.8485,0 3.347,1.4985 3.347,3.347 z" />
	<circle
   cx="379.276"
   cy="1199.031"
   r="3.3469999"
   id="circle63"
   sodipodi:cx="379.276"
   sodipodi:cy="1199.031"
   sodipodi:rx="3.3469999"
   sodipodi:ry="3.3469999"
   style="fill:#c1c1c1"
   d="m 382.623,1199.031 c 0,1.8485 -1.4985,3.347 -3.347,3.347 -1.8485,0 -3.347,-1.4985 -3.347,-3.347 0,-1.8485 1.4985,-3.347 3.347,-3.347 1.8485,0 3.347,1.4985 3.347,3.347 z" />
	<circle
   cx="300.31299"
   cy="1070.6219"
   r="3.3469999"
   id="circle65"
   sodipodi:cx="300.31299"
   sodipodi:cy="1070.6219"
   sodipodi:rx="3.3469999"
   sodipodi:ry="3.3469999"
   style="fill:#c1c1c1"
   d="m 303.65999,1070.6219 c 0,1.8485 -1.4985,3.347 -3.347,3.347 -1.8485,0 -3.347,-1.4985 -3.347,-3.347 0,-1.8484 1.4985,-3.347 3.347,-3.347 1.8485,0 3.347,1.4986 3.347,3.347 z" />
	<path
   d="m 220.033,281.037 c 0,0 -18.296,778.534 -17.763,785.697 0.519,6.971 8.079,11.367 13.793,13.124 2.834,0.873 21.433,3.99 32.646,3.99 13.508,0 34.745,-3.471 38.453,-5.325 3.748,-1.874 8.369,-5.391 9.171,-9.412 1.387,-6.964 -7.691,-353.19 -7.691,-353.19 L 220.033,281.037 z"
   id="path67"
   inkscape:connector-curvature="0"
   style="fill:#2d1912" />
	<path
   d="m 219.087,279.748 c 0,0 1.518,3.049 1.403,8.962 -1.683,86.959 -16.334,770.169 -15.825,776.827 0.645,8.435 13.554,12.185 17.137,12.749 2.551,0.4 18.52,2.842 28.257,2.826 9.737,-0.016 30.056,-2.313 33.396,-3.854 3.34,-1.541 12.513,-5.558 13.026,-12.236 0.513,-6.678 -17.838,-785.594 -17.838,-785.594 l -59.556,0.32 z"
   id="path69"
   inkscape:connector-curvature="0"
   style="fill:#412d26" />
	<path
   d="m 222.309,279.73 -3.194,0.018 v 0.061 c 0.199,0.433 1.481,3.445 1.375,8.901 -0.233,12.069 -0.717,35.626 -1.375,67.261 v 721.699 c 1.109,0.312 2.048,0.516 2.687,0.616 0.131,0.021 0.307,0.048 0.507,0.078 V 279.73 z"
   id="path71"
   inkscape:connector-curvature="0"
   style="fill:#3a2924" />
	<path
   d="M 247.447,1081.063 V 279.596 l -3.193,0.018 v 801.29 c 1.095,0.07 2.164,0.124 3.193,0.159 z"
   id="path73"
   inkscape:connector-curvature="0"
   style="fill:#3a2924" />
	<path
   d="m 234.599,1080.015 v -800.35 l -1.808,0.01 v 800.127 c 0.593,0.071 1.196,0.141 1.808,0.213 z"
   id="path75"
   inkscape:connector-curvature="0"
   style="fill:#53372e" />
	<path
   d="M 277.683,1078.595 V 279.433 l -1.808,0.01 v 799.436 c 0.629,-0.095 1.231,-0.19 1.808,-0.284 z"
   id="path77"
   inkscape:connector-curvature="0"
   style="fill:#53372e" />
	<path
   d="M 264.706,1080.227 V 279.503 l -2.048,0.011 v 800.903 c 0.682,-0.061 1.364,-0.124 2.048,-0.19 z"
   id="path79"
   inkscape:connector-curvature="0"
   style="fill:#46322d" />
	<circle
   cx="232.11301"
   cy="838.47498"
   r="4.198"
   id="circle81"
   sodipodi:cx="232.11301"
   sodipodi:cy="838.47498"
   sodipodi:rx="4.198"
   sodipodi:ry="4.198"
   style="fill:#e8e8e8"
   d="m 236.31101,838.47498 c 0,2.31849 -1.87951,4.198 -4.198,4.198 -2.31849,0 -4.198,-1.87951 -4.198,-4.198 0,-2.3185 1.87951,-4.198 4.198,-4.198 2.31849,0 4.198,1.8795 4.198,4.198 z" />
	<circle
   cx="268.73901"
   cy="838.47498"
   r="4.198"
   id="circle83"
   sodipodi:cx="268.73901"
   sodipodi:cy="838.47498"
   sodipodi:rx="4.198"
   sodipodi:ry="4.198"
   style="fill:#e8e8e8"
   d="m 272.93701,838.47498 c 0,2.31849 -1.8795,4.198 -4.198,4.198 -2.31849,0 -4.198,-1.87951 -4.198,-4.198 0,-2.3185 1.87951,-4.198 4.198,-4.198 2.3185,0 4.198,1.8795 4.198,4.198 z" />
	<circle
   cx="250.427"
   cy="729.203"
   r="4.198"
   id="circle85"
   sodipodi:cx="250.427"
   sodipodi:cy="729.203"
   sodipodi:rx="4.198"
   sodipodi:ry="4.198"
   style="fill:#e8e8e8"
   d="m 254.625,729.203 c 0,2.31849 -1.87951,4.198 -4.198,4.198 -2.31849,0 -4.198,-1.87951 -4.198,-4.198 0,-2.31849 1.87951,-4.198 4.198,-4.198 2.31849,0 4.198,1.87951 4.198,4.198 z" />
	<circle
   cx="250.427"
   cy="930.47101"
   r="4.198"
   id="circle87"
   sodipodi:cx="250.427"
   sodipodi:cy="930.47101"
   sodipodi:rx="4.198"
   sodipodi:ry="4.198"
   style="fill:#e8e8e8"
   d="m 254.625,930.47101 c 0,2.31849 -1.87951,4.198 -4.198,4.198 -2.31849,0 -4.198,-1.87951 -4.198,-4.198 0,-2.31849 1.87951,-4.198 4.198,-4.198 2.31849,0 4.198,1.87951 4.198,4.198 z" />
	<circle
   cx="250.427"
   cy="983.03497"
   r="4.198"
   id="circle89"
   sodipodi:cx="250.427"
   sodipodi:cy="983.03497"
   sodipodi:rx="4.198"
   sodipodi:ry="4.198"
   style="fill:#e8e8e8"
   d="m 254.625,983.03497 c 0,2.31849 -1.87951,4.198 -4.198,4.198 -2.31849,0 -4.198,-1.87951 -4.198,-4.198 0,-2.31849 1.87951,-4.198 4.198,-4.198 2.31849,0 4.198,1.87951 4.198,4.198 z" />
	<circle
   cx="250.427"
   cy="1030.324"
   r="4.198"
   id="circle91"
   sodipodi:cx="250.427"
   sodipodi:cy="1030.324"
   sodipodi:rx="4.198"
   sodipodi:ry="4.198"
   style="fill:#e8e8e8"
   d="m 254.625,1030.324 c 0,2.3185 -1.87951,4.198 -4.198,4.198 -2.31849,0 -4.198,-1.8795 -4.198,-4.198 0,-2.3185 1.87951,-4.198 4.198,-4.198 2.31849,0 4.198,1.8795 4.198,4.198 z" />
	<path
   d="m 354.217,1033.056 c 0,0 10.082,-5.572 15.734,-20.188 7.349,-19.001 5.962,-24.413 7.423,-31.024 1.559,-7.051 3.06,-9.771 2.745,-11.652 -0.37,-2.227 -5.641,4.453 -6.16,9.797 -0.519,5.344 -1.632,12.469 -5.417,25.31 -3.666,12.43 -14.325,27.757 -14.325,27.757 z"
   id="path93"
   inkscape:connector-curvature="0"
   style="opacity:0.7;fill:#ffffff" />
	<path
   d="m 129.252,852.239 c -0.628,2.695 4.672,17.697 6.199,26.411 1.209,6.896 1.914,24.38 2.785,31.891 1.167,10.062 2.964,15.183 7.276,26.501 7.11,18.663 17.607,23.896 17.607,23.896 0,0 -9.321,-11.987 -14.733,-27.399 -4.132,-11.769 -5.309,-16.269 -6.108,-24.165 -0.719,-7.098 -1.838,-16.729 -3.234,-31.981 -1.168,-12.757 -9.163,-27.85 -9.792,-25.154 z"
   id="path95"
   inkscape:connector-curvature="0"
   style="opacity:0.7;fill:#ffffff" />
	<path
   d="m 50.158,1329.442 c 0,0 4.776,-28.938 19.667,-66.866 19.638,-50.021 43.829,-72.767 44.11,-137.105 0.17,-39.053 -10.676,-53.943 -26.972,-117.72 -25.27,-98.899 12.362,-152.558 12.362,-152.558 0,0 -21.13,13.567 -25.286,70.8 -6.181,85.13 36.592,132.028 36.243,199.196 -0.281,53.943 -19.667,77.263 -41.019,127.553 -22.622,53.279 -19.105,76.7 -19.105,76.7 z"
   id="path97"
   inkscape:connector-curvature="0"
   style="opacity:0.7;fill:#ffffff" />
	<g
   id="g99">
		<path
   d="m 133.597,830.859 c 1.023,-0.801 1.737,-1.179 0.922,-2.827 -0.77,-1.561 -5.643,-3.263 -6.888,-3.678 l 0.003,-0.012 c 0,0 -0.062,-0.016 -0.15,-0.035 -0.084,-0.027 -0.146,-0.048 -0.146,-0.048 l -0.003,0.013 c -1.278,-0.287 -6.333,-1.348 -7.797,-0.411 -1.55,0.992 -1.133,1.685 -0.671,2.898 0.566,1.491 2.41,4.234 2.41,4.234 l 3.887,1.082 0.295,0.083 3.886,1.081 c 0,10e-4 2.999,-1.395 4.252,-2.38 z"
   id="path101"
   inkscape:connector-curvature="0"
   style="fill:#e6e6e7" />
		
			<rect
   x="124.389"
   y="828.62701"
   transform="matrix(-0.268,0.9634,-0.9634,-0.268,960.998,935.4953)"
   width="1.456"
   height="8.3830004"
   id="rect103"
   style="fill:#bbbcbf" />
		<path
   d="m 120.128,832.574 c -1.367,0.491 -2.835,4.537 -3.216,5.651 1.696,-0.048 3.442,0.033 5.245,0.263 2.77,0.353 5.212,1.119 7.383,2.231 0.313,-1.702 0.712,-4.626 -0.026,-5.534 -1.088,-1.335 -4.096,-2.077 -4.455,-2.163 -0.35,-0.109 -3.307,-1.028 -4.931,-0.448 z"
   id="path105"
   inkscape:connector-curvature="0"
   style="fill:#d0d1d3" />
	</g>
	<g
   id="g107">
		<path
   d="m 207.464,914.973 c -0.019,0.944 -0.038,1.888 -0.057,2.825 h 86.019 c -0.021,-0.938 -0.043,-1.881 -0.063,-2.825 h -85.899 z"
   id="path109"
   inkscape:connector-curvature="0"
   style="fill:#bbbcbf" />
		<path
   d="m 206.897,943.062 c -0.019,0.945 -0.038,1.888 -0.057,2.825 h 87.212 c -0.021,-0.938 -0.042,-1.88 -0.063,-2.825 h -87.092 z"
   id="path111"
   inkscape:connector-curvature="0"
   style="fill:#bbbcbf" />
		<path
   d="m 208.069,885.316 c -0.02,0.944 -0.039,1.885 -0.058,2.825 h 84.747 c -0.021,-0.938 -0.042,-1.882 -0.063,-2.825 h -84.626 z"
   id="path113"
   inkscape:connector-curvature="0"
   style="fill:#bbbcbf" />
		<path
   d="m 208.709,854.094 c -0.019,0.943 -0.039,1.886 -0.058,2.825 h 83.4 c -0.021,-0.939 -0.043,-1.882 -0.064,-2.825 h -83.278 z"
   id="path115"
   inkscape:connector-curvature="0"
   style="fill:#bbbcbf" />
		<path
   d="m 206.369,969.462 c -0.019,0.947 -0.038,1.89 -0.056,2.826 h 88.324 c -0.021,-0.937 -0.041,-1.879 -0.062,-2.826 h -88.206 z"
   id="path117"
   inkscape:connector-curvature="0"
   style="fill:#bbbcbf" />
		<path
   d="m 296.491,1064.148 c -10e-4,-0.626 -0.011,-1.577 -0.027,-2.825 h -91.787 c -0.014,1.185 -0.022,2.13 -0.024,2.825 h 91.838 z"
   id="path119"
   inkscape:connector-curvature="0"
   style="fill:#bbbcbf" />
		<path
   d="m 205.01,1040.468 c -0.018,0.969 -0.034,1.909 -0.05,2.826 h 91.183 c -0.018,-0.917 -0.035,-1.856 -0.056,-2.826 H 205.01 z"
   id="path121"
   inkscape:connector-curvature="0"
   style="fill:#bbbcbf" />
		<path
   d="m 205.421,1018.165 c -0.018,0.955 -0.036,1.896 -0.054,2.826 h 90.32 c -0.02,-0.93 -0.039,-1.871 -0.06,-2.826 h -90.206 z"
   id="path123"
   inkscape:connector-curvature="0"
   style="fill:#bbbcbf" />
		<path
   d="m 205.88,994.296 c -0.019,0.95 -0.037,1.892 -0.055,2.825 h 89.353 c -0.02,-0.934 -0.04,-1.876 -0.061,-2.825 H 205.88 z"
   id="path125"
   inkscape:connector-curvature="0"
   style="fill:#bbbcbf" />
		<path
   d="m 209.393,820.941 c -0.02,0.943 -0.039,1.885 -0.059,2.825 h 81.962 c -0.021,-0.94 -0.043,-1.882 -0.064,-2.825 h -81.839 z"
   id="path127"
   inkscape:connector-curvature="0"
   style="fill:#bbbcbf" />
		<path
   d="m 210.907,747.95 c -0.02,0.942 -0.039,1.884 -0.059,2.825 h 78.775 c -0.021,-0.941 -0.043,-1.883 -0.064,-2.825 h -78.652 z"
   id="path129"
   inkscape:connector-curvature="0"
   style="fill:#bbbcbf" />
		<path
   d="m 215.576,524.907 c -0.02,0.94 -0.04,1.882 -0.059,2.825 h 68.94 c -0.022,-0.943 -0.045,-1.884 -0.066,-2.825 h -68.815 z"
   id="path131"
   inkscape:connector-curvature="0"
   style="fill:#bbbcbf" />
		<path
   d="m 216.687,471.975 c -0.02,0.94 -0.04,1.882 -0.059,2.825 h 66.595 c -0.023,-0.943 -0.045,-1.886 -0.066,-2.825 h -66.47 z"
   id="path133"
   inkscape:connector-curvature="0"
   style="fill:#bbbcbf" />
		<path
   d="m 217.863,415.937 c -0.02,0.938 -0.04,1.879 -0.06,2.825 h 64.109 c -0.022,-0.946 -0.045,-1.886 -0.066,-2.825 h -63.983 z"
   id="path135"
   inkscape:connector-curvature="0"
   style="fill:#bbbcbf" />
		<path
   d="m 210.128,785.379 c -0.019,0.943 -0.039,1.885 -0.059,2.825 h 80.414 c -0.022,-0.94 -0.044,-1.882 -0.065,-2.825 h -80.29 z"
   id="path137"
   inkscape:connector-curvature="0"
   style="fill:#bbbcbf" />
		<path
   d="m 219.102,356.603 c -0.02,0.935 -0.04,1.876 -0.059,2.825 h 61.479 c -0.021,-0.949 -0.044,-1.891 -0.066,-2.825 h -61.354 z"
   id="path139"
   inkscape:connector-curvature="0"
   style="fill:#bbbcbf" />
		<path
   d="m 212.609,666.382 c -0.02,0.941 -0.039,1.883 -0.059,2.825 h 75.192 c -0.021,-0.941 -0.044,-1.884 -0.065,-2.825 h -75.068 z"
   id="path141"
   inkscape:connector-curvature="0"
   style="fill:#bbbcbf" />
		<path
   d="m 211.73,708.429 c -0.02,0.942 -0.04,1.884 -0.059,2.825 h 77.042 c -0.022,-0.941 -0.044,-1.883 -0.065,-2.825 H 211.73 z"
   id="path143"
   inkscape:connector-curvature="0"
   style="fill:#bbbcbf" />
		<path
   d="m 213.535,622.163 c -0.02,0.942 -0.04,1.883 -0.06,2.826 h 73.242 c -0.021,-0.942 -0.044,-1.884 -0.065,-2.826 h -73.117 z"
   id="path145"
   inkscape:connector-curvature="0"
   style="fill:#bbbcbf" />
		<path
   d="m 214.53,574.718 c -0.02,0.941 -0.04,1.883 -0.059,2.826 h 71.146 c -0.022,-0.942 -0.044,-1.885 -0.065,-2.826 H 214.53 z"
   id="path147"
   inkscape:connector-curvature="0"
   style="fill:#bbbcbf" />
	</g>
	<g
   id="g149">
		<path
   d="m 206.381,968.873 c -0.019,0.947 -0.038,1.89 -0.056,2.825 h 88.299 c -0.021,-0.937 -0.041,-1.877 -0.062,-2.825 h -88.181 z"
   id="path151"
   inkscape:connector-curvature="0"
   style="fill:#ededed" />
		<path
   d="m 206.909,942.473 c -0.019,0.945 -0.038,1.888 -0.057,2.825 h 87.188 c -0.021,-0.938 -0.042,-1.879 -0.063,-2.825 h -87.068 z"
   id="path153"
   inkscape:connector-curvature="0"
   style="fill:#ededed" />
		<path
   d="m 209.405,820.353 c -0.02,0.942 -0.039,1.885 -0.059,2.825 h 81.936 c -0.021,-0.94 -0.043,-1.883 -0.064,-2.825 h -81.813 z"
   id="path155"
   inkscape:connector-curvature="0"
   style="fill:#ededed" />
		<path
   d="m 208.721,853.505 c -0.02,0.942 -0.039,1.885 -0.058,2.825 h 83.375 c -0.021,-0.939 -0.044,-1.883 -0.064,-2.825 h -83.253 z"
   id="path157"
   inkscape:connector-curvature="0"
   style="fill:#ededed" />
		<path
   d="m 208.081,884.728 c -0.02,0.944 -0.039,1.885 -0.058,2.825 h 84.722 c -0.021,-0.938 -0.043,-1.882 -0.064,-2.825 h -84.6 z"
   id="path159"
   inkscape:connector-curvature="0"
   style="fill:#ededed" />
		<path
   d="m 207.477,914.384 c -0.02,0.945 -0.039,1.887 -0.058,2.825 h 85.993 c -0.021,-0.939 -0.042,-1.879 -0.063,-2.825 h -85.872 z"
   id="path161"
   inkscape:connector-curvature="0"
   style="fill:#ededed" />
		<path
   d="m 296.487,1063.56 c -0.004,-0.703 -0.016,-1.645 -0.031,-2.825 h -91.771 c -0.014,1.137 -0.023,2.083 -0.029,2.825 h 91.831 z"
   id="path163"
   inkscape:connector-curvature="0"
   style="fill:#ededed" />
		<path
   d="m 205.02,1039.879 c -0.017,0.966 -0.034,1.909 -0.05,2.825 h 91.162 c -0.019,-0.915 -0.037,-1.859 -0.056,-2.825 H 205.02 z"
   id="path165"
   inkscape:connector-curvature="0"
   style="fill:#ededed" />
		<path
   d="m 205.432,1017.576 c -0.018,0.955 -0.036,1.896 -0.053,2.825 h 90.297 c -0.021,-0.928 -0.04,-1.871 -0.06,-2.825 h -90.184 z"
   id="path167"
   inkscape:connector-curvature="0"
   style="fill:#ededed" />
		<path
   d="m 205.892,993.707 c -0.019,0.95 -0.037,1.891 -0.055,2.825 h 89.329 c -0.02,-0.934 -0.04,-1.876 -0.061,-2.825 h -89.213 z"
   id="path169"
   inkscape:connector-curvature="0"
   style="fill:#ededed" />
		<path
   d="m 219.114,356.013 c -0.02,0.936 -0.039,1.877 -0.059,2.826 h 61.453 c -0.022,-0.949 -0.044,-1.891 -0.065,-2.826 h -61.329 z"
   id="path171"
   inkscape:connector-curvature="0"
   style="fill:#ededed" />
		<path
   d="m 216.7,471.386 c -0.02,0.938 -0.04,1.882 -0.06,2.825 h 66.568 c -0.021,-0.944 -0.044,-1.886 -0.065,-2.825 H 216.7 z"
   id="path173"
   inkscape:connector-curvature="0"
   style="fill:#ededed" />
		<path
   d="m 214.542,574.129 c -0.02,0.941 -0.04,1.883 -0.06,2.826 h 71.12 c -0.021,-0.942 -0.044,-1.885 -0.065,-2.826 h -70.995 z"
   id="path175"
   inkscape:connector-curvature="0"
   style="fill:#ededed" />
		<path
   d="m 215.588,524.318 c -0.02,0.94 -0.04,1.882 -0.059,2.825 h 68.914 c -0.021,-0.944 -0.043,-1.885 -0.065,-2.825 h -68.79 z"
   id="path177"
   inkscape:connector-curvature="0"
   style="fill:#ededed" />
		<path
   d="m 210.141,784.79 c -0.02,0.942 -0.04,1.885 -0.059,2.825 h 80.387 c -0.022,-0.94 -0.043,-1.883 -0.065,-2.825 h -80.263 z"
   id="path179"
   inkscape:connector-curvature="0"
   style="fill:#ededed" />
		<path
   d="m 217.875,415.348 c -0.02,0.939 -0.04,1.88 -0.06,2.826 h 64.082 c -0.021,-0.945 -0.043,-1.888 -0.065,-2.826 h -63.957 z"
   id="path181"
   inkscape:connector-curvature="0"
   style="fill:#ededed" />
		<path
   d="m 211.743,707.839 c -0.02,0.942 -0.039,1.884 -0.059,2.826 H 288.7 c -0.022,-0.942 -0.044,-1.883 -0.065,-2.826 h -76.892 z"
   id="path183"
   inkscape:connector-curvature="0"
   style="fill:#ededed" />
		<path
   d="m 213.547,621.574 c -0.02,0.941 -0.04,1.884 -0.059,2.825 h 73.216 c -0.022,-0.942 -0.043,-1.884 -0.065,-2.825 h -73.092 z"
   id="path185"
   inkscape:connector-curvature="0"
   style="fill:#ededed" />
		<path
   d="m 210.919,747.361 c -0.02,0.942 -0.04,1.885 -0.059,2.826 h 78.75 c -0.021,-0.941 -0.044,-1.883 -0.065,-2.826 h -78.626 z"
   id="path187"
   inkscape:connector-curvature="0"
   style="fill:#ededed" />
		<path
   d="m 212.622,665.792 c -0.02,0.941 -0.04,1.883 -0.059,2.826 h 75.166 c -0.021,-0.942 -0.044,-1.884 -0.065,-2.826 h -75.042 z"
   id="path189"
   inkscape:connector-curvature="0"
   style="fill:#ededed" />
	</g>
	<path
   d="m 278.994,294.379 c -0.023,-0.988 -0.046,-1.93 -0.066,-2.825 h -58.493 c -0.018,0.896 -0.036,1.835 -0.056,2.825 h 58.615 z"
   id="path191"
   inkscape:connector-curvature="0"
   style="fill:#bbbcbf" />
	<path
   d="m 278.98,293.79 c -0.037,-1.557 -0.07,-2.997 -0.102,-4.312 h -58.404 c -0.026,1.313 -0.054,2.752 -0.085,4.312 h 58.591 z"
   id="path193"
   inkscape:connector-curvature="0"
   style="fill:#ffffff" />
	<circle
   cx="388.728"
   cy="1347.929"
   r="3.3469999"
   id="circle195"
   sodipodi:cx="388.728"
   sodipodi:cy="1347.929"
   sodipodi:rx="3.3469999"
   sodipodi:ry="3.3469999"
   style="fill:#c1c1c1"
   d="m 392.075,1347.929 c 0,1.8485 -1.49851,3.347 -3.347,3.347 -1.8485,0 -3.347,-1.4985 -3.347,-3.347 0,-1.8485 1.4985,-3.347 3.347,-3.347 1.84849,0 3.347,1.4985 3.347,3.347 z" />
	<circle
   cx="358.802"
   cy="1449.7159"
   r="3.3469999"
   id="circle197"
   sodipodi:cx="358.802"
   sodipodi:cy="1449.7159"
   sodipodi:rx="3.3469999"
   sodipodi:ry="3.3469999"
   style="fill:#c1c1c1"
   d="m 362.149,1449.7159 c 0,1.8485 -1.4985,3.347 -3.347,3.347 -1.8485,0 -3.347,-1.4985 -3.347,-3.347 0,-1.8485 1.4985,-3.347 3.347,-3.347 1.8485,0 3.347,1.4985 3.347,3.347 z" />
	<circle
   cx="422"
   cy="1402.464"
   r="3.3469999"
   id="circle199"
   sodipodi:cx="422"
   sodipodi:cy="1402.464"
   sodipodi:rx="3.3469999"
   sodipodi:ry="3.3469999"
   style="fill:#c1c1c1"
   d="m 425.347,1402.464 c 0,1.8485 -1.4985,3.347 -3.347,3.347 -1.8485,0 -3.347,-1.4985 -3.347,-3.347 0,-1.8485 1.4985,-3.347 3.347,-3.347 1.8485,0 3.347,1.4985 3.347,3.347 z" />
	<circle
   cx="423.57501"
   cy="1299.693"
   r="3.3469999"
   id="circle201"
   sodipodi:cx="423.57501"
   sodipodi:cy="1299.693"
   sodipodi:rx="3.3469999"
   sodipodi:ry="3.3469999"
   style="fill:#c1c1c1"
   d="m 426.92201,1299.693 c 0,1.8485 -1.4985,3.347 -3.347,3.347 -1.84849,0 -3.347,-1.4985 -3.347,-3.347 0,-1.8485 1.49851,-3.347 3.347,-3.347 1.8485,0 3.347,1.4985 3.347,3.347 z" />
	<circle
   cx="396.604"
   cy="1063.634"
   r="3.3469999"
   id="circle203"
   sodipodi:cx="396.604"
   sodipodi:cy="1063.634"
   sodipodi:rx="3.3469999"
   sodipodi:ry="3.3469999"
   style="fill:#c1c1c1"
   d="m 399.951,1063.634 c 0,1.8485 -1.4985,3.347 -3.347,3.347 -1.84849,0 -3.347,-1.4985 -3.347,-3.347 0,-1.8485 1.49851,-3.347 3.347,-3.347 1.8485,0 3.347,1.4985 3.347,3.347 z" />
	<circle
   cx="397.194"
   cy="993.54602"
   r="3.3469999"
   id="circle205"
   sodipodi:cx="397.194"
   sodipodi:cy="993.54602"
   sodipodi:rx="3.3469999"
   sodipodi:ry="3.3469999"
   style="fill:#c1c1c1"
   d="m 400.541,993.54602 c 0,1.8485 -1.4985,3.347 -3.347,3.347 -1.8485,0 -3.347,-1.4985 -3.347,-3.347 0,-1.8485 1.4985,-3.347 3.347,-3.347 1.8485,0 3.347,1.4985 3.347,3.347 z" />
	<g
   id="g207">
		<path
   d="m 401.671,1297.094 c 8.397,-0.161 13.08,10.254 13.322,18.327 0.194,6.463 -11.706,6.54 -11.706,6.54 0,0 -6.48,2.855 -8.559,0.969 -2.358,-2.142 -4.764,-10.692 -4.764,-14.129 10e-4,-6.466 5.243,-11.583 11.707,-11.707 z"
   id="path209"
   inkscape:connector-curvature="0"
   style="fill:#b8b8b8" />
		<circle
   cx="403.853"
   cy="1316.208"
   r="11.377"
   id="circle211"
   sodipodi:cx="403.853"
   sodipodi:cy="1316.208"
   sodipodi:rx="11.377"
   sodipodi:ry="11.377"
   style="fill:#ebebeb"
   d="m 415.23,1316.208 c 0,6.2834 -5.09366,11.377 -11.377,11.377 -6.28335,0 -11.377,-5.0936 -11.377,-11.377 0,-6.2833 5.09365,-11.377 11.377,-11.377 6.28334,0 11.377,5.0937 11.377,11.377 z" />
		<path
   d="m 393.081,1319.871 0,0 c 2.021,5.948 8.484,9.132 14.434,7.109 5.948,-2.022 9.131,-8.484 7.108,-14.433 v -10e-4 l -21.542,7.325 z"
   id="path213"
   inkscape:connector-curvature="0"
   style="fill:#d7d7d7" />
		<circle
   cx="403.853"
   cy="1316.209"
   r="10.103"
   id="circle215"
   sodipodi:cx="403.853"
   sodipodi:cy="1316.209"
   sodipodi:rx="10.103"
   sodipodi:ry="10.103"
   style="fill:#c9c9c9"
   d="m 413.956,1316.209 c 0,5.5797 -4.52327,10.103 -10.103,10.103 -5.57974,0 -10.103,-4.5233 -10.103,-10.103 0,-5.5797 4.52326,-10.103 10.103,-10.103 5.57973,0 10.103,4.5233 10.103,10.103 z" />
	</g>
	<g
   id="g217">
		<path
   d="m 410.314,1365.051 c 8.397,-0.161 13.08,10.254 13.322,18.327 0.194,6.463 -11.706,6.54 -11.706,6.54 0,0 -6.48,2.855 -8.559,0.969 -2.358,-2.142 -4.764,-10.692 -4.764,-14.129 10e-4,-6.466 5.245,-11.582 11.707,-11.707 z"
   id="path219"
   inkscape:connector-curvature="0"
   style="fill:#b8b8b8" />
		<circle
   cx="412.49701"
   cy="1384.166"
   r="11.377"
   id="circle221"
   sodipodi:cx="412.49701"
   sodipodi:cy="1384.166"
   sodipodi:rx="11.377"
   sodipodi:ry="11.377"
   style="fill:#ebebeb"
   d="m 423.87401,1384.166 c 0,6.2834 -5.09366,11.377 -11.377,11.377 -6.28334,0 -11.377,-5.0936 -11.377,-11.377 0,-6.2833 5.09366,-11.377 11.377,-11.377 6.28334,0 11.377,5.0937 11.377,11.377 z" />
		<path
   d="m 401.725,1387.827 0,0 c 2.022,5.949 8.484,9.133 14.434,7.11 5.948,-2.021 9.131,-8.483 7.108,-14.433 l 0,0 -21.542,7.323 z"
   id="path223"
   inkscape:connector-curvature="0"
   style="fill:#d7d7d7" />
		<circle
   cx="412.496"
   cy="1384.166"
   r="10.103"
   id="circle225"
   sodipodi:cx="412.496"
   sodipodi:cy="1384.166"
   sodipodi:rx="10.103"
   sodipodi:ry="10.103"
   style="fill:#c9c9c9"
   d="m 422.599,1384.166 c 0,5.5797 -4.52327,10.103 -10.103,10.103 -5.57973,0 -10.103,-4.5233 -10.103,-10.103 0,-5.5797 4.52327,-10.103 10.103,-10.103 5.57973,0 10.103,4.5233 10.103,10.103 z" />
	</g>
	<g
   id="g227">
		<circle
   cx="377.01599"
   cy="1436.223"
   r="10.466"
   id="circle229"
   sodipodi:cx="377.01599"
   sodipodi:cy="1436.223"
   sodipodi:rx="10.466"
   sodipodi:ry="10.466"
   style="fill:#808183"
   d="m 387.48199,1436.223 c 0,5.7802 -4.68579,10.466 -10.466,10.466 -5.78021,0 -10.466,-4.6858 -10.466,-10.466 0,-5.7802 4.68579,-10.466 10.466,-10.466 5.78021,0 10.466,4.6858 10.466,10.466 z" />
		<circle
   cx="377.367"
   cy="1435.8409"
   r="10.342"
   id="circle231"
   sodipodi:cx="377.367"
   sodipodi:cy="1435.8409"
   sodipodi:rx="10.342"
   sodipodi:ry="10.342"
   style="fill:#bbbcbf"
   d="m 387.709,1435.8409 c 0,5.7118 -4.63027,10.342 -10.342,10.342 -5.71172,0 -10.342,-4.6302 -10.342,-10.342 0,-5.7117 4.63028,-10.342 10.342,-10.342 5.71173,0 10.342,4.6303 10.342,10.342 z" />
		<polygon
   points="368.343,1435.956 372.843,1428.22 381.805,1428.254 386.043,1436.074 381.612,1443.636 372.697,1443.581 "
   id="polygon233"
   style="fill:#a6a8aa" />
		<polygon
   points="368.586,1435.799 373.012,1428.217 381.792,1428.258 386.146,1435.882 381.72,1443.466 372.94,1443.423 "
   id="polygon235"
   style="fill:#d0d1d3" />
		<circle
   cx="377.366"
   cy="1435.8409"
   r="4.0279999"
   id="circle237"
   sodipodi:cx="377.366"
   sodipodi:cy="1435.8409"
   sodipodi:rx="4.0279999"
   sodipodi:ry="4.0279999"
   style="fill:#272525"
   d="m 381.394,1435.8409 c 0,2.2246 -1.8034,4.028 -4.028,4.028 -2.22461,0 -4.028,-1.8034 -4.028,-4.028 0,-2.2246 1.80339,-4.028 4.028,-4.028 2.2246,0 4.028,1.8034 4.028,4.028 z" />
	</g>
	<path
   d="m 401.913,966.787 c -1.968,1.406 16.355,5.088 18.262,55.91 2.528,67.43 -33.139,90.191 -32.31,129.521 0.562,26.69 11.801,39.052 41.862,108.447 30.061,69.395 18.543,124.462 18.543,124.462 0,0 9.271,-22.476 1.685,-70.519 -10.712,-67.844 -56.752,-124.182 -58.156,-162.672 -1.507,-41.296 31.747,-54.505 32.31,-129.239 0.331,-44.109 -20.229,-57.314 -22.196,-55.91 z"
   id="path239"
   inkscape:connector-curvature="0"
   style="opacity:0.7;fill:#ffffff" />
	<g
   id="g241">
		<path
   d="m 242.843,1495.319 c -0.771,1.047 -1.358,1.603 -0.13,2.973 1.16,1.296 6.312,1.629 7.622,1.694 V 1500 c 0,0 0.063,0 0.153,-0.01 0.088,0 0.153,0.01 0.153,0.01 v -0.014 c 1.309,-0.065 6.462,-0.398 7.622,-1.694 1.228,-1.37 0.641,-1.926 -0.13,-2.973 -0.945,-1.283 -3.457,-3.433 -3.457,-3.433 h -4.035 -0.306 -4.034 c 0,10e-4 -2.515,2.15 -3.458,3.433 z"
   id="path243"
   inkscape:connector-curvature="0"
   style="fill:#e6e6e7" />
		<rect
   x="246.29601"
   y="1490.432"
   width="8.3839998"
   height="1.455"
   id="rect245"
   style="fill:#bbbcbf" />
		<path
   d="m 249.323,1487.883 c -1.778,0.037 -3.528,0.063 -5.265,0.087 0.106,0.605 0.473,2.077 1.56,2.386 1.406,0.399 4.503,0.363 4.87,0.357 0.368,0.01 3.462,0.042 4.871,-0.357 1.284,-0.364 1.563,-2.356 1.596,-2.62 -2.537,0.047 -5.081,0.096 -7.632,0.147 z"
   id="path247"
   inkscape:connector-curvature="0"
   style="fill:#d0d1d3" />
	</g>
	<circle
   cx="250.427"
   cy="645.40503"
   r="4.198"
   id="circle249"
   sodipodi:cx="250.427"
   sodipodi:cy="645.40503"
   sodipodi:rx="4.198"
   sodipodi:ry="4.198"
   style="fill:#e8e8e8"
   d="m 254.625,645.40503 c 0,2.31849 -1.87951,4.198 -4.198,4.198 -2.31849,0 -4.198,-1.87951 -4.198,-4.198 0,-2.31849 1.87951,-4.198 4.198,-4.198 2.31849,0 4.198,1.87951 4.198,4.198 z" />
	<circle
   cx="250.424"
   cy="550.89203"
   r="4.198"
   id="circle251"
   sodipodi:cx="250.424"
   sodipodi:cy="550.89203"
   sodipodi:rx="4.198"
   sodipodi:ry="4.198"
   style="fill:#e8e8e8"
   d="m 254.622,550.89203 c 0,2.31849 -1.87951,4.198 -4.198,4.198 -2.3185,0 -4.198,-1.87951 -4.198,-4.198 0,-2.31849 1.8795,-4.198 4.198,-4.198 2.31849,0 4.198,1.87951 4.198,4.198 z" />
	<circle
   cx="250.424"
   cy="444.806"
   r="4.198"
   id="circle253"
   sodipodi:cx="250.424"
   sodipodi:cy="444.806"
   sodipodi:rx="4.198"
   sodipodi:ry="4.198"
   style="fill:#e8e8e8"
   d="m 254.622,444.806 c 0,2.31849 -1.87951,4.198 -4.198,4.198 -2.3185,0 -4.198,-1.87951 -4.198,-4.198 0,-2.31849 1.8795,-4.198 4.198,-4.198 2.31849,0 4.198,1.87951 4.198,4.198 z" />
	<g
   id="g255">
		<path
   d="m 336.431,210.141 c 11.06,-2.174 10.155,-15.092 10.155,-15.092 0,0 8.359,-4.739 7.006,-13.586 -1.352,-8.845 -10.743,-10.874 -10.743,-10.874 0,0 -2.997,-12.597 -14.2,-11.368 -12.485,1.369 -10.635,11.473 -12.987,17.218 -1.91,4.66 -7.736,6.087 -7.736,6.087 l 1.788,11.565 c 0,0 5.965,-0.381 9.182,3.5 3.958,4.776 5.21,14.972 17.535,12.55 z"
   id="path257"
   inkscape:connector-curvature="0"
   style="fill:#a6a8aa" />
		<path
   d="m 336.979,210.505 c 11.061,-2.175 10.157,-15.093 10.157,-15.093 0,0 8.357,-4.74 7.006,-13.585 -1.352,-8.847 -10.744,-10.874 -10.744,-10.874 0,0 -2.996,-12.598 -14.201,-11.368 -12.484,1.37 -10.634,11.473 -12.986,17.215 -1.909,4.664 -8.211,6.179 -8.211,6.179 l 1.763,11.531 c 0,0 6.467,-0.437 9.682,3.442 3.959,4.78 5.211,14.975 17.534,12.553 z"
   id="path259"
   inkscape:connector-curvature="0"
   style="fill:#c1c1c1" />
		<path
   d="m 319.739,190.708 c 0.294,-0.045 1.244,-1.438 0.874,-3.858 -0.371,-2.424 -1.665,-3.547 -1.999,-3.497 -0.333,0.053 -10.312,1.615 -10.312,1.615 l 1.124,7.351 c 0.001,0 10.017,-1.566 10.313,-1.611 z"
   id="path261"
   inkscape:connector-curvature="0"
   style="fill:#59595b" />
		<path
   d="m 320.314,185.566 -11.647,1.78 0.396,2.594 11.644,-1.779 c 0,-0.4 -0.021,-0.83 -0.094,-1.311 -0.075,-0.485 -0.18,-0.902 -0.299,-1.284 z"
   id="path263"
   inkscape:connector-curvature="0"
   style="fill:#e6e6e7" />
	</g>
	<path
   d="m 184.962,246.18 c -1.384,7.294 2.426,24.875 14.18,27.059 13.849,2.573 21.383,5.008 21.383,5.008 l 56.014,-12.478 c 0,0 10.292,-19.939 19.698,-26.092 9.405,-6.152 16.412,-6.734 16.412,-6.734 l -0.236,-7.109 -25.042,-90.85 c 0,0 -0.274,-32.655 -0.187,-37.097 0.153,-7.736 2.695,-7.538 14.751,-18.627 12.056,-11.089 11.188,-28.495 11.188,-28.495 L 281.04,92.769 c 0,0 -95.234,148.964 -96.078,153.411 z"
   id="path265"
   inkscape:connector-curvature="0"
   style="fill:#cca871" />
	<path
   d="m 219.087,279.748 c 0.254,0.333 -7.163,-9.692 -17.628,-11.29 -12.647,-1.929 -18.65,-10.719 -16.078,-25.296 2.572,-14.577 37.86,-179.358 44.375,-211.586 5.389,-26.66 33.266,-34.7 53.324,-30.543 12.317,2.552 28.536,18.363 30.496,35.046 2.349,19.997 -5.308,31.869 -13.077,38.373 -8.312,6.958 -12.648,8.85 -12.648,28.083 10e-4,16.026 3.552,24.681 12.648,48.663 10.755,28.354 12.005,77.174 12.005,77.174 0,0 -2.571,-0.514 -11.781,3.924 -9.209,4.438 -21.21,18.763 -22.019,34.953 -0.223,4.438 -0.045,12.357 -0.045,12.357 l -59.572,0.142 z"
   id="path267"
   inkscape:connector-curvature="0"
   style="fill:#e8be80" />
	<path
   d="m 203.524,156.114 c -1.294,6.117 -2.568,12.144 -3.804,17.997 v 94.024 c 0.566,0.122 1.143,0.232 1.738,0.324 0.708,0.108 1.394,0.242 2.065,0.394 V 156.114 z"
   id="path269"
   inkscape:connector-curvature="0"
   style="fill:#e3b77a" />
	<path
   d="M 246.062,279.724 V 7.468 c -1.195,0.774 -2.35,1.612 -3.458,2.516 v 269.753 l 3.458,-0.013 z"
   id="path271"
   inkscape:connector-curvature="0"
   style="fill:#d9ac6d" />
	<path
   d="M 264.736,279.651 V 0.603 c -0.692,0.104 -1.384,0.222 -2.074,0.354 V 279.66 l 2.074,-0.009 z"
   id="path273"
   inkscape:connector-curvature="0"
   style="fill:#d6ac6b" />
	<path
   d="m 282.187,253.156 c 0.725,-1.631 1.538,-3.204 2.421,-4.711 V 1.418 c -0.515,-0.148 -1.025,-0.281 -1.527,-0.386 -0.294,-0.061 -0.596,-0.11 -0.894,-0.166 v 252.29 z"
   id="path275"
   inkscape:connector-curvature="0"
   style="fill:#daac6b" />
	<circle
   cx="217.224"
   cy="231.295"
   r="14.113"
   id="circle277"
   sodipodi:cx="217.224"
   sodipodi:cy="231.295"
   sodipodi:rx="14.113"
   sodipodi:ry="14.113"
   style="fill:#e6e6e7"
   d="m 231.337,231.295 c 0,7.79439 -6.31861,14.113 -14.113,14.113 -7.7944,0 -14.113,-6.31861 -14.113,-14.113 0,-7.7944 6.3186,-14.113 14.113,-14.113 7.79439,0 14.113,6.3186 14.113,14.113 z" />
	<circle
   cx="229.834"
   cy="174.47099"
   r="14.113"
   id="circle279"
   sodipodi:cx="229.834"
   sodipodi:cy="174.47099"
   sodipodi:rx="14.113"
   sodipodi:ry="14.113"
   style="fill:#e6e6e7"
   d="m 243.947,174.47099 c 0,7.7944 -6.31861,14.113 -14.113,14.113 -7.79439,0 -14.113,-6.3186 -14.113,-14.113 0,-7.79439 6.31861,-14.113 14.113,-14.113 7.79439,0 14.113,6.31861 14.113,14.113 z" />
	<circle
   cx="243.24001"
   cy="114.93"
   r="14.113"
   id="circle281"
   sodipodi:cx="243.24001"
   sodipodi:cy="114.93"
   sodipodi:rx="14.113"
   sodipodi:ry="14.113"
   style="fill:#e6e6e7"
   d="m 257.35301,114.93 c 0,7.79439 -6.31861,14.113 -14.113,14.113 -7.7944,0 -14.113,-6.31861 -14.113,-14.113 0,-7.79439 6.3186,-14.113 14.113,-14.113 7.79439,0 14.113,6.31861 14.113,14.113 z" />
	<circle
   cx="256.14499"
   cy="54.778999"
   r="14.113"
   id="circle283"
   sodipodi:cx="256.14499"
   sodipodi:cy="54.778999"
   sodipodi:rx="14.113"
   sodipodi:ry="14.113"
   style="fill:#e6e6e7"
   d="m 270.25799,54.778999 c 0,7.794395 -6.31861,14.113 -14.113,14.113 -7.7944,0 -14.113,-6.318605 -14.113,-14.113 0,-7.794394 6.3186,-14.113 14.113,-14.113 7.79439,0 14.113,6.318606 14.113,14.113 z" />
	<circle
   cx="216.968"
   cy="230.39799"
   r="11.433"
   id="circle285"
   sodipodi:cx="216.968"
   sodipodi:cy="230.39799"
   sodipodi:rx="11.433"
   sodipodi:ry="11.433"
   style="fill:#6d6e70"
   d="m 228.401,230.39799 c 0,6.31428 -5.11873,11.433 -11.433,11.433 -6.31427,0 -11.433,-5.11872 -11.433,-11.433 0,-6.31427 5.11873,-11.43299 11.433,-11.43299 6.31427,0 11.433,5.11872 11.433,11.43299 z" />
	<circle
   cx="229.57899"
   cy="173.57401"
   r="11.433"
   id="circle287"
   sodipodi:cx="229.57899"
   sodipodi:cy="173.57401"
   sodipodi:rx="11.433"
   sodipodi:ry="11.433"
   style="fill:#6d6e70"
   d="m 241.01199,173.57401 c 0,6.31427 -5.11872,11.43299 -11.433,11.43299 -6.31427,0 -11.43299,-5.11872 -11.43299,-11.43299 0,-6.31428 5.11872,-11.433 11.43299,-11.433 6.31428,0 11.433,5.11872 11.433,11.433 z" />
	<circle
   cx="242.985"
   cy="114.032"
   r="11.433"
   id="circle289"
   sodipodi:cx="242.985"
   sodipodi:cy="114.032"
   sodipodi:rx="11.433"
   sodipodi:ry="11.433"
   style="fill:#6d6e70"
   d="m 254.418,114.032 c 0,6.31427 -5.11873,11.433 -11.433,11.433 -6.31427,0 -11.433,-5.11873 -11.433,-11.433 0,-6.31427 5.11873,-11.433 11.433,-11.433 6.31427,0 11.433,5.11873 11.433,11.433 z" />
	<circle
   cx="255.88901"
   cy="53.882"
   r="11.433"
   id="circle291"
   sodipodi:cx="255.88901"
   sodipodi:cy="53.882"
   sodipodi:rx="11.433"
   sodipodi:ry="11.433"
   style="fill:#6d6e70"
   d="m 267.32201,53.882 c 0,6.314271 -5.11873,11.433 -11.433,11.433 -6.31427,0 -11.433,-5.118729 -11.433,-11.433 0,-6.314271 5.11873,-11.433 11.433,-11.433 6.31427,0 11.433,5.118729 11.433,11.433 z" />
	<g
   id="g293">
		<path
   d="m 173.184,183.522 c -11.123,-1.823 -14.785,10.598 -14.785,10.598 0,0 -9.487,1.523 -11.308,10.286 -1.821,8.762 6.273,13.939 6.273,13.939 0,0 -1.59,12.852 9.339,15.611 12.177,3.075 13.969,-7.04 18.179,-11.602 3.417,-3.702 9.375,-3.004 9.375,-3.004 l 2.36,-11.463 c 0,0 -5.723,-1.724 -7.381,-6.483 -2.044,-5.859 0.342,-15.85 -12.052,-17.882 z"
   id="path295"
   inkscape:connector-curvature="0"
   style="fill:#a6a8aa" />
		<path
   d="m 172.797,182.989 c -11.124,-1.823 -14.786,10.599 -14.786,10.599 0,0 -9.487,1.524 -11.307,10.286 -1.822,8.762 6.272,13.939 6.272,13.939 0,0 -1.589,12.851 9.339,15.61 12.177,3.075 13.969,-7.039 18.179,-11.6 3.417,-3.703 9.851,-2.924 9.851,-2.924 l 2.373,-11.42 c 0,0 -6.211,-1.848 -7.871,-6.606 -2.042,-5.861 0.344,-15.852 -12.05,-17.884 z"
   id="path297"
   inkscape:connector-curvature="0"
   style="fill:#c1c1c1" />
		<path
   d="m 182.043,207.56 c -0.292,-0.06 -1.668,0.914 -2.167,3.311 -0.498,2.399 0.323,3.904 0.653,3.973 0.331,0.067 10.226,2.087 10.226,2.087 l 1.513,-7.281 c 0.001,-0.001 -9.933,-2.03 -10.225,-2.09 z"
   id="path299"
   inkscape:connector-curvature="0"
   style="fill:#59595b" />
		<path
   d="m 179.708,212.176 11.537,2.397 0.534,-2.568 -11.533,-2.397 c -0.14,0.375 -0.271,0.784 -0.37,1.262 -0.098,0.481 -0.144,0.908 -0.168,1.306 z"
   id="path301"
   inkscape:connector-curvature="0"
   style="fill:#e6e6e7" />
	</g>
	<g
   id="g303">
		<path
   d="m 185.67,124.123 c -11.123,-1.823 -14.785,10.598 -14.785,10.598 0,0 -9.487,1.523 -11.307,10.286 -1.821,8.762 6.272,13.939 6.272,13.939 0,0 -1.589,12.852 9.34,15.61 12.177,3.075 13.969,-7.04 18.179,-11.602 3.417,-3.701 9.375,-3.004 9.375,-3.004 l 2.36,-11.463 c 0,0 -5.723,-1.724 -7.382,-6.483 -2.044,-5.859 0.342,-15.85 -12.052,-17.881 z"
   id="path305"
   inkscape:connector-curvature="0"
   style="fill:#a6a8aa" />
		<path
   d="m 185.283,123.588 c -11.124,-1.822 -14.786,10.599 -14.786,10.599 0,0 -9.486,1.524 -11.307,10.286 -1.822,8.762 6.272,13.939 6.272,13.939 0,0 -1.589,12.851 9.339,15.61 12.177,3.075 13.969,-7.039 18.179,-11.6 3.417,-3.704 9.851,-2.924 9.851,-2.924 l 2.373,-11.42 c 0,0 -6.211,-1.848 -7.871,-6.606 -2.042,-5.86 0.344,-15.851 -12.05,-17.884 z"
   id="path307"
   inkscape:connector-curvature="0"
   style="fill:#c1c1c1" />
		<path
   d="m 194.529,148.159 c -0.291,-0.06 -1.668,0.914 -2.167,3.311 -0.498,2.399 0.323,3.904 0.653,3.973 0.331,0.067 10.226,2.086 10.226,2.086 l 1.513,-7.281 c 0,0.001 -9.933,-2.028 -10.225,-2.089 z"
   id="path309"
   inkscape:connector-curvature="0"
   style="fill:#59595b" />
		<path
   d="m 192.194,152.776 11.537,2.397 0.534,-2.568 -11.532,-2.396 c -0.14,0.375 -0.271,0.784 -0.37,1.262 -0.099,0.479 -0.145,0.907 -0.169,1.305 z"
   id="path311"
   inkscape:connector-curvature="0"
   style="fill:#e6e6e7" />
	</g>
	<g
   id="g313">
		<path
   d="m 198.173,65.376 c -11.118,-1.855 -14.815,10.556 -14.815,10.556 0,0 -9.491,1.496 -11.337,10.253 -1.846,8.757 6.233,13.958 6.233,13.958 0,0 -1.626,12.847 9.294,15.637 12.169,3.109 13.989,-7 18.212,-11.55 3.427,-3.691 9.383,-2.978 9.383,-2.978 l 2.393,-11.456 c 0,0 -5.718,-1.741 -7.363,-6.504 -2.027,-5.865 0.388,-15.849 -12,-17.916 z"
   id="path315"
   inkscape:connector-curvature="0"
   style="fill:#a6a8aa" />
		<path
   d="m 197.788,64.841 c -11.119,-1.854 -14.816,10.556 -14.816,10.556 0,0 -9.491,1.498 -11.335,10.254 -1.847,8.757 6.232,13.957 6.232,13.957 0,0 -1.626,12.846 9.294,15.636 12.168,3.11 13.989,-6.999 18.212,-11.548 3.427,-3.693 9.859,-2.896 9.859,-2.896 l 2.406,-11.414 c 0,0 -6.206,-1.866 -7.852,-6.628 -2.027,-5.864 0.388,-15.849 -12,-17.917 z"
   id="path317"
   inkscape:connector-curvature="0"
   style="fill:#c1c1c1" />
		<path
   d="m 206.963,89.439 c -0.291,-0.062 -1.67,0.909 -2.176,3.304 -0.505,2.398 0.312,3.905 0.642,3.975 0.331,0.068 10.22,2.116 10.22,2.116 l 1.534,-7.276 c 0,-0.001 -9.928,-2.058 -10.22,-2.119 z"
   id="path319"
   inkscape:connector-curvature="0"
   style="fill:#59595b" />
		<path
   d="m 204.615,94.048 11.53,2.43 0.541,-2.566 -11.525,-2.43 c -0.141,0.374 -0.273,0.783 -0.374,1.261 -0.099,0.48 -0.147,0.908 -0.172,1.305 z"
   id="path321"
   inkscape:connector-curvature="0"
   style="fill:#e6e6e7" />
	</g>
	<g
   id="g323">
		<path
   d="m 210.648,5.756 c -11.123,-1.823 -14.785,10.599 -14.785,10.599 0,0 -9.487,1.523 -11.308,10.286 -1.821,8.762 6.273,13.939 6.273,13.939 0,0 -1.589,12.852 9.339,15.611 12.177,3.075 13.969,-7.04 18.179,-11.602 3.417,-3.702 9.375,-3.004 9.375,-3.004 l 2.36,-11.463 c 0,0 -5.723,-1.724 -7.382,-6.483 -2.043,-5.861 0.343,-15.851 -12.051,-17.883 z"
   id="path325"
   inkscape:connector-curvature="0"
   style="fill:#a6a8aa" />
		<path
   d="m 210.262,5.222 c -11.124,-1.823 -14.786,10.599 -14.786,10.599 0,0 -9.487,1.524 -11.307,10.286 -1.822,8.762 6.272,13.939 6.272,13.939 0,0 -1.589,12.851 9.339,15.61 12.177,3.075 13.969,-7.039 18.179,-11.6 3.417,-3.704 9.851,-2.925 9.851,-2.925 l 2.373,-11.42 c 0,0 -6.211,-1.848 -7.871,-6.606 -2.043,-5.859 0.343,-15.851 -12.05,-17.883 z"
   id="path327"
   inkscape:connector-curvature="0"
   style="fill:#c1c1c1" />
		<path
   d="m 219.507,29.793 c -0.292,-0.06 -1.668,0.914 -2.167,3.311 -0.498,2.399 0.323,3.904 0.653,3.973 0.331,0.067 10.226,2.087 10.226,2.087 l 1.513,-7.281 c 0.001,-10e-4 -9.933,-2.029 -10.225,-2.09 z"
   id="path329"
   inkscape:connector-curvature="0"
   style="fill:#59595b" />
		<path
   d="m 217.172,34.41 11.537,2.397 0.534,-2.568 -11.532,-2.397 c -0.14,0.375 -0.271,0.784 -0.37,1.262 -0.099,0.48 -0.145,0.908 -0.169,1.306 z"
   id="path331"
   inkscape:connector-curvature="0"
   style="fill:#e6e6e7" />
	</g>
	<circle
   cx="283.76901"
   cy="203.80901"
   r="14.113"
   id="circle333"
   sodipodi:cx="283.76901"
   sodipodi:cy="203.80901"
   sodipodi:rx="14.113"
   sodipodi:ry="14.113"
   style="fill:#e6e6e7"
   d="m 297.88201,203.80901 c 0,7.79439 -6.3186,14.113 -14.113,14.113 -7.79439,0 -14.113,-6.31861 -14.113,-14.113 0,-7.7944 6.31861,-14.113 14.113,-14.113 7.7944,0 14.113,6.3186 14.113,14.113 z" />
	<circle
   cx="283.51401"
   cy="202.912"
   r="11.433"
   id="circle335"
   sodipodi:cx="283.51401"
   sodipodi:cy="202.912"
   sodipodi:rx="11.433"
   sodipodi:ry="11.433"
   style="fill:#6d6e70"
   d="m 294.94701,202.912 c 0,6.31427 -5.11873,11.433 -11.433,11.433 -6.31427,0 -11.433,-5.11873 -11.433,-11.433 0,-6.31427 5.11873,-11.433 11.433,-11.433 6.31427,0 11.433,5.11873 11.433,11.433 z" />
	<g
   id="g337">
		<path
   d="m 199.375,1453.046 c 3.222,0 104.403,0 107.628,0 7.383,0 6.754,-4.084 6.754,-6.439 H 192.622 c 0,2.355 -0.629,6.439 6.753,6.439 z"
   id="path339"
   inkscape:connector-curvature="0"
   style="fill:#59595b" />
		<rect
   x="192.62199"
   y="1445.192"
   width="121.136"
   height="1.414"
   id="rect341"
   style="fill:#898988" />
		<path
   d="m 192.622,1400.435 v 44.758 h 121.136 v -44.758 c 0,-3.979 -3.255,-7.233 -7.233,-7.233 h -106.67 c -3.978,-10e-4 -7.233,3.254 -7.233,7.233 z"
   id="path343"
   inkscape:connector-curvature="0"
   style="fill:#e0e0e0" />
		<g
   id="g345">
			<path
   d="m 210.145,1403.81 -1.036,52.435 c -0.023,1.193 0.934,2.17 2.127,2.17 h 1.447 c 1.193,0 2.15,-0.977 2.127,-2.17 l -1.036,-52.435 h -3.629 z"
   id="path347"
   inkscape:connector-curvature="0"
   style="fill:#6d6e70" />
			<path
   d="m 211.236,1458.414 h 0.723 v -54.604 h -1.814 l -1.036,52.435 c -0.024,1.193 0.933,2.169 2.127,2.169 z"
   id="path349"
   inkscape:connector-curvature="0"
   style="fill:#a6a8aa" />
		</g>
		<g
   id="g351">
			<path
   d="m 231.673,1403.81 -1.036,52.435 c -0.023,1.193 0.934,2.17 2.128,2.17 h 1.446 c 1.194,0 2.15,-0.977 2.127,-2.17 l -1.037,-52.435 h -3.628 z"
   id="path353"
   inkscape:connector-curvature="0"
   style="fill:#6d6e70" />
			<path
   d="m 232.766,1458.414 h 0.723 v -54.604 h -1.815 l -1.036,52.435 c -0.023,1.193 0.934,2.169 2.128,2.169 z"
   id="path355"
   inkscape:connector-curvature="0"
   style="fill:#a6a8aa" />
		</g>
		<g
   id="g357">
			<path
   d="m 255.867,1403.81 -1.036,52.435 c -0.022,1.193 0.934,2.17 2.127,2.17 h 1.447 c 1.193,0 2.149,-0.977 2.127,-2.17 l -1.036,-52.435 h -3.629 z"
   id="path359"
   inkscape:connector-curvature="0"
   style="fill:#6d6e70" />
			<path
   d="m 256.958,1458.414 h 0.724 v -54.604 h -1.814 l -1.036,52.435 c -0.023,1.193 0.933,2.169 2.126,2.169 z"
   id="path361"
   inkscape:connector-curvature="0"
   style="fill:#a6a8aa" />
		</g>
		<g
   id="g363">
			<path
   d="m 279.342,1403.81 -1.036,52.435 c -0.023,1.193 0.934,2.17 2.127,2.17 h 1.447 c 1.193,0 2.149,-0.977 2.127,-2.17 l -1.036,-52.435 h -3.629 z"
   id="path365"
   inkscape:connector-curvature="0"
   style="fill:#6d6e70" />
			<path
   d="m 280.433,1458.414 h 0.724 v -54.604 h -1.814 l -1.036,52.435 c -0.025,1.193 0.932,2.169 2.126,2.169 z"
   id="path367"
   inkscape:connector-curvature="0"
   style="fill:#a6a8aa" />
		</g>
		<g
   id="g369">
			<path
   d="m 302.487,1403.81 -1.036,52.435 c -0.022,1.193 0.934,2.17 2.128,2.17 h 1.446 c 1.194,0 2.15,-0.977 2.128,-2.17 l -1.036,-52.435 h -3.63 z"
   id="path371"
   inkscape:connector-curvature="0"
   style="fill:#6d6e70" />
			<path
   d="m 303.579,1458.414 h 0.723 v -54.604 h -1.814 l -1.036,52.435 c -0.023,1.193 0.933,2.169 2.127,2.169 z"
   id="path373"
   inkscape:connector-curvature="0"
   style="fill:#a6a8aa" />
		</g>
		<g
   id="g375">
			<rect
   x="196.416"
   y="1429.061"
   width="21.823"
   height="9.2139997"
   id="rect377"
   style="fill:#f1f1f2" />
			<rect
   x="196.416"
   y="1433.668"
   width="21.823"
   height="4.6059999"
   id="rect379"
   style="fill:#bbbcbf" />
			<circle
   cx="199.425"
   cy="1433.667"
   r="1.761"
   id="circle381"
   sodipodi:cx="199.425"
   sodipodi:cy="1433.667"
   sodipodi:rx="1.761"
   sodipodi:ry="1.761"
   style="fill:#a6a8aa"
   d="m 201.186,1433.667 c 0,0.9726 -0.78842,1.761 -1.761,1.761 -0.97257,0 -1.761,-0.7884 -1.761,-1.761 0,-0.9726 0.78843,-1.761 1.761,-1.761 0.97258,0 1.761,0.7884 1.761,1.761 z" />
			<circle
   cx="215.23"
   cy="1433.667"
   r="1.761"
   id="circle383"
   sodipodi:cx="215.23"
   sodipodi:cy="1433.667"
   sodipodi:rx="1.761"
   sodipodi:ry="1.761"
   style="fill:#a6a8aa"
   d="m 216.991,1433.667 c 0,0.9726 -0.78843,1.761 -1.761,1.761 -0.97258,0 -1.761,-0.7884 -1.761,-1.761 0,-0.9726 0.78842,-1.761 1.761,-1.761 0.97257,0 1.761,0.7884 1.761,1.761 z" />
			<rect
   x="201.664"
   y="1433.261"
   width="11.329"
   height="0.81300002"
   id="rect385"
   style="fill:#434244" />
		</g>
		<g
   id="g387">
			<rect
   x="219.347"
   y="1423.998"
   width="21.823"
   height="9.2130003"
   id="rect389"
   style="fill:#f1f1f2" />
			<rect
   x="219.347"
   y="1428.604"
   width="21.823"
   height="4.6059999"
   id="rect391"
   style="fill:#bbbcbf" />
			<circle
   cx="222.356"
   cy="1428.604"
   r="1.761"
   id="circle393"
   sodipodi:cx="222.356"
   sodipodi:cy="1428.604"
   sodipodi:rx="1.761"
   sodipodi:ry="1.761"
   style="fill:#a6a8aa"
   d="m 224.117,1428.604 c 0,0.9726 -0.78842,1.761 -1.761,1.761 -0.97257,0 -1.761,-0.7884 -1.761,-1.761 0,-0.9726 0.78843,-1.761 1.761,-1.761 0.97258,0 1.761,0.7884 1.761,1.761 z" />
			<circle
   cx="238.161"
   cy="1428.604"
   r="1.761"
   id="circle395"
   sodipodi:cx="238.161"
   sodipodi:cy="1428.604"
   sodipodi:rx="1.761"
   sodipodi:ry="1.761"
   style="fill:#a6a8aa"
   d="m 239.922,1428.604 c 0,0.9726 -0.78843,1.761 -1.761,1.761 -0.97258,0 -1.761,-0.7884 -1.761,-1.761 0,-0.9726 0.78842,-1.761 1.761,-1.761 0.97257,0 1.761,0.7884 1.761,1.761 z" />
			<rect
   x="224.59399"
   y="1428.198"
   width="11.329"
   height="0.81300002"
   id="rect397"
   style="fill:#434244" />
		</g>
		<g
   id="g399">
			<rect
   x="242.278"
   y="1419.658"
   width="21.823999"
   height="9.2130003"
   id="rect401"
   style="fill:#f1f1f2" />
			<rect
   x="242.278"
   y="1424.265"
   width="21.823999"
   height="4.6059999"
   id="rect403"
   style="fill:#bbbcbf" />
			<circle
   cx="245.287"
   cy="1424.264"
   r="1.761"
   id="circle405"
   sodipodi:cx="245.287"
   sodipodi:cy="1424.264"
   sodipodi:rx="1.761"
   sodipodi:ry="1.761"
   style="fill:#a6a8aa"
   d="m 247.048,1424.264 c 0,0.9726 -0.78842,1.761 -1.761,1.761 -0.97257,0 -1.761,-0.7884 -1.761,-1.761 0,-0.9725 0.78843,-1.761 1.761,-1.761 0.97258,0 1.761,0.7885 1.761,1.761 z" />
			<circle
   cx="261.09299"
   cy="1424.264"
   r="1.761"
   id="circle407"
   sodipodi:cx="261.09299"
   sodipodi:cy="1424.264"
   sodipodi:rx="1.761"
   sodipodi:ry="1.761"
   style="fill:#a6a8aa"
   d="m 262.85399,1424.264 c 0,0.9726 -0.78843,1.761 -1.761,1.761 -0.97258,0 -1.761,-0.7884 -1.761,-1.761 0,-0.9725 0.78842,-1.761 1.761,-1.761 0.97257,0 1.761,0.7885 1.761,1.761 z" />
			<rect
   x="247.52499"
   y="1423.8571"
   width="11.329"
   height="0.81300002"
   id="rect409"
   style="fill:#434244" />
		</g>
		<g
   id="g411">
			<rect
   x="265.20901"
   y="1415.318"
   width="21.823"
   height="9.2130003"
   id="rect413"
   style="fill:#f1f1f2" />
			<rect
   x="265.20901"
   y="1419.925"
   width="21.823"
   height="4.6059999"
   id="rect415"
   style="fill:#bbbcbf" />
			<circle
   cx="268.21899"
   cy="1419.924"
   r="1.761"
   id="circle417"
   sodipodi:cx="268.21899"
   sodipodi:cy="1419.924"
   sodipodi:rx="1.761"
   sodipodi:ry="1.761"
   style="fill:#a6a8aa"
   d="m 269.97999,1419.924 c 0,0.9725 -0.78842,1.761 -1.761,1.761 -0.97257,0 -1.761,-0.7885 -1.761,-1.761 0,-0.9726 0.78843,-1.761 1.761,-1.761 0.97258,0 1.761,0.7884 1.761,1.761 z" />
			<circle
   cx="284.02399"
   cy="1419.924"
   r="1.761"
   id="circle419"
   sodipodi:cx="284.02399"
   sodipodi:cy="1419.924"
   sodipodi:rx="1.761"
   sodipodi:ry="1.761"
   style="fill:#a6a8aa"
   d="m 285.78499,1419.924 c 0,0.9725 -0.78843,1.761 -1.761,1.761 -0.97258,0 -1.761,-0.7885 -1.761,-1.761 0,-0.9726 0.78842,-1.761 1.761,-1.761 0.97257,0 1.761,0.7884 1.761,1.761 z" />
			<rect
   x="270.45599"
   y="1419.5179"
   width="11.329"
   height="0.81300002"
   id="rect421"
   style="fill:#434244" />
		</g>
		<g
   id="g423">
			<rect
   x="288.14099"
   y="1411.701"
   width="21.823"
   height="9.2130003"
   id="rect425"
   style="fill:#f1f1f2" />
			<rect
   x="288.14099"
   y="1416.309"
   width="21.823"
   height="4.605"
   id="rect427"
   style="fill:#bbbcbf" />
			<circle
   cx="291.14899"
   cy="1416.308"
   r="1.761"
   id="circle429"
   sodipodi:cx="291.14899"
   sodipodi:cy="1416.308"
   sodipodi:rx="1.761"
   sodipodi:ry="1.761"
   style="fill:#a6a8aa"
   d="m 292.90999,1416.308 c 0,0.9726 -0.78843,1.761 -1.761,1.761 -0.97258,0 -1.761,-0.7884 -1.761,-1.761 0,-0.9726 0.78842,-1.761 1.761,-1.761 0.97257,0 1.761,0.7884 1.761,1.761 z" />
			<circle
   cx="306.95499"
   cy="1416.308"
   r="1.761"
   id="circle431"
   sodipodi:cx="306.95499"
   sodipodi:cy="1416.308"
   sodipodi:rx="1.761"
   sodipodi:ry="1.761"
   style="fill:#a6a8aa"
   d="m 308.71599,1416.308 c 0,0.9726 -0.78843,1.761 -1.761,1.761 -0.97258,0 -1.761,-0.7884 -1.761,-1.761 0,-0.9726 0.78842,-1.761 1.761,-1.761 0.97257,0 1.761,0.7884 1.761,1.761 z" />
			<rect
   x="293.388"
   y="1415.901"
   width="11.328"
   height="0.81300002"
   id="rect433"
   style="fill:#434244" />
		</g>
		<path
   d="m 199.375,1453.046 c -5.427,0 -6.523,-2.207 -6.724,-4.313 h -0.029 c 0,2.356 -0.629,6.441 6.753,6.441 3.286,0 104.342,0 107.628,0 7.383,0 6.754,-4.085 6.754,-6.441 h -0.029 c -0.201,2.105 -1.298,4.313 -6.725,4.313 -3.285,0 -104.341,0 -107.628,0 z"
   id="path435"
   inkscape:connector-curvature="0"
   style="fill:#d7d7d7" />
	</g>
	<polygon
   points="297.238,1453.03 274.998,200.761 273.4,200.783 295.64,1453.05 "
   id="polygon437"
   style="fill:#bbbcbf" />
	<polygon
   points="274.392,1453.04 265.788,50.227 263.145,50.237 271.748,1453.05 "
   id="polygon439"
   style="fill:#bbbcbf" />
	<polygon
   points="252.833,1453.027 253.509,108.276 250.373,108.288 249.698,1453.038 "
   id="polygon441"
   style="fill:#bbbcbf" />
	<polygon
   points="229.284,1453.044 240.411,169.839 237.215,169.822 226.089,1453.027 "
   id="polygon443"
   style="fill:#bbbcbf" />
	<polygon
   points="209.356,1453.044 227.972,226.695 223.669,226.63 205.073,1453.044 "
   id="polygon445"
   style="fill:#bbbcbf" />
	<circle
   cx="242.90601"
   cy="112.745"
   r="11.433"
   id="circle447"
   sodipodi:cx="242.90601"
   sodipodi:cy="112.745"
   sodipodi:rx="11.433"
   sodipodi:ry="11.433"
   style="fill:#929496"
   d="m 254.33901,112.745 c 0,6.31427 -5.11873,11.433 -11.433,11.433 -6.31428,0 -11.433,-5.11873 -11.433,-11.433 0,-6.31427 5.11872,-11.433 11.433,-11.433 6.31427,0 11.433,5.11873 11.433,11.433 z" />
	<circle
   cx="242.90601"
   cy="110.575"
   r="10.428"
   id="circle449"
   sodipodi:cx="242.90601"
   sodipodi:cy="110.575"
   sodipodi:rx="10.428"
   sodipodi:ry="10.428"
   style="fill:#bbbcbf"
   d="m 253.33401,110.575 c 0,5.75922 -4.66878,10.428 -10.428,10.428 -5.75923,0 -10.428,-4.66878 -10.428,-10.428 0,-5.75923 4.66877,-10.428 10.428,-10.428 5.75922,0 10.428,4.66877 10.428,10.428 z" />
	<circle
   cx="242.90601"
   cy="110.575"
   r="9.1709995"
   id="circle451"
   sodipodi:cx="242.90601"
   sodipodi:cy="110.575"
   sodipodi:rx="9.1709995"
   sodipodi:ry="9.1709995"
   style="fill:#e6e6e7"
   d="m 252.07701,110.575 c 0,5.065 -4.106,9.171 -9.171,9.171 -5.06501,0 -9.171,-4.106 -9.171,-9.171 0,-5.06501 4.10599,-9.171 9.171,-9.171 5.065,0 9.171,4.10599 9.171,9.171 z" />
	<path
   d="m 239.833,119.174 c 1.274,0.454 2.639,0.633 3.993,0.499 l 2.041,-17.8 c -1.282,-0.434 -2.648,-0.587 -4.002,-0.432 l -2.032,17.733 z"
   id="path453"
   inkscape:connector-curvature="0"
   style="fill:#929496" />
	<circle
   cx="255.81"
   cy="52.594002"
   r="11.433"
   id="circle455"
   sodipodi:cx="255.81"
   sodipodi:cy="52.594002"
   sodipodi:rx="11.433"
   sodipodi:ry="11.433"
   style="fill:#929496"
   d="m 267.243,52.594002 c 0,6.314271 -5.11873,11.432999 -11.433,11.432999 -6.31427,0 -11.433,-5.118728 -11.433,-11.432999 0,-6.314272 5.11873,-11.433 11.433,-11.433 6.31427,0 11.433,5.118728 11.433,11.433 z" />
	<circle
   cx="255.81"
   cy="50.424"
   r="10.428"
   id="circle457"
   sodipodi:cx="255.81"
   sodipodi:cy="50.424"
   sodipodi:rx="10.428"
   sodipodi:ry="10.428"
   style="fill:#bbbcbf"
   d="m 266.238,50.424 c 0,5.759225 -4.66878,10.428 -10.428,10.428 -5.75923,0 -10.428,-4.668775 -10.428,-10.428 0,-5.759226 4.66877,-10.428001 10.428,-10.428001 5.75922,0 10.428,4.668775 10.428,10.428001 z" />
	<circle
   cx="255.81"
   cy="50.424"
   r="9.1709995"
   id="circle459"
   sodipodi:cx="255.81"
   sodipodi:cy="50.424"
   sodipodi:rx="9.1709995"
   sodipodi:ry="9.1709995"
   style="fill:#e6e6e7"
   d="m 264.981,50.424 c 0,5.065003 -4.106,9.170999 -9.171,9.170999 -5.06501,0 -9.171,-4.105996 -9.171,-9.170999 0,-5.065003 4.10599,-9.171 9.171,-9.171 5.065,0 9.171,4.105997 9.171,9.171 z" />
	<path
   d="m 247.494,54.29 c 0.57,1.226 1.4,2.324 2.447,3.195 l 14.112,-11.037 c -0.589,-1.218 -1.439,-2.298 -2.499,-3.154 l -14.06,10.996 z"
   id="path461"
   inkscape:connector-curvature="0"
   style="fill:#929496" />
	<circle
   cx="247.505"
   cy="210.123"
   r="11.839"
   id="circle463"
   sodipodi:cx="247.505"
   sodipodi:cy="210.123"
   sodipodi:rx="11.839"
   sodipodi:ry="11.839"
   style="fill:#d0d1d3"
   d="m 259.344,210.123 c 0,6.5385 -5.3005,11.839 -11.839,11.839 -6.53849,0 -11.83899,-5.3005 -11.83899,-11.839 0,-6.5385 5.3005,-11.839 11.83899,-11.839 6.5385,0 11.839,5.3005 11.839,11.839 z" />
	<circle
   cx="247.505"
   cy="210.123"
   r="8.1120005"
   id="circle465"
   sodipodi:cx="247.505"
   sodipodi:cy="210.123"
   sodipodi:rx="8.1120005"
   sodipodi:ry="8.1120005"
   style="fill:#929496"
   d="m 255.61701,210.123 c 0,4.48014 -3.63187,8.112 -8.11201,8.112 -4.48013,0 -8.112,-3.63186 -8.112,-8.112 0,-4.48013 3.63187,-8.112 8.112,-8.112 4.48014,0 8.11201,3.63187 8.11201,8.112 z" />
	<circle
   cx="247.505"
   cy="210.123"
   r="7.382"
   id="circle467"
   sodipodi:cx="247.505"
   sodipodi:cy="210.123"
   sodipodi:rx="7.382"
   sodipodi:ry="7.382"
   style="fill:#d0d1d3"
   d="m 254.887,210.123 c 0,4.07697 -3.30503,7.382 -7.382,7.382 -4.07696,0 -7.382,-3.30503 -7.382,-7.382 0,-4.07696 3.30504,-7.382 7.382,-7.382 4.07697,0 7.382,3.30504 7.382,7.382 z" />
	<circle
   cx="247.505"
   cy="210.123"
   r="4.4590001"
   id="circle469"
   sodipodi:cx="247.505"
   sodipodi:cy="210.123"
   sodipodi:rx="4.4590001"
   sodipodi:ry="4.4590001"
   style="fill:#808183"
   d="m 251.964,210.123 c 0,2.46264 -1.99636,4.459 -4.459,4.459 -2.46263,0 -4.459,-1.99636 -4.459,-4.459 0,-2.46264 1.99637,-4.459 4.459,-4.459 2.46264,0 4.459,1.99636 4.459,4.459 z" />
	
		<rect
   x="244.946"
   y="209.465"
   transform="matrix(0.4696,-0.8829,0.8829,0.4696,-54.2301,329.9822)"
   width="5.1170001"
   height="1.3150001"
   id="rect471"
   style="fill:#d0d1d3" />
	
		<rect
   x="244.946"
   y="209.465"
   transform="matrix(-0.883,-0.4694,0.4694,-0.883,367.4151,511.8376)"
   width="5.1170001"
   height="1.3150001"
   id="rect473"
   style="fill:#d0d1d3" />
	<circle
   cx="270.651"
   cy="247.735"
   r="11.839"
   id="circle475"
   sodipodi:cx="270.651"
   sodipodi:cy="247.735"
   sodipodi:rx="11.839"
   sodipodi:ry="11.839"
   style="fill:#d0d1d3"
   d="m 282.49,247.735 c 0,6.5385 -5.3005,11.839 -11.839,11.839 -6.5385,0 -11.839,-5.3005 -11.839,-11.839 0,-6.5385 5.3005,-11.839 11.839,-11.839 6.5385,0 11.839,5.3005 11.839,11.839 z" />
	<circle
   cx="270.651"
   cy="247.735"
   r="8.1120005"
   id="circle477"
   sodipodi:cx="270.651"
   sodipodi:cy="247.735"
   sodipodi:rx="8.1120005"
   sodipodi:ry="8.1120005"
   style="fill:#929496"
   d="m 278.763,247.735 c 0,4.48013 -3.63186,8.112 -8.112,8.112 -4.48013,0 -8.112,-3.63187 -8.112,-8.112 0,-4.48013 3.63187,-8.112 8.112,-8.112 4.48014,0 8.112,3.63187 8.112,8.112 z" />
	<circle
   cx="270.651"
   cy="247.735"
   r="7.382"
   id="circle479"
   sodipodi:cx="270.651"
   sodipodi:cy="247.735"
   sodipodi:rx="7.382"
   sodipodi:ry="7.382"
   style="fill:#d0d1d3"
   d="m 278.033,247.735 c 0,4.07697 -3.30503,7.382 -7.382,7.382 -4.07697,0 -7.382,-3.30503 -7.382,-7.382 0,-4.07697 3.30503,-7.382 7.382,-7.382 4.07697,0 7.382,3.30503 7.382,7.382 z" />
	<circle
   cx="270.651"
   cy="247.735"
   r="4.4590001"
   id="circle481"
   sodipodi:cx="270.651"
   sodipodi:cy="247.735"
   sodipodi:rx="4.4590001"
   sodipodi:ry="4.4590001"
   style="fill:#808183"
   d="m 275.11,247.735 c 0,2.46264 -1.99636,4.459 -4.459,4.459 -2.46264,0 -4.459,-1.99636 -4.459,-4.459 0,-2.46264 1.99636,-4.459 4.459,-4.459 2.46264,0 4.459,1.99636 4.459,4.459 z" />
	
		<rect
   x="268.09299"
   y="247.078"
   transform="matrix(0.4696,-0.8829,0.8829,0.4696,-75.1705,370.3405)"
   width="5.118"
   height="1.3150001"
   id="rect483"
   style="fill:#d0d1d3" />
	
		<rect
   x="268.09299"
   y="247.078"
   transform="matrix(-0.883,-0.4694,0.4694,-0.883,393.3287,593.5314)"
   width="5.1160002"
   height="1.3150001"
   id="rect485"
   style="fill:#d0d1d3" />
	<circle
   cx="216.88901"
   cy="229.11"
   r="11.433"
   id="circle487"
   sodipodi:cx="216.88901"
   sodipodi:cy="229.11"
   sodipodi:rx="11.433"
   sodipodi:ry="11.433"
   style="fill:#929496"
   d="m 228.32201,229.11 c 0,6.31427 -5.11873,11.433 -11.433,11.433 -6.31427,0 -11.433,-5.11873 -11.433,-11.433 0,-6.31427 5.11873,-11.433 11.433,-11.433 6.31427,0 11.433,5.11873 11.433,11.433 z" />
	<circle
   cx="216.88901"
   cy="226.94"
   r="10.427"
   id="circle489"
   sodipodi:cx="216.88901"
   sodipodi:cy="226.94"
   sodipodi:rx="10.427"
   sodipodi:ry="10.427"
   style="fill:#bbbcbf"
   d="m 227.31601,226.94 c 0,5.75868 -4.66833,10.427 -10.427,10.427 -5.75868,0 -10.427,-4.66832 -10.427,-10.427 0,-5.75867 4.66832,-10.427 10.427,-10.427 5.75867,0 10.427,4.66833 10.427,10.427 z" />
	<circle
   cx="216.88901"
   cy="226.94"
   r="9.1709995"
   id="circle491"
   sodipodi:cx="216.88901"
   sodipodi:cy="226.94"
   sodipodi:rx="9.1709995"
   sodipodi:ry="9.1709995"
   style="fill:#e6e6e7"
   d="m 226.06001,226.94 c 0,5.06501 -4.106,9.171 -9.171,9.171 -5.06501,0 -9.171,-4.10599 -9.171,-9.171 0,-5.065 4.10599,-9.171 9.171,-9.171 5.065,0 9.171,4.106 9.171,9.171 z" />
	<path
   d="m 207.727,227.597 c 0.096,1.35 0.479,2.671 1.146,3.858 l 17.122,-5.275 c -0.116,-1.348 -0.524,-2.661 -1.209,-3.838 l -17.059,5.255 z"
   id="path493"
   inkscape:connector-curvature="0"
   style="fill:#929496" />
	<circle
   cx="229.5"
   cy="172.286"
   r="11.433"
   id="circle495"
   sodipodi:cx="229.5"
   sodipodi:cy="172.286"
   sodipodi:rx="11.433"
   sodipodi:ry="11.433"
   style="fill:#929496"
   d="m 240.933,172.286 c 0,6.31427 -5.11873,11.433 -11.433,11.433 -6.31427,0 -11.433,-5.11873 -11.433,-11.433 0,-6.31428 5.11873,-11.433 11.433,-11.433 6.31427,0 11.433,5.11872 11.433,11.433 z" />
	<circle
   cx="229.5"
   cy="170.116"
   r="10.428"
   id="circle497"
   sodipodi:cx="229.5"
   sodipodi:cy="170.116"
   sodipodi:rx="10.428"
   sodipodi:ry="10.428"
   style="fill:#bbbcbf"
   d="m 239.928,170.116 c 0,5.75922 -4.66877,10.428 -10.428,10.428 -5.75923,0 -10.428,-4.66878 -10.428,-10.428 0,-5.75923 4.66877,-10.428 10.428,-10.428 5.75923,0 10.428,4.66877 10.428,10.428 z" />
	<circle
   cx="229.5"
   cy="170.116"
   r="9.1709995"
   id="circle499"
   sodipodi:cx="229.5"
   sodipodi:cy="170.116"
   sodipodi:rx="9.1709995"
   sodipodi:ry="9.1709995"
   style="fill:#e6e6e7"
   d="m 238.671,170.116 c 0,5.065 -4.106,9.171 -9.171,9.171 -5.065,0 -9.171,-4.106 -9.171,-9.171 0,-5.06501 4.106,-9.171 9.171,-9.171 5.065,0 9.171,4.10599 9.171,9.171 z" />
	<path
   d="m 221.136,173.881 c 0.556,1.233 1.372,2.34 2.408,3.225 l 14.245,-10.865 c -0.574,-1.225 -1.411,-2.316 -2.461,-3.184 l -14.192,10.824 z"
   id="path501"
   inkscape:connector-curvature="0"
   style="fill:#929496" />
	<circle
   cx="283.435"
   cy="201.62399"
   r="11.433"
   id="circle503"
   sodipodi:cx="283.435"
   sodipodi:cy="201.62399"
   sodipodi:rx="11.433"
   sodipodi:ry="11.433"
   style="fill:#929496"
   d="m 294.868,201.62399 c 0,6.31427 -5.11873,11.433 -11.433,11.433 -6.31427,0 -11.433,-5.11873 -11.433,-11.433 0,-6.31427 5.11873,-11.433 11.433,-11.433 6.31427,0 11.433,5.11873 11.433,11.433 z" />
	<circle
   cx="283.435"
   cy="199.45399"
   r="10.428"
   id="circle505"
   sodipodi:cx="283.435"
   sodipodi:cy="199.45399"
   sodipodi:rx="10.428"
   sodipodi:ry="10.428"
   style="fill:#bbbcbf"
   d="m 293.863,199.45399 c 0,5.75923 -4.66878,10.42801 -10.428,10.42801 -5.75923,0 -10.428,-4.66878 -10.428,-10.42801 0,-5.75922 4.66877,-10.428 10.428,-10.428 5.75922,0 10.428,4.66878 10.428,10.428 z" />
	<circle
   cx="283.435"
   cy="199.45399"
   r="9.1709995"
   id="circle507"
   sodipodi:cx="283.435"
   sodipodi:cy="199.45399"
   sodipodi:rx="9.1709995"
   sodipodi:ry="9.1709995"
   style="fill:#e6e6e7"
   d="m 292.606,199.45399 c 0,5.06501 -4.106,9.171 -9.171,9.171 -5.06501,0 -9.171,-4.10599 -9.171,-9.171 0,-5.065 4.10599,-9.17099 9.171,-9.17099 5.065,0 9.171,4.10599 9.171,9.17099 z" />
	<path
   d="m 278.823,207.347 c 1.17,0.681 2.477,1.108 3.833,1.227 l 5.284,-17.119 c -1.178,-0.664 -2.493,-1.065 -3.853,-1.163 l -5.264,17.055 z"
   id="path509"
   inkscape:connector-curvature="0"
   style="fill:#929496" />
</g>
</svg>