<?xml version="1.0" encoding="UTF-8" standalone="no"?>
<!-- Generator: Adobe Illustrator 13.0.0, SVG Export Plug-In . SVG Version: 6.00 Build 14948)  -->

<svg
   xmlns:dc="http://purl.org/dc/elements/1.1/"
   xmlns:cc="http://creativecommons.org/ns#"
   xmlns:rdf="http://www.w3.org/1999/02/22-rdf-syntax-ns#"
   xmlns:svg="http://www.w3.org/2000/svg"
   xmlns="http://www.w3.org/2000/svg"
   xmlns:sodipodi="http://sodipodi.sourceforge.net/DTD/sodipodi-0.dtd"
   xmlns:inkscape="http://www.inkscape.org/namespaces/inkscape"
   version="1.1"
   id="guitar"
   inkscape:version="0.48.5 r10040"
   sodipodi:docname="stratocaster.svg"
   x="0px"
   y="0px"
   width="512"
   height="174"
   viewBox="0 0 512 174"
   enable-background="new 0 0 1000 115"
   xml:space="preserve"><metadata
   id="metadata353"><rdf:RDF><cc:Work
       rdf:about=""><dc:format>image/svg+xml</dc:format><dc:type
         rdf:resource="http://purl.org/dc/dcmitype/StillImage" /></cc:Work></rdf:RDF></metadata><defs
   id="defs351" />
<sodipodi:namedview
   id="namedview695"
   inkscape:current-layer="g4442"
   inkscape:window-y="-8"
   inkscape:window-x="1912"
   inkscape:window-height="1018"
   inkscape:window-width="1920"
   inkscape:pageshadow="2"
   inkscape:pageopacity="0"
   pagecolor="#ffffff"
   inkscape:cy="233.34371"
   guidetolerance="10"
   inkscape:cx="192.19277"
   gridtolerance="10"
   objecttolerance="10"
   inkscape:zoom="1.84375"
   borderopacity="1"
   showgrid="false"
   bordercolor="#666666"
   inkscape:window-maximized="1">
	</sodipodi:namedview>
<g
   id="g3"
   transform="matrix(0,-4.019452,4.019452,0,-318.30427,1194.4648)">
	<g
   id="g3327"
   transform="translate(-2.2899573,-2.6716168)">
		<g
   id="g4442"
   transform="matrix(1.1329728,0,0,1.1329728,-35.710781,-10.57874)">
			<g
   id="g4787"
   transform="matrix(-0.2195047,0,0,-0.2195047,336.23204,191.75212)">
				<path
   id="path5"
   inkscape:connector-curvature="0"
   d="m 256.268,291.176 c 0,0 -1.251,7.678 -11.216,7.678 -9.963,0 -15.485,-5.952 -17.858,-8.656 -7.024,-8.004 -4.737,-23.414 -6.373,-27.402 -1.46,-3.561 -5.552,-4.287 -5.552,-4.287 -9.514,-1.114 -19.098,13.035 -17.944,33.809 1.535,27.629 13.843,44.067 14.666,63.879 0.889,21.423 -27.196,56.769 -24.651,90.768 1.957,26.143 14.679,34.25 30.759,40.845 19.006,7.796 48.388,8.566 52.324,8.566 3.935,0.001 51.148,3.467 69.503,-14.401 12.914,-12.567 14.93,-20.341 15.047,-35.468 0.289,-36.792 -24.705,-59.478 -24.857,-80.694 -0.135,-18.955 13.305,-28.846 12.951,-51.213 -0.355,-22.368 -11.439,-23.893 -14.521,-23.744 -1.938,0.095 -5.314,1.159 -6.879,8.695 -1.006,4.85 -1.557,11.896 -6.68,16.838 -13.125,12.655 -29.832,1.646 -29.832,1.646 l -28.887,-26.859 0,0 z"
   style="fill:#26718e" />
				<path
   id="path7"
   inkscape:connector-curvature="0"
   d="m 255.221,313.406 c 0,0 -8.816,-5.424 -12.207,-2.305 -3.391,3.119 -1.221,6.916 -1.221,6.916 0,0 3.526,15.871 3.391,26.856 -0.271,21.972 -15.598,36.62 -14.648,57.915 1.161,26.032 19.531,23.193 19.531,23.193 l 2.848,-5.969 34.45,-0.406 2.578,6.238 c 0,0 11.393,-0.135 19.666,2.171 8.273,2.306 23.871,18.311 26.99,19.396 3.119,1.085 6.375,0.678 8.139,-0.814 1.764,-1.492 3.496,-4.064 2.848,-8.816 -3.662,-26.854 -24.006,-53.168 -24.006,-70.8 0,-15.871 13.828,-33.096 13.563,-51.676 -0.135,-9.493 -3.797,-17.632 -7.188,-16.954 -0.955,0.191 -1.9,2.577 -2.578,9.087 -1.07,10.274 -9.734,21.854 -22.379,23.058 -11.393,1.086 -24.279,-6.917 -24.279,-6.917 l -25.498,-10.173 0,0 z"
   style="fill:#a6a8aa" />
				<path
   id="path9"
   inkscape:connector-curvature="0"
   d="m 255.738,312.892 c 0,0 -8.816,-5.425 -12.207,-2.306 -3.391,3.119 -1.221,6.917 -1.221,6.917 0,0 3.526,15.87 3.391,26.856 -0.271,21.972 -15.598,36.619 -14.648,57.914 1.161,26.033 19.531,23.193 19.531,23.193 l 2.848,-5.968 34.451,-0.407 2.578,6.239 c 0,0 11.393,-0.136 19.666,2.17 8.273,2.306 23.871,18.311 26.99,19.396 3.119,1.085 6.375,0.678 8.139,-0.813 1.764,-1.492 3.496,-4.065 2.848,-8.816 -3.662,-26.854 -24.008,-53.168 -24.008,-70.8 0,-15.871 13.83,-33.096 13.564,-51.677 -0.135,-9.493 -3.797,-17.632 -7.189,-16.954 -0.953,0.191 -1.898,2.577 -2.576,9.088 -1.07,10.273 -9.734,21.854 -22.379,23.057 -11.393,1.086 -24.279,-6.916 -24.279,-6.916 l -25.499,-10.173 0,0 z"
   style="fill:#fbf6e8" />
				<path
   id="path11"
   inkscape:connector-curvature="0"
   d="m 251.987,69.355 c 0,0 -1.126,5.064 0.593,6.849 1.837,1.906 6.698,4.158 6.847,4.93 0.104,0.533 24.127,-11.129 24.127,-11.129 0,0 4.805,-4.555 5.477,-5.208 0.672,-0.653 3.37,-2.939 3.37,-2.939 l 0.027,-1.744 -5.289,-37.785 0.41,-1.787 c 0,0 -0.918,-1.235 4.709,-4.175 5.244,-2.738 6.346,-8.95 6.346,-8.95 l -22.988,10.14 -23.629,51.798 0,0 z"
   style="fill:#aca076" />
				<path
   id="path13"
   inkscape:connector-curvature="0"
   d="m 259.318,77.745 -3.722,251.841 c 0,0 -0.955,3.191 14.657,3.373 16.242,0.188 14.681,-4.281 14.681,-4.281 L 280.955,77.67 259.318,77.745 z"
   style="fill:#c3b188" />
				<path
   id="path15"
   inkscape:connector-curvature="0"
   d="m 258.964,80.758 c 0.068,3.063 -3.154,248.508 -3.154,248.508 0,0 -0.955,3.191 14.657,3.373 16.241,0.189 14.542,-4.281 14.542,-4.281 L 280.855,80.892 c 0,0 0.275,-8.431 4.643,-13.448 4.693,-5.393 6.937,-7.313 6.937,-7.313 0,0 -1.098,-13.834 -1.867,-19.104 -0.769,-5.27 -2.188,-14.754 -2.873,-20.319 -0.898,-7.29 10.486,-5.393 11.584,-15.979 0.779,-7.503 -4.395,-12.084 -8.988,-14.38 -2.604,-1.303 -13.881,-1.099 -16.477,7.489 -2.451,8.104 -20.972,68.907 -21.172,69.507 -0.2,0.599 -1.798,3.895 -0.399,6.591 1.602,3.092 6.651,3.759 6.721,6.822 l 0,0 z"
   style="fill:#e3b84e" />
				<path
   id="path17"
   inkscape:connector-curvature="0"
   d="m 268.995,29.43 -0.928,303.154 c 0.337,0.011 0.675,0.022 1.031,0.03 l 0.938,-306.436 c -0.334,1.043 -0.681,2.128 -1.041,3.252 l 0,0 z"
   style="fill:#dcb144" />
				<path
   id="path19"
   inkscape:connector-curvature="0"
   d="m 269.984,80.733 c 0,0 -2.672,0.021 -2.65,-2.934 0.021,-2.954 2.15,-5.344 2.65,-5.344 0.5,0 2.629,2.39 2.652,5.344 0.021,2.955 -2.652,2.934 -2.652,2.934 z"
   style="fill:#64513e" />
				<path
   id="path21"
   inkscape:connector-curvature="0"
   enable-background="new    "
   d="m 269.984,72.455 0,0 c -0.501,0 -2.629,2.39 -2.651,5.344 -0.021,2.955 2.65,2.934 2.65,2.934 l 0,0 10e-4,-8.278 0,0 z"
   style="opacity:0.3;fill:#434244" />
				<path
   id="path23"
   inkscape:connector-curvature="0"
   d="m 261.087,66.706 -1.568,264.948 c 0.314,0.069 0.662,0.134 1.031,0.199 L 262.137,63.58 c -0.353,1.05 -0.703,2.094 -1.05,3.126 l 0,0 z"
   style="fill:#dcb144" />
				<path
   id="path25"
   inkscape:connector-curvature="0"
   d="m 274.207,16.137 -0.121,316.457 c 0.539,-0.02 1.059,-0.042 1.547,-0.074 l 0.121,-318.771 c -0.613,0.69 -1.139,1.481 -1.547,2.388 l 0,0 z"
   style="fill:#dcb144" />
				<path
   id="path27"
   inkscape:connector-curvature="0"
   d="m 278.035,2.596 1.449,329.473 c 0.568,-0.101 1.084,-0.21 1.545,-0.328 L 279.578,1.747 c -0.531,0.246 -1.049,0.528 -1.543,0.849 l 0,0 z"
   style="fill:#dcb144" />
				<path
   id="path29"
   inkscape:connector-curvature="0"
   d="m 265.404,43.79 -0.828,288.596 c 0.487,0.039 1.003,0.072 1.546,0.104 l 0.842,-293.518 c -0.511,1.573 -1.033,3.185 -1.56,4.818 l 0,0 z"
   style="fill:#dcb144" />
				
					<circle
   id="circle31"
   sodipodi:cx="264.746"
   sodipodi:cy="249.13"
   sodipodi:rx="1.534"
   sodipodi:ry="1.534"
   cx="264.746"
   cy="249.13"
   r="1.534"
   d="m 266.28,249.13 c 0,0.84721 -0.68679,1.534 -1.534,1.534 -0.8472,0 -1.534,-0.68679 -1.534,-1.534 0,-0.8472 0.6868,-1.534 1.534,-1.534 0.84721,0 1.534,0.6868 1.534,1.534 z"
   style="fill:#1b1b1b">
				</circle>
				
					<circle
   id="circle33"
   sodipodi:cx="276.302"
   sodipodi:cy="249.13"
   sodipodi:rx="1.534"
   sodipodi:ry="1.534"
   cx="276.302"
   cy="249.13"
   r="1.534"
   d="m 277.836,249.13 c 0,0.84721 -0.68679,1.534 -1.534,1.534 -0.8472,0 -1.534,-0.68679 -1.534,-1.534 0,-0.8472 0.6868,-1.534 1.534,-1.534 0.84721,0 1.534,0.6868 1.534,1.534 z"
   style="fill:#1b1b1b">
				</circle>
				
					<circle
   id="circle35"
   sodipodi:cx="270.504"
   sodipodi:cy="277.11401"
   sodipodi:rx="1.534"
   sodipodi:ry="1.534"
   cx="270.504"
   cy="277.11401"
   r="1.534"
   d="m 272.038,277.11401 c 0,0.84721 -0.6868,1.534 -1.534,1.534 -0.84721,0 -1.534,-0.68679 -1.534,-1.534 0,-0.8472 0.68679,-1.534 1.534,-1.534 0.8472,0 1.534,0.6868 1.534,1.534 z"
   style="fill:#1b1b1b">
				</circle>
				
					<circle
   id="circle37"
   sodipodi:cx="270.504"
   sodipodi:cy="293.20801"
   sodipodi:rx="1.534"
   sodipodi:ry="1.534"
   cx="270.504"
   cy="293.20801"
   r="1.534"
   d="m 272.038,293.20801 c 0,0.8472 -0.6868,1.534 -1.534,1.534 -0.84721,0 -1.534,-0.6868 -1.534,-1.534 0,-0.84721 0.68679,-1.534 1.534,-1.534 0.8472,0 1.534,0.68679 1.534,1.534 z"
   style="fill:#1b1b1b">
				</circle>
				
					<circle
   id="circle39"
   sodipodi:cx="270.504"
   sodipodi:cy="307.42499"
   sodipodi:rx="1.534"
   sodipodi:ry="1.534"
   cx="270.504"
   cy="307.42499"
   r="1.534"
   d="m 272.038,307.42499 c 0,0.8472 -0.6868,1.534 -1.534,1.534 -0.84721,0 -1.534,-0.6868 -1.534,-1.534 0,-0.84721 0.68679,-1.534 1.534,-1.534 0.8472,0 1.534,0.68679 1.534,1.534 z"
   style="fill:#1b1b1b">
				</circle>
				
					<circle
   id="circle41"
   sodipodi:cx="270.504"
   sodipodi:cy="320.24301"
   sodipodi:rx="1.534"
   sodipodi:ry="1.534"
   cx="270.504"
   cy="320.24301"
   r="1.534"
   d="m 272.038,320.24301 c 0,0.84721 -0.6868,1.534 -1.534,1.534 -0.84721,0 -1.534,-0.68679 -1.534,-1.534 0,-0.8472 0.68679,-1.534 1.534,-1.534 0.8472,0 1.534,0.6868 1.534,1.534 z"
   style="fill:#1b1b1b">
				</circle>
				<path
   id="path43"
   inkscape:connector-curvature="0"
   d="m 302.389,442.047 c -3.471,5.269 -0.908,9.412 10.328,18.373 12.451,9.931 22.277,8.382 23.316,7.479 1.039,-0.903 0.662,-10.026 -11.756,-19.6 -12.211,-9.411 -18.574,-11.281 -21.888,-6.252 l 0,0 z"
   style="fill:#a6a8aa" />
				<path
   id="path45"
   inkscape:connector-curvature="0"
   d="m 302.771,441.719 c -3.445,5.27 -0.902,9.412 10.252,18.375 12.359,9.93 22.113,8.381 23.145,7.479 1.031,-0.903 0.656,-10.027 -11.67,-19.6 -12.12,-9.412 -18.439,-11.283 -21.727,-6.254 z"
   style="fill:#e0e0e0" />
				<path
   id="path47"
   inkscape:connector-curvature="0"
   d="m 309.799,453.324 c -0.516,0.645 -0.449,1.289 0.064,1.805 0.516,0.516 5.48,5.094 7.479,6.447 1.453,0.983 11.447,5.328 14.119,2.707 3.289,-3.223 -4.189,-12.12 -5.674,-13.475 -1.482,-1.354 -7.219,-5.286 -7.865,-5.802 -0.645,-0.516 -1.869,-0.129 -2.32,0.322 -0.451,0.451 -5.287,7.352 -5.803,7.996 l 0,0 z"
   style="fill:#808183" />
				
					<circle
   id="circle49"
   sodipodi:cx="246.687"
   sodipodi:cy="314.24399"
   sodipodi:rx="1.347"
   sodipodi:ry="1.347"
   cx="246.687"
   cy="314.24399"
   r="1.347"
   d="m 248.034,314.24399 c 0,0.74393 -0.60308,1.347 -1.347,1.347 -0.74393,0 -1.347,-0.60307 -1.347,-1.347 0,-0.74393 0.60307,-1.347 1.347,-1.347 0.74392,0 1.347,0.60307 1.347,1.347 z"
   style="fill:#dadfe1">
				</circle>
				
					<circle
   id="circle51"
   sodipodi:cx="244.403"
   sodipodi:cy="367.42599"
   sodipodi:rx="1.347"
   sodipodi:ry="1.347"
   cx="244.403"
   cy="367.42599"
   r="1.347"
   d="m 245.75,367.42599 c 0,0.74393 -0.60307,1.347 -1.347,1.347 -0.74393,0 -1.347,-0.60307 -1.347,-1.347 0,-0.74392 0.60307,-1.347 1.347,-1.347 0.74393,0 1.347,0.60308 1.347,1.347 z"
   style="fill:#dadfe1">
				</circle>
				
					<circle
   id="circle53"
   sodipodi:cx="244.325"
   sodipodi:cy="420.77899"
   sodipodi:rx="1.347"
   sodipodi:ry="1.347"
   cx="244.325"
   cy="420.77899"
   r="1.347"
   d="m 245.672,420.77899 c 0,0.74393 -0.60308,1.347 -1.347,1.347 -0.74393,0 -1.347,-0.60307 -1.347,-1.347 0,-0.74393 0.60307,-1.347 1.347,-1.347 0.74392,0 1.347,0.60307 1.347,1.347 z"
   style="fill:#dadfe1">
				</circle>
				<path
   id="path55"
   inkscape:connector-curvature="0"
   d="m 288.971,329.552 c 0.742,0 1.346,0.603 1.346,1.347 0,0.744 -0.604,1.348 -1.346,1.348 -0.746,0 -1.348,-0.604 -1.348,-1.348 0,-0.744 0.601,-1.347 1.348,-1.347 z"
   style="fill:#dadfe1" />
				
					<circle
   id="circle57"
   sodipodi:cx="331.92999"
   sodipodi:cy="305.26199"
   sodipodi:rx="1.347"
   sodipodi:ry="1.347"
   cx="331.92999"
   cy="305.26199"
   r="1.347"
   d="m 333.27699,305.26199 c 0,0.74393 -0.60307,1.347 -1.347,1.347 -0.74392,0 -1.347,-0.60307 -1.347,-1.347 0,-0.74392 0.60308,-1.347 1.347,-1.347 0.74393,0 1.347,0.60308 1.347,1.347 z"
   style="fill:#dadfe1">
				</circle>
				
					<circle
   id="circle59"
   sodipodi:cx="321.07401"
   sodipodi:cy="374.397"
   sodipodi:rx="1.348"
   sodipodi:ry="1.348"
   cx="321.07401"
   cy="374.397"
   r="1.348"
   d="m 322.42201,374.397 c 0,0.74448 -0.60353,1.348 -1.348,1.348 -0.74448,0 -1.348,-0.60352 -1.348,-1.348 0,-0.74448 0.60352,-1.348 1.348,-1.348 0.74447,0 1.348,0.60352 1.348,1.348 z"
   style="fill:#dadfe1">
				</circle>
				
					<circle
   id="circle61"
   sodipodi:cx="328.33801"
   sodipodi:cy="403.37201"
   sodipodi:rx="1.347"
   sodipodi:ry="1.347"
   cx="328.33801"
   cy="403.37201"
   r="1.347"
   d="m 329.68501,403.37201 c 0,0.74393 -0.60307,1.347 -1.347,1.347 -0.74392,0 -1.347,-0.60307 -1.347,-1.347 0,-0.74393 0.60308,-1.347 1.347,-1.347 0.74393,0 1.347,0.60307 1.347,1.347 z"
   style="fill:#dadfe1">
				</circle>
				
					<circle
   id="circle63"
   sodipodi:cx="314.017"
   sodipodi:cy="387.436"
   sodipodi:rx="1.348"
   sodipodi:ry="1.348"
   cx="314.017"
   cy="387.436"
   r="1.348"
   d="m 315.365,387.436 c 0,0.74448 -0.60352,1.348 -1.348,1.348 -0.74448,0 -1.348,-0.60352 -1.348,-1.348 0,-0.74448 0.60352,-1.348 1.348,-1.348 0.74448,0 1.348,0.60352 1.348,1.348 z"
   style="fill:#dadfe1">
				</circle>
				
					<circle
   id="circle65"
   sodipodi:cx="341.81"
   sodipodi:cy="441.327"
   sodipodi:rx="1.347"
   sodipodi:ry="1.347"
   cx="341.81"
   cy="441.327"
   r="1.347"
   d="m 343.157,441.327 c 0,0.74392 -0.60307,1.347 -1.347,1.347 -0.74393,0 -1.347,-0.60308 -1.347,-1.347 0,-0.74393 0.60307,-1.347 1.347,-1.347 0.74393,0 1.347,0.60307 1.347,1.347 z"
   style="fill:#dadfe1">
				</circle>
				
					<circle
   id="circle67"
   sodipodi:cx="293.215"
   sodipodi:cy="421.54099"
   sodipodi:rx="1.348"
   sodipodi:ry="1.348"
   cx="293.215"
   cy="421.54099"
   r="1.348"
   d="m 294.563,421.54099 c 0,0.74447 -0.60352,1.348 -1.348,1.348 -0.74448,0 -1.348,-0.60353 -1.348,-1.348 0,-0.74448 0.60352,-1.348 1.348,-1.348 0.74448,0 1.348,0.60352 1.348,1.348 z"
   style="fill:#dadfe1">
				</circle>
				
					<circle
   id="circle69"
   sodipodi:cx="304.52701"
   sodipodi:cy="443.09299"
   sodipodi:rx="1.347"
   sodipodi:ry="1.347"
   cx="304.52701"
   cy="443.09299"
   r="1.347"
   d="m 305.87401,443.09299 c 0,0.74392 -0.60307,1.347 -1.347,1.347 -0.74393,0 -1.347,-0.60308 -1.347,-1.347 0,-0.74393 0.60307,-1.347 1.347,-1.347 0.74393,0 1.347,0.60307 1.347,1.347 z"
   style="fill:#bbbcbf">
				</circle>
				
					<circle
   id="circle71"
   sodipodi:cx="334.16699"
   sodipodi:cy="465.88199"
   sodipodi:rx="1.347"
   sodipodi:ry="1.347"
   cx="334.16699"
   cy="465.88199"
   r="1.347"
   d="m 335.51399,465.88199 c 0,0.74393 -0.60307,1.347 -1.347,1.347 -0.74393,0 -1.347,-0.60307 -1.347,-1.347 0,-0.74393 0.60307,-1.347 1.347,-1.347 0.74393,0 1.347,0.60307 1.347,1.347 z"
   style="fill:#bbbcbf">
				</circle>
				
					<circle
   id="circle73"
   sodipodi:cx="250.455"
   sodipodi:cy="399.008"
   sodipodi:rx="1.5779999"
   sodipodi:ry="1.5779999"
   cx="250.455"
   cy="399.008"
   r="1.5779999"
   d="m 252.033,399.008 c 0,0.8715 -0.70649,1.578 -1.578,1.578 -0.8715,0 -1.578,-0.7065 -1.578,-1.578 0,-0.87151 0.7065,-1.578 1.578,-1.578 0.87151,0 1.578,0.70649 1.578,1.578 z"
   style="fill:#dadfe1">
				</circle>
				
					<circle
   id="circle75"
   sodipodi:cx="250.283"
   sodipodi:cy="372.85901"
   sodipodi:rx="1.579"
   sodipodi:ry="1.579"
   cx="250.283"
   cy="372.85901"
   r="1.579"
   d="m 251.862,372.85901 c 0,0.87206 -0.70694,1.579 -1.579,1.579 -0.87205,0 -1.579,-0.70694 -1.579,-1.579 0,-0.87206 0.70695,-1.579 1.579,-1.579 0.87206,0 1.579,0.70694 1.579,1.579 z"
   style="fill:#dadfe1">
				</circle>
				
					<circle
   id="circle77"
   sodipodi:cx="250.20599"
   sodipodi:cy="341.44699"
   sodipodi:rx="1.5779999"
   sodipodi:ry="1.5779999"
   cx="250.20599"
   cy="341.44699"
   r="1.5779999"
   d="m 251.78399,341.44699 c 0,0.87151 -0.70649,1.578 -1.578,1.578 -0.8715,0 -1.578,-0.70649 -1.578,-1.578 0,-0.8715 0.7065,-1.578 1.578,-1.578 0.87151,0 1.578,0.7065 1.578,1.578 z"
   style="fill:#dadfe1">
				</circle>
				
					<circle
   id="circle79"
   sodipodi:cx="290.47198"
   sodipodi:cy="406.272"
   sodipodi:rx="1.5779999"
   sodipodi:ry="1.5779999"
   cx="290.47198"
   cy="406.272"
   r="1.5779999"
   d="m 292.04998,406.272 c 0,0.87151 -0.70649,1.578 -1.578,1.578 -0.8715,0 -1.578,-0.70649 -1.578,-1.578 0,-0.8715 0.7065,-1.578 1.578,-1.578 0.87151,0 1.578,0.7065 1.578,1.578 z"
   style="fill:#dadfe1">
				</circle>
				
					<circle
   id="circle81"
   sodipodi:cx="290.625"
   sodipodi:cy="372.936"
   sodipodi:rx="1.5779999"
   sodipodi:ry="1.5779999"
   cx="290.625"
   cy="372.936"
   r="1.5779999"
   d="m 292.203,372.936 c 0,0.87151 -0.70649,1.578 -1.578,1.578 -0.87151,0 -1.578,-0.70649 -1.578,-1.578 0,-0.8715 0.70649,-1.578 1.578,-1.578 0.87151,0 1.578,0.7065 1.578,1.578 z"
   style="fill:#dadfe1">
				</circle>
				
					<circle
   id="circle83"
   sodipodi:cx="290.85599"
   sodipodi:cy="341.526"
   sodipodi:rx="1.5779999"
   sodipodi:ry="1.5779999"
   cx="290.85599"
   cy="341.526"
   r="1.5779999"
   d="m 292.43399,341.526 c 0,0.87151 -0.7065,1.578 -1.578,1.578 -0.87151,0 -1.578,-0.70649 -1.578,-1.578 0,-0.8715 0.70649,-1.578 1.578,-1.578 0.8715,0 1.578,0.7065 1.578,1.578 z"
   style="fill:#dadfe1">
				</circle>
				<path
   id="path85"
   inkscape:connector-curvature="0"
   d="m 251.12,420.304 c 0,0.915 0,15.722 0,16.979 0,1.257 0.229,2.23 1.486,2.23 1.257,0 35.218,0.057 35.96,0.057 1.201,0 1.088,-1.086 1.486,-1.086 0.4,0 3.26,-0.057 3.945,-0.057 0.685,0 1.145,-0.287 1.145,-1.029 0,-0.744 0.113,-9.262 0.113,-10.063 0,-0.801 -0.686,-0.743 -1.143,-0.743 -0.459,0 -3.945,0 -3.945,0 0,0 0,-5.831 0,-6.86 0,-1.029 -1.658,-2.002 -2.059,-2.002 -0.401,0 -33.045,0.058 -34.703,0.058 -1.658,0 -2.285,1.601 -2.285,2.516 l 0,0 z"
   style="fill:#dadfe1" />
				
					<circle
   id="circle87"
   sodipodi:cx="255.867"
   sodipodi:cy="420.27701"
   sodipodi:rx="1.544"
   sodipodi:ry="1.544"
   cx="255.867"
   cy="420.27701"
   r="1.544"
   d="m 257.411,420.27701 c 0,0.85273 -0.69127,1.544 -1.544,1.544 -0.85272,0 -1.544,-0.69127 -1.544,-1.544 0,-0.85273 0.69128,-1.544 1.544,-1.544 0.85273,0 1.544,0.69127 1.544,1.544 z"
   style="fill:#bdc3c7">
				</circle>
				
					<circle
   id="circle89"
   sodipodi:cx="261.74301"
   sodipodi:cy="420.27701"
   sodipodi:rx="1.544"
   sodipodi:ry="1.544"
   cx="261.74301"
   cy="420.27701"
   r="1.544"
   d="m 263.28701,420.27701 c 0,0.85273 -0.69127,1.544 -1.544,1.544 -0.85273,0 -1.544,-0.69127 -1.544,-1.544 0,-0.85273 0.69127,-1.544 1.544,-1.544 0.85273,0 1.544,0.69127 1.544,1.544 z"
   style="fill:#bdc3c7">
				</circle>
				
					<circle
   id="circle91"
   sodipodi:cx="267.62"
   sodipodi:cy="420.27701"
   sodipodi:rx="1.544"
   sodipodi:ry="1.544"
   cx="267.62"
   cy="420.27701"
   r="1.544"
   d="m 269.164,420.27701 c 0,0.85273 -0.69128,1.544 -1.544,1.544 -0.85273,0 -1.544,-0.69127 -1.544,-1.544 0,-0.85273 0.69127,-1.544 1.544,-1.544 0.85272,0 1.544,0.69127 1.544,1.544 z"
   style="fill:#bdc3c7">
				</circle>
				
					<circle
   id="circle93"
   sodipodi:cx="273.49701"
   sodipodi:cy="420.27701"
   sodipodi:rx="1.544"
   sodipodi:ry="1.544"
   cx="273.49701"
   cy="420.27701"
   r="1.544"
   d="m 275.04101,420.27701 c 0,0.85273 -0.69127,1.544 -1.544,1.544 -0.85273,0 -1.544,-0.69127 -1.544,-1.544 0,-0.85273 0.69127,-1.544 1.544,-1.544 0.85273,0 1.544,0.69127 1.544,1.544 z"
   style="fill:#bdc3c7">
				</circle>
				
					<circle
   id="circle95"
   sodipodi:cx="279.375"
   sodipodi:cy="420.27701"
   sodipodi:rx="1.544"
   sodipodi:ry="1.544"
   cx="279.375"
   cy="420.27701"
   r="1.544"
   d="m 280.919,420.27701 c 0,0.85273 -0.69127,1.544 -1.544,1.544 -0.85273,0 -1.544,-0.69127 -1.544,-1.544 0,-0.85273 0.69127,-1.544 1.544,-1.544 0.85273,0 1.544,0.69127 1.544,1.544 z"
   style="fill:#bdc3c7">
				</circle>
				
					<circle
   id="circle97"
   sodipodi:cx="285.25299"
   sodipodi:cy="420.27701"
   sodipodi:rx="1.544"
   sodipodi:ry="1.544"
   cx="285.25299"
   cy="420.27701"
   r="1.544"
   d="m 286.79699,420.27701 c 0,0.85273 -0.69127,1.544 -1.544,1.544 -0.85273,0 -1.544,-0.69127 -1.544,-1.544 0,-0.85273 0.69127,-1.544 1.544,-1.544 0.85273,0 1.544,0.69127 1.544,1.544 z"
   style="fill:#bdc3c7">
				</circle>
				
					<circle
   id="circle99"
   sodipodi:cx="319.5"
   sodipodi:cy="418.59201"
   sodipodi:rx="6.7249999"
   sodipodi:ry="6.7249999"
   cx="319.5"
   cy="418.59201"
   r="6.7249999"
   d="m 326.225,418.59201 c 0,3.71412 -3.01089,6.725 -6.725,6.725 -3.71411,0 -6.725,-3.01088 -6.725,-6.725 0,-3.71411 3.01089,-6.725 6.725,-6.725 3.71411,0 6.725,3.01089 6.725,6.725 z"
   style="fill:#ebebeb">
				</circle>
				
					<ellipse
   id="ellipse101"
   sodipodi:cx="319.59299"
   sodipodi:cy="419.15701"
   sodipodi:rx="4.6750002"
   sodipodi:ry="4.7519999"
   transform="matrix(-2.547107e-6,-1,1,-2.547107e-6,-99.5627,738.7515)"
   cx="319.59299"
   cy="419.15701"
   rx="4.6750002"
   ry="4.7519999"
   d="m 324.26799,419.15701 c 0,2.62446 -2.09307,4.752 -4.675,4.752 -2.58193,0 -4.675,-2.12754 -4.675,-4.752 0,-2.62445 2.09307,-4.752 4.675,-4.752 2.58193,0 4.675,2.12755 4.675,4.752 z"
   style="fill:#bebebe">
				</ellipse>
				
					<circle
   id="circle103"
   sodipodi:cx="319.922"
   sodipodi:cy="419.741"
   sodipodi:rx="4.4640002"
   sodipodi:ry="4.4640002"
   cx="319.922"
   cy="419.741"
   r="4.4640002"
   d="m 324.386,419.741 c 0,2.4654 -1.9986,4.464 -4.464,4.464 -2.4654,0 -4.464,-1.9986 -4.464,-4.464 0,-2.4654 1.9986,-4.464 4.464,-4.464 2.4654,0 4.464,1.9986 4.464,4.464 z"
   style="fill:#f1f1f1">
				</circle>
				
					<circle
   id="circle105"
   sodipodi:cx="299.297"
   sodipodi:cy="407.66199"
   sodipodi:rx="6.7249999"
   sodipodi:ry="6.7249999"
   cx="299.297"
   cy="407.66199"
   r="6.7249999"
   d="m 306.022,407.66199 c 0,3.71411 -3.01089,6.725 -6.725,6.725 -3.71412,0 -6.725,-3.01089 -6.725,-6.725 0,-3.71412 3.01088,-6.725 6.725,-6.725 3.71411,0 6.725,3.01088 6.725,6.725 z"
   style="fill:#ebebeb">
				</circle>
				
					<ellipse
   id="ellipse107"
   sodipodi:cx="299.38901"
   sodipodi:cy="408.228"
   sodipodi:rx="4.6750002"
   sodipodi:ry="4.7519999"
   transform="matrix(-2.547107e-6,-1,1,-2.547107e-6,-108.8387,707.6176)"
   cx="299.38901"
   cy="408.228"
   rx="4.6750002"
   ry="4.7519999"
   d="m 304.06401,408.228 c 0,2.62445 -2.09307,4.752 -4.675,4.752 -2.58193,0 -4.675,-2.12755 -4.675,-4.752 0,-2.62446 2.09307,-4.752 4.675,-4.752 2.58193,0 4.675,2.12754 4.675,4.752 z"
   style="fill:#bebebe">
				</ellipse>
				
					<circle
   id="circle109"
   sodipodi:cx="299.71799"
   sodipodi:cy="408.81201"
   sodipodi:rx="4.4640002"
   sodipodi:ry="4.4640002"
   cx="299.71799"
   cy="408.81201"
   r="4.4640002"
   d="m 304.18199,408.81201 c 0,2.4654 -1.9986,4.464 -4.464,4.464 -2.4654,0 -4.464,-1.9986 -4.464,-4.464 0,-2.4654 1.9986,-4.464 4.464,-4.464 2.4654,0 4.464,1.9986 4.464,4.464 z"
   style="fill:#f1f1f1">
				</circle>
				
					<circle
   id="circle111"
   sodipodi:cx="336.94299"
   sodipodi:cy="433.53799"
   sodipodi:rx="6.7249999"
   sodipodi:ry="6.7249999"
   cx="336.94299"
   cy="433.53799"
   r="6.7249999"
   d="m 343.66799,433.53799 c 0,3.71412 -3.01088,6.725 -6.725,6.725 -3.71411,0 -6.725,-3.01088 -6.725,-6.725 0,-3.71411 3.01089,-6.725 6.725,-6.725 3.71412,0 6.725,3.01089 6.725,6.725 z"
   style="fill:#ebebeb">
				</circle>
				
					<ellipse
   id="ellipse113"
   sodipodi:cx="337.034"
   sodipodi:cy="434.103"
   sodipodi:rx="4.6750002"
   sodipodi:ry="4.7519999"
   transform="matrix(-2.547107e-6,-1,1,-2.547107e-6,-97.0676,771.1385)"
   cx="337.034"
   cy="434.103"
   rx="4.6750002"
   ry="4.7519999"
   d="m 341.709,434.103 c 0,2.62445 -2.09307,4.752 -4.675,4.752 -2.58193,0 -4.675,-2.12755 -4.675,-4.752 0,-2.62446 2.09307,-4.752 4.675,-4.752 2.58193,0 4.675,2.12754 4.675,4.752 z"
   style="fill:#bebebe">
				</ellipse>
				
					<circle
   id="circle115"
   sodipodi:cx="337.362"
   sodipodi:cy="434.68799"
   sodipodi:rx="4.4640002"
   sodipodi:ry="4.4640002"
   cx="337.362"
   cy="434.68799"
   r="4.4640002"
   d="m 341.826,434.68799 c 0,2.4654 -1.9986,4.464 -4.464,4.464 -2.4654,0 -4.464,-1.9986 -4.464,-4.464 0,-2.4654 1.9986,-4.464 4.464,-4.464 2.4654,0 4.464,1.9986 4.464,4.464 z"
   style="fill:#f1f1f1">
				</circle>
				
					<circle
   id="circle117"
   sodipodi:cx="292.371"
   sodipodi:cy="432.405"
   sodipodi:rx="1.419"
   sodipodi:ry="1.419"
   cx="292.371"
   cy="432.405"
   r="1.419"
   d="m 293.79,432.405 c 0,0.78369 -0.63531,1.419 -1.419,1.419 -0.78369,0 -1.419,-0.63531 -1.419,-1.419 0,-0.78369 0.63531,-1.419 1.419,-1.419 0.78369,0 1.419,0.63531 1.419,1.419 z"
   style="fill:#59595b">
				</circle>
				<polygon
   id="polygon119"
   points="255.912,322.862 255.892,324.094 284.955,324.094 284.941,322.862 "
   style="fill:#bbbcbf" />
				<polygon
   id="polygon121"
   points="255.916,322.606 255.895,323.836 284.953,323.836 284.937,322.606 "
   style="fill:#d8d4bc" />
				<path
   id="path123"
   inkscape:connector-curvature="0"
   d="m 284.69,329.758 c 0.383,-0.533 0.389,-0.995 0.354,-1.23 H 255.82 l -0.012,0.738 c 0,0 -0.058,0.196 0.09,0.492 h 28.792 z"
   style="fill:#bbbcbf" />
				<path
   id="path125"
   inkscape:connector-curvature="0"
   d="m 255.824,328.27 -0.016,0.996 c 0,0 -0.025,0.089 0.002,0.236 h 29.038 c 0.342,-0.651 0.158,-1.145 0.158,-1.145 l -0.002,-0.088 h -29.18 v 10e-4 z"
   style="fill:#d8d4bc" />
				<g
   id="g127"
   transform="translate(15.075551,-11.449786)">
					<path
   id="path129"
   inkscape:connector-curvature="0"
   d="m 268.656,348.556 c 2.834,0 5.154,2.26 5.154,5.02 0,2.76 -2.32,5.02 -5.154,5.02 h -26.43 c -2.834,0 -5.153,-2.26 -5.153,-5.02 0,-2.76 2.319,-5.02 5.153,-5.02 h 26.43 z"
   style="fill:#bbbcbf" />
					<path
   id="path131"
   inkscape:connector-curvature="0"
   d="m 268.656,348.04 c 2.834,0 5.154,2.26 5.154,5.02 0,2.761 -2.32,5.02 -5.154,5.02 h -26.43 c -2.834,0 -5.153,-2.259 -5.153,-5.02 0,-2.76 2.319,-5.02 5.153,-5.02 h 26.43 z"
   style="fill:#ffffff" />
					
						<circle
   id="circle133"
   sodipodi:cx="241.472"
   sodipodi:cy="353.01999"
   sodipodi:rx="1.3559999"
   sodipodi:ry="1.3559999"
   cx="241.472"
   cy="353.01999"
   r="1.3559999"
   d="m 242.828,353.01999 c 0,0.7489 -0.6071,1.356 -1.356,1.356 -0.7489,0 -1.356,-0.6071 -1.356,-1.356 0,-0.7489 0.6071,-1.356 1.356,-1.356 0.7489,0 1.356,0.6071 1.356,1.356 z"
   style="fill:#dadfe1">
					</circle>
					
						<circle
   id="circle135"
   sodipodi:cx="247.06"
   sodipodi:cy="353.01999"
   sodipodi:rx="1.3559999"
   sodipodi:ry="1.3559999"
   cx="247.06"
   cy="353.01999"
   r="1.3559999"
   d="m 248.416,353.01999 c 0,0.7489 -0.6071,1.356 -1.356,1.356 -0.7489,0 -1.356,-0.6071 -1.356,-1.356 0,-0.7489 0.6071,-1.356 1.356,-1.356 0.7489,0 1.356,0.6071 1.356,1.356 z"
   style="fill:#dadfe1">
					</circle>
					
						<circle
   id="circle137"
   sodipodi:cx="252.64799"
   sodipodi:cy="353.01999"
   sodipodi:rx="1.3559999"
   sodipodi:ry="1.3559999"
   cx="252.64799"
   cy="353.01999"
   r="1.3559999"
   d="m 254.00399,353.01999 c 0,0.7489 -0.6071,1.356 -1.356,1.356 -0.74889,0 -1.35599,-0.6071 -1.35599,-1.356 0,-0.7489 0.6071,-1.356 1.35599,-1.356 0.7489,0 1.356,0.6071 1.356,1.356 z"
   style="fill:#dadfe1">
					</circle>
					
						<circle
   id="circle139"
   sodipodi:cx="258.23401"
   sodipodi:cy="353.01999"
   sodipodi:rx="1.3559999"
   sodipodi:ry="1.3559999"
   cx="258.23401"
   cy="353.01999"
   r="1.3559999"
   d="m 259.59001,353.01999 c 0,0.7489 -0.6071,1.356 -1.356,1.356 -0.7489,0 -1.356,-0.6071 -1.356,-1.356 0,-0.7489 0.6071,-1.356 1.356,-1.356 0.7489,0 1.356,0.6071 1.356,1.356 z"
   style="fill:#dadfe1">
					</circle>
					
						<circle
   id="circle141"
   sodipodi:cx="263.82401"
   sodipodi:cy="353.01999"
   sodipodi:rx="1.3559999"
   sodipodi:ry="1.3559999"
   cx="263.82401"
   cy="353.01999"
   r="1.3559999"
   d="m 265.18001,353.01999 c 0,0.7489 -0.60711,1.356 -1.356,1.356 -0.7489,0 -1.356,-0.6071 -1.356,-1.356 0,-0.7489 0.6071,-1.356 1.356,-1.356 0.74889,0 1.356,0.6071 1.356,1.356 z"
   style="fill:#dadfe1">
					</circle>
					
						<circle
   id="circle143"
   sodipodi:cx="269.41199"
   sodipodi:cy="353.01999"
   sodipodi:rx="1.3559999"
   sodipodi:ry="1.3559999"
   cx="269.41199"
   cy="353.01999"
   r="1.3559999"
   d="m 270.76799,353.01999 c 0,0.7489 -0.6071,1.356 -1.356,1.356 -0.7489,0 -1.356,-0.6071 -1.356,-1.356 0,-0.7489 0.6071,-1.356 1.356,-1.356 0.7489,0 1.356,0.6071 1.356,1.356 z"
   style="fill:#dadfe1">
					</circle>
					<path
   id="path145"
   inkscape:connector-curvature="0"
   enable-background="new    "
   d="m 237.073,353.06 0,0 c 0,2.761 2.319,5.02 5.153,5.02 h 26.43 c 2.834,0 5.154,-2.259 5.154,-5.02 l 0,0 h -36.737 z"
   style="opacity:0.7;fill:#f1f1f2" />
				</g>
				<g
   id="g147"
   transform="translate(15.075551,-11.449786)">
					<path
   id="path149"
   inkscape:connector-curvature="0"
   d="m 268.656,380.153 c 2.834,0 5.154,2.26 5.154,5.02 0,2.761 -2.32,5.02 -5.154,5.02 h -26.43 c -2.834,0 -5.153,-2.259 -5.153,-5.02 0,-2.76 2.319,-5.02 5.153,-5.02 h 26.43 z"
   style="fill:#bbbcbf" />
					<path
   id="path151"
   inkscape:connector-curvature="0"
   d="m 268.656,379.638 c 2.834,0 5.154,2.26 5.154,5.02 0,2.762 -2.32,5.02 -5.154,5.02 h -26.43 c -2.834,0 -5.153,-2.258 -5.153,-5.02 0,-2.76 2.319,-5.02 5.153,-5.02 h 26.43 z"
   style="fill:#ffffff" />
					
						<circle
   id="circle153"
   sodipodi:cx="241.472"
   sodipodi:cy="384.617"
   sodipodi:rx="1.3559999"
   sodipodi:ry="1.3559999"
   cx="241.472"
   cy="384.617"
   r="1.3559999"
   d="m 242.828,384.617 c 0,0.7489 -0.6071,1.356 -1.356,1.356 -0.7489,0 -1.356,-0.6071 -1.356,-1.356 0,-0.74889 0.6071,-1.356 1.356,-1.356 0.7489,0 1.356,0.60711 1.356,1.356 z"
   style="fill:#dadfe1">
					</circle>
					
						<circle
   id="circle155"
   sodipodi:cx="247.06"
   sodipodi:cy="384.617"
   sodipodi:rx="1.3559999"
   sodipodi:ry="1.3559999"
   cx="247.06"
   cy="384.617"
   r="1.3559999"
   d="m 248.416,384.617 c 0,0.7489 -0.6071,1.356 -1.356,1.356 -0.7489,0 -1.356,-0.6071 -1.356,-1.356 0,-0.74889 0.6071,-1.356 1.356,-1.356 0.7489,0 1.356,0.60711 1.356,1.356 z"
   style="fill:#dadfe1">
					</circle>
					
						<circle
   id="circle157"
   sodipodi:cx="252.64799"
   sodipodi:cy="384.617"
   sodipodi:rx="1.3559999"
   sodipodi:ry="1.3559999"
   cx="252.64799"
   cy="384.617"
   r="1.3559999"
   d="m 254.00399,384.617 c 0,0.7489 -0.6071,1.356 -1.356,1.356 -0.74889,0 -1.35599,-0.6071 -1.35599,-1.356 0,-0.74889 0.6071,-1.356 1.35599,-1.356 0.7489,0 1.356,0.60711 1.356,1.356 z"
   style="fill:#dadfe1">
					</circle>
					
						<circle
   id="circle159"
   sodipodi:cx="258.23401"
   sodipodi:cy="384.617"
   sodipodi:rx="1.3559999"
   sodipodi:ry="1.3559999"
   cx="258.23401"
   cy="384.617"
   r="1.3559999"
   d="m 259.59001,384.617 c 0,0.7489 -0.6071,1.356 -1.356,1.356 -0.7489,0 -1.356,-0.6071 -1.356,-1.356 0,-0.74889 0.6071,-1.356 1.356,-1.356 0.7489,0 1.356,0.60711 1.356,1.356 z"
   style="fill:#dadfe1">
					</circle>
					
						<circle
   id="circle161"
   sodipodi:cx="263.82401"
   sodipodi:cy="384.617"
   sodipodi:rx="1.3559999"
   sodipodi:ry="1.3559999"
   cx="263.82401"
   cy="384.617"
   r="1.3559999"
   d="m 265.18001,384.617 c 0,0.7489 -0.60711,1.356 -1.356,1.356 -0.7489,0 -1.356,-0.6071 -1.356,-1.356 0,-0.74889 0.6071,-1.356 1.356,-1.356 0.74889,0 1.356,0.60711 1.356,1.356 z"
   style="fill:#dadfe1">
					</circle>
					
						<circle
   id="circle163"
   sodipodi:cx="269.41199"
   sodipodi:cy="384.617"
   sodipodi:rx="1.3559999"
   sodipodi:ry="1.3559999"
   cx="269.41199"
   cy="384.617"
   r="1.3559999"
   d="m 270.76799,384.617 c 0,0.7489 -0.6071,1.356 -1.356,1.356 -0.7489,0 -1.356,-0.6071 -1.356,-1.356 0,-0.74889 0.6071,-1.356 1.356,-1.356 0.7489,0 1.356,0.60711 1.356,1.356 z"
   style="fill:#dadfe1">
					</circle>
					<path
   id="path165"
   inkscape:connector-curvature="0"
   enable-background="new    "
   d="m 237.073,384.657 0,0 c 0,2.762 2.319,5.02 5.153,5.02 h 26.43 c 2.834,0 5.154,-2.258 5.154,-5.02 l 0,0 h -36.737 z"
   style="opacity:0.7;fill:#f1f1f2" />
				</g>
				<g
   id="g167"
   transform="translate(15.075551,-11.449786)">
					<path
   id="path169"
   inkscape:connector-curvature="0"
   d="m 269.105,412.149 c 2.791,0.488 4.686,3.114 4.211,5.832 -0.475,2.721 -3.148,4.545 -5.941,4.057 l -26.035,-4.553 c -2.792,-0.489 -4.688,-3.113 -4.211,-5.833 0.476,-2.718 3.149,-4.545 5.941,-4.056 l 26.035,4.553 0,0 z"
   style="fill:#bbbcbf" />
					<path
   id="path171"
   inkscape:connector-curvature="0"
   d="m 269.193,411.642 c 2.791,0.488 4.688,3.114 4.213,5.833 -0.477,2.72 -3.15,4.545 -5.941,4.056 l -26.036,-4.553 c -2.792,-0.488 -4.688,-3.113 -4.212,-5.832 0.476,-2.719 3.15,-4.545 5.941,-4.057 l 26.035,4.553 z"
   style="fill:#ffffff" />
					
						<circle
   id="circle173"
   sodipodi:cx="241.558"
   sodipodi:cy="411.86401"
   sodipodi:rx="1.3559999"
   sodipodi:ry="1.3559999"
   cx="241.558"
   cy="411.86401"
   r="1.3559999"
   d="m 242.914,411.86401 c 0,0.7489 -0.6071,1.356 -1.356,1.356 -0.7489,0 -1.356,-0.6071 -1.356,-1.356 0,-0.74889 0.6071,-1.356 1.356,-1.356 0.7489,0 1.356,0.60711 1.356,1.356 z"
   style="fill:#dadfe1">
					</circle>
					
						<circle
   id="circle175"
   sodipodi:cx="247.062"
   sodipodi:cy="412.827"
   sodipodi:rx="1.357"
   sodipodi:ry="1.357"
   cx="247.062"
   cy="412.827"
   r="1.357"
   d="m 248.419,412.827 c 0,0.74945 -0.60755,1.357 -1.357,1.357 -0.74945,0 -1.357,-0.60755 -1.357,-1.357 0,-0.74945 0.60755,-1.357 1.357,-1.357 0.74945,0 1.357,0.60755 1.357,1.357 z"
   style="fill:#dadfe1">
					</circle>
					
						<circle
   id="circle177"
   sodipodi:cx="252.567"
   sodipodi:cy="413.789"
   sodipodi:rx="1.3559999"
   sodipodi:ry="1.3559999"
   cx="252.567"
   cy="413.789"
   r="1.3559999"
   d="m 253.923,413.789 c 0,0.7489 -0.6071,1.356 -1.356,1.356 -0.7489,0 -1.356,-0.6071 -1.356,-1.356 0,-0.7489 0.6071,-1.356 1.356,-1.356 0.7489,0 1.356,0.6071 1.356,1.356 z"
   style="fill:#dadfe1">
					</circle>
					
						<circle
   id="circle179"
   sodipodi:cx="258.07001"
   sodipodi:cy="414.75201"
   sodipodi:rx="1.3559999"
   sodipodi:ry="1.3559999"
   cx="258.07001"
   cy="414.75201"
   r="1.3559999"
   d="m 259.42601,414.75201 c 0,0.7489 -0.6071,1.356 -1.356,1.356 -0.7489,0 -1.356,-0.6071 -1.356,-1.356 0,-0.74889 0.6071,-1.356 1.356,-1.356 0.7489,0 1.356,0.60711 1.356,1.356 z"
   style="fill:#dadfe1">
					</circle>
					
						<circle
   id="circle181"
   sodipodi:cx="263.57501"
   sodipodi:cy="415.715"
   sodipodi:rx="1.3559999"
   sodipodi:ry="1.3559999"
   cx="263.57501"
   cy="415.715"
   r="1.3559999"
   d="m 264.93101,415.715 c 0,0.74889 -0.6071,1.356 -1.356,1.356 -0.7489,0 -1.356,-0.60711 -1.356,-1.356 0,-0.7489 0.6071,-1.356 1.356,-1.356 0.7489,0 1.356,0.6071 1.356,1.356 z"
   style="fill:#dadfe1">
					</circle>
					
						<circle
   id="circle183"
   sodipodi:cx="269.07999"
   sodipodi:cy="416.677"
   sodipodi:rx="1.3559999"
   sodipodi:ry="1.3559999"
   cx="269.07999"
   cy="416.677"
   r="1.3559999"
   d="m 270.43599,416.677 c 0,0.7489 -0.60711,1.356 -1.356,1.356 -0.7489,0 -1.356,-0.6071 -1.356,-1.356 0,-0.7489 0.6071,-1.356 1.356,-1.356 0.74889,0 1.356,0.6071 1.356,1.356 z"
   style="fill:#dadfe1">
					</circle>
					<path
   id="path185"
   inkscape:connector-curvature="0"
   enable-background="new    "
   d="m 237.217,411.146 0,0 c -0.476,2.719 1.42,5.344 4.212,5.832 l 26.036,4.553 c 2.791,0.489 5.465,-1.336 5.941,-4.056 l 0,0 -36.189,-6.329 0,0 z"
   style="opacity:0.7;fill:#f1f1f2" />
				</g>
				<g
   id="g187"
   transform="translate(15.075551,-11.449786)">
					<path
   id="path189"
   inkscape:connector-curvature="0"
   d="m 271.996,449.081 c 0.568,0 1.031,0.489 1.031,1.089 0,0.599 -0.463,1.089 -1.031,1.089 h -34.319 c -0.567,0 -1.031,-0.49 -1.031,-1.089 0,-0.6 0.464,-1.089 1.031,-1.089 h 34.319 z"
   style="fill:#59595b" />
					
						<rect
   id="rect191"
   x="235.29601"
   y="439.28"
   transform="matrix(-2.547107e-6,-1,1,-2.547107e-6,-200.9951,683.0038)"
   width="11.415"
   height="5.4390001"
   style="fill:#808183" />
					
						<rect
   id="rect193"
   x="237.896"
   y="438.47299"
   transform="matrix(-2.547107e-6,-1,1,-2.547107e-6,-200.1881,682.1968)"
   width="6.2150002"
   height="5.4390001"
   style="fill:#d0d1d3" />
					
						<rect
   id="rect195"
   x="240.256"
   y="436.022"
   transform="matrix(-2.547107e-6,-1,1,-2.547107e-6,-197.7375,679.7462)"
   width="1.494"
   height="5.4390001"
   style="fill:#e6e6e7" />
					
						<rect
   id="rect197"
   x="240.85699"
   y="436.67999"
   transform="matrix(-2.547107e-6,-1,1,-2.547107e-6,-198.3956,680.4043)"
   width="0.292"
   height="5.4390001"
   style="fill:#808183" />
					
						<rect
   id="rect199"
   x="240.62601"
   y="435.17899"
   transform="matrix(-2.547107e-6,-1,1,-2.547107e-6,-196.8945,678.9033)"
   width="0.75599998"
   height="5.4390001"
   style="fill:#a6a8aa" />
					
						<circle
   id="circle201"
   sodipodi:cx="239.45799"
   sodipodi:cy="438.95099"
   sodipodi:rx="0.50800002"
   sodipodi:ry="0.50800002"
   cx="239.45799"
   cy="438.95099"
   r="0.50800002"
   d="m 239.96599,438.95099 c 0,0.28056 -0.22744,0.508 -0.508,0.508 -0.28056,0 -0.508,-0.22744 -0.508,-0.508 0,-0.28056 0.22744,-0.508 0.508,-0.508 0.28056,0 0.508,0.22744 0.508,0.508 z"
   style="fill:#434244">
					</circle>
					
						<circle
   id="circle203"
   sodipodi:cx="242.549"
   sodipodi:cy="438.95099"
   sodipodi:rx="0.50800002"
   sodipodi:ry="0.50800002"
   cx="242.549"
   cy="438.95099"
   r="0.50800002"
   d="m 243.057,438.95099 c 0,0.28056 -0.22744,0.508 -0.508,0.508 -0.28056,0 -0.508,-0.22744 -0.508,-0.508 0,-0.28056 0.22744,-0.508 0.508,-0.508 0.28056,0 0.508,0.22744 0.508,0.508 z"
   style="fill:#434244">
					</circle>
					
						<rect
   id="rect205"
   x="240.85899"
   y="438.92999"
   transform="matrix(-2.547107e-6,-1,1,-2.547107e-6,-195.0816,688.2183)"
   width="11.416"
   height="5.4390001"
   style="fill:#808183" />
					
						<rect
   id="rect207"
   x="243.459"
   y="438.12399"
   transform="matrix(-2.547107e-6,-1,1,-2.547107e-6,-194.2751,687.4117)"
   width="6.217"
   height="5.4390001"
   style="fill:#d0d1d3" />
					
						<rect
   id="rect209"
   x="245.82001"
   y="435.673"
   transform="matrix(-2.547107e-6,-1,1,-2.547107e-6,-191.8246,684.9613)"
   width="1.494"
   height="5.4390001"
   style="fill:#e6e6e7" />
					
						<rect
   id="rect211"
   x="246.422"
   y="436.33099"
   transform="matrix(-2.547107e-6,-1,1,-2.547107e-6,-192.4821,685.6188)"
   width="0.29100001"
   height="5.4390001"
   style="fill:#808183" />
					
						<rect
   id="rect213"
   x="246.19"
   y="434.82999"
   transform="matrix(-2.547107e-6,-1,1,-2.547107e-6,-190.981,684.1177)"
   width="0.755"
   height="5.4390001"
   style="fill:#a6a8aa" />
					
						<circle
   id="circle215"
   sodipodi:cx="245.021"
   sodipodi:cy="438.603"
   sodipodi:rx="0.50800002"
   sodipodi:ry="0.50800002"
   cx="245.021"
   cy="438.603"
   r="0.50800002"
   d="m 245.529,438.603 c 0,0.28056 -0.22744,0.508 -0.508,0.508 -0.28056,0 -0.508,-0.22744 -0.508,-0.508 0,-0.28056 0.22744,-0.508 0.508,-0.508 0.28056,0 0.508,0.22744 0.508,0.508 z"
   style="fill:#434244">
					</circle>
					
						<circle
   id="circle217"
   sodipodi:cx="248.11301"
   sodipodi:cy="438.603"
   sodipodi:rx="0.50800002"
   sodipodi:ry="0.50800002"
   cx="248.11301"
   cy="438.603"
   r="0.50800002"
   d="m 248.62101,438.603 c 0,0.28056 -0.22744,0.508 -0.508,0.508 -0.28056,0 -0.508,-0.22744 -0.508,-0.508 0,-0.28056 0.22744,-0.508 0.508,-0.508 0.28056,0 0.508,0.22744 0.508,0.508 z"
   style="fill:#434244">
					</circle>
					
						<rect
   id="rect219"
   x="246.408"
   y="438.61899"
   transform="matrix(-2.547107e-6,-1,1,-2.547107e-6,-189.2216,693.4562)"
   width="11.416"
   height="5.4390001"
   style="fill:#808183" />
					
						<rect
   id="rect221"
   x="249.009"
   y="437.81299"
   transform="matrix(-2.547107e-6,-1,1,-2.547107e-6,-188.4151,692.6497)"
   width="6.2150002"
   height="5.4390001"
   style="fill:#d0d1d3" />
					
						<rect
   id="rect223"
   x="251.369"
   y="435.362"
   transform="matrix(-2.547107e-6,-1,1,-2.547107e-6,-185.9647,690.1993)"
   width="1.494"
   height="5.4390001"
   style="fill:#e6e6e7" />
					
						<rect
   id="rect225"
   x="251.97"
   y="436.01901"
   transform="matrix(-2.547107e-6,-1,1,-2.547107e-6,-186.6217,690.8563)"
   width="0.292"
   height="5.4390001"
   style="fill:#808183" />
					
						<rect
   id="rect227"
   x="251.73801"
   y="434.51801"
   transform="matrix(-2.547107e-6,-1,1,-2.547107e-6,-185.1207,689.3552)"
   width="0.75599998"
   height="5.4390001"
   style="fill:#a6a8aa" />
					
						<circle
   id="circle229"
   sodipodi:cx="250.571"
   sodipodi:cy="438.29099"
   sodipodi:rx="0.50800002"
   sodipodi:ry="0.50800002"
   cx="250.571"
   cy="438.29099"
   r="0.50800002"
   d="m 251.079,438.29099 c 0,0.28056 -0.22744,0.508 -0.508,0.508 -0.28056,0 -0.508,-0.22744 -0.508,-0.508 0,-0.28057 0.22744,-0.508 0.508,-0.508 0.28056,0 0.508,0.22743 0.508,0.508 z"
   style="fill:#434244">
					</circle>
					
						<circle
   id="circle231"
   sodipodi:cx="253.66299"
   sodipodi:cy="438.29099"
   sodipodi:rx="0.50800002"
   sodipodi:ry="0.50800002"
   cx="253.66299"
   cy="438.29099"
   r="0.50800002"
   d="m 254.17099,438.29099 c 0,0.28056 -0.22743,0.508 -0.508,0.508 -0.28056,0 -0.508,-0.22744 -0.508,-0.508 0,-0.28057 0.22744,-0.508 0.508,-0.508 0.28057,0 0.508,0.22743 0.508,0.508 z"
   style="fill:#434244">
					</circle>
					
						<rect
   id="rect233"
   x="252.01801"
   y="438.92999"
   transform="matrix(-2.547107e-6,-1,1,-2.547107e-6,-183.9236,699.3763)"
   width="11.416"
   height="5.4390001"
   style="fill:#808183" />
					
						<rect
   id="rect235"
   x="254.617"
   y="438.12399"
   transform="matrix(-2.547107e-6,-1,1,-2.547107e-6,-183.117,698.5698)"
   width="6.217"
   height="5.4390001"
   style="fill:#d0d1d3" />
					
						<rect
   id="rect237"
   x="256.978"
   y="435.673"
   transform="matrix(-2.547107e-6,-1,1,-2.547107e-6,-180.6666,696.1193)"
   width="1.494"
   height="5.4390001"
   style="fill:#e6e6e7" />
					
						<rect
   id="rect239"
   x="257.57999"
   y="436.33099"
   transform="matrix(-2.547107e-6,-1,1,-2.547107e-6,-181.3241,696.7768)"
   width="0.29100001"
   height="5.4390001"
   style="fill:#808183" />
					
						<rect
   id="rect241"
   x="257.34799"
   y="434.82999"
   transform="matrix(-2.547107e-6,-1,1,-2.547107e-6,-179.823,695.2757)"
   width="0.755"
   height="5.4390001"
   style="fill:#a6a8aa" />
					
						<circle
   id="circle243"
   sodipodi:cx="256.17899"
   sodipodi:cy="438.603"
   sodipodi:rx="0.50800002"
   sodipodi:ry="0.50800002"
   cx="256.17899"
   cy="438.603"
   r="0.50800002"
   d="m 256.68699,438.603 c 0,0.28056 -0.22744,0.508 -0.508,0.508 -0.28057,0 -0.508,-0.22744 -0.508,-0.508 0,-0.28056 0.22743,-0.508 0.508,-0.508 0.28056,0 0.508,0.22744 0.508,0.508 z"
   style="fill:#434244">
					</circle>
					
						<circle
   id="circle245"
   sodipodi:cx="259.271"
   sodipodi:cy="438.603"
   sodipodi:rx="0.50800002"
   sodipodi:ry="0.50800002"
   cx="259.271"
   cy="438.603"
   r="0.50800002"
   d="m 259.779,438.603 c 0,0.28056 -0.22744,0.508 -0.508,0.508 -0.28056,0 -0.508,-0.22744 -0.508,-0.508 0,-0.28056 0.22744,-0.508 0.508,-0.508 0.28056,0 0.508,0.22744 0.508,0.508 z"
   style="fill:#434244">
					</circle>
					
						<rect
   id="rect247"
   x="257.582"
   y="438.44299"
   transform="matrix(-2.547107e-6,-1,1,-2.547107e-6,-177.8725,704.4523)"
   width="11.415"
   height="5.4380002"
   style="fill:#808183" />
					
						<rect
   id="rect249"
   x="260.181"
   y="437.63699"
   transform="matrix(-2.547107e-6,-1,1,-2.547107e-6,-177.0661,703.6459)"
   width="6.2160001"
   height="5.4380002"
   style="fill:#d0d1d3" />
					
						<rect
   id="rect251"
   x="262.54199"
   y="435.18701"
   transform="matrix(-2.547107e-6,-1,1,-2.547107e-6,-174.6161,701.1958)"
   width="1.494"
   height="5.4380002"
   style="fill:#e6e6e7" />
					
						<rect
   id="rect253"
   x="263.14301"
   y="435.84299"
   transform="matrix(-2.547107e-6,-1,1,-2.547107e-6,-175.2725,701.8522)"
   width="0.29100001"
   height="5.4380002"
   style="fill:#808183" />
					
						<rect
   id="rect255"
   x="262.91101"
   y="434.34399"
   transform="matrix(-2.547107e-6,-1,1,-2.547107e-6,-173.7731,700.3528)"
   width="0.75599998"
   height="5.4380002"
   style="fill:#a6a8aa" />
					
						<circle
   id="circle257"
   sodipodi:cx="261.742"
   sodipodi:cy="438.11401"
   sodipodi:rx="0.50800002"
   sodipodi:ry="0.50800002"
   cx="261.742"
   cy="438.11401"
   r="0.50800002"
   d="m 262.25,438.11401 c 0,0.28056 -0.22743,0.508 -0.508,0.508 -0.28056,0 -0.508,-0.22744 -0.508,-0.508 0,-0.28056 0.22744,-0.508 0.508,-0.508 0.28057,0 0.508,0.22744 0.508,0.508 z"
   style="fill:#434244">
					</circle>
					
						<circle
   id="circle259"
   sodipodi:cx="264.836"
   sodipodi:cy="438.11401"
   sodipodi:rx="0.50800002"
   sodipodi:ry="0.50800002"
   cx="264.836"
   cy="438.11401"
   r="0.50800002"
   d="m 265.344,438.11401 c 0,0.28056 -0.22744,0.508 -0.508,0.508 -0.28056,0 -0.508,-0.22744 -0.508,-0.508 0,-0.28056 0.22744,-0.508 0.508,-0.508 0.28056,0 0.508,0.22744 0.508,0.508 z"
   style="fill:#434244">
					</circle>
					
						<rect
   id="rect261"
   x="263.16501"
   y="438.12399"
   transform="matrix(-2.547107e-6,-1,1,-2.547107e-6,-171.9696,709.7183)"
   width="11.416"
   height="5.4390001"
   style="fill:#808183" />
					
						<rect
   id="rect263"
   x="265.76501"
   y="437.31699"
   transform="matrix(-2.547107e-6,-1,1,-2.547107e-6,-171.1625,708.9113)"
   width="6.2160001"
   height="5.4390001"
   style="fill:#d0d1d3" />
					
						<rect
   id="rect265"
   x="268.12601"
   y="434.867"
   transform="matrix(-2.547107e-6,-1,1,-2.547107e-6,-168.7125,706.4612)"
   width="1.494"
   height="5.4390001"
   style="fill:#e6e6e7" />
					
						<rect
   id="rect267"
   x="268.728"
   y="435.52499"
   transform="matrix(-2.547107e-6,-1,1,-2.547107e-6,-169.37,707.1187)"
   width="0.29100001"
   height="5.4390001"
   style="fill:#808183" />
					
						<rect
   id="rect269"
   x="268.496"
   y="434.02301"
   transform="matrix(-2.547107e-6,-1,1,-2.547107e-6,-167.868,705.6167)"
   width="0.755"
   height="5.4390001"
   style="fill:#a6a8aa" />
					
						<circle
   id="circle271"
   sodipodi:cx="267.328"
   sodipodi:cy="437.79501"
   sodipodi:rx="0.50800002"
   sodipodi:ry="0.50800002"
   cx="267.328"
   cy="437.79501"
   r="0.50800002"
   d="m 267.836,437.79501 c 0,0.28056 -0.22744,0.508 -0.508,0.508 -0.28056,0 -0.508,-0.22744 -0.508,-0.508 0,-0.28056 0.22744,-0.508 0.508,-0.508 0.28056,0 0.508,0.22744 0.508,0.508 z"
   style="fill:#434244">
					</circle>
					
						<circle
   id="circle273"
   sodipodi:cx="270.42001"
   sodipodi:cy="437.79501"
   sodipodi:rx="0.50800002"
   sodipodi:ry="0.50800002"
   cx="270.42001"
   cy="437.79501"
   r="0.50800002"
   d="m 270.92801,437.79501 c 0,0.28056 -0.22744,0.508 -0.508,0.508 -0.28056,0 -0.508,-0.22744 -0.508,-0.508 0,-0.28056 0.22744,-0.508 0.508,-0.508 0.28056,0 0.508,0.22744 0.508,0.508 z"
   style="fill:#434244">
					</circle>
					<g
   id="g275">
						<path
   id="path277"
   inkscape:connector-curvature="0"
   d="m 241.003,440.804 c 0.388,0 0.703,0.301 0.703,0.672 v 0.35 c 0,0.371 -0.314,0.672 -0.703,0.672 l 0,0 c -0.388,0 -0.702,-0.301 -0.702,-0.672 v -0.35 c 0,-0.372 0.315,-0.672 0.702,-0.672 l 0,0 z"
   style="fill:#272525" />
						<g
   id="g279">
							<path
   id="path281"
   inkscape:connector-curvature="0"
   d="m 240.256,442.407 v 8.965 c 0,0.272 0.232,0.497 0.515,0.497 h 0.464 c 0.283,0 0.515,-0.225 0.515,-0.497 v -8.965 h -1.494 z"
   style="fill:#bbbcbf" />
							<path
   id="path283"
   inkscape:connector-curvature="0"
   d="m 241.003,451.869 h 0.232 c 0.283,0 0.515,-0.225 0.515,-0.497 v -8.965 h -0.747 v 9.462 z"
   style="fill:#f0f0f1" />
						</g>
					</g>
					<g
   id="g285">
						<path
   id="path287"
   inkscape:connector-curvature="0"
   d="m 246.567,440.804 c 0.388,0 0.702,0.301 0.702,0.672 v 0.35 c 0,0.371 -0.314,0.672 -0.702,0.672 l 0,0 c -0.388,0 -0.703,-0.301 -0.703,-0.672 v -0.35 c 0.001,-0.372 0.315,-0.672 0.703,-0.672 l 0,0 z"
   style="fill:#272525" />
						<g
   id="g289">
							<path
   id="path291"
   inkscape:connector-curvature="0"
   d="m 245.82,442.407 v 8.965 c 0,0.272 0.232,0.497 0.516,0.497 h 0.464 c 0.283,0 0.515,-0.225 0.515,-0.497 v -8.965 h -1.495 l 0,0 z"
   style="fill:#bbbcbf" />
							<path
   id="path293"
   inkscape:connector-curvature="0"
   d="m 246.567,451.869 h 0.232 c 0.283,0 0.515,-0.225 0.515,-0.497 v -8.965 h -0.748 v 9.462 h 0.001 z"
   style="fill:#f0f0f1" />
						</g>
					</g>
					<g
   id="g295">
						<path
   id="path297"
   inkscape:connector-curvature="0"
   d="m 252.117,440.804 c 0.388,0 0.702,0.301 0.702,0.672 v 0.35 c 0,0.371 -0.314,0.672 -0.702,0.672 l 0,0 c -0.388,0 -0.703,-0.301 -0.703,-0.672 v -0.35 c 0.001,-0.372 0.315,-0.672 0.703,-0.672 l 0,0 z"
   style="fill:#272525" />
						<g
   id="g299">
							<path
   id="path301"
   inkscape:connector-curvature="0"
   d="m 251.37,442.407 v 8.965 c 0,0.272 0.232,0.497 0.515,0.497 h 0.464 c 0.283,0 0.515,-0.225 0.515,-0.497 v -8.965 h -1.494 z"
   style="fill:#bbbcbf" />
							<path
   id="path303"
   inkscape:connector-curvature="0"
   d="m 252.117,451.869 h 0.232 c 0.283,0 0.515,-0.225 0.515,-0.497 v -8.965 h -0.747 v 9.462 z"
   style="fill:#f0f0f1" />
						</g>
					</g>
					<g
   id="g305">
						<path
   id="path307"
   inkscape:connector-curvature="0"
   d="m 257.727,440.804 c 0.387,0 0.701,0.301 0.701,0.672 v 0.35 c 0,0.371 -0.314,0.672 -0.701,0.672 l 0,0 c -0.389,0 -0.703,-0.301 -0.703,-0.672 v -0.35 c -10e-4,-0.372 0.314,-0.672 0.703,-0.672 l 0,0 z"
   style="fill:#272525" />
						<g
   id="g309">
							<path
   id="path311"
   inkscape:connector-curvature="0"
   d="m 256.978,442.407 v 8.965 c 0,0.272 0.233,0.497 0.516,0.497 h 0.463 c 0.283,0 0.516,-0.225 0.516,-0.497 v -8.965 h -1.495 z"
   style="fill:#bbbcbf" />
							<path
   id="path313"
   inkscape:connector-curvature="0"
   d="m 257.727,451.869 h 0.23 c 0.283,0 0.516,-0.225 0.516,-0.497 v -8.965 h -0.746 v 9.462 z"
   style="fill:#f0f0f1" />
						</g>
					</g>
					<g
   id="g315">
						<path
   id="path317"
   inkscape:connector-curvature="0"
   d="m 263.289,440.804 c 0.389,0 0.703,0.301 0.703,0.672 v 0.35 c 0,0.371 -0.314,0.672 -0.703,0.672 l 0,0 c -0.389,0 -0.701,-0.301 -0.701,-0.672 v -0.35 c 0,-0.372 0.312,-0.672 0.701,-0.672 l 0,0 z"
   style="fill:#272525" />
						<g
   id="g319">
							<path
   id="path321"
   inkscape:connector-curvature="0"
   d="m 262.541,442.407 v 8.965 c 0,0.272 0.232,0.497 0.516,0.497 h 0.465 c 0.283,0 0.516,-0.225 0.516,-0.497 v -8.965 h -1.497 l 0,0 z"
   style="fill:#bbbcbf" />
							<path
   id="path323"
   inkscape:connector-curvature="0"
   d="m 263.289,451.869 h 0.232 c 0.283,0 0.516,-0.225 0.516,-0.497 v -8.965 h -0.748 v 9.462 z"
   style="fill:#f0f0f1" />
						</g>
					</g>
					<g
   id="g325">
						<path
   id="path327"
   inkscape:connector-curvature="0"
   d="m 268.875,440.804 c 0.387,0 0.703,0.301 0.703,0.672 v 0.35 c 0,0.371 -0.316,0.672 -0.703,0.672 l 0,0 c -0.389,0 -0.703,-0.301 -0.703,-0.672 v -0.35 c 0,-0.372 0.314,-0.672 0.703,-0.672 l 0,0 z"
   style="fill:#272525" />
						<g
   id="g329">
							<path
   id="path331"
   inkscape:connector-curvature="0"
   d="m 268.127,442.407 v 8.965 c 0,0.272 0.232,0.497 0.516,0.497 h 0.465 c 0.283,0 0.514,-0.225 0.514,-0.497 v -8.965 h -1.495 z"
   style="fill:#bbbcbf" />
							<path
   id="path333"
   inkscape:connector-curvature="0"
   d="m 268.875,451.869 h 0.232 c 0.283,0 0.514,-0.225 0.514,-0.497 v -8.965 h -0.746 v 9.462 z"
   style="fill:#f0f0f1" />
						</g>
					</g>
					
						<rect
   id="rect335"
   x="240.256"
   y="443.75299"
   transform="matrix(-2.547107e-6,-1,1,-2.547107e-6,-205.4686,687.4774)"
   width="1.494"
   height="5.4390001"
   style="fill:#e6e6e7" />
					
						<rect
   id="rect337"
   x="240.76401"
   y="443.005"
   transform="matrix(-2.547107e-6,-1,1,-2.547107e-6,-204.7207,686.7294)"
   width="0.47799999"
   height="5.4390001"
   style="fill:#f1f1f2" />
					
						<rect
   id="rect339"
   x="245.821"
   y="443.40302"
   transform="matrix(-2.547107e-6,-1,1,-2.547107e-6,-199.5546,692.6913)"
   width="1.494"
   height="5.4390001"
   style="fill:#e6e6e7" />
					
						<rect
   id="rect341"
   x="246.328"
   y="442.65799"
   transform="matrix(-2.547107e-6,-1,1,-2.547107e-6,-198.8092,691.9459)"
   width="0.479"
   height="5.4390001"
   style="fill:#f1f1f2" />
					
						<rect
   id="rect343"
   x="251.369"
   y="443.09201"
   transform="matrix(-2.547107e-6,-1,1,-2.547107e-6,-193.6946,697.9291)"
   width="1.494"
   height="5.4390001"
   style="fill:#e6e6e7" />
					
						<rect
   id="rect345"
   x="251.877"
   y="442.345"
   transform="matrix(-2.547107e-6,-1,1,-2.547107e-6,-192.9471,697.1817)"
   width="0.479"
   height="5.4390001"
   style="fill:#f1f1f2" />
					
						<rect
   id="rect347"
   x="256.979"
   y="443.40302"
   transform="matrix(-2.547107e-6,-1,1,-2.547107e-6,-188.3965,703.8492)"
   width="1.494"
   height="5.4390001"
   style="fill:#e6e6e7" />
					
						<rect
   id="rect349"
   x="257.48599"
   y="442.65799"
   transform="matrix(-2.547107e-6,-1,1,-2.547107e-6,-187.6511,703.1039)"
   width="0.479"
   height="5.4390001"
   style="fill:#f1f1f2" />
					
						<rect
   id="rect351"
   x="262.54199"
   y="442.918"
   transform="matrix(-2.547107e-6,-1,1,-2.547107e-6,-182.347,708.9268)"
   width="1.494"
   height="5.4380002"
   style="fill:#e6e6e7" />
					
						<rect
   id="rect353"
   x="263.04999"
   y="442.16901"
   transform="matrix(-2.547107e-6,-1,1,-2.547107e-6,-181.5986,708.1783)"
   width="0.479"
   height="5.4380002"
   style="fill:#f1f1f2" />
					
						<rect
   id="rect355"
   x="268.12601"
   y="442.59601"
   transform="matrix(-2.547107e-6,-1,1,-2.547107e-6,-176.4415,714.1902)"
   width="1.494"
   height="5.4390001"
   style="fill:#e6e6e7" />
					
						<rect
   id="rect357"
   x="268.634"
   y="441.85001"
   transform="matrix(-2.547107e-6,-1,1,-2.547107e-6,-175.6955,713.4443)"
   width="0.47799999"
   height="5.4390001"
   style="fill:#f1f1f2" />
					<path
   id="path359"
   inkscape:connector-curvature="0"
   d="m 271.996,449.821 c 0.568,0 1.031,0.323 1.031,0.719 0,0.396 -0.463,0.719 -1.031,0.719 h -34.319 c -0.567,0 -1.031,-0.323 -1.031,-0.719 0,-0.396 0.464,-0.719 1.031,-0.719 h 34.319 z"
   style="fill:#e4e4e4" />
					<path
   id="path361"
   inkscape:connector-curvature="0"
   d="m 237.677,451.259 h 34.319 c 0.568,0 1.031,-0.323 1.031,-0.719 h -36.381 c 0,0.396 0.464,0.719 1.031,0.719 l 0,0 z"
   style="fill:#d0d1d3" />
				</g>
				
					<rect
   id="rect363"
   x="309.47299"
   y="449.026"
   transform="matrix(0.5845,-0.8114,0.8114,0.5845,-234.849,441.1967)"
   width="7.7729998"
   height="1.758"
   style="fill:#929496" />
				<path
   id="path365"
   inkscape:connector-curvature="0"
   d="m 319.874,460.51 c 2.146,1.7 6.875,3.35 10.389,4.416 0.479,-0.133 0.889,-0.34 1.197,-0.643 0.514,-0.502 0.764,-1.141 0.816,-1.868 -1.988,-3.107 -4.902,-7.289 -7.135,-8.918 -3.734,-2.727 -11.189,-3.032 -11.189,-3.032 0,0 2.298,7.17 5.922,10.045 l 0,0 z"
   style="fill:#929496" />
				
					<rect
   id="rect367"
   x="312.24799"
   y="450.00601"
   transform="matrix(0.5842,-0.8116,0.8116,0.5842,-234.992,442.817)"
   width="4.8540001"
   height="1.49"
   style="fill:#a6a8aa" />
				<g
   id="g369"
   transform="translate(15.075551,-11.449786)">
					
						<ellipse
   id="ellipse371"
   sodipodi:cx="305.73801"
   sodipodi:cy="408.17599"
   sodipodi:rx="2.4330001"
   sodipodi:ry="2.3889999"
   transform="matrix(-2.547107e-6,-1,1,-2.547107e-6,-102.4369,713.9147)"
   cx="305.73801"
   cy="408.17599"
   rx="2.4330001"
   ry="2.3889999"
   d="m 308.17101,408.17599 c 0,1.31941 -1.08929,2.389 -2.433,2.389 -1.34371,0 -2.433,-1.06959 -2.433,-2.389 0,-1.3194 1.08929,-2.389 2.433,-2.389 1.34371,0 2.433,1.0696 2.433,2.389 z"
   style="fill:#a6a8aa">
					</ellipse>
					<path
   id="path373"
   inkscape:connector-curvature="0"
   d="m 310.115,411.438 c 0.193,0.207 0.182,0.534 -0.025,0.728 -0.207,0.194 -0.535,0.182 -0.729,-0.026 l -8.785,-9.429 c -0.193,-0.208 -0.184,-0.535 0.025,-0.729 0.207,-0.192 0.535,-0.182 0.729,0.026 l 8.785,9.43 z"
   style="fill:#59595b" />
					
						<circle
   id="circle375"
   sodipodi:cx="305.80899"
   sodipodi:cy="407.85501"
   sodipodi:rx="2.372"
   sodipodi:ry="2.372"
   cx="305.80899"
   cy="407.85501"
   r="2.372"
   d="m 308.18099,407.85501 c 0,1.31002 -1.06198,2.372 -2.372,2.372 -1.31002,0 -2.372,-1.06198 -2.372,-2.372 0,-1.31002 1.06198,-2.372 2.372,-2.372 1.31002,0 2.372,1.06198 2.372,2.372 z"
   style="fill:#dcdcdc">
					</circle>
					<path
   id="path377"
   inkscape:connector-curvature="0"
   d="m 304.738,408.507 c 0,0.723 0.553,1.428 1.213,1.707 1.016,-0.062 1.852,-0.756 2.125,-1.697 -0.176,-0.773 -0.844,-1.529 -1.66,-1.529 -0.951,-10e-4 -1.678,0.568 -1.678,1.519 l 0,0 z"
   style="fill:#f1f1f2" />
				</g>
				<path
   id="path379"
   inkscape:connector-curvature="0"
   enable-background="new    "
   d="m 319.441,317.586 c 0.068,0.094 2.439,-2.193 3.66,-5.352 1.297,-3.359 3,-12.043 3.104,-12.905 0.117,-0.973 -0.045,-1.552 -0.301,-1.69 -0.254,-0.14 -0.926,0.533 -1.043,1.459 -0.115,0.927 -1.598,7.9 -2.34,11.074 -0.74,3.175 -3.15,7.321 -3.08,7.414 l 0,0 z"
   style="opacity:0.5;fill:#ffffff" />
				<path
   id="path381"
   inkscape:connector-curvature="0"
   enable-background="new    "
   d="m 347.734,467.07 c 0,0 5.611,-10.155 4.584,-25.216 -0.953,-13.969 -3.477,-19.389 -7.756,-31.521 -6.352,-18.005 -16.594,-27.315 -16.873,-44.491 -0.279,-17.177 10.783,-23.868 12.926,-47.26 1.541,-16.824 -6.816,-23.883 -7.127,-22.281 -0.311,1.602 4.623,5.237 4.904,15.253 0.861,30.704 -12.725,34.104 -12.537,54.979 0.156,17.541 12.943,30.597 20.904,56.963 8.186,27.111 0.975,43.574 0.975,43.574 z"
   style="opacity:0.5;fill:#ffffff" />
				<g
   id="g383"
   transform="translate(15.075551,-11.449786)"
   style="opacity:0.5">
					<path
   id="path385"
   inkscape:connector-curvature="0"
   d="m 332.713,478.392 c 0.033,-0.083 0.082,-0.205 0.145,-0.375 -0.047,0.109 -0.096,0.233 -0.145,0.375 z"
   style="fill:#434244" />
					<path
   id="path387"
   inkscape:connector-curvature="0"
   d="m 313.469,302.304 c -1.396,0.068 -3.543,0.642 -5.217,3.781 0.668,0.046 3.814,-2.33 6.15,-1.5 1.672,0.594 3.098,2.294 4.133,3.955 0.025,0.041 0.051,0.084 0.076,0.125 -0.168,-0.365 -0.248,-0.664 -0.199,-0.914 0.311,-1.602 8.668,5.457 7.127,22.281 -2.143,23.392 -13.205,30.083 -12.926,47.26 0.279,17.176 10.521,26.486 16.873,44.491 4.279,12.132 6.803,17.552 7.756,31.521 0.99,14.533 -4.197,24.496 -4.563,25.176 -2.424,7.349 -6.9,12.908 -10.107,15.531 -2.898,2.371 -9.131,6.479 -10.303,7.246 4.869,-1.996 9.211,-4.555 12.58,-7.834 12.914,-12.567 14.93,-20.341 15.047,-35.468 0.289,-36.792 -24.705,-59.478 -24.857,-80.694 -0.135,-18.955 13.305,-28.846 12.951,-51.213 -0.355,-22.368 -11.439,-23.893 -14.521,-23.744 l 0,0 z"
   style="fill:#434244" />
				</g>
				<path
   id="path389"
   inkscape:connector-curvature="0"
   enable-background="new    "
   d="m 215.948,263.487 c -0.144,0.646 0.288,13.993 1.869,20.118 2.299,8.909 8.837,12.896 8.945,12.753 0.108,-0.144 -6.055,-6.958 -7.329,-13.04 -1.293,-6.18 -1.652,-16.31 -1.688,-18.106 -0.036,-1.796 -1.652,-2.371 -1.797,-1.725 z"
   style="opacity:0.5;fill:#ffffff" />
				<path
   id="path391"
   inkscape:connector-curvature="0"
   enable-background="new    "
   d="m 190.837,450.133 c 0,0 -2.038,-12.158 5.329,-35.525 7.579,-24.039 18.977,-40.266 19.421,-56.485 0.474,-17.289 -11.96,-40.974 -14.092,-62.17 -2.062,-20.505 5.329,-30.789 5.329,-30.789 0,0 -9.71,8.646 -7.224,30.907 2.487,22.264 14.991,42.879 14.092,62.644 -0.829,18.237 -12.95,33.126 -19.776,57.078 -6.75,23.684 -3.079,34.34 -3.079,34.34 l 0,0 z"
   style="opacity:0.5;fill:#ffffff" />
				<path
   id="path393"
   inkscape:connector-curvature="0"
   enable-background="new    "
   d="m 218.098,487.808 c 1.549,0.636 3.167,1.223 4.834,1.769 -4.455,-3.229 -15.165,-7.848 -21.426,-15.191 -7.365,-8.639 -10.379,-20.379 -10.696,-24.339 -0.315,-1.017 -3.306,-11.753 3.107,-34.254 6.826,-23.952 18.947,-38.841 19.776,-57.078 0.898,-19.765 -11.605,-40.38 -14.092,-62.644 -2.487,-22.262 7.224,-30.907 7.224,-30.907 0,0 2.656,-3.463 6.112,-6.239 0.189,-0.152 0.384,-0.301 0.58,-0.449 -8.899,0.686 -17.274,14.346 -16.191,33.842 1.779,27.613 13.843,44.067 14.666,63.879 0.017,0.416 0.02,0.84 0.016,1.266 -0.001,0.096 -0.003,0.191 -0.006,0.287 -0.008,0.4 -0.024,0.807 -0.051,1.217 -0.001,0.015 -0.001,0.029 -0.002,0.044 -1.26,19.36 -21.945,48.474 -24.507,77.724 -0.258,3.417 -0.301,6.833 -0.101,10.23 1.955,26.141 14.678,34.248 30.757,40.843 l 0,0 z"
   style="opacity:0.5;fill:#434244" />
				<g
   id="g395"
   transform="translate(15.075551,-11.449786)">
					<path
   id="path397"
   inkscape:connector-curvature="0"
   d="m 251.665,511.09 c -0.333,0.474 -0.588,0.725 -0.056,1.345 0.502,0.586 2.734,0.737 3.301,0.767 v 0.006 c 0,0 0.027,-0.002 0.066,-0.004 0.039,0.002 0.066,0.004 0.066,0.004 v -0.007 c 0.567,-0.029 2.799,-0.181 3.301,-0.767 0.531,-0.62 0.277,-0.871 -0.057,-1.345 -0.408,-0.581 -1.498,-1.554 -1.498,-1.554 h -1.747 -0.133 -1.748 c 0.002,10e-4 -1.086,0.974 -1.495,1.555 l 0,0 z"
   style="fill:#e6e6e7" />
					
						<rect
   id="rect399"
   x="254.647"
   y="507.39099"
   transform="matrix(-2.547107e-6,-1,1,-2.547107e-6,-254.2301,764.1839)"
   width="0.65799999"
   height="3.632"
   style="fill:#bbbcbf" />
					<path
   id="path401"
   inkscape:connector-curvature="0"
   d="m 255.346,507.824 c -0.564,0 -1.652,-0.016 -3.155,-0.065 0.043,0.268 0.199,0.942 0.675,1.084 0.609,0.182 1.951,0.164 2.11,0.162 0.159,0.002 1.5,0.02 2.11,-0.162 0.404,-0.12 0.576,-0.625 0.646,-0.939 -1.173,-0.046 -1.995,-0.08 -2.386,-0.08 z"
   style="fill:#d0d1d3" />
				</g>
				<g
   id="g403"
   transform="translate(15.075551,-11.449786)">
					<path
   id="path405"
   inkscape:connector-curvature="0"
   d="m 205.483,269.001 c 0.507,-0.279 0.846,-0.394 0.641,-1.184 -0.194,-0.746 -2.132,-1.863 -2.629,-2.139 l 0.002,-0.006 c 0,0 -0.025,-0.012 -0.061,-0.026 -0.034,-0.019 -0.058,-0.032 -0.058,-0.032 l -0.002,0.006 c -0.522,-0.223 -2.594,-1.066 -3.303,-0.761 -0.75,0.323 -0.632,0.661 -0.541,1.232 0.113,0.702 0.663,2.054 0.663,2.054 l 1.57,0.768 0.12,0.059 1.57,0.768 c 0,-0.001 1.405,-0.397 2.028,-0.739 l 0,0 z"
   style="fill:#e6e6e7" />
					
						<rect
   id="rect407"
   x="201.33501"
   y="267.42499"
   transform="matrix(-0.4394,0.8983,-0.8983,-0.4394,532.1296,206.3813)"
   width="0.65799999"
   height="3.631"
   style="fill:#bbbcbf" />
					<path
   id="path409"
   inkscape:connector-curvature="0"
   d="m 198.11,269.964 c 0.692,-0.078 1.387,-0.088 2.083,-0.006 0,0 1.782,0.322 3.414,1.563 0.063,-0.318 0.089,-0.773 -0.19,-1.029 -0.467,-0.43 -1.68,-1.004 -1.824,-1.071 -0.142,-0.073 -1.339,-0.677 -1.966,-0.782 -0.457,-0.077 -1.176,0.844 -1.517,1.325 l 0,0 z"
   style="fill:#d0d1d3" />
				</g>
				<g
   id="g411"
   transform="translate(15.075551,-11.449786)">
					<path
   id="path413"
   inkscape:connector-curvature="0"
   d="m 241.365,292.385 c -0.005,0.413 -0.011,0.823 -0.016,1.231 h 27.807 l -0.021,-1.231 h -27.77 z"
   style="fill:#bbbcbf" />
					<path
   id="path415"
   inkscape:connector-curvature="0"
   d="m 241.718,265.321 c -0.005,0.412 -0.011,0.822 -0.016,1.232 h 27 l -0.02,-1.232 h -26.964 z"
   style="fill:#bbbcbf" />
					<path
   id="path417"
   inkscape:connector-curvature="0"
   d="m 241.593,274.88 c -0.005,0.411 -0.011,0.822 -0.016,1.231 h 27.286 l -0.021,-1.231 h -27.249 l 0,0 z"
   style="fill:#bbbcbf" />
					<path
   id="path419"
   inkscape:connector-curvature="0"
   d="m 241.261,300.415 c -0.005,0.413 -0.011,0.824 -0.016,1.232 h 28.046 l -0.021,-1.232 h -28.009 l 0,0 z"
   style="fill:#bbbcbf" />
					<path
   id="path421"
   inkscape:connector-curvature="0"
   d="m 240.979,321.938 c -0.005,0.416 -0.011,0.827 -0.016,1.23 h 28.689 l -0.021,-1.23 h -28.652 z"
   style="fill:#bbbcbf" />
					<path
   id="path423"
   inkscape:connector-curvature="0"
   d="m 269.758,329.483 -0.02,-1.231 h -28.842 c -0.005,0.42 -0.011,0.831 -0.016,1.231 h 28.878 z"
   style="fill:#bbbcbf" />
					<path
   id="path425"
   inkscape:connector-curvature="0"
   d="m 241.161,308.044 c -0.005,0.413 -0.011,0.824 -0.016,1.231 h 28.273 l -0.02,-1.231 h -28.237 l 0,0 z"
   style="fill:#bbbcbf" />
					<path
   id="path427"
   inkscape:connector-curvature="0"
   d="m 241.85,255.168 c -0.005,0.411 -0.011,0.822 -0.016,1.231 h 26.698 l -0.02,-1.231 H 241.85 z"
   style="fill:#bbbcbf" />
					<path
   id="path429"
   inkscape:connector-curvature="0"
   d="m 241.068,315.14 c -0.005,0.414 -0.011,0.825 -0.016,1.231 h 28.485 l -0.02,-1.231 h -28.449 z"
   style="fill:#bbbcbf" />
					<path
   id="path431"
   inkscape:connector-curvature="0"
   d="m 241.476,283.911 c -0.005,0.412 -0.01,0.822 -0.016,1.232 h 27.554 l -0.021,-1.232 h -27.517 l 0,0 z"
   style="fill:#bbbcbf" />
					<path
   id="path433"
   inkscape:connector-curvature="0"
   d="m 242.999,165.987 c -0.005,0.41 -0.01,0.82 -0.016,1.231 h 24.052 l -0.021,-1.231 h -24.015 l 0,0 z"
   style="fill:#bbbcbf" />
					<path
   id="path435"
   inkscape:connector-curvature="0"
   d="m 243.201,150.011 c -0.005,0.409 -0.01,0.819 -0.016,1.231 h 23.58 l -0.02,-1.231 h -23.544 l 0,0 z"
   style="fill:#bbbcbf" />
					<path
   id="path437"
   inkscape:connector-curvature="0"
   d="m 243.638,114.977 c -0.005,0.406 -0.01,0.815 -0.015,1.23 h 22.555 l -0.02,-1.23 h -22.52 l 0,0 z"
   style="fill:#bbbcbf" />
					<path
   id="path439"
   inkscape:connector-curvature="0"
   d="m 243.417,132.815 c -0.005,0.408 -0.01,0.819 -0.016,1.231 h 23.077 l -0.021,-1.231 h -23.04 l 0,0 z"
   style="fill:#bbbcbf" />
					<path
   id="path441"
   inkscape:connector-curvature="0"
   d="m 241.983,244.906 c -0.005,0.411 -0.011,0.821 -0.016,1.231 h 26.393 l -0.021,-1.231 h -26.356 l 0,0 z"
   style="fill:#bbbcbf" />
					<path
   id="path443"
   inkscape:connector-curvature="0"
   d="m 242.807,180.974 c -0.005,0.41 -0.01,0.82 -0.016,1.231 h 24.494 l -0.02,-1.231 h -24.458 z"
   style="fill:#bbbcbf" />
					<path
   id="path445"
   inkscape:connector-curvature="0"
   d="m 242.624,195.303 c -0.005,0.41 -0.011,0.82 -0.016,1.231 h 24.92 l -0.021,-1.231 h -24.883 z"
   style="fill:#bbbcbf" />
					<path
   id="path447"
   inkscape:connector-curvature="0"
   d="m 242.13,233.562 c -0.005,0.41 -0.011,0.821 -0.016,1.231 h 26.054 l -0.02,-1.231 H 242.13 z"
   style="fill:#bbbcbf" />
					<path
   id="path449"
   inkscape:connector-curvature="0"
   d="m 242.287,221.453 c -0.005,0.41 -0.011,0.821 -0.016,1.231 h 25.694 l -0.02,-1.231 h -25.658 z"
   style="fill:#bbbcbf" />
					<path
   id="path451"
   inkscape:connector-curvature="0"
   d="m 242.449,208.844 c -0.005,0.41 -0.011,0.82 -0.016,1.231 h 25.321 l -0.021,-1.231 h -25.284 z"
   style="fill:#bbbcbf" />
				</g>
				<g
   id="g453"
   transform="translate(15.075551,-11.449786)">
					<path
   id="path455"
   inkscape:connector-curvature="0"
   d="m 241.369,292.128 c -0.005,0.412 -0.011,0.823 -0.016,1.232 h 27.8 l -0.021,-1.232 h -27.763 l 0,0 z"
   style="fill:#d8d4bc" />
					<path
   id="path457"
   inkscape:connector-curvature="0"
   d="m 241.264,300.159 c -0.005,0.412 -0.011,0.822 -0.016,1.23 h 28.039 l -0.021,-1.23 h -28.002 l 0,0 z"
   style="fill:#d8d4bc" />
					<path
   id="path459"
   inkscape:connector-curvature="0"
   d="m 241.479,283.655 c -0.005,0.412 -0.011,0.822 -0.016,1.23 h 27.546 l -0.021,-1.23 h -27.509 z"
   style="fill:#d8d4bc" />
					<path
   id="path461"
   inkscape:connector-curvature="0"
   d="m 241.853,254.911 c -0.005,0.412 -0.011,0.822 -0.016,1.232 h 26.69 l -0.021,-1.232 h -26.653 l 0,0 z"
   style="fill:#d8d4bc" />
					<path
   id="path463"
   inkscape:connector-curvature="0"
   d="m 241.597,274.623 c -0.005,0.411 -0.011,0.821 -0.016,1.231 h 27.277 l -0.02,-1.231 h -27.241 l 0,0 z"
   style="fill:#d8d4bc" />
					<path
   id="path465"
   inkscape:connector-curvature="0"
   d="m 241.721,265.065 c -0.005,0.411 -0.011,0.822 -0.016,1.231 h 26.992 l -0.021,-1.231 h -26.955 z"
   style="fill:#d8d4bc" />
					<path
   id="path467"
   inkscape:connector-curvature="0"
   d="m 269.754,329.228 -0.021,-1.232 H 240.9 c -0.005,0.42 -0.011,0.83 -0.016,1.232 h 28.87 z"
   style="fill:#d8d4bc" />
					<path
   id="path469"
   inkscape:connector-curvature="0"
   d="m 240.983,321.682 c -0.006,0.416 -0.011,0.827 -0.016,1.231 h 28.682 l -0.021,-1.231 h -28.645 l 0,0 z"
   style="fill:#d8d4bc" />
					<path
   id="path471"
   inkscape:connector-curvature="0"
   d="m 241.072,314.883 c -0.005,0.415 -0.011,0.825 -0.016,1.231 h 28.478 l -0.02,-1.231 h -28.442 z"
   style="fill:#d8d4bc" />
					<path
   id="path473"
   inkscape:connector-curvature="0"
   d="m 241.164,307.787 c -0.005,0.413 -0.01,0.823 -0.016,1.231 h 28.266 l -0.02,-1.231 h -28.23 l 0,0 z"
   style="fill:#d8d4bc" />
					<path
   id="path475"
   inkscape:connector-curvature="0"
   d="m 242.811,180.717 c -0.005,0.41 -0.011,0.82 -0.016,1.231 h 24.487 l -0.02,-1.231 h -24.451 l 0,0 z"
   style="fill:#d8d4bc" />
					<path
   id="path477"
   inkscape:connector-curvature="0"
   d="m 243.205,149.754 c -0.005,0.409 -0.01,0.819 -0.016,1.231 h 23.573 l -0.021,-1.231 h -23.536 z"
   style="fill:#d8d4bc" />
					<path
   id="path479"
   inkscape:connector-curvature="0"
   d="m 243.002,165.73 c -0.005,0.41 -0.011,0.82 -0.016,1.231 h 24.043 l -0.02,-1.231 h -24.007 z"
   style="fill:#d8d4bc" />
					<path
   id="path481"
   inkscape:connector-curvature="0"
   d="m 243.421,132.56 c -0.005,0.407 -0.01,0.818 -0.016,1.23 h 23.067 l -0.02,-1.23 h -23.031 l 0,0 z"
   style="fill:#d8d4bc" />
					<path
   id="path483"
   inkscape:connector-curvature="0"
   d="m 243.641,114.72 c -0.005,0.405 -0.01,0.816 -0.015,1.231 h 22.548 l -0.02,-1.231 h -22.513 l 0,0 z"
   style="fill:#d8d4bc" />
					<path
   id="path485"
   inkscape:connector-curvature="0"
   d="m 242.133,233.305 c -0.005,0.411 -0.011,0.821 -0.016,1.231 h 26.047 l -0.02,-1.231 h -26.011 l 0,0 z"
   style="fill:#d8d4bc" />
					<path
   id="path487"
   inkscape:connector-curvature="0"
   d="m 242.29,221.196 c -0.005,0.411 -0.01,0.821 -0.016,1.231 h 25.687 l -0.021,-1.231 h -25.65 l 0,0 z"
   style="fill:#d8d4bc" />
					<path
   id="path489"
   inkscape:connector-curvature="0"
   d="m 242.626,195.046 c -0.005,0.41 -0.01,0.821 -0.016,1.231 h 24.911 l -0.02,-1.231 h -24.875 z"
   style="fill:#d8d4bc" />
					<path
   id="path491"
   inkscape:connector-curvature="0"
   d="m 241.986,244.649 c -0.005,0.411 -0.011,0.821 -0.016,1.231 h 26.385 l -0.021,-1.231 h -26.348 z"
   style="fill:#d8d4bc" />
					<path
   id="path493"
   inkscape:connector-curvature="0"
   d="m 242.453,208.587 c -0.005,0.41 -0.011,0.821 -0.016,1.231 h 25.313 l -0.021,-1.231 h -25.276 z"
   style="fill:#d8d4bc" />
				</g>
				<polygon
   id="polygon495"
   points="258.927,83.609 258.911,84.84 280.919,84.84 280.897,83.609 "
   style="fill:#e6e6e7" />
				<polygon
   id="polygon497"
   points="258.935,82.994 258.914,84.583 280.915,84.583 280.888,82.994 "
   style="fill:#efefe4" />
				<polygon
   id="polygon499"
   points="284.16,430.467 279.096,1.867 278.796,1.869 283.859,430.477 "
   style="fill:#bbbcbf" />
				
					<rect
   id="rect501"
   x="68.899002"
   y="222.123"
   transform="matrix(-0.0063,-1,1,-0.0063,56.5502,500.7764)"
   width="416.383"
   height="0.336"
   style="fill:#bbbcbf" />
				
					<rect
   id="rect503"
   x="70.225998"
   y="228.00999"
   transform="matrix(-0.0015,-1,1,-0.0015,44.711,501.034)"
   width="404.54001"
   height="0.37099999"
   style="fill:#bbbcbf" />
				
					<rect
   id="rect505"
   x="73.170998"
   y="235.694"
   transform="matrix(0.003,-1,1,0.003,31.0301,502.9507)"
   width="389.14801"
   height="0.43900001"
   style="fill:#bbbcbf" />
				<polygon
   id="polygon507"
   points="262.018,430.48 264.643,50.001 264.143,49.999 261.521,430.471 "
   style="fill:#bbbcbf" />
				<polygon
   id="polygon509"
   points="256.532,430.484 260.949,65.998 260.358,65.995 255.941,430.466 "
   style="fill:#bbbcbf" />
				
					<circle
   id="circle511"
   sodipodi:cx="269.918"
   sodipodi:cy="216.683"
   sodipodi:rx="1.534"
   sodipodi:ry="1.534"
   cx="269.918"
   cy="216.683"
   r="1.534"
   d="m 271.452,216.683 c 0,0.8472 -0.6868,1.534 -1.534,1.534 -0.84721,0 -1.534,-0.6868 -1.534,-1.534 0,-0.84721 0.68679,-1.534 1.534,-1.534 0.8472,0 1.534,0.68679 1.534,1.534 z"
   style="fill:#1b1b1b">
				</circle>
				
					<circle
   id="circle513"
   sodipodi:cx="269.918"
   sodipodi:cy="191.17799"
   sodipodi:rx="1.534"
   sodipodi:ry="1.534"
   cx="269.918"
   cy="191.17799"
   r="1.534"
   d="m 271.452,191.17799 c 0,0.84721 -0.6868,1.534 -1.534,1.534 -0.84721,0 -1.534,-0.68679 -1.534,-1.534 0,-0.8472 0.68679,-1.534 1.534,-1.534 0.8472,0 1.534,0.6868 1.534,1.534 z"
   style="fill:#1b1b1b">
				</circle>
				
					<circle
   id="circle515"
   sodipodi:cx="269.918"
   sodipodi:cy="162.591"
   sodipodi:rx="1.534"
   sodipodi:ry="1.534"
   cx="269.918"
   cy="162.591"
   r="1.534"
   d="m 271.452,162.591 c 0,0.84721 -0.6868,1.534 -1.534,1.534 -0.84721,0 -1.534,-0.68679 -1.534,-1.534 0,-0.8472 0.68679,-1.534 1.534,-1.534 0.8472,0 1.534,0.6868 1.534,1.534 z"
   style="fill:#1b1b1b">
				</circle>
				
					<circle
   id="circle517"
   sodipodi:cx="269.918"
   sodipodi:cy="130.40401"
   sodipodi:rx="1.534"
   sodipodi:ry="1.534"
   cx="269.918"
   cy="130.40401"
   r="1.534"
   d="m 271.452,130.40401 c 0,0.8472 -0.6868,1.534 -1.534,1.534 -0.84721,0 -1.534,-0.6868 -1.534,-1.534 0,-0.84721 0.68679,-1.534 1.534,-1.534 0.8472,0 1.534,0.68679 1.534,1.534 z"
   style="fill:#1b1b1b">
				</circle>
				<g
   id="g523"
   transform="translate(15.075551,-11.449786)">
					
						<circle
   id="circle525"
   sodipodi:cx="244.364"
   sodipodi:cy="75.716003"
   sodipodi:rx="2.8310001"
   sodipodi:ry="2.8310001"
   cx="244.364"
   cy="75.716003"
   r="2.8310001"
   d="m 247.195,75.716003 c 0,1.563519 -1.26748,2.831001 -2.831,2.831001 -1.56352,0 -2.831,-1.267482 -2.831,-2.831001 0,-1.563518 1.26748,-2.831 2.831,-2.831 1.56352,0 2.831,1.267482 2.831,2.831 z"
   style="fill:#d0d1d3">
					</circle>
					<path
   id="path527"
   inkscape:connector-curvature="0"
   d="m 241.553,76.048 c 0.165,1.407 1.359,2.499 2.811,2.499 1.452,0 2.646,-1.092 2.81,-2.499 h -5.621 z"
   style="fill:#bbbcbf" />
					
						<circle
   id="circle529"
   sodipodi:cx="244.364"
   sodipodi:cy="75.356003"
   sodipodi:rx="1.5470001"
   sodipodi:ry="1.5470001"
   cx="244.364"
   cy="75.356003"
   r="1.5470001"
   d="m 245.911,75.356003 c 0,0.854384 -0.69262,1.547 -1.547,1.547 -0.85439,0 -1.547,-0.692616 -1.547,-1.547 0,-0.854385 0.69261,-1.547 1.547,-1.547 0.85438,0 1.547,0.692615 1.547,1.547 z"
   style="fill:#6d6e70">
					</circle>
					
						<circle
   id="circle531"
   sodipodi:cx="244.364"
   sodipodi:cy="74.556"
   sodipodi:rx="1.492"
   sodipodi:ry="1.492"
   cx="244.364"
   cy="74.556"
   r="1.492"
   d="m 245.856,74.556 c 0,0.824009 -0.66799,1.492 -1.492,1.492 -0.82401,0 -1.492,-0.667991 -1.492,-1.492 0,-0.824009 0.66799,-1.492 1.492,-1.492 0.82401,0 1.492,0.667991 1.492,1.492 z"
   style="fill:#f1f1f2">
					</circle>
					<path
   id="path533"
   inkscape:connector-curvature="0"
   d="m 242.872,74.556 c 0,0.824 0.668,1.492 1.492,1.492 0.824,0 1.492,-0.668 1.492,-1.492 h -2.984 l 0,0 z"
   style="fill:#e6e6e7" />
				</g>
				<g
   id="g535"
   transform="translate(15.075551,-11.449786)">
					
						<circle
   id="circle537"
   sodipodi:cx="248.032"
   sodipodi:cy="63.561001"
   sodipodi:rx="2.8310001"
   sodipodi:ry="2.8310001"
   cx="248.032"
   cy="63.561001"
   r="2.8310001"
   d="m 250.863,63.561001 c 0,1.563518 -1.26748,2.831 -2.831,2.831 -1.56352,0 -2.831,-1.267482 -2.831,-2.831 0,-1.563518 1.26748,-2.831 2.831,-2.831 1.56352,0 2.831,1.267482 2.831,2.831 z"
   style="fill:#d0d1d3">
					</circle>
					<path
   id="path539"
   inkscape:connector-curvature="0"
   d="m 245.222,63.892 c 0.165,1.408 1.359,2.5 2.811,2.5 1.451,0 2.646,-1.092 2.81,-2.5 h -5.621 z"
   style="fill:#bbbcbf" />
					
						<circle
   id="circle541"
   sodipodi:cx="248.032"
   sodipodi:cy="63.201"
   sodipodi:rx="1.5470001"
   sodipodi:ry="1.5470001"
   cx="248.032"
   cy="63.201"
   r="1.5470001"
   d="m 249.579,63.201 c 0,0.854385 -0.69262,1.547 -1.547,1.547 -0.85439,0 -1.547,-0.692615 -1.547,-1.547 0,-0.854384 0.69261,-1.547 1.547,-1.547 0.85438,0 1.547,0.692616 1.547,1.547 z"
   style="fill:#6d6e70">
					</circle>
					
						<circle
   id="circle543"
   sodipodi:cx="248.032"
   sodipodi:cy="62.400002"
   sodipodi:rx="1.4910001"
   sodipodi:ry="1.4910001"
   cx="248.032"
   cy="62.400002"
   r="1.4910001"
   d="m 249.523,62.400002 c 0,0.823456 -0.66755,1.491 -1.491,1.491 -0.82346,0 -1.491,-0.667544 -1.491,-1.491 0,-0.823457 0.66754,-1.491001 1.491,-1.491001 0.82345,0 1.491,0.667544 1.491,1.491001 z"
   style="fill:#f1f1f2">
					</circle>
					<path
   id="path545"
   inkscape:connector-curvature="0"
   d="m 246.541,62.4 c 0,0.824 0.668,1.491 1.492,1.491 0.824,0 1.492,-0.667 1.492,-1.491 h -2.984 l 0,0 z"
   style="fill:#e6e6e7" />
				</g>
				<g
   id="g547"
   transform="translate(15.075551,-11.449786)">
					
						<circle
   id="circle549"
   sodipodi:cx="251.77299"
   sodipodi:cy="51.262001"
   sodipodi:rx="2.832"
   sodipodi:ry="2.832"
   cx="251.77299"
   cy="51.262001"
   r="2.832"
   d="m 254.605,51.262001 c 0,1.56407 -1.26793,2.832 -2.83201,2.832 -1.56407,0 -2.832,-1.26793 -2.832,-2.832 0,-1.56407 1.26793,-2.832 2.832,-2.832 1.56408,0 2.83201,1.26793 2.83201,2.832 z"
   style="fill:#d0d1d3">
					</circle>
					<path
   id="path551"
   inkscape:connector-curvature="0"
   d="m 248.962,51.594 c 0.165,1.407 1.359,2.5 2.811,2.5 1.452,0 2.646,-1.093 2.81,-2.5 h -5.621 z"
   style="fill:#bbbcbf" />
					
						<circle
   id="circle553"
   sodipodi:cx="251.77299"
   sodipodi:cy="50.903"
   sodipodi:rx="1.5470001"
   sodipodi:ry="1.5470001"
   cx="251.77299"
   cy="50.903"
   r="1.5470001"
   d="m 253.32,50.903 c 0,0.854384 -0.69262,1.547 -1.54701,1.547 -0.85438,0 -1.547,-0.692616 -1.547,-1.547 0,-0.854385 0.69262,-1.547 1.547,-1.547 0.85439,0 1.54701,0.692615 1.54701,1.547 z"
   style="fill:#6d6e70">
					</circle>
					
						<circle
   id="circle555"
   sodipodi:cx="251.77299"
   sodipodi:cy="50.102001"
   sodipodi:rx="1.492"
   sodipodi:ry="1.492"
   cx="251.77299"
   cy="50.102001"
   r="1.492"
   d="m 253.26499,50.102001 c 0,0.824009 -0.66799,1.492 -1.492,1.492 -0.824,0 -1.49199,-0.667991 -1.49199,-1.492 0,-0.824009 0.66799,-1.492 1.49199,-1.492 0.82401,0 1.492,0.667991 1.492,1.492 z"
   style="fill:#f1f1f2">
					</circle>
					<path
   id="path557"
   inkscape:connector-curvature="0"
   d="m 250.281,50.102 c 0,0.824 0.668,1.492 1.492,1.492 0.824,0 1.492,-0.668 1.492,-1.492 h -2.984 l 0,0 z"
   style="fill:#e6e6e7" />
				</g>
				<g
   id="g559"
   transform="translate(15.075551,-11.449786)">
					
						<circle
   id="circle561"
   sodipodi:cx="255.502"
   sodipodi:cy="39.096001"
   sodipodi:rx="2.832"
   sodipodi:ry="2.832"
   cx="255.502"
   cy="39.096001"
   r="2.832"
   d="m 258.334,39.096001 c 0,1.56407 -1.26793,2.832 -2.832,2.832 -1.56407,0 -2.832,-1.26793 -2.832,-2.832 0,-1.564071 1.26793,-2.832 2.832,-2.832 1.56407,0 2.832,1.267929 2.832,2.832 z"
   style="fill:#d0d1d3">
					</circle>
					<path
   id="path563"
   inkscape:connector-curvature="0"
   d="m 252.692,39.428 c 0.165,1.407 1.359,2.5 2.811,2.5 1.451,0 2.646,-1.093 2.81,-2.5 h -5.621 l 0,0 z"
   style="fill:#bbbcbf" />
					
						<circle
   id="circle565"
   sodipodi:cx="255.502"
   sodipodi:cy="38.737"
   sodipodi:rx="1.5470001"
   sodipodi:ry="1.5470001"
   cx="255.502"
   cy="38.737"
   r="1.5470001"
   d="m 257.049,38.737 c 0,0.854384 -0.69262,1.547 -1.547,1.547 -0.85439,0 -1.547,-0.692616 -1.547,-1.547 0,-0.854385 0.69261,-1.547001 1.547,-1.547001 0.85438,0 1.547,0.692616 1.547,1.547001 z"
   style="fill:#6d6e70">
					</circle>
					
						<circle
   id="circle567"
   sodipodi:cx="255.502"
   sodipodi:cy="37.936001"
   sodipodi:rx="1.492"
   sodipodi:ry="1.492"
   cx="255.502"
   cy="37.936001"
   r="1.492"
   d="m 256.994,37.936001 c 0,0.824009 -0.66799,1.492 -1.492,1.492 -0.82401,0 -1.492,-0.667991 -1.492,-1.492 0,-0.824009 0.66799,-1.492 1.492,-1.492 0.82401,0 1.492,0.667991 1.492,1.492 z"
   style="fill:#f1f1f2">
					</circle>
					<path
   id="path569"
   inkscape:connector-curvature="0"
   d="m 254.011,37.936 c 0,0.824 0.667,1.492 1.492,1.492 0.823,0 1.491,-0.668 1.491,-1.492 h -2.983 l 0,0 z"
   style="fill:#e6e6e7" />
				</g>
				<g
   id="g571"
   transform="translate(15.075551,-11.449786)">
					
						<circle
   id="circle573"
   sodipodi:cx="259.16199"
   sodipodi:cy="27.040001"
   sodipodi:rx="2.832"
   sodipodi:ry="2.832"
   cx="259.16199"
   cy="27.040001"
   r="2.832"
   d="m 261.99399,27.040001 c 0,1.56407 -1.26793,2.832 -2.832,2.832 -1.56407,0 -2.832,-1.26793 -2.832,-2.832 0,-1.564071 1.26793,-2.832 2.832,-2.832 1.56407,0 2.832,1.267929 2.832,2.832 z"
   style="fill:#d0d1d3">
					</circle>
					<path
   id="path575"
   inkscape:connector-curvature="0"
   d="m 256.352,27.371 c 0.164,1.407 1.359,2.5 2.81,2.5 1.451,0 2.646,-1.093 2.811,-2.5 h -5.621 z"
   style="fill:#bbbcbf" />
					
						<circle
   id="circle577"
   sodipodi:cx="259.16199"
   sodipodi:cy="26.681"
   sodipodi:rx="1.5470001"
   sodipodi:ry="1.5470001"
   cx="259.16199"
   cy="26.681"
   r="1.5470001"
   d="m 260.70899,26.681 c 0,0.854384 -0.69262,1.547 -1.547,1.547 -0.85439,0 -1.547,-0.692616 -1.547,-1.547 0,-0.854385 0.69261,-1.547 1.547,-1.547 0.85438,0 1.547,0.692615 1.547,1.547 z"
   style="fill:#6d6e70">
					</circle>
					
						<circle
   id="circle579"
   sodipodi:cx="259.16199"
   sodipodi:cy="25.879"
   sodipodi:rx="1.492"
   sodipodi:ry="1.492"
   cx="259.16199"
   cy="25.879"
   r="1.492"
   d="m 260.65399,25.879 c 0,0.824009 -0.66799,1.492 -1.492,1.492 -0.82401,0 -1.492,-0.667991 -1.492,-1.492 0,-0.824009 0.66799,-1.492 1.492,-1.492 0.82401,0 1.492,0.667991 1.492,1.492 z"
   style="fill:#f1f1f2">
					</circle>
					<path
   id="path581"
   inkscape:connector-curvature="0"
   d="m 257.67,25.88 c 0,0.823 0.668,1.491 1.492,1.491 0.824,0 1.492,-0.668 1.492,-1.491 h -2.984 z"
   style="fill:#e6e6e7" />
				</g>
				<g
   id="g583"
   transform="translate(15.075551,-11.449786)">
					
						<circle
   id="circle585"
   sodipodi:cx="262.87701"
   sodipodi:cy="14.875"
   sodipodi:rx="2.832"
   sodipodi:ry="2.832"
   cx="262.87701"
   cy="14.875"
   r="2.832"
   d="m 265.70901,14.875 c 0,1.56407 -1.26793,2.832 -2.832,2.832 -1.56407,0 -2.832,-1.26793 -2.832,-2.832 0,-1.56407 1.26793,-2.832 2.832,-2.832 1.56407,0 2.832,1.26793 2.832,2.832 z"
   style="fill:#d0d1d3">
					</circle>
					<path
   id="path587"
   inkscape:connector-curvature="0"
   d="m 260.066,15.207 c 0.164,1.407 1.357,2.5 2.811,2.5 1.451,0 2.645,-1.093 2.809,-2.5 h -5.62 l 0,0 z"
   style="fill:#bbbcbf" />
					
						<circle
   id="circle589"
   sodipodi:cx="262.87701"
   sodipodi:cy="14.517"
   sodipodi:rx="1.5470001"
   sodipodi:ry="1.5470001"
   cx="262.87701"
   cy="14.517"
   r="1.5470001"
   d="m 264.42401,14.517 c 0,0.854385 -0.69261,1.547 -1.547,1.547 -0.85438,0 -1.547,-0.692615 -1.547,-1.547 0,-0.854384 0.69262,-1.547 1.547,-1.547 0.85439,0 1.547,0.692616 1.547,1.547 z"
   style="fill:#6d6e70">
					</circle>
					
						<circle
   id="circle591"
   sodipodi:cx="262.87701"
   sodipodi:cy="13.715"
   sodipodi:rx="1.492"
   sodipodi:ry="1.492"
   cx="262.87701"
   cy="13.715"
   r="1.492"
   d="m 264.36901,13.715 c 0,0.824009 -0.66799,1.492 -1.492,1.492 -0.824,0 -1.492,-0.667991 -1.492,-1.492 0,-0.824009 0.668,-1.492 1.492,-1.492 0.82401,0 1.492,0.667991 1.492,1.492 z"
   style="fill:#f1f1f2">
					</circle>
					<path
   id="path593"
   inkscape:connector-curvature="0"
   d="m 261.385,13.716 c 0,0.823 0.668,1.491 1.492,1.491 0.822,0 1.49,-0.668 1.49,-1.491 h -2.982 z"
   style="fill:#e6e6e7" />
				</g>
				<g
   id="g595"
   transform="translate(15.075551,-11.449786)">
					
						<rect
   id="rect597"
   x="237.091"
   y="71.345001"
   transform="matrix(0.2893,-0.9572,0.9572,0.2893,99.4954,279.481)"
   width="1.7640001"
   height="2.7750001"
   style="fill:#d0d1d3" />
					
						<rect
   id="rect599"
   x="237.409"
   y="71.750999"
   transform="matrix(0.2894,-0.9572,0.9572,0.2894,99.0122,279.6476)"
   width="0.88099998"
   height="2.7750001"
   style="fill:#b7b7b7" />
					
						<rect
   id="rect601"
   x="235.944"
   y="72.195999"
   transform="matrix(0.2893,-0.9572,0.9572,0.2893,99.0156,278.1387)"
   enable-background="new    "
   width="1.7640001"
   height="0.37900001"
   style="opacity:0.7;fill:#808183" />
					
						<ellipse
   id="ellipse603"
   sodipodi:cx="233.552"
   sodipodi:cy="71.374001"
   sodipodi:rx="3.348"
   sodipodi:ry="4.5879998"
   transform="matrix(0.9572,0.2893,-0.2893,0.9572,30.6327,-64.5106)"
   cx="233.552"
   cy="71.374001"
   rx="3.348"
   ry="4.5879998"
   d="m 236.9,71.374001 c 0,2.533882 -1.49895,4.587999 -3.348,4.587999 -1.84905,0 -3.348,-2.054117 -3.348,-4.587999 0,-2.533883 1.49895,-4.588 3.348,-4.588 1.84905,0 3.348,2.054117 3.348,4.588 z"
   style="fill:#d0d1d3">
					</ellipse>
					<path
   id="path605"
   inkscape:connector-curvature="0"
   d="m 236.743,72.35 c -0.733,2.426 -2.762,3.959 -4.532,3.424 -1.77,-0.535 -2.61,-2.935 -1.877,-5.36 l 6.409,1.936 z"
   style="fill:#929496" />
					<path
   id="path607"
   inkscape:connector-curvature="0"
   d="m 230.334,70.413 0,0 c -0.681,2.253 0.202,4.513 1.972,5.048 1.77,0.534 3.756,-0.858 4.437,-3.111 l 0,0 -6.409,-1.937 z"
   style="fill:#bfbfbf" />
				</g>
				<g
   id="g609"
   transform="translate(15.075551,-11.449786)">
					
						<rect
   id="rect611"
   x="240.73599"
   y="59.387001"
   transform="matrix(0.2893,-0.9572,0.9572,0.2893,113.5358,274.4741)"
   width="1.7640001"
   height="2.7750001"
   style="fill:#d0d1d3" />
					
						<rect
   id="rect613"
   x="241.05"
   y="59.800999"
   transform="matrix(0.2894,-0.9572,0.9572,0.2894,113.0412,274.643)"
   width="0.88200003"
   height="2.7750001"
   style="fill:#b7b7b7" />
					
						<rect
   id="rect615"
   x="239.58"
   y="60.216999"
   transform="matrix(0.2896,-0.9572,0.9572,0.2896,113.0175,273.0767)"
   enable-background="new    "
   width="1.7640001"
   height="0.37900001"
   style="opacity:0.7;fill:#808183" />
					
						<ellipse
   id="ellipse617"
   sodipodi:cx="237.19701"
   sodipodi:cy="59.412998"
   sodipodi:rx="3.3469999"
   sodipodi:ry="4.5879998"
   transform="matrix(0.9572,0.2893,-0.2893,0.9572,27.3284,-66.0757)"
   cx="237.19701"
   cy="59.412998"
   rx="3.3469999"
   ry="4.5879998"
   d="m 240.54401,59.412998 c 0,2.533883 -1.49851,4.588 -3.347,4.588 -1.8485,0 -3.347,-2.054117 -3.347,-4.588 0,-2.533882 1.4985,-4.588 3.347,-4.588 1.84849,0 3.347,2.054118 3.347,4.588 z"
   style="fill:#d0d1d3">
					</ellipse>
					<path
   id="path619"
   inkscape:connector-curvature="0"
   d="m 240.387,60.392 c -0.733,2.425 -2.762,3.958 -4.531,3.423 -1.77,-0.534 -2.61,-2.935 -1.877,-5.359 l 6.408,1.936 z"
   style="fill:#929496" />
					<path
   id="path621"
   inkscape:connector-curvature="0"
   d="m 233.978,58.454 0,0 c -0.681,2.253 0.202,4.514 1.972,5.048 1.77,0.535 3.756,-0.858 4.437,-3.11 v -0.001 l -6.409,-1.937 z"
   style="fill:#bfbfbf" />
				</g>
				<g
   id="g623"
   transform="translate(15.075551,-11.449786)">
					
						<rect
   id="rect625"
   x="244.409"
   y="47.348999"
   transform="matrix(0.2893,-0.9572,0.9572,0.2893,127.6692,269.4357)"
   width="1.7640001"
   height="2.7750001"
   style="fill:#d0d1d3" />
					
						<rect
   id="rect627"
   x="244.72301"
   y="47.765999"
   transform="matrix(0.2898,-0.9571,0.9571,0.2898,127.069,269.5508)"
   width="0.88200003"
   height="2.7750001"
   style="fill:#b7b7b7" />
					
						<rect
   id="rect629"
   x="243.254"
   y="48.179001"
   transform="matrix(0.2896,-0.9572,0.9572,0.2896,127.145,268.0391)"
   enable-background="new    "
   width="1.7640001"
   height="0.37900001"
   style="opacity:0.7;fill:#808183" />
					
						<ellipse
   id="ellipse631"
   sodipodi:cx="240.87"
   sodipodi:cy="47.376999"
   sodipodi:rx="3.3469999"
   sodipodi:ry="4.5879998"
   transform="matrix(0.9572,0.2893,-0.2893,0.9572,24.0029,-67.6516)"
   cx="240.87"
   cy="47.376999"
   rx="3.3469999"
   ry="4.5879998"
   d="m 244.217,47.376999 c 0,2.533882 -1.49851,4.588 -3.347,4.588 -1.8485,0 -3.347,-2.054118 -3.347,-4.588 0,-2.533882 1.4985,-4.588 3.347,-4.588 1.84849,0 3.347,2.054118 3.347,4.588 z"
   style="fill:#d0d1d3">
					</ellipse>
					<path
   id="path633"
   inkscape:connector-curvature="0"
   d="m 244.061,48.354 c -0.733,2.426 -2.762,3.959 -4.531,3.424 -1.77,-0.535 -2.61,-2.935 -1.877,-5.36 l 6.408,1.936 z"
   style="fill:#929496" />
					<path
   id="path635"
   inkscape:connector-curvature="0"
   d="m 237.652,46.418 0,0 c -0.681,2.253 0.202,4.513 1.972,5.048 1.77,0.534 3.756,-0.858 4.437,-3.111 l 0,0 -6.409,-1.937 z"
   style="fill:#bfbfbf" />
				</g>
				<g
   id="g637"
   transform="translate(15.075551,-11.449786)">
					
						<rect
   id="rect639"
   x="248.02901"
   y="35.442001"
   transform="matrix(0.2893,-0.9572,0.9572,0.2893,141.6388,264.4384)"
   width="1.7640001"
   height="2.7750001"
   style="fill:#d0d1d3" />
					
						<rect
   id="rect641"
   x="248.347"
   y="35.845001"
   transform="matrix(0.2888,-0.9574,0.9574,0.2888,141.2871,264.6649)"
   width="0.88200003"
   height="2.7750001"
   style="fill:#b7b7b7" />
					
						<rect
   id="rect643"
   x="246.882"
   y="36.293999"
   transform="matrix(0.2893,-0.9572,0.9572,0.2893,141.1559,263.095)"
   enable-background="new    "
   width="1.7640001"
   height="0.37900001"
   style="opacity:0.7;fill:#808183" />
					
						<ellipse
   id="ellipse645"
   sodipodi:cx="244.47099"
   sodipodi:cy="35.467999"
   sodipodi:rx="3.3469999"
   sodipodi:ry="4.5890002"
   transform="matrix(0.9573,0.2892,-0.2892,0.9573,20.7022,-69.1819)"
   cx="244.47099"
   cy="35.467999"
   rx="3.3469999"
   ry="4.5890002"
   d="m 247.81799,35.467999 c 0,2.534434 -1.4985,4.589 -3.347,4.589 -1.84849,0 -3.347,-2.054566 -3.347,-4.589 0,-2.534435 1.49851,-4.589001 3.347,-4.589001 1.8485,0 3.347,2.054566 3.347,4.589001 z"
   style="fill:#d0d1d3">
					</ellipse>
					<path
   id="path647"
   inkscape:connector-curvature="0"
   d="m 247.679,36.447 c -0.733,2.425 -2.762,3.958 -4.531,3.424 -1.77,-0.535 -2.61,-2.936 -1.877,-5.36 l 6.408,1.936 z"
   style="fill:#929496" />
					<path
   id="path649"
   inkscape:connector-curvature="0"
   d="m 241.271,34.511 0,0 c -0.681,2.253 0.202,4.513 1.972,5.047 1.77,0.535 3.756,-0.857 4.437,-3.11 v -10e-4 l -6.409,-1.936 z"
   style="fill:#bfbfbf" />
				</g>
				<g
   id="g651"
   transform="translate(15.075551,-11.449786)">
					
						<rect
   id="rect653"
   x="251.688"
   y="23.493"
   transform="matrix(0.2892,-0.9573,0.9573,0.2892,155.7006,259.4582)"
   width="1.7640001"
   height="2.7750001"
   style="fill:#d0d1d3" />
					
						<rect
   id="rect655"
   x="252.004"
   y="23.896"
   transform="matrix(0.2891,-0.9573,0.9573,0.2891,155.2662,259.6421)"
   width="0.88200003"
   height="2.7750001"
   style="fill:#b7b7b7" />
					
						<rect
   id="rect657"
   x="250.541"
   y="24.344"
   transform="matrix(0.2892,-0.9573,0.9573,0.2892,155.2175,258.1143)"
   enable-background="new    "
   width="1.7640001"
   height="0.37900001"
   style="opacity:0.7;fill:#808183" />
					
						<ellipse
   id="ellipse659"
   sodipodi:cx="248.127"
   sodipodi:cy="23.518999"
   sodipodi:rx="3.3469999"
   sodipodi:ry="4.5890002"
   transform="matrix(0.9573,0.2892,-0.2892,0.9573,17.4037,-70.7511)"
   cx="248.127"
   cy="23.518999"
   rx="3.3469999"
   ry="4.5890002"
   d="m 251.474,23.518999 c 0,2.534435 -1.4985,4.589 -3.347,4.589 -1.8485,0 -3.347,-2.054565 -3.347,-4.589 0,-2.534435 1.4985,-4.589 3.347,-4.589 1.8485,0 3.347,2.054565 3.347,4.589 z"
   style="fill:#d0d1d3">
					</ellipse>
					<path
   id="path661"
   inkscape:connector-curvature="0"
   d="m 251.336,24.498 c -0.733,2.425 -2.762,3.958 -4.531,3.424 -1.77,-0.535 -2.61,-2.936 -1.877,-5.36 l 6.408,1.936 z"
   style="fill:#929496" />
					<path
   id="path663"
   inkscape:connector-curvature="0"
   d="m 244.928,22.562 0,0 c -0.681,2.253 0.202,4.513 1.972,5.047 1.77,0.535 3.756,-0.857 4.437,-3.11 v -10e-4 l -6.409,-1.936 z"
   style="fill:#bfbfbf" />
				</g>
				<g
   id="g665"
   transform="translate(15.075551,-11.449786)">
					
						<rect
   id="rect667"
   x="255.33"
   y="11.473"
   transform="matrix(0.2893,-0.9572,0.9572,0.2893,169.7718,254.3927)"
   width="1.7640001"
   height="2.7750001"
   style="fill:#d0d1d3" />
					
						<rect
   id="rect669"
   x="255.646"
   y="11.875"
   transform="matrix(0.2888,-0.9574,0.9574,0.2888,169.427,254.6057)"
   width="0.88200003"
   height="2.7750001"
   style="fill:#b7b7b7" />
					
						<rect
   id="rect671"
   x="254.183"
   y="12.323"
   transform="matrix(0.2893,-0.9572,0.9572,0.2893,169.2853,253.0465)"
   enable-background="new    "
   width="1.7640001"
   height="0.37900001"
   style="opacity:0.7;fill:#808183" />
					
						<ellipse
   id="ellipse673"
   sodipodi:cx="251.786"
   sodipodi:cy="11.498"
   sodipodi:rx="3.3469999"
   sodipodi:ry="4.5879998"
   transform="matrix(0.9572,0.2893,-0.2893,0.9572,14.091,-72.3445)"
   cx="251.786"
   cy="11.498"
   rx="3.3469999"
   ry="4.5879998"
   d="m 255.133,11.498 c 0,2.533882 -1.49851,4.588 -3.347,4.588 -1.8485,0 -3.347,-2.054118 -3.347,-4.588 0,-2.5338822 1.4985,-4.5879997 3.347,-4.5879997 1.84849,0 3.347,2.0541175 3.347,4.5879997 z"
   style="fill:#d0d1d3">
					</ellipse>
					<path
   id="path675"
   inkscape:connector-curvature="0"
   d="m 254.978,12.478 c -0.733,2.426 -2.762,3.958 -4.531,3.424 -1.77,-0.535 -2.61,-2.936 -1.877,-5.36 l 6.408,1.936 z"
   style="fill:#929496" />
					<path
   id="path677"
   inkscape:connector-curvature="0"
   d="m 248.57,10.541 0,0 c -0.681,2.253 0.202,4.513 1.972,5.047 1.77,0.535 3.756,-0.857 4.437,-3.11 l 0,0 -6.409,-1.937 z"
   style="fill:#bfbfbf" />
				</g>
				
					<rect
   id="rect679"
   x="274.33701"
   y="44.360001"
   transform="matrix(-2.547107e-6,-1,1,-2.547107e-6,230.2672,321.3676)"
   width="2.9590001"
   height="2.381"
   style="fill:#a6a8aa" />
				
					<rect
   id="rect681"
   x="273.88101"
   y="45.243"
   transform="matrix(-2.547107e-6,-1,1,-2.547107e-6,229.8102,320.9106)"
   width="2.9590001"
   height="0.61500001"
   style="fill:#e6e6e7" />
				
					<rect
   id="rect683"
   x="277.47699"
   y="44.189999"
   transform="matrix(-2.547107e-6,-1,1,-2.547107e-6,233.4063,324.5066)"
   width="2.9590001"
   height="2.721"
   style="fill:#a6a8aa" />
				
					<rect
   id="rect685"
   x="278.104"
   y="45.242001"
   transform="matrix(-2.547107e-6,-1,1,-2.547107e-6,234.0333,325.1337)"
   width="2.9590001"
   height="0.61699998"
   style="fill:#e6e6e7" />
				
					<circle
   id="circle687"
   sodipodi:cx="277.396"
   sodipodi:cy="45.550999"
   sodipodi:rx="1.454"
   sodipodi:ry="1.454"
   cx="277.396"
   cy="45.550999"
   r="1.454"
   d="m 278.85,45.550999 c 0,0.803022 -0.65098,1.454 -1.454,1.454 -0.80303,0 -1.454,-0.650978 -1.454,-1.454 0,-0.803022 0.65097,-1.454 1.454,-1.454 0.80302,0 1.454,0.650978 1.454,1.454 z"
   style="fill:#e6e6e7">
				</circle>
				<path
   id="path689"
   inkscape:connector-curvature="0"
   d="m 275.941,45.551 c 0,0.804 0.652,1.454 1.455,1.454 0.803,0 1.453,-0.65 1.453,-1.454 h -2.908 z"
   style="fill:#d0d1d3" />
				
					<rect
   id="rect691"
   x="277.224"
   y="44.630001"
   transform="matrix(-0.4527,-0.8917,0.8917,-0.4527,362.3392,313.5443)"
   width="0.354"
   height="1.8710001"
   style="fill:#808183" />
				
					<rect
   id="rect693"
   x="277.21799"
   y="44.615002"
   transform="matrix(-0.891,0.454,-0.454,-0.891,545.2388,-39.7914)"
   width="0.35499999"
   height="1.8710001"
   style="fill:#808183" />
			</g>
		</g>
	</g>
</g>
</svg>